<?xml version="1.0" encoding="UTF-8" standalone="no"?>
<svg
   xmlns:dc="http://purl.org/dc/elements/1.1/"
   xmlns:cc="http://creativecommons.org/ns#"
   xmlns:rdf="http://www.w3.org/1999/02/22-rdf-syntax-ns#"
   xmlns:svg="http://www.w3.org/2000/svg"
   xmlns="http://www.w3.org/2000/svg"
   xmlns:sodipodi="http://sodipodi.sourceforge.net/DTD/sodipodi-0.dtd"
   xmlns:inkscape="http://www.inkscape.org/namespaces/inkscape"
   version="1.1"
   id="svg2"
   xml:space="preserve"
   width="992.01575"
   height="811.9032"
   viewBox="0 0 992.01579 811.9032"
   sodipodi:docname="Dist_graph.svg"
   inkscape:version="1.0.1 (0767f8302a, 2020-10-17)"><metadata
     id="metadata8"><rdf:RDF><cc:Work
         rdf:about=""><dc:format>image/svg+xml</dc:format><dc:type
           rdf:resource="http://purl.org/dc/dcmitype/StillImage" /><dc:title></dc:title></cc:Work></rdf:RDF></metadata><defs
     id="defs6"><clipPath
       clipPathUnits="userSpaceOnUse"
       id="clipPath38"><path
         d="M 34.06,19.87 H 725.53 V 589.96 H 34.06 Z"
         id="path36" /></clipPath></defs><sodipodi:namedview
     pagecolor="#ffffff"
     bordercolor="#666666"
     borderopacity="1"
     objecttolerance="10"
     gridtolerance="10"
     guidetolerance="10"
     inkscape:pageopacity="0"
     inkscape:pageshadow="2"
     inkscape:window-width="1920"
     inkscape:window-height="1052"
     id="namedview4"
     showgrid="false"
     fit-margin-top="0"
     fit-margin-left="0"
     fit-margin-right="0"
     fit-margin-bottom="0"
     inkscape:zoom="0.65511365"
     inkscape:cx="542.13882"
     inkscape:cy="383.46387"
     inkscape:window-x="1920"
     inkscape:window-y="0"
     inkscape:window-maximized="1"
     inkscape:current-layer="g10" /><g
     id="g10"
     inkscape:groupmode="layer"
     inkscape:label="Dist_graph"
     transform="matrix(1.3333333,0,0,-1.3333333,24.642466,786.61331)"><g
       id="g12" /><g
       id="g14" /><g
       id="g16" /><g
       id="g18" /><g
       id="g20" /><g
       id="g22" /><g
       id="g24" /><g
       id="g30" /><g
       id="g32"><g
         id="g34"
         clip-path="url(#clipPath38)"><path
           d="M 34.06,19.87 H 725.53 V 589.96 H 34.06 Z"
           style="fill:#ebebeb;fill-opacity:1;fill-rule:nonzero;stroke:none"
           id="path40" /><path
           d="M 34.06,126.41 H 725.52"
           style="fill:none;stroke:#ffffff;stroke-width:0.53;stroke-linecap:butt;stroke-linejoin:round;stroke-miterlimit:10;stroke-dasharray:none;stroke-opacity:1"
           id="path42" /><path
           d="M 34.06,264.82 H 725.52"
           style="fill:none;stroke:#ffffff;stroke-width:0.53;stroke-linecap:butt;stroke-linejoin:round;stroke-miterlimit:10;stroke-dasharray:none;stroke-opacity:1"
           id="path44" /><path
           d="M 34.06,403.23 H 725.52"
           style="fill:none;stroke:#ffffff;stroke-width:0.53;stroke-linecap:butt;stroke-linejoin:round;stroke-miterlimit:10;stroke-dasharray:none;stroke-opacity:1"
           id="path46" /><path
           d="M 34.06,541.63 H 725.52"
           style="fill:none;stroke:#ffffff;stroke-width:0.53;stroke-linecap:butt;stroke-linejoin:round;stroke-miterlimit:10;stroke-dasharray:none;stroke-opacity:1"
           id="path48" /><path
           d="M 34.06,57.21 H 725.52"
           style="fill:none;stroke:#ffffff;stroke-width:1.07;stroke-linecap:butt;stroke-linejoin:round;stroke-miterlimit:10;stroke-dasharray:none;stroke-opacity:1"
           id="path50" /><path
           d="M 34.06,195.62 H 725.52"
           style="fill:none;stroke:#ffffff;stroke-width:1.07;stroke-linecap:butt;stroke-linejoin:round;stroke-miterlimit:10;stroke-dasharray:none;stroke-opacity:1"
           id="path52" /><path
           d="M 34.06,334.02 H 725.52"
           style="fill:none;stroke:#ffffff;stroke-width:1.07;stroke-linecap:butt;stroke-linejoin:round;stroke-miterlimit:10;stroke-dasharray:none;stroke-opacity:1"
           id="path54" /><path
           d="M 34.06,472.43 H 725.52"
           style="fill:none;stroke:#ffffff;stroke-width:1.07;stroke-linecap:butt;stroke-linejoin:round;stroke-miterlimit:10;stroke-dasharray:none;stroke-opacity:1"
           id="path56" /><path
           d="M 218.45,19.87 V 589.96"
           style="fill:none;stroke:#ffffff;stroke-width:1.07;stroke-linecap:butt;stroke-linejoin:round;stroke-miterlimit:10;stroke-dasharray:none;stroke-opacity:1"
           id="path58" /><path
           d="M 525.77,19.87 V 589.96"
           style="fill:none;stroke:#ffffff;stroke-width:1.07;stroke-linecap:butt;stroke-linejoin:round;stroke-miterlimit:10;stroke-dasharray:none;stroke-opacity:1"
           id="path60" /><path
           d="m 279.91,45.79 v 0.33 0.33 0.32 0.33 0.33 0.33 0.33 0.33 0.33 0.33 0.33 0.33 0.33 0.33 0.33 0.33 0.33 0.33 0.33 0.33 0.33 0.33 0.33 0.33 0.32 0.33 0.33 0.33 0.33 0.33 0.33 0.33 0.33 0.33 0.33 0.33 0.33 0.33 0.33 0.33 0.33 0.33 0.33 0.33 0.33 0.33 0.32 0.33 0.33 0.33 0.33 0.33 0.33 0.33 0.33 0.33 0.33 0.33 0.33 0.33 0.33 0.33 0.33 0.33 0.33 0.33 0.33 0.32 0.33 0.33 0.33 0.33 0.33 0.33 0.33 0.33 0.33 0.33 0.33 0.33 0.33 0.33 0.33 0.33 0.33 0.33 0.33 0.33 0.33 0.32 0.33 0.33 0.33 0.33 0.33 0.33 0.33 0.33 0.33 0.33 0.33 0.33 0.33 0.33 0.33 0.33 0.33 0.33 0.33 0.33 0.33 0.32 0.33 0.33 0.33 0.33 0.33 0.33 0.33 0.33 0.33 0.33 0.33 0.33 0.33 0.33 0.33 0.33 0.33 0.33 0.33 0.33 0.33 0.32 0.33 0.33 0.33 0.33 0.33 0.33 0.33 0.33 0.33 0.33 0.33 0.33 0.33 0.33 0.33 0.33 0.33 0.33 0.33 0.33 0.33 0.32 0.33 0.33 0.33 0.33 0.33 0.33 0.33 0.33 0.33 0.33 0.33 0.33 0.33 0.33 0.33 0.33 0.33 0.33 0.33 0.33 0.33 0.32 0.33 0.33 0.33 0.33 0.33 0.33 0.33 0.33 0.33 0.33 0.33 0.33 0.33 0.33 0.33 0.33 0.33 0.33 0.33 0.33 0.33 0.32 0.33 0.33 0.33 0.33 0.33 0.33 0.33 0.33 0.33 0.33 0.33 0.33 0.33 0.33 0.33 0.33 0.33 0.33 0.33 0.33 0.33 0.32 0.33 0.33 0.33 0.33 0.33 0.33 0.33 0.33 0.33 0.33 0.33 0.33 0.33 0.33 0.33 0.33 0.33 0.33 0.33 0.33 0.32 0.33 0.33 0.33 0.33 0.33 0.33 0.33 0.33 0.33 0.33 0.33 0.33 0.33 0.33 0.33 0.33 0.33 0.33 0.33 0.33 0.33 0.32 0.33 0.33 0.33 0.33 0.33 0.33 0.33 0.33 0.33 0.33 0.33 0.33 0.33 0.33 0.33 0.33 0.33 0.33 0.33 0.33 0.33 0.32 0.33 0.33 0.33 0.33 0.33 0.33 0.33 0.33 0.33 0.33 0.33 0.33 0.33 0.33 0.33 0.33 0.33 0.33 0.33 0.33 0.33 0.32 0.33 0.33 0.33 0.33 0.33 0.33 0.33 0.33 0.33 0.33 0.33 0.33 0.33 0.33 0.33 0.33 0.33 0.33 0.33 0.33 0.33 0.32 0.33 0.33 0.33 0.33 0.33 0.33 0.33 0.33 0.33 0.33 0.33 0.33 0.33 0.33 0.33 0.33 0.33 0.33 0.33 0.33 0.33 0.32 0.33 0.33 0.33 0.33 0.33 0.33 0.33 0.33 0.33 0.33 0.33 0.33 0.33 0.33 0.33 0.33 0.33 0.33 0.33 0.33 0.33 0.32 0.33 0.33 0.33 0.33 0.33 0.33 0.33 0.33 0.33 0.33 0.33 0.33 0.33 0.33 0.33 0.33 0.33 0.33 0.33 0.33 0.33 0.32 0.33 0.33 0.33 0.33 0.33 0.33 0.33 0.33 0.33 0.33 0.33 0.33 0.33 0.33 0.33 0.33 0.33 0.33 0.33 0.33 0.32 0.33 0.33 0.33 0.33 0.33 0.33 0.33 0.33 0.33 0.33 0.33 0.33 0.33 0.33 0.33 0.33 0.33 0.33 0.33 0.33 0.33 0.32 0.33 0.33 0.33 0.33 0.33 0.33 0.33 0.33 0.33 0.33 0.33 0.33 0.33 0.33 0.33 0.33 0.33 0.33 0.33 0.33 0.33 0.32 0.33 0.33 0.33 0.33 0.33 0.33 0.33 0.33 0.33 0.33 0.33 0.33 0.33 0.33 0.33 0.33 0.33 0.33 0.33 0.33 0.33 0.32 0.33 0.33 0.33 0.33 0.33 0.33 0.33 0.33 0.33 0.33 0.33 0.33 0.33 0.33 0.33 0.33 0.33 0.33 0.33 0.33 0.33 0.32 0.33 0.33 0.33 0.33 0.33 h 7.85 l 0.02,-0.33 0.01,-0.33 0.02,-0.33 0.01,-0.33 0.01,-0.33 0.01,-0.32 0.02,-0.33 v -0.33 l 0.01,-0.33 0.01,-0.33 0.01,-0.33 v -0.33 l 0.01,-0.33 v -0.33 l 0.01,-0.33 v -0.33 -0.33 -0.33 l 0.01,-0.33 v -0.33 -0.33 -0.33 l -0.01,-0.33 v -0.33 -0.33 -0.33 -0.33 -0.32 l -0.01,-0.33 v -0.33 -0.33 -0.33 -0.33 l -0.01,-0.33 v -0.33 -0.33 -0.33 -0.33 -0.33 -0.33 -0.33 -0.33 l 0.01,-0.33 v -0.33 -0.33 l 0.01,-0.33 v -0.33 l 0.01,-0.33 0.01,-0.33 0.01,-0.32 0.01,-0.33 0.01,-0.33 0.01,-0.33 0.01,-0.33 0.02,-0.33 0.02,-0.33 0.01,-0.33 0.02,-0.33 0.03,-0.33 0.02,-0.33 0.02,-0.33 0.03,-0.33 0.03,-0.33 0.03,-0.33 0.03,-0.33 0.04,-0.33 0.04,-0.33 0.03,-0.33 0.04,-0.33 0.05,-0.33 0.04,-0.33 0.05,-0.32 0.05,-0.33 0.05,-0.33 0.06,-0.33 0.06,-0.33 0.06,-0.33 0.06,-0.33 0.07,-0.33 0.06,-0.33 0.07,-0.33 0.08,-0.33 0.07,-0.33 0.08,-0.33 0.08,-0.33 0.09,-0.33 0.09,-0.33 0.08,-0.33 0.1,-0.33 0.09,-0.33 0.1,-0.33 0.11,-0.33 0.1,-0.33 0.11,-0.32 0.11,-0.33 0.11,-0.33 0.12,-0.33 0.12,-0.33 0.13,-0.33 0.12,-0.33 0.13,-0.33 0.14,-0.33 0.13,-0.33 0.14,-0.33 0.15,-0.33 0.14,-0.33 0.15,-0.33 0.15,-0.33 0.16,-0.33 0.16,-0.33 0.16,-0.33 0.16,-0.33 0.17,-0.33 0.17,-0.33 0.18,-0.32 0.17,-0.33 0.19,-0.33 0.18,-0.33 0.19,-0.33 0.19,-0.33 0.19,-0.33 0.2,-0.33 0.2,-0.33 0.2,-0.33 0.21,-0.33 0.2,-0.33 0.22,-0.33 0.21,-0.33 0.22,-0.33 0.22,-0.33 0.23,-0.33 0.22,-0.33 0.23,-0.33 0.24,-0.33 0.23,-0.33 0.24,-0.33 0.25,-0.32 0.24,-0.33 0.25,-0.33 0.25,-0.33 0.26,-0.33 0.26,-0.33 0.26,-0.33 0.26,-0.33 0.27,-0.33 0.27,-0.33 0.27,-0.33 0.28,-0.33 0.27,-0.33 0.29,-0.33 0.28,-0.33 0.29,-0.33 0.29,-0.33 0.29,-0.33 0.3,-0.33 0.3,-0.33 0.3,-0.33 0.31,-0.33 0.31,-0.32 0.31,-0.33 0.31,-0.33 0.32,-0.33 0.32,-0.33 0.33,-0.33 0.33,-0.33 0.33,-0.33 0.33,-0.33 0.34,-0.33 0.34,-0.33 0.34,-0.33 0.35,-0.33 0.35,-0.33 0.36,-0.33 0.35,-0.33 0.37,-0.33 0.36,-0.33 0.37,-0.33 0.37,-0.33 0.38,-0.33 0.38,-0.33 0.38,-0.32 0.38,-0.33 0.39,-0.33 0.4,-0.33 0.4,-0.33 0.4,-0.33 0.41,-0.33 0.41,-0.33 0.41,-0.33 0.42,-0.33 0.42,-0.33 0.43,-0.33 0.43,-0.33 0.43,-0.33 0.44,-0.33 0.45,-0.33 0.45,-0.33 0.45,-0.33 0.46,-0.33 0.46,-0.33 0.47,-0.33 0.47,-0.33 0.48,-0.32 0.48,-0.33 0.49,-0.33 0.49,-0.33 0.49,-0.33 0.5,-0.33 0.51,-0.33 0.51,-0.33 0.52,-0.33 0.52,-0.33 0.53,-0.33 0.53,-0.33 0.54,-0.33 0.55,-0.33 0.55,-0.33 0.55,-0.33 0.56,-0.33 0.56,-0.33 0.58,-0.33 0.57,-0.33 0.59,-0.33 0.58,-0.33 0.6,-0.32 0.59,-0.33 0.61,-0.33 0.61,-0.33 0.62,-0.33 0.62,-0.33 0.63,-0.33 0.63,-0.33 0.64,-0.33 0.64,-0.33 0.65,-0.33 0.65,-0.33 0.67,-0.33 0.66,-0.33 0.67,-0.33 0.68,-0.33 0.68,-0.33 0.69,-0.33 0.69,-0.33 0.7,-0.33 0.7,-0.33 0.71,-0.33 0.72,-0.32 0.71,-0.33 0.73,-0.33 0.72,-0.33 0.74,-0.33 0.73,-0.33 0.75,-0.33 0.74,-0.33 0.75,-0.33 0.76,-0.33 0.76,-0.33 0.76,-0.33 0.76,-0.33 0.77,-0.33 0.78,-0.33 0.78,-0.33 0.78,-0.33 0.78,-0.33 0.79,-0.33 0.79,-0.33 0.79,-0.33 0.79,-0.33 0.8,-0.32 0.8,-0.33 0.8,-0.33 0.8,-0.33 0.81,-0.33 0.8,-0.33 0.81,-0.33 0.81,-0.33 0.81,-0.33 0.81,-0.33 0.81,-0.33 0.81,-0.33 0.81,-0.33 0.81,-0.33 0.81,-0.33 0.81,-0.33 0.81,-0.33 0.8,-0.33 0.81,-0.33 0.8,-0.33 0.81,-0.33 0.8,-0.32 0.8,-0.33 0.79,-0.33 0.8,-0.33 0.79,-0.33 0.78,-0.33 0.79,-0.33 0.78,-0.33 0.77,-0.33 0.78,-0.33 0.76,-0.33 0.77,-0.33 0.75,-0.33 0.76,-0.33 0.74,-0.33 0.74,-0.33 0.74,-0.33 0.73,-0.33 0.72,-0.33 0.72,-0.33 0.7,-0.33 0.71,-0.33 0.69,-0.32 0.69,-0.33 0.68,-0.33 0.67,-0.33 0.66,-0.33 0.65,-0.33 0.65,-0.33 0.63,-0.33 0.63,-0.33 0.61,-0.33 0.61,-0.33 0.6,-0.33 0.58,-0.33 0.58,-0.33 0.56,-0.33 0.55,-0.33 0.55,-0.33 0.53,-0.33 0.52,-0.33 0.51,-0.33 0.49,-0.33 0.48,-0.33 0.48,-0.32 0.45,-0.33 0.45,-0.33 0.43,-0.33 0.43,-0.33 0.4,-0.33 0.4,-0.33 0.37,-0.33 0.37,-0.33 0.35,-0.33 0.34,-0.33 0.32,-0.33 0.32,-0.33 0.29,-0.33 0.28,-0.33 0.26,-0.33 0.26,-0.33 0.23,-0.33 0.23,-0.33 0.2,-0.33 0.2,-0.33 0.17,-0.33 0.16,-0.32 0.14,-0.33 0.14,-0.33 0.11,-0.33 0.1,-0.33 0.08,-0.33 0.07,-0.33 0.05,-0.33 0.04,-0.33 0.01,-0.33 0.01,-0.33 -0.01,-0.33 -0.02,-0.33 -0.05,-0.33 -0.05,-0.33 -0.08,-0.33 -0.09,-0.33 -0.11,-0.33 -0.12,-0.33 -0.14,-0.33 -0.15,-0.33 -0.17,-0.33 -0.18,-0.32 -0.2,-0.33 -0.21,-0.33 -0.23,-0.33 -0.24,-0.33 -0.27,-0.33 -0.27,-0.33 -0.29,-0.33 -0.3,-0.33 -0.32,-0.33 -0.34,-0.33 -0.35,-0.33 -0.36,-0.33 -0.38,-0.33 -0.39,-0.33 -0.4,-0.33 -0.42,-0.33 -0.43,-0.33 -0.45,-0.33 -0.46,-0.33 -0.47,-0.33 -0.49,-0.33 -0.5,-0.32 -0.51,-0.33 -0.53,-0.33 -0.53,-0.33 -0.55,-0.33 -0.56,-0.33 -0.58,-0.33 -0.58,-0.33 -0.6,-0.33 -0.6,-0.33 -0.63,-0.33 -0.62,-0.33 -0.64,-0.33 -0.65,-0.33 -0.67,-0.33 -0.66,-0.33 -0.69,-0.33 -0.68,-0.33 -0.71,-0.33 -0.7,-0.33 -0.73,-0.33 -0.72,-0.33 -0.74,-0.32 -0.74,-0.33 -0.75,-0.33 -0.76,-0.33 -0.77,-0.33 -0.77,-0.33 -0.78,-0.33 -0.79,-0.33 -0.8,-0.33 -0.8,-0.33 -0.81,-0.33 -0.81,-0.33 -0.82,-0.33 -0.82,-0.33 -0.83,-0.33 -0.84,-0.33 -0.84,-0.33 -0.84,-0.33 -0.85,-0.33 -0.85,-0.33 -0.86,-0.33 -0.86,-0.33 -0.87,-0.32 -0.86,-0.33 -0.87,-0.33 -0.87,-0.33 -0.88,-0.33 -0.88,-0.33 -0.88,-0.33 -0.88,-0.33 -0.88,-0.33 -0.89,-0.33 -0.88,-0.33 -0.89,-0.33 -0.89,-0.33 -0.88,-0.33 -0.89,-0.33 -0.89,-0.33 -0.89,-0.33 -0.89,-0.33 -0.89,-0.33 -0.88,-0.33 -0.89,-0.33 -0.89,-0.32 -0.88,-0.33 -0.88,-0.33 -0.89,-0.33 -0.88,-0.33 -0.87,-0.33 -0.88,-0.33 -0.87,-0.33 -0.88,-0.33 -0.87,-0.33 -0.86,-0.33 -0.87,-0.33 -0.86,-0.33 -0.85,-0.33 -0.86,-0.33 -0.85,-0.33 -0.84,-0.33 -0.85,-0.33 -0.84,-0.33 -0.83,-0.33 -0.83,-0.33 -0.83,-0.33 -0.82,-0.32 -0.83,-0.33 -0.81,-0.33 -0.81,-0.33 -0.8,-0.33 -0.8,-0.33 -0.79,-0.33 -0.8,-0.33 -0.78,-0.33 -0.78,-0.33 -0.77,-0.33 -0.77,-0.33 -0.76,-0.33 -0.76,-0.33 -0.75,-0.33 -0.75,-0.33 -0.73,-0.33 -0.74,-0.33 -0.73,-0.33 -0.72,-0.33 -0.71,-0.33 -0.71,-0.33 -0.7,-0.32 -0.7,-0.33 -0.69,-0.33 z"
           style="fill:#f8766d;fill-opacity:1;fill-rule:nonzero;stroke:#333333;stroke-width:1.07;stroke-linecap:round;stroke-linejoin:round;stroke-miterlimit:10;stroke-dasharray:none;stroke-opacity:1"
           id="path62" /><path
           d="m 587.23,112.09 v 0.88 0.89 0.88 0.89 0.88 0.88 0.89 0.88 0.89 0.88 0.89 0.88 0.89 0.88 0.88 0.89 0.88 0.89 0.88 0.89 0.88 0.89 0.88 0.88 0.89 0.88 0.89 0.88 0.89 0.88 0.89 0.88 0.88 0.89 0.88 0.89 0.88 0.89 0.88 0.89 0.88 0.89 0.88 0.88 0.89 0.88 0.89 0.88 0.89 0.88 0.89 0.88 0.88 0.89 0.88 0.89 0.88 0.89 0.88 0.89 0.88 0.88 0.89 0.88 0.89 0.88 0.89 0.88 0.89 0.88 0.88 0.89 0.88 0.89 0.88 0.89 0.88 0.89 0.88 0.88 0.89 0.88 0.89 0.88 0.89 0.88 0.89 0.88 0.88 0.89 0.88 0.89 0.88 0.89 0.88 0.89 0.88 0.88 0.89 0.88 0.89 0.88 0.89 0.88 0.89 0.88 0.89 0.88 0.88 0.89 0.88 0.89 0.88 0.89 0.88 0.89 0.88 0.88 0.89 0.88 0.89 0.88 0.89 0.88 0.89 0.88 0.88 0.89 0.88 0.89 0.88 0.89 0.88 0.89 0.88 0.88 0.89 0.88 0.89 0.88 0.89 0.88 0.89 0.88 0.88 0.89 0.88 0.89 0.88 0.89 0.88 0.89 0.88 0.88 0.89 0.88 0.89 0.88 0.89 0.88 0.89 0.88 0.88 0.89 0.88 0.89 0.88 0.89 0.88 0.89 0.88 0.89 0.88 0.88 0.89 0.88 0.89 0.88 0.89 0.88 0.89 0.88 0.88 0.89 0.88 0.89 0.88 0.89 0.88 0.89 0.88 0.88 0.89 0.88 0.89 0.88 0.89 0.88 0.89 0.88 0.88 0.89 0.88 0.89 0.88 0.89 0.88 0.89 0.88 0.88 0.89 0.88 0.89 0.88 0.89 0.88 0.89 0.88 0.88 0.89 0.88 0.89 0.88 0.89 0.88 0.89 0.88 0.88 0.89 0.88 0.89 0.88 0.89 0.88 0.89 0.88 0.89 0.88 0.88 0.89 0.88 0.89 0.88 0.89 0.88 0.89 0.88 0.88 0.89 0.88 0.89 0.88 0.89 0.88 0.89 0.88 0.88 0.89 0.88 0.89 0.88 0.89 0.88 0.89 0.88 0.88 0.89 0.88 0.89 0.88 0.89 0.88 0.89 0.88 0.88 0.89 0.88 0.89 0.88 0.89 0.88 0.89 0.88 0.88 0.89 0.88 0.89 0.88 0.89 0.88 0.89 0.88 0.88 0.89 0.88 0.89 0.88 0.89 0.88 0.89 0.88 0.89 0.88 0.88 0.89 0.88 0.89 0.88 0.89 0.88 0.89 0.88 0.88 0.89 0.88 0.89 0.88 0.89 0.88 0.89 0.88 0.88 0.89 0.88 0.89 0.88 0.89 0.88 0.89 0.88 0.88 0.89 0.88 0.89 0.88 0.89 0.88 0.89 0.88 0.88 0.89 0.88 0.89 0.88 0.89 0.88 0.89 0.88 0.88 0.89 0.88 0.89 0.88 0.89 0.88 0.89 0.88 0.88 0.89 0.88 0.89 0.88 0.89 0.88 0.89 0.88 0.89 0.88 0.88 0.89 0.88 0.89 0.88 0.89 0.88 0.89 0.88 0.88 0.89 0.88 0.89 0.88 0.89 0.88 0.89 0.88 0.88 0.89 0.88 0.89 0.88 0.89 0.88 0.89 0.88 0.88 0.89 0.88 0.89 0.88 0.89 0.88 0.89 0.88 0.88 0.89 0.88 0.89 0.88 0.89 0.88 0.89 0.88 0.88 0.89 0.88 0.89 0.88 0.89 0.88 0.89 0.88 0.88 0.89 0.88 0.89 0.88 0.89 0.88 0.89 0.88 0.89 0.88 0.88 0.89 0.88 0.89 0.88 0.89 0.88 0.89 0.88 0.88 0.89 0.88 0.89 0.88 0.89 0.88 0.89 0.88 0.88 0.89 0.88 0.89 0.88 0.89 0.88 0.89 0.88 0.88 0.89 0.88 0.89 0.88 0.89 0.88 0.89 0.88 0.88 0.89 0.88 0.89 0.88 0.89 0.88 0.89 0.88 0.88 0.89 0.88 0.89 0.88 0.89 0.88 0.89 0.88 0.88 0.89 0.88 0.89 0.88 0.89 0.88 0.89 0.88 0.89 0.88 0.88 0.89 0.88 0.89 0.88 0.89 0.88 0.89 0.88 0.88 0.89 0.88 0.89 h 36.4 l 0.37,-0.89 0.37,-0.88 0.37,-0.89 0.38,-0.88 0.37,-0.88 0.38,-0.89 0.38,-0.88 0.39,-0.89 0.38,-0.88 0.39,-0.89 0.39,-0.88 0.39,-0.89 0.39,-0.88 0.4,-0.88 0.4,-0.89 0.39,-0.88 0.41,-0.89 0.4,-0.88 0.4,-0.89 0.41,-0.88 0.41,-0.89 0.41,-0.88 0.42,-0.89 0.41,-0.88 0.42,-0.88 0.42,-0.89 0.42,-0.88 0.42,-0.89 0.43,-0.88 0.42,-0.89 0.43,-0.88 0.43,-0.89 0.43,-0.88 0.44,-0.88 0.43,-0.89 0.44,-0.88 0.44,-0.89 0.44,-0.88 0.44,-0.89 0.44,-0.88 0.45,-0.89 0.45,-0.88 0.44,-0.88 0.46,-0.89 0.45,-0.88 0.45,-0.89 0.46,-0.88 0.45,-0.89 0.46,-0.88 0.46,-0.89 0.46,-0.88 0.46,-0.88 0.47,-0.89 0.46,-0.88 0.47,-0.89 0.46,-0.88 0.47,-0.89 0.47,-0.88 0.48,-0.89 0.47,-0.88 0.47,-0.88 0.48,-0.89 0.47,-0.88 0.48,-0.89 0.48,-0.88 0.48,-0.89 0.48,-0.88 0.48,-0.89 0.48,-0.88 0.49,-0.88 0.48,-0.89 0.49,-0.88 0.48,-0.89 0.49,-0.88 0.49,-0.89 0.49,-0.88 0.49,-0.89 0.49,-0.88 0.49,-0.88 0.49,-0.89 0.49,-0.88 0.5,-0.89 0.49,-0.88 0.49,-0.89 0.5,-0.88 0.49,-0.89 0.5,-0.88 0.5,-0.89 0.49,-0.88 0.5,-0.88 0.5,-0.89 0.49,-0.88 0.5,-0.89 0.5,-0.88 0.5,-0.89 0.5,-0.88 0.49,-0.89 0.5,-0.88 0.5,-0.88 0.5,-0.89 0.5,-0.88 0.5,-0.89 0.5,-0.88 0.49,-0.89 0.5,-0.88 0.5,-0.89 0.5,-0.88 0.5,-0.88 0.49,-0.89 0.5,-0.88 0.5,-0.89 0.49,-0.88 0.5,-0.89 0.5,-0.88 0.49,-0.89 0.5,-0.88 0.49,-0.88 0.49,-0.89 0.5,-0.88 0.49,-0.89 0.49,-0.88 0.49,-0.89 0.49,-0.88 0.49,-0.89 0.49,-0.88 0.49,-0.88 0.48,-0.89 0.49,-0.88 0.48,-0.89 0.49,-0.88 0.48,-0.89 0.48,-0.88 0.48,-0.89 0.48,-0.88 0.48,-0.88 0.47,-0.89 0.48,-0.88 0.47,-0.89 0.48,-0.88 0.47,-0.89 0.47,-0.88 0.47,-0.89 0.46,-0.88 0.47,-0.88 0.46,-0.89 0.46,-0.88 0.47,-0.89 0.45,-0.88 0.46,-0.89 0.46,-0.88 0.45,-0.89 0.45,-0.88 0.45,-0.89 0.45,-0.88 0.45,-0.88 0.44,-0.89 0.44,-0.88 0.44,-0.89 0.44,-0.88 0.44,-0.89 0.43,-0.88 0.43,-0.89 0.43,-0.88 0.43,-0.88 0.42,-0.89 0.43,-0.88 0.42,-0.89 0.41,-0.88 0.42,-0.89 0.41,-0.88 0.41,-0.89 0.41,-0.88 0.41,-0.88 0.4,-0.89 0.4,-0.88 0.4,-0.89 0.39,-0.88 0.39,-0.89 0.39,-0.88 0.39,-0.89 0.38,-0.88 0.38,-0.88 0.38,-0.89 0.37,-0.88 0.38,-0.89 0.36,-0.88 0.37,-0.89 0.36,-0.88 0.36,-0.89 0.36,-0.88 0.35,-0.88 0.35,-0.89 0.35,-0.88 0.34,-0.89 0.35,-0.88 0.33,-0.89 0.34,-0.88 0.33,-0.89 0.32,-0.88 0.33,-0.88 0.32,-0.89 0.31,-0.88 0.32,-0.89 0.31,-0.88 0.3,-0.89 0.31,-0.88 0.3,-0.89 0.29,-0.88 0.3,-0.88 0.28,-0.89 0.29,-0.88 0.28,-0.89 0.27,-0.88 0.28,-0.89 0.27,-0.88 0.26,-0.89 0.26,-0.88 0.26,-0.89 0.26,-0.88 0.25,-0.88 0.24,-0.89 0.25,-0.88 0.23,-0.89 0.23,-0.88 0.24,-0.89 0.22,-0.88 0.22,-0.89 0.22,-0.88 0.21,-0.88 0.21,-0.89 0.21,-0.88 0.2,-0.89 0.2,-0.88 0.19,-0.89 0.19,-0.88 0.18,-0.89 0.18,-0.88 0.18,-0.88 0.16,-0.89 0.17,-0.88 0.16,-0.89 0.16,-0.88 0.15,-0.89 0.15,-0.88 0.15,-0.89 0.14,-0.88 0.13,-0.88 0.13,-0.89 0.13,-0.88 0.12,-0.89 0.12,-0.88 0.11,-0.89 0.11,-0.88 0.11,-0.89 0.09,-0.88 0.1,-0.88 0.09,-0.89 0.08,-0.88 0.09,-0.89 0.07,-0.88 0.07,-0.89 0.07,-0.88 0.06,-0.89 0.06,-0.88 0.06,-0.88 0.04,-0.89 0.05,-0.88 0.03,-0.89 0.04,-0.88 0.03,-0.89 0.02,-0.88 0.02,-0.89 0.02,-0.88 0.01,-0.88 v -0.89 -0.88 -0.89 l -0.01,-0.88 -0.01,-0.89 -0.02,-0.88 -0.02,-0.89 -0.04,-0.88 -0.03,-0.89 -0.03,-0.88 -0.05,-0.88 -0.04,-0.89 -0.06,-0.88 -0.05,-0.89 -0.06,-0.88 -0.07,-0.89 -0.07,-0.88 -0.08,-0.89 -0.08,-0.88 -0.08,-0.88 -0.1,-0.89 -0.09,-0.88 -0.1,-0.89 -0.11,-0.88 -0.11,-0.89 -0.11,-0.88 -0.12,-0.89 -0.12,-0.88 -0.13,-0.88 -0.14,-0.89 -0.13,-0.88 -0.15,-0.89 -0.15,-0.88 -0.15,-0.89 -0.16,-0.88 -0.16,-0.89 -0.17,-0.88 -0.17,-0.88 -0.17,-0.89 -0.19,-0.88 -0.18,-0.89 -0.19,-0.88 -0.2,-0.89 -0.19,-0.88 -0.21,-0.89 -0.21,-0.88 -0.21,-0.88 -0.22,-0.89 -0.22,-0.88 -0.23,-0.89 -0.23,-0.88 -0.24,-0.89 -0.24,-0.88 -0.24,-0.89 -0.25,-0.88 -0.26,-0.88 -0.25,-0.89 -0.27,-0.88 -0.27,-0.89 -0.27,-0.88 -0.27,-0.89 -0.28,-0.88 -0.29,-0.89 -0.29,-0.88 -0.29,-0.88 -0.3,-0.89 -0.3,-0.88 -0.31,-0.89 -0.31,-0.88 -0.31,-0.89 -0.32,-0.88 -0.32,-0.89 -0.33,-0.88 -0.33,-0.89 -0.34,-0.88 -0.33,-0.88 -0.35,-0.89 -0.34,-0.88 -0.35,-0.89 -0.36,-0.88 -0.36,-0.89 -0.36,-0.88 -0.37,-0.89 -0.37,-0.88 -0.37,-0.88 -0.38,-0.89 -0.38,-0.88 -0.38,-0.89 -0.39,-0.88 -0.39,-0.89 -0.4,-0.88 -0.4,-0.89 -0.4,-0.88 -0.41,-0.88 -0.41,-0.89 -0.41,-0.88 -0.42,-0.89 -0.42,-0.88 -0.42,-0.89 -0.43,-0.88 -0.43,-0.89 -0.43,-0.88 -0.43,-0.88 -0.44,-0.89 -0.45,-0.88 -0.44,-0.89 -0.45,-0.88 -0.45,-0.89 -0.45,-0.88 -0.46,-0.89 -0.46,-0.88 -0.46,-0.88 -0.47,-0.89 -0.46,-0.88 -0.47,-0.89 -0.48,-0.88 -0.47,-0.89 -0.48,-0.88 -0.48,-0.89 -0.48,-0.88 -0.49,-0.88 -0.48,-0.89 -0.5,-0.88 -0.49,-0.89 -0.49,-0.88 -0.5,-0.89 -0.5,-0.88 -0.5,-0.89 -0.5,-0.88 -0.51,-0.88 -0.5,-0.89 -0.51,-0.88 -0.51,-0.89 -0.52,-0.88 -0.51,-0.89 -0.52,-0.88 -0.51,-0.89 -0.52,-0.88 -0.53,-0.89 -0.52,-0.88 -0.52,-0.88 -0.53,-0.89 -0.52,-0.88 -0.53,-0.89 -0.53,-0.88 -0.53,-0.89 -0.53,-0.88 -0.54,-0.89 -0.53,-0.88 -0.54,-0.88 -0.53,-0.89 -0.54,-0.88 -0.54,-0.89 -0.54,-0.88 -0.54,-0.89 -0.54,-0.88 -0.54,-0.89 -0.54,-0.88 -0.54,-0.88 -0.55,-0.89 -0.54,-0.88 -0.54,-0.89 -0.55,-0.88 -0.54,-0.89 -0.55,-0.88 -0.54,-0.89 -0.55,-0.88 -0.55,-0.88 -0.54,-0.89 -0.55,-0.88 -0.55,-0.89 -0.54,-0.88 -0.55,-0.89 -0.55,-0.88 -0.54,-0.89 -0.55,-0.88 -0.54,-0.88 -0.55,-0.89 -0.55,-0.88 -0.54,-0.89 -0.55,-0.88 -0.54,-0.89 -0.54,-0.88 -0.55,-0.89 -0.54,-0.88 -0.54,-0.88 -0.54,-0.89 -0.54,-0.88 -0.54,-0.89 -0.54,-0.88 -0.54,-0.89 -0.54,-0.88 -0.54,-0.89 -0.53,-0.88 -0.54,-0.88 -0.53,-0.89 -0.53,-0.88 -0.53,-0.89 -0.54,-0.88 -0.53,-0.89 -0.52,-0.88 -0.53,-0.89 -0.53,-0.88 -0.52,-0.89 -0.52,-0.88 -0.52,-0.88 -0.52,-0.89 -0.52,-0.88 -0.52,-0.89 -0.52,-0.88 -0.51,-0.89 -0.51,-0.88 -0.51,-0.89 -0.51,-0.88 -0.51,-0.88 -0.5,-0.89 -0.51,-0.88 -0.5,-0.89 -0.5,-0.88 -0.5,-0.89 -0.5,-0.88 -0.49,-0.89 -0.49,-0.88 -0.49,-0.88 -0.49,-0.89 -0.49,-0.88 -0.48,-0.89 -0.48,-0.88 -0.49,-0.89 -0.47,-0.88 -0.48,-0.89 -0.47,-0.88 -0.47,-0.88 -0.47,-0.89 -0.47,-0.88 -0.46,-0.89 -0.47,-0.88 z"
           style="fill:#00bfc4;fill-opacity:1;fill-rule:nonzero;stroke:#333333;stroke-width:1.07;stroke-linecap:round;stroke-linejoin:round;stroke-miterlimit:10;stroke-dasharray:none;stroke-opacity:1"
           id="path64" /><path
           d="m 207.95,142.93 c 0,1.37 1.12,2.49 2.49,2.49 1.37,0 2.49,-1.12 2.49,-2.49 0,-1.37 -1.12,-2.49 -2.49,-2.49 -1.37,0 -2.49,1.12 -2.49,2.49"
           style="fill:#f8766d;fill-opacity:1;fill-rule:nonzero;stroke:none"
           id="path66" /><path
           d="m 190.05,86.76 c 0,1.37 1.12,2.49 2.49,2.49 1.36,0 2.48,-1.12 2.48,-2.49 0,-1.37 -1.12,-2.49 -2.48,-2.49 -1.37,0 -2.49,1.12 -2.49,2.49"
           style="fill:#f8766d;fill-opacity:1;fill-rule:nonzero;stroke:none"
           id="path68" /><path
           d="m 201.23,85.04 c 0,1.37 1.12,2.49 2.49,2.49 1.36,0 2.48,-1.12 2.48,-2.49 0,-1.37 -1.12,-2.49 -2.48,-2.49 -1.37,0 -2.49,1.12 -2.49,2.49"
           style="fill:#f8766d;fill-opacity:1;fill-rule:nonzero;stroke:none"
           id="path70" /><path
           d="m 227.74,113.78 c 0,1.36 1.12,2.48 2.49,2.48 1.37,0 2.49,-1.12 2.49,-2.48 0,-1.37 -1.12,-2.49 -2.49,-2.49 -1.37,0 -2.49,1.12 -2.49,2.49"
           style="fill:#f8766d;fill-opacity:1;fill-rule:nonzero;stroke:none"
           id="path72" /><path
           d="m 256.53,120.5 c 0,1.37 1.12,2.49 2.49,2.49 1.37,0 2.49,-1.12 2.49,-2.49 0,-1.37 -1.12,-2.49 -2.49,-2.49 -1.37,0 -2.49,1.12 -2.49,2.49"
           style="fill:#f8766d;fill-opacity:1;fill-rule:nonzero;stroke:none"
           id="path74" /><path
           d="m 182.88,88.9 c 0,1.37 1.12,2.49 2.49,2.49 1.37,0 2.49,-1.12 2.49,-2.49 0,-1.37 -1.12,-2.49 -2.49,-2.49 -1.37,0 -2.49,1.12 -2.49,2.49"
           style="fill:#f8766d;fill-opacity:1;fill-rule:nonzero;stroke:none"
           id="path76" /><path
           d="m 184.02,63.74 c 0,1.37 1.12,2.48 2.49,2.48 1.37,0 2.49,-1.11 2.49,-2.48 0,-1.37 -1.12,-2.49 -2.49,-2.49 -1.37,0 -2.49,1.12 -2.49,2.49"
           style="fill:#f8766d;fill-opacity:1;fill-rule:nonzero;stroke:none"
           id="path78" /><path
           d="m 261.72,98.25 c 0,1.36 1.12,2.48 2.48,2.48 1.37,0 2.49,-1.12 2.49,-2.48 0,-1.37 -1.12,-2.49 -2.49,-2.49 -1.36,0 -2.48,1.12 -2.48,2.49"
           style="fill:#f8766d;fill-opacity:1;fill-rule:nonzero;stroke:none"
           id="path80" /><path
           d="m 232.73,114.5 c 0,1.37 1.12,2.49 2.49,2.49 1.37,0 2.49,-1.12 2.49,-2.49 0,-1.37 -1.12,-2.49 -2.49,-2.49 -1.37,0 -2.49,1.12 -2.49,2.49"
           style="fill:#f8766d;fill-opacity:1;fill-rule:nonzero;stroke:none"
           id="path82" /><path
           d="m 195.98,77.09 c 0,1.37 1.12,2.49 2.48,2.49 1.37,0 2.49,-1.12 2.49,-2.49 0,-1.37 -1.12,-2.49 -2.49,-2.49 -1.36,0 -2.48,1.12 -2.48,2.49"
           style="fill:#f8766d;fill-opacity:1;fill-rule:nonzero;stroke:none"
           id="path84" /><path
           d="m 244.82,61.63 c 0,1.36 1.12,2.48 2.49,2.48 1.37,0 2.49,-1.12 2.49,-2.48 0,-1.37 -1.12,-2.49 -2.49,-2.49 -1.37,0 -2.49,1.12 -2.49,2.49"
           style="fill:#f8766d;fill-opacity:1;fill-rule:nonzero;stroke:none"
           id="path86" /><path
           d="m 210.15,114.5 c 0,1.37 1.12,2.49 2.49,2.49 1.37,0 2.49,-1.12 2.49,-2.49 0,-1.37 -1.12,-2.49 -2.49,-2.49 -1.37,0 -2.49,1.12 -2.49,2.49"
           style="fill:#f8766d;fill-opacity:1;fill-rule:nonzero;stroke:none"
           id="path88" /><path
           d="m 224.62,66.18 c 0,1.37 1.12,2.49 2.48,2.49 1.37,0 2.49,-1.12 2.49,-2.49 0,-1.36 -1.12,-2.48 -2.49,-2.48 -1.36,0 -2.48,1.12 -2.48,2.48"
           style="fill:#f8766d;fill-opacity:1;fill-rule:nonzero;stroke:none"
           id="path90" /><path
           d="m 500.18,468.88 4.97,4.98"
           style="fill:none;stroke:#00bfc4;stroke-width:0.71;stroke-linecap:round;stroke-linejoin:round;stroke-miterlimit:10;stroke-dasharray:none;stroke-opacity:1"
           id="path92" /><path
           d="m 500.18,473.86 4.97,-4.98"
           style="fill:none;stroke:#00bfc4;stroke-width:0.71;stroke-linecap:round;stroke-linejoin:round;stroke-miterlimit:10;stroke-dasharray:none;stroke-opacity:1"
           id="path94" /><path
           d="m 554.16,477.75 4.97,4.98"
           style="fill:none;stroke:#00bfc4;stroke-width:0.71;stroke-linecap:round;stroke-linejoin:round;stroke-miterlimit:10;stroke-dasharray:none;stroke-opacity:1"
           id="path96" /><path
           d="m 554.16,482.73 4.97,-4.98"
           style="fill:none;stroke:#00bfc4;stroke-width:0.71;stroke-linecap:round;stroke-linejoin:round;stroke-miterlimit:10;stroke-dasharray:none;stroke-opacity:1"
           id="path98" /><path
           d="m 551.99,221.16 4.98,4.97"
           style="fill:none;stroke:#00bfc4;stroke-width:0.71;stroke-linecap:round;stroke-linejoin:round;stroke-miterlimit:10;stroke-dasharray:none;stroke-opacity:1"
           id="path100" /><path
           d="m 551.99,226.13 4.98,-4.97"
           style="fill:none;stroke:#00bfc4;stroke-width:0.71;stroke-linecap:round;stroke-linejoin:round;stroke-miterlimit:10;stroke-dasharray:none;stroke-opacity:1"
           id="path102" /><path
           d="m 558.56,398.34 4.97,4.98"
           style="fill:none;stroke:#00bfc4;stroke-width:0.71;stroke-linecap:round;stroke-linejoin:round;stroke-miterlimit:10;stroke-dasharray:none;stroke-opacity:1"
           id="path104" /><path
           d="m 558.56,403.32 4.97,-4.98"
           style="fill:none;stroke:#00bfc4;stroke-width:0.71;stroke-linecap:round;stroke-linejoin:round;stroke-miterlimit:10;stroke-dasharray:none;stroke-opacity:1"
           id="path106" /><path
           d="m 507.65,260.19 4.97,4.97"
           style="fill:none;stroke:#00bfc4;stroke-width:0.71;stroke-linecap:round;stroke-linejoin:round;stroke-miterlimit:10;stroke-dasharray:none;stroke-opacity:1"
           id="path108" /><path
           d="m 507.65,265.16 4.97,-4.97"
           style="fill:none;stroke:#00bfc4;stroke-width:0.71;stroke-linecap:round;stroke-linejoin:round;stroke-miterlimit:10;stroke-dasharray:none;stroke-opacity:1"
           id="path110" /><path
           d="m 499.53,109.6 4.98,4.98"
           style="fill:none;stroke:#00bfc4;stroke-width:0.71;stroke-linecap:round;stroke-linejoin:round;stroke-miterlimit:10;stroke-dasharray:none;stroke-opacity:1"
           id="path112" /><path
           d="m 499.53,114.58 4.98,-4.98"
           style="fill:none;stroke:#00bfc4;stroke-width:0.71;stroke-linecap:round;stroke-linejoin:round;stroke-miterlimit:10;stroke-dasharray:none;stroke-opacity:1"
           id="path114" /><path
           d="m 540.88,264.21 4.98,4.97"
           style="fill:none;stroke:#00bfc4;stroke-width:0.71;stroke-linecap:round;stroke-linejoin:round;stroke-miterlimit:10;stroke-dasharray:none;stroke-opacity:1"
           id="path116" /><path
           d="m 540.88,269.18 4.98,-4.97"
           style="fill:none;stroke:#00bfc4;stroke-width:0.71;stroke-linecap:round;stroke-linejoin:round;stroke-miterlimit:10;stroke-dasharray:none;stroke-opacity:1"
           id="path118" /><path
           d="m 524.88,272.24 4.97,4.98"
           style="fill:none;stroke:#00bfc4;stroke-width:0.71;stroke-linecap:round;stroke-linejoin:round;stroke-miterlimit:10;stroke-dasharray:none;stroke-opacity:1"
           id="path120" /><path
           d="m 524.88,277.22 4.97,-4.98"
           style="fill:none;stroke:#00bfc4;stroke-width:0.71;stroke-linecap:round;stroke-linejoin:round;stroke-miterlimit:10;stroke-dasharray:none;stroke-opacity:1"
           id="path122" /><path
           d="m 559.98,207.65 4.98,4.97"
           style="fill:none;stroke:#00bfc4;stroke-width:0.71;stroke-linecap:round;stroke-linejoin:round;stroke-miterlimit:10;stroke-dasharray:none;stroke-opacity:1"
           id="path124" /><path
           d="m 559.98,212.62 4.98,-4.97"
           style="fill:none;stroke:#00bfc4;stroke-width:0.71;stroke-linecap:round;stroke-linejoin:round;stroke-miterlimit:10;stroke-dasharray:none;stroke-opacity:1"
           id="path126" /><path
           d="m 503.93,384.56 4.98,4.98"
           style="fill:none;stroke:#00bfc4;stroke-width:0.71;stroke-linecap:round;stroke-linejoin:round;stroke-miterlimit:10;stroke-dasharray:none;stroke-opacity:1"
           id="path128" /><path
           d="m 503.93,389.54 4.98,-4.98"
           style="fill:none;stroke:#00bfc4;stroke-width:0.71;stroke-linecap:round;stroke-linejoin:round;stroke-miterlimit:10;stroke-dasharray:none;stroke-opacity:1"
           id="path130" /><path
           d="m 482.34,335.43 4.98,4.98"
           style="fill:none;stroke:#00bfc4;stroke-width:0.71;stroke-linecap:round;stroke-linejoin:round;stroke-miterlimit:10;stroke-dasharray:none;stroke-opacity:1"
           id="path132" /><path
           d="m 482.34,340.41 4.98,-4.98"
           style="fill:none;stroke:#00bfc4;stroke-width:0.71;stroke-linecap:round;stroke-linejoin:round;stroke-miterlimit:10;stroke-dasharray:none;stroke-opacity:1"
           id="path134" /><path
           d="m 486.45,451.93 4.97,4.98"
           style="fill:none;stroke:#00bfc4;stroke-width:0.71;stroke-linecap:round;stroke-linejoin:round;stroke-miterlimit:10;stroke-dasharray:none;stroke-opacity:1"
           id="path136" /><path
           d="m 486.45,456.91 4.97,-4.98"
           style="fill:none;stroke:#00bfc4;stroke-width:0.71;stroke-linecap:round;stroke-linejoin:round;stroke-miterlimit:10;stroke-dasharray:none;stroke-opacity:1"
           id="path138" /><path
           d="m 500.49,186.77 4.98,4.97"
           style="fill:none;stroke:#00bfc4;stroke-width:0.71;stroke-linecap:round;stroke-linejoin:round;stroke-miterlimit:10;stroke-dasharray:none;stroke-opacity:1"
           id="path140" /><path
           d="m 500.49,191.74 4.98,-4.97"
           style="fill:none;stroke:#00bfc4;stroke-width:0.71;stroke-linecap:round;stroke-linejoin:round;stroke-miterlimit:10;stroke-dasharray:none;stroke-opacity:1"
           id="path142" /><path
           d="m 498.86,401.7 c 0,1.36 1.12,2.48 2.49,2.48 1.37,0 2.49,-1.12 2.49,-2.48 0,-1.37 -1.12,-2.49 -2.49,-2.49 -1.37,0 -2.49,1.12 -2.49,2.49"
           style="fill:#00bfc4;fill-opacity:1;fill-rule:nonzero;stroke:none"
           id="path144" /><path
           d="m 481.62,401.62 c 0,1.37 1.12,2.49 2.49,2.49 1.37,0 2.49,-1.12 2.49,-2.49 0,-1.37 -1.12,-2.49 -2.49,-2.49 -1.37,0 -2.49,1.12 -2.49,2.49"
           style="fill:#00bfc4;fill-opacity:1;fill-rule:nonzero;stroke:none"
           id="path146" /><path
           d="m 542.76,330.08 c 0,1.37 1.12,2.49 2.49,2.49 1.37,0 2.49,-1.12 2.49,-2.49 0,-1.37 -1.12,-2.49 -2.49,-2.49 -1.37,0 -2.49,1.12 -2.49,2.49"
           style="fill:#00bfc4;fill-opacity:1;fill-rule:nonzero;stroke:none"
           id="path148" /><path
           d="m 551.49,277.1 c 0,1.37 1.12,2.49 2.48,2.49 1.37,0 2.49,-1.12 2.49,-2.49 0,-1.37 -1.12,-2.49 -2.49,-2.49 -1.36,0 -2.48,1.12 -2.48,2.49"
           style="fill:#00bfc4;fill-opacity:1;fill-rule:nonzero;stroke:none"
           id="path150" /><path
           d="m 529.68,331.72 c 0,1.37 1.12,2.49 2.49,2.49 1.36,0 2.48,-1.12 2.48,-2.49 0,-1.37 -1.12,-2.49 -2.48,-2.49 -1.37,0 -2.49,1.12 -2.49,2.49"
           style="fill:#00bfc4;fill-opacity:1;fill-rule:nonzero;stroke:none"
           id="path152" /><path
           d="m 556.98,564.05 c 0,1.37 1.12,2.49 2.49,2.49 1.37,0 2.49,-1.12 2.49,-2.49 0,-1.37 -1.12,-2.49 -2.49,-2.49 -1.37,0 -2.49,1.12 -2.49,2.49"
           style="fill:#00bfc4;fill-opacity:1;fill-rule:nonzero;stroke:none"
           id="path154" /><path
           d="m 549.12,382.69 c 0,1.37 1.12,2.49 2.49,2.49 1.37,0 2.49,-1.12 2.49,-2.49 0,-1.37 -1.12,-2.49 -2.49,-2.49 -1.37,0 -2.49,1.12 -2.49,2.49"
           style="fill:#00bfc4;fill-opacity:1;fill-rule:nonzero;stroke:none"
           id="path156" /><path
           d="m 531.34,331.08 c 0,1.37 1.12,2.49 2.49,2.49 1.37,0 2.49,-1.12 2.49,-2.49 0,-1.37 -1.12,-2.49 -2.49,-2.49 -1.37,0 -2.49,1.12 -2.49,2.49"
           style="fill:#00bfc4;fill-opacity:1;fill-rule:nonzero;stroke:none"
           id="path158" /><path
           d="m 551.71,388.53 c 0,1.37 1.12,2.49 2.48,2.49 1.37,0 2.49,-1.12 2.49,-2.49 0,-1.37 -1.12,-2.49 -2.49,-2.49 -1.36,0 -2.48,1.12 -2.48,2.49"
           style="fill:#00bfc4;fill-opacity:1;fill-rule:nonzero;stroke:none"
           id="path160" /><path
           d="m 550.3,182.92 c 0,1.37 1.12,2.49 2.48,2.49 1.37,0 2.49,-1.12 2.49,-2.49 0,-1.37 -1.12,-2.49 -2.49,-2.49 -1.36,0 -2.48,1.12 -2.48,2.49"
           style="fill:#00bfc4;fill-opacity:1;fill-rule:nonzero;stroke:none"
           id="path162" /><path
           d="m 554.05,240.42 c 0,1.37 1.12,2.49 2.49,2.49 1.37,0 2.49,-1.12 2.49,-2.49 0,-1.37 -1.12,-2.49 -2.49,-2.49 -1.37,0 -2.49,1.12 -2.49,2.49"
           style="fill:#00bfc4;fill-opacity:1;fill-rule:nonzero;stroke:none"
           id="path164" /><path
           d="m 516.57,334.42 c 0,1.37 1.12,2.49 2.49,2.49 1.37,0 2.49,-1.12 2.49,-2.49 0,-1.37 -1.12,-2.49 -2.49,-2.49 -1.37,0 -2.49,1.12 -2.49,2.49"
           style="fill:#00bfc4;fill-opacity:1;fill-rule:nonzero;stroke:none"
           id="path166" /><path
           d="m 543,265.11 c 0,1.37 1.12,2.49 2.49,2.49 1.37,0 2.49,-1.12 2.49,-2.49 0,-1.37 -1.12,-2.49 -2.49,-2.49 -1.37,0 -2.49,1.12 -2.49,2.49"
           style="fill:#00bfc4;fill-opacity:1;fill-rule:nonzero;stroke:none"
           id="path168" /><path
           d="m 513.38,316.82 c 0,1.37 1.12,2.49 2.49,2.49 1.37,0 2.49,-1.12 2.49,-2.49 0,-1.37 -1.12,-2.49 -2.49,-2.49 -1.37,0 -2.49,1.12 -2.49,2.49"
           style="fill:#00bfc4;fill-opacity:1;fill-rule:nonzero;stroke:none"
           id="path170" /><path
           d="m 522.79,477.71 c 0,1.37 1.12,2.49 2.49,2.49 1.37,0 2.49,-1.12 2.49,-2.49 0,-1.37 -1.12,-2.49 -2.49,-2.49 -1.37,0 -2.49,1.12 -2.49,2.49"
           style="fill:#00bfc4;fill-opacity:1;fill-rule:nonzero;stroke:none"
           id="path172" /><path
           d="m 527.21,210.07 c 0,1.37 1.12,2.48 2.49,2.48 1.37,0 2.49,-1.11 2.49,-2.48 0,-1.37 -1.12,-2.49 -2.49,-2.49 -1.37,0 -2.49,1.12 -2.49,2.49"
           style="fill:#00bfc4;fill-opacity:1;fill-rule:nonzero;stroke:none"
           id="path174" /><path
           d="m 196.61,43.3 4.98,4.97"
           style="fill:none;stroke:#f8766d;stroke-width:0.71;stroke-linecap:round;stroke-linejoin:round;stroke-miterlimit:10;stroke-dasharray:none;stroke-opacity:1"
           id="path176" /><path
           d="m 196.61,48.27 4.98,-4.97"
           style="fill:none;stroke:#f8766d;stroke-width:0.71;stroke-linecap:round;stroke-linejoin:round;stroke-miterlimit:10;stroke-dasharray:none;stroke-opacity:1"
           id="path178" /><path
           d="m 187.63,77.75 4.97,4.98"
           style="fill:none;stroke:#f8766d;stroke-width:0.71;stroke-linecap:round;stroke-linejoin:round;stroke-miterlimit:10;stroke-dasharray:none;stroke-opacity:1"
           id="path180" /><path
           d="m 187.63,82.73 4.97,-4.98"
           style="fill:none;stroke:#f8766d;stroke-width:0.71;stroke-linecap:round;stroke-linejoin:round;stroke-miterlimit:10;stroke-dasharray:none;stroke-opacity:1"
           id="path182" /><path
           d="m 172.3,142.98 4.98,4.98"
           style="fill:none;stroke:#f8766d;stroke-width:0.71;stroke-linecap:round;stroke-linejoin:round;stroke-miterlimit:10;stroke-dasharray:none;stroke-opacity:1"
           id="path184" /><path
           d="m 172.3,147.96 4.98,-4.98"
           style="fill:none;stroke:#f8766d;stroke-width:0.71;stroke-linecap:round;stroke-linejoin:round;stroke-miterlimit:10;stroke-dasharray:none;stroke-opacity:1"
           id="path186" /><path
           d="m 206.14,211.69 4.97,4.98"
           style="fill:none;stroke:#f8766d;stroke-width:0.71;stroke-linecap:round;stroke-linejoin:round;stroke-miterlimit:10;stroke-dasharray:none;stroke-opacity:1"
           id="path188" /><path
           d="m 206.14,216.67 4.97,-4.98"
           style="fill:none;stroke:#f8766d;stroke-width:0.71;stroke-linecap:round;stroke-linejoin:round;stroke-miterlimit:10;stroke-dasharray:none;stroke-opacity:1"
           id="path190" /><path
           d="m 209.54,80.33 4.97,4.98"
           style="fill:none;stroke:#f8766d;stroke-width:0.71;stroke-linecap:round;stroke-linejoin:round;stroke-miterlimit:10;stroke-dasharray:none;stroke-opacity:1"
           id="path192" /><path
           d="m 209.54,85.31 4.97,-4.98"
           style="fill:none;stroke:#f8766d;stroke-width:0.71;stroke-linecap:round;stroke-linejoin:round;stroke-miterlimit:10;stroke-dasharray:none;stroke-opacity:1"
           id="path194" /><path
           d="m 229.73,157.95 4.98,4.97"
           style="fill:none;stroke:#f8766d;stroke-width:0.71;stroke-linecap:round;stroke-linejoin:round;stroke-miterlimit:10;stroke-dasharray:none;stroke-opacity:1"
           id="path196" /><path
           d="m 229.73,162.92 4.98,-4.97"
           style="fill:none;stroke:#f8766d;stroke-width:0.71;stroke-linecap:round;stroke-linejoin:round;stroke-miterlimit:10;stroke-dasharray:none;stroke-opacity:1"
           id="path198" /><path
           d="m 257.5,100.89 4.98,4.98"
           style="fill:none;stroke:#f8766d;stroke-width:0.71;stroke-linecap:round;stroke-linejoin:round;stroke-miterlimit:10;stroke-dasharray:none;stroke-opacity:1"
           id="path200" /><path
           d="m 257.5,105.87 4.98,-4.98"
           style="fill:none;stroke:#f8766d;stroke-width:0.71;stroke-linecap:round;stroke-linejoin:round;stroke-miterlimit:10;stroke-dasharray:none;stroke-opacity:1"
           id="path202" /><path
           d="m 205.67,116.18 4.98,4.98"
           style="fill:none;stroke:#f8766d;stroke-width:0.71;stroke-linecap:round;stroke-linejoin:round;stroke-miterlimit:10;stroke-dasharray:none;stroke-opacity:1"
           id="path204" /><path
           d="m 205.67,121.16 4.98,-4.98"
           style="fill:none;stroke:#f8766d;stroke-width:0.71;stroke-linecap:round;stroke-linejoin:round;stroke-miterlimit:10;stroke-dasharray:none;stroke-opacity:1"
           id="path206" /><path
           d="m 237.3,99.43 4.97,4.97"
           style="fill:none;stroke:#f8766d;stroke-width:0.71;stroke-linecap:round;stroke-linejoin:round;stroke-miterlimit:10;stroke-dasharray:none;stroke-opacity:1"
           id="path208" /><path
           d="m 237.3,104.4 4.97,-4.97"
           style="fill:none;stroke:#f8766d;stroke-width:0.71;stroke-linecap:round;stroke-linejoin:round;stroke-miterlimit:10;stroke-dasharray:none;stroke-opacity:1"
           id="path210" /><path
           d="m 214.37,107.52 4.97,4.98"
           style="fill:none;stroke:#f8766d;stroke-width:0.71;stroke-linecap:round;stroke-linejoin:round;stroke-miterlimit:10;stroke-dasharray:none;stroke-opacity:1"
           id="path212" /><path
           d="m 214.37,112.5 4.97,-4.98"
           style="fill:none;stroke:#f8766d;stroke-width:0.71;stroke-linecap:round;stroke-linejoin:round;stroke-miterlimit:10;stroke-dasharray:none;stroke-opacity:1"
           id="path214" /><path
           d="m 255.53,92.3 4.98,4.98"
           style="fill:none;stroke:#f8766d;stroke-width:0.71;stroke-linecap:round;stroke-linejoin:round;stroke-miterlimit:10;stroke-dasharray:none;stroke-opacity:1"
           id="path216" /><path
           d="m 255.53,97.28 4.98,-4.98"
           style="fill:none;stroke:#f8766d;stroke-width:0.71;stroke-linecap:round;stroke-linejoin:round;stroke-miterlimit:10;stroke-dasharray:none;stroke-opacity:1"
           id="path218" /><path
           d="m 243.15,84.39 4.98,4.98"
           style="fill:none;stroke:#f8766d;stroke-width:0.71;stroke-linecap:round;stroke-linejoin:round;stroke-miterlimit:10;stroke-dasharray:none;stroke-opacity:1"
           id="path220" /><path
           d="m 243.15,89.37 4.98,-4.98"
           style="fill:none;stroke:#f8766d;stroke-width:0.71;stroke-linecap:round;stroke-linejoin:round;stroke-miterlimit:10;stroke-dasharray:none;stroke-opacity:1"
           id="path222" /><path
           d="m 196.74,92.14 4.98,4.97"
           style="fill:none;stroke:#f8766d;stroke-width:0.71;stroke-linecap:round;stroke-linejoin:round;stroke-miterlimit:10;stroke-dasharray:none;stroke-opacity:1"
           id="path224" /><path
           d="m 196.74,97.11 4.98,-4.97"
           style="fill:none;stroke:#f8766d;stroke-width:0.71;stroke-linecap:round;stroke-linejoin:round;stroke-miterlimit:10;stroke-dasharray:none;stroke-opacity:1"
           id="path226" /><path
           d="m 198.72,97.43 4.98,4.97"
           style="fill:none;stroke:#f8766d;stroke-width:0.71;stroke-linecap:round;stroke-linejoin:round;stroke-miterlimit:10;stroke-dasharray:none;stroke-opacity:1"
           id="path228" /><path
           d="m 198.72,102.4 4.98,-4.97"
           style="fill:none;stroke:#f8766d;stroke-width:0.71;stroke-linecap:round;stroke-linejoin:round;stroke-miterlimit:10;stroke-dasharray:none;stroke-opacity:1"
           id="path230" /><path
           d="m 199.96,68.25 4.98,4.98"
           style="fill:none;stroke:#f8766d;stroke-width:0.71;stroke-linecap:round;stroke-linejoin:round;stroke-miterlimit:10;stroke-dasharray:none;stroke-opacity:1"
           id="path232" /><path
           d="m 199.96,73.23 4.98,-4.98"
           style="fill:none;stroke:#f8766d;stroke-width:0.71;stroke-linecap:round;stroke-linejoin:round;stroke-miterlimit:10;stroke-dasharray:none;stroke-opacity:1"
           id="path234" /><path
           d="m 174.89,88.14 4.98,4.98"
           style="fill:none;stroke:#f8766d;stroke-width:0.71;stroke-linecap:round;stroke-linejoin:round;stroke-miterlimit:10;stroke-dasharray:none;stroke-opacity:1"
           id="path236" /><path
           d="m 174.89,93.12 4.98,-4.98"
           style="fill:none;stroke:#f8766d;stroke-width:0.71;stroke-linecap:round;stroke-linejoin:round;stroke-miterlimit:10;stroke-dasharray:none;stroke-opacity:1"
           id="path238" /><path
           d="m 156.98,114.5 v 45.94"
           style="fill:none;stroke:#333333;stroke-width:1.07;stroke-linecap:butt;stroke-linejoin:round;stroke-miterlimit:10;stroke-dasharray:none;stroke-opacity:1"
           id="path240" /><path
           d="M 156.98,82.82 V 45.79"
           style="fill:none;stroke:#333333;stroke-width:1.07;stroke-linecap:butt;stroke-linejoin:round;stroke-miterlimit:10;stroke-dasharray:none;stroke-opacity:1"
           id="path242" /><path
           d="M 141.62,114.5 V 82.82 h 30.73 v 31.68 z"
           style="fill:#f8766d;fill-opacity:1;fill-rule:nonzero;stroke:#333333;stroke-width:1.07;stroke-linecap:round;stroke-linejoin:round;stroke-miterlimit:10;stroke-dasharray:none;stroke-opacity:1"
           id="path244" /><path
           d="m 141.62,94.79 h 30.73"
           style="fill:none;stroke:#333333;stroke-width:2.13;stroke-linecap:butt;stroke-linejoin:round;stroke-miterlimit:10;stroke-dasharray:none;stroke-opacity:1"
           id="path246" /><path
           d="M 464.3,400.83 V 564.05"
           style="fill:none;stroke:#333333;stroke-width:1.07;stroke-linecap:butt;stroke-linejoin:round;stroke-miterlimit:10;stroke-dasharray:none;stroke-opacity:1"
           id="path248" /><path
           d="M 464.3,262.68 V 112.09"
           style="fill:none;stroke:#333333;stroke-width:1.07;stroke-linecap:butt;stroke-linejoin:round;stroke-miterlimit:10;stroke-dasharray:none;stroke-opacity:1"
           id="path250" /><path
           d="M 448.94,400.83 V 262.68 h 30.73 v 138.15 z"
           style="fill:#00bfc4;fill-opacity:1;fill-rule:nonzero;stroke:#333333;stroke-width:1.07;stroke-linecap:round;stroke-linejoin:round;stroke-miterlimit:10;stroke-dasharray:none;stroke-opacity:1"
           id="path252" /><path
           d="m 448.94,331.08 h 30.73"
           style="fill:none;stroke:#333333;stroke-width:2.13;stroke-linecap:butt;stroke-linejoin:round;stroke-miterlimit:10;stroke-dasharray:none;stroke-opacity:1"
           id="path254" /></g></g><g
       id="g256" /><g
       id="g258" /><g
       id="g260" /><g
       id="g262" /><g
       id="g264" /><g
       id="g266" /><g
       id="g268" /><g
       id="g270" /><g
       id="g272" /><g
       id="g274" /><g
       id="g276" /><g
       id="g278" /><g
       id="g280" /><g
       id="g282" /><g
       id="g284" /><g
       id="g286"><text
         transform="matrix(1,0,0,-1,19.12,53.98)"
         style="font-variant:normal;font-weight:normal;font-size:9px;font-family:Helvetica;-inkscape-font-specification:Helvetica;writing-mode:lr-tb;fill:#4d4d4d;fill-opacity:1;fill-rule:nonzero;stroke:none"
         id="text290"><tspan
           x="0 5.0040002"
           y="0"
           sodipodi:role="line"
           id="tspan288">20</tspan></text><text
         transform="matrix(1,0,0,-1,19.12,192.39)"
         style="font-variant:normal;font-weight:normal;font-size:9px;font-family:Helvetica;-inkscape-font-specification:Helvetica;writing-mode:lr-tb;fill:#4d4d4d;fill-opacity:1;fill-rule:nonzero;stroke:none"
         id="text294"><tspan
           x="0 5.0040002"
           y="0"
           sodipodi:role="line"
           id="tspan292">40</tspan></text><text
         transform="matrix(1,0,0,-1,19.12,330.79)"
         style="font-variant:normal;font-weight:normal;font-size:9px;font-family:Helvetica;-inkscape-font-specification:Helvetica;writing-mode:lr-tb;fill:#4d4d4d;fill-opacity:1;fill-rule:nonzero;stroke:none"
         id="text298"><tspan
           x="0 5.0040002"
           y="0"
           sodipodi:role="line"
           id="tspan296">60</tspan></text><text
         transform="matrix(1,0,0,-1,19.12,469.2)"
         style="font-variant:normal;font-weight:normal;font-size:9px;font-family:Helvetica;-inkscape-font-specification:Helvetica;writing-mode:lr-tb;fill:#4d4d4d;fill-opacity:1;fill-rule:nonzero;stroke:none"
         id="text302"><tspan
           x="0 5.0040002"
           y="0"
           sodipodi:role="line"
           id="tspan300">80</tspan></text></g><g
       id="g304" /><g
       id="g306"><path
         d="m 31.32,57.21 h 2.74"
         style="fill:none;stroke:#333333;stroke-width:1.07;stroke-linecap:butt;stroke-linejoin:round;stroke-miterlimit:10;stroke-dasharray:none;stroke-opacity:1"
         id="path308" /><path
         d="m 31.32,195.62 h 2.74"
         style="fill:none;stroke:#333333;stroke-width:1.07;stroke-linecap:butt;stroke-linejoin:round;stroke-miterlimit:10;stroke-dasharray:none;stroke-opacity:1"
         id="path310" /><path
         d="m 31.32,334.02 h 2.74"
         style="fill:none;stroke:#333333;stroke-width:1.07;stroke-linecap:butt;stroke-linejoin:round;stroke-miterlimit:10;stroke-dasharray:none;stroke-opacity:1"
         id="path312" /><path
         d="m 31.32,472.43 h 2.74"
         style="fill:none;stroke:#333333;stroke-width:1.07;stroke-linecap:butt;stroke-linejoin:round;stroke-miterlimit:10;stroke-dasharray:none;stroke-opacity:1"
         id="path314" /></g><g
       id="g316" /><g
       id="g318" /><g
       id="g320" /><g
       id="g322" /><g
       id="g324" /><g
       id="g326" /><g
       id="g328" /><g
       id="g330" /><g
       id="g332" /><g
       id="g334"><path
         d="m 218.45,17.13 v 2.74"
         style="fill:none;stroke:#333333;stroke-width:1.07;stroke-linecap:butt;stroke-linejoin:round;stroke-miterlimit:10;stroke-dasharray:none;stroke-opacity:1"
         id="path336" /><path
         d="m 525.77,17.13 v 2.74"
         style="fill:none;stroke:#333333;stroke-width:1.07;stroke-linecap:butt;stroke-linejoin:round;stroke-miterlimit:10;stroke-dasharray:none;stroke-opacity:1"
         id="path338" /></g><g
       id="g340" /><g
       id="g342"><text
         transform="scale(1,-1)"
         style="font-variant:normal;font-weight:normal;font-size:28px;font-family:Helvetica;-inkscape-font-specification:Helvetica;writing-mode:lr-tb;fill:#4d4d4d;fill-opacity:1;fill-rule:nonzero;stroke:none"
         id="text346"
         x="164.20204"
         y="8.2989426"><tspan
           x="164.20204"
           y="8.2989426"
           sodipodi:role="line"
           id="tspan344"
           style="font-size:28px">Dynamic</tspan></text><text
         transform="scale(1,-1)"
         style="font-variant:normal;font-weight:normal;font-size:28px;font-family:Helvetica;-inkscape-font-specification:Helvetica;writing-mode:lr-tb;fill:#4d4d4d;fill-opacity:1;fill-rule:nonzero;stroke:none"
         id="text350"
         x="450.1636"
         y="13.074856"><tspan
           x="450.1636"
           y="13.074856"
           sodipodi:role="line"
           id="tspan348"
           style="font-size:28px">Non−Ambiguous</tspan></text></g><g
       id="g352" /><g
       id="g354" /><g
       id="g356" /><g
       id="g358" /><g
       id="g360" /><g
       id="g362" /><g
       id="g364" /><g
       id="g366"
       transform="matrix(2.5401907,0,0,2.5401907,-32.084825,-480.00373)"
       style="stroke-width:0.393668"><text
         transform="matrix(0,1,1,0,13.38,250.57)"
         style="font-variant:normal;font-weight:normal;font-size:11.0228px;font-family:Helvetica;-inkscape-font-specification:Helvetica;writing-mode:lr-tb;fill:#000000;fill-opacity:1;fill-rule:nonzero;stroke:none;stroke-width:0.393668"
         id="text370"><tspan
           x="0 7.9419999 10.384 15.884 18.941999 25.058001 31.174 36.674 42.790001 45.848 51.249001 54.801998 60.698002 65.922997 72.039001 74.481003 76.922997 83.039001 89.154999 92.212997 95.875999 105.039"
           y="0"
           sodipodi:role="line"
           id="tspan368"
           style="font-size:11.0228px;stroke-width:0.393668">Distance Travelled (m)</tspan></text></g><g
       id="g372" /><g
       id="g374" /><g
       id="g376" /><g
       id="g378" /><g
       id="g380" /><g
       id="g382" /><g
       id="g384" /><g
       id="g390" /><g
       id="g392" /><g
       id="g394" /><g
       id="g402" /><g
       id="g404" /><g
       id="g410" /><g
       id="g416" /><g
       id="g422" /><g
       id="g428" /><g
       id="g434" /><g
       id="g440" /><g
       id="g442" /><g
       id="g444" /><g
       id="g452" /><g
       id="g454" /><g
       id="g456" /><g
       id="g458" /><g
       id="g466" /><g
       id="g468" /><g
       id="g470" /><g
       id="g472" /><g
       id="g478" /><g
       id="g480" /><g
       id="g482" /><g
       id="g490" /><g
       id="g492" /><g
       id="g498" /><g
       id="g504" /><g
       id="g510" /><g
       id="g518" /><g
       id="g520" /><g
       id="g522" /><g
       id="g530" /><g
       id="g532" /><g
       id="g534" /><g
       id="g536" /><g
       id="g544" /><g
       id="g546" /><g
       id="g548" /><g
       id="g550" /><g
       id="g552" /><g
       id="g554" /><g
       id="g556" /><g
       id="g558" /><g
       id="g560" /><g
       id="g562" /><g
       id="g564" /><g
       id="g566" /><g
       id="g568" /></g></svg>
