<?xml version="1.0" encoding="UTF-8" standalone="no"?>
<svg
   xmlns:dc="http://purl.org/dc/elements/1.1/"
   xmlns:cc="http://creativecommons.org/ns#"
   xmlns:rdf="http://www.w3.org/1999/02/22-rdf-syntax-ns#"
   xmlns:svg="http://www.w3.org/2000/svg"
   xmlns="http://www.w3.org/2000/svg"
   xmlns:sodipodi="http://sodipodi.sourceforge.net/DTD/sodipodi-0.dtd"
   xmlns:inkscape="http://www.inkscape.org/namespaces/inkscape"
   version="1.1"
   id="svg2"
   xml:space="preserve"
   width="999.70105"
   height="811.03351"
   viewBox="0 0 999.70109 811.03351"
   sodipodi:docname="Time_Taken_Both.svg"
   inkscape:version="1.0.1 (0767f8302a, 2020-10-17)"><metadata
     id="metadata8"><rdf:RDF><cc:Work
         rdf:about=""><dc:format>image/svg+xml</dc:format><dc:type
           rdf:resource="http://purl.org/dc/dcmitype/StillImage" /><dc:title></dc:title></cc:Work></rdf:RDF></metadata><defs
     id="defs6"><clipPath
       clipPathUnits="userSpaceOnUse"
       id="clipPath38"><path
         d="M 44.06,19.87 H 725.52 V 589.96 H 44.06 Z"
         id="path36" /></clipPath></defs><sodipodi:namedview
     pagecolor="#ffffff"
     bordercolor="#666666"
     borderopacity="1"
     objecttolerance="10"
     gridtolerance="10"
     guidetolerance="10"
     inkscape:pageopacity="0"
     inkscape:pageshadow="2"
     inkscape:window-width="1920"
     inkscape:window-height="1052"
     id="namedview4"
     showgrid="false"
     fit-margin-top="0"
     fit-margin-left="0"
     fit-margin-right="0"
     fit-margin-bottom="0"
     inkscape:zoom="0.65511365"
     inkscape:cx="672.33947"
     inkscape:cy="304.32936"
     inkscape:window-x="1920"
     inkscape:window-y="0"
     inkscape:window-maximized="1"
     inkscape:current-layer="g10" /><g
     id="g10"
     inkscape:groupmode="layer"
     inkscape:label="Time_Taken_Both"
     transform="matrix(1.3333333,0,0,-1.3333333,32.341097,786.61331)"><g
       id="g12" /><g
       id="g14" /><g
       id="g16" /><g
       id="g18" /><g
       id="g20" /><g
       id="g22" /><g
       id="g24" /><g
       id="g30" /><g
       id="g32"><g
         id="g34"
         clip-path="url(#clipPath38)"><path
           d="M 44.06,19.87 H 725.52 V 589.96 H 44.06 Z"
           style="fill:#ebebeb;fill-opacity:1;fill-rule:nonzero;stroke:none"
           id="path40" /><path
           d="M 44.06,88.51 H 725.52"
           style="fill:none;stroke:#ffffff;stroke-width:0.53;stroke-linecap:butt;stroke-linejoin:round;stroke-miterlimit:10;stroke-dasharray:none;stroke-opacity:1"
           id="path42" /><path
           d="M 44.06,212.35 H 725.52"
           style="fill:none;stroke:#ffffff;stroke-width:0.53;stroke-linecap:butt;stroke-linejoin:round;stroke-miterlimit:10;stroke-dasharray:none;stroke-opacity:1"
           id="path44" /><path
           d="M 44.06,336.19 H 725.52"
           style="fill:none;stroke:#ffffff;stroke-width:0.53;stroke-linecap:butt;stroke-linejoin:round;stroke-miterlimit:10;stroke-dasharray:none;stroke-opacity:1"
           id="path46" /><path
           d="M 44.06,460.02 H 725.52"
           style="fill:none;stroke:#ffffff;stroke-width:0.53;stroke-linecap:butt;stroke-linejoin:round;stroke-miterlimit:10;stroke-dasharray:none;stroke-opacity:1"
           id="path48" /><path
           d="M 44.06,583.86 H 725.52"
           style="fill:none;stroke:#ffffff;stroke-width:0.53;stroke-linecap:butt;stroke-linejoin:round;stroke-miterlimit:10;stroke-dasharray:none;stroke-opacity:1"
           id="path50" /><path
           d="M 44.06,26.59 H 725.52"
           style="fill:none;stroke:#ffffff;stroke-width:1.07;stroke-linecap:butt;stroke-linejoin:round;stroke-miterlimit:10;stroke-dasharray:none;stroke-opacity:1"
           id="path52" /><path
           d="M 44.06,150.43 H 725.52"
           style="fill:none;stroke:#ffffff;stroke-width:1.07;stroke-linecap:butt;stroke-linejoin:round;stroke-miterlimit:10;stroke-dasharray:none;stroke-opacity:1"
           id="path54" /><path
           d="M 44.06,274.27 H 725.52"
           style="fill:none;stroke:#ffffff;stroke-width:1.07;stroke-linecap:butt;stroke-linejoin:round;stroke-miterlimit:10;stroke-dasharray:none;stroke-opacity:1"
           id="path56" /><path
           d="M 44.06,398.1 H 725.52"
           style="fill:none;stroke:#ffffff;stroke-width:1.07;stroke-linecap:butt;stroke-linejoin:round;stroke-miterlimit:10;stroke-dasharray:none;stroke-opacity:1"
           id="path58" /><path
           d="M 44.06,521.94 H 725.52"
           style="fill:none;stroke:#ffffff;stroke-width:1.07;stroke-linecap:butt;stroke-linejoin:round;stroke-miterlimit:10;stroke-dasharray:none;stroke-opacity:1"
           id="path60" /><path
           d="M 225.79,19.87 V 589.96"
           style="fill:none;stroke:#ffffff;stroke-width:1.07;stroke-linecap:butt;stroke-linejoin:round;stroke-miterlimit:10;stroke-dasharray:none;stroke-opacity:1"
           id="path62" /><path
           d="M 528.66,19.87 V 589.96"
           style="fill:none;stroke:#ffffff;stroke-width:1.07;stroke-linecap:butt;stroke-linejoin:round;stroke-miterlimit:10;stroke-dasharray:none;stroke-opacity:1"
           id="path64" /><path
           d="m 286.36,45.79 v 0.53 0.53 0.54 0.53 0.54 0.53 0.54 0.53 0.54 0.53 0.53 0.54 0.53 0.54 0.53 0.54 0.53 0.53 0.54 0.53 0.54 0.53 0.54 0.53 0.54 0.53 0.53 0.54 0.53 0.54 0.53 0.54 0.53 0.53 0.54 0.53 0.54 0.53 0.54 0.53 0.54 0.53 0.53 0.54 0.53 0.54 0.53 0.54 0.53 0.53 0.54 0.53 0.54 0.53 0.54 0.53 0.54 0.53 0.53 0.54 0.53 0.54 0.53 0.54 0.53 0.53 0.54 0.53 0.54 0.53 0.54 0.53 0.53 0.54 0.53 0.54 0.53 0.54 0.53 0.54 0.53 0.53 0.54 0.53 0.54 0.53 0.54 0.53 0.53 0.54 0.53 0.54 0.53 0.54 0.53 0.54 0.53 0.53 0.54 0.53 0.54 0.53 0.54 0.53 0.53 0.54 0.53 0.54 0.53 0.54 0.53 0.54 0.53 0.53 0.54 0.53 0.54 0.53 0.54 0.53 0.53 0.54 0.53 0.54 0.53 0.54 0.53 0.54 0.53 0.53 0.54 0.53 0.54 0.53 0.54 0.53 0.53 0.54 0.53 0.54 0.53 0.54 0.53 0.54 0.53 0.53 0.54 0.53 0.54 0.53 0.54 0.53 0.53 0.54 0.53 0.54 0.53 0.54 0.53 0.54 0.53 0.53 0.54 0.53 0.54 0.53 0.54 0.53 0.53 0.54 0.53 0.54 0.53 0.54 0.53 0.53 0.54 0.53 0.54 0.53 0.54 0.53 0.54 0.53 0.53 0.54 0.53 0.54 0.53 0.54 0.53 0.53 0.54 0.53 0.54 0.53 0.54 0.53 0.54 0.53 0.53 0.54 0.53 0.54 0.53 0.54 0.53 0.53 0.54 0.53 0.54 0.53 0.54 0.53 0.54 0.53 0.53 0.54 0.53 0.54 0.53 0.54 0.53 0.53 0.54 0.53 0.54 0.53 0.54 0.53 0.54 0.53 0.53 0.54 0.53 0.54 0.53 0.54 0.53 0.53 0.54 0.53 0.54 0.53 0.54 0.53 0.54 0.53 0.53 0.54 0.53 0.54 0.53 0.54 0.53 0.53 0.54 0.53 0.54 0.53 0.54 0.53 0.54 0.53 0.53 0.54 0.53 0.54 0.53 0.54 0.53 0.53 0.54 0.53 0.54 0.53 0.54 0.53 0.53 0.54 0.53 0.54 0.53 0.54 0.53 0.54 0.53 0.53 0.54 0.53 0.54 0.53 0.54 0.53 0.53 0.54 0.53 0.54 0.53 0.54 0.53 0.54 0.53 0.53 0.54 0.53 0.54 0.53 0.54 0.53 0.53 0.54 0.53 0.54 0.53 0.54 0.53 0.54 0.53 0.53 0.54 0.53 0.54 0.53 0.54 0.53 0.53 0.54 0.53 0.54 0.53 0.54 0.53 0.54 0.53 0.53 0.54 0.53 0.54 0.53 0.54 0.53 0.53 0.54 0.53 0.54 0.53 0.54 0.53 0.54 0.53 0.53 0.54 0.53 0.54 0.53 0.54 0.53 0.53 0.54 0.53 0.54 0.53 0.54 0.53 0.54 0.53 0.53 0.54 0.53 0.54 0.53 0.54 0.53 0.53 0.54 0.53 0.54 0.53 0.54 0.53 0.53 0.54 0.53 0.54 0.53 0.54 0.53 0.54 0.53 0.53 0.54 0.53 0.54 0.53 0.54 0.53 0.53 0.54 0.53 0.54 0.53 0.54 0.53 0.54 0.53 0.53 0.54 0.53 0.54 0.53 0.54 0.53 0.53 0.54 0.53 0.54 0.53 0.54 0.53 0.54 0.53 0.53 0.54 0.53 0.54 0.53 0.54 0.53 0.53 0.54 0.53 0.54 0.53 0.54 0.53 0.54 0.53 0.53 0.54 0.53 0.54 0.53 0.54 0.53 0.53 0.54 0.53 0.54 0.53 0.54 0.53 0.54 0.53 0.53 0.54 0.53 0.54 0.53 0.54 0.53 0.53 0.54 0.53 0.54 0.53 0.54 0.53 0.54 0.53 0.53 0.54 0.53 0.54 0.53 0.54 0.53 0.53 0.54 0.53 0.54 0.53 0.54 0.53 0.53 0.54 0.53 0.54 0.53 0.54 0.53 0.54 0.53 0.53 0.54 0.53 0.54 0.53 0.54 0.53 0.53 0.54 0.53 0.54 0.53 0.54 0.53 0.54 0.53 0.53 0.54 h 13.25 l 0.04,-0.54 0.05,-0.53 0.03,-0.53 0.04,-0.54 0.03,-0.53 0.04,-0.54 0.02,-0.53 0.03,-0.54 0.02,-0.53 0.02,-0.54 0.01,-0.53 0.01,-0.53 0.01,-0.54 v -0.53 -0.54 -0.53 l -0.01,-0.54 v -0.53 l -0.02,-0.53 -0.01,-0.54 -0.02,-0.53 -0.02,-0.54 -0.03,-0.53 -0.02,-0.54 -0.03,-0.53 -0.04,-0.54 -0.03,-0.53 -0.04,-0.53 -0.05,-0.54 -0.04,-0.53 -0.05,-0.54 -0.05,-0.53 -0.06,-0.54 -0.05,-0.53 -0.06,-0.53 -0.07,-0.54 -0.06,-0.53 -0.07,-0.54 -0.07,-0.53 -0.07,-0.54 -0.08,-0.53 -0.07,-0.53 -0.08,-0.54 -0.08,-0.53 -0.09,-0.54 -0.08,-0.53 -0.09,-0.54 -0.09,-0.53 -0.09,-0.54 -0.09,-0.53 -0.1,-0.53 -0.09,-0.54 -0.1,-0.53 -0.1,-0.54 -0.1,-0.53 -0.1,-0.54 -0.1,-0.53 -0.11,-0.53 -0.1,-0.54 -0.11,-0.53 -0.1,-0.54 -0.11,-0.53 -0.1,-0.54 -0.11,-0.53 -0.11,-0.54 -0.11,-0.53 -0.1,-0.53 -0.11,-0.54 -0.11,-0.53 -0.11,-0.54 -0.1,-0.53 -0.11,-0.54 -0.11,-0.53 -0.1,-0.53 -0.11,-0.54 -0.1,-0.53 -0.11,-0.54 -0.1,-0.53 -0.1,-0.54 -0.1,-0.53 -0.1,-0.54 -0.1,-0.53 -0.1,-0.53 -0.09,-0.54 -0.09,-0.53 -0.09,-0.54 -0.09,-0.53 -0.09,-0.54 -0.09,-0.53 -0.08,-0.53 -0.08,-0.54 -0.08,-0.53 -0.07,-0.54 -0.07,-0.53 -0.07,-0.54 -0.07,-0.53 -0.07,-0.54 -0.06,-0.53 -0.06,-0.53 -0.05,-0.54 -0.05,-0.53 -0.05,-0.54 -0.04,-0.53 -0.04,-0.54 -0.04,-0.53 -0.03,-0.53 -0.03,-0.54 -0.03,-0.53 -0.02,-0.54 -0.01,-0.53 -0.02,-0.54 V 259 l -0.01,-0.54 v -0.53 l 0.01,-0.53 0.01,-0.54 0.02,-0.53 0.02,-0.54 0.03,-0.53 0.03,-0.54 0.04,-0.53 0.04,-0.53 0.05,-0.54 0.05,-0.53 0.07,-0.54 0.06,-0.53 0.07,-0.54 0.08,-0.53 0.09,-0.54 0.09,-0.53 0.1,-0.53 0.1,-0.54 0.11,-0.53 0.12,-0.54 0.12,-0.53 0.13,-0.54 0.14,-0.53 0.15,-0.53 0.15,-0.54 0.16,-0.53 0.17,-0.54 0.17,-0.53 0.19,-0.54 0.19,-0.53 0.2,-0.53 0.2,-0.54 0.22,-0.53 0.22,-0.54 0.24,-0.53 0.23,-0.54 0.25,-0.53 0.26,-0.54 0.26,-0.53 0.27,-0.53 0.29,-0.54 0.29,-0.53 0.3,-0.54 0.31,-0.53 0.32,-0.54 0.33,-0.53 0.34,-0.53 0.34,-0.54 0.36,-0.53 0.36,-0.54 0.38,-0.53 0.38,-0.54 0.4,-0.53 0.4,-0.54 0.42,-0.53 0.42,-0.53 0.44,-0.54 0.44,-0.53 0.46,-0.54 0.46,-0.53 0.48,-0.54 0.48,-0.53 0.5,-0.53 0.5,-0.54 0.52,-0.53 0.53,-0.54 0.53,-0.53 0.55,-0.54 0.56,-0.53 0.57,-0.54 0.58,-0.53 0.59,-0.53 0.6,-0.54 0.61,-0.53 0.62,-0.54 0.63,-0.53 0.64,-0.54 0.65,-0.53 0.66,-0.53 0.68,-0.54 0.68,-0.53 0.69,-0.54 0.7,-0.53 0.72,-0.54 0.72,-0.53 0.74,-0.54 0.74,-0.53 0.75,-0.53 0.76,-0.54 0.78,-0.53 0.78,-0.54 0.79,-0.53 0.8,-0.54 0.81,-0.53 0.82,-0.53 0.83,-0.54 0.83,-0.53 0.85,-0.54 0.85,-0.53 0.87,-0.54 0.87,-0.53 0.88,-0.54 0.88,-0.53 0.9,-0.53 0.9,-0.54 0.91,-0.53 0.92,-0.54 0.92,-0.53 0.93,-0.54 0.94,-0.53 0.94,-0.53 0.96,-0.54 0.95,-0.53 0.97,-0.54 0.96,-0.53 0.98,-0.54 0.97,-0.53 0.99,-0.54 0.98,-0.53 0.99,-0.53 1,-0.54 1,-0.53 1,-0.54 1.01,-0.53 1,-0.54 1.02,-0.53 1.01,-0.53 1.01,-0.54 1.02,-0.53 1.02,-0.54 1.02,-0.53 1.02,-0.54 1.02,-0.53 1.02,-0.53 1.02,-0.54 1.03,-0.53 1.02,-0.54 1.02,-0.53 1.01,-0.54 1.02,-0.53 1.01,-0.54 1.02,-0.53 1.01,-0.53 1,-0.54 1.01,-0.53 1,-0.54 0.99,-0.53 0.99,-0.54 0.99,-0.53 0.98,-0.53 0.98,-0.54 0.97,-0.53 0.97,-0.54 0.96,-0.53 0.95,-0.54 0.95,-0.53 0.94,-0.54 0.93,-0.53 0.93,-0.53 0.92,-0.54 0.9,-0.53 0.91,-0.54 0.88,-0.53 0.89,-0.54 0.87,-0.53 0.87,-0.53 0.85,-0.54 0.84,-0.53 0.83,-0.54 0.83,-0.53 0.8,-0.54 0.81,-0.53 0.78,-0.54 0.78,-0.53 0.76,-0.53 0.76,-0.54 0.73,-0.53 0.73,-0.54 0.71,-0.53 0.71,-0.54 0.68,-0.53 0.68,-0.53 0.65,-0.54 0.65,-0.53 0.62,-0.54 0.62,-0.53 0.6,-0.54 0.59,-0.53 0.57,-0.54 0.56,-0.53 0.54,-0.53 0.53,-0.54 0.5,-0.53 0.5,-0.54 0.47,-0.53 0.47,-0.54 0.44,-0.53 0.43,-0.53 0.41,-0.54 0.4,-0.53 0.38,-0.54 0.36,-0.53 0.35,-0.54 0.33,-0.53 0.31,-0.54 0.3,-0.53 0.27,-0.53 0.26,-0.54 0.25,-0.53 0.22,-0.54 0.21,-0.53 0.19,-0.54 0.17,-0.53 0.16,-0.53 0.14,-0.54 0.12,-0.53 0.1,-0.54 0.09,-0.53 0.07,-0.54 0.04,-0.53 0.04,-0.54 0.01,-0.53 v -0.53 l -0.02,-0.54 -0.03,-0.53 -0.06,-0.54 -0.07,-0.53 -0.09,-0.54 -0.11,-0.53 -0.12,-0.53 -0.14,-0.54 -0.16,-0.53 -0.17,-0.54 -0.2,-0.53 -0.2,-0.54 -0.23,-0.53 -0.24,-0.53 -0.26,-0.54 -0.27,-0.53 -0.3,-0.54 -0.3,-0.53 -0.33,-0.54 -0.33,-0.53 -0.36,-0.54 -0.36,-0.53 -0.4,-0.53 -0.39,-0.54 -0.42,-0.53 -0.43,-0.54 -0.45,-0.53 -0.45,-0.54 -0.48,-0.53 -0.49,-0.53 -0.5,-0.54 -0.52,-0.53 -0.53,-0.54 -0.54,-0.53 -0.56,-0.54 -0.57,-0.53 -0.58,-0.54 -0.6,-0.53 -0.61,-0.53 -0.61,-0.54 -0.64,-0.53 -0.64,-0.54 -0.66,-0.53 -0.66,-0.54 -0.68,-0.53 -0.68,-0.53 -0.7,-0.54 -0.71,-0.53 -0.72,-0.54 -0.73,-0.53 -0.73,-0.54 -0.75,-0.53 -0.75,-0.54 -0.77,-0.53 -0.77,-0.53 -0.78,-0.54 -0.79,-0.53 -0.79,-0.54 -0.8,-0.53 -0.81,-0.54 -0.81,-0.53 -0.83,-0.53 -0.82,-0.54 -0.84,-0.53 -0.83,-0.54 -0.85,-0.53 -0.85,-0.54 -0.85,-0.53 -0.86,-0.54 -0.86,-0.53 -0.86,-0.53 -0.87,-0.54 -0.87,-0.53 -0.88,-0.54 -0.87,-0.53 -0.88,-0.54 -0.88,-0.53 -0.88,-0.53 -0.89,-0.54 -0.88,-0.53 -0.89,-0.54 -0.88,-0.53 -0.89,-0.54 -0.88,-0.53 -0.89,-0.54 -0.89,-0.53 -0.88,-0.53 -0.88,-0.54 -0.89,-0.53 -0.88,-0.54 -0.88,-0.53 -0.87,-0.54 -0.88,-0.53 -0.87,-0.53 -0.87,-0.54 -0.86,-0.53 -0.87,-0.54 -0.86,-0.53 -0.85,-0.54 -0.85,-0.53 -0.85,-0.54 -0.85,-0.53 -0.84,-0.53 -0.83,-0.54 -0.83,-0.53 -0.83,-0.54 -0.82,-0.53 -0.81,-0.54 -0.82,-0.53 -0.8,-0.53 -0.8,-0.54 -0.79,-0.53 -0.79,-0.54 -0.78,-0.53 -0.78,-0.54 -0.76,-0.53 -0.77,-0.53 -0.75,-0.54 -0.76,-0.53 -0.74,-0.54 -0.73,-0.53 -0.73,-0.54 -0.73,-0.53 -0.71,-0.54 -0.71,-0.53 -0.71,-0.53 -0.69,-0.54 -0.69,-0.53 -0.68,-0.54 -0.67,-0.53 -0.67,-0.54 -0.66,-0.53 -0.65,-0.53 -0.65,-0.54 -0.64,-0.53 -0.63,-0.54 -0.62,-0.53 -0.62,-0.54 -0.61,-0.53 -0.61,-0.54 -0.59,-0.53 -0.59,-0.53 -0.58,-0.54 -0.58,-0.53 -0.56,-0.54 -0.57,-0.53 -0.55,-0.54 -0.55,-0.53 -0.54,-0.53 -0.54,-0.54 -0.52,-0.53 -0.53,-0.54 -0.51,-0.53 -0.51,-0.54 -0.5,-0.53 -0.5,-0.54 -0.49,-0.53 -0.48,-0.53 -0.48,-0.54 -0.47,-0.53 -0.47,-0.54 -0.46,-0.53 -0.45,-0.54 -0.45,-0.53 -0.44,-0.53 -0.44,-0.54 -0.43,-0.53 -0.43,-0.54 -0.42,-0.53 -0.42,-0.54 -0.41,-0.53 -0.41,-0.54 -0.4,-0.53 -0.4,-0.53 z"
           style="fill:#f8766d;fill-opacity:1;fill-rule:nonzero;stroke:#333333;stroke-width:1.07;stroke-linecap:round;stroke-linejoin:round;stroke-miterlimit:10;stroke-dasharray:none;stroke-opacity:1"
           id="path66" /><path
           d="m 589.23,94.7 v 0.92 0.92 0.92 0.92 0.91 0.92 0.92 0.92 0.92 0.92 0.92 0.91 0.92 0.92 0.92 0.92 0.92 0.91 0.92 0.92 0.92 0.92 0.92 0.92 0.91 0.92 0.92 0.92 0.92 0.92 0.91 0.92 0.92 0.92 0.92 0.92 0.92 0.91 0.92 0.92 0.92 0.92 0.92 0.92 0.91 0.92 0.92 0.92 0.92 0.92 0.91 0.92 0.92 0.92 0.92 0.92 0.92 0.91 0.92 0.92 0.92 0.92 0.92 0.91 0.92 0.92 0.92 0.92 0.92 0.92 0.91 0.92 0.92 0.92 0.92 0.92 0.92 0.91 0.92 0.92 0.92 0.92 0.92 0.91 0.92 0.92 0.92 0.92 0.92 0.92 0.91 0.92 0.92 0.92 0.92 0.92 0.91 0.92 0.92 0.92 0.92 0.92 0.92 0.91 0.92 0.92 0.92 0.92 0.92 0.92 0.91 0.92 0.92 0.92 0.92 0.92 0.91 0.92 0.92 0.92 0.92 0.92 0.92 0.91 0.92 0.92 0.92 0.92 0.92 0.91 0.92 0.92 0.92 0.92 0.92 0.92 0.91 0.92 0.92 0.92 0.92 0.92 0.92 0.91 0.92 0.92 0.92 0.92 0.92 0.91 0.92 0.92 0.92 0.92 0.92 0.92 0.91 0.92 0.92 0.92 0.92 0.92 0.91 0.92 0.92 0.92 0.92 0.92 0.92 0.91 0.92 0.92 0.92 0.92 0.92 0.92 0.91 0.92 0.92 0.92 0.92 0.92 0.91 0.92 0.92 0.92 0.92 0.92 0.92 0.91 0.92 0.92 0.92 0.92 0.92 0.91 0.92 0.92 0.92 0.92 0.92 0.92 0.91 0.92 0.92 0.92 0.92 0.92 0.92 0.91 0.92 0.92 0.92 0.92 0.92 0.91 0.92 0.92 0.92 0.92 0.92 0.92 0.91 0.92 0.92 0.92 0.92 0.92 0.91 0.92 0.92 0.92 0.92 0.92 0.92 0.91 0.92 0.92 0.92 0.92 0.92 0.92 0.91 0.92 0.92 0.92 0.92 0.92 0.91 0.92 0.92 0.92 0.92 0.92 0.92 0.91 0.92 0.92 0.92 0.92 0.92 0.91 0.92 0.92 0.92 0.92 0.92 0.92 0.91 0.92 0.92 0.92 0.92 0.92 0.92 0.91 0.92 0.92 0.92 0.92 0.92 0.91 0.92 0.92 0.92 0.92 0.92 0.92 0.91 0.92 0.92 0.92 0.92 0.92 0.91 0.92 0.92 0.92 0.92 0.92 0.92 0.91 0.92 0.92 0.92 0.92 0.92 0.92 0.91 0.92 0.92 0.92 0.92 0.92 0.91 0.92 0.92 0.92 0.92 0.92 0.92 0.91 0.92 0.92 0.92 0.92 0.92 0.91 0.92 0.92 0.92 0.92 0.92 0.92 0.91 0.92 0.92 0.92 0.92 0.92 0.92 0.91 0.92 0.92 0.92 0.92 0.92 0.91 0.92 0.92 0.92 0.92 0.92 0.92 0.91 0.92 0.92 0.92 0.92 0.92 0.91 0.92 0.92 0.92 0.92 0.92 0.92 0.91 0.92 0.92 0.92 0.92 0.92 0.92 0.91 0.92 0.92 0.92 0.92 0.92 0.91 0.92 0.92 0.92 0.92 0.92 0.92 0.91 0.92 0.92 0.92 0.92 0.92 0.91 0.92 0.92 0.92 0.92 0.92 0.92 0.91 0.92 0.92 0.92 0.92 0.92 0.92 0.91 0.92 0.92 0.92 0.92 0.92 0.91 0.92 0.92 0.92 0.92 0.92 0.92 0.91 0.92 0.92 0.92 0.92 0.92 0.91 0.92 0.92 0.92 0.92 0.92 0.92 0.91 0.92 0.92 0.92 0.92 0.92 0.92 0.91 0.92 0.92 0.92 0.92 0.92 0.91 0.92 0.92 0.92 0.92 0.92 0.92 0.91 0.92 0.92 0.92 0.92 0.92 0.91 0.92 0.92 0.92 0.92 0.92 0.92 0.91 0.92 0.92 0.92 0.92 0.92 0.92 0.91 0.92 0.92 0.92 0.92 0.92 0.91 0.92 0.92 0.92 0.92 0.92 0.92 0.91 0.92 0.92 0.92 0.92 0.92 0.91 0.92 0.92 0.92 0.92 0.92 0.92 0.91 0.92 0.92 0.92 0.92 0.92 0.92 0.91 0.92 0.92 0.92 0.92 h 17.72 l 0.19,-0.92 0.19,-0.92 0.2,-0.92 0.19,-0.92 0.2,-0.91 0.2,-0.92 0.2,-0.92 0.2,-0.92 0.21,-0.92 0.2,-0.92 0.21,-0.92 0.21,-0.91 0.21,-0.92 0.22,-0.92 0.21,-0.92 0.22,-0.92 0.22,-0.92 0.22,-0.92 0.23,-0.91 0.22,-0.92 0.23,-0.92 0.23,-0.92 0.23,-0.92 0.24,-0.92 0.23,-0.91 0.24,-0.92 0.24,-0.92 0.24,-0.92 0.25,-0.92 0.24,-0.92 0.25,-0.92 0.26,-0.91 0.25,-0.92 0.25,-0.92 0.26,-0.92 0.26,-0.92 0.26,-0.92 0.27,-0.91 0.27,-0.92 0.26,-0.92 0.28,-0.92 0.27,-0.92 0.28,-0.92 0.28,-0.92 0.28,-0.91 0.28,-0.92 0.29,-0.92 0.29,-0.92 0.29,-0.92 0.29,-0.92 0.3,-0.92 0.3,-0.91 0.3,-0.92 0.3,-0.92 0.31,-0.92 0.31,-0.92 0.31,-0.92 0.31,-0.91 0.32,-0.92 0.31,-0.92 0.33,-0.92 0.32,-0.92 0.33,-0.92 0.33,-0.92 0.33,-0.91 0.33,-0.92 0.34,-0.92 0.34,-0.92 0.35,-0.92 0.34,-0.92 0.35,-0.91 0.35,-0.92 0.35,-0.92 0.36,-0.92 0.36,-0.92 0.36,-0.92 0.36,-0.92 0.37,-0.91 0.37,-0.92 0.37,-0.92 0.38,-0.92 0.38,-0.92 0.38,-0.92 0.38,-0.92 0.39,-0.91 0.39,-0.92 0.39,-0.92 0.4,-0.92 0.39,-0.92 0.4,-0.92 0.41,-0.91 0.4,-0.92 0.41,-0.92 0.41,-0.92 0.41,-0.92 0.42,-0.92 0.42,-0.92 0.42,-0.91 0.43,-0.92 0.43,-0.92 0.43,-0.92 0.43,-0.92 0.44,-0.92 0.43,-0.91 0.44,-0.92 0.45,-0.92 0.44,-0.92 0.45,-0.92 0.46,-0.92 0.45,-0.92 0.46,-0.91 0.46,-0.92 0.46,-0.92 0.46,-0.92 0.47,-0.92 0.47,-0.92 0.47,-0.92 0.47,-0.91 0.48,-0.92 0.48,-0.92 0.48,-0.92 0.49,-0.92 0.48,-0.92 0.49,-0.91 0.49,-0.92 0.5,-0.92 0.49,-0.92 0.5,-0.92 0.5,-0.92 0.5,-0.92 0.51,-0.91 0.5,-0.92 0.51,-0.92 0.51,-0.92 0.52,-0.92 0.51,-0.92 0.52,-0.91 0.52,-0.92 0.52,-0.92 0.52,-0.92 0.53,-0.92 0.52,-0.92 0.53,-0.92 0.53,-0.91 0.53,-0.92 0.53,-0.92 0.54,-0.92 0.54,-0.92 0.53,-0.92 0.54,-0.92 0.54,-0.91 0.55,-0.92 0.54,-0.92 0.55,-0.92 0.54,-0.92 0.55,-0.92 0.55,-0.91 0.55,-0.92 0.55,-0.92 0.55,-0.92 0.56,-0.92 0.55,-0.92 0.55,-0.92 0.56,-0.91 0.56,-0.92 0.55,-0.92 0.56,-0.92 0.56,-0.92 0.56,-0.92 0.56,-0.91 0.56,-0.92 0.56,-0.92 0.56,-0.92 0.57,-0.92 0.56,-0.92 0.56,-0.92 0.56,-0.91 0.56,-0.92 0.57,-0.92 0.56,-0.92 0.56,-0.92 0.56,-0.92 0.56,-0.92 0.57,-0.91 0.56,-0.92 0.56,-0.92 0.56,-0.92 0.56,-0.92 0.56,-0.92 0.55,-0.91 0.56,-0.92 0.56,-0.92 0.55,-0.92 0.56,-0.92 0.55,-0.92 0.56,-0.92 0.55,-0.91 0.55,-0.92 0.55,-0.92 0.55,-0.92 0.54,-0.92 0.55,-0.92 0.54,-0.91 0.54,-0.92 0.54,-0.92 0.54,-0.92 0.54,-0.92 0.53,-0.92 0.53,-0.92 0.54,-0.91 0.52,-0.92 0.53,-0.92 0.52,-0.92 0.53,-0.92 0.51,-0.92 0.52,-0.92 0.52,-0.91 0.51,-0.92 0.51,-0.92 0.5,-0.92 0.5,-0.92 0.51,-0.92 0.49,-0.91 0.5,-0.92 0.49,-0.92 0.48,-0.92 0.49,-0.92 0.48,-0.92 0.48,-0.92 0.47,-0.91 0.47,-0.92 0.47,-0.92 0.46,-0.92 0.46,-0.92 0.45,-0.92 0.46,-0.91 0.44,-0.92 0.45,-0.92 0.44,-0.92 0.43,-0.92 0.43,-0.92 0.43,-0.92 0.42,-0.91 0.42,-0.92 0.41,-0.92 0.41,-0.92 0.4,-0.92 0.4,-0.92 0.39,-0.92 0.39,-0.91 0.38,-0.92 0.38,-0.92 0.37,-0.92 0.38,-0.92 0.36,-0.92 0.35,-0.91 0.36,-0.92 0.34,-0.92 0.35,-0.92 0.33,-0.92 0.33,-0.92 0.33,-0.92 0.31,-0.91 0.32,-0.92 0.31,-0.92 0.3,-0.92 0.29,-0.92 0.29,-0.92 0.29,-0.91 0.27,-0.92 0.27,-0.92 0.27,-0.92 0.26,-0.92 0.25,-0.92 0.24,-0.92 0.24,-0.91 0.24,-0.92 0.22,-0.92 0.23,-0.92 0.21,-0.92 0.2,-0.92 0.2,-0.92 0.2,-0.91 0.19,-0.92 0.17,-0.92 0.18,-0.92 0.16,-0.92 0.16,-0.92 0.16,-0.91 0.14,-0.92 0.14,-0.92 0.13,-0.92 0.12,-0.92 0.12,-0.92 0.11,-0.92 0.1,-0.91 0.1,-0.92 0.08,-0.92 0.09,-0.92 0.07,-0.92 0.06,-0.92 0.06,-0.91 0.05,-0.92 0.05,-0.92 0.03,-0.92 0.04,-0.92 0.02,-0.92 0.01,-0.92 0.01,-0.91 v -0.92 l -0.01,-0.92 -0.01,-0.92 -0.03,-0.92 -0.02,-0.92 -0.04,-0.92 -0.05,-0.91 -0.05,-0.92 -0.06,-0.92 -0.06,-0.92 -0.08,-0.92 -0.08,-0.92 -0.09,-0.91 -0.1,-0.92 -0.1,-0.92 -0.11,-0.92 -0.12,-0.92 -0.13,-0.92 -0.13,-0.92 -0.14,-0.91 -0.15,-0.92 -0.15,-0.92 -0.17,-0.92 -0.17,-0.92 -0.17,-0.92 -0.19,-0.91 -0.19,-0.92 -0.2,-0.92 -0.21,-0.92 -0.21,-0.92 -0.22,-0.92 -0.22,-0.92 -0.24,-0.91 -0.24,-0.92 -0.25,-0.92 -0.26,-0.92 -0.26,-0.92 -0.27,-0.92 -0.27,-0.92 -0.28,-0.91 -0.29,-0.92 -0.3,-0.92 -0.3,-0.92 -0.31,-0.92 -0.31,-0.92 -0.33,-0.91 -0.32,-0.92 -0.34,-0.92 -0.34,-0.92 -0.35,-0.92 -0.36,-0.92 -0.35,-0.92 -0.37,-0.91 -0.37,-0.92 -0.38,-0.92 -0.39,-0.92 -0.38,-0.92 -0.4,-0.92 -0.4,-0.91 -0.41,-0.92 -0.41,-0.92 -0.42,-0.92 -0.43,-0.92 -0.43,-0.92 -0.43,-0.92 -0.44,-0.91 -0.45,-0.92 -0.45,-0.92 -0.45,-0.92 -0.46,-0.92 -0.47,-0.92 -0.47,-0.92 -0.48,-0.91 -0.48,-0.92 -0.48,-0.92 -0.49,-0.92 -0.5,-0.92 -0.5,-0.92 -0.5,-0.91 -0.51,-0.92 -0.51,-0.92 -0.51,-0.92 -0.53,-0.92 -0.52,-0.92 -0.53,-0.92 -0.53,-0.91 -0.53,-0.92 -0.55,-0.92 -0.54,-0.92 -0.55,-0.92 -0.55,-0.92 -0.55,-0.91 -0.56,-0.92 -0.56,-0.92 -0.56,-0.92 -0.57,-0.92 -0.56,-0.92 -0.58,-0.92 -0.57,-0.91 -0.58,-0.92 -0.58,-0.92 -0.58,-0.92 -0.59,-0.92 -0.58,-0.92 -0.59,-0.92 -0.6,-0.91 -0.59,-0.92 -0.6,-0.92 -0.6,-0.92 -0.6,-0.92 -0.6,-0.92 -0.6,-0.91 -0.61,-0.92 -0.6,-0.92 -0.61,-0.92 -0.61,-0.92 -0.61,-0.92 -0.62,-0.92 -0.61,-0.91 -0.61,-0.92 -0.62,-0.92 -0.62,-0.92 -0.62,-0.92 -0.61,-0.92 -0.62,-0.91 -0.62,-0.92 -0.62,-0.92 -0.62,-0.92 -0.62,-0.92 -0.63,-0.92 -0.62,-0.92 -0.62,-0.91 -0.62,-0.92 -0.62,-0.92 -0.63,-0.92 -0.62,-0.92 -0.62,-0.92 -0.62,-0.92 -0.62,-0.91 -0.62,-0.92 -0.62,-0.92 -0.62,-0.92 -0.62,-0.92 -0.62,-0.92 -0.62,-0.91 -0.62,-0.92 -0.61,-0.92 -0.62,-0.92 -0.61,-0.92 -0.61,-0.92 -0.62,-0.92 -0.61,-0.91 -0.61,-0.92 -0.61,-0.92 -0.6,-0.92 -0.61,-0.92 -0.6,-0.92 -0.61,-0.91 -0.6,-0.92 -0.6,-0.92 -0.59,-0.92 -0.6,-0.92 -0.59,-0.92 -0.6,-0.92 -0.59,-0.91 -0.59,-0.92 -0.58,-0.92 -0.59,-0.92 -0.58,-0.92 -0.58,-0.92 -0.58,-0.92 -0.57,-0.91 -0.58,-0.92 -0.57,-0.92 -0.57,-0.92 -0.57,-0.92 -0.56,-0.92 -0.56,-0.91 -0.56,-0.92 -0.56,-0.92 -0.55,-0.92 -0.55,-0.92 -0.55,-0.92 -0.55,-0.92 -0.54,-0.91 -0.54,-0.92 -0.54,-0.92 -0.54,-0.92 -0.53,-0.92 -0.53,-0.92 -0.53,-0.91 -0.52,-0.92 -0.52,-0.92 -0.52,-0.92 -0.51,-0.92 -0.52,-0.92 -0.51,-0.92 -0.5,-0.91 -0.51,-0.92 -0.49,-0.92 -0.5,-0.92 -0.5,-0.92 z"
           style="fill:#00bfc4;fill-opacity:1;fill-rule:nonzero;stroke:#333333;stroke-width:1.07;stroke-linecap:round;stroke-linejoin:round;stroke-miterlimit:10;stroke-dasharray:none;stroke-opacity:1"
           id="path68" /><path
           d="m 201.35,125.04 c 0,1.37 1.12,2.49 2.49,2.49 1.37,0 2.49,-1.12 2.49,-2.49 0,-1.37 -1.12,-2.49 -2.49,-2.49 -1.37,0 -2.49,1.12 -2.49,2.49"
           style="fill:#f8766d;fill-opacity:1;fill-rule:nonzero;stroke:none"
           id="path70" /><path
           d="m 226.08,158.48 c 0,1.37 1.12,2.49 2.49,2.49 1.36,0 2.48,-1.12 2.48,-2.49 0,-1.37 -1.12,-2.49 -2.48,-2.49 -1.37,0 -2.49,1.12 -2.49,2.49"
           style="fill:#f8766d;fill-opacity:1;fill-rule:nonzero;stroke:none"
           id="path72" /><path
           d="m 218.29,153.52 c 0,1.37 1.12,2.49 2.49,2.49 1.37,0 2.49,-1.12 2.49,-2.49 0,-1.36 -1.12,-2.48 -2.49,-2.48 -1.37,0 -2.49,1.12 -2.49,2.48"
           style="fill:#f8766d;fill-opacity:1;fill-rule:nonzero;stroke:none"
           id="path74" /><path
           d="m 249.95,109.56 c 0,1.37 1.12,2.49 2.49,2.49 1.37,0 2.49,-1.12 2.49,-2.49 0,-1.37 -1.12,-2.49 -2.49,-2.49 -1.37,0 -2.49,1.12 -2.49,2.49"
           style="fill:#f8766d;fill-opacity:1;fill-rule:nonzero;stroke:none"
           id="path76" /><path
           d="m 221.59,193.15 c 0,1.37 1.12,2.49 2.49,2.49 1.36,0 2.48,-1.12 2.48,-2.49 0,-1.37 -1.12,-2.49 -2.48,-2.49 -1.37,0 -2.49,1.12 -2.49,2.49"
           style="fill:#f8766d;fill-opacity:1;fill-rule:nonzero;stroke:none"
           id="path78" /><path
           d="m 263.7,127.52 c 0,1.37 1.12,2.49 2.49,2.49 1.37,0 2.49,-1.12 2.49,-2.49 0,-1.37 -1.12,-2.49 -2.49,-2.49 -1.37,0 -2.49,1.12 -2.49,2.49"
           style="fill:#f8766d;fill-opacity:1;fill-rule:nonzero;stroke:none"
           id="path80" /><path
           d="m 191.78,162.19 c 0,1.37 1.12,2.49 2.49,2.49 1.36,0 2.48,-1.12 2.48,-2.49 0,-1.36 -1.12,-2.48 -2.48,-2.48 -1.37,0 -2.49,1.12 -2.49,2.48"
           style="fill:#f8766d;fill-opacity:1;fill-rule:nonzero;stroke:none"
           id="path82" /><path
           d="m 182.54,123.8 c 0,1.37 1.12,2.49 2.49,2.49 1.36,0 2.48,-1.12 2.48,-2.49 0,-1.36 -1.12,-2.48 -2.48,-2.48 -1.37,0 -2.49,1.12 -2.49,2.48"
           style="fill:#f8766d;fill-opacity:1;fill-rule:nonzero;stroke:none"
           id="path84" /><path
           d="m 225.24,123.18 c 0,1.37 1.12,2.49 2.49,2.49 1.37,0 2.49,-1.12 2.49,-2.49 0,-1.36 -1.12,-2.48 -2.49,-2.48 -1.37,0 -2.49,1.12 -2.49,2.48"
           style="fill:#f8766d;fill-opacity:1;fill-rule:nonzero;stroke:none"
           id="path86" /><path
           d="m 262.3,149.81 c 0,1.37 1.12,2.49 2.49,2.49 1.37,0 2.49,-1.12 2.49,-2.49 0,-1.37 -1.12,-2.49 -2.49,-2.49 -1.37,0 -2.49,1.12 -2.49,2.49"
           style="fill:#f8766d;fill-opacity:1;fill-rule:nonzero;stroke:none"
           id="path88" /><path
           d="m 213.06,164.67 c 0,1.37 1.12,2.49 2.49,2.49 1.37,0 2.49,-1.12 2.49,-2.49 0,-1.37 -1.12,-2.49 -2.49,-2.49 -1.37,0 -2.49,1.12 -2.49,2.49"
           style="fill:#f8766d;fill-opacity:1;fill-rule:nonzero;stroke:none"
           id="path90" /><path
           d="m 267.14,167.77 c 0,1.36 1.12,2.48 2.49,2.48 1.37,0 2.49,-1.12 2.49,-2.48 0,-1.37 -1.12,-2.49 -2.49,-2.49 -1.37,0 -2.49,1.12 -2.49,2.49"
           style="fill:#f8766d;fill-opacity:1;fill-rule:nonzero;stroke:none"
           id="path92" /><path
           d="m 234.27,165.29 c 0,1.37 1.12,2.49 2.49,2.49 1.37,0 2.48,-1.12 2.48,-2.49 0,-1.37 -1.11,-2.49 -2.48,-2.49 -1.37,0 -2.49,1.12 -2.49,2.49"
           style="fill:#f8766d;fill-opacity:1;fill-rule:nonzero;stroke:none"
           id="path94" /><path
           d="m 266.57,123.18 c 0,1.37 1.12,2.49 2.49,2.49 1.37,0 2.49,-1.12 2.49,-2.49 0,-1.36 -1.12,-2.48 -2.49,-2.48 -1.37,0 -2.49,1.12 -2.49,2.48"
           style="fill:#f8766d;fill-opacity:1;fill-rule:nonzero;stroke:none"
           id="path96" /><path
           d="m 507.58,322.55 4.97,4.98"
           style="fill:none;stroke:#00bfc4;stroke-width:0.71;stroke-linecap:round;stroke-linejoin:round;stroke-miterlimit:10;stroke-dasharray:none;stroke-opacity:1"
           id="path98" /><path
           d="m 507.58,327.53 4.97,-4.98"
           style="fill:none;stroke:#00bfc4;stroke-width:0.71;stroke-linecap:round;stroke-linejoin:round;stroke-miterlimit:10;stroke-dasharray:none;stroke-opacity:1"
           id="path100" /><path
           d="m 483.87,384.47 4.98,4.98"
           style="fill:none;stroke:#00bfc4;stroke-width:0.71;stroke-linecap:round;stroke-linejoin:round;stroke-miterlimit:10;stroke-dasharray:none;stroke-opacity:1"
           id="path102" /><path
           d="m 483.87,389.45 4.98,-4.98"
           style="fill:none;stroke:#00bfc4;stroke-width:0.71;stroke-linecap:round;stroke-linejoin:round;stroke-miterlimit:10;stroke-dasharray:none;stroke-opacity:1"
           id="path104" /><path
           d="m 540.61,318.22 4.97,4.97"
           style="fill:none;stroke:#00bfc4;stroke-width:0.71;stroke-linecap:round;stroke-linejoin:round;stroke-miterlimit:10;stroke-dasharray:none;stroke-opacity:1"
           id="path106" /><path
           d="m 540.61,323.19 4.97,-4.97"
           style="fill:none;stroke:#00bfc4;stroke-width:0.71;stroke-linecap:round;stroke-linejoin:round;stroke-miterlimit:10;stroke-dasharray:none;stroke-opacity:1"
           id="path108" /><path
           d="m 488.24,92.21 4.97,4.98"
           style="fill:none;stroke:#00bfc4;stroke-width:0.71;stroke-linecap:round;stroke-linejoin:round;stroke-miterlimit:10;stroke-dasharray:none;stroke-opacity:1"
           id="path110" /><path
           d="m 488.24,97.19 4.97,-4.98"
           style="fill:none;stroke:#00bfc4;stroke-width:0.71;stroke-linecap:round;stroke-linejoin:round;stroke-miterlimit:10;stroke-dasharray:none;stroke-opacity:1"
           id="path112" /><path
           d="m 533.28,368.99 4.97,4.98"
           style="fill:none;stroke:#00bfc4;stroke-width:0.71;stroke-linecap:round;stroke-linejoin:round;stroke-miterlimit:10;stroke-dasharray:none;stroke-opacity:1"
           id="path114" /><path
           d="m 533.28,373.97 4.97,-4.98"
           style="fill:none;stroke:#00bfc4;stroke-width:0.71;stroke-linecap:round;stroke-linejoin:round;stroke-miterlimit:10;stroke-dasharray:none;stroke-opacity:1"
           id="path116" /><path
           d="m 541.42,289.74 4.98,4.97"
           style="fill:none;stroke:#00bfc4;stroke-width:0.71;stroke-linecap:round;stroke-linejoin:round;stroke-miterlimit:10;stroke-dasharray:none;stroke-opacity:1"
           id="path118" /><path
           d="m 541.42,294.71 4.98,-4.97"
           style="fill:none;stroke:#00bfc4;stroke-width:0.71;stroke-linecap:round;stroke-linejoin:round;stroke-miterlimit:10;stroke-dasharray:none;stroke-opacity:1"
           id="path120" /><path
           d="m 571.3,245.77 4.98,4.98"
           style="fill:none;stroke:#00bfc4;stroke-width:0.71;stroke-linecap:round;stroke-linejoin:round;stroke-miterlimit:10;stroke-dasharray:none;stroke-opacity:1"
           id="path122" /><path
           d="m 571.3,250.75 4.98,-4.98"
           style="fill:none;stroke:#00bfc4;stroke-width:0.71;stroke-linecap:round;stroke-linejoin:round;stroke-miterlimit:10;stroke-dasharray:none;stroke-opacity:1"
           id="path124" /><path
           d="m 517.9,202.43 4.98,4.98"
           style="fill:none;stroke:#00bfc4;stroke-width:0.71;stroke-linecap:round;stroke-linejoin:round;stroke-miterlimit:10;stroke-dasharray:none;stroke-opacity:1"
           id="path126" /><path
           d="m 517.9,207.41 4.98,-4.98"
           style="fill:none;stroke:#00bfc4;stroke-width:0.71;stroke-linecap:round;stroke-linejoin:round;stroke-miterlimit:10;stroke-dasharray:none;stroke-opacity:1"
           id="path128" /><path
           d="m 569.26,205.53 4.98,4.97"
           style="fill:none;stroke:#00bfc4;stroke-width:0.71;stroke-linecap:round;stroke-linejoin:round;stroke-miterlimit:10;stroke-dasharray:none;stroke-opacity:1"
           id="path130" /><path
           d="m 569.26,210.5 4.98,-4.97"
           style="fill:none;stroke:#00bfc4;stroke-width:0.71;stroke-linecap:round;stroke-linejoin:round;stroke-miterlimit:10;stroke-dasharray:none;stroke-opacity:1"
           id="path132" /><path
           d="m 494.95,220.39 4.98,4.97"
           style="fill:none;stroke:#00bfc4;stroke-width:0.71;stroke-linecap:round;stroke-linejoin:round;stroke-miterlimit:10;stroke-dasharray:none;stroke-opacity:1"
           id="path134" /><path
           d="m 494.95,225.36 4.98,-4.97"
           style="fill:none;stroke:#00bfc4;stroke-width:0.71;stroke-linecap:round;stroke-linejoin:round;stroke-miterlimit:10;stroke-dasharray:none;stroke-opacity:1"
           id="path136" /><path
           d="m 560.43,282.92 4.98,4.98"
           style="fill:none;stroke:#00bfc4;stroke-width:0.71;stroke-linecap:round;stroke-linejoin:round;stroke-miterlimit:10;stroke-dasharray:none;stroke-opacity:1"
           id="path138" /><path
           d="m 560.43,287.9 4.98,-4.98"
           style="fill:none;stroke:#00bfc4;stroke-width:0.71;stroke-linecap:round;stroke-linejoin:round;stroke-miterlimit:10;stroke-dasharray:none;stroke-opacity:1"
           id="path140" /><path
           d="m 504.81,295.31 4.98,4.97"
           style="fill:none;stroke:#00bfc4;stroke-width:0.71;stroke-linecap:round;stroke-linejoin:round;stroke-miterlimit:10;stroke-dasharray:none;stroke-opacity:1"
           id="path142" /><path
           d="m 504.81,300.28 4.98,-4.97"
           style="fill:none;stroke:#00bfc4;stroke-width:0.71;stroke-linecap:round;stroke-linejoin:round;stroke-miterlimit:10;stroke-dasharray:none;stroke-opacity:1"
           id="path144" /><path
           d="m 481.2,191.9 4.98,4.98"
           style="fill:none;stroke:#00bfc4;stroke-width:0.71;stroke-linecap:round;stroke-linejoin:round;stroke-miterlimit:10;stroke-dasharray:none;stroke-opacity:1"
           id="path146" /><path
           d="m 481.2,196.88 4.98,-4.98"
           style="fill:none;stroke:#00bfc4;stroke-width:0.71;stroke-linecap:round;stroke-linejoin:round;stroke-miterlimit:10;stroke-dasharray:none;stroke-opacity:1"
           id="path148" /><path
           d="m 490.11,165.9 4.97,4.97"
           style="fill:none;stroke:#00bfc4;stroke-width:0.71;stroke-linecap:round;stroke-linejoin:round;stroke-miterlimit:10;stroke-dasharray:none;stroke-opacity:1"
           id="path150" /><path
           d="m 490.11,170.87 4.97,-4.97"
           style="fill:none;stroke:#00bfc4;stroke-width:0.71;stroke-linecap:round;stroke-linejoin:round;stroke-miterlimit:10;stroke-dasharray:none;stroke-opacity:1"
           id="path152" /><path
           d="m 502.79,357.24 c 0,1.37 1.12,2.49 2.49,2.49 1.37,0 2.49,-1.12 2.49,-2.49 0,-1.37 -1.12,-2.49 -2.49,-2.49 -1.37,0 -2.49,1.12 -2.49,2.49"
           style="fill:#00bfc4;fill-opacity:1;fill-rule:nonzero;stroke:none"
           id="path154" /><path
           d="m 539.04,423.49 c 0,1.37 1.12,2.49 2.49,2.49 1.36,0 2.48,-1.12 2.48,-2.49 0,-1.37 -1.12,-2.49 -2.48,-2.49 -1.37,0 -2.49,1.12 -2.49,2.49"
           style="fill:#00bfc4;fill-opacity:1;fill-rule:nonzero;stroke:none"
           id="path156" /><path
           d="m 497.58,433.4 c 0,1.37 1.12,2.49 2.48,2.49 1.37,0 2.49,-1.12 2.49,-2.49 0,-1.37 -1.12,-2.49 -2.49,-2.49 -1.36,0 -2.48,1.12 -2.48,2.49"
           style="fill:#00bfc4;fill-opacity:1;fill-rule:nonzero;stroke:none"
           id="path158" /><path
           d="m 570.85,303.37 c 0,1.37 1.12,2.49 2.49,2.49 1.37,0 2.49,-1.12 2.49,-2.49 0,-1.37 -1.12,-2.49 -2.49,-2.49 -1.37,0 -2.49,1.12 -2.49,2.49"
           style="fill:#00bfc4;fill-opacity:1;fill-rule:nonzero;stroke:none"
           id="path160" /><path
           d="m 532.84,240.21 c 0,1.37 1.12,2.49 2.49,2.49 1.37,0 2.49,-1.12 2.49,-2.49 0,-1.37 -1.12,-2.49 -2.49,-2.49 -1.37,0 -2.49,1.12 -2.49,2.49"
           style="fill:#00bfc4;fill-opacity:1;fill-rule:nonzero;stroke:none"
           id="path162" /><path
           d="m 525.94,564.05 c 0,1.37 1.12,2.49 2.49,2.49 1.37,0 2.49,-1.12 2.49,-2.49 0,-1.37 -1.12,-2.49 -2.49,-2.49 -1.37,0 -2.49,1.12 -2.49,2.49"
           style="fill:#00bfc4;fill-opacity:1;fill-rule:nonzero;stroke:none"
           id="path164" /><path
           d="m 557.07,354.14 c 0,1.37 1.12,2.49 2.49,2.49 1.37,0 2.49,-1.12 2.49,-2.49 0,-1.37 -1.12,-2.49 -2.49,-2.49 -1.37,0 -2.49,1.12 -2.49,2.49"
           style="fill:#00bfc4;fill-opacity:1;fill-rule:nonzero;stroke:none"
           id="path166" /><path
           d="m 570.56,305.85 c 0,1.36 1.12,2.48 2.49,2.48 1.37,0 2.49,-1.12 2.49,-2.48 0,-1.37 -1.12,-2.49 -2.49,-2.49 -1.37,0 -2.49,1.12 -2.49,2.49"
           style="fill:#00bfc4;fill-opacity:1;fill-rule:nonzero;stroke:none"
           id="path168" /><path
           d="m 556.95,469.93 c 0,1.37 1.12,2.49 2.49,2.49 1.37,0 2.49,-1.12 2.49,-2.49 0,-1.37 -1.12,-2.49 -2.49,-2.49 -1.37,0 -2.49,1.12 -2.49,2.49"
           style="fill:#00bfc4;fill-opacity:1;fill-rule:nonzero;stroke:none"
           id="path170" /><path
           d="m 529.04,125.04 c 0,1.37 1.12,2.49 2.49,2.49 1.37,0 2.49,-1.12 2.49,-2.49 0,-1.37 -1.12,-2.49 -2.49,-2.49 -1.37,0 -2.49,1.12 -2.49,2.49"
           style="fill:#00bfc4;fill-opacity:1;fill-rule:nonzero;stroke:none"
           id="path172" /><path
           d="m 565.11,251.36 c 0,1.37 1.12,2.49 2.49,2.49 1.37,0 2.49,-1.12 2.49,-2.49 0,-1.37 -1.12,-2.49 -2.49,-2.49 -1.37,0 -2.49,1.12 -2.49,2.49"
           style="fill:#00bfc4;fill-opacity:1;fill-rule:nonzero;stroke:none"
           id="path174" /><path
           d="m 570.4,292.84 c 0,1.37 1.12,2.49 2.49,2.49 1.37,0 2.49,-1.12 2.49,-2.49 0,-1.37 -1.12,-2.49 -2.49,-2.49 -1.37,0 -2.49,1.12 -2.49,2.49"
           style="fill:#00bfc4;fill-opacity:1;fill-rule:nonzero;stroke:none"
           id="path176" /><path
           d="m 510.93,222.87 c 0,1.37 1.12,2.49 2.48,2.49 1.37,0 2.49,-1.12 2.49,-2.49 0,-1.36 -1.12,-2.48 -2.49,-2.48 -1.36,0 -2.48,1.12 -2.48,2.48"
           style="fill:#00bfc4;fill-opacity:1;fill-rule:nonzero;stroke:none"
           id="path178" /><path
           d="m 550.52,342.38 c 0,1.37 1.12,2.49 2.49,2.49 1.37,0 2.49,-1.12 2.49,-2.49 0,-1.37 -1.12,-2.49 -2.49,-2.49 -1.37,0 -2.49,1.12 -2.49,2.49"
           style="fill:#00bfc4;fill-opacity:1;fill-rule:nonzero;stroke:none"
           id="path180" /><path
           d="m 533.53,219.78 c 0,1.37 1.11,2.49 2.48,2.49 1.37,0 2.49,-1.12 2.49,-2.49 0,-1.37 -1.12,-2.49 -2.49,-2.49 -1.37,0 -2.48,1.12 -2.48,2.49"
           style="fill:#00bfc4;fill-opacity:1;fill-rule:nonzero;stroke:none"
           id="path182" /><path
           d="m 484.54,249.5 c 0,1.37 1.12,2.49 2.49,2.49 1.37,0 2.49,-1.12 2.49,-2.49 0,-1.37 -1.12,-2.49 -2.49,-2.49 -1.37,0 -2.49,1.12 -2.49,2.49"
           style="fill:#00bfc4;fill-opacity:1;fill-rule:nonzero;stroke:none"
           id="path184" /><path
           d="m 232.96,46.39 4.97,4.98"
           style="fill:none;stroke:#f8766d;stroke-width:0.71;stroke-linecap:round;stroke-linejoin:round;stroke-miterlimit:10;stroke-dasharray:none;stroke-opacity:1"
           id="path186" /><path
           d="m 232.96,51.37 4.97,-4.98"
           style="fill:none;stroke:#f8766d;stroke-width:0.71;stroke-linecap:round;stroke-linejoin:round;stroke-miterlimit:10;stroke-dasharray:none;stroke-opacity:1"
           id="path188" /><path
           d="m 183.05,110.17 4.98,4.98"
           style="fill:none;stroke:#f8766d;stroke-width:0.71;stroke-linecap:round;stroke-linejoin:round;stroke-miterlimit:10;stroke-dasharray:none;stroke-opacity:1"
           id="path190" /><path
           d="m 183.05,115.15 4.98,-4.98"
           style="fill:none;stroke:#f8766d;stroke-width:0.71;stroke-linecap:round;stroke-linejoin:round;stroke-miterlimit:10;stroke-dasharray:none;stroke-opacity:1"
           id="path192" /><path
           d="m 231.31,156.61 4.98,4.98"
           style="fill:none;stroke:#f8766d;stroke-width:0.71;stroke-linecap:round;stroke-linejoin:round;stroke-miterlimit:10;stroke-dasharray:none;stroke-opacity:1"
           id="path194" /><path
           d="m 231.31,161.59 4.98,-4.98"
           style="fill:none;stroke:#f8766d;stroke-width:0.71;stroke-linecap:round;stroke-linejoin:round;stroke-miterlimit:10;stroke-dasharray:none;stroke-opacity:1"
           id="path196" /><path
           d="m 258.62,300.88 4.98,4.98"
           style="fill:none;stroke:#f8766d;stroke-width:0.71;stroke-linecap:round;stroke-linejoin:round;stroke-miterlimit:10;stroke-dasharray:none;stroke-opacity:1"
           id="path198" /><path
           d="m 258.62,305.86 4.98,-4.98"
           style="fill:none;stroke:#f8766d;stroke-width:0.71;stroke-linecap:round;stroke-linejoin:round;stroke-miterlimit:10;stroke-dasharray:none;stroke-opacity:1"
           id="path200" /><path
           d="m 256.66,126.89 4.98,4.97"
           style="fill:none;stroke:#f8766d;stroke-width:0.71;stroke-linecap:round;stroke-linejoin:round;stroke-miterlimit:10;stroke-dasharray:none;stroke-opacity:1"
           id="path202" /><path
           d="m 256.66,131.86 4.98,-4.97"
           style="fill:none;stroke:#f8766d;stroke-width:0.71;stroke-linecap:round;stroke-linejoin:round;stroke-miterlimit:10;stroke-dasharray:none;stroke-opacity:1"
           id="path204" /><path
           d="m 181.56,316.36 4.97,4.98"
           style="fill:none;stroke:#f8766d;stroke-width:0.71;stroke-linecap:round;stroke-linejoin:round;stroke-miterlimit:10;stroke-dasharray:none;stroke-opacity:1"
           id="path206" /><path
           d="m 181.56,321.34 4.97,-4.98"
           style="fill:none;stroke:#f8766d;stroke-width:0.71;stroke-linecap:round;stroke-linejoin:round;stroke-miterlimit:10;stroke-dasharray:none;stroke-opacity:1"
           id="path208" /><path
           d="m 182.83,97.17 4.98,4.97"
           style="fill:none;stroke:#f8766d;stroke-width:0.71;stroke-linecap:round;stroke-linejoin:round;stroke-miterlimit:10;stroke-dasharray:none;stroke-opacity:1"
           id="path210" /><path
           d="m 182.83,102.14 4.98,-4.97"
           style="fill:none;stroke:#f8766d;stroke-width:0.71;stroke-linecap:round;stroke-linejoin:round;stroke-miterlimit:10;stroke-dasharray:none;stroke-opacity:1"
           id="path212" /><path
           d="m 220.08,180.14 4.97,4.98"
           style="fill:none;stroke:#f8766d;stroke-width:0.71;stroke-linecap:round;stroke-linejoin:round;stroke-miterlimit:10;stroke-dasharray:none;stroke-opacity:1"
           id="path214" /><path
           d="m 220.08,185.12 4.97,-4.98"
           style="fill:none;stroke:#f8766d;stroke-width:0.71;stroke-linecap:round;stroke-linejoin:round;stroke-miterlimit:10;stroke-dasharray:none;stroke-opacity:1"
           id="path216" /><path
           d="m 261.56,137.41 4.98,4.98"
           style="fill:none;stroke:#f8766d;stroke-width:0.71;stroke-linecap:round;stroke-linejoin:round;stroke-miterlimit:10;stroke-dasharray:none;stroke-opacity:1"
           id="path218" /><path
           d="m 261.56,142.39 4.98,-4.98"
           style="fill:none;stroke:#f8766d;stroke-width:0.71;stroke-linecap:round;stroke-linejoin:round;stroke-miterlimit:10;stroke-dasharray:none;stroke-opacity:1"
           id="path220" /><path
           d="m 201.96,152.28 4.98,4.97"
           style="fill:none;stroke:#f8766d;stroke-width:0.71;stroke-linecap:round;stroke-linejoin:round;stroke-miterlimit:10;stroke-dasharray:none;stroke-opacity:1"
           id="path222" /><path
           d="m 201.96,157.25 4.98,-4.97"
           style="fill:none;stroke:#f8766d;stroke-width:0.71;stroke-linecap:round;stroke-linejoin:round;stroke-miterlimit:10;stroke-dasharray:none;stroke-opacity:1"
           id="path224" /><path
           d="m 213.13,81.07 4.98,4.97"
           style="fill:none;stroke:#f8766d;stroke-width:0.71;stroke-linecap:round;stroke-linejoin:round;stroke-miterlimit:10;stroke-dasharray:none;stroke-opacity:1"
           id="path226" /><path
           d="m 213.13,86.04 4.98,-4.97"
           style="fill:none;stroke:#f8766d;stroke-width:0.71;stroke-linecap:round;stroke-linejoin:round;stroke-miterlimit:10;stroke-dasharray:none;stroke-opacity:1"
           id="path228" /><path
           d="m 198.67,128.13 4.97,4.97"
           style="fill:none;stroke:#f8766d;stroke-width:0.71;stroke-linecap:round;stroke-linejoin:round;stroke-miterlimit:10;stroke-dasharray:none;stroke-opacity:1"
           id="path230" /><path
           d="m 198.67,133.1 4.97,-4.97"
           style="fill:none;stroke:#f8766d;stroke-width:0.71;stroke-linecap:round;stroke-linejoin:round;stroke-miterlimit:10;stroke-dasharray:none;stroke-opacity:1"
           id="path232" /><path
           d="m 217.95,166.52 4.97,4.97"
           style="fill:none;stroke:#f8766d;stroke-width:0.71;stroke-linecap:round;stroke-linejoin:round;stroke-miterlimit:10;stroke-dasharray:none;stroke-opacity:1"
           id="path234" /><path
           d="m 217.95,171.49 4.97,-4.97"
           style="fill:none;stroke:#f8766d;stroke-width:0.71;stroke-linecap:round;stroke-linejoin:round;stroke-miterlimit:10;stroke-dasharray:none;stroke-opacity:1"
           id="path236" /><path
           d="m 212.3,100.88 4.97,4.98"
           style="fill:none;stroke:#f8766d;stroke-width:0.71;stroke-linecap:round;stroke-linejoin:round;stroke-miterlimit:10;stroke-dasharray:none;stroke-opacity:1"
           id="path238" /><path
           d="m 212.3,105.86 4.97,-4.98"
           style="fill:none;stroke:#f8766d;stroke-width:0.71;stroke-linecap:round;stroke-linejoin:round;stroke-miterlimit:10;stroke-dasharray:none;stroke-opacity:1"
           id="path240" /><path
           d="m 253.29,43.3 4.98,4.97"
           style="fill:none;stroke:#f8766d;stroke-width:0.71;stroke-linecap:round;stroke-linejoin:round;stroke-miterlimit:10;stroke-dasharray:none;stroke-opacity:1"
           id="path242" /><path
           d="m 253.29,48.27 4.98,-4.97"
           style="fill:none;stroke:#f8766d;stroke-width:0.71;stroke-linecap:round;stroke-linejoin:round;stroke-miterlimit:10;stroke-dasharray:none;stroke-opacity:1"
           id="path244" /><path
           d="m 251.23,102.12 4.97,4.98"
           style="fill:none;stroke:#f8766d;stroke-width:0.71;stroke-linecap:round;stroke-linejoin:round;stroke-miterlimit:10;stroke-dasharray:none;stroke-opacity:1"
           id="path246" /><path
           d="m 251.23,107.1 4.97,-4.98"
           style="fill:none;stroke:#f8766d;stroke-width:0.71;stroke-linecap:round;stroke-linejoin:round;stroke-miterlimit:10;stroke-dasharray:none;stroke-opacity:1"
           id="path248" /><path
           d="m 165.21,164.05 v 29.1"
           style="fill:none;stroke:#333333;stroke-width:1.07;stroke-linecap:butt;stroke-linejoin:round;stroke-miterlimit:10;stroke-dasharray:none;stroke-opacity:1"
           id="path250" /><path
           d="M 165.21,115.29 V 45.79"
           style="fill:none;stroke:#333333;stroke-width:1.07;stroke-linecap:butt;stroke-linejoin:round;stroke-miterlimit:10;stroke-dasharray:none;stroke-opacity:1"
           id="path252" /><path
           d="m 150.07,164.05 v -48.76 h 30.29 v 48.76 z"
           style="fill:#f8766d;fill-opacity:1;fill-rule:nonzero;stroke:#333333;stroke-width:1.07;stroke-linecap:round;stroke-linejoin:round;stroke-miterlimit:10;stroke-dasharray:none;stroke-opacity:1"
           id="path254" /><path
           d="m 150.07,135.26 h 30.29"
           style="fill:none;stroke:#333333;stroke-width:2.13;stroke-linecap:butt;stroke-linejoin:round;stroke-miterlimit:10;stroke-dasharray:none;stroke-opacity:1"
           id="path256" /><path
           d="M 468.08,351.2 V 469.93"
           style="fill:none;stroke:#333333;stroke-width:1.07;stroke-linecap:butt;stroke-linejoin:round;stroke-miterlimit:10;stroke-dasharray:none;stroke-opacity:1"
           id="path258" /><path
           d="M 468.08,222.87 V 94.7"
           style="fill:none;stroke:#333333;stroke-width:1.07;stroke-linecap:butt;stroke-linejoin:round;stroke-miterlimit:10;stroke-dasharray:none;stroke-opacity:1"
           id="path260" /><path
           d="M 452.94,351.2 V 222.87 h 30.29 V 351.2 Z"
           style="fill:#00bfc4;fill-opacity:1;fill-rule:nonzero;stroke:#333333;stroke-width:1.07;stroke-linecap:round;stroke-linejoin:round;stroke-miterlimit:10;stroke-dasharray:none;stroke-opacity:1"
           id="path262" /><path
           d="m 452.94,292.53 h 30.29"
           style="fill:none;stroke:#333333;stroke-width:2.13;stroke-linecap:butt;stroke-linejoin:round;stroke-miterlimit:10;stroke-dasharray:none;stroke-opacity:1"
           id="path264" /></g></g><g
       id="g266" /><g
       id="g268" /><g
       id="g270" /><g
       id="g272" /><g
       id="g274" /><g
       id="g276" /><g
       id="g278" /><g
       id="g280" /><g
       id="g282" /><g
       id="g284" /><g
       id="g286" /><g
       id="g288" /><g
       id="g290" /><g
       id="g292" /><g
       id="g294" /><g
       id="g296"><text
         transform="matrix(1,0,0,-1,24.12,23.36)"
         style="font-variant:normal;font-weight:normal;font-size:9px;font-family:Helvetica;-inkscape-font-specification:Helvetica;writing-mode:lr-tb;fill:#4d4d4d;fill-opacity:1;fill-rule:nonzero;stroke:none"
         id="text300"><tspan
           x="0 5.0040002 10.008"
           y="0"
           sodipodi:role="line"
           id="tspan298">200</tspan></text><text
         transform="matrix(1,0,0,-1,24.12,147.2)"
         style="font-variant:normal;font-weight:normal;font-size:9px;font-family:Helvetica;-inkscape-font-specification:Helvetica;writing-mode:lr-tb;fill:#4d4d4d;fill-opacity:1;fill-rule:nonzero;stroke:none"
         id="text304"><tspan
           x="0 5.0040002 10.008"
           y="0"
           sodipodi:role="line"
           id="tspan302">400</tspan></text><text
         transform="matrix(1,0,0,-1,24.12,271.04)"
         style="font-variant:normal;font-weight:normal;font-size:9px;font-family:Helvetica;-inkscape-font-specification:Helvetica;writing-mode:lr-tb;fill:#4d4d4d;fill-opacity:1;fill-rule:nonzero;stroke:none"
         id="text308"><tspan
           x="0 5.0040002 10.008"
           y="0"
           sodipodi:role="line"
           id="tspan306">600</tspan></text><text
         transform="matrix(1,0,0,-1,24.12,394.87)"
         style="font-variant:normal;font-weight:normal;font-size:9px;font-family:Helvetica;-inkscape-font-specification:Helvetica;writing-mode:lr-tb;fill:#4d4d4d;fill-opacity:1;fill-rule:nonzero;stroke:none"
         id="text312"><tspan
           x="0 5.0040002 10.008"
           y="0"
           sodipodi:role="line"
           id="tspan310">800</tspan></text><text
         transform="matrix(1,0,0,-1,19.12,518.71)"
         style="font-variant:normal;font-weight:normal;font-size:9px;font-family:Helvetica;-inkscape-font-specification:Helvetica;writing-mode:lr-tb;fill:#4d4d4d;fill-opacity:1;fill-rule:nonzero;stroke:none"
         id="text316"><tspan
           x="0 5.0040002 10.008 15.012"
           y="0"
           sodipodi:role="line"
           id="tspan314">1000</tspan></text></g><g
       id="g318" /><g
       id="g320"><path
         d="m 41.32,26.59 h 2.74"
         style="fill:none;stroke:#333333;stroke-width:1.07;stroke-linecap:butt;stroke-linejoin:round;stroke-miterlimit:10;stroke-dasharray:none;stroke-opacity:1"
         id="path322" /><path
         d="m 41.32,150.43 h 2.74"
         style="fill:none;stroke:#333333;stroke-width:1.07;stroke-linecap:butt;stroke-linejoin:round;stroke-miterlimit:10;stroke-dasharray:none;stroke-opacity:1"
         id="path324" /><path
         d="m 41.32,274.27 h 2.74"
         style="fill:none;stroke:#333333;stroke-width:1.07;stroke-linecap:butt;stroke-linejoin:round;stroke-miterlimit:10;stroke-dasharray:none;stroke-opacity:1"
         id="path326" /><path
         d="m 41.32,398.1 h 2.74"
         style="fill:none;stroke:#333333;stroke-width:1.07;stroke-linecap:butt;stroke-linejoin:round;stroke-miterlimit:10;stroke-dasharray:none;stroke-opacity:1"
         id="path328" /><path
         d="m 41.32,521.94 h 2.74"
         style="fill:none;stroke:#333333;stroke-width:1.07;stroke-linecap:butt;stroke-linejoin:round;stroke-miterlimit:10;stroke-dasharray:none;stroke-opacity:1"
         id="path330" /></g><g
       id="g332" /><g
       id="g334" /><g
       id="g336" /><g
       id="g338" /><g
       id="g340" /><g
       id="g342" /><g
       id="g344" /><g
       id="g346" /><g
       id="g348" /><g
       id="g350"><path
         d="m 225.79,17.13 v 2.74"
         style="fill:none;stroke:#333333;stroke-width:1.07;stroke-linecap:butt;stroke-linejoin:round;stroke-miterlimit:10;stroke-dasharray:none;stroke-opacity:1"
         id="path352" /><path
         d="m 528.66,17.13 v 2.74"
         style="fill:none;stroke:#333333;stroke-width:1.07;stroke-linecap:butt;stroke-linejoin:round;stroke-miterlimit:10;stroke-dasharray:none;stroke-opacity:1"
         id="path354" /></g><g
       id="g356" /><g
       id="g358"><text
         transform="scale(1,-1)"
         style="font-variant:normal;font-weight:normal;font-size:30px;font-family:Helvetica;-inkscape-font-specification:Helvetica;writing-mode:lr-tb;fill:#4d4d4d;fill-opacity:1;fill-rule:nonzero;stroke:none"
         id="text362"
         x="172.5251"
         y="12.001683"><tspan
           x="172.5251"
           y="12.001683"
           sodipodi:role="line"
           id="tspan360">Dynamic</tspan></text><text
         transform="scale(1,-1)"
         style="font-variant:normal;font-weight:normal;font-size:30px;font-family:Helvetica;-inkscape-font-specification:Helvetica;writing-mode:lr-tb;fill:#4d4d4d;fill-opacity:1;fill-rule:nonzero;stroke:none"
         id="text366"
         x="431.74472"
         y="10.760371"><tspan
           x="431.74472"
           y="10.760371"
           sodipodi:role="line"
           id="tspan364">NonAmbiguous</tspan></text></g><g
       id="g368" /><g
       id="g370" /><g
       id="g372" /><g
       id="g374" /><g
       id="g376" /><g
       id="g378" /><g
       id="g380" /><g
       id="g382"><text
         transform="matrix(0,1,1,0,0,0)"
         style="font-variant:normal;font-weight:normal;font-size:30px;font-family:Helvetica;-inkscape-font-specification:Helvetica;writing-mode:lr-tb;fill:#000000;fill-opacity:1;fill-rule:nonzero;stroke:none"
         id="text386"
         x="185.30215"
         y="-2.4150033"><tspan
           x="185.30215"
           y="-2.4150033"
           sodipodi:role="line"
           id="tspan384"
           style="font-size:30px">Total Time Taken (s)</tspan></text></g><g
       id="g388" /><g
       id="g390" /><g
       id="g392" /><g
       id="g394" /><g
       id="g396" /><g
       id="g398" /><g
       id="g400" /><g
       id="g406" /><g
       id="g408" /><g
       id="g410" /><g
       id="g418" /><g
       id="g420" /><g
       id="g426" /><g
       id="g432" /><g
       id="g438" /><g
       id="g444" /><g
       id="g450" /><g
       id="g456" /><g
       id="g458" /><g
       id="g460" /><g
       id="g468" /><g
       id="g470" /><g
       id="g472" /><g
       id="g474" /><g
       id="g482" /><g
       id="g484" /><g
       id="g486" /><g
       id="g488" /><g
       id="g494" /><g
       id="g496" /><g
       id="g498" /><g
       id="g506" /><g
       id="g508" /><g
       id="g514" /><g
       id="g520" /><g
       id="g526" /><g
       id="g534" /><g
       id="g536" /><g
       id="g538" /><g
       id="g546" /><g
       id="g548" /><g
       id="g550" /><g
       id="g552" /><g
       id="g560" /><g
       id="g562" /><g
       id="g564" /><g
       id="g566" /><g
       id="g568" /><g
       id="g570" /><g
       id="g572" /><g
       id="g574" /><g
       id="g576" /><g
       id="g578" /><g
       id="g580" /><g
       id="g582" /><g
       id="g584" /></g></svg>
