<?xml version="1.0" encoding="UTF-8" standalone="no"?>
<!-- Created with Inkscape (http://www.inkscape.org/) -->

<svg
   xmlns:dc="http://purl.org/dc/elements/1.1/"
   xmlns:cc="http://creativecommons.org/ns#"
   xmlns:rdf="http://www.w3.org/1999/02/22-rdf-syntax-ns#"
   xmlns:svg="http://www.w3.org/2000/svg"
   xmlns="http://www.w3.org/2000/svg"
   xmlns:sodipodi="http://sodipodi.sourceforge.net/DTD/sodipodi-0.dtd"
   xmlns:inkscape="http://www.inkscape.org/namespaces/inkscape"
   width="79.125153mm"
   height="15.786197mm"
   viewBox="0 0 280.36472 55.935343"
   id="svg4789"
   version="1.1"
   inkscape:version="0.91 r13725"
   sodipodi:docname="logo-epfl.svg">
  <defs
     id="defs4791" />
  <sodipodi:namedview
     id="base"
     pagecolor="#ffffff"
     bordercolor="#666666"
     borderopacity="1.0"
     inkscape:pageopacity="0.0"
     inkscape:pageshadow="2"
     inkscape:zoom="1.4"
     inkscape:cx="94.204442"
     inkscape:cy="-47.646277"
     inkscape:document-units="px"
     inkscape:current-layer="layer1"
     showgrid="false"
     fit-margin-top="0"
     fit-margin-left="0"
     fit-margin-right="0"
     fit-margin-bottom="0"
     inkscape:window-width="1920"
     inkscape:window-height="1025"
     inkscape:window-x="0"
     inkscape:window-y="867"
     inkscape:window-maximized="1" />
  <metadata
     id="metadata4794">
    <rdf:RDF>
      <cc:Work
         rdf:about="">
        <dc:format>image/svg+xml</dc:format>
        <dc:type
           rdf:resource="http://purl.org/dc/dcmitype/StillImage" />
        <dc:title></dc:title>
      </cc:Work>
    </rdf:RDF>
  </metadata>
  <g
     inkscape:label="Layer 1"
     inkscape:groupmode="layer"
     id="layer1"
     transform="translate(-136.8337,-511.27803)">
    <path
       style="fill:#4e5054;fill-opacity:1"
       d="m 141.07855,561.77807 c -1.56221,-0.41323 -2.70923,-1.42041 -3.24585,-2.8501 -0.49422,-1.31675 -0.68017,-10.26327 -0.22124,-10.64415 0.2015,-0.16723 0.81173,-0.23367 1.78583,-0.19445 l 1.47973,0.0596 0.10077,4.64483 c 0.0874,4.02699 0.14908,4.71847 0.46398,5.1984 0.71101,1.08362 2.26591,1.18839 3.18172,0.21439 0.47947,-0.50995 0.48645,-0.57474 0.54709,-5.0782 0.0395,-2.93374 0.14055,-4.65701 0.28315,-4.82884 0.15715,-0.18936 0.66754,-0.2502 1.75235,-0.20888 l 1.53062,0.0583 0,5.03824 c 0,4.90854 -0.0123,5.06162 -0.47693,5.94515 -0.65771,1.25067 -0.98076,1.57744 -2.14129,2.16593 -0.79107,0.40115 -1.37229,0.52397 -2.72065,0.57492 -0.94308,0.0356 -1.98675,-0.007 -2.31928,-0.0951 z m 64.16669,2.1e-4 c -1.16215,-0.24735 -2.51029,-1.1447 -2.87528,-1.91384 -0.18069,-0.3807 -0.32852,-1.06395 -0.32852,-1.51828 l 0,-0.82604 1.61225,0 c 0.9872,0 1.61224,0.0817 1.61224,0.21069 0,0.11588 0.2226,0.43329 0.49466,0.70536 0.65575,0.65575 2.31534,0.7076 2.93135,0.0916 0.45198,-0.45198 0.49014,-0.66991 0.20924,-1.19479 -0.2368,-0.44245 -0.88711,-0.71029 -2.72837,-1.12372 -2.70254,-0.60684 -3.72779,-1.42807 -3.99639,-3.20118 -0.33582,-2.2169 0.9764,-4.22784 3.17428,-4.86441 1.62952,-0.47198 3.7912,-0.33089 5.09787,0.33272 1.08522,0.55114 1.87091,1.7857 1.87091,2.93976 l 0,0.66265 -1.66262,-10e-4 c -1.63524,-10e-4 -1.66828,-0.0112 -2.00593,-0.60459 -0.65422,-1.14978 -2.98195,-0.75037 -2.98195,0.5116 0,0.68006 0.39678,0.88653 2.52704,1.31506 3.41825,0.68763 4.325,1.56413 4.325,4.18073 0,1.95922 -0.55545,2.96736 -2.05982,3.73862 -0.91203,0.46758 -1.43693,0.58816 -2.80591,0.64453 -0.92621,0.0382 -2.01072,-1.9e-4 -2.41005,-0.0852 z m -54.9022,-0.27112 c -0.0553,-0.14414 -0.0766,-3.20873 -0.0473,-6.81018 l 0.0532,-6.54802 1.81377,0 1.81377,0 2.21684,3.57429 c 1.21925,1.96585 2.28276,3.57558 2.36333,3.57715 0.0806,0.002 0.17126,-1.60684 0.20153,-3.57428 l 0.0551,-3.57716 1.61224,0 1.61224,0 0.0532,6.63687 c 0.0415,5.17553 -0.003,6.67247 -0.20152,6.79855 -0.1401,0.0889 -0.9149,0.16308 -1.72178,0.16478 l -1.46706,0.003 -1.27268,-1.96491 c -0.69999,-1.08071 -1.80824,-2.78113 -2.46279,-3.77869 l -1.19009,-1.81377 -0.10076,3.7283 -0.10077,3.72831 -1.56491,0.0589 c -1.14225,0.043 -1.59208,-0.0118 -1.66548,-0.20316 z m 13.30086,-4e-4 c -0.0552,-0.14396 -0.0765,-3.20839 -0.0472,-6.80985 l 0.0532,-6.54795 1.71301,0 1.71301,0 0,6.75127 0,6.75126 -1.6658,0.0585 c -1.22366,0.043 -1.69247,-0.0109 -1.76625,-0.20316 z m 8.41144,0.074 c -0.28612,-0.18152 -4.07048,-12.3447 -4.07173,-13.0868 -6e-4,-0.45132 0.0384,-0.45979 1.86338,-0.40305 l 1.86416,0.0579 1.02817,4.08471 c 0.5655,2.2466 1.07384,4.13038 1.12964,4.18618 0.0558,0.0558 0.48275,-1.28352 0.94878,-2.9763 0.46602,-1.69277 1.0006,-3.57655 1.18795,-4.18618 l 0.34066,-1.10841 1.76338,-0.0582 c 1.72013,-0.0568 1.76338,-0.047 1.76338,0.40301 0,0.53137 -3.98386,12.62714 -4.28385,13.0066 -0.22603,0.28591 -3.10673,0.35156 -3.53392,0.0805 z m 8.86954,-0.0666 c -0.34939,-0.34925 -0.353,-12.87484 -0.003,-13.22404 0.37861,-0.37862 8.29425,-0.33867 8.61138,0.0434 0.13965,0.16826 0.21177,0.76761 0.17583,1.4611 l -0.0609,1.17579 -2.61989,0.10078 -2.61989,0.10076 -0.0609,1.05803 -0.0609,1.05803 2.22352,0 c 2.53923,0 2.51802,-0.0171 2.39491,1.9279 l -0.063,0.9943 -2.27707,0.0571 -2.27707,0.0571 0.0602,1.1521 0.0602,1.1521 2.77975,0.0562 2.77976,0.0562 -0.0591,1.45535 -0.0591,1.45535 -4.33917,0.0543 c -3.20543,0.04 -4.40335,-0.01 -4.58481,-0.19146 z m 10.32866,-0.007 c -0.0552,-0.14396 -0.0765,-3.2084 -0.0472,-6.80985 l 0.0532,-6.54795 2.81121,-0.0564 c 1.5796,-0.0316 3.30128,0.0453 3.92984,0.17559 3.28509,0.6811 4.34228,5.02459 1.80103,7.3996 l -0.62795,0.58687 1.23234,2.31424 c 0.67778,1.27284 1.23234,2.51332 1.23234,2.75664 0,0.42621 -0.0645,0.44025 -1.7634,0.38414 l -1.76338,-0.0582 -1.26584,-2.46874 c -0.96021,-1.87269 -1.36014,-2.46875 -1.65643,-2.46875 -0.36208,0 -0.3947,0.1801 -0.44717,2.46875 l -0.0566,2.46874 -1.6658,0.0585 c -1.22365,0.043 -1.69246,-0.0109 -1.76624,-0.20316 z m 5.77254,-7.82811 c 0.5919,-0.31678 0.85042,-1.15277 0.56762,-1.83551 -0.24337,-0.58755 -1.13003,-0.97026 -2.25314,-0.97255 l -0.5542,-10e-4 0,1.51148 0,1.51147 0.92013,0 c 0.50607,0 1.09989,-0.0962 1.31959,-0.21378 z m 16.95356,7.83923 c -0.38897,-0.38897 -0.35661,-12.92848 0.0342,-13.25283 0.17587,-0.14596 0.84593,-0.21277 1.7634,-0.17582 l 1.47973,0.0597 0,6.75125 0,6.75126 -1.51394,0.058 c -1.00456,0.0384 -1.59788,-0.026 -1.7634,-0.19145 z m 8.11192,-0.009 c -0.0532,-0.14311 -0.11989,-2.52752 -0.1481,-5.29857 l -0.0513,-5.03825 -1.713,-0.10076 -1.71301,-0.10077 -0.0592,-1.2276 c -0.042,-0.87198 0.0236,-1.29627 0.22649,-1.46467 0.20611,-0.17107 1.68154,-0.22205 5.29895,-0.18312 l 5.0133,0.054 0,1.41071 0,1.41071 -1.713,0.10077 -1.71301,0.10076 -0.10077,5.23979 -0.10075,5.23979 -1.56493,0.059 c -1.13862,0.0429 -1.59127,-0.012 -1.66171,-0.20153 z m 11.83958,0.009 c -0.16747,-0.16733 -0.24945,-0.96517 -0.24945,-2.42775 l 0,-2.17844 -2.0153,-4.02678 c -1.10842,-2.21471 -2.0153,-4.209 -2.0153,-4.43173 0,-0.37521 0.13152,-0.40499 1.78909,-0.40499 1.1875,0 1.85809,0.0847 1.99427,0.25192 0.11285,0.13855 0.6337,1.27631 1.15745,2.52835 0.52376,1.25205 0.98402,2.2447 1.02282,2.20591 0.0388,-0.0388 0.61488,-1.17657 1.28017,-2.52837 l 1.20961,-2.45781 1.71844,0 c 1.39795,0 1.71843,0.0567 1.71843,0.30422 0,0.16731 -0.92956,2.13979 -2.06569,4.38328 l -2.06568,4.07907 -0.10077,2.41836 -0.10077,2.41836 -1.51393,0.0581 c -1.00456,0.0384 -1.59787,-0.026 -1.76339,-0.19146 z m -47.16115,-15.4842 c -1.97791,-0.42029 -3.57899,-1.70314 -4.52067,-3.62213 -0.37878,-0.7719 -0.44911,-1.25582 -0.45485,-3.12991 -0.006,-1.981 0.0492,-2.33475 0.51974,-3.32524 0.65989,-1.38909 1.74111,-2.46662 3.18812,-3.17726 1.00629,-0.4942 1.34036,-0.55103 3.23812,-0.5509 1.85782,1.5e-4 2.25246,0.0641 3.23368,0.52421 2.55862,1.19972 3.65278,2.9193 3.78529,5.94896 0.14388,3.28985 -0.94806,5.43714 -3.39901,6.68419 -1.09441,0.55683 -1.57589,0.67609 -3.01537,0.74694 -0.94216,0.0464 -2.10093,0.002 -2.57505,-0.0989 z m 3.74886,-3.56833 c 2.13999,-1.58495 2.12458,-4.9949 -0.0298,-6.59119 -0.42505,-0.31494 -0.86738,-0.42159 -1.74861,-0.42159 -1.26889,0 -1.91898,0.33047 -2.69515,1.37007 -0.44261,0.59283 -0.66914,2.45668 -0.44427,3.65534 0.16075,0.85689 0.98562,1.88131 1.81948,2.25966 0.81998,0.37204 2.41799,0.2316 3.09835,-0.27229 z m 10.01111,3.59338 c -1.62238,-0.42917 -2.90527,-1.63761 -3.31282,-3.12058 -0.15048,-0.54758 -0.20947,-2.50024 -0.17134,-5.67181 l 0.0581,-4.83672 1.61224,0 1.61224,0 0.10077,4.67136 c 0.0931,4.31541 0.13241,4.71372 0.51608,5.22708 0.5654,0.7565 1.34979,0.99199 2.32803,0.6989 1.30196,-0.39008 1.38803,-0.75133 1.38803,-5.8267 0,-3.55307 0.0556,-4.46513 0.28364,-4.65441 0.17587,-0.14595 0.84594,-0.21277 1.76339,-0.17582 l 1.47974,0.0596 0.0626,4.43366 c 0.0388,2.74965 -0.0228,4.82988 -0.16227,5.47682 -0.51715,2.3989 -2.3087,3.70302 -5.23922,3.81377 -0.94307,0.0356 -1.98674,-0.007 -2.31927,-0.0951 z m -62.88333,-0.27085 c -0.0553,-0.14414 -0.0766,-3.20872 -0.0473,-6.81017 l 0.0532,-6.54809 2.61762,-0.0568 c 1.4397,-0.0312 3.0721,0.0403 3.62755,0.15893 2.27749,0.48642 3.40019,1.91298 3.40891,4.3315 0.0101,2.77648 -1.41532,4.14391 -4.51381,4.33046 l -1.71426,0.10321 -0.10076,2.31759 -0.10077,2.3176 -1.56491,0.0589 c -1.14225,0.043 -1.59207,-0.0118 -1.66548,-0.20317 z m 5.74952,-7.81618 c 0.56486,-0.56486 0.51904,-1.51459 -0.10308,-2.13671 -0.41018,-0.41017 -0.66809,-0.49441 -1.36033,-0.44428 l -0.85419,0.0619 -0.0592,1.4611 -0.0592,1.46109 1.01648,0 c 0.74777,0 1.12302,-0.10655 1.41954,-0.40306 z m 5.13144,7.81185 c -0.0544,-0.14176 -0.0749,-3.20439 -0.0457,-6.80584 l 0.0532,-6.54809 1.61224,0 1.61225,0 0.10077,5.13902 0.10076,5.13902 2.41836,0.10075 2.41836,0.10078 0,1.51147 0,1.51148 -4.0857,0.0545 c -3.17201,0.0423 -4.10782,-0.003 -4.18461,-0.20317 z m 10.52848,0.12273 c -0.0782,-0.0781 -0.14209,-1.12537 -0.14209,-2.32716 l 0,-2.18507 -2.11607,-4.22848 c -1.16384,-2.32566 -2.11607,-4.36532 -2.11607,-4.53259 0,-0.24857 0.33052,-0.30413 1.80913,-0.30413 2.12109,0 1.93323,-0.1698 3.23301,2.92219 0.46594,1.10841 0.8812,2.05188 0.92279,2.09658 0.0415,0.0447 0.58225,-0.99695 1.20148,-2.31483 0.61923,-1.31786 1.23258,-2.46399 1.36301,-2.54694 0.13043,-0.083 0.93998,-0.15222 1.799,-0.15392 1.25971,-0.003 1.56186,0.0558 1.56186,0.30113 0,0.16732 -0.92955,2.1398 -2.06567,4.38329 l -2.06569,4.07906 -0.10077,2.41836 -0.10076,2.41837 -1.52054,0.0581 c -0.8363,0.032 -1.58448,-0.006 -1.66262,-0.084 z m 7.06726,-0.12529 c -0.18435,-0.52265 1.42056,-13.10377 1.69367,-13.27694 0.32811,-0.20802 3.2032,-0.22516 3.51731,-0.021 0.12528,0.0814 0.65761,1.64442 1.18298,3.47331 0.52536,1.82889 1.03502,3.4114 1.13256,3.5167 0.0976,0.1053 0.17736,0.13152 0.17736,0.0583 0,-0.34106 2.07691,-6.72845 2.26005,-6.95061 0.13606,-0.16504 0.79131,-0.2519 1.90032,-0.2519 1.56691,0 1.7062,0.0336 1.87516,0.45343 0.23487,0.58353 1.46206,12.81975 1.31033,13.06525 -0.16473,0.26654 -3.26147,0.23389 -3.42836,-0.0361 -0.0753,-0.12182 -0.22885,-1.6862 -0.34124,-3.47639 -0.11239,-1.79018 -0.26171,-3.3199 -0.33183,-3.39935 -0.0701,-0.0794 -0.52621,1.32622 -1.01355,3.12372 -0.48733,1.7975 -0.9651,3.42688 -1.06173,3.62085 -0.14027,0.28161 -0.43924,0.35269 -1.48352,0.35269 -1.54767,0 -1.33577,0.34513 -2.41274,-3.92984 -0.41886,-1.66263 -0.82334,-3.0943 -0.89886,-3.18151 -0.0755,-0.0872 -0.24833,1.40723 -0.38404,3.32097 -0.15751,2.22104 -0.33341,3.53461 -0.48635,3.63186 -0.41695,0.26511 -3.10871,0.18673 -3.20752,-0.0934 z m 46.89936,0.009 c -0.0532,-0.14324 -0.11989,-2.52766 -0.14809,-5.2987 l -0.0513,-5.03825 -1.71301,-0.10077 -1.71301,-0.10076 0,-1.41071 0,-1.41071 5.13903,0 5.13902,0 0.059,1.4528 0.059,1.4528 -1.67128,0.0587 -1.6713,0.0587 -0.10076,5.23979 -0.10077,5.23979 -1.5649,0.0589 c -1.13864,0.0429 -1.59129,-0.012 -1.66173,-0.20153 z m 8.05733,-0.002 c -0.0552,-0.14397 -0.0765,-3.2084 -0.0472,-6.80984 l 0.0532,-6.54806 1.71301,0 1.71301,0 0.0564,2.56952 0.0564,2.56951 2.20479,0 2.20479,0 0.0564,-2.56951 0.0564,-2.56952 1.71301,0 1.713,0 0,6.75127 0,6.75127 -1.713,0 -1.71301,0 -0.0563,-2.67029 -0.0563,-2.67027 -2.20513,0 -2.20513,0 -0.0563,2.67027 -0.0562,2.67029 -1.6658,0.0585 c -1.22366,0.043 -1.69247,-0.0109 -1.76625,-0.20316 z m -81.07934,-15.73953 c -0.28859,-0.34767 -3.28937,-12.85681 -3.16311,-13.18581 0.0666,-0.17341 0.60252,-0.25269 1.70844,-0.25269 1.33831,0 1.64399,0.0607 1.8033,0.35842 0.1055,0.19713 0.49104,1.87341 0.85675,3.72507 0.36571,1.85165 0.72262,3.3001 0.79313,3.21874 0.0705,-0.0814 0.41818,-1.55358 0.77262,-3.27162 0.89488,-4.33781 0.69456,-4.03061 2.62823,-4.03061 1.33028,0 1.64052,0.0612 1.7885,0.35268 0.0985,0.19397 0.47852,1.88056 0.84457,3.74797 0.36606,1.86741 0.72926,3.27309 0.80712,3.12372 0.0779,-0.14937 0.43969,-1.72259 0.8041,-3.49606 0.3644,-1.77346 0.75113,-3.33785 0.8594,-3.4764 0.23386,-0.29925 3.28481,-0.35448 3.46514,-0.0627 0.16936,0.27405 -3.09627,13.17571 -3.38081,13.35664 -0.4106,0.26109 -3.29241,0.1843 -3.51688,-0.0937 -0.11186,-0.13855 -0.49232,-1.56689 -0.84545,-3.1741 -0.74724,-3.40089 -0.82216,-3.68682 -0.93624,-3.57276 -0.0469,0.0469 -0.40139,1.51816 -0.78789,3.26962 -0.38651,1.75144 -0.80445,3.30701 -0.92877,3.4568 -0.30962,0.37308 -3.26352,0.37874 -3.57215,0.007 z m 14.97756,0.0205 c -0.0553,-0.14414 -0.0766,-3.20873 -0.0473,-6.81017 l 0.0532,-6.54805 1.61224,0 1.61224,0 0,6.75127 0,6.75126 -1.56491,0.059 c -1.14225,0.043 -1.59208,-0.0118 -1.66548,-0.20317 z m 8.06168,-0.007 c -0.0514,-0.13855 -0.11661,-2.51912 -0.14482,-5.29016 l -0.0513,-5.03821 -1.67128,-0.0587 -1.67129,-0.0587 0.059,-1.4528 0.059,-1.4528 5.13902,0 5.13902,0 0.0592,1.46108 0.0592,1.4611 -1.72184,0 -1.72183,0 0,5.09871 c 0,3.69696 -0.0665,5.1652 -0.24184,5.34056 -0.33521,0.33521 -3.16537,0.32654 -3.29036,-0.0101 z m 8.21532,0.0177 c -0.38898,-0.38898 -0.35661,-12.92848 0.0342,-13.25283 0.17587,-0.14596 0.84594,-0.21277 1.76339,-0.17582 l 1.47974,0.0596 0.0564,2.57606 0.0564,2.57604 2.26115,-0.0569 2.26114,-0.0569 0.10077,-2.51914 0.10076,-2.51912 1.61224,0 1.61225,0 0,6.75126 0,6.75127 -1.61225,0 -1.61224,0 -0.10076,-2.6199 -0.10077,-2.61989 -2.26132,-0.0569 -2.26132,-0.0569 -0.0562,2.67682 -0.0562,2.67683 -1.51394,0.058 c -1.00455,0.0384 -1.59787,-0.026 -1.76339,-0.19146 z"
       id="path5403"
       inkscape:connector-curvature="0" />
    <g
       transform="matrix(0.10712045,0,0,0.10712045,365.08088,412.12905)"
       id="layer1-9"
       inkscape:label="Layer 1">
      <g
         id="g5539"
         transform="translate(-99.868739,1312.5042)">
        <path
           inkscape:connector-curvature="0"
           id="path5541"
           d="m 356.59863,134.70412 c -5.44316,-0.63405 -9.08918,-2.6398 -10.81266,-5.94827 -1.19079,-2.28591 -1.31119,-3.58592 -1.31119,-14.15828 0,-13.8963 0.52444,-15.574179 5.70139,-18.240806 2.98812,-1.539162 3.46445,-1.585771 18.09329,-1.770275 17.09498,-0.215615 20.78876,0.260726 24.01969,3.097529 2.15218,1.889633 3.47006,5.704782 3.47006,10.045492 l 0,1.87958 -6.09136,-0.1801 -6.09136,-0.1801 -0.48915,-1.83414 c -0.26902,-1.00877 -0.85511,-2.06631 -1.3024,-2.35007 -0.44729,-0.28377 -5.43649,-0.52028 -11.08709,-0.52558 l -10.27383,-0.01 -1.83936,1.83937 c -1.80211,1.80211 -1.83937,1.97477 -1.83937,8.52357 0,6.2578 0.0985,6.78273 1.54454,8.22874 1.51906,1.51907 1.72145,1.54454 12.27051,1.54454 9.88696,0 10.82441,-0.0984 11.98448,-1.25851 0.69218,-0.69218 1.25851,-1.97669 1.25851,-2.85444 l 0,-1.59593 6.13526,0.1801 6.13525,0.1801 -0.11153,3.96351 c -0.20569,7.30986 -3.11369,10.33983 -11.02097,11.48322 -4.69913,0.67949 -22.31576,0.64244 -28.34271,-0.0596 z m 59.05889,0.005 c -5.24814,-0.82227 -8.7445,-3.05167 -10.55633,-6.73098 -1.42457,-2.89288 -1.47627,-3.52672 -1.47627,-18.10002 l 0,-15.102167 6.13526,-0.180099 6.13525,-0.1801 0,13.580406 c 0,17.73648 -0.80858,16.6776 12.71385,16.64948 6.572,-0.0136 9.94144,-0.26315 10.62319,-0.78657 2.21239,-1.69863 2.46249,-3.37002 2.46249,-16.45661 l 0,-12.941135 5.97794,0 5.97794,0 0,14.871845 c 0,9.52989 -0.26428,15.75393 -0.73575,17.32755 -0.89242,2.97864 -4.56476,6.45774 -7.87199,7.45776 -3.06029,0.92536 -24.49978,1.35636 -29.38558,0.59076 z m -362.843286,-20.11158 0,-20.136215 9.388192,0 9.388191,0 6.755311,12.585135 c 3.715422,6.92183 6.934052,12.58514 7.152511,12.58514 0.218459,0 3.411478,-5.59252 7.095594,-12.42782 l 6.698395,-12.427827 9.482262,-0.173706 9.48226,-0.1737 0,20.152603 0,20.15261 -5.96613,0 -5.96613,0 -0.16913,-14.28817 -0.16912,-14.28819 -7.872169,14.13087 -7.872167,14.13086 -4.71297,0.15374 -4.71297,0.15375 -7.865711,-14.23872 -7.86571,-14.23871 -0.169126,14.24228 -0.169131,14.24229 -5.966125,0 -5.966127,0 z m 71.864036,16.20337 c 1.15539,-2.16307 6.05038,-11.22437 10.87775,-20.13622 l 8.77703,-16.203365 7.88929,0 7.88928,0 10.85014,19.742765 c 5.96757,10.85852 10.85013,19.91982 10.85013,20.13622 0,0.2164 -2.94621,0.39345 -6.54713,0.39345 l -6.54713,0 -1.95322,-3.46091 -1.95322,-3.46091 -12.58659,0 -12.5866,0 -1.69738,3.46091 -1.6974,3.46091 -6.83283,0 -6.83283,0 z M 159.7879,118.617 c 0,-0.63767 -7.21135,-14.07296 -7.55109,-14.06824 -0.3313,0.004 -7.55108,13.48332 -7.55108,14.09724 0,0.19601 3.39799,0.35637 7.55108,0.35637 4.1531,0 7.55109,-0.17342 7.55109,-0.38537 z m 27.05804,-4.05841 0,-20.175194 20.60816,0.196291 c 18.69748,0.178098 20.82985,0.306422 22.99926,1.384088 3.63227,1.80435 4.84536,4.738115 4.84536,11.718155 0,6.82115 -0.87461,8.98484 -4.10385,10.15255 l -2.22814,0.80571 2.27097,1.16508 c 2.98627,1.53205 4.06102,4.22853 4.06102,10.18888 l 0,4.73964 -5.90463,0 -5.90464,0 -0.2658,-4.17425 c -0.40648,-6.3837 -0.70131,-6.52311 -13.79417,-6.52311 l -10.62766,0 0,5.34868 0,5.34868 -5.97794,0 -5.97794,0 z m 35.45791,-1.13926 c 1.38745,-1.15327 1.42158,-6.52961 0.0502,-7.90103 -0.82539,-0.82541 -2.85344,-0.98884 -12.2705,-0.98884 l -11.28168,0 0,5.08502 0,5.08501 11.23152,-0.20827 c 8.34638,-0.15478 11.49841,-0.43012 12.27051,-1.07189 z m 22.43372,1.17824 0,-20.136215 5.97794,0 5.97794,0 0,20.136215 0,20.13622 -5.97794,0 -5.97794,0 z m 20.91395,0.15732 0.16615,-19.978907 21.86668,-0.165469 21.86667,-0.16547 0,4.727582 0,4.727584 -15.73142,0 -15.73142,0 0,3.14628 0,3.14629 14.78754,0 14.78753,0 0,4.09017 0,4.09016 -14.78753,0 -14.78754,0 0,3.46092 0,3.46091 16.04605,0 16.04605,0 0,4.71943 0,4.71942 -22.34746,0 -22.34745,0 z m 196.80892,-0.1963 0,-20.175194 20.60816,0.196291 c 19.34676,0.184284 20.7587,0.275274 23.06753,1.486581 3.75744,1.971304 4.78134,4.469182 4.75478,11.599662 -0.0252,6.76411 -0.66257,8.47968 -3.74214,10.07219 l -2.04158,1.05574 2.28343,1.34726 c 2.89975,1.71089 3.52259,3.40824 3.52259,9.59958 l 0,4.99309 -5.97794,0 -5.97794,0 0,-3.80414 c 0,-3.19996 -0.24531,-4.04945 -1.54454,-5.34868 -1.51906,-1.51907 -1.72145,-1.54454 -12.27051,-1.54454 l -10.72596,0 0,5.34868 0,5.34868 -5.97794,0 -5.97794,0 z m 35.68913,-1.3996 c 1.55156,-1.55373 1.44658,-6.60616 -0.1617,-7.78216 -0.86872,-0.63522 -3.9645,-0.84737 -12.3652,-0.84737 l -11.20635,0 0,5.08502 0,5.08501 11.30543,-0.20827 c 9.84188,-0.18131 11.45072,-0.35378 12.42782,-1.33223 z m 22.2025,1.43858 0,-20.136215 5.97794,0 5.97794,0 0,20.136215 0,20.13622 -5.97794,0 -5.97794,0 z m 20.91394,0.15732 0.16616,-19.978907 21.86668,-0.165469 21.86667,-0.16547 0,4.727582 0,4.727584 -15.73142,0 -15.73142,0 0,3.14628 0,3.14629 14.78753,0 14.78754,0 0,4.09017 0,4.09016 -14.78754,0 -14.78753,0 0,3.46092 0,3.46091 16.04605,0 16.04605,0 0,4.71943 0,4.71942 -22.34746,0 -22.34745,0 z M 560.30988,69.399766 535.1396,55.735014 534.97268,45.365799 534.80576,34.996583 556.02296,23.355332 c 11.66946,-6.402688 23.14199,-12.693558 25.49451,-13.9797021 l 4.27731,-2.3384569 0,8.780423 0,8.78043 -4.4048,2.218219 -4.4048,2.218218 0,16.03023 0,16.03023 4.4048,2.218218 4.4048,2.218219 0,8.801686 c 0,4.840929 -0.0708,8.785885 -0.15732,8.766579 -0.0865,-0.01932 -11.48393,-6.184248 -25.32758,-13.699859 z m 5.34868,-24.361961 0,-9.780369 -9.396,4.903628 c -5.16781,2.696995 -9.20291,5.084446 -8.96691,5.305441 0.65303,0.611518 17.35137,9.330639 17.89097,9.341859 0.25956,0.0057 0.47194,-4.391357 0.47194,-9.770559 z M 546.46622,4.5479777 c -6.53721,-1.6732128 -9.75304,-5.17695896 -11.35329,-12.3697422 -0.86629,-3.8938035 -0.99009,-7.5310405 -0.76398,-22.4451825 0.30113,-19.861554 0.78111,-22.736849 4.449,-26.651412 2.20286,-2.350998 7.31733,-4.046726 12.20528,-4.046726 l 2.69945,0 0,7.865711 0,7.86571 -1.8421,0 c -1.24056,0 -2.26798,0.541419 -3.14628,1.658004 -1.22144,1.552805 -1.30404,2.461124 -1.30184,14.315593 0.003,17.741142 0.19891,18.006273 13.28426,18.006273 8.30892,0 10.48217,-0.636267 11.76115,-3.443331 1.06664,-2.340999 1.02151,-26.499139 -0.0535,-28.648768 -0.55137,-1.102534 -1.58394,-1.750479 -3.45164,-2.16594 l -2.66493,-0.592798 0,-7.825708 0,-7.825702 4.9216,0.284908 c 9.05019,0.523907 12.97179,3.789964 14.58711,12.148691 0.48891,2.529939 0.65221,9.905295 0.49461,22.338617 -0.20205,15.939938 -0.39617,19.0060866 -1.3744,21.7079708 -1.59769,4.41289007 -3.60736,6.8295195 -7.11251,8.5528023 -2.85128,1.4018143 -3.76566,1.493044 -16.23584,1.6198392 -7.26792,0.0739 -14.06389,-0.083062 -15.10217,-0.3488096 z m -11.64125,-101.6953307 0,-29.889697 6.29257,0 6.29257,0 0,11.01199 0,11.012 19.19233,0 19.19234,0 0,7.865707 0,7.865711 -19.19234,0 -19.19233,0 0,11.011994 0,11.011995 -6.29257,0 -6.29257,0 z m 0,-45.306497 0,-7.86571 25.48491,0 25.4849,0 0,7.86571 0,7.86572 -25.4849,0 -25.48491,0 z m 0,-115.15896 0,-12.27547 16.4812,-13.05212 c 9.06465,-7.17866 17.34725,-13.82252 18.40576,-14.76413 l 1.92457,-1.712 -18.40576,-0.0184 -18.40577,-0.0185 0,-7.86571 0,-7.86571 25.48491,0 25.4849,0 0,12.22375 0,12.22376 -18.22257,14.36234 c -10.02241,7.8993 -18.23421,14.57473 -18.24845,14.8343 -0.0142,0.25957 8.18592,0.47194 18.22257,0.47194 l 18.24845,0 0,7.86571 0,7.86571 -25.4849,0 -25.48491,0 z m 8.62324,-65.39032 c -4.01292,-1.07903 -6.53096,-3.60857 -7.85974,-7.89566 -0.92001,-2.96825 -1.07813,-6.33929 -1.07813,-22.98535 0,-17.09305 0.13882,-19.90459 1.12176,-22.72018 1.84885,-5.29597 5.72316,-7.79878 12.07243,-7.79878 l 3.48112,0 0,7.86571 0,7.86571 -1.81072,0 c -3.28545,0 -3.51952,0.92255 -3.74003,14.74091 -0.19391,12.15185 -0.14762,12.73209 1.14687,14.37778 1.80172,2.29051 4.59704,2.33619 6.06285,0.0991 0.89656,-1.36833 1.12766,-4.28384 1.50884,-19.03502 0.491,-19.00154 0.95893,-21.72973 4.25423,-24.80373 2.41065,-2.24878 5.70839,-3.12406 11.77029,-3.12406 8.86402,0 12.68164,2.0851 14.58524,7.96614 1.35662,4.19121 1.98979,38.15051 0.83856,44.97575 -1.32031,7.82768 -4.51276,10.73248 -12.34788,11.2353 l -4.64906,0.29836 0,-7.94846 0,-7.94846 1.60174,0 c 0.88096,0 2.31238,-0.71063 3.18092,-1.57917 l 1.57917,-1.57917 -0.19195,-13.45843 c -0.17391,-12.19446 -0.30452,-13.58268 -1.39067,-14.78151 -1.19452,-1.31844 -3.79202,-1.73146 -5.21178,-0.8287 -1.65589,1.05291 -2.12602,4.6818 -2.4527,18.93228 -0.40207,17.53889 -1.26546,23.01193 -4.07314,25.81962 -3.03971,3.03971 -11.65957,4.122 -18.39822,2.31004 z"
           style="fill:#000000"
           sodipodi:nodetypes="csssssscccscccsssscscccsscccsscccsccscccsssccccccsssccccccccccccccccccccsscccssscccccccccsscsssccsssscsscccsscccccccsscccsccccccccccccccccccccccccccccccccccccccsssscsscccsssccccccssscccssccccccccccccccccccccccccccccccccccscccsscccccccccscsscsscscsssscccsscsssscccssssssccccccccccccccccccccccccccccccsscccccccccscscccccccsssscccsssssssssscccsscssssscc" />
        <path
           style="fill:#f3e825"
           d="m 52.814234,-153.78047 0,-233.13966 233.139656,0 233.13966,0 0,233.13966 0,233.139661 -233.13966,0 -233.139656,0 z m 486.010736,-43.41872 0,-26.6993 21.48491,0 21.4849,0 0,26.6993 0,28.6993 -21.4849,0 -21.48491,0 z"
           id="path5543"
           inkscape:connector-curvature="0"
           sodipodi:nodetypes="cccccccccccccccccc" />
        <path
           style="fill:#1f8fdf"
           d="m 52.814234,-153.78047 0,-233.13966 233.140506,0 233.14049,0 -0.15815,232.98235 L 518.77892,79.044562 285.79658,79.20187 52.814234,79.359184 Z M 351.08748,54.451871 c 31.26867,-7.74836 62.56819,-18.81612 92.80988,-32.818318 4.84528,-2.243414 12.77391,-5.77396 17.61919,-7.845662 10.1532,-4.341218 23.59713,-11.0638646 23.59713,-11.7997553 0,-1.38445316 -11.6301,-5.0270196 -20.37017,-6.3799722 -3.86648,-0.5985302 -5.4128,-0.6006571 -7.04709,-0.00969 -1.80699,0.6534203 -2.43522,0.582868 -4.5876,-0.5151915 -2.18255,-1.1134574 -10.54854,-4.4493052 -11.15842,-4.4493052 -0.12319,0 -0.0571,0.8344575 0.1469,1.854357 0.25982,1.299107 -0.0388,2.5173042 -0.9975,4.0684223 -1.34741,2.1801547 -7.86325,7.4835691 -11.80109,9.6052344 -1.91986,1.0343913 -2.07292,1.0311003 -3.29042,-0.070716 -1.77861,-1.6096264 -3.81969,-7.3927484 -4.25521,-12.0565421 -0.20127,-2.155318 -0.55736,-4.2284994 -0.79133,-4.6070664 -0.28277,-0.457527 -1.57262,-0.06882 -3.84706,1.159343 -8.10146,4.3746816 -17.85491,6.2358597 -23.0989,4.4077931 -4.05149,-1.4123544 -2.70239,-3.9334908 4.39261,-8.2086811 4.44077,-2.675852 4.51898,-2.7652 2.58507,-2.953027 -1.09684,-0.106533 -2.35109,-0.62365 -2.78722,-1.149161 -1.18248,-1.424808 0.30733,-2.096936 4.67347,-2.108432 4.04415,-0.01064 6.09389,-0.789183 6.09389,-2.314596 0,-0.835483 -0.44483,-0.921628 -2.67435,-0.517922 -3.08355,0.558346 -3.77544,0.59052 -9.17666,0.426718 -2.86639,-0.08693 -3.91278,-0.341699 -3.72701,-0.907433 0.14205,-0.432614 1.01938,-0.876579 1.9496,-0.986586 1.22543,-0.144924 1.92914,-0.769172 2.55463,-2.266174 0.4748,-1.136381 1.74482,-2.693855 2.82225,-3.461058 1.07743,-0.767196 1.95897,-1.800373 1.95897,-2.295938 0,-1.045749 -0.1375,-1.058095 -3.38729,-0.304163 -3.27017,0.758657 -5.27852,-0.09904 -6.37463,-2.722392 -0.76667,-1.834907 -0.76904,-3.238043 -0.0169,-10.024999 0.85558,-7.72044 1.62658,-10.502731 2.9104,-10.502731 1.48128,0 4.23966,1.961438 5.64723,4.015653 0.83203,1.214264 2.16841,2.506481 2.96974,2.871595 2.99621,1.36516 6.97042,0.438214 9.44624,-2.203249 1.42251,-1.517679 2.381,-1.762064 6.13616,-1.56454 1.22171,0.06427 2.33295,-0.3621 3.0719,-1.178636 1.06418,-1.175911 1.07838,-1.400486 0.1756,-2.778295 -2.02877,-3.096302 -11.43012,-6.144875 -19.30005,-6.258418 -3.75935,-0.05424 -5.29295,0.2199 -7.41692,1.325819 -2.48684,1.294859 -2.80967,1.325913 -4.53086,0.435848 -1.27784,-0.660789 -3.70749,-0.958345 -7.82529,-0.958345 -6.68247,0 -7.70948,-0.579647 -5.18102,-2.924169 1.38281,-1.282218 1.64838,-2.065253 1.63117,-4.809694 -0.0113,-1.802972 -0.56838,-4.835543 -1.23797,-6.739045 -2.19306,-6.23445 -1.50036,-9.256198 3.06801,-13.383437 4.14449,-3.744298 9.1018,-3.839322 19.80113,-0.379555 3.16913,1.024776 7.60263,2.032235 9.85222,2.238789 9.30538,0.854399 18.53402,5.894884 21.94171,11.984096 0.52607,0.940015 0.80562,0.933666 3.45593,-0.07849 3.33302,-1.272892 8.80632,-5.952958 10.26832,-8.780153 1.56344,-3.023352 1.8535,-11.950241 0.53561,-16.483631 -3.16348,-10.88198 -12.7383,-18.98254 -27.07183,-22.90352 -2.7657,-0.75656 -7.15477,-2.56115 -9.75349,-4.01019 l -4.72493,-2.63463 -6.6072,0.0426 c -7.29772,0.0471 -14.40814,1.55204 -22.65325,4.79477 -5.05124,1.98661 -9.98058,6.07129 -11.36753,9.41966 -0.40757,0.98396 -0.99336,1.78901 -1.30176,1.78901 -0.30841,0 -1.54105,1.53249 -2.73922,3.40552 -1.54548,2.41598 -3.16846,3.97193 -5.58548,5.35481 -3.86072,2.20889 -6.05376,4.79278 -8.37962,9.873162 -2.13435,4.662032 -1.82337,8.413668 1.07673,12.989888 4.34038,6.848869 4.457,7.225744 3.99856,12.921745 -0.41348,5.137353 -0.38985,5.258347 1.5565,7.968575 1.08699,1.513614 1.97635,3.471862 1.97635,4.351664 0,0.879801 0.70387,2.63685 1.56415,3.904551 1.9393,2.857713 2.83257,5.971351 2.83713,9.889243 0.004,3.391789 1.38236,6.516559 4.54378,10.300538 1.16245,1.391369 2.49162,3.778599 2.95372,5.304956 2.66429,8.800585 3.50526,10.90852 5.67379,14.221658 2.87218,4.3882107 4.67988,6.1364624 10.43316,10.0900454 9.47317,6.5098382 6.34646,10.4637924 -12.54254,15.8609786 -9.96155,2.84633 -13.44788,4.854811 -18.91653,10.897872 -4.24585,4.691809 -7.25043,10.466134 -9.39395,18.053656 -1.4167,5.014755 -2.4295,7.728633 -5.82615,15.611692 -0.50722,1.177195 0.38088,1.034121 13.01563,-2.096759 z m 4.19391,-138.684388 c -3.04698,-3.621134 -2.76947,-7.442434 0.9722,-13.386778 1.03477,-1.643934 1.97822,-2.988975 2.09654,-2.988975 0.11833,0 -0.33593,1.601746 -1.00948,3.559427 -1.44553,4.201504 -1.59816,10.497169 -0.31417,12.95857 1.1921,2.285253 0.23164,2.206967 -1.74509,-0.142244 z M 439.74,-50.141376 c 0.38305,-1.834013 0.70258,-5.373583 0.71006,-7.865711 0.018,-5.990575 1.94418,-14.460051 4.41473,-19.411875 l 1.99416,-3.99697 -2.73931,2.648297 c -1.50662,1.45656 -4.72147,4.026533 -7.14411,5.711041 -2.67162,1.857648 -4.30966,3.415367 -4.16301,3.958906 0.13298,0.492884 0.30301,4.152554 0.37785,8.132603 0.13554,7.208754 1.25629,11.95588 2.82266,11.95588 0.37117,0 1.0009,0.715598 1.3994,1.590214 0.9289,2.038704 1.46386,1.413003 2.32757,-2.722385 z"
           id="path5545"
           inkscape:connector-curvature="0"
           sodipodi:nodetypes="ccccccccccsssssssccssssssssssssscsssssssssssssssssssssssssssssscsssssssssssscssssssssccssssssssscsssssss" />
        <path
           style="fill:#b93580"
           d="m 52.814234,-153.78047 0,-233.13966 116.727146,0 116.72714,0 0,116.41252 0,116.41251 116.41418,0 116.41418,0 -0.15897,116.569833 L 518.77892,79.044562 285.79658,79.20187 52.814234,79.359184 Z M 351.08748,54.451871 c 31.26867,-7.74836 62.56819,-18.81612 92.80988,-32.818318 4.84528,-2.243414 12.77391,-5.77396 17.61919,-7.845662 10.1532,-4.341218 23.59713,-11.0638646 23.59713,-11.7997553 0,-1.38445316 -11.6301,-5.0270196 -20.37017,-6.3799722 -3.86648,-0.5985302 -5.4128,-0.6006571 -7.04709,-0.00969 -1.80699,0.6534203 -2.43522,0.582868 -4.5876,-0.5151915 -2.18255,-1.1134574 -10.54854,-4.4493052 -11.15842,-4.4493052 -0.12319,0 -0.0571,0.8344575 0.1469,1.854357 0.25982,1.299107 -0.0388,2.5173042 -0.9975,4.0684223 -1.34741,2.1801547 -7.86325,7.4835691 -11.80109,9.6052344 -1.91986,1.0343913 -2.07292,1.0311003 -3.29042,-0.070716 -1.77861,-1.6096264 -3.81969,-7.3927484 -4.25521,-12.0565421 -0.20127,-2.155318 -0.55736,-4.2284994 -0.79133,-4.6070664 -0.28277,-0.457527 -1.57262,-0.06882 -3.84706,1.159343 -8.10146,4.3746816 -17.85491,6.2358597 -23.0989,4.4077931 -4.05149,-1.4123544 -2.70239,-3.9334908 4.39261,-8.2086811 4.44077,-2.675852 4.51898,-2.7652 2.58507,-2.953027 -1.09684,-0.106533 -2.35109,-0.62365 -2.78722,-1.149161 -1.18248,-1.424808 0.30733,-2.096936 4.67347,-2.108432 4.04415,-0.01064 6.09389,-0.789183 6.09389,-2.314596 0,-0.835483 -0.44483,-0.921628 -2.67435,-0.517922 -3.08355,0.558346 -3.77544,0.59052 -9.17666,0.426718 -2.86639,-0.08693 -3.91278,-0.341699 -3.72701,-0.907433 0.14205,-0.432614 1.01938,-0.876579 1.9496,-0.986586 1.22543,-0.144924 1.92914,-0.769172 2.55463,-2.266174 0.4748,-1.136381 1.74482,-2.693855 2.82225,-3.461058 1.07743,-0.767196 1.95897,-1.800373 1.95897,-2.295938 0,-1.045749 -0.1375,-1.058095 -3.38729,-0.304163 -3.27017,0.758657 -5.27852,-0.09904 -6.37463,-2.722392 -0.76667,-1.834907 -0.76904,-3.238043 -0.0169,-10.024999 0.85558,-7.72044 1.62658,-10.502731 2.9104,-10.502731 1.48128,0 4.23966,1.961438 5.64723,4.015653 0.83203,1.214264 2.16841,2.506481 2.96974,2.871595 2.99621,1.36516 6.97042,0.438214 9.44624,-2.203249 1.42251,-1.517679 2.381,-1.762064 6.13616,-1.56454 1.22171,0.06427 2.33295,-0.3621 3.0719,-1.178636 1.06418,-1.175911 1.07838,-1.400486 0.1756,-2.778295 -2.02877,-3.096302 -11.43012,-6.144875 -19.30005,-6.258418 -3.75935,-0.05424 -5.29295,0.2199 -7.41692,1.325819 -2.48684,1.294859 -2.80967,1.325913 -4.53086,0.435848 -1.27784,-0.660789 -3.70749,-0.958345 -7.82529,-0.958345 -6.68247,0 -7.70948,-0.579647 -5.18102,-2.924169 1.38281,-1.282218 1.64838,-2.065253 1.63117,-4.809694 -0.0113,-1.802972 -0.56838,-4.835543 -1.23797,-6.739045 -2.19306,-6.23445 -1.50036,-9.256198 3.06801,-13.383437 4.14449,-3.744298 9.1018,-3.839322 19.80113,-0.379555 3.16913,1.024776 7.60263,2.032235 9.85222,2.238789 9.30538,0.854399 18.53402,5.894884 21.94171,11.984096 0.52607,0.940015 0.80562,0.933666 3.45593,-0.07849 3.33302,-1.272892 8.80632,-5.952958 10.26832,-8.780153 1.56344,-3.023352 1.8535,-11.950241 0.53561,-16.483631 -3.16348,-10.88198 -12.7383,-18.98254 -27.07183,-22.90352 -2.7657,-0.75656 -7.15477,-2.56115 -9.75349,-4.01019 l -4.72493,-2.63463 -6.6072,0.0426 c -7.29772,0.0471 -14.40814,1.55204 -22.65325,4.79477 -5.05124,1.98661 -9.98058,6.07129 -11.36753,9.41966 -0.40757,0.98396 -0.99336,1.78901 -1.30176,1.78901 -0.30841,0 -1.54105,1.53249 -2.73922,3.40552 -1.54548,2.41598 -3.16846,3.97193 -5.58548,5.35481 -3.86072,2.20889 -6.05376,4.79278 -8.37962,9.873162 -2.13435,4.662032 -1.82337,8.413668 1.07673,12.989888 4.34038,6.848869 4.457,7.225744 3.99856,12.921745 -0.41348,5.137353 -0.38985,5.258347 1.5565,7.968575 1.08699,1.513614 1.97635,3.471862 1.97635,4.351664 0,0.879801 0.70387,2.63685 1.56415,3.904551 1.9393,2.857713 2.83257,5.971351 2.83713,9.889243 0.004,3.391789 1.38236,6.516559 4.54378,10.300538 1.16245,1.391369 2.49162,3.778599 2.95372,5.304956 2.66429,8.800585 3.50526,10.90852 5.67379,14.221658 2.87218,4.3882107 4.67988,6.1364624 10.43316,10.0900454 9.47317,6.5098382 6.34646,10.4637924 -12.54254,15.8609786 -9.96155,2.84633 -13.44788,4.854811 -18.91653,10.897872 -4.24585,4.691809 -7.25043,10.466134 -9.39395,18.053656 -1.4167,5.014755 -2.4295,7.728633 -5.82615,15.611692 -0.50722,1.177195 0.38088,1.034121 13.01563,-2.096759 z m 4.19391,-138.684388 c -3.04698,-3.621134 -2.76947,-7.442434 0.9722,-13.386778 1.03477,-1.643934 1.97822,-2.988975 2.09654,-2.988975 0.11833,0 -0.33593,1.601746 -1.00948,3.559427 -1.44553,4.201504 -1.59816,10.497169 -0.31417,12.95857 1.1921,2.285253 0.23164,2.206967 -1.74509,-0.142244 z M 439.74,-50.141376 c 0.38305,-1.834013 0.70258,-5.373583 0.71006,-7.865711 0.018,-5.990575 1.94418,-14.460051 4.41473,-19.411875 l 1.99416,-3.99697 -2.73931,2.648297 c -1.50662,1.45656 -4.72147,4.026533 -7.14411,5.711041 -2.67162,1.857648 -4.30966,3.415367 -4.16301,3.958906 0.13298,0.492884 0.30301,4.152554 0.37785,8.132603 0.13554,7.208754 1.25629,11.95588 2.82266,11.95588 0.37117,0 1.0009,0.715598 1.3994,1.590214 0.9289,2.038704 1.46386,1.413003 2.32757,-2.722385 z M 337.86758,-175.73814 c 0,-0.13654 1.11583,-3.03899 2.47961,-6.44988 1.36379,-3.41089 3.07109,-8.42197 3.79402,-11.13574 0.72292,-2.71376 1.98502,-6.2575 2.80465,-7.87497 4.44947,-8.78062 12.53334,-16.14949 20.18217,-18.39712 17.08453,-5.02035 20.81273,-6.63379 22.24981,-9.62904 1.26481,-2.63615 0.23202,-4.22605 -5.07047,-7.80564 -2.52682,-1.7058 -5.81438,-4.42605 -7.3057,-6.04502 -2.53027,-2.74685 -7.04199,-10.95019 -7.04199,-12.80398 0,-2.31496 -2.8752,-8.8941 -4.83477,-11.06312 -2.84847,-3.15291 -3.97482,-5.91813 -3.97482,-9.75824 0,-3.64174 -1.31462,-7.69145 -3.54143,-10.90948 -0.88114,-1.27334 -1.48435,-2.83075 -1.34047,-3.46091 0.14387,-0.63015 -0.42083,-2.07727 -1.25489,-3.21582 -2.2721,-3.10155 -2.77236,-5.54585 -1.95514,-9.55289 0.81197,-3.98127 0.46486,-5.05869 -3.84373,-11.93091 -2.10226,-3.3531 -2.5362,-4.59375 -2.5311,-7.23645 0.0111,-5.78671 4.15157,-12.46207 9.77302,-15.75645 2.52598,-1.48034 5.72599,-5.07339 9.49196,-10.65784 3.02508,-4.48581 6.79105,-7.58477 11.30542,-9.30303 10.26884,-3.90854 22.55135,-6.05107 27.86384,-4.86052 1.58544,0.3553 4.87142,1.73433 7.30218,3.06452 2.43076,1.33018 6.66558,3.02686 9.4107,3.77039 15.95604,4.32177 26.6613,15.13321 27.31477,27.58567 0.13229,2.52085 0.0472,6.13061 -0.18906,8.02167 -0.37044,2.96489 -0.85956,3.90877 -3.55225,6.85501 -2.76812,3.02875 -8.4577,6.69712 -10.28238,6.62958 -0.36466,-0.0135 -1.60951,-1.31059 -2.76633,-2.88243 -3.77298,-5.1266 -11.27965,-8.81732 -19.74418,-9.70743 -2.67166,-0.28094 -6.94896,-1.23266 -9.50512,-2.11493 -6.14356,-2.12047 -12.70679,-3.20661 -15.83009,-2.6197 -1.78535,0.33549 -3.35182,1.31717 -5.45014,3.41549 -3.85083,3.85083 -4.4127,6.45946 -2.52508,11.72332 0.79852,2.22677 1.35667,5.28438 1.35659,7.43164 -1.1e-4,3.10196 -0.24036,3.87091 -1.60436,5.13502 -2.22909,2.06584 -1.19111,2.53064 5.6944,2.54991 3.9115,0.0109 6.21484,0.3183 7.44632,0.99364 1.67208,0.91696 1.96571,0.88332 4.71943,-0.54066 2.63389,-1.362 3.49404,-1.48493 8.34903,-1.19322 8.85976,0.53233 18.81377,4.62121 18.81377,7.72826 0,1.45388 -2.03838,2.84164 -4.01862,2.73595 -3.77247,-0.20136 -4.81189,0.0332 -5.89834,1.331 -2.36696,2.82744 -6.56134,3.87628 -9.72924,2.43289 -0.80133,-0.36511 -2.14777,-1.67201 -2.9921,-2.90423 -1.81952,-2.65541 -5.32441,-4.58856 -6.38905,-3.52392 -0.98511,0.9851 -1.68038,5.07711 -2.18341,12.85039 -0.4314,6.66617 -0.42475,6.71127 1.23261,8.36863 1.55469,1.55469 1.91917,1.63774 5.43951,1.23946 4.46369,-0.50501 4.81625,0.13455 1.47784,2.68087 -1.26244,0.9629 -2.66627,2.63851 -3.11965,3.72358 -0.5901,1.41232 -1.36822,2.08163 -2.73872,2.35573 -1.05293,0.21059 -1.91442,0.69966 -1.91442,1.08684 0,0.77869 11.16333,0.498 13.6787,-0.34393 1.04834,-0.3509 1.51666,-0.18866 1.83269,0.63492 0.67513,1.75937 -1.45684,2.81092 -5.72086,2.82169 -2.09692,0.005 -4.20282,0.25681 -4.67978,0.55891 -1.39597,0.88419 -0.18595,1.94848 2.21528,1.94848 1.21974,0 2.12332,0.25441 2.00795,0.56535 -0.11536,0.31093 -2.47508,2.08072 -5.24381,3.93285 -7.33075,4.90388 -7.16085,6.9083 0.66008,7.78757 5.47394,0.61539 13.70474,-1.91953 23.00191,-7.08415 0.20871,-0.11594 0.53767,1.85188 0.73102,4.37294 0.37021,4.82725 2.27292,10.80797 4.19272,13.1788 l 1.14193,1.41023 3.63366,-2.171 c 4.74918,-2.83749 10.80739,-8.62788 11.35039,-10.84863 0.30645,-1.2533 0.10992,-2.10875 -0.68668,-2.98897 -1.60327,-1.7716 -0.55554,-1.55355 6.41277,1.33461 7.60249,3.15101 8.55802,3.3908 10.13934,2.5445 1.35215,-0.72365 9.62239,0.35668 16.82146,2.19737 4.8856,1.24917 11.08651,4.01659 10.63539,4.7465 -0.54666,0.88453 -14.37103,7.66663 -24.17696,11.86098 -4.86972,2.08297 -11.60209,5.08523 -14.96081,6.6717 -29.38722,13.88089 -61.23725,25.27598 -93.19523,33.34274 -12.79713,3.23023 -15.16576,3.72231 -15.16576,3.15065 z M 356.648,-317.22993 c -1.06729,-1.96039 -0.86341,-9.02676 0.35688,-12.36867 1.45202,-3.97656 0.86262,-3.80374 -1.36949,0.40156 -2.7965,5.26861 -2.95613,9.06046 -0.49329,11.71791 1.88874,2.03799 2.53829,2.14548 1.5059,0.2492 z m 81.27142,38.11324 c 0,-0.37424 -0.84626,-1.50782 -1.88058,-2.51905 -2.25768,-2.2073 -3.27925,-6.58667 -3.05542,-13.09826 0.0833,-2.42264 -0.0644,-5.30484 -0.32807,-6.40488 -0.46039,-1.92048 -0.33386,-2.09235 3.17887,-4.31789 2.01209,-1.27479 5.28654,-3.72139 7.27657,-5.43689 1.99002,-1.71551 3.61823,-2.96221 3.61823,-2.77046 0,0.19176 -0.85802,1.9855 -1.90671,3.98611 -2.37634,4.53339 -4.36666,13.93159 -4.37759,20.67074 -0.004,2.8036 -0.33009,6.06001 -0.72341,7.23645 -0.76431,2.28608 -1.80189,3.81439 -1.80189,2.65413 z"
           id="path5547"
           inkscape:connector-curvature="0"
           sodipodi:nodetypes="ccccccccccccccsssssssccssssssssssssscsssssssssssssssssssssssssssssscsssssssssssscssssssssccssssssssscssssssssssssssssssscssscsssssssssssssssssscsssssssssssssssssscsscssssscsssssscsssssssssssscsssscss" />
        <path
           style="fill:#5b9d44"
           d="m 52.814234,-37.263452 0,-116.831648 233.139656,0 233.13966,0 0,116.412519 0,116.412515 -58.41626,0 c -32.12895,0 -137.04179,0.188607 -233.13966,0.419129 L 52.814234,79.568192 Z M 351.08748,54.451871 c 31.26867,-7.74836 62.56819,-18.81612 92.80988,-32.818318 4.84528,-2.243414 12.77391,-5.77396 17.61919,-7.845662 10.1532,-4.341218 23.59713,-11.0638646 23.59713,-11.7997553 0,-1.38445316 -11.6301,-5.0270196 -20.37017,-6.3799722 -3.86648,-0.5985302 -5.4128,-0.6006571 -7.04709,-0.00969 -1.80699,0.6534203 -2.43522,0.582868 -4.5876,-0.5151915 -2.18255,-1.1134574 -10.54854,-4.4493052 -11.15842,-4.4493052 -0.12319,0 -0.0571,0.8344575 0.1469,1.854357 0.25982,1.299107 -0.0388,2.5173042 -0.9975,4.0684223 -1.34741,2.1801547 -7.86325,7.4835691 -11.80109,9.6052344 -1.91986,1.0343913 -2.07292,1.0311003 -3.29042,-0.070716 -1.77861,-1.6096264 -3.81969,-7.3927484 -4.25521,-12.0565421 -0.20127,-2.155318 -0.55736,-4.2284994 -0.79133,-4.6070664 -0.28277,-0.457527 -1.57262,-0.06882 -3.84706,1.159343 -8.10146,4.3746816 -17.85491,6.2358597 -23.0989,4.4077931 -4.05149,-1.4123544 -2.70239,-3.9334908 4.39261,-8.2086811 4.44077,-2.675852 4.51898,-2.7652 2.58507,-2.953027 -1.09684,-0.106533 -2.35109,-0.62365 -2.78722,-1.149161 -1.18248,-1.424808 0.30733,-2.096936 4.67347,-2.108432 4.04415,-0.01064 6.09389,-0.789183 6.09389,-2.314596 0,-0.835483 -0.44483,-0.921628 -2.67435,-0.517922 -3.08355,0.558346 -3.77544,0.59052 -9.17666,0.426718 -2.86639,-0.08693 -3.91278,-0.341699 -3.72701,-0.907433 0.14205,-0.432614 1.01938,-0.876579 1.9496,-0.986586 1.22543,-0.144924 1.92914,-0.769172 2.55463,-2.266174 0.4748,-1.136381 1.74482,-2.693855 2.82225,-3.461058 1.07743,-0.767196 1.95897,-1.800373 1.95897,-2.295938 0,-1.045749 -0.1375,-1.058095 -3.38729,-0.304163 -3.27017,0.758657 -5.27852,-0.09904 -6.37463,-2.722392 -0.76667,-1.834907 -0.76904,-3.238043 -0.0169,-10.024999 0.85558,-7.72044 1.62658,-10.502731 2.9104,-10.502731 1.48128,0 4.23966,1.961438 5.64723,4.015653 0.83203,1.214264 2.16841,2.506481 2.96974,2.871595 2.99621,1.36516 6.97042,0.438214 9.44624,-2.203249 1.42251,-1.517679 2.381,-1.762064 6.13616,-1.56454 1.22171,0.06427 2.33295,-0.3621 3.0719,-1.178636 1.06418,-1.175911 1.07838,-1.400486 0.1756,-2.778295 -2.02877,-3.096302 -11.43012,-6.144875 -19.30005,-6.258418 -3.75935,-0.05424 -5.29295,0.2199 -7.41692,1.325819 -2.48684,1.294859 -2.80967,1.325913 -4.53086,0.435848 -1.27784,-0.660789 -3.70749,-0.958345 -7.82529,-0.958345 -6.68247,0 -7.70948,-0.579647 -5.18102,-2.924169 1.38281,-1.282218 1.64838,-2.065253 1.63117,-4.809694 -0.0113,-1.802972 -0.56838,-4.835543 -1.23797,-6.739045 -2.19306,-6.23445 -1.50036,-9.256198 3.06801,-13.383437 4.14449,-3.744298 9.1018,-3.839322 19.80113,-0.379555 3.16913,1.024776 7.60263,2.032235 9.85222,2.238789 9.30538,0.854399 18.53402,5.894884 21.94171,11.984096 0.52607,0.940015 0.80562,0.933666 3.45593,-0.07849 3.33302,-1.272892 8.80632,-5.952958 10.26832,-8.780153 1.56344,-3.023352 1.8535,-11.950241 0.53561,-16.483631 -3.16348,-10.88198 -12.7383,-18.98254 -27.07183,-22.90352 -2.7657,-0.75656 -7.15477,-2.56115 -9.75349,-4.01019 l -4.72493,-2.63463 -6.6072,0.0426 c -7.29772,0.0471 -14.40814,1.55204 -22.65325,4.79477 -5.05124,1.98661 -9.98058,6.07129 -11.36753,9.41966 -0.40757,0.98396 -0.99336,1.78901 -1.30176,1.78901 -0.30841,0 -1.54105,1.53249 -2.73922,3.40552 -1.54548,2.41598 -3.16846,3.97193 -5.58548,5.35481 -3.86072,2.20889 -6.05376,4.79278 -8.37962,9.873162 -2.13435,4.662032 -1.82337,8.413668 1.07673,12.989888 4.34038,6.848869 4.457,7.225744 3.99856,12.921745 -0.41348,5.137353 -0.38985,5.258347 1.5565,7.968575 1.08699,1.513614 1.97635,3.471862 1.97635,4.351664 0,0.879801 0.70387,2.63685 1.56415,3.904551 1.9393,2.857713 2.83257,5.971351 2.83713,9.889243 0.004,3.391789 1.38236,6.516559 4.54378,10.300538 1.16245,1.391369 2.49162,3.778599 2.95372,5.304956 2.66429,8.800585 3.50526,10.90852 5.67379,14.221658 2.87218,4.3882107 4.67988,6.1364624 10.43316,10.0900454 9.47317,6.5098382 6.34646,10.4637924 -12.54254,15.8609786 -9.96155,2.84633 -13.44788,4.854811 -18.91653,10.897872 -4.24585,4.691809 -7.25043,10.466134 -9.39395,18.053656 -1.4167,5.014755 -2.4295,7.728633 -5.82615,15.611692 -0.50722,1.177195 0.38088,1.034121 13.01563,-2.096759 z m 4.19391,-138.684388 c -3.04698,-3.621134 -2.76947,-7.442434 0.9722,-13.386778 1.03477,-1.643934 1.97822,-2.988975 2.09654,-2.988975 0.11833,0 -0.33593,1.601746 -1.00948,3.559427 -1.44553,4.201504 -1.59816,10.497169 -0.31417,12.95857 1.1921,2.285253 0.23164,2.206967 -1.74509,-0.142244 z M 439.74,-50.141376 c 0.38305,-1.834013 0.70258,-5.373583 0.71006,-7.865711 0.018,-5.990575 1.94418,-14.460051 4.41473,-19.411875 l 1.99416,-3.99697 -2.73931,2.648297 c -1.50662,1.45656 -4.72147,4.026533 -7.14411,5.711041 -2.67162,1.857648 -4.30966,3.415367 -4.16301,3.958906 0.13298,0.492884 0.30301,4.152554 0.37785,8.132603 0.13554,7.208754 1.25629,11.95588 2.82266,11.95588 0.37117,0 1.0009,0.715598 1.3994,1.590214 0.9289,2.038704 1.46386,1.413003 2.32757,-2.722385 z M 105.04404,-175.96181 c 6.3e-4,-0.25957 1.09139,-3.02043 2.42348,-6.13526 1.3321,-3.11482 3.03253,-8.01485 3.77875,-10.88895 2.03541,-7.83951 5.03169,-13.14687 10.52127,-18.63644 5.06107,-5.06107 7.98976,-6.6461 17.14005,-9.27634 9.31839,-2.67856 15.20975,-5.07308 16.79715,-6.82714 1.06523,-1.17706 1.44468,-4.32482 0.67205,-5.57497 -0.24815,-0.40152 -2.48461,-2.10276 -4.96992,-3.78055 -6.01473,-4.06043 -9.55707,-8.03623 -12.13889,-13.62423 -1.17333,-2.53952 -2.13333,-4.92797 -2.13333,-5.30767 0,-2.19856 -2.92908,-8.81991 -4.83477,-10.92929 -2.7805,-3.07767 -3.97482,-5.90895 -3.97482,-9.42272 0,-3.63948 -1.41104,-8.17425 -3.46635,-11.14006 -0.91569,-1.32134 -1.57267,-2.94684 -1.45995,-3.6122 0.11272,-0.66537 -0.55544,-2.31759 -1.48479,-3.6716 -2.26807,-3.30442 -2.69865,-5.43495 -1.76925,-8.75441 0.99047,-3.53763 0.7145,-4.50826 -3.13055,-11.01054 -2.66841,-4.5125 -3.16107,-5.83862 -3.15587,-8.49497 0.0112,-5.74289 4.17097,-12.43164 9.77302,-15.71465 2.52598,-1.48034 5.72599,-5.07339 9.49196,-10.65784 0.73552,-1.09068 2.58347,-3.26527 4.10656,-4.83241 2.46286,-2.5341 3.63769,-3.13651 10.61857,-5.44477 8.95315,-2.96041 13.91867,-3.96986 20.09094,-4.08431 3.95329,-0.0733 4.84781,0.17536 10.51258,2.92234 3.40539,1.65136 8.58798,3.70049 11.51687,4.55363 16.50214,4.80685 26.45221,15.93084 26.45221,29.57306 0,8.69351 -2.9655,13.60798 -10.42825,17.28188 -2.23819,1.10186 -4.15082,1.89097 -4.2503,1.75358 -5.79049,-7.99775 -11.63047,-11.43012 -21.32988,-12.53636 -2.70191,-0.30816 -7.66907,-1.44853 -11.03816,-2.53416 -7.96122,-2.56538 -14.65207,-3.0795 -17.76686,-1.36522 -1.21132,0.66668 -3.12269,2.40873 -4.24749,3.87122 -2.44132,3.17429 -2.64321,6.09277 -0.78657,11.37084 1.79189,5.09399 1.65251,8.87406 -0.41795,11.33466 -2.23258,2.65327 -1.25748,3.26608 4.50812,2.83317 3.28223,-0.24645 5.20664,-0.0471 7.55108,0.78235 3.06695,1.08503 3.20182,1.08115 5.34869,-0.15403 3.32576,-1.91344 11.85604,-1.6683 18.63674,0.53557 5.91658,1.92302 8.4213,3.63528 8.4213,5.75692 0,1.97312 -0.88747,2.43019 -5.00769,2.57911 -2.84935,0.10299 -3.66945,0.40107 -4.72596,1.71771 -2.13486,2.6605 -6.22682,3.65989 -9.28329,2.26726 -0.80133,-0.36511 -2.14777,-1.67201 -2.9921,-2.90423 -0.84433,-1.23222 -2.45375,-2.67844 -3.57648,-3.21384 -3.45013,-1.64525 -4.13707,-0.39538 -4.93784,8.98431 -0.20683,2.42264 -0.52511,5.18252 -0.70728,6.13307 -0.44883,2.34184 0.83954,5.9932 2.41152,6.8345 0.78623,0.42078 2.59719,0.52337 4.66903,0.26452 1.86154,-0.23259 3.38462,-0.17489 3.38462,0.12821 0,0.3031 -0.97213,1.49332 -2.16028,2.64492 -1.18815,1.1516 -2.49006,2.89001 -2.89314,3.86312 -0.49032,1.18374 -1.26916,1.83322 -2.35331,1.96247 -0.89125,0.10625 -1.73667,0.54713 -1.87872,0.97975 -0.19491,0.59355 1.1829,0.77571 5.61478,0.74234 3.23019,-0.0243 6.4394,-0.2683 7.13158,-0.54218 1.57325,-0.62248 2.83165,-0.18521 2.83165,0.98394 0,1.29509 -2.69382,2.1195 -6.92565,2.1195 -3.8492,0 -5.02797,0.68871 -3.771,2.20325 0.48034,0.57877 1.37875,0.76153 2.5712,0.52304 2.93641,-0.58729 2.13696,0.5471 -2.2916,3.25165 -4.99723,3.05184 -7.38205,5.40616 -6.85842,6.77071 0.51975,1.35445 1.6065,1.69324 6.82825,2.12873 3.8094,0.31769 5.21256,0.12286 9.50334,-1.31954 2.76873,-0.93074 6.77775,-2.6165 8.90893,-3.74612 l 3.87488,-2.05387 0.3726,1.86304 c 0.20494,1.02468 0.37261,2.64732 0.37261,3.60587 0,2.79769 2.4337,9.88868 4.03138,11.74609 l 1.46927,1.70813 3.58909,-2.17118 c 4.86026,-2.94016 10.06627,-7.67045 11.04659,-10.03717 0.59996,-1.44843 0.63051,-2.32788 0.11977,-3.44883 l -0.68556,-1.50462 4.11357,1.54834 c 2.26246,0.85159 5.21011,2.10776 6.55034,2.79149 2.59854,1.32568 5.62687,1.62375 6.60854,0.65047 0.67201,-0.66627 12.37481,1.17747 17.76035,2.79809 4.6699,1.40527 8.9516,3.31034 8.9516,3.98287 0,0.73817 -15.61783,8.45268 -26.11416,12.89923 -4.49918,1.90598 -12.71098,5.56932 -18.24844,8.14074 -26.48215,12.29748 -57.56047,23.22634 -88.2569,31.03602 -14.03319,3.57027 -14.6275,3.68938 -14.62511,2.93096 z M 123.823,-317.22993 c -1.08417,-1.99146 -0.8913,-9.0692 0.33705,-12.36867 1.4595,-3.92039 0.81385,-3.90395 -1.43668,0.0366 -3.14001,5.49795 -3.19804,9.20725 -0.19787,12.64671 1.36769,1.56795 2.21106,1.36345 1.2975,-0.31464 z m 81.32272,38.03457 c -0.0283,-0.45213 -0.89647,-1.59396 -1.92942,-2.53742 -2.25203,-2.05691 -3.23212,-6.25677 -3.10741,-13.31585 0.0459,-2.59568 -0.11134,-5.46924 -0.34933,-6.38569 -0.39751,-1.53078 -0.0702,-1.90073 4.02518,-4.55004 2.45183,-1.58608 5.73731,-4.06314 7.30109,-5.50457 l 2.84321,-2.62078 -2.21856,4.67166 c -2.60389,5.48303 -3.90194,11.651 -4.28632,20.36736 -0.16455,3.73117 -0.6743,7.18906 -1.25231,8.49497 -0.53614,1.21132 -0.9979,1.83248 -1.02613,1.38036 z"
           id="path5549"
           inkscape:connector-curvature="0"
           sodipodi:nodetypes="ccccccsscccsssssssccssssssssssssscsssssssssssssssssssssssssssssscsssssssssssscssssssssccssssssssscssssssscsssssssssssssssssssssssssscssssssscsssssssssssssssscssssssssssscssscssscsssssssscssssscscssscsssc" />
        <path
           style="fill:#b63b30"
           d="m 286.26852,-37.682581 0,-116.412519 116.41252,0 116.41251,0 0,116.412519 0,116.412515 -116.41251,0 -116.41252,0 z m 64.81896,92.134452 c 31.26867,-7.74836 62.56819,-18.81612 92.80988,-32.818318 4.84528,-2.243414 12.77391,-5.77396 17.61919,-7.845662 10.1532,-4.341218 23.59713,-11.0638646 23.59713,-11.7997553 0,-1.38445316 -11.6301,-5.0270196 -20.37017,-6.3799722 -3.86648,-0.5985302 -5.4128,-0.6006571 -7.04709,-0.00969 -1.80699,0.6534203 -2.43522,0.582868 -4.5876,-0.5151915 -2.18255,-1.1134574 -10.54854,-4.4493052 -11.15842,-4.4493052 -0.12319,0 -0.0571,0.8344575 0.1469,1.854357 0.25982,1.299107 -0.0388,2.5173042 -0.9975,4.0684223 -1.34741,2.1801547 -7.86325,7.4835691 -11.80109,9.6052344 -1.91986,1.0343913 -2.07292,1.0311003 -3.29042,-0.070716 -1.77861,-1.6096264 -3.81969,-7.3927484 -4.25521,-12.0565421 -0.20127,-2.155318 -0.55736,-4.2284994 -0.79133,-4.6070664 -0.28277,-0.457527 -1.57262,-0.06882 -3.84706,1.159343 -8.10146,4.3746816 -17.85491,6.2358597 -23.0989,4.4077931 -4.05149,-1.4123544 -2.70239,-3.9334908 4.39261,-8.2086811 4.44077,-2.675852 4.51898,-2.7652 2.58507,-2.953027 -1.09684,-0.106533 -2.35109,-0.62365 -2.78722,-1.149161 -1.18248,-1.424808 0.30733,-2.096936 4.67347,-2.108432 4.04415,-0.01064 6.09389,-0.789183 6.09389,-2.314596 0,-0.835483 -0.44483,-0.921628 -2.67435,-0.517922 -3.08355,0.558346 -3.77544,0.59052 -9.17666,0.426718 -2.86639,-0.08693 -3.91278,-0.341699 -3.72701,-0.907433 0.14205,-0.432614 1.01938,-0.876579 1.9496,-0.986586 1.22543,-0.144924 1.92914,-0.769172 2.55463,-2.266174 0.4748,-1.136381 1.74482,-2.693855 2.82225,-3.461058 1.07743,-0.767196 1.95897,-1.800373 1.95897,-2.295938 0,-1.045749 -0.1375,-1.058095 -3.38729,-0.304163 -3.27017,0.758657 -5.27852,-0.09904 -6.37463,-2.722392 -0.76667,-1.834907 -0.76904,-3.238043 -0.0169,-10.024999 0.85558,-7.72044 1.62658,-10.502731 2.9104,-10.502731 1.48128,0 4.23966,1.961438 5.64723,4.015653 0.83203,1.214264 2.16841,2.506481 2.96974,2.871595 2.99621,1.36516 6.97042,0.438214 9.44624,-2.203249 1.42251,-1.517679 2.381,-1.762064 6.13616,-1.56454 1.22171,0.06427 2.33295,-0.3621 3.0719,-1.178636 1.06418,-1.175911 1.07838,-1.400486 0.1756,-2.778295 -2.02877,-3.096302 -11.43012,-6.144875 -19.30005,-6.258418 -3.75935,-0.05424 -5.29295,0.2199 -7.41692,1.325819 -2.48684,1.294859 -2.80967,1.325913 -4.53086,0.435848 -1.27784,-0.660789 -3.70749,-0.958345 -7.82529,-0.958345 -6.68247,0 -7.70948,-0.579647 -5.18102,-2.924169 1.38281,-1.282218 1.64838,-2.065253 1.63117,-4.809694 -0.0113,-1.802972 -0.56838,-4.835543 -1.23797,-6.739045 -2.19306,-6.23445 -1.50036,-9.256198 3.06801,-13.383437 4.14449,-3.744298 9.1018,-3.839322 19.80113,-0.379555 3.16913,1.024776 7.60263,2.032235 9.85222,2.238789 9.30538,0.854399 18.53402,5.894884 21.94171,11.984096 0.52607,0.940015 0.80562,0.933666 3.45593,-0.07849 3.33302,-1.272892 8.80632,-5.952958 10.26832,-8.780153 1.56344,-3.023352 1.8535,-11.950241 0.53561,-16.483631 -3.16348,-10.88198 -12.7383,-18.98254 -27.07183,-22.90352 -2.7657,-0.75656 -7.15477,-2.56115 -9.75349,-4.01019 l -4.72493,-2.63463 -6.6072,0.0426 c -7.29772,0.0471 -14.40814,1.55204 -22.65325,4.79477 -5.05124,1.98661 -9.98058,6.07129 -11.36753,9.41966 -0.40757,0.98396 -0.99336,1.78901 -1.30176,1.78901 -0.30841,0 -1.54105,1.53249 -2.73922,3.40552 -1.54548,2.41598 -3.16846,3.97193 -5.58548,5.35481 -3.86072,2.20889 -6.05376,4.79278 -8.37962,9.873162 -2.13435,4.662032 -1.82337,8.413668 1.07673,12.989888 4.34038,6.848869 4.457,7.225744 3.99856,12.921745 -0.41348,5.137353 -0.38985,5.258347 1.5565,7.968575 1.08699,1.513614 1.97635,3.471862 1.97635,4.351664 0,0.879801 0.70387,2.63685 1.56415,3.904551 1.9393,2.857713 2.83257,5.971351 2.83713,9.889243 0.004,3.391789 1.38236,6.516559 4.54378,10.300538 1.16245,1.391369 2.49162,3.778599 2.95372,5.304956 2.66429,8.800585 3.50526,10.90852 5.67379,14.221658 2.87218,4.3882107 4.67988,6.1364624 10.43316,10.0900454 9.47317,6.5098382 6.34646,10.4637924 -12.54254,15.8609786 -9.96155,2.84633 -13.44788,4.854811 -18.91653,10.897872 -4.24585,4.691809 -7.25043,10.466134 -9.39395,18.053656 -1.4167,5.014755 -2.4295,7.728633 -5.82615,15.611692 -0.50722,1.177195 0.38088,1.034121 13.01563,-2.096759 z m 4.19391,-138.684388 c -3.04698,-3.621134 -2.76947,-7.442434 0.9722,-13.386778 1.03477,-1.643934 1.97822,-2.988975 2.09654,-2.988975 0.11833,0 -0.33593,1.601746 -1.00948,3.559427 -1.44553,4.201504 -1.59816,10.497169 -0.31417,12.95857 1.1921,2.285253 0.23164,2.206967 -1.74509,-0.142244 z M 439.74,-50.141376 c 0.38305,-1.834013 0.70258,-5.373583 0.71006,-7.865711 0.018,-5.990575 1.94418,-14.460051 4.41473,-19.411875 l 1.99416,-3.99697 -2.73931,2.648297 c -1.50662,1.45656 -4.72147,4.026533 -7.14411,5.711041 -2.67162,1.857648 -4.30966,3.415367 -4.16301,3.958906 0.13298,0.492884 0.30301,4.152554 0.37785,8.132603 0.13554,7.208754 1.25629,11.95588 2.82266,11.95588 0.37117,0 1.0009,0.715598 1.3994,1.590214 0.9289,2.038704 1.46386,1.413003 2.32757,-2.722385 z"
           id="path5551"
           inkscape:connector-curvature="0"
           sodipodi:nodetypes="ccccccccccsssssssccssssssssssssscsssssssssssssssssssssssssssssscsssssssssssscssssssssccssssssssscsssssss" />
        <path
           style="fill:#372142"
           d="m 340.46798,-181.51477 c 1.3854,-3.31567 3.09671,-8.34265 3.8029,-11.17108 1.64261,-6.57894 4.76649,-12.55444 9.02107,-17.2559 5.25305,-5.8048 8.96315,-8.01264 17.61162,-10.48046 10.93373,-3.11992 14.8404,-4.71904 17.14725,-7.01894 3.62547,-3.61454 2.87423,-5.56398 -3.85447,-10.00214 -2.81184,-1.85466 -5.72963,-4.03558 -6.48395,-4.84651 -2.42408,-2.60594 -5.77778,-8.74995 -7.11611,-13.03679 -0.71584,-2.29297 -1.60139,-5.10697 -1.96788,-6.25334 -0.36648,-1.14637 -2.01342,-3.86406 -3.65986,-6.0393 -2.76291,-3.65032 -4.26271,-7.3238 -3.49639,-8.56373 0.65125,-1.05375 -1.11793,-7.33245 -2.88966,-10.2552 -1.01046,-1.66693 -1.83721,-3.82679 -1.83721,-4.79969 0,-0.9729 -0.44342,-2.13692 -0.98538,-2.5867 -2.54386,-2.11122 -3.4162,-6.28596 -2.19978,-10.52738 0.71275,-2.48523 -0.0346,-5.00237 -2.60972,-8.79006 -5.36925,-7.89742 -5.4839,-11.87109 -0.56222,-19.48589 1.84061,-2.84778 3.33495,-4.29039 6.05823,-5.84848 2.55158,-1.45988 4.17293,-2.96589 5.51187,-5.1198 1.04332,-1.67834 2.13202,-3.05153 2.41935,-3.05153 0.28732,0 1.07113,-1.06187 1.74178,-2.35971 2.36727,-4.5811 6.2058,-7.5426 12.85794,-9.92017 9.13247,-3.26407 14.42914,-4.34047 21.50128,-4.36955 6.23629,-0.0257 6.33482,-0.003 11.0175,2.60875 2.59872,1.44904 6.98779,3.25363 9.75349,4.01019 16.4033,4.48717 26.83189,14.88416 27.80253,27.71828 0.67381,8.90936 -1.56619,14.05998 -7.87544,18.10861 -3.13047,2.00882 -7.03284,3.20194 -7.03284,2.15024 0,-0.32743 -1.29005,-1.9417 -2.86676,-3.58725 -3.97691,-4.15054 -10.69512,-7.26872 -17.23775,-8.0007 -2.75133,-0.30782 -7.2112,-1.24733 -9.91083,-2.08781 -8.0017,-2.49118 -10.1301,-2.94118 -13.99851,-2.95969 -4.27981,-0.0204 -6.60832,1.00719 -9.34524,4.12437 -3.00913,3.42721 -3.4855,6.07295 -1.92348,10.68305 0.71544,2.11156 1.44589,5.4056 1.62321,7.32009 0.28799,3.1092 0.14162,3.69573 -1.37077,5.49311 -0.93125,1.10673 -1.51459,2.30119 -1.29632,2.65437 0.22217,0.35949 2.88226,0.64214 6.04325,0.64214 3.56346,0 6.46923,0.34381 7.87696,0.93199 2.0728,0.86607 2.41629,0.83547 4.85653,-0.43266 2.01047,-1.04481 3.65836,-1.35124 7.03075,-1.30742 8.0919,0.10516 18.00041,3.28948 19.3324,6.2129 1.16268,2.55179 0.26405,3.40478 -3.58696,3.40478 -3.01308,0 -3.7538,0.25556 -5.45615,1.88242 -2.2352,2.13607 -5.66876,3.30031 -8.04855,2.72908 -0.88631,-0.21275 -3.03816,-1.9037 -4.78188,-3.75766 -3.25778,-3.46377 -5.14538,-4.1593 -6.58388,-2.42601 -0.43129,0.51967 -1.20664,4.66684 -1.723,9.21595 -0.85437,7.52686 -0.84766,8.4623 0.0745,10.39606 1.27739,2.6787 3.19243,3.43995 6.68159,2.65598 1.4767,-0.33179 2.84151,-0.44665 3.03291,-0.25524 0.19141,0.1914 -0.7268,1.44871 -2.04046,2.79402 -1.31366,1.3453 -2.71109,3.07812 -3.10539,3.8507 -0.39431,0.77258 -0.85852,1.31782 -1.03156,1.21164 -0.49516,-0.30381 -3.14629,1.26222 -3.14629,1.85852 0,0.84699 8.81277,1.19777 12.1106,0.48205 3.22349,-0.69959 3.85352,-0.51326 3.28388,0.9712 -0.27123,0.70682 -1.67208,1.03082 -5.38662,1.24585 -2.76103,0.15984 -5.2995,0.57006 -5.64105,0.91161 -0.82546,0.82545 1.11216,2.54789 3.18428,2.83067 1.41323,0.19287 1.22133,0.42921 -1.88777,2.32502 -4.05608,2.47323 -7.55109,5.64597 -7.55109,6.85481 0,1.39572 4.07697,2.67611 8.52112,2.67611 4.57266,0 11.00884,-1.86918 17.20333,-4.99615 l 3.64592,-1.84046 0.78523,5.14876 c 0.86505,5.67221 2.6455,10.43434 4.54329,12.15181 1.16986,1.05872 1.33327,1.06023 3.24541,0.03 3.9329,-2.11901 10.45293,-7.42387 11.79668,-9.5981 0.88191,-1.42697 1.26697,-2.86771 1.08954,-4.07662 -0.32633,-2.22344 -0.43599,-2.24243 8.08413,1.3996 5.05822,2.16221 5.94074,2.36433 7.40669,1.6964 1.3016,-0.59305 2.77273,-0.5886 6.75115,0.0204 9.77394,1.49621 21.14467,5.10694 20.31419,6.45067 -0.54809,0.88684 -14.25282,7.6152 -23.95369,11.76012 -4.79034,2.04678 -12.8156,5.62894 -17.83393,7.96035 -32.72158,15.20181 -63.85423,25.78788 -103.62932,35.23721 -1.30458,0.30993 -1.24594,0.0176 1.14383,-5.7018 z m 16.55983,-135.85226 c -1.54796,-3.70478 -1.08209,-9.0351 1.32168,-15.12238 0.47693,-1.20777 0.44655,-1.21437 -0.75359,-0.16354 -2.28928,2.00444 -4.30551,6.84665 -4.30862,10.34765 -0.003,2.75399 0.28506,3.56284 1.84528,5.19136 2.41559,2.52134 3.02072,2.44053 1.89525,-0.25309 z m 79.04949,35.39207 -2.15675,-2.46196 -0.39714,-8.29482 c -0.21842,-4.56216 -0.52213,-8.69809 -0.6749,-9.19098 -0.17398,-0.56128 1.36821,-2.04104 4.12702,-3.95999 2.42264,-1.6851 5.46667,-4.10017 6.76452,-5.3668 1.29784,-1.26664 2.35971,-2.1124 2.35971,-1.87947 0,0.23294 -0.82717,2.06019 -1.83815,4.06057 -2.2861,4.52336 -3.63728,10.98185 -4.37825,20.92754 -0.31485,4.22614 -0.81475,7.89628 -1.11088,8.15588 -0.29614,0.2596 -1.50897,-0.63589 -2.69518,-1.98997 z"
           id="path5553"
           inkscape:connector-curvature="0"
           sodipodi:nodetypes="csssssssssssssssssssssscssssssscsssssssssssssssssscsscsssssssssscssssssssssssccssscssscscssssscs" />
        <path
           style="fill:#343887"
           d="m 105.24412,56.234002 c 0.1916,-0.60566 1.34047,-3.508107 2.55305,-6.449883 1.21258,-2.941776 2.79715,-7.572741 3.52126,-10.29103 2.02091,-7.586427 5.05362,-12.894995 10.44911,-18.290476 4.95918,-4.959192 7.8024,-6.50566 16.43074,-8.936964 8.48545,-2.3910373 16.30672,-5.6268019 17.69761,-7.3217429 0.45508,-0.5545641 0.85355,-1.9273948 0.88549,-3.0507441 0.0641,-2.25336879 -0.0184,-2.33592729 -7.65816,-7.6714275 -6.21952,-4.3435965 -9.40918,-9.0839765 -12.27983,-18.2499085 -1.48421,-4.739053 -2.78385,-7.600913 -4.28732,-9.440897 -3.19949,-3.915608 -4.23101,-6.310591 -4.23101,-9.823581 0,-3.702408 -1.38069,-8.123554 -3.5701,-11.431985 -0.85856,-1.297383 -1.47263,-2.880688 -1.36458,-3.518465 0.10805,-0.637777 -0.57568,-2.171899 -1.51939,-3.409162 -2.20204,-2.887037 -2.71189,-5.546044 -1.73346,-9.040634 0.96232,-3.437058 0.41253,-5.271775 -3.27631,-10.93364 -2.14981,-3.299646 -2.67365,-4.702241 -2.89401,-7.748819 -0.47019,-6.50023 3.70261,-13.077383 11.07487,-17.456173 1.39256,-0.82712 2.80481,-2.10136 3.13835,-2.83166 0.33354,-0.7303 1.5644,-2.52134 2.73524,-3.98009 1.17085,-1.45875 3.26147,-4.10836 4.64584,-5.88805 2.81262,-3.61578 5.13035,-4.98581 12.848,-7.59456 6.90933,-2.33553 14.18188,-3.6867 19.84318,-3.6867 4.18703,0 5.04789,0.24728 10.78517,3.098 3.42921,1.70391 8.07552,3.56826 10.32511,4.143 12.96097,3.31136 23.06636,12.07151 26.14612,22.66552 1.30529,4.490027 1.00706,13.432383 -0.54827,16.440067 -1.46385,2.830769 -6.93685,7.507853 -10.27914,8.784287 l -2.89438,1.105372 -1.30329,-1.846655 c -4.09593,-5.803541 -12.21492,-10.212971 -19.82736,-10.768246 -2.24338,-0.163644 -7.07904,-1.238176 -10.74589,-2.38786 -7.47219,-2.342779 -12.78077,-3.19429 -15.79158,-2.533004 -2.31578,0.508629 -6.56736,4.105738 -7.90104,6.684784 -1.21534,2.350199 -1.10704,5.202759 0.35536,9.360076 0.66959,1.903502 1.22668,4.961055 1.23797,6.794558 0.0174,2.831128 -0.23662,3.571983 -1.68551,4.914767 -2.35014,2.178034 -1.26309,2.694119 5.44515,2.585157 3.94714,-0.06412 5.90613,0.191407 7.33622,0.956917 1.85289,0.991816 2.08406,0.978608 4.59231,-0.262381 3.74326,-1.852016 7.29948,-2.079663 13.35672,-0.855028 6.94721,1.40457 11.78265,3.402562 13.34703,5.514945 1.23317,1.665171 1.2366,1.752216 0.11735,2.98897 -0.87536,0.967256 -1.93886,1.273855 -4.41868,1.273855 -2.51972,0 -3.53939,0.302245 -4.4631,1.322937 -1.81255,2.002837 -4.31767,3.081861 -7.15502,3.081861 -2.2983,0 -2.92594,-0.381191 -6.21656,-3.775541 -5.80589,-5.988902 -6.6378,-5.360274 -7.87783,5.95287 -1.31844,12.028371 -0.34392,14.08499 6.28184,13.257158 4.02462,-0.502845 4.53242,0.470162 1.43899,2.757234 -1.07009,0.791152 -2.33234,2.364024 -2.805,3.495264 -0.62499,1.4958 -1.38155,2.161233 -2.77381,2.439685 -1.05293,0.210587 -1.91442,0.714326 -1.91442,1.119423 0,0.541375 2.08415,0.64653 7.86571,0.396841 6.37662,-0.275388 7.86571,-0.177784 7.86571,0.515569 0,1.364348 -2.16446,2.158055 -5.8851,2.158055 -3.9678,0 -5.44152,0.426051 -5.44152,1.573142 0,1.083549 1.28447,1.513948 3.34348,1.120348 2.94672,-0.563305 1.84375,0.856318 -3.02109,3.888442 -7.06006,4.4003365 -8.06641,6.6244259 -3.56338,7.8751745 5.62241,1.5616645 13.17328,0.109497 21.67281,-4.1680777 2.35045,-1.1829148 4.54498,-1.9829958 4.87674,-1.7779588 0.33176,0.205043 0.6032,1.7420912 0.6032,3.4156626 0,3.9136378 2.14399,10.8519118 4.03138,13.0461241 l 1.46927,1.7081303 3.63351,-2.1711815 c 4.69777,-2.8071274 10.00407,-7.6275494 10.974,-9.9691399 0.59164,-1.4283439 0.59455,-2.1555445 0.013,-3.2421704 -0.71096,-1.3284367 -0.65677,-1.3780473 1.04851,-0.9600823 0.98901,0.2424086 4.12525,1.4349258 6.96943,2.6500459 4.56668,1.9510234 5.56528,2.1600626 8.54205,1.7881403 6.4456,-0.8053229 26.87378,4.27628476 26.87378,6.6849793 0,0.682322 -12.1945,6.8200555 -22.33861,11.2434726 -4.1531,1.810989 -12.22332,5.426579 -17.93382,8.034654 -32.99833,15.070821 -61.11057,25.037846 -93.54534,33.165957 -12.90487,3.233946 -13.72689,3.343481 -13.22676,1.762473 z m 18.36977,-141.308647 c -0.52368,-1.253341 -0.95215,-3.077903 -0.95215,-4.054579 0,-1.62734 1.17618,-6.846528 2.23236,-9.905899 0.23896,-0.692183 -0.32225,-0.189444 -1.24713,1.117201 -3.82716,5.406902 -4.23485,10.067531 -1.19652,13.678389 2.01997,2.40059 2.40109,2.12702 1.16344,-0.835112 z m 79.48735,36.318628 c -2.51009,-2.975372 -2.75481,-4.201749 -3.22922,-16.183013 l -0.21965,-5.547088 4.29512,-2.778496 c 2.36232,-1.528176 5.60796,-3.987387 7.21255,-5.464907 l 2.91741,-2.686411 -2.05097,4.066396 c -2.45201,4.861525 -4.3954,13.698506 -4.40679,20.038659 -0.008,4.321447 -0.96167,10.019487 -1.82428,10.897237 -0.21252,0.216244 -1.42489,-0.837824 -2.69417,-2.342377 z m 331.72373,-148.128543 0,-38.38467 25.48491,0 25.4849,0 0,38.38467 0,38.38467 -25.4849,0 -25.48491,0 z m 27.37922,18.47852 c 0.76932,0.29521 0.84115,0.1367 0.35209,-0.77709 -0.42316,-0.79071 -0.37874,-1.39579 0.14276,-1.94434 0.60349,-0.63478 0.46983,-0.70958 -0.65871,-0.36862 -0.85114,0.25715 -1.41583,0.15987 -1.41583,-0.2439 0,-0.36942 -0.28316,-0.67166 -0.62925,-0.67166 -0.34609,0 -0.62926,0.42474 -0.62926,0.94388 0,0.51914 -0.25652,0.94389 -0.57005,0.94389 -0.31353,0 -0.24605,0.68657 0.14997,1.52572 0.52933,1.12165 0.92817,1.35298 1.50593,0.87349 0.43224,-0.35874 1.2208,-0.48535 1.75235,-0.28137 z m -8.89677,-2.37801 c 0.41913,0.15986 0.73618,-0.48189 0.77408,-1.56683 0.0476,-1.36332 -0.17176,-1.74703 -0.85007,-1.48674 -0.50285,0.19296 -1.16453,-0.0444 -1.47039,-0.52742 -0.47297,-0.74696 -0.55756,-0.74752 -0.56576,-0.004 -0.005,0.48098 -0.50517,1.25068 -1.11083,1.71044 -1.04876,0.79612 -1.04876,0.83689 0,0.85595 0.60907,0.0111 1.1012,0.49807 1.1012,1.08974 0,0.79063 0.18419,0.88555 0.70594,0.3638 0.38826,-0.38826 1.02539,-0.58409 1.41583,-0.43519 z m 16.12668,0.21776 c 0,-0.40377 0.56469,-0.50105 1.41583,-0.2439 1.10967,0.33526 1.25637,0.25981 0.67842,-0.3489 -0.40556,-0.42717 -0.61783,-1.09612 -0.47169,-1.48656 0.14614,-0.39043 -0.38917,-1.01212 -1.18958,-1.38152 -1.2482,-0.57606 -1.5532,-0.46413 -2.14344,0.78657 -0.37849,0.80201 -0.43164,1.4582 -0.1181,1.4582 0.31352,0 0.57005,0.42475 0.57005,0.94389 0,0.51913 0.28316,0.94388 0.62925,0.94388 0.34609,0 0.62926,-0.30224 0.62926,-0.67166 z m -23.61412,-6.22268 c 0.20456,-0.33098 0.85839,-0.43089 1.45297,-0.22202 0.87196,0.30632 0.93181,0.21871 0.30944,-0.45299 -0.56495,-0.60973 -0.58644,-1.05583 -0.0803,-1.66575 0.53285,-0.64204 0.41401,-0.83301 -0.51838,-0.83301 -0.66534,0 -1.59105,-0.35395 -2.05713,-0.78657 -0.6814,-0.63247 -0.75535,-0.62427 -0.37747,0.0419 0.28035,0.4942 0.0281,1.15153 -0.62522,1.62926 -1.02669,0.75073 -1.02813,0.82654 -0.0232,1.2122 0.58963,0.22626 0.89581,0.69655 0.68041,1.04509 -0.21541,0.34853 -0.10849,0.6337 0.23761,0.6337 0.34609,0 0.79661,-0.27081 1.00117,-0.60178 z m 29.90669,-0.0699 c 0,-0.40377 0.56469,-0.50105 1.41583,-0.2439 1.12853,0.34096 1.26219,0.26616 0.6587,-0.36862 -0.52149,-0.54855 -0.56592,-1.15363 -0.14275,-1.94434 0.48905,-0.91379 0.41723,-1.0723 -0.3521,-0.77709 -0.53155,0.20398 -1.32011,0.0774 -1.75235,-0.28137 -0.57776,-0.47949 -0.97659,-0.24816 -1.50593,0.87349 -0.39601,0.83915 -0.4635,1.52572 -0.14997,1.52572 0.31353,0 0.57005,0.42475 0.57005,0.94389 0,0.51914 0.28317,0.94388 0.62926,0.94388 0.34609,0 0.62926,-0.30224 0.62926,-0.67166 z m -31.56772,-8.76719 c 0.7004,0 1.04876,-0.52484 1.04876,-1.58009 0,-0.98735 -0.28883,-1.46927 -0.76993,-1.28466 -0.42346,0.1625 -1.05197,-0.18833 -1.39669,-0.77961 -0.54996,-0.94334 -0.62911,-0.90158 -0.6459,0.34076 -0.0123,0.9141 -0.40937,1.42261 -1.12033,1.43497 -1.04877,0.0182 -1.04877,0.0496 0,0.66052 0.60566,0.35276 1.12355,1.12286 1.15088,1.71132 0.0304,0.6556 0.17258,0.76533 0.36706,0.28336 0.17456,-0.43261 0.78933,-0.78657 1.36615,-0.78657 z m 35.7513,-1.71413 c 0.0613,-0.99708 -0.18217,-1.412 -0.7099,-1.2095 -0.44181,0.16954 -1.12097,-0.009 -1.50923,-0.39767 -0.52175,-0.52175 -0.70594,-0.42683 -0.70594,0.36379 0,0.59201 -0.49178,1.07829 -1.1012,1.08888 -1.04876,0.0182 -1.04876,0.0496 0,0.66052 0.60566,0.35276 1.1012,1.02543 1.1012,1.49481 0,1.59299 2.82272,-0.33783 2.92507,-2.00083 z m -34.09027,-6.43873 c 0.20456,-0.33097 0.71681,-0.46942 1.13834,-0.30767 0.49198,0.18879 0.76642,-0.34852 0.76642,-1.50057 0,-1.39942 -0.24253,-1.73126 -1.1012,-1.50671 -0.60566,0.15839 -1.1012,-0.0282 -1.1012,-0.41468 0,-0.38646 -0.29988,-0.70264 -0.6664,-0.70264 -0.36651,0 -0.47974,0.302 -0.25161,0.67112 0.22813,0.36912 -0.078,1.03149 -0.6804,1.47194 -1.02669,0.75073 -1.02813,0.82655 -0.0232,1.2122 0.58963,0.22626 0.89581,0.69655 0.68041,1.04509 -0.21541,0.34853 -0.10849,0.6337 0.23761,0.6337 0.34609,0 0.79661,-0.2708 1.00117,-0.60178 z m 29.90669,-0.0699 c 0,-0.40378 0.56469,-0.50105 1.41583,-0.2439 1.12853,0.34095 1.26219,0.26615 0.6587,-0.36863 -0.52149,-0.54855 -0.56592,-1.15363 -0.14275,-1.94433 0.48905,-0.9138 0.41723,-1.07231 -0.3521,-0.77709 -0.53155,0.20397 -1.32011,0.0774 -1.75235,-0.28137 -0.57776,-0.4795 -0.97659,-0.24816 -1.50593,0.87349 -0.39601,0.83914 -0.4635,1.52572 -0.14997,1.52572 0.31353,0 0.57005,0.42475 0.57005,0.94388 0,0.51914 0.28317,0.94389 0.62926,0.94389 0.34609,0 0.62926,-0.30224 0.62926,-0.67166 z m -22.41925,-6.51033 c 0.41913,0.15985 0.73618,-0.48189 0.77408,-1.56683 0.0476,-1.36332 -0.17176,-1.74703 -0.85007,-1.48674 -0.50285,0.19296 -1.16453,-0.0444 -1.47039,-0.52743 -0.45304,-0.71547 -0.5579,-0.68662 -0.56576,0.15561 -0.005,0.56864 -0.4408,1.19934 -0.96779,1.40156 -0.83272,0.31954 -0.81213,0.52195 0.15732,1.54608 0.6135,0.64811 1.36235,0.95983 1.66409,0.6927 0.30174,-0.26714 0.86808,-0.36386 1.25852,-0.21495 z m 16.12668,0.21776 c 0,-0.40948 0.55073,-0.49686 1.41089,-0.22386 1.23969,0.39346 1.30947,0.3256 0.57509,-0.55929 -0.4597,-0.5539 -0.69402,-1.23651 -0.52072,-1.5169 0.17329,-0.28041 -0.31551,-0.80742 -1.08624,-1.17115 -1.18931,-0.56126 -1.50543,-0.44069 -2.08948,0.79689 -0.37849,0.80201 -0.43164,1.4582 -0.1181,1.4582 0.31352,0 0.57005,0.42475 0.57005,0.94389 0,0.51913 0.28316,0.94388 0.62925,0.94388 0.34609,0 0.62926,-0.30224 0.62926,-0.67166 z m -7.29938,-2.47462 c 0.9647,0 1.08572,-0.1728 0.51838,-0.74014 -0.54049,-0.54048 -0.55365,-0.96484 -0.0488,-1.57314 0.53285,-0.64204 0.41401,-0.83301 -0.51838,-0.83301 -0.66534,0 -1.54951,-0.3398 -1.96482,-0.75511 -0.5873,-0.5873 -0.75511,-0.44747 -0.75511,0.62926 0,0.7614 -0.35396,1.40672 -0.78657,1.43405 -0.62926,0.0398 -0.62926,0.11315 0,0.36706 0.43261,0.17456 0.78657,0.91676 0.78657,1.64931 0,1.03595 0.16781,1.16413 0.75511,0.57683 0.41531,-0.41531 1.32144,-0.75511 2.01362,-0.75511 z m -224.26714,36.87788 c 0,-0.13654 1.11583,-3.03899 2.47961,-6.44988 1.36379,-3.41089 3.07109,-8.42197 3.79402,-11.13574 0.72292,-2.71376 1.98502,-6.2575 2.80465,-7.87497 4.44947,-8.78062 12.53334,-16.14949 20.18217,-18.39712 17.08453,-5.02035 20.81273,-6.63379 22.24981,-9.62904 1.26481,-2.63615 0.23202,-4.22605 -5.07047,-7.80564 -2.52682,-1.7058 -5.81438,-4.42605 -7.3057,-6.04502 -2.53027,-2.74685 -7.04199,-10.95019 -7.04199,-12.80398 0,-2.31496 -2.8752,-8.8941 -4.83477,-11.06312 -2.84847,-3.15291 -3.97482,-5.91813 -3.97482,-9.75824 0,-3.64174 -1.31462,-7.69145 -3.54143,-10.90948 -0.88114,-1.27334 -1.48435,-2.83075 -1.34047,-3.46091 0.14387,-0.63015 -0.42083,-2.07727 -1.25489,-3.21582 -2.2721,-3.10155 -2.77236,-5.54585 -1.95514,-9.55289 0.81197,-3.98127 0.46486,-5.05869 -3.84373,-11.93091 -2.10226,-3.3531 -2.5362,-4.59375 -2.5311,-7.23645 0.0111,-5.78671 4.15157,-12.46207 9.77302,-15.75645 2.52598,-1.48034 5.72599,-5.07339 9.49196,-10.65784 3.02508,-4.48581 6.79105,-7.58477 11.30542,-9.30303 10.26884,-3.90854 22.55135,-6.05107 27.86384,-4.86052 1.58544,0.3553 4.87142,1.73433 7.30218,3.06452 2.43076,1.33018 6.66558,3.02686 9.4107,3.77039 15.95604,4.32177 26.6613,15.13321 27.31477,27.58567 0.13229,2.52085 0.0472,6.13061 -0.18906,8.02167 -0.37044,2.96489 -0.85956,3.90877 -3.55225,6.85501 -2.76812,3.02875 -8.4577,6.69712 -10.28238,6.62958 -0.36466,-0.0135 -1.60951,-1.31059 -2.76633,-2.88243 -3.77298,-5.1266 -11.27965,-8.81732 -19.74418,-9.70743 -2.67166,-0.28094 -6.94896,-1.23266 -9.50512,-2.11493 -6.14356,-2.12047 -12.70679,-3.20661 -15.83009,-2.6197 -1.78535,0.33549 -3.35182,1.31717 -5.45014,3.41549 -3.85083,3.85083 -4.4127,6.45946 -2.52508,11.72332 0.79852,2.22677 1.35667,5.28438 1.35659,7.43164 -1.1e-4,3.10196 -0.24036,3.87091 -1.60436,5.13502 -2.22909,2.06584 -1.19111,2.53064 5.6944,2.54991 3.9115,0.0109 6.21484,0.3183 7.44632,0.99364 1.67208,0.91696 1.96571,0.88332 4.71943,-0.54066 2.63389,-1.362 3.49404,-1.48493 8.34903,-1.19322 8.85976,0.53233 18.81377,4.62121 18.81377,7.72826 0,1.45388 -2.03838,2.84164 -4.01862,2.73595 -3.77247,-0.20136 -4.81189,0.0332 -5.89834,1.331 -2.36696,2.82744 -6.56134,3.87628 -9.72924,2.43289 -0.80133,-0.36511 -2.14777,-1.67201 -2.9921,-2.90423 -1.81952,-2.65541 -5.32441,-4.58856 -6.38905,-3.52392 -0.98511,0.9851 -1.68038,5.07711 -2.18341,12.85039 -0.4314,6.66617 -0.42475,6.71127 1.23261,8.36863 1.55469,1.55469 1.91917,1.63774 5.43951,1.23946 4.46369,-0.50501 4.81625,0.13455 1.47784,2.68087 -1.26244,0.9629 -2.66627,2.63851 -3.11965,3.72358 -0.5901,1.41232 -1.36822,2.08163 -2.73872,2.35573 -1.05293,0.21059 -1.91442,0.69966 -1.91442,1.08684 0,0.77869 11.16333,0.498 13.6787,-0.34393 1.04834,-0.3509 1.51666,-0.18866 1.83269,0.63492 0.67513,1.75937 -1.45684,2.81092 -5.72086,2.82169 -2.09692,0.005 -4.20282,0.25681 -4.67978,0.55891 -1.39597,0.88419 -0.18595,1.94848 2.21528,1.94848 1.21974,0 2.12332,0.25441 2.00795,0.56535 -0.11536,0.31093 -2.47508,2.08072 -5.24381,3.93285 -7.33075,4.90388 -7.16085,6.9083 0.66008,7.78757 5.47394,0.61539 13.70474,-1.91953 23.00191,-7.08415 0.20871,-0.11594 0.53767,1.85188 0.73102,4.37294 0.37021,4.82725 2.27292,10.80797 4.19272,13.1788 l 1.14193,1.41023 3.63366,-2.171 c 4.74918,-2.83749 10.80739,-8.62788 11.35039,-10.84863 0.30645,-1.2533 0.10992,-2.10875 -0.68668,-2.98897 -1.60327,-1.7716 -0.55554,-1.55355 6.41277,1.33461 7.60249,3.15101 8.55802,3.3908 10.13934,2.5445 1.35215,-0.72365 9.62239,0.35668 16.82146,2.19737 4.8856,1.24917 11.08651,4.01659 10.63539,4.7465 -0.54666,0.88453 -14.37103,7.66663 -24.17696,11.86098 -4.86972,2.08297 -11.60209,5.08523 -14.96081,6.6717 -29.38722,13.88089 -61.23725,25.27598 -93.19523,33.34274 -12.79713,3.23023 -15.16576,3.72231 -15.16576,3.15065 z m 18.78042,-141.4918 c -1.06729,-1.96039 -0.86341,-9.02676 0.35688,-12.36867 1.45202,-3.97656 0.86262,-3.80374 -1.36949,0.40156 -2.7965,5.26861 -2.95613,9.06046 -0.49329,11.71791 1.88874,2.03799 2.53829,2.14548 1.5059,0.2492 z m 81.27142,38.11324 c 0,-0.37424 -0.84626,-1.50782 -1.88058,-2.51905 -2.25768,-2.2073 -3.27925,-6.58667 -3.05542,-13.09826 0.0833,-2.42264 -0.0644,-5.30484 -0.32807,-6.40488 -0.46039,-1.92048 -0.33386,-2.09235 3.17887,-4.31789 2.01209,-1.27479 5.28654,-3.72139 7.27657,-5.43689 1.99002,-1.71551 3.61823,-2.96221 3.61823,-2.77046 0,0.19176 -0.85802,1.9855 -1.90671,3.98611 -2.37634,4.53339 -4.36666,13.93159 -4.37759,20.67074 -0.004,2.8036 -0.33009,6.06001 -0.72341,7.23645 -0.76431,2.28608 -1.80189,3.81439 -1.80189,2.65413 z"
           id="path5555"
           inkscape:connector-curvature="0"
           sodipodi:nodetypes="cssssscssssssssssssssssssssscsssssscssssssssssssssssssssssssscsscssssssssssccsssssssscsscscsscccccccccccsssssssccccsccscssccsscssssssscsscssccccsccsscsccssssssscsccccsscccsccscccssssscccsccsscsscsssssscsscsscsssccsssssssssssscsssssssssssssssscssscsssssssssssssssssscsssssssssssssssssscsscssssscsssssscsssssssssssscsssscss" />
      </g>
    </g>
    <g
       transform="matrix(0.83232446,0,0,-0.83232446,246.53709,561.65604)"
       inkscape:label="logo"
       id="g4152">
      <g
         transform="scale(0.1,0.1)"
         id="g4154">
        <path
           inkscape:connector-curvature="0"
           id="path4156"
           style="fill:#fd1412;fill-opacity:1;fill-rule:nonzero;stroke:none"
           d="m 10,210 380,0 c -60,80 -60,240 0,320 l -380,0" />
        <path
           inkscape:connector-curvature="0"
           id="path4158"
           style="fill:#fd1412;fill-opacity:1;fill-rule:nonzero;stroke:none"
           d="m 810,530 0,-180 c 0,-60 44,-140 44,-140 l 336,0 0,320" />
        <path
           inkscape:connector-curvature="0"
           id="path4160"
           style="fill:#000000;fill-opacity:1;fill-rule:nonzero;stroke:none"
           d="m 430,210 c -60,80 -60,240 0,320 l 44,0 c -64,-80 -64,-240 0,-320" />
        <path
           inkscape:connector-curvature="0"
           id="path4162"
           style="fill:#000000;fill-opacity:1;fill-rule:nonzero;stroke:none"
           d="m 410,354 60,0 0,32 -60,0 0,-32 z" />
        <path
           inkscape:connector-curvature="0"
           id="path4164"
           style="fill:#000000;fill-opacity:1;fill-rule:nonzero;stroke:none"
           d="m 500,210 40,0 0,320 -40,0 0,-320 z" />
        <path
           inkscape:connector-curvature="0"
           id="path4166"
           style="fill:#000000;fill-opacity:1;fill-rule:nonzero;stroke:none"
           d="m 548,370 c 40,40 40,120 0,160 l 40,0 c 40,-40 40,-120 0,-160" />
        <path
           inkscape:connector-curvature="0"
           id="path4168"
           style="fill:#000000;fill-opacity:1;fill-rule:nonzero;stroke:none"
           d="m 630,210 0,160 c 0,80 40,160 40,160 l 44,0 c 0,0 -44,-80 -44,-160 l 0,-160" />
        <path
           inkscape:connector-curvature="0"
           id="path4170"
           style="fill:#000000;fill-opacity:1;fill-rule:nonzero;stroke:none"
           d="m 650,354 60,0 0,32 -60,0 0,-32 z" />
        <path
           inkscape:connector-curvature="0"
           id="path4172"
           style="fill:#000000;fill-opacity:1;fill-rule:nonzero;stroke:none"
           d="m 730,530 40,0 0,-180 c 0,-60 44,-140 44,-140 l -44,0 c 0,0 -40,80 -40,140" />
        <g
           transform="scale(10,10)"
           id="g4174">
          <text
             id="text4176"
             style="font-variant:normal;font-weight:normal;font-size:9.60000038px;font-family:'Times New Roman';-inkscape-font-specification:Times-Roman;writing-mode:lr-tb;fill:#000000;fill-opacity:1;fill-rule:nonzero;stroke:none"
             transform="matrix(0.875,0,0,-1,1,11)">
            <tspan
               id="tspan4178"
               sodipodi:role="line"
               y="0"
               x="0 7.0625701 14.66274 22.790911 29.853479 36.91605 40.51302 47.047588 55.175758 62.238331 70.366501 77.42907 84.491638 92.091812 100.21998 108.34815 112.74192 120.87009 128.99826">COLE POLYTECHNIQUE</tspan>
            <tspan
               id="tspan4180"
               sodipodi:role="line"
               y="10"
               x="0 6.204823 12.937646 20.736069 27.468891 34.739315 42.537739 49.270561 56.003384 59.270607 67.069031 73.801849 77.069077 83.801903 91.600319 99.398743 105.60357 113.40199 121.20042 128.99884">FDRALE DE LAUSANNE</tspan>
          </text>
        </g>
      </g>
    </g>
  </g>
</svg>
