<?xml version="1.0" encoding="UTF-8" standalone="no"?>
<svg
   xmlns:dc="http://purl.org/dc/elements/1.1/"
   xmlns:cc="http://creativecommons.org/ns#"
   xmlns:rdf="http://www.w3.org/1999/02/22-rdf-syntax-ns#"
   xmlns:svg="http://www.w3.org/2000/svg"
   xmlns="http://www.w3.org/2000/svg"
   xmlns:sodipodi="http://sodipodi.sourceforge.net/DTD/sodipodi-0.dtd"
   xmlns:inkscape="http://www.inkscape.org/namespaces/inkscape"
   version="1.1"
   id="svg2"
   xml:space="preserve"
   width="811.50293"
   height="173.77744"
   viewBox="0 0 811.50292 173.77745"
   sodipodi:docname="logo.svg"
   inkscape:version="1.0.1 (0767f8302a, 2020-10-17)"><metadata
     id="metadata8"><rdf:RDF><cc:Work
         rdf:about=""><dc:format>image/svg+xml</dc:format><dc:type
           rdf:resource="http://purl.org/dc/dcmitype/StillImage" /><dc:title></dc:title></cc:Work></rdf:RDF></metadata><defs
     id="defs6"><clipPath
       clipPathUnits="userSpaceOnUse"
       id="clipPath26"><path
         d="M 0,0 H 362.83502 V 272.409 H 0 Z"
         id="path24"
         inkscape:connector-curvature="0" /></clipPath><clipPath
       clipPathUnits="userSpaceOnUse"
       id="clipPath16105"><path
         d="M 44.519,0 H 159.145 V 56.285 H 44.519 Z"
         id="path16103"
         inkscape:connector-curvature="0" /></clipPath><clipPath
       id="clipPath947"
       clipPathUnits="userSpaceOnUse"><path
         inkscape:connector-curvature="0"
         id="path945"
         d="M 0,0 H 196.29178 V 53.695553 H 0 Z" /></clipPath><clipPath
       id="clipPath1011"
       clipPathUnits="userSpaceOnUse"><path
         inkscape:connector-curvature="0"
         id="path1009"
         d="M 0,0 H 362.83502 V 272.409 H 0 Z" /></clipPath><clipPath
       id="clipPath1015"
       clipPathUnits="userSpaceOnUse"><path
         inkscape:connector-curvature="0"
         id="path1013"
         d="m 288,72.409 h 5 v -5 h -5 z" /></clipPath><clipPath
       id="clipPath1019"
       clipPathUnits="userSpaceOnUse"><path
         inkscape:connector-curvature="0"
         id="path1017"
         d="m 292.914,70.362 c 0,-1.109 -0.902,-2.012 -2.012,-2.012 -1.109,0 -2.011,0.903 -2.011,2.012 0,1.109 0.902,2.012 2.011,2.012 1.11,0 2.012,-0.903 2.012,-2.012 z" /></clipPath><clipPath
       id="clipPath1023"
       clipPathUnits="userSpaceOnUse"><path
         inkscape:connector-curvature="0"
         id="path1021"
         d="m 288,68 h 5 v 5 h -5 z" /></clipPath><clipPath
       id="clipPath1027"
       clipPathUnits="userSpaceOnUse"><path
         style="clip-rule:evenodd"
         inkscape:connector-curvature="0"
         id="path1025"
         d="m 292.914,70.953 c 0,-1.109 -0.902,-2.012 -2.012,-2.012 -1.109,0 -2.011,0.903 -2.011,2.012 0,1.109 0.902,2.012 2.011,2.012 1.11,0 2.012,-0.903 2.012,-2.012 z" /></clipPath><radialGradient
       id="radialGradient1033"
       spreadMethod="pad"
       gradientTransform="matrix(-0.595619,-1.027256,-1.149635,0.666576,545.11656,126.09202)"
       gradientUnits="userSpaceOnUse"
       r="1.95717"
       cy="145.65688"
       cx="146.49426"
       fy="145.65688"
       fx="146.49426"><stop
         id="stop1029"
         offset="0"
         style="stop-opacity:1;stop-color:#4e9a06" /><stop
         id="stop1031"
         offset="1"
         style="stop-opacity:1;stop-color:#73d216" /></radialGradient><clipPath
       id="clipPath1037"
       clipPathUnits="userSpaceOnUse"><path
         inkscape:connector-curvature="0"
         id="path1035"
         d="m 298,80.409 h 5 v -5 h -5 z" /></clipPath><clipPath
       id="clipPath1041"
       clipPathUnits="userSpaceOnUse"><path
         inkscape:connector-curvature="0"
         id="path1039"
         d="m 302.273,78.382 c 0,-1.11 -0.898,-2.008 -2.007,-2.008 -1.11,0 -2.012,0.898 -2.012,2.008 0,1.113 0.902,2.011 2.012,2.011 1.109,0 2.007,-0.898 2.007,-2.011 z" /></clipPath><clipPath
       id="clipPath1045"
       clipPathUnits="userSpaceOnUse"><path
         inkscape:connector-curvature="0"
         id="path1043"
         d="m 298,76 h 5 v 5 h -5 z" /></clipPath><clipPath
       id="clipPath1049"
       clipPathUnits="userSpaceOnUse"><path
         style="clip-rule:evenodd"
         inkscape:connector-curvature="0"
         id="path1047"
         d="m 302.273,78.973 c 0,-1.11 -0.898,-2.008 -2.007,-2.008 -1.11,0 -2.012,0.898 -2.012,2.008 0,1.113 0.902,2.011 2.012,2.011 1.109,0 2.007,-0.898 2.007,-2.011 z" /></clipPath><radialGradient
       id="radialGradient1055"
       spreadMethod="pad"
       gradientTransform="matrix(-0.595619,-1.027256,-1.149635,0.666576,554.47948,134.11357)"
       gradientUnits="userSpaceOnUse"
       r="1.95717"
       cy="145.65688"
       cx="146.49426"
       fy="145.65688"
       fx="146.49426"><stop
         id="stop1051"
         offset="0"
         style="stop-opacity:1;stop-color:#a40000" /><stop
         id="stop1053"
         offset="1"
         style="stop-opacity:1;stop-color:#ef2929" /></radialGradient><clipPath
       id="clipPath1059"
       clipPathUnits="userSpaceOnUse"><path
         inkscape:connector-curvature="0"
         id="path1057"
         d="m 245,105.409 h 26 v -24 h -26 z" /></clipPath><clipPath
       id="clipPath1063"
       clipPathUnits="userSpaceOnUse"><path
         inkscape:connector-curvature="0"
         id="path1061"
         d="m 257.594,105.21 c -1.856,-0.071 -2.84,-0.793 -5.606,-1.617 -2.761,-0.821 -6.187,-3.887 -6.187,-8.446 0,-5.797 4.699,-11.527 10.496,-12.797 2.91,-0.636 4.711,-0.027 7.789,1.039 3.082,1.067 6.633,4.231 6.633,8.786 0,5.8 -4.699,11.531 -10.496,12.796 -0.907,0.2 -1.789,0.27 -2.629,0.239 z" /></clipPath><clipPath
       id="clipPath1067"
       clipPathUnits="userSpaceOnUse"><path
         inkscape:connector-curvature="0"
         id="path1065"
         d="m 245,82 h 26 v 24 h -26 z" /></clipPath><clipPath
       id="clipPath1071"
       clipPathUnits="userSpaceOnUse"><path
         inkscape:connector-curvature="0"
         id="path1069"
         d="m 257.594,105.801 c -1.856,-0.071 -2.84,-0.793 -5.606,-1.617 -2.761,-0.821 -6.187,-3.887 -6.187,-8.446 0,-5.797 4.699,-11.527 10.496,-12.797 2.91,-0.636 4.711,-0.027 7.789,1.039 3.082,1.067 6.633,4.231 6.633,8.786 0,5.8 -4.699,11.531 -10.496,12.796 -0.907,0.2 -1.789,0.27 -2.629,0.239 z" /></clipPath><linearGradient
       id="linearGradient1077"
       spreadMethod="pad"
       gradientTransform="matrix(0.477773,0,0,-0.477773,8.630011,185.20136)"
       gradientUnits="userSpaceOnUse"
       y2="168.79076"
       x2="512.14282"
       y1="211.64789"
       x1="533.21429"><stop
         id="stop1073"
         offset="0"
         style="stop-opacity:1;stop-color:#83e028" /><stop
         id="stop1075"
         offset="1"
         style="stop-opacity:1;stop-color:#407110" /></linearGradient></defs><sodipodi:namedview
     pagecolor="#ffffff"
     bordercolor="#666666"
     borderopacity="1"
     objecttolerance="10"
     gridtolerance="10"
     guidetolerance="10"
     inkscape:pageopacity="0"
     inkscape:pageshadow="2"
     inkscape:window-width="1920"
     inkscape:window-height="1025"
     id="namedview4"
     showgrid="false"
     inkscape:zoom="0.65043401"
     inkscape:cx="86.324689"
     inkscape:cy="228.20657"
     inkscape:window-x="0"
     inkscape:window-y="27"
     inkscape:window-maximized="1"
     inkscape:current-layer="layer1"
     fit-margin-top="0"
     fit-margin-left="0"
     fit-margin-right="0"
     fit-margin-bottom="0"
     inkscape:document-rotation="0" /><g
     id="g10"
     inkscape:groupmode="layer"
     inkscape:label="presentation"
     transform="matrix(1.3333333,0,0,-1.3333333,-46.309574,317.50571)"><g
       id="g1190"
       transform="matrix(0.9569586,0,0,0.9569586,3.8356844,39.508956)"><path
         sodipodi:nodetypes="ccccssccssssc"
         inkscape:connector-curvature="0"
         id="path1181"
         d="M 43.24036,207.55374 H 32.286136 v -51.15301 c 0.05096,-20.08837 13.736878,-32.15675 27.385561,-32.15675 13.648683,0 30.268253,9.94529 30.268253,30.26825 0,22.34086 -17.728548,28.82691 -26.95316,28.82691 -7.639129,0 -16.57547,-3.7475 -16.57547,-3.7475 v -12.1073 c 0,0 4.324036,5.18884 14.989991,5.18884 10.665955,0 17.584415,-8.50393 17.584415,-18.59335 0,-10.08942 -5.188845,-18.88162 -17.872684,-18.88162 -12.683839,0 -18.160951,13.54864 -18.160951,20.17883 0,6.63019 0.288269,52.1767 0.288269,52.1767 z"
         style="fill:#46413c;fill-opacity:1;stroke:none;stroke-width:0.75px;stroke-linecap:butt;stroke-linejoin:miter;stroke-opacity:1" /><path
         sodipodi:nodetypes="ccscccccc"
         inkscape:connector-curvature="0"
         id="path1183"
         d="m 124.82051,183.05087 v -10.81009 c -5.04471,1.87375 -17.87269,-1.87375 -17.87269,-17.87269 V 126.26187 H 96.714273 v 55.63592 h 10.521817 v -5.18884 c 0,0 6.19779,8.07153 17.58442,6.34192 z"
         style="fill:#46413c;fill-opacity:1;stroke:none;stroke-width:0.75px;stroke-linecap:butt;stroke-linejoin:miter;stroke-opacity:1" /><path
         sodipodi:nodetypes="ccccccc"
         inkscape:connector-curvature="0"
         id="path1185"
         d="M 142.69319,206.83307 H 132.3155 l -0.051,-59.32948 c 0.0422,-3.47971 4.64027,-21.83665 24.4097,-21.0976 l 0.13689,10.22481 c -2.7518,0.10192 -13.47755,1.40513 -13.61348,16.00768 z"
         style="fill:none;stroke:#46413c;stroke-width:0.75px;stroke-linecap:butt;stroke-linejoin:miter;stroke-opacity:1" /></g><g
       transform="matrix(3.0142057,0,0,-3.0142057,-34.34549,713.78327)"
       id="layer1"
       inkscape:label="Layer 1"><path
         inkscape:connector-curvature="0"
         id="path16093"
         style="fill:#ed1c24;fill-opacity:1;fill-rule:nonzero;stroke:none;stroke-width:0.468964"
         d="M 69.081518,184.19971 H 122.83695 V 157.80409 H 69.081518 Z" /><path
         inkscape:connector-curvature="0"
         id="path16095"
         style="fill:#a56467;fill-opacity:1;fill-rule:nonzero;stroke:none;stroke-width:0.468964"
         d="M 69.081518,184.19971 H 122.83695 V 157.80409 H 69.081518 Z" /><g
         transform="matrix(1.3293457,0,0,1.3293457,-7.547127,-46.622258)"
         id="g26109"><path
           d="m 81.363709,170.60146 h 0.19826 v -10.17799 h -0.19826 z"
           style="fill:#ffffff;fill-opacity:1;fill-rule:nonzero;stroke:none;stroke-width:0.352778"
           id="path16097"
           inkscape:connector-curvature="0" /><path
           inkscape:connector-curvature="0"
           id="path16109"
           style="fill:#ffffff;fill-opacity:1;fill-rule:nonzero;stroke:none;stroke-width:0.352778"
           d="m 60.163879,163.20632 v -2.78306 h 1.342319 v 2.72415 c 0,0.66145 0.163689,0.98213 0.733425,0.98213 0.556684,0 0.733425,-0.30127 0.733425,-1.00189 v -2.70439 h 1.355373 v 2.76366 c 0,1.36172 -0.798689,1.99707 -2.088798,1.99707 -1.322563,0 -2.075744,-0.66781 -2.075744,-1.97767" /><path
           inkscape:connector-curvature="0"
           id="path16113"
           style="fill:#ffffff;fill-opacity:1;fill-rule:nonzero;stroke:none;stroke-width:0.352778"
           d="m 64.531515,160.42336 h 1.355372 l 0.602545,2.92065 0.62865,-2.92065 h 1.191683 l 0.681214,2.94675 0.635,-2.94675 h 1.244247 l -1.093611,4.68207 h -1.401233 l -0.720373,-2.97286 -0.726722,2.97286 h -1.309864 z" /><path
           inkscape:connector-curvature="0"
           id="path16117"
           style="fill:#ffffff;fill-opacity:1;fill-rule:nonzero;stroke:none;stroke-width:0.352778"
           d="m 60.261281,165.92035 h 2.088797 c 1.106664,0 1.578328,0.49777 1.578328,1.22449 v 0.0265 c 0,0.52352 -0.268817,0.87066 -0.792339,1.00824 0.576086,0.0981 0.936272,0.4452 0.936272,1.09326 v 0.0265 c 0,0.8382 -0.54363,1.30316 -1.702505,1.30316 h -2.108553 z m 1.820333,1.85984 c 0.4191,0 0.576086,-0.14428 0.576086,-0.47801 v -0.0265 c 0,-0.32067 -0.170038,-0.46461 -0.576086,-0.46461 h -0.510822 v 0.96908 z m 0.04586,1.92511 c 0.42545,0 0.621948,-0.19649 0.621948,-0.54363 v -0.0261 c 0,-0.35349 -0.189795,-0.53693 -0.661106,-0.53693 h -0.517525 v 1.10666 z" /><path
           inkscape:connector-curvature="0"
           id="path16121"
           style="fill:#ffffff;fill-opacity:1;fill-rule:nonzero;stroke:none;stroke-width:0.352778"
           d="m 64.431115,167.17761 h 1.171928 v 0.68086 c 0.216253,-0.51047 0.576439,-0.73307 1.106664,-0.72672 v 1.09361 c -0.71367,-0.0198 -1.106664,0.2032 -1.106664,0.75318 v 1.62384 h -1.171928 z" /><path
           inkscape:connector-curvature="0"
           id="path16125"
           style="fill:#ffffff;fill-opacity:1;fill-rule:nonzero;stroke:none;stroke-width:0.352778"
           d="m 67.010132,166.24779 c 0,-0.34713 0.274814,-0.60889 0.641703,-0.60889 0.366889,0 0.648405,0.26176 0.648405,0.60889 0,0.34713 -0.281516,0.60254 -0.648405,0.60254 -0.366889,0 -0.641703,-0.25541 -0.641703,-0.60254 m 0.05891,0.92992 h 1.171928 v 3.42477 h -1.171928 z" /><path
           inkscape:connector-curvature="0"
           id="path16129"
           style="fill:#ffffff;fill-opacity:1;fill-rule:nonzero;stroke:none;stroke-width:0.352778"
           d="m 68.618869,169.51529 h 1.080558 c 0.03916,0.24871 0.150636,0.38629 0.484364,0.38629 0.28822,0 0.4191,-0.11112 0.4191,-0.28152 0,-0.16368 -0.163689,-0.24235 -0.635,-0.30762 -0.916869,-0.11782 -1.303161,-0.38629 -1.303161,-1.10031 0,-0.75953 0.674511,-1.12607 1.46685,-1.12607 0.84455,0 1.434042,0.28822 1.512358,1.10667 h -1.060802 c -0.04551,-0.22931 -0.170039,-0.34079 -0.438503,-0.34079 -0.255411,0 -0.386292,0.11148 -0.386292,0.26882 0,0.16334 0.156986,0.22895 0.576086,0.28152 0.949678,0.11782 1.407936,0.36653 1.407936,1.09996 0,0.81174 -0.602544,1.17863 -1.551869,1.17863 -0.975783,0 -1.545519,-0.40605 -1.571625,-1.16558" /><path
           inkscape:connector-curvature="0"
           id="path16133"
           style="fill:#ffffff;fill-opacity:1;fill-rule:nonzero;stroke:none;stroke-width:0.352778"
           d="m 72.284054,169.50217 v -1.52576 h -0.412397 v -0.79869 h 0.412397 v -0.71402 h 1.172281 v 0.71402 h 0.674158 v 0.79869 h -0.674158 v 1.41464 c 0,0.2487 0.124177,0.35983 0.34678,0.35983 0.130881,0 0.229306,-0.0194 0.334081,-0.0589 v 0.89077 c -0.150636,0.0392 -0.373239,0.0981 -0.648406,0.0981 -0.772583,0 -1.204736,-0.37324 -1.204736,-1.17863" /><path
           inkscape:connector-curvature="0"
           id="path16137"
           style="fill:#ffffff;fill-opacity:1;fill-rule:nonzero;stroke:none;stroke-width:0.352778"
           d="m 74.332281,168.93257 v -0.0526 c 0,-1.09996 0.818444,-1.79388 1.879247,-1.79388 1.054453,0 1.866195,0.67416 1.866195,1.76142 v 0.0522 c 0,1.11337 -0.818445,1.78118 -1.872898,1.78118 -1.0541,0 -1.872544,-0.64171 -1.872544,-1.74837 m 2.553758,-0.0198 v -0.0522 c 0,-0.57644 -0.229305,-0.89711 -0.674511,-0.89711 -0.438503,0 -0.680861,0.30762 -0.680861,0.88406 v 0.0522 c 0,0.58914 0.228953,0.91017 0.680861,0.91017 0.438856,0 0.674511,-0.32738 0.674511,-0.89712" /><path
           d="m 78.475515,165.91939 h 1.165578 v 4.68278 h -1.165578 z"
           style="fill:#ffffff;fill-opacity:1;fill-rule:nonzero;stroke:none;stroke-width:0.352778"
           id="path16139"
           inkscape:connector-curvature="0" /><path
           inkscape:connector-curvature="0"
           id="path16143"
           style="fill:#ffffff;fill-opacity:1;fill-rule:nonzero;stroke:none;stroke-width:0.352778"
           d="m 72.405974,164.07073 v -0.85125 h 1.2065 0.306211 v -0.95603 h -0.306211 -1.2065 v -0.80539 h 1.899003 v -1.0347 h -3.234972 v 4.68207 h 3.339747 v -1.0347 z" /><path
           inkscape:connector-curvature="0"
           id="path16147"
           style="fill:#ffffff;fill-opacity:1;fill-rule:nonzero;stroke:none;stroke-width:0.352778"
           d="m 83.270047,161.58548 v -1.16205 h 0.434622 v 1.13559 c 0,0.31715 0.09313,0.45579 0.354542,0.45579 0.255764,0 0.367594,-0.12277 0.367594,-0.47202 v -1.11936 h 0.434623 v 1.14618 c 0,0.51964 -0.290689,0.78881 -0.805039,0.78881 -0.500945,0 -0.786342,-0.26635 -0.786342,-0.77294" /><path
           inkscape:connector-curvature="0"
           id="path16151"
           style="fill:#ffffff;fill-opacity:1;fill-rule:nonzero;stroke:none;stroke-width:0.352778"
           d="m 85.15508,160.9351 h 0.386644 v 0.22119 c 0.06914,-0.13864 0.221192,-0.25329 0.452967,-0.25329 0.274461,0 0.469195,0.16545 0.469195,0.53869 v 0.88759 h -0.386645 v -0.83185 c 0,-0.18909 -0.07444,-0.27976 -0.24518,-0.27976 -0.1651,0 -0.290337,0.10125 -0.290337,0.30657 v 0.80504 H 85.15508 Z" /><path
           inkscape:connector-curvature="0"
           id="path16155"
           style="fill:#ffffff;fill-opacity:1;fill-rule:nonzero;stroke:none;stroke-width:0.352778"
           d="m 86.72286,160.53526 c 0,-0.11994 0.09596,-0.21061 0.218369,-0.21061 0.125589,0 0.221545,0.0907 0.221545,0.21061 0,0.11994 -0.09596,0.21061 -0.221545,0.21061 -0.122413,0 -0.218369,-0.0907 -0.218369,-0.21061 m 0.02928,0.3997 h 0.383822 v 1.39417 H 86.75214 Z" /><path
           inkscape:connector-curvature="0"
           id="path16159"
           style="fill:#ffffff;fill-opacity:1;fill-rule:nonzero;stroke:none;stroke-width:0.352778"
           d="m 87.304096,160.9351 h 0.413103 l 0.333022,0.99695 0.330906,-0.99695 h 0.372886 l -0.506236,1.39418 h -0.434623 z" /><path
           inkscape:connector-curvature="0"
           id="path16163"
           style="fill:#ffffff;fill-opacity:1;fill-rule:nonzero;stroke:none;stroke-width:0.352778"
           d="m 88.757188,161.64948 v -0.0215 c 0,-0.43956 0.311856,-0.72496 0.717197,-0.72496 0.359834,0 0.67945,0.21061 0.67945,0.70909 v 0.10689 h -1.004711 c 0.01058,0.23177 0.13582,0.36512 0.346428,0.36512 0.178858,0 0.2667,-0.0773 0.290689,-0.19473 h 0.365125 c -0.04516,0.30127 -0.285397,0.46919 -0.666397,0.46919 -0.421217,0 -0.727781,-0.26387 -0.727781,-0.70908 m 1.020939,-0.16792 c -0.01341,-0.21061 -0.119945,-0.31186 -0.303742,-0.31186 -0.173566,0 -0.290689,0.11466 -0.319969,0.31186 z" /><path
           inkscape:connector-curvature="0"
           id="path16167"
           style="fill:#ffffff;fill-opacity:1;fill-rule:nonzero;stroke:none;stroke-width:0.352778"
           d="m 90.354248,160.9351 h 0.386644 v 0.2667 c 0.08784,-0.18697 0.223662,-0.2854 0.450498,-0.28787 v 0.35984 c -0.285398,-0.003 -0.450498,0.0907 -0.450498,0.35701 v 0.6985 h -0.386644 z" /><path
           inkscape:connector-curvature="0"
           id="path16171"
           style="fill:#ffffff;fill-opacity:1;fill-rule:nonzero;stroke:none;stroke-width:0.352778"
           d="m 91.261487,161.89208 h 0.359833 c 0.01588,0.12524 0.07726,0.1972 0.245181,0.1972 0.149578,0 0.218722,-0.0561 0.218722,-0.15204 0,-0.096 -0.08255,-0.13582 -0.282575,-0.1651 -0.370417,-0.0561 -0.514703,-0.16263 -0.514703,-0.43463 0,-0.29033 0.2667,-0.43462 0.552098,-0.43462 0.309033,0 0.541161,0.11218 0.575733,0.43215 h -0.354542 c -0.02152,-0.11465 -0.08537,-0.16827 -0.218722,-0.16827 -0.125236,0 -0.197203,0.0589 -0.197203,0.14429 0,0.0878 0.06668,0.12241 0.26917,0.15169 0.34925,0.0508 0.541161,0.13864 0.541161,0.43744 0,0.30092 -0.21837,0.45826 -0.586317,0.45826 -0.376061,0 -0.59443,-0.1651 -0.607836,-0.46637" /><path
           inkscape:connector-curvature="0"
           id="path16175"
           style="fill:#ffffff;fill-opacity:1;fill-rule:nonzero;stroke:none;stroke-width:0.352778"
           d="m 92.629277,160.53526 c 0,-0.11994 0.09596,-0.21061 0.218369,-0.21061 0.125589,0 0.221545,0.0907 0.221545,0.21061 0,0.11994 -0.09596,0.21061 -0.221545,0.21061 -0.122413,0 -0.218369,-0.0907 -0.218369,-0.21061 m 0.02928,0.3997 h 0.383822 v 1.39417 h -0.383822 z" /><path
           inkscape:connector-curvature="0"
           id="path16179"
           style="fill:#ffffff;fill-opacity:1;fill-rule:nonzero;stroke:none;stroke-width:0.352778"
           d="m 93.402424,161.91604 v -0.70626 h -0.178506 v -0.27446 h 0.178506 v -0.30127 h 0.383822 v 0.30127 h 0.293159 v 0.27446 h -0.293159 v 0.67169 c 0,0.11183 0.05609,0.1651 0.154517,0.1651 0.05891,0 0.101247,-0.008 0.146755,-0.0265 v 0.29845 c -0.05327,0.0187 -0.130527,0.0374 -0.234597,0.0374 -0.293158,0 -0.450497,-0.14922 -0.450497,-0.43991" /><path
           inkscape:connector-curvature="0"
           id="path16183"
           style="fill:#ffffff;fill-opacity:1;fill-rule:nonzero;stroke:none;stroke-width:0.352778"
           d="m 94.716804,162.18789 -0.554567,-1.25271 h 0.415925 l 0.338667,0.83679 0.311856,-0.83679 h 0.370416 l -0.754239,1.86866 h -0.373239 z" /><path
           inkscape:connector-curvature="0"
           id="path16187"
           style="fill:#ffffff;fill-opacity:1;fill-rule:nonzero;stroke:none;stroke-width:0.352778"
           d="m 83.166084,164.4118 v -0.0212 c 0,-0.43744 0.317147,-0.72249 0.735542,-0.72249 0.418747,0 0.733072,0.27976 0.733072,0.71438 v 0.0212 c 0,0.43991 -0.317147,0.71966 -0.735542,0.71966 -0.415925,0 -0.733072,-0.27693 -0.733072,-0.71155 m 1.077031,-0.005 v -0.0187 c 0,-0.2667 -0.125237,-0.42651 -0.341489,-0.42651 -0.213078,0 -0.341136,0.15452 -0.341136,0.42122 v 0.0212 c 0,0.2667 0.122766,0.4265 0.341136,0.4265 0.216252,0 0.341489,-0.1598 0.341489,-0.42368" /><path
           inkscape:connector-curvature="0"
           id="path16191"
           style="fill:#ffffff;fill-opacity:1;fill-rule:nonzero;stroke:none;stroke-width:0.352778"
           d="m 84.904431,163.97464 h -0.183797 v -0.27446 h 0.183797 v -0.16016 c 0,-0.32526 0.189089,-0.48754 0.498475,-0.48754 0.08255,0 0.138642,0.008 0.200025,0.0265 v 0.29069 c -0.03739,-0.0134 -0.08537,-0.024 -0.141464,-0.024 -0.122414,0 -0.173214,0.0773 -0.173214,0.18379 v 0.17075 h 0.303742 v 0.27446 h -0.303742 v 1.11972 h -0.383822 z" /><path
           inkscape:connector-curvature="0"
           id="path16195"
           style="fill:#ffffff;fill-opacity:1;fill-rule:nonzero;stroke:none;stroke-width:0.352778"
           d="m 86.373469,164.681 v -0.70626 h -0.178506 v -0.27446 h 0.178506 v -0.30163 h 0.383822 v 0.30163 h 0.293159 v 0.27446 h -0.293159 v 0.67169 c 0,0.11183 0.05574,0.1651 0.154517,0.1651 0.05891,0 0.101247,-0.008 0.146755,-0.0265 v 0.29845 c -0.05327,0.0187 -0.130527,0.0374 -0.234597,0.0374 -0.293158,0 -0.450497,-0.14922 -0.450497,-0.43991" /><path
           inkscape:connector-curvature="0"
           id="path16199"
           style="fill:#ffffff;fill-opacity:1;fill-rule:nonzero;stroke:none;stroke-width:0.352778"
           d="m 87.266667,163.06831 h 0.386644 v 0.85302 c 0.06914,-0.13865 0.221192,-0.2533 0.452967,-0.2533 0.274814,0 0.469195,0.16545 0.469195,0.53869 v 0.88759 h -0.386645 v -0.83185 c 0,-0.18909 -0.07444,-0.27975 -0.24518,-0.27975 -0.1651,0 -0.290337,0.10125 -0.290337,0.30656 v 0.80504 h -0.386644 z" /><path
           inkscape:connector-curvature="0"
           id="path16203"
           style="fill:#ffffff;fill-opacity:1;fill-rule:nonzero;stroke:none;stroke-width:0.352778"
           d="m 88.767771,164.41444 v -0.0212 c 0,-0.43991 0.311856,-0.72531 0.717197,-0.72531 0.359834,0 0.67945,0.21061 0.67945,0.70909 v 0.10689 h -1.004711 c 0.01058,0.23177 0.13582,0.36512 0.346428,0.36512 0.178858,0 0.2667,-0.0773 0.290689,-0.19473 h 0.365125 c -0.04516,0.30127 -0.285397,0.46919 -0.666397,0.46919 -0.421217,0 -0.727781,-0.26387 -0.727781,-0.70908 m 1.020939,-0.16792 c -0.01341,-0.21061 -0.119945,-0.31186 -0.303742,-0.31186 -0.173214,0 -0.290689,0.11466 -0.319969,0.31186 z" /><path
           inkscape:connector-curvature="0"
           id="path16207"
           style="fill:#ffffff;fill-opacity:1;fill-rule:nonzero;stroke:none;stroke-width:0.352778"
           d="m 83.136768,165.93054 h 0.437092 l 0.29845,1.31692 0.325261,-1.31692 h 0.367947 l 0.338667,1.32468 0.309033,-1.32468 h 0.40005 l -0.463903,1.90606 h -0.439914 l -0.343958,-1.31692 -0.348897,1.31692 h -0.415925 z" /><path
           inkscape:connector-curvature="0"
           id="path16211"
           style="fill:#ffffff;fill-opacity:1;fill-rule:nonzero;stroke:none;stroke-width:0.352778"
           d="m 85.541583,167.15673 v -0.0212 c 0,-0.43991 0.311856,-0.72531 0.717197,-0.72531 0.359834,0 0.67945,0.21061 0.67945,0.70909 v 0.10689 h -1.004711 c 0.01058,0.23177 0.13582,0.36512 0.346428,0.36512 0.178858,0 0.2667,-0.0773 0.290689,-0.19473 h 0.365125 c -0.04516,0.30127 -0.285397,0.46919 -0.666397,0.46919 -0.421217,0 -0.727781,-0.26387 -0.727781,-0.70908 m 1.020939,-0.16792 c -0.01341,-0.21061 -0.119945,-0.31186 -0.303742,-0.31186 -0.173566,0 -0.290689,0.11466 -0.319969,0.31186 z" /><path
           inkscape:connector-curvature="0"
           id="path16215"
           style="fill:#ffffff;fill-opacity:1;fill-rule:nonzero;stroke:none;stroke-width:0.352778"
           d="m 87.050661,167.3993 h 0.359833 c 0.01587,0.12524 0.07726,0.1972 0.245181,0.1972 0.149225,0 0.218722,-0.0561 0.218722,-0.15204 0,-0.096 -0.08255,-0.13582 -0.282575,-0.1651 -0.370417,-0.0561 -0.514703,-0.16263 -0.514703,-0.43463 0,-0.29033 0.2667,-0.43462 0.552098,-0.43462 0.309033,0 0.540808,0.11218 0.575733,0.43215 h -0.354542 c -0.02152,-0.11465 -0.08537,-0.16827 -0.218722,-0.16827 -0.125236,0 -0.197203,0.0589 -0.197203,0.14429 0,0.0878 0.06668,0.12241 0.26917,0.15169 0.34925,0.0508 0.541161,0.13864 0.541161,0.43744 0,0.30092 -0.21837,0.45826 -0.586317,0.45826 -0.376061,0 -0.59443,-0.1651 -0.607836,-0.46637" /><path
           inkscape:connector-curvature="0"
           id="path16219"
           style="fill:#ffffff;fill-opacity:1;fill-rule:nonzero;stroke:none;stroke-width:0.352778"
           d="m 88.495709,167.42325 v -0.70626 h -0.178506 v -0.27446 h 0.178506 v -0.30163 h 0.383822 v 0.30163 h 0.293159 v 0.27446 h -0.293159 v 0.67169 c 0,0.11183 0.05609,0.1651 0.154517,0.1651 0.05891,0 0.101247,-0.008 0.146755,-0.0265 v 0.29845 c -0.05327,0.0187 -0.130527,0.0374 -0.234597,0.0374 -0.293158,0 -0.450497,-0.14922 -0.450497,-0.43991" /><path
           inkscape:connector-curvature="0"
           id="path16223"
           style="fill:#ffffff;fill-opacity:1;fill-rule:nonzero;stroke:none;stroke-width:0.352778"
           d="m 89.773788,167.15404 v -0.0212 c 0,-0.43744 0.317147,-0.72249 0.735542,-0.72249 0.418747,0 0.733072,0.27976 0.733072,0.71438 v 0.0212 c 0,0.43991 -0.317147,0.71966 -0.735542,0.71966 -0.415925,0 -0.733072,-0.27693 -0.733072,-0.71155 m 1.077031,-0.005 v -0.0187 c 0,-0.2667 -0.125237,-0.42651 -0.341489,-0.42651 -0.213078,0 -0.341136,0.15452 -0.341136,0.42122 v 0.0212 c 0,0.2667 0.122766,0.4265 0.341136,0.4265 0.216252,0 0.341489,-0.1598 0.341489,-0.42368" /><path
           inkscape:connector-curvature="0"
           id="path16227"
           style="fill:#ffffff;fill-opacity:1;fill-rule:nonzero;stroke:none;stroke-width:0.352778"
           d="m 91.512171,166.71688 h -0.183797 v -0.27446 h 0.183797 v -0.16016 c 0,-0.32491 0.189089,-0.48754 0.498475,-0.48754 0.08255,0 0.138642,0.008 0.200025,0.0265 v 0.29069 c -0.03739,-0.0134 -0.08537,-0.024 -0.141464,-0.024 -0.122414,0 -0.173214,0.0773 -0.173214,0.18379 v 0.17075 h 0.303742 v 0.27446 h -0.303742 v 1.11972 h -0.383822 z" /><path
           inkscape:connector-curvature="0"
           id="path16231"
           style="fill:#ffffff;fill-opacity:1;fill-rule:nonzero;stroke:none;stroke-width:0.352778"
           d="m 83.286028,168.69551 h 1.242131 v 0.33584 h -0.8128 v 0.44521 h 0.650169 v 0.31432 h -0.650169 v 0.47484 h 0.855486 v 0.33585 h -1.284817 z" /><path
           inkscape:connector-curvature="0"
           id="path16235"
           style="fill:#ffffff;fill-opacity:1;fill-rule:nonzero;stroke:none;stroke-width:0.352778"
           d="m 84.784452,169.20732 h 0.386644 v 0.22119 c 0.06914,-0.13864 0.221192,-0.25329 0.452967,-0.25329 0.274814,0 0.469195,0.16545 0.469195,0.53869 v 0.88759 h -0.386645 v -0.83185 c 0,-0.18909 -0.07444,-0.27976 -0.24518,-0.27976 -0.1651,0 -0.290337,0.10125 -0.290337,0.30657 v 0.80504 h -0.386644 z" /><path
           inkscape:connector-curvature="0"
           id="path16239"
           style="fill:#ffffff;fill-opacity:1;fill-rule:nonzero;stroke:none;stroke-width:0.352778"
           d="m 86.29621,170.6307 h 0.383822 c 0.02399,0.12277 0.111831,0.20249 0.309386,0.20249 0.234245,0 0.35172,-0.12241 0.35172,-0.34113 v -0.21061 c -0.07726,0.13582 -0.242711,0.25859 -0.447675,0.25859 -0.338667,0 -0.607836,-0.2533 -0.607836,-0.6664 v -0.0187 c 0,-0.3997 0.266347,-0.67945 0.612775,-0.67945 0.226836,0 0.362655,0.0984 0.442736,0.23989 v -0.20814 h 0.383822 v 1.28482 c -0.0028,0.4131 -0.277283,0.62371 -0.735542,0.62371 -0.45085,0 -0.655814,-0.1972 -0.693208,-0.48507 m 1.055511,-0.76235 v -0.0187 c 0,-0.23742 -0.125236,-0.381 -0.335844,-0.381 -0.2159,0 -0.335845,0.15452 -0.335845,0.38382 v 0.0212 c 0,0.23213 0.13582,0.37606 0.328084,0.37606 0.202494,0 0.343605,-0.14393 0.343605,-0.38135" /><path
           d="m 88.023798,168.57546 h 0.383822 v 2.026 h -0.383822 z"
           style="fill:#ffffff;fill-opacity:1;fill-rule:nonzero;stroke:none;stroke-width:0.352778"
           id="path16241"
           inkscape:connector-curvature="0" /><path
           inkscape:connector-curvature="0"
           id="path16245"
           style="fill:#ffffff;fill-opacity:1;fill-rule:nonzero;stroke:none;stroke-width:0.352778"
           d="m 88.615795,170.21492 c 0,-0.32526 0.29845,-0.44803 0.724958,-0.44803 h 0.157339 v -0.0557 c 0,-0.16545 -0.0508,-0.25611 -0.226483,-0.25611 -0.152047,0 -0.221192,0.0773 -0.23742,0.19755 h -0.365125 c 0.02399,-0.33055 0.285398,-0.47731 0.626534,-0.47731 0.341136,0 0.583847,0.13865 0.583847,0.51718 v 0.9091 h -0.376061 v -0.16827 c -0.07973,0.11218 -0.202495,0.19755 -0.421217,0.19755 -0.252941,0 -0.466372,-0.12276 -0.466372,-0.41592 m 0.882297,-0.10125 v -0.11747 h -0.149225 c -0.224014,0 -0.354541,0.048 -0.354541,0.19755 0,0.1009 0.06138,0.16757 0.202494,0.16757 0.170744,0 0.301272,-0.0931 0.301272,-0.24765" /><path
           inkscape:connector-curvature="0"
           id="path16249"
           style="fill:#ffffff;fill-opacity:1;fill-rule:nonzero;stroke:none;stroke-width:0.352778"
           d="m 90.156869,169.20732 h 0.386644 v 0.22119 c 0.06914,-0.13864 0.221192,-0.25329 0.452967,-0.25329 0.274814,0 0.469195,0.16545 0.469195,0.53869 v 0.88759 H 91.07903 v -0.83185 c 0,-0.18909 -0.07444,-0.27976 -0.24518,-0.27976 -0.1651,0 -0.290337,0.10125 -0.290337,0.30657 v 0.80504 h -0.386644 z" /><path
           inkscape:connector-curvature="0"
           id="path16253"
           style="fill:#ffffff;fill-opacity:1;fill-rule:nonzero;stroke:none;stroke-width:0.352778"
           d="m 91.660655,169.92437 v -0.0212 c 0,-0.45861 0.263878,-0.72778 0.613128,-0.72778 0.223661,0 0.362655,0.0984 0.439914,0.23989 v -0.83961 h 0.383822 v 2.02565 h -0.383822 v -0.23177 c -0.07197,0.14111 -0.242711,0.26105 -0.448028,0.26105 -0.338314,0 -0.605014,-0.24236 -0.605014,-0.70626 m 1.063625,-0.0134 v -0.0212 c 0,-0.27729 -0.122767,-0.41875 -0.333375,-0.41875 -0.2159,0 -0.335844,0.14676 -0.335844,0.42404 v 0.0212 c 0,0.27728 0.13335,0.41345 0.325261,0.41345 0.202494,0 0.343958,-0.13617 0.343958,-0.41875" /></g></g></g></svg>
