<?xml version="1.0" encoding="UTF-8" standalone="no"?>
<!-- Created with Inkscape (http://www.inkscape.org/) -->

<svg
   xmlns:dc="http://purl.org/dc/elements/1.1/"
   xmlns:cc="http://creativecommons.org/ns#"
   xmlns:rdf="http://www.w3.org/1999/02/22-rdf-syntax-ns#"
   xmlns:svg="http://www.w3.org/2000/svg"
   xmlns="http://www.w3.org/2000/svg"
   xmlns:sodipodi="http://sodipodi.sourceforge.net/DTD/sodipodi-0.dtd"
   xmlns:inkscape="http://www.inkscape.org/namespaces/inkscape"
   width="43.460354mm"
   height="18.79451mm"
   viewBox="0 0 153.99338 66.59472"
   id="svg4789"
   version="1.1"
   inkscape:version="0.91 r13725"
   sodipodi:docname="logo.svg">
  <defs
     id="defs4791" />
  <sodipodi:namedview
     id="base"
     pagecolor="#ffffff"
     bordercolor="#666666"
     borderopacity="1.0"
     inkscape:pageopacity="0.0"
     inkscape:pageshadow="2"
     inkscape:zoom="1.979899"
     inkscape:cx="-149.54411"
     inkscape:cy="-73.681707"
     inkscape:document-units="px"
     inkscape:current-layer="layer1"
     showgrid="false"
     fit-margin-top="0"
     fit-margin-left="0"
     fit-margin-right="0"
     fit-margin-bottom="0"
     inkscape:window-width="2560"
     inkscape:window-height="1330"
     inkscape:window-x="0"
     inkscape:window-y="54"
     inkscape:window-maximized="1" />
  <metadata
     id="metadata4794">
    <rdf:RDF>
      <cc:Work
         rdf:about="">
        <dc:format>image/svg+xml</dc:format>
        <dc:type
           rdf:resource="http://purl.org/dc/dcmitype/StillImage" />
        <dc:title></dc:title>
      </cc:Work>
    </rdf:RDF>
  </metadata>
  <g
     inkscape:label="Layer 1"
     inkscape:groupmode="layer"
     id="layer1"
     transform="translate(-136.83369,-500.24673)">
    <path
       style="fill:#4e5054;fill-opacity:1"
       d="m 143.0766,566.68305 c -2.29755,-0.60775 -3.98446,-2.089 -4.77367,-4.19164 -0.72685,-1.93655 -1.00033,-15.09418 -0.32537,-15.65434 0.29634,-0.24594 1.1938,-0.34366 2.62641,-0.28597 l 2.17624,0.0876 0.1482,6.83115 c 0.12848,5.92248 0.21925,6.93944 0.68237,7.64527 1.04568,1.59368 3.33248,1.74777 4.67935,0.31531 0.70516,-0.74998 0.71542,-0.84527 0.8046,-7.4685 0.0581,-4.31465 0.20671,-6.84905 0.41644,-7.10176 0.23112,-0.2785 0.98175,-0.36797 2.57718,-0.30721 l 2.25107,0.0858 0,7.40974 c 0,7.21897 -0.0181,7.44411 -0.70141,8.74352 -0.9673,1.83936 -1.44241,2.31993 -3.1492,3.18543 -1.16343,0.58996 -2.01822,0.7706 -4.00126,0.84553 -1.38698,0.0524 -2.92191,-0.0106 -3.41095,-0.13991 z m 94.36983,3e-4 c -1.70917,-0.36377 -3.69188,-1.68351 -4.22866,-2.81468 -0.26574,-0.55989 -0.48316,-1.56475 -0.48316,-2.23293 l 0,-1.21486 2.37113,0 c 1.45188,0 2.37112,0.12013 2.37112,0.30986 0,0.17043 0.32738,0.63724 0.7275,1.03737 0.96441,0.96441 3.40517,1.04068 4.31113,0.13472 0.66472,-0.66472 0.72085,-0.98524 0.30772,-1.75717 -0.34825,-0.65072 -1.30467,-1.04463 -4.0126,-1.65266 -3.97463,-0.89247 -5.48245,-2.10025 -5.87748,-4.70796 -0.4939,-3.2604 1.43599,-6.21788 4.6684,-7.15409 2.39654,-0.69413 5.57572,-0.48664 7.49743,0.48933 1.59603,0.81057 2.75155,2.62623 2.75155,4.32351 l 0,0.97456 -2.44522,-0.002 c -2.40494,-0.002 -2.45353,-0.0165 -2.95012,-0.88917 -0.96216,-1.69099 -4.38554,-1.10358 -4.38554,0.7524 0,1.00016 0.58354,1.30382 3.71651,1.93406 5.02721,1.0113 6.36077,2.30037 6.36077,6.14859 0,2.88142 -0.8169,4.3641 -3.02937,5.49839 -1.34132,0.68766 -2.1133,0.865 -4.12665,0.9479 -1.36217,0.0562 -2.95717,-2.7e-4 -3.54446,-0.12527 z m -80.74457,-0.39873 c -0.0813,-0.21199 -0.11267,-4.71907 -0.0696,-10.01572 l 0.0783,-9.63016 2.66751,0 2.66751,0 3.26029,5.25669 c 1.79316,2.89118 3.35725,5.2586 3.47575,5.26092 0.1185,0.003 0.25188,-2.36318 0.29639,-5.25669 l 0.081,-5.26092 2.37112,0 2.37112,0 0.0782,9.76083 c 0.061,7.61164 -0.004,9.81319 -0.29638,9.99862 -0.20604,0.1308 -1.34553,0.23984 -2.53222,0.24234 l -2.15759,0.005 -1.87174,-2.8898 c -1.02947,-1.58939 -2.65937,-4.09019 -3.62201,-5.55731 l -1.75027,-2.66751 -0.14819,5.48321 -0.1482,5.48322 -2.30151,0.0867 c -1.6799,0.0633 -2.34146,-0.0174 -2.44942,-0.29879 z m 19.56156,-5.9e-4 c -0.0812,-0.21173 -0.11248,-4.71858 -0.0694,-10.01523 l 0.0783,-9.63006 2.51932,0 2.51931,0 0,9.92907 0,9.92907 -2.44989,0.0861 c -1.79963,0.0633 -2.4891,-0.016 -2.59762,-0.29879 z m 12.37068,0.10878 c -0.42079,-0.26695 -5.98644,-18.15533 -5.98828,-19.24673 -8.9e-4,-0.66375 0.0565,-0.67621 2.74047,-0.59277 l 2.74161,0.0852 1.51213,6.00738 c 0.83168,3.30407 1.5793,6.07455 1.66137,6.15661 0.0821,0.0821 0.70998,-1.88768 1.39536,-4.37724 0.68537,-2.48955 1.47158,-5.26003 1.74712,-6.15661 l 0.501,-1.63014 2.59341,-0.0856 c 2.52979,-0.0835 2.5934,-0.0691 2.5934,0.5927 0,0.78149 -5.85906,18.57072 -6.30026,19.12878 -0.33242,0.42049 -4.56905,0.51705 -5.19733,0.11845 z m 13.04442,-0.098 c -0.51385,-0.51365 -0.51915,-18.93501 -0.005,-19.44858 0.55683,-0.55683 12.19834,-0.49808 12.66475,0.0639 0.20538,0.24746 0.31145,1.12892 0.25858,2.14883 l -0.0896,1.72924 -3.85307,0.14821 -3.85307,0.14819 -0.0896,1.55604 -0.0896,1.55605 3.27013,0 c 3.73443,0 3.70324,-0.0251 3.52218,2.83535 l -0.0926,1.46231 -3.34889,0.084 -3.34888,0.0839 0.0886,1.69439 0.0886,1.6944 4.08818,0.0826 4.08818,0.0826 -0.0869,2.14038 -0.0869,2.14038 -6.38161,0.0798 c -4.71422,0.0589 -6.476,-0.0147 -6.74288,-0.28158 z m 15.19035,-0.0108 c -0.0812,-0.21172 -0.11249,-4.71858 -0.0694,-10.01523 l 0.0783,-9.63006 4.13445,-0.0829 c 2.32312,-0.0465 4.85519,0.0666 5.7796,0.25824 4.83138,1.00169 6.38619,7.38965 2.64878,10.88257 l -0.92353,0.86311 1.8124,3.40356 c 0.99681,1.87195 1.8124,3.69633 1.8124,4.05418 0,0.62683 -0.0948,0.64747 -2.59342,0.56496 l -2.59341,-0.0856 -1.86167,-3.63078 c -1.41218,-2.75415 -2.00035,-3.63078 -2.4361,-3.63078 -0.53251,0 -0.58049,0.26488 -0.65765,3.63078 l -0.0832,3.63078 -2.44989,0.0861 c -1.79962,0.0633 -2.4891,-0.016 -2.59761,-0.29879 z m 8.48966,-11.51279 c 0.8705,-0.46588 1.25071,-1.69537 0.8348,-2.69947 -0.35793,-0.86411 -1.66193,-1.42696 -3.31369,-1.43033 l -0.81507,-0.002 0,2.22293 0,2.22292 1.35324,0 c 0.74428,0 1.61761,-0.14148 1.94072,-0.31441 z m 24.93357,11.52915 c -0.57206,-0.57206 -0.52446,-19.01389 0.0503,-19.49092 0.25865,-0.21466 1.24411,-0.31291 2.59342,-0.25858 l 2.17624,0.0878 0,9.92906 0,9.92907 -2.22655,0.0853 c -1.4774,0.0565 -2.34999,-0.0382 -2.59342,-0.28157 z m 11.93018,-0.0135 c -0.0783,-0.21048 -0.17632,-3.71723 -0.21781,-7.7926 l -0.0754,-7.40975 -2.51931,-0.14819 -2.51932,-0.1482 -0.087,-1.80542 c -0.0618,-1.28243 0.0347,-1.90642 0.3331,-2.15409 0.30313,-0.25159 2.47304,-0.32657 7.79316,-0.26931 l 7.37305,0.0794 0,2.07473 0,2.07473 -2.51931,0.1482 -2.51932,0.14819 -0.1482,7.70614 -0.14818,7.70615 -2.30153,0.0867 c -1.67458,0.0631 -2.34029,-0.0177 -2.44388,-0.29639 z m 17.41246,0.0135 c -0.24631,-0.2461 -0.36687,-1.41948 -0.36687,-3.57049 l 0,-3.20383 -2.9639,-5.92217 c -1.63015,-3.25718 -2.9639,-6.19017 -2.9639,-6.51775 0,-0.55182 0.19343,-0.59561 2.63122,-0.59561 1.74645,0 2.73268,0.12458 2.93297,0.37049 0.16596,0.20377 0.93198,1.87707 1.70226,3.71845 0.77028,1.84138 1.44719,3.30128 1.50425,3.24422 0.057,-0.057 0.9043,-1.73037 1.88274,-3.71846 l 1.77898,-3.6147 2.5273,0 c 2.05597,0 2.52729,0.0834 2.52729,0.44741 0,0.24607 -1.3671,3.14699 -3.038,6.44648 l -3.03799,5.99909 -0.1482,3.55667 -0.1482,3.55669 -2.22654,0.0854 c -1.4774,0.0565 -2.34998,-0.0382 -2.59341,-0.28158 z m -69.35982,-22.77259 c -2.90891,-0.61812 -5.26362,-2.5048 -6.64854,-5.32706 -0.55708,-1.13523 -0.66051,-1.84693 -0.66896,-4.60315 -0.009,-2.91346 0.0723,-3.43371 0.76439,-4.89043 0.9705,-2.04293 2.56064,-3.62765 4.68876,-4.67279 1.47995,-0.72682 1.97127,-0.8104 4.76229,-0.8102 2.7323,2.1e-4 3.3127,0.0943 4.75577,0.77095 3.76296,1.76443 5.37214,4.29341 5.56702,8.74912 0.21161,4.83838 -1.3943,7.9964 -4.99892,9.83043 -1.60954,0.81893 -2.31765,0.99433 -4.4347,1.09853 -1.38562,0.0682 -3.08983,0.003 -3.78711,-0.1454 z m 5.51344,-5.24793 c 3.14728,-2.33099 3.12462,-7.346 -0.0439,-9.69366 -0.62512,-0.46318 -1.27566,-0.62003 -2.57168,-0.62003 -1.86615,0 -2.82224,0.48602 -3.96375,2.01496 -0.65095,0.87188 -0.98411,3.61303 -0.65339,5.37591 0.23641,1.26022 1.44955,2.76683 2.67591,3.32327 1.20594,0.54716 3.55613,0.34062 4.55673,-0.40045 z m 14.72332,5.28478 c -2.38603,-0.63118 -4.27278,-2.40843 -4.87216,-4.58944 -0.22131,-0.80533 -0.30807,-3.6771 -0.25199,-8.34152 l 0.0855,-7.11336 2.37113,0 2.37112,0 0.14819,6.87017 c 0.1369,6.34666 0.19474,6.93245 0.75901,7.68745 0.83152,1.11259 1.98513,1.45892 3.42383,1.02788 1.91479,-0.57369 2.04136,-1.10498 2.04136,-8.56932 0,-5.22549 0.0818,-6.56686 0.41716,-6.84523 0.25865,-0.21466 1.24412,-0.31292 2.59341,-0.25859 l 2.17625,0.0876 0.0921,6.52058 c 0.0571,4.0439 -0.0335,7.1033 -0.23865,8.05475 -0.76057,3.52805 -3.39541,5.44602 -7.70531,5.6089 -1.38698,0.0524 -2.9219,-0.0106 -3.41095,-0.13991 z m -92.4824,-0.39834 c -0.0813,-0.21199 -0.11267,-4.71906 -0.0696,-10.01571 l 0.0783,-9.63027 3.84974,-0.0835 c 2.11735,-0.0459 4.51812,0.0593 5.33502,0.23374 3.3495,0.71538 5.00066,2.81341 5.01348,6.37032 0.0148,4.08337 -2.0815,6.09445 -6.63845,6.3688 l -2.52116,0.15179 -0.14819,3.40848 -0.1482,3.40849 -2.30151,0.0867 c -1.6799,0.0633 -2.34146,-0.0174 -2.44942,-0.2988 z m 8.4558,-11.49525 c 0.83074,-0.83074 0.76335,-2.2275 -0.15159,-3.14245 -0.60325,-0.60324 -0.98256,-0.72713 -2.00064,-0.65341 l -1.25625,0.091 -0.0871,2.14883 -0.0871,2.14882 1.49494,0 c 1.09975,0 1.65163,-0.1567 2.08771,-0.59278 z m 7.54681,11.48887 c -0.08,-0.20848 -0.11022,-4.71268 -0.0672,-10.00933 l 0.0783,-9.63027 2.37112,0 2.37113,0 0.1482,7.55795 0.14819,7.55795 3.55668,0.14818 3.55668,0.14821 0,2.22291 0,2.22294 -6.00884,0.0802 c -4.66507,0.0622 -6.04136,-0.005 -6.1543,-0.2988 z m 15.48421,0.18051 c -0.11494,-0.11493 -0.20897,-1.65508 -0.20897,-3.42255 l 0,-3.21359 -3.1121,-6.21881 c -1.71165,-3.42034 -3.1121,-6.42007 -3.1121,-6.66608 0,-0.36556 0.4861,-0.44728 2.66069,-0.44728 3.11948,0 2.84319,-0.24972 4.75477,4.29766 0.68527,1.63014 1.29598,3.0177 1.35715,3.08344 0.0611,0.0657 0.85632,-1.46622 1.76702,-3.40441 0.9107,-1.93818 1.81275,-3.62379 2.00458,-3.74579 0.19182,-0.122 1.38242,-0.22387 2.64578,-0.22636 1.85265,-0.004 2.29703,0.082 2.29703,0.44287 0,0.24607 -1.3671,3.14699 -3.03799,6.44649 l -3.038,5.99907 -0.1482,3.55668 -0.14819,3.55669 -2.23626,0.0855 c -1.22994,0.047 -2.33029,-0.009 -2.44521,-0.1235 z m 10.39381,-0.18427 c -0.27113,-0.76866 2.08921,-19.27169 2.49088,-19.52637 0.48255,-0.30594 4.71094,-0.33115 5.1729,-0.0309 0.18424,0.11977 0.96714,2.41845 1.7398,5.10819 0.77265,2.68974 1.5222,5.01714 1.66566,5.17201 0.14347,0.15486 0.26084,0.19342 0.26084,0.0857 0,-0.5016 3.05451,-9.89553 3.32385,-10.22225 0.20011,-0.24273 1.16378,-0.37048 2.7948,-0.37048 2.30445,0 2.50931,0.0495 2.7578,0.66687 0.34542,0.85819 2.15024,18.85398 1.9271,19.21503 -0.24227,0.392 -4.79665,0.34399 -5.04209,-0.0531 -0.11074,-0.17917 -0.33657,-2.47989 -0.50186,-5.11272 -0.16529,-2.63282 -0.3849,-4.88257 -0.48802,-4.99942 -0.10312,-0.11685 -0.7739,1.95047 -1.49062,4.59405 -0.71672,2.64357 -1.41938,5.03991 -1.56149,5.32518 -0.2063,0.41416 -0.64599,0.51869 -2.18181,0.51869 -2.27615,0 -1.96452,0.50758 -3.54842,-5.7796 -0.61601,-2.44523 -1.21088,-4.55079 -1.32194,-4.67904 -0.11106,-0.12825 -0.36523,2.06961 -0.56482,4.88414 -0.23164,3.26648 -0.49034,5.19835 -0.71526,5.34137 -0.61321,0.3899 -4.57198,0.27462 -4.7173,-0.13736 z m 68.9748,0.0126 c -0.0783,-0.21066 -0.17632,-3.71742 -0.21779,-7.79278 l -0.0754,-7.40975 -2.51933,-0.1482 -2.51931,-0.14819 0,-2.07473 0,-2.07473 7.55795,0 7.55795,0 0.0868,2.13663 0.0868,2.13664 -2.45795,0.0863 -2.45797,0.0863 -0.14819,7.70614 -0.1482,7.70616 -2.3015,0.0867 c -1.67459,0.0631 -2.3403,-0.0177 -2.4439,-0.2964 z m 11.84991,-0.003 c -0.0812,-0.21173 -0.11249,-4.71858 -0.0694,-10.01522 l 0.0783,-9.63021 2.51931,0 2.51932,0 0.0829,3.77899 0.0829,3.77897 3.24258,0 3.24258,0 0.0829,-3.77897 0.0829,-3.77899 2.51932,0 2.51931,0 0,9.92908 0,9.92907 -2.51931,0 -2.51932,0 -0.0828,-3.92718 -0.0828,-3.92716 -3.24308,0 -3.24308,0 -0.0828,3.92716 -0.0827,3.92718 -2.44989,0.0861 c -1.79963,0.0633 -2.4891,-0.016 -2.59761,-0.29879 z m -119.24325,-23.1481 c -0.42443,-0.51131 -4.83766,-18.90848 -4.65198,-19.39234 0.0979,-0.25504 0.88613,-0.37163 2.5126,-0.37163 1.96826,0 2.41781,0.0893 2.65211,0.52712 0.15516,0.28992 0.72217,2.75523 1.26002,5.47846 0.53786,2.72322 1.06276,4.85345 1.16646,4.7338 0.10369,-0.11964 0.61502,-2.28485 1.13629,-4.81157 1.3161,-6.37961 1.02149,-5.92781 3.86534,-5.92781 1.95644,0 2.41271,0.09 2.63033,0.51869 0.14481,0.28527 0.70376,2.76573 1.24212,5.51213 0.53836,2.7464 1.07251,4.81372 1.18702,4.59405 0.1145,-0.21968 0.64666,-2.53342 1.18259,-5.14166 0.53593,-2.60822 1.10469,-4.90896 1.26392,-5.11273 0.34394,-0.44011 4.83096,-0.52133 5.09617,-0.0922 0.24909,0.40305 -4.55367,19.3775 -4.97215,19.64359 -0.60386,0.38398 -4.84214,0.27105 -5.17226,-0.1378 -0.16452,-0.20377 -0.72406,-2.30443 -1.24341,-4.66814 -1.09896,-5.00169 -1.20915,-5.42221 -1.37692,-5.25446 -0.0689,0.0689 -0.59032,2.23276 -1.15875,4.80862 -0.56844,2.57585 -1.18311,4.86362 -1.36594,5.08392 -0.45536,0.54868 -4.79966,0.557 -5.25356,0.01 z m 22.02747,0.0301 c -0.0813,-0.21199 -0.11268,-4.71907 -0.0696,-10.01571 l 0.0783,-9.6302 2.37112,0 2.37112,0 0,9.92908 0,9.92907 -2.30151,0.0867 c -1.67991,0.0633 -2.34147,-0.0174 -2.44943,-0.2988 z m 11.85631,-0.0101 c -0.0756,-0.20377 -0.1715,-3.70487 -0.21299,-7.78024 l -0.0754,-7.40968 -2.45796,-0.0863 -2.45796,-0.0863 0.0868,-2.13664 0.0868,-2.13663 7.55795,0 7.55795,0 0.0871,2.14882 0.0871,2.14883 -2.5323,0 -2.5323,0 0,7.49867 c 0,5.43711 -0.0978,7.59645 -0.35567,7.85434 -0.49299,0.493 -4.65531,0.48025 -4.83913,-0.0149 z m 12.08225,0.026 c -0.57207,-0.57207 -0.52447,-19.0139 0.0503,-19.49092 0.25865,-0.21466 1.24412,-0.31292 2.59341,-0.25858 l 2.17625,0.0877 0.083,3.78861 0.083,3.78858 3.32547,-0.0837 3.32546,-0.0837 0.14819,-3.70489 0.1482,-3.70487 2.37112,0 2.37112,0 0,9.92907 0,9.92907 -2.37112,0 -2.37112,0 -0.1482,-3.85307 -0.14819,-3.85307 -3.32572,-0.0837 -3.32573,-0.0837 -0.0827,3.93679 -0.0827,3.93681 -2.22655,0.0853 c -1.47739,0.0565 -2.34998,-0.0382 -2.59341,-0.28157 z"
       id="path5403"
       inkscape:connector-curvature="0" />
  </g>
</svg>
