<?xml version="1.0" encoding="UTF-8" standalone="no"?>
<!-- Created with Inkscape (http://www.inkscape.org/) -->

<svg
   xmlns:dc="http://purl.org/dc/elements/1.1/"
   xmlns:cc="http://creativecommons.org/ns#"
   xmlns:rdf="http://www.w3.org/1999/02/22-rdf-syntax-ns#"
   xmlns:svg="http://www.w3.org/2000/svg"
   xmlns="http://www.w3.org/2000/svg"
   xmlns:sodipodi="http://sodipodi.sourceforge.net/DTD/sodipodi-0.dtd"
   xmlns:inkscape="http://www.inkscape.org/namespaces/inkscape"
   width="69.247375mm"
   height="18.942598mm"
   viewBox="0 0 245.36472 67.119443"
   id="svg4789"
   version="1.1"
   inkscape:version="0.91 r13725"
   sodipodi:docname="logo.svg">
  <defs
     id="defs4791" />
  <sodipodi:namedview
     id="base"
     pagecolor="#ffffff"
     bordercolor="#666666"
     borderopacity="1.0"
     inkscape:pageopacity="0.0"
     inkscape:pageshadow="2"
     inkscape:zoom="1.4"
     inkscape:cx="-156.86698"
     inkscape:cy="-51.217718"
     inkscape:document-units="px"
     inkscape:current-layer="layer1"
     showgrid="false"
     fit-margin-top="0"
     fit-margin-left="0"
     fit-margin-right="0"
     fit-margin-bottom="0"
     inkscape:window-width="1920"
     inkscape:window-height="1026"
     inkscape:window-x="0"
     inkscape:window-y="867"
     inkscape:window-maximized="1" />
  <metadata
     id="metadata4794">
    <rdf:RDF>
      <cc:Work
         rdf:about="">
        <dc:format>image/svg+xml</dc:format>
        <dc:type
           rdf:resource="http://purl.org/dc/dcmitype/StillImage" />
        <dc:title></dc:title>
      </cc:Work>
    </rdf:RDF>
  </metadata>
  <g
     inkscape:label="Layer 1"
     inkscape:groupmode="layer"
     id="layer1"
     transform="translate(-136.83369,-500.09392)">
    <path
       style="fill:#4e5054;fill-opacity:1"
       d="m 143.0766,566.68305 c -2.29755,-0.60775 -3.98446,-2.089 -4.77367,-4.19164 -0.72685,-1.93655 -1.00033,-15.09418 -0.32537,-15.65434 0.29634,-0.24594 1.1938,-0.34366 2.62641,-0.28597 l 2.17624,0.0876 0.1482,6.83115 c 0.12848,5.92248 0.21925,6.93944 0.68237,7.64527 1.04568,1.59368 3.33248,1.74777 4.67935,0.31531 0.70516,-0.74998 0.71542,-0.84527 0.8046,-7.4685 0.0581,-4.31465 0.20671,-6.84905 0.41644,-7.10176 0.23112,-0.2785 0.98175,-0.36797 2.57718,-0.30721 l 2.25107,0.0858 0,7.40974 c 0,7.21897 -0.0181,7.44411 -0.70141,8.74352 -0.9673,1.83936 -1.44241,2.31993 -3.1492,3.18543 -1.16343,0.58996 -2.01822,0.7706 -4.00126,0.84553 -1.38698,0.0524 -2.92191,-0.0106 -3.41095,-0.13991 z m 94.36983,3e-4 c -1.70917,-0.36377 -3.69188,-1.68351 -4.22866,-2.81468 -0.26574,-0.55989 -0.48316,-1.56475 -0.48316,-2.23293 l 0,-1.21486 2.37113,0 c 1.45188,0 2.37112,0.12013 2.37112,0.30986 0,0.17043 0.32738,0.63724 0.7275,1.03737 0.96441,0.96441 3.40517,1.04068 4.31113,0.13472 0.66472,-0.66472 0.72085,-0.98524 0.30772,-1.75717 -0.34825,-0.65072 -1.30467,-1.04463 -4.0126,-1.65266 -3.97463,-0.89247 -5.48245,-2.10025 -5.87748,-4.70796 -0.4939,-3.2604 1.43599,-6.21788 4.6684,-7.15409 2.39654,-0.69413 5.57572,-0.48664 7.49743,0.48933 1.59603,0.81057 2.75155,2.62623 2.75155,4.32351 l 0,0.97456 -2.44522,-0.002 c -2.40494,-0.002 -2.45353,-0.0165 -2.95012,-0.88917 -0.96216,-1.69099 -4.38554,-1.10358 -4.38554,0.7524 0,1.00016 0.58354,1.30382 3.71651,1.93406 5.02721,1.0113 6.36077,2.30037 6.36077,6.14859 0,2.88142 -0.8169,4.3641 -3.02937,5.49839 -1.34132,0.68766 -2.1133,0.865 -4.12665,0.9479 -1.36217,0.0562 -2.95717,-2.7e-4 -3.54446,-0.12527 z m -80.74457,-0.39873 c -0.0813,-0.21199 -0.11267,-4.71907 -0.0696,-10.01572 l 0.0783,-9.63016 2.66751,0 2.66751,0 3.26029,5.25669 c 1.79316,2.89118 3.35725,5.2586 3.47575,5.26092 0.1185,0.003 0.25188,-2.36318 0.29639,-5.25669 l 0.081,-5.26092 2.37112,0 2.37112,0 0.0782,9.76083 c 0.061,7.61164 -0.004,9.81319 -0.29638,9.99862 -0.20604,0.1308 -1.34553,0.23984 -2.53222,0.24234 l -2.15759,0.005 -1.87174,-2.8898 c -1.02947,-1.58939 -2.65937,-4.09019 -3.62201,-5.55731 l -1.75027,-2.66751 -0.14819,5.48321 -0.1482,5.48322 -2.30151,0.0867 c -1.6799,0.0633 -2.34146,-0.0174 -2.44942,-0.29879 z m 19.56156,-5.9e-4 c -0.0812,-0.21173 -0.11248,-4.71858 -0.0694,-10.01523 l 0.0783,-9.63006 2.51932,0 2.51931,0 0,9.92907 0,9.92907 -2.44989,0.0861 c -1.79963,0.0633 -2.4891,-0.016 -2.59762,-0.29879 z m 12.37068,0.10878 c -0.42079,-0.26695 -5.98644,-18.15533 -5.98828,-19.24673 -8.9e-4,-0.66375 0.0565,-0.67621 2.74047,-0.59277 l 2.74161,0.0852 1.51213,6.00738 c 0.83168,3.30407 1.5793,6.07455 1.66137,6.15661 0.0821,0.0821 0.70998,-1.88768 1.39536,-4.37724 0.68537,-2.48955 1.47158,-5.26003 1.74712,-6.15661 l 0.501,-1.63014 2.59341,-0.0856 c 2.52979,-0.0835 2.5934,-0.0691 2.5934,0.5927 0,0.78149 -5.85906,18.57072 -6.30026,19.12878 -0.33242,0.42049 -4.56905,0.51705 -5.19733,0.11845 z m 13.04442,-0.098 c -0.51385,-0.51365 -0.51915,-18.93501 -0.005,-19.44858 0.55683,-0.55683 12.19834,-0.49808 12.66475,0.0639 0.20538,0.24746 0.31145,1.12892 0.25858,2.14883 l -0.0896,1.72924 -3.85307,0.14821 -3.85307,0.14819 -0.0896,1.55604 -0.0896,1.55605 3.27013,0 c 3.73443,0 3.70324,-0.0251 3.52218,2.83535 l -0.0926,1.46231 -3.34889,0.084 -3.34888,0.0839 0.0886,1.69439 0.0886,1.6944 4.08818,0.0826 4.08818,0.0826 -0.0869,2.14038 -0.0869,2.14038 -6.38161,0.0798 c -4.71422,0.0589 -6.476,-0.0147 -6.74288,-0.28158 z m 15.19035,-0.0108 c -0.0812,-0.21172 -0.11249,-4.71858 -0.0694,-10.01523 l 0.0783,-9.63006 4.13445,-0.0829 c 2.32312,-0.0465 4.85519,0.0666 5.7796,0.25824 4.83138,1.00169 6.38619,7.38965 2.64878,10.88257 l -0.92353,0.86311 1.8124,3.40356 c 0.99681,1.87195 1.8124,3.69633 1.8124,4.05418 0,0.62683 -0.0948,0.64747 -2.59342,0.56496 l -2.59341,-0.0856 -1.86167,-3.63078 c -1.41218,-2.75415 -2.00035,-3.63078 -2.4361,-3.63078 -0.53251,0 -0.58049,0.26488 -0.65765,3.63078 l -0.0832,3.63078 -2.44989,0.0861 c -1.79962,0.0633 -2.4891,-0.016 -2.59761,-0.29879 z m 8.48966,-11.51279 c 0.8705,-0.46588 1.25071,-1.69537 0.8348,-2.69947 -0.35793,-0.86411 -1.66193,-1.42696 -3.31369,-1.43033 l -0.81507,-0.002 0,2.22293 0,2.22292 1.35324,0 c 0.74428,0 1.61761,-0.14148 1.94072,-0.31441 z m 24.93357,11.52915 c -0.57206,-0.57206 -0.52446,-19.01389 0.0503,-19.49092 0.25865,-0.21466 1.24411,-0.31291 2.59342,-0.25858 l 2.17624,0.0878 0,9.92906 0,9.92907 -2.22655,0.0853 c -1.4774,0.0565 -2.34999,-0.0382 -2.59342,-0.28157 z m 11.93018,-0.0135 c -0.0783,-0.21048 -0.17632,-3.71723 -0.21781,-7.7926 l -0.0754,-7.40975 -2.51931,-0.14819 -2.51932,-0.1482 -0.087,-1.80542 c -0.0618,-1.28243 0.0347,-1.90642 0.3331,-2.15409 0.30313,-0.25159 2.47304,-0.32657 7.79316,-0.26931 l 7.37305,0.0794 0,2.07473 0,2.07473 -2.51931,0.1482 -2.51932,0.14819 -0.1482,7.70614 -0.14818,7.70615 -2.30153,0.0867 c -1.67458,0.0631 -2.34029,-0.0177 -2.44388,-0.29639 z m 17.41246,0.0135 c -0.24631,-0.2461 -0.36687,-1.41948 -0.36687,-3.57049 l 0,-3.20383 -2.9639,-5.92217 c -1.63015,-3.25718 -2.9639,-6.19017 -2.9639,-6.51775 0,-0.55182 0.19343,-0.59561 2.63122,-0.59561 1.74645,0 2.73268,0.12458 2.93297,0.37049 0.16596,0.20377 0.93198,1.87707 1.70226,3.71845 0.77028,1.84138 1.44719,3.30128 1.50425,3.24422 0.057,-0.057 0.9043,-1.73037 1.88274,-3.71846 l 1.77898,-3.6147 2.5273,0 c 2.05597,0 2.52729,0.0834 2.52729,0.44741 0,0.24607 -1.3671,3.14699 -3.038,6.44648 l -3.03799,5.99909 -0.1482,3.55667 -0.1482,3.55669 -2.22654,0.0854 c -1.4774,0.0565 -2.34998,-0.0382 -2.59341,-0.28158 z m -69.35982,-22.77259 c -2.90891,-0.61812 -5.26362,-2.5048 -6.64854,-5.32706 -0.55708,-1.13523 -0.66051,-1.84693 -0.66896,-4.60315 -0.009,-2.91346 0.0723,-3.43371 0.76439,-4.89043 0.9705,-2.04293 2.56064,-3.62765 4.68876,-4.67279 1.47995,-0.72682 1.97127,-0.8104 4.76229,-0.8102 2.7323,2.1e-4 3.3127,0.0943 4.75577,0.77095 3.76296,1.76443 5.37214,4.29341 5.56702,8.74912 0.21161,4.83838 -1.3943,7.9964 -4.99892,9.83043 -1.60954,0.81893 -2.31765,0.99433 -4.4347,1.09853 -1.38562,0.0682 -3.08983,0.003 -3.78711,-0.1454 z m 5.51344,-5.24793 c 3.14728,-2.33099 3.12462,-7.346 -0.0439,-9.69366 -0.62512,-0.46318 -1.27566,-0.62003 -2.57168,-0.62003 -1.86615,0 -2.82224,0.48602 -3.96375,2.01496 -0.65095,0.87188 -0.98411,3.61303 -0.65339,5.37591 0.23641,1.26022 1.44955,2.76683 2.67591,3.32327 1.20594,0.54716 3.55613,0.34062 4.55673,-0.40045 z m 14.72332,5.28478 c -2.38603,-0.63118 -4.27278,-2.40843 -4.87216,-4.58944 -0.22131,-0.80533 -0.30807,-3.6771 -0.25199,-8.34152 l 0.0855,-7.11336 2.37113,0 2.37112,0 0.14819,6.87017 c 0.1369,6.34666 0.19474,6.93245 0.75901,7.68745 0.83152,1.11259 1.98513,1.45892 3.42383,1.02788 1.91479,-0.57369 2.04136,-1.10498 2.04136,-8.56932 0,-5.22549 0.0818,-6.56686 0.41716,-6.84523 0.25865,-0.21466 1.24412,-0.31292 2.59341,-0.25859 l 2.17625,0.0876 0.0921,6.52058 c 0.0571,4.0439 -0.0335,7.1033 -0.23865,8.05475 -0.76057,3.52805 -3.39541,5.44602 -7.70531,5.6089 -1.38698,0.0524 -2.9219,-0.0106 -3.41095,-0.13991 z m -92.4824,-0.39834 c -0.0813,-0.21199 -0.11267,-4.71906 -0.0696,-10.01571 l 0.0783,-9.63027 3.84974,-0.0835 c 2.11735,-0.0459 4.51812,0.0593 5.33502,0.23374 3.3495,0.71538 5.00066,2.81341 5.01348,6.37032 0.0148,4.08337 -2.0815,6.09445 -6.63845,6.3688 l -2.52116,0.15179 -0.14819,3.40848 -0.1482,3.40849 -2.30151,0.0867 c -1.6799,0.0633 -2.34146,-0.0174 -2.44942,-0.2988 z m 8.4558,-11.49525 c 0.83074,-0.83074 0.76335,-2.2275 -0.15159,-3.14245 -0.60325,-0.60324 -0.98256,-0.72713 -2.00064,-0.65341 l -1.25625,0.091 -0.0871,2.14883 -0.0871,2.14882 1.49494,0 c 1.09975,0 1.65163,-0.1567 2.08771,-0.59278 z m 7.54681,11.48887 c -0.08,-0.20848 -0.11022,-4.71268 -0.0672,-10.00933 l 0.0783,-9.63027 2.37112,0 2.37113,0 0.1482,7.55795 0.14819,7.55795 3.55668,0.14818 3.55668,0.14821 0,2.22291 0,2.22294 -6.00884,0.0802 c -4.66507,0.0622 -6.04136,-0.005 -6.1543,-0.2988 z m 15.48421,0.18051 c -0.11494,-0.11493 -0.20897,-1.65508 -0.20897,-3.42255 l 0,-3.21359 -3.1121,-6.21881 c -1.71165,-3.42034 -3.1121,-6.42007 -3.1121,-6.66608 0,-0.36556 0.4861,-0.44728 2.66069,-0.44728 3.11948,0 2.84319,-0.24972 4.75477,4.29766 0.68527,1.63014 1.29598,3.0177 1.35715,3.08344 0.0611,0.0657 0.85632,-1.46622 1.76702,-3.40441 0.9107,-1.93818 1.81275,-3.62379 2.00458,-3.74579 0.19182,-0.122 1.38242,-0.22387 2.64578,-0.22636 1.85265,-0.004 2.29703,0.082 2.29703,0.44287 0,0.24607 -1.3671,3.14699 -3.03799,6.44649 l -3.038,5.99907 -0.1482,3.55668 -0.14819,3.55669 -2.23626,0.0855 c -1.22994,0.047 -2.33029,-0.009 -2.44521,-0.1235 z m 10.39381,-0.18427 c -0.27113,-0.76866 2.08921,-19.27169 2.49088,-19.52637 0.48255,-0.30594 4.71094,-0.33115 5.1729,-0.0309 0.18424,0.11977 0.96714,2.41845 1.7398,5.10819 0.77265,2.68974 1.5222,5.01714 1.66566,5.17201 0.14347,0.15486 0.26084,0.19342 0.26084,0.0857 0,-0.5016 3.05451,-9.89553 3.32385,-10.22225 0.20011,-0.24273 1.16378,-0.37048 2.7948,-0.37048 2.30445,0 2.50931,0.0495 2.7578,0.66687 0.34542,0.85819 2.15024,18.85398 1.9271,19.21503 -0.24227,0.392 -4.79665,0.34399 -5.04209,-0.0531 -0.11074,-0.17917 -0.33657,-2.47989 -0.50186,-5.11272 -0.16529,-2.63282 -0.3849,-4.88257 -0.48802,-4.99942 -0.10312,-0.11685 -0.7739,1.95047 -1.49062,4.59405 -0.71672,2.64357 -1.41938,5.03991 -1.56149,5.32518 -0.2063,0.41416 -0.64599,0.51869 -2.18181,0.51869 -2.27615,0 -1.96452,0.50758 -3.54842,-5.7796 -0.61601,-2.44523 -1.21088,-4.55079 -1.32194,-4.67904 -0.11106,-0.12825 -0.36523,2.06961 -0.56482,4.88414 -0.23164,3.26648 -0.49034,5.19835 -0.71526,5.34137 -0.61321,0.3899 -4.57198,0.27462 -4.7173,-0.13736 z m 68.9748,0.0126 c -0.0783,-0.21066 -0.17632,-3.71742 -0.21779,-7.79278 l -0.0754,-7.40975 -2.51933,-0.1482 -2.51931,-0.14819 0,-2.07473 0,-2.07473 7.55795,0 7.55795,0 0.0868,2.13663 0.0868,2.13664 -2.45795,0.0863 -2.45797,0.0863 -0.14819,7.70614 -0.1482,7.70616 -2.3015,0.0867 c -1.67459,0.0631 -2.3403,-0.0177 -2.4439,-0.2964 z m 11.84991,-0.003 c -0.0812,-0.21173 -0.11249,-4.71858 -0.0694,-10.01522 l 0.0783,-9.63021 2.51931,0 2.51932,0 0.0829,3.77899 0.0829,3.77897 3.24258,0 3.24258,0 0.0829,-3.77897 0.0829,-3.77899 2.51932,0 2.51931,0 0,9.92908 0,9.92907 -2.51931,0 -2.51932,0 -0.0828,-3.92718 -0.0828,-3.92716 -3.24308,0 -3.24308,0 -0.0828,3.92716 -0.0827,3.92718 -2.44989,0.0861 c -1.79963,0.0633 -2.4891,-0.016 -2.59761,-0.29879 z m -119.24325,-23.1481 c -0.42443,-0.51131 -4.83766,-18.90848 -4.65198,-19.39234 0.0979,-0.25504 0.88613,-0.37163 2.5126,-0.37163 1.96826,0 2.41781,0.0893 2.65211,0.52712 0.15516,0.28992 0.72217,2.75523 1.26002,5.47846 0.53786,2.72322 1.06276,4.85345 1.16646,4.7338 0.10369,-0.11964 0.61502,-2.28485 1.13629,-4.81157 1.3161,-6.37961 1.02149,-5.92781 3.86534,-5.92781 1.95644,0 2.41271,0.09 2.63033,0.51869 0.14481,0.28527 0.70376,2.76573 1.24212,5.51213 0.53836,2.7464 1.07251,4.81372 1.18702,4.59405 0.1145,-0.21968 0.64666,-2.53342 1.18259,-5.14166 0.53593,-2.60822 1.10469,-4.90896 1.26392,-5.11273 0.34394,-0.44011 4.83096,-0.52133 5.09617,-0.0922 0.24909,0.40305 -4.55367,19.3775 -4.97215,19.64359 -0.60386,0.38398 -4.84214,0.27105 -5.17226,-0.1378 -0.16452,-0.20377 -0.72406,-2.30443 -1.24341,-4.66814 -1.09896,-5.00169 -1.20915,-5.42221 -1.37692,-5.25446 -0.0689,0.0689 -0.59032,2.23276 -1.15875,4.80862 -0.56844,2.57585 -1.18311,4.86362 -1.36594,5.08392 -0.45536,0.54868 -4.79966,0.557 -5.25356,0.01 z m 22.02747,0.0301 c -0.0813,-0.21199 -0.11268,-4.71907 -0.0696,-10.01571 l 0.0783,-9.6302 2.37112,0 2.37112,0 0,9.92908 0,9.92907 -2.30151,0.0867 c -1.67991,0.0633 -2.34147,-0.0174 -2.44943,-0.2988 z m 11.85631,-0.0101 c -0.0756,-0.20377 -0.1715,-3.70487 -0.21299,-7.78024 l -0.0754,-7.40968 -2.45796,-0.0863 -2.45796,-0.0863 0.0868,-2.13664 0.0868,-2.13663 7.55795,0 7.55795,0 0.0871,2.14882 0.0871,2.14883 -2.5323,0 -2.5323,0 0,7.49867 c 0,5.43711 -0.0978,7.59645 -0.35567,7.85434 -0.49299,0.493 -4.65531,0.48025 -4.83913,-0.0149 z m 12.08225,0.026 c -0.57207,-0.57207 -0.52447,-19.0139 0.0503,-19.49092 0.25865,-0.21466 1.24412,-0.31292 2.59341,-0.25858 l 2.17625,0.0877 0.083,3.78861 0.083,3.78858 3.32547,-0.0837 3.32546,-0.0837 0.14819,-3.70489 0.1482,-3.70487 2.37112,0 2.37112,0 0,9.92907 0,9.92907 -2.37112,0 -2.37112,0 -0.1482,-3.85307 -0.14819,-3.85307 -3.32572,-0.0837 -3.32573,-0.0837 -0.0827,3.93679 -0.0827,3.93681 -2.22655,0.0853 c -1.47739,0.0565 -2.34998,-0.0382 -2.59341,-0.28157 z"
       id="path5403"
       inkscape:connector-curvature="0" />
    <g
       transform="matrix(0.12853885,0,0,0.12853885,319.66014,381.12041)"
       id="layer1-9"
       inkscape:label="Layer 1">
      <g
         id="g5539"
         transform="translate(-99.868739,1312.5042)">
        <path
           inkscape:connector-curvature="0"
           id="path5541"
           d="m 356.59863,134.70412 c -5.44316,-0.63405 -9.08918,-2.6398 -10.81266,-5.94827 -1.19079,-2.28591 -1.31119,-3.58592 -1.31119,-14.15828 0,-13.8963 0.52444,-15.574179 5.70139,-18.240806 2.98812,-1.539162 3.46445,-1.585771 18.09329,-1.770275 17.09498,-0.215615 20.78876,0.260726 24.01969,3.097529 2.15218,1.889633 3.47006,5.704782 3.47006,10.045492 l 0,1.87958 -6.09136,-0.1801 -6.09136,-0.1801 -0.48915,-1.83414 c -0.26902,-1.00877 -0.85511,-2.06631 -1.3024,-2.35007 -0.44729,-0.28377 -5.43649,-0.52028 -11.08709,-0.52558 l -10.27383,-0.01 -1.83936,1.83937 c -1.80211,1.80211 -1.83937,1.97477 -1.83937,8.52357 0,6.2578 0.0985,6.78273 1.54454,8.22874 1.51906,1.51907 1.72145,1.54454 12.27051,1.54454 9.88696,0 10.82441,-0.0984 11.98448,-1.25851 0.69218,-0.69218 1.25851,-1.97669 1.25851,-2.85444 l 0,-1.59593 6.13526,0.1801 6.13525,0.1801 -0.11153,3.96351 c -0.20569,7.30986 -3.11369,10.33983 -11.02097,11.48322 -4.69913,0.67949 -22.31576,0.64244 -28.34271,-0.0596 z m 59.05889,0.005 c -5.24814,-0.82227 -8.7445,-3.05167 -10.55633,-6.73098 -1.42457,-2.89288 -1.47627,-3.52672 -1.47627,-18.10002 l 0,-15.102167 6.13526,-0.180099 6.13525,-0.1801 0,13.580406 c 0,17.73648 -0.80858,16.6776 12.71385,16.64948 6.572,-0.0136 9.94144,-0.26315 10.62319,-0.78657 2.21239,-1.69863 2.46249,-3.37002 2.46249,-16.45661 l 0,-12.941135 5.97794,0 5.97794,0 0,14.871845 c 0,9.52989 -0.26428,15.75393 -0.73575,17.32755 -0.89242,2.97864 -4.56476,6.45774 -7.87199,7.45776 -3.06029,0.92536 -24.49978,1.35636 -29.38558,0.59076 z m -362.843286,-20.11158 0,-20.136215 9.388192,0 9.388191,0 6.755311,12.585135 c 3.715422,6.92183 6.934052,12.58514 7.152511,12.58514 0.218459,0 3.411478,-5.59252 7.095594,-12.42782 l 6.698395,-12.427827 9.482262,-0.173706 9.48226,-0.1737 0,20.152603 0,20.15261 -5.96613,0 -5.96613,0 -0.16913,-14.28817 -0.16912,-14.28819 -7.872169,14.13087 -7.872167,14.13086 -4.71297,0.15374 -4.71297,0.15375 -7.865711,-14.23872 -7.86571,-14.23871 -0.169126,14.24228 -0.169131,14.24229 -5.966125,0 -5.966127,0 z m 71.864036,16.20337 c 1.15539,-2.16307 6.05038,-11.22437 10.87775,-20.13622 l 8.77703,-16.203365 7.88929,0 7.88928,0 10.85014,19.742765 c 5.96757,10.85852 10.85013,19.91982 10.85013,20.13622 0,0.2164 -2.94621,0.39345 -6.54713,0.39345 l -6.54713,0 -1.95322,-3.46091 -1.95322,-3.46091 -12.58659,0 -12.5866,0 -1.69738,3.46091 -1.6974,3.46091 -6.83283,0 -6.83283,0 z M 159.7879,118.617 c 0,-0.63767 -7.21135,-14.07296 -7.55109,-14.06824 -0.3313,0.004 -7.55108,13.48332 -7.55108,14.09724 0,0.19601 3.39799,0.35637 7.55108,0.35637 4.1531,0 7.55109,-0.17342 7.55109,-0.38537 z m 27.05804,-4.05841 0,-20.175194 20.60816,0.196291 c 18.69748,0.178098 20.82985,0.306422 22.99926,1.384088 3.63227,1.80435 4.84536,4.738115 4.84536,11.718155 0,6.82115 -0.87461,8.98484 -4.10385,10.15255 l -2.22814,0.80571 2.27097,1.16508 c 2.98627,1.53205 4.06102,4.22853 4.06102,10.18888 l 0,4.73964 -5.90463,0 -5.90464,0 -0.2658,-4.17425 c -0.40648,-6.3837 -0.70131,-6.52311 -13.79417,-6.52311 l -10.62766,0 0,5.34868 0,5.34868 -5.97794,0 -5.97794,0 z m 35.45791,-1.13926 c 1.38745,-1.15327 1.42158,-6.52961 0.0502,-7.90103 -0.82539,-0.82541 -2.85344,-0.98884 -12.2705,-0.98884 l -11.28168,0 0,5.08502 0,5.08501 11.23152,-0.20827 c 8.34638,-0.15478 11.49841,-0.43012 12.27051,-1.07189 z m 22.43372,1.17824 0,-20.136215 5.97794,0 5.97794,0 0,20.136215 0,20.13622 -5.97794,0 -5.97794,0 z m 20.91395,0.15732 0.16615,-19.978907 21.86668,-0.165469 21.86667,-0.16547 0,4.727582 0,4.727584 -15.73142,0 -15.73142,0 0,3.14628 0,3.14629 14.78754,0 14.78753,0 0,4.09017 0,4.09016 -14.78753,0 -14.78754,0 0,3.46092 0,3.46091 16.04605,0 16.04605,0 0,4.71943 0,4.71942 -22.34746,0 -22.34745,0 z m 196.80892,-0.1963 0,-20.175194 20.60816,0.196291 c 19.34676,0.184284 20.7587,0.275274 23.06753,1.486581 3.75744,1.971304 4.78134,4.469182 4.75478,11.599662 -0.0252,6.76411 -0.66257,8.47968 -3.74214,10.07219 l -2.04158,1.05574 2.28343,1.34726 c 2.89975,1.71089 3.52259,3.40824 3.52259,9.59958 l 0,4.99309 -5.97794,0 -5.97794,0 0,-3.80414 c 0,-3.19996 -0.24531,-4.04945 -1.54454,-5.34868 -1.51906,-1.51907 -1.72145,-1.54454 -12.27051,-1.54454 l -10.72596,0 0,5.34868 0,5.34868 -5.97794,0 -5.97794,0 z m 35.68913,-1.3996 c 1.55156,-1.55373 1.44658,-6.60616 -0.1617,-7.78216 -0.86872,-0.63522 -3.9645,-0.84737 -12.3652,-0.84737 l -11.20635,0 0,5.08502 0,5.08501 11.30543,-0.20827 c 9.84188,-0.18131 11.45072,-0.35378 12.42782,-1.33223 z m 22.2025,1.43858 0,-20.136215 5.97794,0 5.97794,0 0,20.136215 0,20.13622 -5.97794,0 -5.97794,0 z m 20.91394,0.15732 0.16616,-19.978907 21.86668,-0.165469 21.86667,-0.16547 0,4.727582 0,4.727584 -15.73142,0 -15.73142,0 0,3.14628 0,3.14629 14.78753,0 14.78754,0 0,4.09017 0,4.09016 -14.78754,0 -14.78753,0 0,3.46092 0,3.46091 16.04605,0 16.04605,0 0,4.71943 0,4.71942 -22.34746,0 -22.34745,0 z M 560.30988,69.399766 535.1396,55.735014 534.97268,45.365799 534.80576,34.996583 556.02296,23.355332 c 11.66946,-6.402688 23.14199,-12.693558 25.49451,-13.9797021 l 4.27731,-2.3384569 0,8.780423 0,8.78043 -4.4048,2.218219 -4.4048,2.218218 0,16.03023 0,16.03023 4.4048,2.218218 4.4048,2.218219 0,8.801686 c 0,4.840929 -0.0708,8.785885 -0.15732,8.766579 -0.0865,-0.01932 -11.48393,-6.184248 -25.32758,-13.699859 z m 5.34868,-24.361961 0,-9.780369 -9.396,4.903628 c -5.16781,2.696995 -9.20291,5.084446 -8.96691,5.305441 0.65303,0.611518 17.35137,9.330639 17.89097,9.341859 0.25956,0.0057 0.47194,-4.391357 0.47194,-9.770559 z M 546.46622,4.5479777 c -6.53721,-1.6732128 -9.75304,-5.17695896 -11.35329,-12.3697422 -0.86629,-3.8938035 -0.99009,-7.5310405 -0.76398,-22.4451825 0.30113,-19.861554 0.78111,-22.736849 4.449,-26.651412 2.20286,-2.350998 7.31733,-4.046726 12.20528,-4.046726 l 2.69945,0 0,7.865711 0,7.86571 -1.8421,0 c -1.24056,0 -2.26798,0.541419 -3.14628,1.658004 -1.22144,1.552805 -1.30404,2.461124 -1.30184,14.315593 0.003,17.741142 0.19891,18.006273 13.28426,18.006273 8.30892,0 10.48217,-0.636267 11.76115,-3.443331 1.06664,-2.340999 1.02151,-26.499139 -0.0535,-28.648768 -0.55137,-1.102534 -1.58394,-1.750479 -3.45164,-2.16594 l -2.66493,-0.592798 0,-7.825708 0,-7.825702 4.9216,0.284908 c 9.05019,0.523907 12.97179,3.789964 14.58711,12.148691 0.48891,2.529939 0.65221,9.905295 0.49461,22.338617 -0.20205,15.939938 -0.39617,19.0060866 -1.3744,21.7079708 -1.59769,4.41289007 -3.60736,6.8295195 -7.11251,8.5528023 -2.85128,1.4018143 -3.76566,1.493044 -16.23584,1.6198392 -7.26792,0.0739 -14.06389,-0.083062 -15.10217,-0.3488096 z m -11.64125,-101.6953307 0,-29.889697 6.29257,0 6.29257,0 0,11.01199 0,11.012 19.19233,0 19.19234,0 0,7.865707 0,7.865711 -19.19234,0 -19.19233,0 0,11.011994 0,11.011995 -6.29257,0 -6.29257,0 z m 0,-45.306497 0,-7.86571 25.48491,0 25.4849,0 0,7.86571 0,7.86572 -25.4849,0 -25.48491,0 z m 0,-115.15896 0,-12.27547 16.4812,-13.05212 c 9.06465,-7.17866 17.34725,-13.82252 18.40576,-14.76413 l 1.92457,-1.712 -18.40576,-0.0184 -18.40577,-0.0185 0,-7.86571 0,-7.86571 25.48491,0 25.4849,0 0,12.22375 0,12.22376 -18.22257,14.36234 c -10.02241,7.8993 -18.23421,14.57473 -18.24845,14.8343 -0.0142,0.25957 8.18592,0.47194 18.22257,0.47194 l 18.24845,0 0,7.86571 0,7.86571 -25.4849,0 -25.48491,0 z m 8.62324,-65.39032 c -4.01292,-1.07903 -6.53096,-3.60857 -7.85974,-7.89566 -0.92001,-2.96825 -1.07813,-6.33929 -1.07813,-22.98535 0,-17.09305 0.13882,-19.90459 1.12176,-22.72018 1.84885,-5.29597 5.72316,-7.79878 12.07243,-7.79878 l 3.48112,0 0,7.86571 0,7.86571 -1.81072,0 c -3.28545,0 -3.51952,0.92255 -3.74003,14.74091 -0.19391,12.15185 -0.14762,12.73209 1.14687,14.37778 1.80172,2.29051 4.59704,2.33619 6.06285,0.0991 0.89656,-1.36833 1.12766,-4.28384 1.50884,-19.03502 0.491,-19.00154 0.95893,-21.72973 4.25423,-24.80373 2.41065,-2.24878 5.70839,-3.12406 11.77029,-3.12406 8.86402,0 12.68164,2.0851 14.58524,7.96614 1.35662,4.19121 1.98979,38.15051 0.83856,44.97575 -1.32031,7.82768 -4.51276,10.73248 -12.34788,11.2353 l -4.64906,0.29836 0,-7.94846 0,-7.94846 1.60174,0 c 0.88096,0 2.31238,-0.71063 3.18092,-1.57917 l 1.57917,-1.57917 -0.19195,-13.45843 c -0.17391,-12.19446 -0.30452,-13.58268 -1.39067,-14.78151 -1.19452,-1.31844 -3.79202,-1.73146 -5.21178,-0.8287 -1.65589,1.05291 -2.12602,4.6818 -2.4527,18.93228 -0.40207,17.53889 -1.26546,23.01193 -4.07314,25.81962 -3.03971,3.03971 -11.65957,4.122 -18.39822,2.31004 z"
           style="fill:#000000"
           sodipodi:nodetypes="csssssscccscccsssscscccsscccsscccsccscccsssccccccsssccccccccccccccccccccsscccssscccccccccsscsssccsssscsscccsscccccccsscccsccccccccccccccccccccccccccccccccccccccsssscsscccsssccccccssscccssccccccccccccccccccccccccccccccccccscccsscccccccccscsscsscscsssscccsscsssscccssssssccccccccccccccccccccccccccccccsscccccccccscscccccccsssscccsssssssssscccsscssssscc" />
        <path
           style="fill:#f3e825"
           d="m 52.814234,-153.78047 0,-233.13966 233.139656,0 233.13966,0 0,233.13966 0,233.139661 -233.13966,0 -233.139656,0 z m 486.010736,-43.41872 0,-26.6993 21.48491,0 21.4849,0 0,26.6993 0,28.6993 -21.4849,0 -21.48491,0 z"
           id="path5543"
           inkscape:connector-curvature="0"
           sodipodi:nodetypes="cccccccccccccccccc" />
        <path
           style="fill:#1f8fdf"
           d="m 52.814234,-153.78047 0,-233.13966 233.140506,0 233.14049,0 -0.15815,232.98235 L 518.77892,79.044562 285.79658,79.20187 52.814234,79.359184 Z M 351.08748,54.451871 c 31.26867,-7.74836 62.56819,-18.81612 92.80988,-32.818318 4.84528,-2.243414 12.77391,-5.77396 17.61919,-7.845662 10.1532,-4.341218 23.59713,-11.0638646 23.59713,-11.7997553 0,-1.38445316 -11.6301,-5.0270196 -20.37017,-6.3799722 -3.86648,-0.5985302 -5.4128,-0.6006571 -7.04709,-0.00969 -1.80699,0.6534203 -2.43522,0.582868 -4.5876,-0.5151915 -2.18255,-1.1134574 -10.54854,-4.4493052 -11.15842,-4.4493052 -0.12319,0 -0.0571,0.8344575 0.1469,1.854357 0.25982,1.299107 -0.0388,2.5173042 -0.9975,4.0684223 -1.34741,2.1801547 -7.86325,7.4835691 -11.80109,9.6052344 -1.91986,1.0343913 -2.07292,1.0311003 -3.29042,-0.070716 -1.77861,-1.6096264 -3.81969,-7.3927484 -4.25521,-12.0565421 -0.20127,-2.155318 -0.55736,-4.2284994 -0.79133,-4.6070664 -0.28277,-0.457527 -1.57262,-0.06882 -3.84706,1.159343 -8.10146,4.3746816 -17.85491,6.2358597 -23.0989,4.4077931 -4.05149,-1.4123544 -2.70239,-3.9334908 4.39261,-8.2086811 4.44077,-2.675852 4.51898,-2.7652 2.58507,-2.953027 -1.09684,-0.106533 -2.35109,-0.62365 -2.78722,-1.149161 -1.18248,-1.424808 0.30733,-2.096936 4.67347,-2.108432 4.04415,-0.01064 6.09389,-0.789183 6.09389,-2.314596 0,-0.835483 -0.44483,-0.921628 -2.67435,-0.517922 -3.08355,0.558346 -3.77544,0.59052 -9.17666,0.426718 -2.86639,-0.08693 -3.91278,-0.341699 -3.72701,-0.907433 0.14205,-0.432614 1.01938,-0.876579 1.9496,-0.986586 1.22543,-0.144924 1.92914,-0.769172 2.55463,-2.266174 0.4748,-1.136381 1.74482,-2.693855 2.82225,-3.461058 1.07743,-0.767196 1.95897,-1.800373 1.95897,-2.295938 0,-1.045749 -0.1375,-1.058095 -3.38729,-0.304163 -3.27017,0.758657 -5.27852,-0.09904 -6.37463,-2.722392 -0.76667,-1.834907 -0.76904,-3.238043 -0.0169,-10.024999 0.85558,-7.72044 1.62658,-10.502731 2.9104,-10.502731 1.48128,0 4.23966,1.961438 5.64723,4.015653 0.83203,1.214264 2.16841,2.506481 2.96974,2.871595 2.99621,1.36516 6.97042,0.438214 9.44624,-2.203249 1.42251,-1.517679 2.381,-1.762064 6.13616,-1.56454 1.22171,0.06427 2.33295,-0.3621 3.0719,-1.178636 1.06418,-1.175911 1.07838,-1.400486 0.1756,-2.778295 -2.02877,-3.096302 -11.43012,-6.144875 -19.30005,-6.258418 -3.75935,-0.05424 -5.29295,0.2199 -7.41692,1.325819 -2.48684,1.294859 -2.80967,1.325913 -4.53086,0.435848 -1.27784,-0.660789 -3.70749,-0.958345 -7.82529,-0.958345 -6.68247,0 -7.70948,-0.579647 -5.18102,-2.924169 1.38281,-1.282218 1.64838,-2.065253 1.63117,-4.809694 -0.0113,-1.802972 -0.56838,-4.835543 -1.23797,-6.739045 -2.19306,-6.23445 -1.50036,-9.256198 3.06801,-13.383437 4.14449,-3.744298 9.1018,-3.839322 19.80113,-0.379555 3.16913,1.024776 7.60263,2.032235 9.85222,2.238789 9.30538,0.854399 18.53402,5.894884 21.94171,11.984096 0.52607,0.940015 0.80562,0.933666 3.45593,-0.07849 3.33302,-1.272892 8.80632,-5.952958 10.26832,-8.780153 1.56344,-3.023352 1.8535,-11.950241 0.53561,-16.483631 -3.16348,-10.88198 -12.7383,-18.98254 -27.07183,-22.90352 -2.7657,-0.75656 -7.15477,-2.56115 -9.75349,-4.01019 l -4.72493,-2.63463 -6.6072,0.0426 c -7.29772,0.0471 -14.40814,1.55204 -22.65325,4.79477 -5.05124,1.98661 -9.98058,6.07129 -11.36753,9.41966 -0.40757,0.98396 -0.99336,1.78901 -1.30176,1.78901 -0.30841,0 -1.54105,1.53249 -2.73922,3.40552 -1.54548,2.41598 -3.16846,3.97193 -5.58548,5.35481 -3.86072,2.20889 -6.05376,4.79278 -8.37962,9.873162 -2.13435,4.662032 -1.82337,8.413668 1.07673,12.989888 4.34038,6.848869 4.457,7.225744 3.99856,12.921745 -0.41348,5.137353 -0.38985,5.258347 1.5565,7.968575 1.08699,1.513614 1.97635,3.471862 1.97635,4.351664 0,0.879801 0.70387,2.63685 1.56415,3.904551 1.9393,2.857713 2.83257,5.971351 2.83713,9.889243 0.004,3.391789 1.38236,6.516559 4.54378,10.300538 1.16245,1.391369 2.49162,3.778599 2.95372,5.304956 2.66429,8.800585 3.50526,10.90852 5.67379,14.221658 2.87218,4.3882107 4.67988,6.1364624 10.43316,10.0900454 9.47317,6.5098382 6.34646,10.4637924 -12.54254,15.8609786 -9.96155,2.84633 -13.44788,4.854811 -18.91653,10.897872 -4.24585,4.691809 -7.25043,10.466134 -9.39395,18.053656 -1.4167,5.014755 -2.4295,7.728633 -5.82615,15.611692 -0.50722,1.177195 0.38088,1.034121 13.01563,-2.096759 z m 4.19391,-138.684388 c -3.04698,-3.621134 -2.76947,-7.442434 0.9722,-13.386778 1.03477,-1.643934 1.97822,-2.988975 2.09654,-2.988975 0.11833,0 -0.33593,1.601746 -1.00948,3.559427 -1.44553,4.201504 -1.59816,10.497169 -0.31417,12.95857 1.1921,2.285253 0.23164,2.206967 -1.74509,-0.142244 z M 439.74,-50.141376 c 0.38305,-1.834013 0.70258,-5.373583 0.71006,-7.865711 0.018,-5.990575 1.94418,-14.460051 4.41473,-19.411875 l 1.99416,-3.99697 -2.73931,2.648297 c -1.50662,1.45656 -4.72147,4.026533 -7.14411,5.711041 -2.67162,1.857648 -4.30966,3.415367 -4.16301,3.958906 0.13298,0.492884 0.30301,4.152554 0.37785,8.132603 0.13554,7.208754 1.25629,11.95588 2.82266,11.95588 0.37117,0 1.0009,0.715598 1.3994,1.590214 0.9289,2.038704 1.46386,1.413003 2.32757,-2.722385 z"
           id="path5545"
           inkscape:connector-curvature="0"
           sodipodi:nodetypes="ccccccccccsssssssccssssssssssssscsssssssssssssssssssssssssssssscsssssssssssscssssssssccssssssssscsssssss" />
        <path
           style="fill:#b93580"
           d="m 52.814234,-153.78047 0,-233.13966 116.727146,0 116.72714,0 0,116.41252 0,116.41251 116.41418,0 116.41418,0 -0.15897,116.569833 L 518.77892,79.044562 285.79658,79.20187 52.814234,79.359184 Z M 351.08748,54.451871 c 31.26867,-7.74836 62.56819,-18.81612 92.80988,-32.818318 4.84528,-2.243414 12.77391,-5.77396 17.61919,-7.845662 10.1532,-4.341218 23.59713,-11.0638646 23.59713,-11.7997553 0,-1.38445316 -11.6301,-5.0270196 -20.37017,-6.3799722 -3.86648,-0.5985302 -5.4128,-0.6006571 -7.04709,-0.00969 -1.80699,0.6534203 -2.43522,0.582868 -4.5876,-0.5151915 -2.18255,-1.1134574 -10.54854,-4.4493052 -11.15842,-4.4493052 -0.12319,0 -0.0571,0.8344575 0.1469,1.854357 0.25982,1.299107 -0.0388,2.5173042 -0.9975,4.0684223 -1.34741,2.1801547 -7.86325,7.4835691 -11.80109,9.6052344 -1.91986,1.0343913 -2.07292,1.0311003 -3.29042,-0.070716 -1.77861,-1.6096264 -3.81969,-7.3927484 -4.25521,-12.0565421 -0.20127,-2.155318 -0.55736,-4.2284994 -0.79133,-4.6070664 -0.28277,-0.457527 -1.57262,-0.06882 -3.84706,1.159343 -8.10146,4.3746816 -17.85491,6.2358597 -23.0989,4.4077931 -4.05149,-1.4123544 -2.70239,-3.9334908 4.39261,-8.2086811 4.44077,-2.675852 4.51898,-2.7652 2.58507,-2.953027 -1.09684,-0.106533 -2.35109,-0.62365 -2.78722,-1.149161 -1.18248,-1.424808 0.30733,-2.096936 4.67347,-2.108432 4.04415,-0.01064 6.09389,-0.789183 6.09389,-2.314596 0,-0.835483 -0.44483,-0.921628 -2.67435,-0.517922 -3.08355,0.558346 -3.77544,0.59052 -9.17666,0.426718 -2.86639,-0.08693 -3.91278,-0.341699 -3.72701,-0.907433 0.14205,-0.432614 1.01938,-0.876579 1.9496,-0.986586 1.22543,-0.144924 1.92914,-0.769172 2.55463,-2.266174 0.4748,-1.136381 1.74482,-2.693855 2.82225,-3.461058 1.07743,-0.767196 1.95897,-1.800373 1.95897,-2.295938 0,-1.045749 -0.1375,-1.058095 -3.38729,-0.304163 -3.27017,0.758657 -5.27852,-0.09904 -6.37463,-2.722392 -0.76667,-1.834907 -0.76904,-3.238043 -0.0169,-10.024999 0.85558,-7.72044 1.62658,-10.502731 2.9104,-10.502731 1.48128,0 4.23966,1.961438 5.64723,4.015653 0.83203,1.214264 2.16841,2.506481 2.96974,2.871595 2.99621,1.36516 6.97042,0.438214 9.44624,-2.203249 1.42251,-1.517679 2.381,-1.762064 6.13616,-1.56454 1.22171,0.06427 2.33295,-0.3621 3.0719,-1.178636 1.06418,-1.175911 1.07838,-1.400486 0.1756,-2.778295 -2.02877,-3.096302 -11.43012,-6.144875 -19.30005,-6.258418 -3.75935,-0.05424 -5.29295,0.2199 -7.41692,1.325819 -2.48684,1.294859 -2.80967,1.325913 -4.53086,0.435848 -1.27784,-0.660789 -3.70749,-0.958345 -7.82529,-0.958345 -6.68247,0 -7.70948,-0.579647 -5.18102,-2.924169 1.38281,-1.282218 1.64838,-2.065253 1.63117,-4.809694 -0.0113,-1.802972 -0.56838,-4.835543 -1.23797,-6.739045 -2.19306,-6.23445 -1.50036,-9.256198 3.06801,-13.383437 4.14449,-3.744298 9.1018,-3.839322 19.80113,-0.379555 3.16913,1.024776 7.60263,2.032235 9.85222,2.238789 9.30538,0.854399 18.53402,5.894884 21.94171,11.984096 0.52607,0.940015 0.80562,0.933666 3.45593,-0.07849 3.33302,-1.272892 8.80632,-5.952958 10.26832,-8.780153 1.56344,-3.023352 1.8535,-11.950241 0.53561,-16.483631 -3.16348,-10.88198 -12.7383,-18.98254 -27.07183,-22.90352 -2.7657,-0.75656 -7.15477,-2.56115 -9.75349,-4.01019 l -4.72493,-2.63463 -6.6072,0.0426 c -7.29772,0.0471 -14.40814,1.55204 -22.65325,4.79477 -5.05124,1.98661 -9.98058,6.07129 -11.36753,9.41966 -0.40757,0.98396 -0.99336,1.78901 -1.30176,1.78901 -0.30841,0 -1.54105,1.53249 -2.73922,3.40552 -1.54548,2.41598 -3.16846,3.97193 -5.58548,5.35481 -3.86072,2.20889 -6.05376,4.79278 -8.37962,9.873162 -2.13435,4.662032 -1.82337,8.413668 1.07673,12.989888 4.34038,6.848869 4.457,7.225744 3.99856,12.921745 -0.41348,5.137353 -0.38985,5.258347 1.5565,7.968575 1.08699,1.513614 1.97635,3.471862 1.97635,4.351664 0,0.879801 0.70387,2.63685 1.56415,3.904551 1.9393,2.857713 2.83257,5.971351 2.83713,9.889243 0.004,3.391789 1.38236,6.516559 4.54378,10.300538 1.16245,1.391369 2.49162,3.778599 2.95372,5.304956 2.66429,8.800585 3.50526,10.90852 5.67379,14.221658 2.87218,4.3882107 4.67988,6.1364624 10.43316,10.0900454 9.47317,6.5098382 6.34646,10.4637924 -12.54254,15.8609786 -9.96155,2.84633 -13.44788,4.854811 -18.91653,10.897872 -4.24585,4.691809 -7.25043,10.466134 -9.39395,18.053656 -1.4167,5.014755 -2.4295,7.728633 -5.82615,15.611692 -0.50722,1.177195 0.38088,1.034121 13.01563,-2.096759 z m 4.19391,-138.684388 c -3.04698,-3.621134 -2.76947,-7.442434 0.9722,-13.386778 1.03477,-1.643934 1.97822,-2.988975 2.09654,-2.988975 0.11833,0 -0.33593,1.601746 -1.00948,3.559427 -1.44553,4.201504 -1.59816,10.497169 -0.31417,12.95857 1.1921,2.285253 0.23164,2.206967 -1.74509,-0.142244 z M 439.74,-50.141376 c 0.38305,-1.834013 0.70258,-5.373583 0.71006,-7.865711 0.018,-5.990575 1.94418,-14.460051 4.41473,-19.411875 l 1.99416,-3.99697 -2.73931,2.648297 c -1.50662,1.45656 -4.72147,4.026533 -7.14411,5.711041 -2.67162,1.857648 -4.30966,3.415367 -4.16301,3.958906 0.13298,0.492884 0.30301,4.152554 0.37785,8.132603 0.13554,7.208754 1.25629,11.95588 2.82266,11.95588 0.37117,0 1.0009,0.715598 1.3994,1.590214 0.9289,2.038704 1.46386,1.413003 2.32757,-2.722385 z M 337.86758,-175.73814 c 0,-0.13654 1.11583,-3.03899 2.47961,-6.44988 1.36379,-3.41089 3.07109,-8.42197 3.79402,-11.13574 0.72292,-2.71376 1.98502,-6.2575 2.80465,-7.87497 4.44947,-8.78062 12.53334,-16.14949 20.18217,-18.39712 17.08453,-5.02035 20.81273,-6.63379 22.24981,-9.62904 1.26481,-2.63615 0.23202,-4.22605 -5.07047,-7.80564 -2.52682,-1.7058 -5.81438,-4.42605 -7.3057,-6.04502 -2.53027,-2.74685 -7.04199,-10.95019 -7.04199,-12.80398 0,-2.31496 -2.8752,-8.8941 -4.83477,-11.06312 -2.84847,-3.15291 -3.97482,-5.91813 -3.97482,-9.75824 0,-3.64174 -1.31462,-7.69145 -3.54143,-10.90948 -0.88114,-1.27334 -1.48435,-2.83075 -1.34047,-3.46091 0.14387,-0.63015 -0.42083,-2.07727 -1.25489,-3.21582 -2.2721,-3.10155 -2.77236,-5.54585 -1.95514,-9.55289 0.81197,-3.98127 0.46486,-5.05869 -3.84373,-11.93091 -2.10226,-3.3531 -2.5362,-4.59375 -2.5311,-7.23645 0.0111,-5.78671 4.15157,-12.46207 9.77302,-15.75645 2.52598,-1.48034 5.72599,-5.07339 9.49196,-10.65784 3.02508,-4.48581 6.79105,-7.58477 11.30542,-9.30303 10.26884,-3.90854 22.55135,-6.05107 27.86384,-4.86052 1.58544,0.3553 4.87142,1.73433 7.30218,3.06452 2.43076,1.33018 6.66558,3.02686 9.4107,3.77039 15.95604,4.32177 26.6613,15.13321 27.31477,27.58567 0.13229,2.52085 0.0472,6.13061 -0.18906,8.02167 -0.37044,2.96489 -0.85956,3.90877 -3.55225,6.85501 -2.76812,3.02875 -8.4577,6.69712 -10.28238,6.62958 -0.36466,-0.0135 -1.60951,-1.31059 -2.76633,-2.88243 -3.77298,-5.1266 -11.27965,-8.81732 -19.74418,-9.70743 -2.67166,-0.28094 -6.94896,-1.23266 -9.50512,-2.11493 -6.14356,-2.12047 -12.70679,-3.20661 -15.83009,-2.6197 -1.78535,0.33549 -3.35182,1.31717 -5.45014,3.41549 -3.85083,3.85083 -4.4127,6.45946 -2.52508,11.72332 0.79852,2.22677 1.35667,5.28438 1.35659,7.43164 -1.1e-4,3.10196 -0.24036,3.87091 -1.60436,5.13502 -2.22909,2.06584 -1.19111,2.53064 5.6944,2.54991 3.9115,0.0109 6.21484,0.3183 7.44632,0.99364 1.67208,0.91696 1.96571,0.88332 4.71943,-0.54066 2.63389,-1.362 3.49404,-1.48493 8.34903,-1.19322 8.85976,0.53233 18.81377,4.62121 18.81377,7.72826 0,1.45388 -2.03838,2.84164 -4.01862,2.73595 -3.77247,-0.20136 -4.81189,0.0332 -5.89834,1.331 -2.36696,2.82744 -6.56134,3.87628 -9.72924,2.43289 -0.80133,-0.36511 -2.14777,-1.67201 -2.9921,-2.90423 -1.81952,-2.65541 -5.32441,-4.58856 -6.38905,-3.52392 -0.98511,0.9851 -1.68038,5.07711 -2.18341,12.85039 -0.4314,6.66617 -0.42475,6.71127 1.23261,8.36863 1.55469,1.55469 1.91917,1.63774 5.43951,1.23946 4.46369,-0.50501 4.81625,0.13455 1.47784,2.68087 -1.26244,0.9629 -2.66627,2.63851 -3.11965,3.72358 -0.5901,1.41232 -1.36822,2.08163 -2.73872,2.35573 -1.05293,0.21059 -1.91442,0.69966 -1.91442,1.08684 0,0.77869 11.16333,0.498 13.6787,-0.34393 1.04834,-0.3509 1.51666,-0.18866 1.83269,0.63492 0.67513,1.75937 -1.45684,2.81092 -5.72086,2.82169 -2.09692,0.005 -4.20282,0.25681 -4.67978,0.55891 -1.39597,0.88419 -0.18595,1.94848 2.21528,1.94848 1.21974,0 2.12332,0.25441 2.00795,0.56535 -0.11536,0.31093 -2.47508,2.08072 -5.24381,3.93285 -7.33075,4.90388 -7.16085,6.9083 0.66008,7.78757 5.47394,0.61539 13.70474,-1.91953 23.00191,-7.08415 0.20871,-0.11594 0.53767,1.85188 0.73102,4.37294 0.37021,4.82725 2.27292,10.80797 4.19272,13.1788 l 1.14193,1.41023 3.63366,-2.171 c 4.74918,-2.83749 10.80739,-8.62788 11.35039,-10.84863 0.30645,-1.2533 0.10992,-2.10875 -0.68668,-2.98897 -1.60327,-1.7716 -0.55554,-1.55355 6.41277,1.33461 7.60249,3.15101 8.55802,3.3908 10.13934,2.5445 1.35215,-0.72365 9.62239,0.35668 16.82146,2.19737 4.8856,1.24917 11.08651,4.01659 10.63539,4.7465 -0.54666,0.88453 -14.37103,7.66663 -24.17696,11.86098 -4.86972,2.08297 -11.60209,5.08523 -14.96081,6.6717 -29.38722,13.88089 -61.23725,25.27598 -93.19523,33.34274 -12.79713,3.23023 -15.16576,3.72231 -15.16576,3.15065 z M 356.648,-317.22993 c -1.06729,-1.96039 -0.86341,-9.02676 0.35688,-12.36867 1.45202,-3.97656 0.86262,-3.80374 -1.36949,0.40156 -2.7965,5.26861 -2.95613,9.06046 -0.49329,11.71791 1.88874,2.03799 2.53829,2.14548 1.5059,0.2492 z m 81.27142,38.11324 c 0,-0.37424 -0.84626,-1.50782 -1.88058,-2.51905 -2.25768,-2.2073 -3.27925,-6.58667 -3.05542,-13.09826 0.0833,-2.42264 -0.0644,-5.30484 -0.32807,-6.40488 -0.46039,-1.92048 -0.33386,-2.09235 3.17887,-4.31789 2.01209,-1.27479 5.28654,-3.72139 7.27657,-5.43689 1.99002,-1.71551 3.61823,-2.96221 3.61823,-2.77046 0,0.19176 -0.85802,1.9855 -1.90671,3.98611 -2.37634,4.53339 -4.36666,13.93159 -4.37759,20.67074 -0.004,2.8036 -0.33009,6.06001 -0.72341,7.23645 -0.76431,2.28608 -1.80189,3.81439 -1.80189,2.65413 z"
           id="path5547"
           inkscape:connector-curvature="0"
           sodipodi:nodetypes="ccccccccccccccsssssssccssssssssssssscsssssssssssssssssssssssssssssscsssssssssssscssssssssccssssssssscssssssssssssssssssscssscsssssssssssssssssscsssssssssssssssssscsscssssscsssssscsssssssssssscsssscss" />
        <path
           style="fill:#5b9d44"
           d="m 52.814234,-37.263452 0,-116.831648 233.139656,0 233.13966,0 0,116.412519 0,116.412515 -58.41626,0 c -32.12895,0 -137.04179,0.188607 -233.13966,0.419129 L 52.814234,79.568192 Z M 351.08748,54.451871 c 31.26867,-7.74836 62.56819,-18.81612 92.80988,-32.818318 4.84528,-2.243414 12.77391,-5.77396 17.61919,-7.845662 10.1532,-4.341218 23.59713,-11.0638646 23.59713,-11.7997553 0,-1.38445316 -11.6301,-5.0270196 -20.37017,-6.3799722 -3.86648,-0.5985302 -5.4128,-0.6006571 -7.04709,-0.00969 -1.80699,0.6534203 -2.43522,0.582868 -4.5876,-0.5151915 -2.18255,-1.1134574 -10.54854,-4.4493052 -11.15842,-4.4493052 -0.12319,0 -0.0571,0.8344575 0.1469,1.854357 0.25982,1.299107 -0.0388,2.5173042 -0.9975,4.0684223 -1.34741,2.1801547 -7.86325,7.4835691 -11.80109,9.6052344 -1.91986,1.0343913 -2.07292,1.0311003 -3.29042,-0.070716 -1.77861,-1.6096264 -3.81969,-7.3927484 -4.25521,-12.0565421 -0.20127,-2.155318 -0.55736,-4.2284994 -0.79133,-4.6070664 -0.28277,-0.457527 -1.57262,-0.06882 -3.84706,1.159343 -8.10146,4.3746816 -17.85491,6.2358597 -23.0989,4.4077931 -4.05149,-1.4123544 -2.70239,-3.9334908 4.39261,-8.2086811 4.44077,-2.675852 4.51898,-2.7652 2.58507,-2.953027 -1.09684,-0.106533 -2.35109,-0.62365 -2.78722,-1.149161 -1.18248,-1.424808 0.30733,-2.096936 4.67347,-2.108432 4.04415,-0.01064 6.09389,-0.789183 6.09389,-2.314596 0,-0.835483 -0.44483,-0.921628 -2.67435,-0.517922 -3.08355,0.558346 -3.77544,0.59052 -9.17666,0.426718 -2.86639,-0.08693 -3.91278,-0.341699 -3.72701,-0.907433 0.14205,-0.432614 1.01938,-0.876579 1.9496,-0.986586 1.22543,-0.144924 1.92914,-0.769172 2.55463,-2.266174 0.4748,-1.136381 1.74482,-2.693855 2.82225,-3.461058 1.07743,-0.767196 1.95897,-1.800373 1.95897,-2.295938 0,-1.045749 -0.1375,-1.058095 -3.38729,-0.304163 -3.27017,0.758657 -5.27852,-0.09904 -6.37463,-2.722392 -0.76667,-1.834907 -0.76904,-3.238043 -0.0169,-10.024999 0.85558,-7.72044 1.62658,-10.502731 2.9104,-10.502731 1.48128,0 4.23966,1.961438 5.64723,4.015653 0.83203,1.214264 2.16841,2.506481 2.96974,2.871595 2.99621,1.36516 6.97042,0.438214 9.44624,-2.203249 1.42251,-1.517679 2.381,-1.762064 6.13616,-1.56454 1.22171,0.06427 2.33295,-0.3621 3.0719,-1.178636 1.06418,-1.175911 1.07838,-1.400486 0.1756,-2.778295 -2.02877,-3.096302 -11.43012,-6.144875 -19.30005,-6.258418 -3.75935,-0.05424 -5.29295,0.2199 -7.41692,1.325819 -2.48684,1.294859 -2.80967,1.325913 -4.53086,0.435848 -1.27784,-0.660789 -3.70749,-0.958345 -7.82529,-0.958345 -6.68247,0 -7.70948,-0.579647 -5.18102,-2.924169 1.38281,-1.282218 1.64838,-2.065253 1.63117,-4.809694 -0.0113,-1.802972 -0.56838,-4.835543 -1.23797,-6.739045 -2.19306,-6.23445 -1.50036,-9.256198 3.06801,-13.383437 4.14449,-3.744298 9.1018,-3.839322 19.80113,-0.379555 3.16913,1.024776 7.60263,2.032235 9.85222,2.238789 9.30538,0.854399 18.53402,5.894884 21.94171,11.984096 0.52607,0.940015 0.80562,0.933666 3.45593,-0.07849 3.33302,-1.272892 8.80632,-5.952958 10.26832,-8.780153 1.56344,-3.023352 1.8535,-11.950241 0.53561,-16.483631 -3.16348,-10.88198 -12.7383,-18.98254 -27.07183,-22.90352 -2.7657,-0.75656 -7.15477,-2.56115 -9.75349,-4.01019 l -4.72493,-2.63463 -6.6072,0.0426 c -7.29772,0.0471 -14.40814,1.55204 -22.65325,4.79477 -5.05124,1.98661 -9.98058,6.07129 -11.36753,9.41966 -0.40757,0.98396 -0.99336,1.78901 -1.30176,1.78901 -0.30841,0 -1.54105,1.53249 -2.73922,3.40552 -1.54548,2.41598 -3.16846,3.97193 -5.58548,5.35481 -3.86072,2.20889 -6.05376,4.79278 -8.37962,9.873162 -2.13435,4.662032 -1.82337,8.413668 1.07673,12.989888 4.34038,6.848869 4.457,7.225744 3.99856,12.921745 -0.41348,5.137353 -0.38985,5.258347 1.5565,7.968575 1.08699,1.513614 1.97635,3.471862 1.97635,4.351664 0,0.879801 0.70387,2.63685 1.56415,3.904551 1.9393,2.857713 2.83257,5.971351 2.83713,9.889243 0.004,3.391789 1.38236,6.516559 4.54378,10.300538 1.16245,1.391369 2.49162,3.778599 2.95372,5.304956 2.66429,8.800585 3.50526,10.90852 5.67379,14.221658 2.87218,4.3882107 4.67988,6.1364624 10.43316,10.0900454 9.47317,6.5098382 6.34646,10.4637924 -12.54254,15.8609786 -9.96155,2.84633 -13.44788,4.854811 -18.91653,10.897872 -4.24585,4.691809 -7.25043,10.466134 -9.39395,18.053656 -1.4167,5.014755 -2.4295,7.728633 -5.82615,15.611692 -0.50722,1.177195 0.38088,1.034121 13.01563,-2.096759 z m 4.19391,-138.684388 c -3.04698,-3.621134 -2.76947,-7.442434 0.9722,-13.386778 1.03477,-1.643934 1.97822,-2.988975 2.09654,-2.988975 0.11833,0 -0.33593,1.601746 -1.00948,3.559427 -1.44553,4.201504 -1.59816,10.497169 -0.31417,12.95857 1.1921,2.285253 0.23164,2.206967 -1.74509,-0.142244 z M 439.74,-50.141376 c 0.38305,-1.834013 0.70258,-5.373583 0.71006,-7.865711 0.018,-5.990575 1.94418,-14.460051 4.41473,-19.411875 l 1.99416,-3.99697 -2.73931,2.648297 c -1.50662,1.45656 -4.72147,4.026533 -7.14411,5.711041 -2.67162,1.857648 -4.30966,3.415367 -4.16301,3.958906 0.13298,0.492884 0.30301,4.152554 0.37785,8.132603 0.13554,7.208754 1.25629,11.95588 2.82266,11.95588 0.37117,0 1.0009,0.715598 1.3994,1.590214 0.9289,2.038704 1.46386,1.413003 2.32757,-2.722385 z M 105.04404,-175.96181 c 6.3e-4,-0.25957 1.09139,-3.02043 2.42348,-6.13526 1.3321,-3.11482 3.03253,-8.01485 3.77875,-10.88895 2.03541,-7.83951 5.03169,-13.14687 10.52127,-18.63644 5.06107,-5.06107 7.98976,-6.6461 17.14005,-9.27634 9.31839,-2.67856 15.20975,-5.07308 16.79715,-6.82714 1.06523,-1.17706 1.44468,-4.32482 0.67205,-5.57497 -0.24815,-0.40152 -2.48461,-2.10276 -4.96992,-3.78055 -6.01473,-4.06043 -9.55707,-8.03623 -12.13889,-13.62423 -1.17333,-2.53952 -2.13333,-4.92797 -2.13333,-5.30767 0,-2.19856 -2.92908,-8.81991 -4.83477,-10.92929 -2.7805,-3.07767 -3.97482,-5.90895 -3.97482,-9.42272 0,-3.63948 -1.41104,-8.17425 -3.46635,-11.14006 -0.91569,-1.32134 -1.57267,-2.94684 -1.45995,-3.6122 0.11272,-0.66537 -0.55544,-2.31759 -1.48479,-3.6716 -2.26807,-3.30442 -2.69865,-5.43495 -1.76925,-8.75441 0.99047,-3.53763 0.7145,-4.50826 -3.13055,-11.01054 -2.66841,-4.5125 -3.16107,-5.83862 -3.15587,-8.49497 0.0112,-5.74289 4.17097,-12.43164 9.77302,-15.71465 2.52598,-1.48034 5.72599,-5.07339 9.49196,-10.65784 0.73552,-1.09068 2.58347,-3.26527 4.10656,-4.83241 2.46286,-2.5341 3.63769,-3.13651 10.61857,-5.44477 8.95315,-2.96041 13.91867,-3.96986 20.09094,-4.08431 3.95329,-0.0733 4.84781,0.17536 10.51258,2.92234 3.40539,1.65136 8.58798,3.70049 11.51687,4.55363 16.50214,4.80685 26.45221,15.93084 26.45221,29.57306 0,8.69351 -2.9655,13.60798 -10.42825,17.28188 -2.23819,1.10186 -4.15082,1.89097 -4.2503,1.75358 -5.79049,-7.99775 -11.63047,-11.43012 -21.32988,-12.53636 -2.70191,-0.30816 -7.66907,-1.44853 -11.03816,-2.53416 -7.96122,-2.56538 -14.65207,-3.0795 -17.76686,-1.36522 -1.21132,0.66668 -3.12269,2.40873 -4.24749,3.87122 -2.44132,3.17429 -2.64321,6.09277 -0.78657,11.37084 1.79189,5.09399 1.65251,8.87406 -0.41795,11.33466 -2.23258,2.65327 -1.25748,3.26608 4.50812,2.83317 3.28223,-0.24645 5.20664,-0.0471 7.55108,0.78235 3.06695,1.08503 3.20182,1.08115 5.34869,-0.15403 3.32576,-1.91344 11.85604,-1.6683 18.63674,0.53557 5.91658,1.92302 8.4213,3.63528 8.4213,5.75692 0,1.97312 -0.88747,2.43019 -5.00769,2.57911 -2.84935,0.10299 -3.66945,0.40107 -4.72596,1.71771 -2.13486,2.6605 -6.22682,3.65989 -9.28329,2.26726 -0.80133,-0.36511 -2.14777,-1.67201 -2.9921,-2.90423 -0.84433,-1.23222 -2.45375,-2.67844 -3.57648,-3.21384 -3.45013,-1.64525 -4.13707,-0.39538 -4.93784,8.98431 -0.20683,2.42264 -0.52511,5.18252 -0.70728,6.13307 -0.44883,2.34184 0.83954,5.9932 2.41152,6.8345 0.78623,0.42078 2.59719,0.52337 4.66903,0.26452 1.86154,-0.23259 3.38462,-0.17489 3.38462,0.12821 0,0.3031 -0.97213,1.49332 -2.16028,2.64492 -1.18815,1.1516 -2.49006,2.89001 -2.89314,3.86312 -0.49032,1.18374 -1.26916,1.83322 -2.35331,1.96247 -0.89125,0.10625 -1.73667,0.54713 -1.87872,0.97975 -0.19491,0.59355 1.1829,0.77571 5.61478,0.74234 3.23019,-0.0243 6.4394,-0.2683 7.13158,-0.54218 1.57325,-0.62248 2.83165,-0.18521 2.83165,0.98394 0,1.29509 -2.69382,2.1195 -6.92565,2.1195 -3.8492,0 -5.02797,0.68871 -3.771,2.20325 0.48034,0.57877 1.37875,0.76153 2.5712,0.52304 2.93641,-0.58729 2.13696,0.5471 -2.2916,3.25165 -4.99723,3.05184 -7.38205,5.40616 -6.85842,6.77071 0.51975,1.35445 1.6065,1.69324 6.82825,2.12873 3.8094,0.31769 5.21256,0.12286 9.50334,-1.31954 2.76873,-0.93074 6.77775,-2.6165 8.90893,-3.74612 l 3.87488,-2.05387 0.3726,1.86304 c 0.20494,1.02468 0.37261,2.64732 0.37261,3.60587 0,2.79769 2.4337,9.88868 4.03138,11.74609 l 1.46927,1.70813 3.58909,-2.17118 c 4.86026,-2.94016 10.06627,-7.67045 11.04659,-10.03717 0.59996,-1.44843 0.63051,-2.32788 0.11977,-3.44883 l -0.68556,-1.50462 4.11357,1.54834 c 2.26246,0.85159 5.21011,2.10776 6.55034,2.79149 2.59854,1.32568 5.62687,1.62375 6.60854,0.65047 0.67201,-0.66627 12.37481,1.17747 17.76035,2.79809 4.6699,1.40527 8.9516,3.31034 8.9516,3.98287 0,0.73817 -15.61783,8.45268 -26.11416,12.89923 -4.49918,1.90598 -12.71098,5.56932 -18.24844,8.14074 -26.48215,12.29748 -57.56047,23.22634 -88.2569,31.03602 -14.03319,3.57027 -14.6275,3.68938 -14.62511,2.93096 z M 123.823,-317.22993 c -1.08417,-1.99146 -0.8913,-9.0692 0.33705,-12.36867 1.4595,-3.92039 0.81385,-3.90395 -1.43668,0.0366 -3.14001,5.49795 -3.19804,9.20725 -0.19787,12.64671 1.36769,1.56795 2.21106,1.36345 1.2975,-0.31464 z m 81.32272,38.03457 c -0.0283,-0.45213 -0.89647,-1.59396 -1.92942,-2.53742 -2.25203,-2.05691 -3.23212,-6.25677 -3.10741,-13.31585 0.0459,-2.59568 -0.11134,-5.46924 -0.34933,-6.38569 -0.39751,-1.53078 -0.0702,-1.90073 4.02518,-4.55004 2.45183,-1.58608 5.73731,-4.06314 7.30109,-5.50457 l 2.84321,-2.62078 -2.21856,4.67166 c -2.60389,5.48303 -3.90194,11.651 -4.28632,20.36736 -0.16455,3.73117 -0.6743,7.18906 -1.25231,8.49497 -0.53614,1.21132 -0.9979,1.83248 -1.02613,1.38036 z"
           id="path5549"
           inkscape:connector-curvature="0"
           sodipodi:nodetypes="ccccccsscccsssssssccssssssssssssscsssssssssssssssssssssssssssssscsssssssssssscssssssssccssssssssscssssssscsssssssssssssssssssssssssscssssssscsssssssssssssssscssssssssssscssscssscsssssssscssssscscssscsssc" />
        <path
           style="fill:#b63b30"
           d="m 286.26852,-37.682581 0,-116.412519 116.41252,0 116.41251,0 0,116.412519 0,116.412515 -116.41251,0 -116.41252,0 z m 64.81896,92.134452 c 31.26867,-7.74836 62.56819,-18.81612 92.80988,-32.818318 4.84528,-2.243414 12.77391,-5.77396 17.61919,-7.845662 10.1532,-4.341218 23.59713,-11.0638646 23.59713,-11.7997553 0,-1.38445316 -11.6301,-5.0270196 -20.37017,-6.3799722 -3.86648,-0.5985302 -5.4128,-0.6006571 -7.04709,-0.00969 -1.80699,0.6534203 -2.43522,0.582868 -4.5876,-0.5151915 -2.18255,-1.1134574 -10.54854,-4.4493052 -11.15842,-4.4493052 -0.12319,0 -0.0571,0.8344575 0.1469,1.854357 0.25982,1.299107 -0.0388,2.5173042 -0.9975,4.0684223 -1.34741,2.1801547 -7.86325,7.4835691 -11.80109,9.6052344 -1.91986,1.0343913 -2.07292,1.0311003 -3.29042,-0.070716 -1.77861,-1.6096264 -3.81969,-7.3927484 -4.25521,-12.0565421 -0.20127,-2.155318 -0.55736,-4.2284994 -0.79133,-4.6070664 -0.28277,-0.457527 -1.57262,-0.06882 -3.84706,1.159343 -8.10146,4.3746816 -17.85491,6.2358597 -23.0989,4.4077931 -4.05149,-1.4123544 -2.70239,-3.9334908 4.39261,-8.2086811 4.44077,-2.675852 4.51898,-2.7652 2.58507,-2.953027 -1.09684,-0.106533 -2.35109,-0.62365 -2.78722,-1.149161 -1.18248,-1.424808 0.30733,-2.096936 4.67347,-2.108432 4.04415,-0.01064 6.09389,-0.789183 6.09389,-2.314596 0,-0.835483 -0.44483,-0.921628 -2.67435,-0.517922 -3.08355,0.558346 -3.77544,0.59052 -9.17666,0.426718 -2.86639,-0.08693 -3.91278,-0.341699 -3.72701,-0.907433 0.14205,-0.432614 1.01938,-0.876579 1.9496,-0.986586 1.22543,-0.144924 1.92914,-0.769172 2.55463,-2.266174 0.4748,-1.136381 1.74482,-2.693855 2.82225,-3.461058 1.07743,-0.767196 1.95897,-1.800373 1.95897,-2.295938 0,-1.045749 -0.1375,-1.058095 -3.38729,-0.304163 -3.27017,0.758657 -5.27852,-0.09904 -6.37463,-2.722392 -0.76667,-1.834907 -0.76904,-3.238043 -0.0169,-10.024999 0.85558,-7.72044 1.62658,-10.502731 2.9104,-10.502731 1.48128,0 4.23966,1.961438 5.64723,4.015653 0.83203,1.214264 2.16841,2.506481 2.96974,2.871595 2.99621,1.36516 6.97042,0.438214 9.44624,-2.203249 1.42251,-1.517679 2.381,-1.762064 6.13616,-1.56454 1.22171,0.06427 2.33295,-0.3621 3.0719,-1.178636 1.06418,-1.175911 1.07838,-1.400486 0.1756,-2.778295 -2.02877,-3.096302 -11.43012,-6.144875 -19.30005,-6.258418 -3.75935,-0.05424 -5.29295,0.2199 -7.41692,1.325819 -2.48684,1.294859 -2.80967,1.325913 -4.53086,0.435848 -1.27784,-0.660789 -3.70749,-0.958345 -7.82529,-0.958345 -6.68247,0 -7.70948,-0.579647 -5.18102,-2.924169 1.38281,-1.282218 1.64838,-2.065253 1.63117,-4.809694 -0.0113,-1.802972 -0.56838,-4.835543 -1.23797,-6.739045 -2.19306,-6.23445 -1.50036,-9.256198 3.06801,-13.383437 4.14449,-3.744298 9.1018,-3.839322 19.80113,-0.379555 3.16913,1.024776 7.60263,2.032235 9.85222,2.238789 9.30538,0.854399 18.53402,5.894884 21.94171,11.984096 0.52607,0.940015 0.80562,0.933666 3.45593,-0.07849 3.33302,-1.272892 8.80632,-5.952958 10.26832,-8.780153 1.56344,-3.023352 1.8535,-11.950241 0.53561,-16.483631 -3.16348,-10.88198 -12.7383,-18.98254 -27.07183,-22.90352 -2.7657,-0.75656 -7.15477,-2.56115 -9.75349,-4.01019 l -4.72493,-2.63463 -6.6072,0.0426 c -7.29772,0.0471 -14.40814,1.55204 -22.65325,4.79477 -5.05124,1.98661 -9.98058,6.07129 -11.36753,9.41966 -0.40757,0.98396 -0.99336,1.78901 -1.30176,1.78901 -0.30841,0 -1.54105,1.53249 -2.73922,3.40552 -1.54548,2.41598 -3.16846,3.97193 -5.58548,5.35481 -3.86072,2.20889 -6.05376,4.79278 -8.37962,9.873162 -2.13435,4.662032 -1.82337,8.413668 1.07673,12.989888 4.34038,6.848869 4.457,7.225744 3.99856,12.921745 -0.41348,5.137353 -0.38985,5.258347 1.5565,7.968575 1.08699,1.513614 1.97635,3.471862 1.97635,4.351664 0,0.879801 0.70387,2.63685 1.56415,3.904551 1.9393,2.857713 2.83257,5.971351 2.83713,9.889243 0.004,3.391789 1.38236,6.516559 4.54378,10.300538 1.16245,1.391369 2.49162,3.778599 2.95372,5.304956 2.66429,8.800585 3.50526,10.90852 5.67379,14.221658 2.87218,4.3882107 4.67988,6.1364624 10.43316,10.0900454 9.47317,6.5098382 6.34646,10.4637924 -12.54254,15.8609786 -9.96155,2.84633 -13.44788,4.854811 -18.91653,10.897872 -4.24585,4.691809 -7.25043,10.466134 -9.39395,18.053656 -1.4167,5.014755 -2.4295,7.728633 -5.82615,15.611692 -0.50722,1.177195 0.38088,1.034121 13.01563,-2.096759 z m 4.19391,-138.684388 c -3.04698,-3.621134 -2.76947,-7.442434 0.9722,-13.386778 1.03477,-1.643934 1.97822,-2.988975 2.09654,-2.988975 0.11833,0 -0.33593,1.601746 -1.00948,3.559427 -1.44553,4.201504 -1.59816,10.497169 -0.31417,12.95857 1.1921,2.285253 0.23164,2.206967 -1.74509,-0.142244 z M 439.74,-50.141376 c 0.38305,-1.834013 0.70258,-5.373583 0.71006,-7.865711 0.018,-5.990575 1.94418,-14.460051 4.41473,-19.411875 l 1.99416,-3.99697 -2.73931,2.648297 c -1.50662,1.45656 -4.72147,4.026533 -7.14411,5.711041 -2.67162,1.857648 -4.30966,3.415367 -4.16301,3.958906 0.13298,0.492884 0.30301,4.152554 0.37785,8.132603 0.13554,7.208754 1.25629,11.95588 2.82266,11.95588 0.37117,0 1.0009,0.715598 1.3994,1.590214 0.9289,2.038704 1.46386,1.413003 2.32757,-2.722385 z"
           id="path5551"
           inkscape:connector-curvature="0"
           sodipodi:nodetypes="ccccccccccsssssssccssssssssssssscsssssssssssssssssssssssssssssscsssssssssssscssssssssccssssssssscsssssss" />
        <path
           style="fill:#372142"
           d="m 340.46798,-181.51477 c 1.3854,-3.31567 3.09671,-8.34265 3.8029,-11.17108 1.64261,-6.57894 4.76649,-12.55444 9.02107,-17.2559 5.25305,-5.8048 8.96315,-8.01264 17.61162,-10.48046 10.93373,-3.11992 14.8404,-4.71904 17.14725,-7.01894 3.62547,-3.61454 2.87423,-5.56398 -3.85447,-10.00214 -2.81184,-1.85466 -5.72963,-4.03558 -6.48395,-4.84651 -2.42408,-2.60594 -5.77778,-8.74995 -7.11611,-13.03679 -0.71584,-2.29297 -1.60139,-5.10697 -1.96788,-6.25334 -0.36648,-1.14637 -2.01342,-3.86406 -3.65986,-6.0393 -2.76291,-3.65032 -4.26271,-7.3238 -3.49639,-8.56373 0.65125,-1.05375 -1.11793,-7.33245 -2.88966,-10.2552 -1.01046,-1.66693 -1.83721,-3.82679 -1.83721,-4.79969 0,-0.9729 -0.44342,-2.13692 -0.98538,-2.5867 -2.54386,-2.11122 -3.4162,-6.28596 -2.19978,-10.52738 0.71275,-2.48523 -0.0346,-5.00237 -2.60972,-8.79006 -5.36925,-7.89742 -5.4839,-11.87109 -0.56222,-19.48589 1.84061,-2.84778 3.33495,-4.29039 6.05823,-5.84848 2.55158,-1.45988 4.17293,-2.96589 5.51187,-5.1198 1.04332,-1.67834 2.13202,-3.05153 2.41935,-3.05153 0.28732,0 1.07113,-1.06187 1.74178,-2.35971 2.36727,-4.5811 6.2058,-7.5426 12.85794,-9.92017 9.13247,-3.26407 14.42914,-4.34047 21.50128,-4.36955 6.23629,-0.0257 6.33482,-0.003 11.0175,2.60875 2.59872,1.44904 6.98779,3.25363 9.75349,4.01019 16.4033,4.48717 26.83189,14.88416 27.80253,27.71828 0.67381,8.90936 -1.56619,14.05998 -7.87544,18.10861 -3.13047,2.00882 -7.03284,3.20194 -7.03284,2.15024 0,-0.32743 -1.29005,-1.9417 -2.86676,-3.58725 -3.97691,-4.15054 -10.69512,-7.26872 -17.23775,-8.0007 -2.75133,-0.30782 -7.2112,-1.24733 -9.91083,-2.08781 -8.0017,-2.49118 -10.1301,-2.94118 -13.99851,-2.95969 -4.27981,-0.0204 -6.60832,1.00719 -9.34524,4.12437 -3.00913,3.42721 -3.4855,6.07295 -1.92348,10.68305 0.71544,2.11156 1.44589,5.4056 1.62321,7.32009 0.28799,3.1092 0.14162,3.69573 -1.37077,5.49311 -0.93125,1.10673 -1.51459,2.30119 -1.29632,2.65437 0.22217,0.35949 2.88226,0.64214 6.04325,0.64214 3.56346,0 6.46923,0.34381 7.87696,0.93199 2.0728,0.86607 2.41629,0.83547 4.85653,-0.43266 2.01047,-1.04481 3.65836,-1.35124 7.03075,-1.30742 8.0919,0.10516 18.00041,3.28948 19.3324,6.2129 1.16268,2.55179 0.26405,3.40478 -3.58696,3.40478 -3.01308,0 -3.7538,0.25556 -5.45615,1.88242 -2.2352,2.13607 -5.66876,3.30031 -8.04855,2.72908 -0.88631,-0.21275 -3.03816,-1.9037 -4.78188,-3.75766 -3.25778,-3.46377 -5.14538,-4.1593 -6.58388,-2.42601 -0.43129,0.51967 -1.20664,4.66684 -1.723,9.21595 -0.85437,7.52686 -0.84766,8.4623 0.0745,10.39606 1.27739,2.6787 3.19243,3.43995 6.68159,2.65598 1.4767,-0.33179 2.84151,-0.44665 3.03291,-0.25524 0.19141,0.1914 -0.7268,1.44871 -2.04046,2.79402 -1.31366,1.3453 -2.71109,3.07812 -3.10539,3.8507 -0.39431,0.77258 -0.85852,1.31782 -1.03156,1.21164 -0.49516,-0.30381 -3.14629,1.26222 -3.14629,1.85852 0,0.84699 8.81277,1.19777 12.1106,0.48205 3.22349,-0.69959 3.85352,-0.51326 3.28388,0.9712 -0.27123,0.70682 -1.67208,1.03082 -5.38662,1.24585 -2.76103,0.15984 -5.2995,0.57006 -5.64105,0.91161 -0.82546,0.82545 1.11216,2.54789 3.18428,2.83067 1.41323,0.19287 1.22133,0.42921 -1.88777,2.32502 -4.05608,2.47323 -7.55109,5.64597 -7.55109,6.85481 0,1.39572 4.07697,2.67611 8.52112,2.67611 4.57266,0 11.00884,-1.86918 17.20333,-4.99615 l 3.64592,-1.84046 0.78523,5.14876 c 0.86505,5.67221 2.6455,10.43434 4.54329,12.15181 1.16986,1.05872 1.33327,1.06023 3.24541,0.03 3.9329,-2.11901 10.45293,-7.42387 11.79668,-9.5981 0.88191,-1.42697 1.26697,-2.86771 1.08954,-4.07662 -0.32633,-2.22344 -0.43599,-2.24243 8.08413,1.3996 5.05822,2.16221 5.94074,2.36433 7.40669,1.6964 1.3016,-0.59305 2.77273,-0.5886 6.75115,0.0204 9.77394,1.49621 21.14467,5.10694 20.31419,6.45067 -0.54809,0.88684 -14.25282,7.6152 -23.95369,11.76012 -4.79034,2.04678 -12.8156,5.62894 -17.83393,7.96035 -32.72158,15.20181 -63.85423,25.78788 -103.62932,35.23721 -1.30458,0.30993 -1.24594,0.0176 1.14383,-5.7018 z m 16.55983,-135.85226 c -1.54796,-3.70478 -1.08209,-9.0351 1.32168,-15.12238 0.47693,-1.20777 0.44655,-1.21437 -0.75359,-0.16354 -2.28928,2.00444 -4.30551,6.84665 -4.30862,10.34765 -0.003,2.75399 0.28506,3.56284 1.84528,5.19136 2.41559,2.52134 3.02072,2.44053 1.89525,-0.25309 z m 79.04949,35.39207 -2.15675,-2.46196 -0.39714,-8.29482 c -0.21842,-4.56216 -0.52213,-8.69809 -0.6749,-9.19098 -0.17398,-0.56128 1.36821,-2.04104 4.12702,-3.95999 2.42264,-1.6851 5.46667,-4.10017 6.76452,-5.3668 1.29784,-1.26664 2.35971,-2.1124 2.35971,-1.87947 0,0.23294 -0.82717,2.06019 -1.83815,4.06057 -2.2861,4.52336 -3.63728,10.98185 -4.37825,20.92754 -0.31485,4.22614 -0.81475,7.89628 -1.11088,8.15588 -0.29614,0.2596 -1.50897,-0.63589 -2.69518,-1.98997 z"
           id="path5553"
           inkscape:connector-curvature="0"
           sodipodi:nodetypes="csssssssssssssssssssssscssssssscsssssssssssssssssscsscsssssssssscssssssssssssccssscssscscssssscs" />
        <path
           style="fill:#343887"
           d="m 105.24412,56.234002 c 0.1916,-0.60566 1.34047,-3.508107 2.55305,-6.449883 1.21258,-2.941776 2.79715,-7.572741 3.52126,-10.29103 2.02091,-7.586427 5.05362,-12.894995 10.44911,-18.290476 4.95918,-4.959192 7.8024,-6.50566 16.43074,-8.936964 8.48545,-2.3910373 16.30672,-5.6268019 17.69761,-7.3217429 0.45508,-0.5545641 0.85355,-1.9273948 0.88549,-3.0507441 0.0641,-2.25336879 -0.0184,-2.33592729 -7.65816,-7.6714275 -6.21952,-4.3435965 -9.40918,-9.0839765 -12.27983,-18.2499085 -1.48421,-4.739053 -2.78385,-7.600913 -4.28732,-9.440897 -3.19949,-3.915608 -4.23101,-6.310591 -4.23101,-9.823581 0,-3.702408 -1.38069,-8.123554 -3.5701,-11.431985 -0.85856,-1.297383 -1.47263,-2.880688 -1.36458,-3.518465 0.10805,-0.637777 -0.57568,-2.171899 -1.51939,-3.409162 -2.20204,-2.887037 -2.71189,-5.546044 -1.73346,-9.040634 0.96232,-3.437058 0.41253,-5.271775 -3.27631,-10.93364 -2.14981,-3.299646 -2.67365,-4.702241 -2.89401,-7.748819 -0.47019,-6.50023 3.70261,-13.077383 11.07487,-17.456173 1.39256,-0.82712 2.80481,-2.10136 3.13835,-2.83166 0.33354,-0.7303 1.5644,-2.52134 2.73524,-3.98009 1.17085,-1.45875 3.26147,-4.10836 4.64584,-5.88805 2.81262,-3.61578 5.13035,-4.98581 12.848,-7.59456 6.90933,-2.33553 14.18188,-3.6867 19.84318,-3.6867 4.18703,0 5.04789,0.24728 10.78517,3.098 3.42921,1.70391 8.07552,3.56826 10.32511,4.143 12.96097,3.31136 23.06636,12.07151 26.14612,22.66552 1.30529,4.490027 1.00706,13.432383 -0.54827,16.440067 -1.46385,2.830769 -6.93685,7.507853 -10.27914,8.784287 l -2.89438,1.105372 -1.30329,-1.846655 c -4.09593,-5.803541 -12.21492,-10.212971 -19.82736,-10.768246 -2.24338,-0.163644 -7.07904,-1.238176 -10.74589,-2.38786 -7.47219,-2.342779 -12.78077,-3.19429 -15.79158,-2.533004 -2.31578,0.508629 -6.56736,4.105738 -7.90104,6.684784 -1.21534,2.350199 -1.10704,5.202759 0.35536,9.360076 0.66959,1.903502 1.22668,4.961055 1.23797,6.794558 0.0174,2.831128 -0.23662,3.571983 -1.68551,4.914767 -2.35014,2.178034 -1.26309,2.694119 5.44515,2.585157 3.94714,-0.06412 5.90613,0.191407 7.33622,0.956917 1.85289,0.991816 2.08406,0.978608 4.59231,-0.262381 3.74326,-1.852016 7.29948,-2.079663 13.35672,-0.855028 6.94721,1.40457 11.78265,3.402562 13.34703,5.514945 1.23317,1.665171 1.2366,1.752216 0.11735,2.98897 -0.87536,0.967256 -1.93886,1.273855 -4.41868,1.273855 -2.51972,0 -3.53939,0.302245 -4.4631,1.322937 -1.81255,2.002837 -4.31767,3.081861 -7.15502,3.081861 -2.2983,0 -2.92594,-0.381191 -6.21656,-3.775541 -5.80589,-5.988902 -6.6378,-5.360274 -7.87783,5.95287 -1.31844,12.028371 -0.34392,14.08499 6.28184,13.257158 4.02462,-0.502845 4.53242,0.470162 1.43899,2.757234 -1.07009,0.791152 -2.33234,2.364024 -2.805,3.495264 -0.62499,1.4958 -1.38155,2.161233 -2.77381,2.439685 -1.05293,0.210587 -1.91442,0.714326 -1.91442,1.119423 0,0.541375 2.08415,0.64653 7.86571,0.396841 6.37662,-0.275388 7.86571,-0.177784 7.86571,0.515569 0,1.364348 -2.16446,2.158055 -5.8851,2.158055 -3.9678,0 -5.44152,0.426051 -5.44152,1.573142 0,1.083549 1.28447,1.513948 3.34348,1.120348 2.94672,-0.563305 1.84375,0.856318 -3.02109,3.888442 -7.06006,4.4003365 -8.06641,6.6244259 -3.56338,7.8751745 5.62241,1.5616645 13.17328,0.109497 21.67281,-4.1680777 2.35045,-1.1829148 4.54498,-1.9829958 4.87674,-1.7779588 0.33176,0.205043 0.6032,1.7420912 0.6032,3.4156626 0,3.9136378 2.14399,10.8519118 4.03138,13.0461241 l 1.46927,1.7081303 3.63351,-2.1711815 c 4.69777,-2.8071274 10.00407,-7.6275494 10.974,-9.9691399 0.59164,-1.4283439 0.59455,-2.1555445 0.013,-3.2421704 -0.71096,-1.3284367 -0.65677,-1.3780473 1.04851,-0.9600823 0.98901,0.2424086 4.12525,1.4349258 6.96943,2.6500459 4.56668,1.9510234 5.56528,2.1600626 8.54205,1.7881403 6.4456,-0.8053229 26.87378,4.27628476 26.87378,6.6849793 0,0.682322 -12.1945,6.8200555 -22.33861,11.2434726 -4.1531,1.810989 -12.22332,5.426579 -17.93382,8.034654 -32.99833,15.070821 -61.11057,25.037846 -93.54534,33.165957 -12.90487,3.233946 -13.72689,3.343481 -13.22676,1.762473 z m 18.36977,-141.308647 c -0.52368,-1.253341 -0.95215,-3.077903 -0.95215,-4.054579 0,-1.62734 1.17618,-6.846528 2.23236,-9.905899 0.23896,-0.692183 -0.32225,-0.189444 -1.24713,1.117201 -3.82716,5.406902 -4.23485,10.067531 -1.19652,13.678389 2.01997,2.40059 2.40109,2.12702 1.16344,-0.835112 z m 79.48735,36.318628 c -2.51009,-2.975372 -2.75481,-4.201749 -3.22922,-16.183013 l -0.21965,-5.547088 4.29512,-2.778496 c 2.36232,-1.528176 5.60796,-3.987387 7.21255,-5.464907 l 2.91741,-2.686411 -2.05097,4.066396 c -2.45201,4.861525 -4.3954,13.698506 -4.40679,20.038659 -0.008,4.321447 -0.96167,10.019487 -1.82428,10.897237 -0.21252,0.216244 -1.42489,-0.837824 -2.69417,-2.342377 z m 331.72373,-148.128543 0,-38.38467 25.48491,0 25.4849,0 0,38.38467 0,38.38467 -25.4849,0 -25.48491,0 z m 27.37922,18.47852 c 0.76932,0.29521 0.84115,0.1367 0.35209,-0.77709 -0.42316,-0.79071 -0.37874,-1.39579 0.14276,-1.94434 0.60349,-0.63478 0.46983,-0.70958 -0.65871,-0.36862 -0.85114,0.25715 -1.41583,0.15987 -1.41583,-0.2439 0,-0.36942 -0.28316,-0.67166 -0.62925,-0.67166 -0.34609,0 -0.62926,0.42474 -0.62926,0.94388 0,0.51914 -0.25652,0.94389 -0.57005,0.94389 -0.31353,0 -0.24605,0.68657 0.14997,1.52572 0.52933,1.12165 0.92817,1.35298 1.50593,0.87349 0.43224,-0.35874 1.2208,-0.48535 1.75235,-0.28137 z m -8.89677,-2.37801 c 0.41913,0.15986 0.73618,-0.48189 0.77408,-1.56683 0.0476,-1.36332 -0.17176,-1.74703 -0.85007,-1.48674 -0.50285,0.19296 -1.16453,-0.0444 -1.47039,-0.52742 -0.47297,-0.74696 -0.55756,-0.74752 -0.56576,-0.004 -0.005,0.48098 -0.50517,1.25068 -1.11083,1.71044 -1.04876,0.79612 -1.04876,0.83689 0,0.85595 0.60907,0.0111 1.1012,0.49807 1.1012,1.08974 0,0.79063 0.18419,0.88555 0.70594,0.3638 0.38826,-0.38826 1.02539,-0.58409 1.41583,-0.43519 z m 16.12668,0.21776 c 0,-0.40377 0.56469,-0.50105 1.41583,-0.2439 1.10967,0.33526 1.25637,0.25981 0.67842,-0.3489 -0.40556,-0.42717 -0.61783,-1.09612 -0.47169,-1.48656 0.14614,-0.39043 -0.38917,-1.01212 -1.18958,-1.38152 -1.2482,-0.57606 -1.5532,-0.46413 -2.14344,0.78657 -0.37849,0.80201 -0.43164,1.4582 -0.1181,1.4582 0.31352,0 0.57005,0.42475 0.57005,0.94389 0,0.51913 0.28316,0.94388 0.62925,0.94388 0.34609,0 0.62926,-0.30224 0.62926,-0.67166 z m -23.61412,-6.22268 c 0.20456,-0.33098 0.85839,-0.43089 1.45297,-0.22202 0.87196,0.30632 0.93181,0.21871 0.30944,-0.45299 -0.56495,-0.60973 -0.58644,-1.05583 -0.0803,-1.66575 0.53285,-0.64204 0.41401,-0.83301 -0.51838,-0.83301 -0.66534,0 -1.59105,-0.35395 -2.05713,-0.78657 -0.6814,-0.63247 -0.75535,-0.62427 -0.37747,0.0419 0.28035,0.4942 0.0281,1.15153 -0.62522,1.62926 -1.02669,0.75073 -1.02813,0.82654 -0.0232,1.2122 0.58963,0.22626 0.89581,0.69655 0.68041,1.04509 -0.21541,0.34853 -0.10849,0.6337 0.23761,0.6337 0.34609,0 0.79661,-0.27081 1.00117,-0.60178 z m 29.90669,-0.0699 c 0,-0.40377 0.56469,-0.50105 1.41583,-0.2439 1.12853,0.34096 1.26219,0.26616 0.6587,-0.36862 -0.52149,-0.54855 -0.56592,-1.15363 -0.14275,-1.94434 0.48905,-0.91379 0.41723,-1.0723 -0.3521,-0.77709 -0.53155,0.20398 -1.32011,0.0774 -1.75235,-0.28137 -0.57776,-0.47949 -0.97659,-0.24816 -1.50593,0.87349 -0.39601,0.83915 -0.4635,1.52572 -0.14997,1.52572 0.31353,0 0.57005,0.42475 0.57005,0.94389 0,0.51914 0.28317,0.94388 0.62926,0.94388 0.34609,0 0.62926,-0.30224 0.62926,-0.67166 z m -31.56772,-8.76719 c 0.7004,0 1.04876,-0.52484 1.04876,-1.58009 0,-0.98735 -0.28883,-1.46927 -0.76993,-1.28466 -0.42346,0.1625 -1.05197,-0.18833 -1.39669,-0.77961 -0.54996,-0.94334 -0.62911,-0.90158 -0.6459,0.34076 -0.0123,0.9141 -0.40937,1.42261 -1.12033,1.43497 -1.04877,0.0182 -1.04877,0.0496 0,0.66052 0.60566,0.35276 1.12355,1.12286 1.15088,1.71132 0.0304,0.6556 0.17258,0.76533 0.36706,0.28336 0.17456,-0.43261 0.78933,-0.78657 1.36615,-0.78657 z m 35.7513,-1.71413 c 0.0613,-0.99708 -0.18217,-1.412 -0.7099,-1.2095 -0.44181,0.16954 -1.12097,-0.009 -1.50923,-0.39767 -0.52175,-0.52175 -0.70594,-0.42683 -0.70594,0.36379 0,0.59201 -0.49178,1.07829 -1.1012,1.08888 -1.04876,0.0182 -1.04876,0.0496 0,0.66052 0.60566,0.35276 1.1012,1.02543 1.1012,1.49481 0,1.59299 2.82272,-0.33783 2.92507,-2.00083 z m -34.09027,-6.43873 c 0.20456,-0.33097 0.71681,-0.46942 1.13834,-0.30767 0.49198,0.18879 0.76642,-0.34852 0.76642,-1.50057 0,-1.39942 -0.24253,-1.73126 -1.1012,-1.50671 -0.60566,0.15839 -1.1012,-0.0282 -1.1012,-0.41468 0,-0.38646 -0.29988,-0.70264 -0.6664,-0.70264 -0.36651,0 -0.47974,0.302 -0.25161,0.67112 0.22813,0.36912 -0.078,1.03149 -0.6804,1.47194 -1.02669,0.75073 -1.02813,0.82655 -0.0232,1.2122 0.58963,0.22626 0.89581,0.69655 0.68041,1.04509 -0.21541,0.34853 -0.10849,0.6337 0.23761,0.6337 0.34609,0 0.79661,-0.2708 1.00117,-0.60178 z m 29.90669,-0.0699 c 0,-0.40378 0.56469,-0.50105 1.41583,-0.2439 1.12853,0.34095 1.26219,0.26615 0.6587,-0.36863 -0.52149,-0.54855 -0.56592,-1.15363 -0.14275,-1.94433 0.48905,-0.9138 0.41723,-1.07231 -0.3521,-0.77709 -0.53155,0.20397 -1.32011,0.0774 -1.75235,-0.28137 -0.57776,-0.4795 -0.97659,-0.24816 -1.50593,0.87349 -0.39601,0.83914 -0.4635,1.52572 -0.14997,1.52572 0.31353,0 0.57005,0.42475 0.57005,0.94388 0,0.51914 0.28317,0.94389 0.62926,0.94389 0.34609,0 0.62926,-0.30224 0.62926,-0.67166 z m -22.41925,-6.51033 c 0.41913,0.15985 0.73618,-0.48189 0.77408,-1.56683 0.0476,-1.36332 -0.17176,-1.74703 -0.85007,-1.48674 -0.50285,0.19296 -1.16453,-0.0444 -1.47039,-0.52743 -0.45304,-0.71547 -0.5579,-0.68662 -0.56576,0.15561 -0.005,0.56864 -0.4408,1.19934 -0.96779,1.40156 -0.83272,0.31954 -0.81213,0.52195 0.15732,1.54608 0.6135,0.64811 1.36235,0.95983 1.66409,0.6927 0.30174,-0.26714 0.86808,-0.36386 1.25852,-0.21495 z m 16.12668,0.21776 c 0,-0.40948 0.55073,-0.49686 1.41089,-0.22386 1.23969,0.39346 1.30947,0.3256 0.57509,-0.55929 -0.4597,-0.5539 -0.69402,-1.23651 -0.52072,-1.5169 0.17329,-0.28041 -0.31551,-0.80742 -1.08624,-1.17115 -1.18931,-0.56126 -1.50543,-0.44069 -2.08948,0.79689 -0.37849,0.80201 -0.43164,1.4582 -0.1181,1.4582 0.31352,0 0.57005,0.42475 0.57005,0.94389 0,0.51913 0.28316,0.94388 0.62925,0.94388 0.34609,0 0.62926,-0.30224 0.62926,-0.67166 z m -7.29938,-2.47462 c 0.9647,0 1.08572,-0.1728 0.51838,-0.74014 -0.54049,-0.54048 -0.55365,-0.96484 -0.0488,-1.57314 0.53285,-0.64204 0.41401,-0.83301 -0.51838,-0.83301 -0.66534,0 -1.54951,-0.3398 -1.96482,-0.75511 -0.5873,-0.5873 -0.75511,-0.44747 -0.75511,0.62926 0,0.7614 -0.35396,1.40672 -0.78657,1.43405 -0.62926,0.0398 -0.62926,0.11315 0,0.36706 0.43261,0.17456 0.78657,0.91676 0.78657,1.64931 0,1.03595 0.16781,1.16413 0.75511,0.57683 0.41531,-0.41531 1.32144,-0.75511 2.01362,-0.75511 z m -224.26714,36.87788 c 0,-0.13654 1.11583,-3.03899 2.47961,-6.44988 1.36379,-3.41089 3.07109,-8.42197 3.79402,-11.13574 0.72292,-2.71376 1.98502,-6.2575 2.80465,-7.87497 4.44947,-8.78062 12.53334,-16.14949 20.18217,-18.39712 17.08453,-5.02035 20.81273,-6.63379 22.24981,-9.62904 1.26481,-2.63615 0.23202,-4.22605 -5.07047,-7.80564 -2.52682,-1.7058 -5.81438,-4.42605 -7.3057,-6.04502 -2.53027,-2.74685 -7.04199,-10.95019 -7.04199,-12.80398 0,-2.31496 -2.8752,-8.8941 -4.83477,-11.06312 -2.84847,-3.15291 -3.97482,-5.91813 -3.97482,-9.75824 0,-3.64174 -1.31462,-7.69145 -3.54143,-10.90948 -0.88114,-1.27334 -1.48435,-2.83075 -1.34047,-3.46091 0.14387,-0.63015 -0.42083,-2.07727 -1.25489,-3.21582 -2.2721,-3.10155 -2.77236,-5.54585 -1.95514,-9.55289 0.81197,-3.98127 0.46486,-5.05869 -3.84373,-11.93091 -2.10226,-3.3531 -2.5362,-4.59375 -2.5311,-7.23645 0.0111,-5.78671 4.15157,-12.46207 9.77302,-15.75645 2.52598,-1.48034 5.72599,-5.07339 9.49196,-10.65784 3.02508,-4.48581 6.79105,-7.58477 11.30542,-9.30303 10.26884,-3.90854 22.55135,-6.05107 27.86384,-4.86052 1.58544,0.3553 4.87142,1.73433 7.30218,3.06452 2.43076,1.33018 6.66558,3.02686 9.4107,3.77039 15.95604,4.32177 26.6613,15.13321 27.31477,27.58567 0.13229,2.52085 0.0472,6.13061 -0.18906,8.02167 -0.37044,2.96489 -0.85956,3.90877 -3.55225,6.85501 -2.76812,3.02875 -8.4577,6.69712 -10.28238,6.62958 -0.36466,-0.0135 -1.60951,-1.31059 -2.76633,-2.88243 -3.77298,-5.1266 -11.27965,-8.81732 -19.74418,-9.70743 -2.67166,-0.28094 -6.94896,-1.23266 -9.50512,-2.11493 -6.14356,-2.12047 -12.70679,-3.20661 -15.83009,-2.6197 -1.78535,0.33549 -3.35182,1.31717 -5.45014,3.41549 -3.85083,3.85083 -4.4127,6.45946 -2.52508,11.72332 0.79852,2.22677 1.35667,5.28438 1.35659,7.43164 -1.1e-4,3.10196 -0.24036,3.87091 -1.60436,5.13502 -2.22909,2.06584 -1.19111,2.53064 5.6944,2.54991 3.9115,0.0109 6.21484,0.3183 7.44632,0.99364 1.67208,0.91696 1.96571,0.88332 4.71943,-0.54066 2.63389,-1.362 3.49404,-1.48493 8.34903,-1.19322 8.85976,0.53233 18.81377,4.62121 18.81377,7.72826 0,1.45388 -2.03838,2.84164 -4.01862,2.73595 -3.77247,-0.20136 -4.81189,0.0332 -5.89834,1.331 -2.36696,2.82744 -6.56134,3.87628 -9.72924,2.43289 -0.80133,-0.36511 -2.14777,-1.67201 -2.9921,-2.90423 -1.81952,-2.65541 -5.32441,-4.58856 -6.38905,-3.52392 -0.98511,0.9851 -1.68038,5.07711 -2.18341,12.85039 -0.4314,6.66617 -0.42475,6.71127 1.23261,8.36863 1.55469,1.55469 1.91917,1.63774 5.43951,1.23946 4.46369,-0.50501 4.81625,0.13455 1.47784,2.68087 -1.26244,0.9629 -2.66627,2.63851 -3.11965,3.72358 -0.5901,1.41232 -1.36822,2.08163 -2.73872,2.35573 -1.05293,0.21059 -1.91442,0.69966 -1.91442,1.08684 0,0.77869 11.16333,0.498 13.6787,-0.34393 1.04834,-0.3509 1.51666,-0.18866 1.83269,0.63492 0.67513,1.75937 -1.45684,2.81092 -5.72086,2.82169 -2.09692,0.005 -4.20282,0.25681 -4.67978,0.55891 -1.39597,0.88419 -0.18595,1.94848 2.21528,1.94848 1.21974,0 2.12332,0.25441 2.00795,0.56535 -0.11536,0.31093 -2.47508,2.08072 -5.24381,3.93285 -7.33075,4.90388 -7.16085,6.9083 0.66008,7.78757 5.47394,0.61539 13.70474,-1.91953 23.00191,-7.08415 0.20871,-0.11594 0.53767,1.85188 0.73102,4.37294 0.37021,4.82725 2.27292,10.80797 4.19272,13.1788 l 1.14193,1.41023 3.63366,-2.171 c 4.74918,-2.83749 10.80739,-8.62788 11.35039,-10.84863 0.30645,-1.2533 0.10992,-2.10875 -0.68668,-2.98897 -1.60327,-1.7716 -0.55554,-1.55355 6.41277,1.33461 7.60249,3.15101 8.55802,3.3908 10.13934,2.5445 1.35215,-0.72365 9.62239,0.35668 16.82146,2.19737 4.8856,1.24917 11.08651,4.01659 10.63539,4.7465 -0.54666,0.88453 -14.37103,7.66663 -24.17696,11.86098 -4.86972,2.08297 -11.60209,5.08523 -14.96081,6.6717 -29.38722,13.88089 -61.23725,25.27598 -93.19523,33.34274 -12.79713,3.23023 -15.16576,3.72231 -15.16576,3.15065 z m 18.78042,-141.4918 c -1.06729,-1.96039 -0.86341,-9.02676 0.35688,-12.36867 1.45202,-3.97656 0.86262,-3.80374 -1.36949,0.40156 -2.7965,5.26861 -2.95613,9.06046 -0.49329,11.71791 1.88874,2.03799 2.53829,2.14548 1.5059,0.2492 z m 81.27142,38.11324 c 0,-0.37424 -0.84626,-1.50782 -1.88058,-2.51905 -2.25768,-2.2073 -3.27925,-6.58667 -3.05542,-13.09826 0.0833,-2.42264 -0.0644,-5.30484 -0.32807,-6.40488 -0.46039,-1.92048 -0.33386,-2.09235 3.17887,-4.31789 2.01209,-1.27479 5.28654,-3.72139 7.27657,-5.43689 1.99002,-1.71551 3.61823,-2.96221 3.61823,-2.77046 0,0.19176 -0.85802,1.9855 -1.90671,3.98611 -2.37634,4.53339 -4.36666,13.93159 -4.37759,20.67074 -0.004,2.8036 -0.33009,6.06001 -0.72341,7.23645 -0.76431,2.28608 -1.80189,3.81439 -1.80189,2.65413 z"
           id="path5555"
           inkscape:connector-curvature="0"
           sodipodi:nodetypes="cssssscssssssssssssssssssssscsssssscssssssssssssssssssssssssscsscssssssssssccsssssssscsscscsscccccccccccsssssssccccsccscssccsscssssssscsscssccccsccsscsccssssssscsccccsscccsccscccssssscccsccsscsscsssssscsscsscsssccsssssssssssscsssssssssssssssscssscsssssssssssssssssscsssssssssssssssssscsscssssscsssssscsssssssssssscsssscss" />
      </g>
    </g>
  </g>
</svg>
