<?xml version="1.0" encoding="UTF-8" standalone="no"?>
<!-- Generator: Adobe Illustrator 19.2.1, SVG Export Plug-In . SVG Version: 6.00 Build 0)  -->

<svg
   version="1.1"
   id="Capa_1"
   x="0px"
   y="0px"
   viewBox="0 0 79.31 69.362213"
   enable-background="new 0 0 283.46 69.36"
   xml:space="preserve"
   sodipodi:docname="bsc.svg"
   width="79.309998"
   height="69.362213"
   inkscape:version="1.2.2 (b0a8486541, 2022-12-01)"
   xmlns:inkscape="http://www.inkscape.org/namespaces/inkscape"
   xmlns:sodipodi="http://sodipodi.sourceforge.net/DTD/sodipodi-0.dtd"
   xmlns="http://www.w3.org/2000/svg"
   xmlns:svg="http://www.w3.org/2000/svg"><defs
   id="defs5379" /><sodipodi:namedview
   id="namedview5377"
   pagecolor="#ffffff"
   bordercolor="#666666"
   borderopacity="1.0"
   inkscape:showpageshadow="2"
   inkscape:pageopacity="0.0"
   inkscape:pagecheckerboard="0"
   inkscape:deskcolor="#d1d1d1"
   showgrid="false"
   inkscape:zoom="1.7012687"
   inkscape:cx="-0.58779662"
   inkscape:cy="33.504407"
   inkscape:window-width="1280"
   inkscape:window-height="660"
   inkscape:window-x="0"
   inkscape:window-y="0"
   inkscape:window-maximized="1"
   inkscape:current-layer="g5373" />
<g
   id="BSC_Logo_2_">
	<g
   id="g5373">
		
		<path
   fill="#213970"
   d="M 44.56,4.65 C 47.3,4.65 53.07,5.9 55.2,6.5 33.37,5.45 19.62,20.24 19.62,37.24 c 0,12.1 7.23,25.45 24.61,29.45 C 24.07,67.05 12.3,50.42 12.3,35.91 12.3,17.54 28.06,4.65 44.56,4.65 Z"
   id="path5363" />
		<path
   fill="#213970"
   d="M 32.92,0 C 36.49,0 41.11,1.17 44.39,2.16 43.03,1.99 40.74,2 39.91,2 19.75,2 7.65,19.7 7.65,36.08 7.65,50.17 15.46,65.1 34.25,69.35 11.98,69.92 0,50.42 0,34.58 0,16.17 14.63,0 32.92,0 Z"
   id="path5365" />
		<path
   fill="#213970"
   d="m 40.01,37.01 h -1.96 l -0.45,2.15 h 2.28 c 0.63,0 1.5,-0.23 1.5,-1.16 0,-0.86 -0.63,-0.99 -1.37,-0.99 z"
   id="path5367" />
		<path
   fill="#213970"
   d="m 51.81,9.07 c -15.19,0 -27.5,12.31 -27.5,27.5 0,15.19 12.31,27.5 27.5,27.5 15.19,0 27.5,-12.31 27.5,-27.5 0,-15.19 -12.32,-27.5 -27.5,-27.5 z m -6.88,28.96 c 0,2.78 -2.23,3.88 -4.75,3.88 h -6.62 l 2.39,-11.54 h 5.93 c 2.5,0 3.44,0.87 3.44,2.54 0,1.46 -0.73,2.41 -2.12,2.78 h -0.02 v 0.03 c 1.08,0.23 1.75,1.24 1.75,2.31 z m 8.94,-3.12 c 2,0.71 2.68,1.81 2.68,3.19 0,2.78 -2.7,4.08 -5.2,4.08 -2.65,0 -5.04,-1.21 -4.9,-4.15 h 3.44 c 0,0.63 0.15,1.02 0.44,1.31 0.31,0.26 0.73,0.29 1.31,0.29 0.69,0 1.55,-0.35 1.55,-1.11 0,-0.84 -1.18,-0.96 -2.78,-1.49 -1.41,-0.47 -2.77,-1.21 -2.77,-3.13 0,-2.6 2.52,-3.8 4.85,-3.8 2.46,0 4.67,0.92 4.6,3.77 h -3.28 c 0.02,-0.47 -0.14,-0.76 -0.4,-0.96 -0.26,-0.19 -0.63,-0.26 -1.04,-0.26 -0.6,0 -1.37,0.18 -1.37,0.94 0.01,0.87 1.74,0.92 2.87,1.32 z m 10.24,4.4 c 1.11,0 1.74,-0.76 1.97,-1.78 h 3.49 c -0.21,1.18 -1.11,4.65 -5.91,4.65 -3.35,0 -4.96,-2.16 -4.96,-5.25 0,-3.73 2.33,-6.84 6.25,-6.84 2.57,0 4.86,1.12 4.93,4.58 h -3.36 c 0.03,-1.08 -0.49,-1.7 -1.58,-1.7 -1.97,0 -2.68,2.26 -2.68,3.89 -0.01,0.96 0.22,2.45 1.85,2.45 z"
   id="path5369" />
		<path
   fill="#213970"
   d="m 40.67,33.12 h -1.83 l -0.35,1.75 h 2 c 0.57,0 1.28,-0.21 1.28,-0.92 0,-0.7 -0.47,-0.83 -1.1,-0.83 z"
   id="path5371" />
	</g>
</g>
</svg>
