<?xml version="1.0" encoding="UTF-8" standalone="no"?>
<svg
   xmlns:dc="http://purl.org/dc/elements/1.1/"
   xmlns:cc="http://creativecommons.org/ns#"
   xmlns:rdf="http://www.w3.org/1999/02/22-rdf-syntax-ns#"
   xmlns:svg="http://www.w3.org/2000/svg"
   xmlns="http://www.w3.org/2000/svg"
   xmlns:sodipodi="http://sodipodi.sourceforge.net/DTD/sodipodi-0.dtd"
   xmlns:inkscape="http://www.inkscape.org/namespaces/inkscape"
   width="161.49419mm"
   height="72.031891mm"
   viewBox="0 0 161.49419 72.031891"
   version="1.1"
   id="svg2143"
   inkscape:version="1.0.1 (0767f8302a, 2020-10-17)"
   sodipodi:docname="strand2.svg">
  <defs
     id="defs2137" />
  <sodipodi:namedview
     id="base"
     pagecolor="#ffffff"
     bordercolor="#666666"
     borderopacity="1.0"
     inkscape:pageopacity="0.0"
     inkscape:pageshadow="2"
     inkscape:zoom="0.7"
     inkscape:cx="436.06397"
     inkscape:cy="348.52048"
     inkscape:document-units="mm"
     inkscape:current-layer="layer1"
     inkscape:document-rotation="0"
     showgrid="false"
     inkscape:snap-global="false"
     fit-margin-top="0"
     fit-margin-left="0"
     fit-margin-right="0"
     fit-margin-bottom="0"
     inkscape:window-width="1920"
     inkscape:window-height="1052"
     inkscape:window-x="1920"
     inkscape:window-y="0"
     inkscape:window-maximized="1" />
  <metadata
     id="metadata2140">
    <rdf:RDF>
      <cc:Work
         rdf:about="">
        <dc:format>image/svg+xml</dc:format>
        <dc:type
           rdf:resource="http://purl.org/dc/dcmitype/StillImage" />
        <dc:title></dc:title>
      </cc:Work>
    </rdf:RDF>
  </metadata>
  <g
     inkscape:label="Layer 1"
     inkscape:groupmode="layer"
     id="layer1"
     transform="translate(-13.474396,-44.77647)">
    <text
       id="text1407"
       y="53.120995"
       x="170.39273"
       style="font-style:normal;font-weight:normal;font-size:10.135px;line-height:1.25;font-family:FlamaLight;letter-spacing:0px;word-spacing:0px;fill:#000000;fill-opacity:1;stroke:none;stroke-width:0.210706;stroke-linecap:square;stroke-miterlimit:10"
       xml:space="preserve"><tspan
         style="font-style:normal;font-variant:normal;font-weight:bold;font-stretch:normal;font-family:Flama;-inkscape-font-specification:'Flama Bold';text-align:end;text-anchor:end;stroke-width:0.210706"
         y="53.120995"
         x="170.39273"
         sodipodi:role="line"
         id="tspan1405">2. Generative social behaviours</tspan></text>
    <g
       id="g1235-4-6"
       transform="matrix(0.17532431,0,0,0.17532431,17.697692,-54.344541)"
       style="fill:none;stroke:none;stroke-linecap:square;stroke-miterlimit:10">
      <g
         style="fill:#f9b4b4;fill-opacity:1"
         transform="translate(-6.2006925,220.12458)"
         id="g1223-5-2">
        <path
           id="path1195-0-9"
           d="m 390.66666,631.5898 v 0 c 0,-9.2049 7.46207,-16.66699 16.66702,-16.66699 h 479.22845 c 4.42035,0 8.65967,1.75598 11.78534,4.88165 3.12567,3.12567 4.88166,7.36499 4.88166,11.78534 v 66.66602 c 0,9.20495 -7.4621,16.66699 -16.667,16.66699 H 407.33368 c -9.20495,0 -16.66702,-7.46204 -16.66702,-16.66699 z"
           inkscape:connector-curvature="0"
           style="fill:#c18aa7;fill-opacity:1;fill-rule:evenodd"
           sodipodi:nodetypes="ccssssssssc" />
        <path
           id="path1197-3-1"
           d="m 279.83203,668.58685 v 0 c 0,-48.32275 39.17331,-87.49609 87.49606,-87.49609 v 0 c 23.20538,0 45.46036,9.21832 61.86905,25.62701 16.40869,16.4087 25.62701,38.6637 25.62701,61.86908 v 0 c 0,48.32276 -39.17334,87.49603 -87.49606,87.49603 v 0 c -48.32275,0 -87.49606,-39.17328 -87.49606,-87.49603 z"
           inkscape:connector-curvature="0"
           style="fill:#c18aa7;fill-opacity:1;fill-rule:evenodd"
           sodipodi:nodetypes="ccccsccccc" />
      </g>
      <text
         xml:space="preserve"
         style="font-style:normal;font-weight:normal;font-size:34.2957px;line-height:1.25;font-family:FlamaLight;letter-spacing:0px;word-spacing:0px;fill:#000000;fill-opacity:1;stroke:none;stroke-width:0.857392"
         x="450.88602"
         y="892.92383"
         id="text1229-6-2"><tspan
           id="tspan1689"
           sodipodi:role="line"
           x="450.88602"
           y="892.92383"
           style="font-weight:bold;stroke-width:0.857392">Generative networks</tspan></text>
      <g
         style="stroke-width:0.798601"
         id="g1310-5-1-7-6"
         transform="matrix(0.66256319,0,0,0.66256319,29.602421,759.34715)">
        <text
           id="text1683"
           y="178.71513"
           x="406.68646"
           style="font-style:normal;font-variant:normal;font-weight:normal;font-stretch:normal;font-size:63.378px;line-height:1.25;font-family:FlamaLight;-inkscape-font-specification:FlamaLight;letter-spacing:0px;word-spacing:0px;fill:#000000;fill-opacity:1;stroke:none;stroke-width:2.27768"
           xml:space="preserve"><tspan
             style="font-style:normal;font-variant:normal;font-weight:normal;font-stretch:normal;font-family:monospace;-inkscape-font-specification:monospace;stroke-width:2.27768"
             y="178.71513"
             x="406.68646"
             id="tspan1681"
             sodipodi:role="line">01001</tspan><tspan
             id="tspan1685"
             style="font-style:normal;font-variant:normal;font-weight:normal;font-stretch:normal;font-family:monospace;-inkscape-font-specification:monospace;stroke-width:2.27768"
             y="259.60715"
             x="406.68646"
             sodipodi:role="line">11010</tspan></text>
      </g>
    </g>
    <g
       id="g1157"
       transform="matrix(0.22832801,0.13368119,0.13368119,-0.22832801,-260.23128,160.31485)"
       inkscape:transform-center-x="35.50581"
       inkscape:transform-center-y="-22.283332"
       style="fill:none;stroke:none;stroke-linecap:square;stroke-miterlimit:10">
      <path
         id="path1153"
         d="m 806.87128,798.8471 c 37.8887,-55.38933 92.06817,-23.92583 92.06817,-23.92583"
         inkscape:connector-curvature="0"
         style="fill-rule:evenodd;stroke:#000000;stroke-width:8;stroke-linecap:butt;stroke-linejoin:round"
         sodipodi:nodetypes="cc" />
      <path
         id="path1155"
         d="m 891.59796,785.908 37.52734,9.18372 -22.84442,-31.15723 z"
         inkscape:connector-curvature="0"
         style="fill:#000000;fill-rule:evenodd;stroke:#000000;stroke-width:8;stroke-linecap:butt" />
    </g>
    <g
       transform="matrix(0.17532431,0,0,0.17532431,-34.499829,-82.454507)"
       id="g1715"
       style="fill:none;stroke:none;stroke-linecap:square;stroke-miterlimit:10">
      <g
         id="g1697"
         transform="translate(-6.2006925,220.12458)"
         style="fill:#f9b5b5;fill-opacity:1">
        <path
           sodipodi:nodetypes="ccssssssssc"
           style="fill:#c18aa7;fill-opacity:1;fill-rule:evenodd"
           inkscape:connector-curvature="0"
           d="m 390.66666,631.5898 v 0 c 0,-9.2049 7.46207,-16.66699 16.66702,-16.66699 h 479.22845 c 4.42035,0 8.65967,1.75598 11.78534,4.88165 3.12567,3.12567 4.88166,7.36499 4.88166,11.78534 v 66.66602 c 0,9.20495 -7.4621,16.66699 -16.667,16.66699 H 407.33368 c -9.20495,0 -16.66702,-7.46204 -16.66702,-16.66699 z"
           id="path1693" />
        <path
           sodipodi:nodetypes="ccccsccccc"
           style="fill:#c18aa7;fill-opacity:1;fill-rule:evenodd"
           inkscape:connector-curvature="0"
           d="m 279.83203,668.58685 v 0 c 0,-48.32275 39.17331,-87.49609 87.49606,-87.49609 v 0 c 23.20538,0 45.46036,9.21832 61.86905,25.62701 16.40869,16.4087 25.62701,38.6637 25.62701,61.86908 v 0 c 0,48.32276 -39.17334,87.49603 -87.49606,87.49603 v 0 c -48.32275,0 -87.49606,-39.17328 -87.49606,-87.49603 z"
           id="path1695" />
      </g>
      <text
         id="text1701"
         y="876.13544"
         x="443.33124"
         style="font-style:normal;font-weight:normal;font-size:34.2957px;line-height:1.25;font-family:FlamaLight;letter-spacing:0px;word-spacing:0px;fill:#000000;fill-opacity:1;stroke:none;stroke-width:0.857392"
         xml:space="preserve"><tspan
           style="font-weight:bold;stroke-width:0.857392"
           y="876.13544"
           x="443.33124"
           sodipodi:role="line"
           id="tspan1699">Immersive teleoperation</tspan><tspan
           id="tspan1736"
           style="font-weight:bold;stroke-width:0.857392"
           y="919.00507"
           x="443.33124"
           sodipodi:role="line">for non-verbal behaviours</tspan></text>
      <g
         transform="matrix(0.66256319,0,0,0.66256319,29.602421,759.34715)"
         id="g1713"
         style="stroke-width:0.798601">
        <text
           xml:space="preserve"
           style="font-style:normal;font-variant:normal;font-weight:normal;font-stretch:normal;font-size:63.378px;line-height:1.25;font-family:FlamaLight;-inkscape-font-specification:FlamaLight;letter-spacing:0px;word-spacing:0px;fill:#000000;fill-opacity:1;stroke:none;stroke-width:2.27768"
           x="406.68646"
           y="178.71513"
           id="text1711" />
      </g>
      <path
         sodipodi:nodetypes="cccccccccccccccc"
         inkscape:connector-curvature="0"
         id="path1727"
         d="m 302.85803,885.02634 3.12607,6.75576 13.1841,3.2656 6.12716,-14.60897 11.496,-32.74201 10.26503,41.38791 6.50064,58.69111 5.65401,-81.69009 7.13794,33.84897 6.68127,-15.76734 3.74369,4.70054 13.85346,-32.52543 3.48593,-11.42272 9.14045,54.75843 2.56424,15.08372 -0.17508,-3.57367"
         style="fill:none;stroke:#000000;stroke-width:4.52732;stroke-linecap:butt;stroke-linejoin:round;stroke-miterlimit:10;stroke-dasharray:none;stroke-opacity:1" />
      <path
         sodipodi:nodetypes="cc"
         inkscape:connector-curvature="0"
         id="path1734"
         d="M 287.76548,887.94452 H 423.83915"
         style="fill:none;stroke:#000000;stroke-width:6.33825;stroke-linecap:round;stroke-linejoin:miter;stroke-miterlimit:10;stroke-dasharray:none;stroke-opacity:1" />
    </g>
  </g>
</svg>
