<?xml version="1.0" encoding="UTF-8" standalone="no"?>
<!-- Created using Karbon, part of Calligra: http://www.calligra.org/karbon -->

<svg
   xmlns:dc="http://purl.org/dc/elements/1.1/"
   xmlns:cc="http://creativecommons.org/ns#"
   xmlns:rdf="http://www.w3.org/1999/02/22-rdf-syntax-ns#"
   xmlns:svg="http://www.w3.org/2000/svg"
   xmlns="http://www.w3.org/2000/svg"
   xmlns:sodipodi="http://sodipodi.sourceforge.net/DTD/sodipodi-0.dtd"
   xmlns:inkscape="http://www.inkscape.org/namespaces/inkscape"
   width="480.95248"
   height="243.49521"
   id="svg2"
   version="1.1"
   inkscape:version="0.48+devel r"
   sodipodi:docname="actions-croquignole.svg">
  <metadata
     id="metadata169">
    <rdf:RDF>
      <cc:Work
         rdf:about="">
        <dc:format>image/svg+xml</dc:format>
        <dc:type
           rdf:resource="http://purl.org/dc/dcmitype/StillImage" />
        <dc:title></dc:title>
      </cc:Work>
    </rdf:RDF>
  </metadata>
  <sodipodi:namedview
     pagecolor="#ffffff"
     bordercolor="#666666"
     borderopacity="1"
     objecttolerance="10"
     gridtolerance="10"
     guidetolerance="10"
     inkscape:pageopacity="0"
     inkscape:pageshadow="2"
     inkscape:window-width="1600"
     inkscape:window-height="838"
     id="namedview167"
     showgrid="false"
     fit-margin-top="0"
     fit-margin-left="0"
     fit-margin-right="0"
     fit-margin-bottom="0"
     inkscape:zoom="1.4434251"
     inkscape:cx="274.46374"
     inkscape:cy="176.45293"
     inkscape:window-x="0"
     inkscape:window-y="27"
     inkscape:window-maximized="1"
     inkscape:current-layer="001" />
  <defs
     id="defs4" />
  <g
     id="001"
     transform="translate(-19.035502,-56.560004)">
    <path
       id="shape1"
       transform="matrix(1,0,0,-1,75.54,251.63)"
       d="m 0,0 4.99,0 0,36.82 -4.99,0 z"
       inkscape:connector-curvature="0"
       style="fill:#bebebe" />
    <path
       id="shape2"
       transform="matrix(1,0,0,-1,75.54,251.63)"
       d="m 0,0 4.99,0 0,36.82 -4.99,0 z"
       inkscape:connector-curvature="0"
       style="fill:none;stroke:#000000;stroke-width:0.75;stroke-linecap:round;stroke-linejoin:round" />
    <path
       id="shape3"
       transform="matrix(1,0,0,-1,81.53,251.63)"
       d="m 0,0 4.99,0 0,80.25 -4.99,0 z"
       inkscape:connector-curvature="0"
       style="fill:#bebebe" />
    <path
       id="shape4"
       transform="matrix(1,0,0,-1,81.53,251.63)"
       d="m 0,0 4.99,0 0,80.25 -4.99,0 z"
       inkscape:connector-curvature="0"
       style="fill:none;stroke:#000000;stroke-width:0.75;stroke-linecap:round;stroke-linejoin:round" />
    <path
       id="shape5"
       transform="matrix(1,0,0,-1,87.52,251.63)"
       d="m 0,0 4.99,0 0,170.88 -4.99,0 z"
       inkscape:connector-curvature="0"
       style="fill:#bebebe" />
    <path
       id="shape6"
       transform="matrix(1,0,0,-1,87.52,251.63)"
       d="m 0,0 4.99,0 0,170.88 -4.99,0 z"
       inkscape:connector-curvature="0"
       style="fill:none;stroke:#000000;stroke-width:0.75;stroke-linecap:round;stroke-linejoin:round" />
    <path
       id="shape7"
       transform="matrix(1,0,0,-1,93.52,251.63)"
       d="m 0,0 4.99,0 0,87.8 -4.99,0 z"
       inkscape:connector-curvature="0"
       style="fill:#bebebe" />
    <path
       id="shape8"
       transform="matrix(1,0,0,-1,93.52,251.63)"
       d="m 0,0 4.99,0 0,87.8 -4.99,0 z"
       inkscape:connector-curvature="0"
       style="fill:none;stroke:#000000;stroke-width:0.75;stroke-linecap:round;stroke-linejoin:round" />
    <path
       id="shape9"
       transform="matrix(1,0,0,-1,99.51,251.63)"
       d="m 0,0 4.99,0 0,171.82 -4.99,0 z"
       inkscape:connector-curvature="0"
       style="fill:#bebebe" />
    <path
       id="shape10"
       transform="matrix(1,0,0,-1,99.51,251.63)"
       d="m 0,0 4.99,0 0,171.82 -4.99,0 z"
       inkscape:connector-curvature="0"
       style="fill:none;stroke:#000000;stroke-width:0.75;stroke-linecap:round;stroke-linejoin:round" />
    <path
       id="shape11"
       transform="matrix(1,0,0,-1,105.5,251.63)"
       d="m 0,0 4.99,0 0,148.22 -4.99,0 z"
       inkscape:connector-curvature="0"
       style="fill:#bebebe" />
    <path
       id="shape12"
       transform="matrix(1,0,0,-1,105.5,251.63)"
       d="m 0,0 4.99,0 0,148.22 -4.99,0 z"
       inkscape:connector-curvature="0"
       style="fill:none;stroke:#000000;stroke-width:0.75;stroke-linecap:round;stroke-linejoin:round" />
    <path
       id="shape13"
       transform="matrix(1,0,0,-1,111.49,251.63)"
       d="m 0,0 4.99,0 0,34.93 -4.99,0 z"
       inkscape:connector-curvature="0"
       style="fill:#bebebe" />
    <path
       id="shape14"
       transform="matrix(1,0,0,-1,111.49,251.63)"
       d="m 0,0 4.99,0 0,34.93 -4.99,0 z"
       inkscape:connector-curvature="0"
       style="fill:none;stroke:#000000;stroke-width:0.75;stroke-linecap:round;stroke-linejoin:round" />
    <path
       id="shape15"
       transform="matrix(1,0,0,-1,117.49,251.63)"
       d="m 0,0 4.99,0 0,49.09 -4.99,0 z"
       inkscape:connector-curvature="0"
       style="fill:#bebebe" />
    <path
       id="shape16"
       transform="matrix(1,0,0,-1,117.49,251.63)"
       d="m 0,0 4.99,0 0,49.09 -4.99,0 z"
       inkscape:connector-curvature="0"
       style="fill:none;stroke:#000000;stroke-width:0.75;stroke-linecap:round;stroke-linejoin:round" />
    <path
       id="shape17"
       transform="matrix(1,0,0,-1,123.48,251.63)"
       d="m 0,0 4.99,0 0,54.76 -4.99,0 z"
       inkscape:connector-curvature="0"
       style="fill:#bebebe" />
    <path
       id="shape18"
       transform="matrix(1,0,0,-1,123.48,251.63)"
       d="m 0,0 4.99,0 0,54.76 -4.99,0 z"
       inkscape:connector-curvature="0"
       style="fill:none;stroke:#000000;stroke-width:0.75;stroke-linecap:round;stroke-linejoin:round" />
    <path
       id="shape19"
       transform="matrix(1,0,0,-1,129.47,251.63)"
       d="m 0,0 4.99,0 0,149.17 -4.99,0 z"
       inkscape:connector-curvature="0"
       style="fill:#bebebe" />
    <path
       id="shape20"
       transform="matrix(1,0,0,-1,129.47,251.63)"
       d="m 0,0 4.99,0 0,149.17 -4.99,0 z"
       inkscape:connector-curvature="0"
       style="fill:none;stroke:#000000;stroke-width:0.75;stroke-linecap:round;stroke-linejoin:round" />
    <path
       id="shape21"
       transform="matrix(1,0,0,-1,135.46,251.63)"
       d="m 0,0 4.99,0 0,158.61 -4.99,0 z"
       inkscape:connector-curvature="0"
       style="fill:#bebebe" />
    <path
       id="shape22"
       transform="matrix(1,0,0,-1,135.46,251.63)"
       d="m 0,0 4.99,0 0,158.61 -4.99,0 z"
       inkscape:connector-curvature="0"
       style="fill:none;stroke:#000000;stroke-width:0.75;stroke-linecap:round;stroke-linejoin:round" />
    <path
       id="shape23"
       transform="matrix(1,0,0,-1,141.45,251.63)"
       d="m 0,0 4.99,0 0,160.5 -4.99,0 z"
       inkscape:connector-curvature="0"
       style="fill:#bebebe" />
    <path
       id="shape24"
       transform="matrix(1,0,0,-1,141.45,251.63)"
       d="m 0,0 4.99,0 0,160.5 -4.99,0 z"
       inkscape:connector-curvature="0"
       style="fill:none;stroke:#000000;stroke-width:0.75;stroke-linecap:round;stroke-linejoin:round" />
    <path
       id="shape33"
       transform="matrix(1,0,0,-1,171.42,251.63)"
       d="m 0,0 4.99,0 0,21.71 -4.99,0 z"
       inkscape:connector-curvature="0"
       style="fill:#bebebe" />
    <path
       id="shape34"
       transform="matrix(1,0,0,-1,171.42,251.63)"
       d="m 0,0 4.99,0 0,21.71 -4.99,0 z"
       inkscape:connector-curvature="0"
       style="fill:none;stroke:#000000;stroke-width:0.75;stroke-linecap:round;stroke-linejoin:round" />
    <path
       id="shape35"
       transform="matrix(1,0,0,-1,177.41,251.63)"
       d="m 0,0 4.99,0 0,60.42 -4.99,0 z"
       inkscape:connector-curvature="0"
       style="fill:#bebebe" />
    <path
       id="shape36"
       transform="matrix(1,0,0,-1,177.41,251.63)"
       d="m 0,0 4.99,0 0,60.42 -4.99,0 z"
       inkscape:connector-curvature="0"
       style="fill:none;stroke:#000000;stroke-width:0.75;stroke-linecap:round;stroke-linejoin:round" />
    <path
       id="shape37"
       transform="matrix(1,0,0,-1,183.4,251.63)"
       d="m 0,0 4.99,0 0,7.55 -4.99,0 z"
       inkscape:connector-curvature="0"
       style="fill:#bebebe" />
    <path
       id="shape38"
       transform="matrix(1,0,0,-1,183.4,251.63)"
       d="m 0,0 4.99,0 0,7.55 -4.99,0 z"
       inkscape:connector-curvature="0"
       style="fill:none;stroke:#000000;stroke-width:0.75;stroke-linecap:round;stroke-linejoin:round" />
    <path
       id="shape39"
       transform="matrix(1,0,0,-1,189.39,251.63)"
       d="m 0,0 4.99,0 0,16.05 -4.99,0 z"
       inkscape:connector-curvature="0"
       style="fill:#bebebe" />
    <path
       id="shape40"
       transform="matrix(1,0,0,-1,189.39,251.63)"
       d="m 0,0 4.99,0 0,16.05 -4.99,0 z"
       inkscape:connector-curvature="0"
       style="fill:none;stroke:#000000;stroke-width:0.75;stroke-linecap:round;stroke-linejoin:round" />
    <path
       id="shape41"
       transform="matrix(1,0,0,-1,195.39,251.63)"
       d="m 0,0 4.99,0 0,23.6 -4.99,0 z"
       inkscape:connector-curvature="0"
       style="fill:#bebebe" />
    <path
       id="shape42"
       transform="matrix(1,0,0,-1,195.39,251.63)"
       d="m 0,0 4.99,0 0,23.6 -4.99,0 z"
       inkscape:connector-curvature="0"
       style="fill:none;stroke:#000000;stroke-width:0.75;stroke-linecap:round;stroke-linejoin:round" />
    <path
       id="shape45"
       transform="matrix(1,0,0,-1,207.37,251.63)"
       d="m 0,0 4.99,0 0,61.37 -4.99,0 z"
       inkscape:connector-curvature="0"
       style="fill:#bebebe" />
    <path
       id="shape46"
       transform="matrix(1,0,0,-1,207.37,251.63)"
       d="m 0,0 4.99,0 0,61.37 -4.99,0 z"
       inkscape:connector-curvature="0"
       style="fill:none;stroke:#000000;stroke-width:0.75;stroke-linecap:round;stroke-linejoin:round" />
    <path
       id="shape47"
       transform="matrix(1,0,0,-1,213.36,251.63)"
       d="m 0,0 4.99,0 0,127.45 -4.99,0 z"
       inkscape:connector-curvature="0"
       style="fill:#bebebe" />
    <path
       id="shape48"
       transform="matrix(1,0,0,-1,213.36,251.63)"
       d="m 0,0 4.99,0 0,127.45 -4.99,0 z"
       inkscape:connector-curvature="0"
       style="fill:none;stroke:#000000;stroke-width:0.75;stroke-linecap:round;stroke-linejoin:round" />
    <path
       id="shape49"
       transform="matrix(1,0,0,-1,219.35,251.63)"
       d="m 0,0 4.99,0 0,192.59 -4.99,0 z"
       inkscape:connector-curvature="0"
       style="fill:#bebebe" />
    <path
       id="shape50"
       transform="matrix(1,0,0,-1,219.35,251.63)"
       d="m 0,0 4.99,0 0,192.59 -4.99,0 z"
       inkscape:connector-curvature="0"
       style="fill:none;stroke:#000000;stroke-width:0.75;stroke-linecap:round;stroke-linejoin:round" />
    <path
       id="shape51"
       transform="matrix(1,0,0,-1,225.35,251.63)"
       d="m 0,0 4.99,0 0,83.08 -4.99,0 z"
       inkscape:connector-curvature="0"
       style="fill:#bebebe" />
    <path
       id="shape52"
       transform="matrix(1,0,0,-1,225.35,251.63)"
       d="m 0,0 4.99,0 0,83.08 -4.99,0 z"
       inkscape:connector-curvature="0"
       style="fill:none;stroke:#000000;stroke-width:0.75;stroke-linecap:round;stroke-linejoin:round" />
    <path
       id="shape53"
       transform="matrix(1,0,0,-1,231.34,251.63)"
       d="m 0,0 4.99,0 0,45.32 -4.99,0 z"
       inkscape:connector-curvature="0"
       style="fill:#bebebe" />
    <path
       id="shape54"
       transform="matrix(1,0,0,-1,231.34,251.63)"
       d="m 0,0 4.99,0 0,45.32 -4.99,0 z"
       inkscape:connector-curvature="0"
       style="fill:none;stroke:#000000;stroke-width:0.75;stroke-linecap:round;stroke-linejoin:round" />
    <path
       id="shape55"
       transform="matrix(1,0,0,-1,237.33,251.63)"
       d="m 0,0 4.99,0 0,85.91 -4.99,0 z"
       inkscape:connector-curvature="0"
       style="fill:#bebebe" />
    <path
       id="shape56"
       transform="matrix(1,0,0,-1,237.33,251.63)"
       d="m 0,0 4.99,0 0,85.91 -4.99,0 z"
       inkscape:connector-curvature="0"
       style="fill:none;stroke:#000000;stroke-width:0.75;stroke-linecap:round;stroke-linejoin:round" />
    <path
       id="shape57"
       transform="matrix(1,0,0,-1,243.32,251.63)"
       d="m 0,0 4.99,0 0,101.02 -4.99,0 z"
       inkscape:connector-curvature="0"
       style="fill:#bebebe" />
    <path
       id="shape58"
       transform="matrix(1,0,0,-1,243.32,251.63)"
       d="m 0,0 4.99,0 0,101.02 -4.99,0 z"
       inkscape:connector-curvature="0"
       style="fill:none;stroke:#000000;stroke-width:0.75;stroke-linecap:round;stroke-linejoin:round" />
    <path
       id="shape59"
       transform="matrix(1,0,0,-1,249.32,251.63)"
       d="m 0,0 4.99,0 0,128.4 -4.99,0 z"
       inkscape:connector-curvature="0"
       style="fill:#bebebe" />
    <path
       id="shape60"
       transform="matrix(1,0,0,-1,249.32,251.63)"
       d="m 0,0 4.99,0 0,128.4 -4.99,0 z"
       inkscape:connector-curvature="0"
       style="fill:none;stroke:#000000;stroke-width:0.75;stroke-linecap:round;stroke-linejoin:round" />
    <path
       id="shape61"
       transform="matrix(1,0,0,-1,255.31,251.63)"
       d="m 0,0 4.99,0 0,101.96 -4.99,0 z"
       inkscape:connector-curvature="0"
       style="fill:#bebebe" />
    <path
       id="shape62"
       transform="matrix(1,0,0,-1,255.31,251.63)"
       d="m 0,0 4.99,0 0,101.96 -4.99,0 z"
       inkscape:connector-curvature="0"
       style="fill:none;stroke:#000000;stroke-width:0.75;stroke-linecap:round;stroke-linejoin:round" />
    <path
       id="shape63"
       transform="matrix(1,0,0,-1,261.3,251.63)"
       d="m 0,0 4.99,0 0,109.51 -4.99,0 z"
       inkscape:connector-curvature="0"
       style="fill:#bebebe" />
    <path
       id="shape64"
       transform="matrix(1,0,0,-1,261.3,251.63)"
       d="m 0,0 4.99,0 0,109.51 -4.99,0 z"
       inkscape:connector-curvature="0"
       style="fill:none;stroke:#000000;stroke-width:0.75;stroke-linecap:round;stroke-linejoin:round" />
    <path
       id="shape65"
       transform="matrix(1,0,0,-1,267.29,251.63)"
       d="m 0,0 4.99,0 0,101.96 -4.99,0 z"
       inkscape:connector-curvature="0"
       style="fill:#bebebe" />
    <path
       id="shape66"
       transform="matrix(1,0,0,-1,267.29,251.63)"
       d="m 0,0 4.99,0 0,101.96 -4.99,0 z"
       inkscape:connector-curvature="0"
       style="fill:none;stroke:#000000;stroke-width:0.75;stroke-linecap:round;stroke-linejoin:round" />
    <path
       id="shape67"
       transform="matrix(1,0,0,-1,273.29,251.63)"
       d="m 0,0 4.99,0 0,105.74 -4.99,0 z"
       inkscape:connector-curvature="0"
       style="fill:#bebebe" />
    <path
       id="shape68"
       transform="matrix(1,0,0,-1,273.29,251.63)"
       d="m 0,0 4.99,0 0,105.74 -4.99,0 z"
       inkscape:connector-curvature="0"
       style="fill:none;stroke:#000000;stroke-width:0.75;stroke-linecap:round;stroke-linejoin:round" />
    <path
       id="shape69"
       transform="matrix(1,0,0,-1,279.28,251.63)"
       d="m 0,0 4.99,0 0,60.42 -4.99,0 z"
       inkscape:connector-curvature="0"
       style="fill:#bebebe" />
    <path
       id="shape70"
       transform="matrix(1,0,0,-1,279.28,251.63)"
       d="m 0,0 4.99,0 0,60.42 -4.99,0 z"
       inkscape:connector-curvature="0"
       style="fill:none;stroke:#000000;stroke-width:0.75;stroke-linecap:round;stroke-linejoin:round" />
    <path
       id="shape71"
       transform="matrix(1,0,0,-1,285.27,251.63)"
       d="m 0,0 4.99,0 0,33.04 -4.99,0 z"
       inkscape:connector-curvature="0"
       style="fill:#bebebe" />
    <path
       id="shape72"
       transform="matrix(1,0,0,-1,285.27,251.63)"
       d="m 0,0 4.99,0 0,33.04 -4.99,0 z"
       inkscape:connector-curvature="0"
       style="fill:none;stroke:#000000;stroke-width:0.75;stroke-linecap:round;stroke-linejoin:round" />
    <path
       id="shape73"
       transform="matrix(1,0,0,-1,291.26,251.63)"
       d="m 0,0 4.99,0 0,123.68 -4.99,0 z"
       inkscape:connector-curvature="0"
       style="fill:#bebebe" />
    <path
       id="shape74"
       transform="matrix(1,0,0,-1,291.26,251.63)"
       d="m 0,0 4.99,0 0,123.68 -4.99,0 z"
       inkscape:connector-curvature="0"
       style="fill:none;stroke:#000000;stroke-width:0.75;stroke-linecap:round;stroke-linejoin:round" />
    <path
       id="shape75"
       transform="matrix(1,0,0,-1,297.26,251.63)"
       d="m 0,0 4.99,0 0,71.75 -4.99,0 z"
       inkscape:connector-curvature="0"
       style="fill:#bebebe" />
    <path
       id="shape76"
       transform="matrix(1,0,0,-1,297.26,251.63)"
       d="m 0,0 4.99,0 0,71.75 -4.99,0 z"
       inkscape:connector-curvature="0"
       style="fill:none;stroke:#000000;stroke-width:0.75;stroke-linecap:round;stroke-linejoin:round" />
    <path
       id="shape77"
       transform="matrix(1,0,0,-1,303.25,251.63)"
       d="m 0,0 4.99,0 0,105.74 -4.99,0 z"
       inkscape:connector-curvature="0"
       style="fill:#bebebe" />
    <path
       id="shape78"
       transform="matrix(1,0,0,-1,303.25,251.63)"
       d="m 0,0 4.99,0 0,105.74 -4.99,0 z"
       inkscape:connector-curvature="0"
       style="fill:none;stroke:#000000;stroke-width:0.75;stroke-linecap:round;stroke-linejoin:round" />
    <path
       id="shape79"
       transform="matrix(1,0,0,-1,309.24,251.63)"
       d="m 0,0 4.99,0 0,50.04 -4.99,0 z"
       inkscape:connector-curvature="0"
       style="fill:#bebebe" />
    <path
       id="shape80"
       transform="matrix(1,0,0,-1,309.24,251.63)"
       d="m 0,0 4.99,0 0,50.04 -4.99,0 z"
       inkscape:connector-curvature="0"
       style="fill:none;stroke:#000000;stroke-width:0.75;stroke-linecap:round;stroke-linejoin:round" />
    <path
       id="shape81"
       transform="matrix(1,0,0,-1,315.23,251.63)"
       d="m 0,0 4.99,0 0,24.55 -4.99,0 z"
       inkscape:connector-curvature="0"
       style="fill:#bebebe" />
    <path
       id="shape82"
       transform="matrix(1,0,0,-1,315.23,251.63)"
       d="m 0,0 4.99,0 0,24.55 -4.99,0 z"
       inkscape:connector-curvature="0"
       style="fill:none;stroke:#000000;stroke-width:0.75;stroke-linecap:round;stroke-linejoin:round" />
    <path
       id="shape83"
       transform="matrix(1,0,0,-1,321.22,251.63)"
       d="m 0,0 4.99,0 0,73.64 -4.99,0 z"
       inkscape:connector-curvature="0"
       style="fill:#bebebe" />
    <path
       id="shape84"
       transform="matrix(1,0,0,-1,321.22,251.63)"
       d="m 0,0 4.99,0 0,73.64 -4.99,0 z"
       inkscape:connector-curvature="0"
       style="fill:none;stroke:#000000;stroke-width:0.75;stroke-linecap:round;stroke-linejoin:round" />
    <path
       id="shape85"
       transform="matrix(1,0,0,-1,327.22,251.63)"
       d="m 0,0 4.99,0 0,48.15 -4.99,0 z"
       inkscape:connector-curvature="0"
       style="fill:#bebebe" />
    <path
       id="shape86"
       transform="matrix(1,0,0,-1,327.22,251.63)"
       d="m 0,0 4.99,0 0,48.15 -4.99,0 z"
       inkscape:connector-curvature="0"
       style="fill:none;stroke:#000000;stroke-width:0.75;stroke-linecap:round;stroke-linejoin:round" />
    <path
       id="shape87"
       transform="matrix(1,0,0,-1,333.21,251.63)"
       d="m 0,0 4.99,0 0,82.14 -4.99,0 z"
       inkscape:connector-curvature="0"
       style="fill:#bebebe" />
    <path
       id="shape88"
       transform="matrix(1,0,0,-1,333.21,251.63)"
       d="m 0,0 4.99,0 0,82.14 -4.99,0 z"
       inkscape:connector-curvature="0"
       style="fill:none;stroke:#000000;stroke-width:0.75;stroke-linecap:round;stroke-linejoin:round" />
    <path
       id="shape89"
       transform="matrix(1,0,0,-1,339.2,251.63)"
       d="m 0,0 4.99,0 0,26.43 -4.99,0 z"
       inkscape:connector-curvature="0"
       style="fill:#bebebe" />
    <path
       id="shape90"
       transform="matrix(1,0,0,-1,339.2,251.63)"
       d="m 0,0 4.99,0 0,26.43 -4.99,0 z"
       inkscape:connector-curvature="0"
       style="fill:none;stroke:#000000;stroke-width:0.75;stroke-linecap:round;stroke-linejoin:round" />
    <path
       id="shape91"
       transform="matrix(1,0,0,-1,345.19,251.63)"
       d="m 0,0 4.99,0 0,135.95 -4.99,0 z"
       inkscape:connector-curvature="0"
       style="fill:#bebebe" />
    <path
       id="shape92"
       transform="matrix(1,0,0,-1,345.19,251.63)"
       d="m 0,0 4.99,0 0,135.95 -4.99,0 z"
       inkscape:connector-curvature="0"
       style="fill:none;stroke:#000000;stroke-width:0.75;stroke-linecap:round;stroke-linejoin:round" />
    <path
       id="shape93"
       transform="matrix(1,0,0,-1,351.19,251.63)"
       d="m 0,0 4.99,0 0,160.5 -4.99,0 z"
       inkscape:connector-curvature="0"
       style="fill:#bebebe" />
    <path
       id="shape94"
       transform="matrix(1,0,0,-1,351.19,251.63)"
       d="m 0,0 4.99,0 0,160.5 -4.99,0 z"
       inkscape:connector-curvature="0"
       style="fill:none;stroke:#000000;stroke-width:0.75;stroke-linecap:round;stroke-linejoin:round" />
    <path
       id="shape95"
       transform="matrix(1,0,0,-1,357.18,251.63)"
       d="m 0,0 4.99,0 0,0 z"
       inkscape:connector-curvature="0"
       style="fill:#bebebe" />
    <path
       id="shape96"
       transform="matrix(1,0,0,-1,357.18,251.63)"
       d="m 0,0 4.99,0 0,0 z"
       inkscape:connector-curvature="0"
       style="fill:none;stroke:#000000;stroke-width:0.75;stroke-linecap:round;stroke-linejoin:round" />
    <path
       id="shape97"
       transform="matrix(1,0,0,-1,363.17,251.63)"
       d="m 0,0 4.99,0 0,0 z"
       inkscape:connector-curvature="0"
       style="fill:#bebebe" />
    <path
       id="shape98"
       transform="matrix(1,0,0,-1,363.17,251.63)"
       d="m 0,0 4.99,0 0,0 z"
       inkscape:connector-curvature="0"
       style="fill:none;stroke:#000000;stroke-width:0.75;stroke-linecap:round;stroke-linejoin:round" />
    <path
       id="shape99"
       transform="matrix(1,0,0,-1,369.16,251.63)"
       d="m 0,0 4.99,0 0,69.86 -4.99,0 z"
       inkscape:connector-curvature="0"
       style="fill:#bebebe" />
    <path
       id="shape100"
       transform="matrix(1,0,0,-1,369.16,251.63)"
       d="m 0,0 4.99,0 0,69.86 -4.99,0 z"
       inkscape:connector-curvature="0"
       style="fill:none;stroke:#000000;stroke-width:0.75;stroke-linecap:round;stroke-linejoin:round" />
    <path
       id="shape101"
       transform="matrix(1,0,0,-1,375.16,251.63)"
       d="m 0,0 4.99,0 0,115.18 -4.99,0 z"
       inkscape:connector-curvature="0"
       style="fill:#bebebe" />
    <path
       id="shape102"
       transform="matrix(1,0,0,-1,375.16,251.63)"
       d="m 0,0 4.99,0 0,115.18 -4.99,0 z"
       inkscape:connector-curvature="0"
       style="fill:none;stroke:#000000;stroke-width:0.75;stroke-linecap:round;stroke-linejoin:round" />
    <path
       id="shape103"
       transform="matrix(1,0,0,-1,381.15,251.63)"
       d="m 0,0 4.99,0 0,56.65 -4.99,0 z"
       inkscape:connector-curvature="0"
       style="fill:#bebebe" />
    <path
       id="shape104"
       transform="matrix(1,0,0,-1,381.15,251.63)"
       d="m 0,0 4.99,0 0,56.65 -4.99,0 z"
       inkscape:connector-curvature="0"
       style="fill:none;stroke:#000000;stroke-width:0.75;stroke-linecap:round;stroke-linejoin:round" />
    <path
       id="shape105"
       transform="matrix(1,0,0,-1,387.14,251.63)"
       d="m 0,0 4.99,0 0,17.94 -4.99,0 z"
       inkscape:connector-curvature="0"
       style="fill:#bebebe" />
    <path
       id="shape106"
       transform="matrix(1,0,0,-1,387.14,251.63)"
       d="m 0,0 4.99,0 0,17.94 -4.99,0 z"
       inkscape:connector-curvature="0"
       style="fill:none;stroke:#000000;stroke-width:0.75;stroke-linecap:round;stroke-linejoin:round" />
    <path
       id="shape107"
       transform="matrix(1,0,0,-1,393.13,251.63)"
       d="m 0,0 4.99,0 0,28.32 -4.99,0 z"
       inkscape:connector-curvature="0"
       style="fill:#bebebe" />
    <path
       id="shape108"
       transform="matrix(1,0,0,-1,393.13,251.63)"
       d="m 0,0 4.99,0 0,28.32 -4.99,0 z"
       inkscape:connector-curvature="0"
       style="fill:none;stroke:#000000;stroke-width:0.75;stroke-linecap:round;stroke-linejoin:round" />
    <path
       id="shape109"
       transform="matrix(1,0,0,-1,399.12,251.63)"
       d="m 0,0 4.99,0 0,84.97 -4.99,0 z"
       inkscape:connector-curvature="0"
       style="fill:#bebebe" />
    <path
       id="shape110"
       transform="matrix(1,0,0,-1,399.12,251.63)"
       d="m 0,0 4.99,0 0,84.97 -4.99,0 z"
       inkscape:connector-curvature="0"
       style="fill:none;stroke:#000000;stroke-width:0.75;stroke-linecap:round;stroke-linejoin:round" />
    <path
       id="shape111"
       transform="matrix(1,0,0,-1,405.12,251.63)"
       d="m 0,0 4.99,0 0,59.48 -4.99,0 z"
       inkscape:connector-curvature="0"
       style="fill:#bebebe" />
    <path
       id="shape112"
       transform="matrix(1,0,0,-1,405.12,251.63)"
       d="m 0,0 4.99,0 0,59.48 -4.99,0 z"
       inkscape:connector-curvature="0"
       style="fill:none;stroke:#000000;stroke-width:0.75;stroke-linecap:round;stroke-linejoin:round" />
    <path
       id="shape113"
       transform="matrix(1,0,0,-1,411.11,251.63)"
       d="m 0,0 4.99,0 0,60.42 -4.99,0 z"
       inkscape:connector-curvature="0"
       style="fill:#bebebe" />
    <path
       id="shape114"
       transform="matrix(1,0,0,-1,411.11,251.63)"
       d="m 0,0 4.99,0 0,60.42 -4.99,0 z"
       inkscape:connector-curvature="0"
       style="fill:none;stroke:#000000;stroke-width:0.75;stroke-linecap:round;stroke-linejoin:round" />
    <path
       id="shape115"
       transform="matrix(1,0,0,-1,417.1,251.63)"
       d="m 0,0 4.99,0 0,49.09 -4.99,0 z"
       inkscape:connector-curvature="0"
       style="fill:#bebebe" />
    <path
       id="shape116"
       transform="matrix(1,0,0,-1,417.1,251.63)"
       d="m 0,0 4.99,0 0,49.09 -4.99,0 z"
       inkscape:connector-curvature="0"
       style="fill:none;stroke:#000000;stroke-width:0.75;stroke-linecap:round;stroke-linejoin:round" />
    <path
       id="shape117"
       transform="matrix(1,0,0,-1,423.09,251.63)"
       d="m 0,0 4.99,0 0,42.48 -4.99,0 z"
       inkscape:connector-curvature="0"
       style="fill:#bebebe" />
    <path
       id="shape118"
       transform="matrix(1,0,0,-1,423.09,251.63)"
       d="m 0,0 4.99,0 0,42.48 -4.99,0 z"
       inkscape:connector-curvature="0"
       style="fill:none;stroke:#000000;stroke-width:0.75;stroke-linecap:round;stroke-linejoin:round" />
    <path
       id="shape119"
       transform="matrix(1,0,0,-1,429.09,251.63)"
       d="m 0,0 4.99,0 0,21.71 -4.99,0 z"
       inkscape:connector-curvature="0"
       style="fill:#bebebe" />
    <path
       id="shape120"
       transform="matrix(1,0,0,-1,429.09,251.63)"
       d="m 0,0 4.99,0 0,21.71 -4.99,0 z"
       inkscape:connector-curvature="0"
       style="fill:none;stroke:#000000;stroke-width:0.75;stroke-linecap:round;stroke-linejoin:round" />
    <path
       id="shape121"
       transform="matrix(1,0,0,-1,435.08,251.63)"
       d="m 0,0 4.99,0 0,14.16 -4.99,0 z"
       inkscape:connector-curvature="0"
       style="fill:#bebebe" />
    <path
       id="shape122"
       transform="matrix(1,0,0,-1,435.08,251.63)"
       d="m 0,0 4.99,0 0,14.16 -4.99,0 z"
       inkscape:connector-curvature="0"
       style="fill:none;stroke:#000000;stroke-width:0.75;stroke-linecap:round;stroke-linejoin:round" />
    <path
       id="shape123"
       transform="matrix(1,0,0,-1,441.07,251.63)"
       d="m 0,0 4.99,0 0,7.55 -4.99,0 z"
       inkscape:connector-curvature="0"
       style="fill:#bebebe" />
    <path
       id="shape124"
       transform="matrix(1,0,0,-1,441.07,251.63)"
       d="m 0,0 4.99,0 0,7.55 -4.99,0 z"
       inkscape:connector-curvature="0"
       style="fill:none;stroke:#000000;stroke-width:0.75;stroke-linecap:round;stroke-linejoin:round" />
    <path
       id="shape125"
       transform="matrix(1,0,0,-1,447.06,251.63)"
       d="m 0,0 4.99,0 0,7.55 -4.99,0 z"
       inkscape:connector-curvature="0"
       style="fill:#bebebe" />
    <path
       id="shape126"
       transform="matrix(1,0,0,-1,447.06,251.63)"
       d="m 0,0 4.99,0 0,7.55 -4.99,0 z"
       inkscape:connector-curvature="0"
       style="fill:none;stroke:#000000;stroke-width:0.75;stroke-linecap:round;stroke-linejoin:round" />
    <path
       id="shape127"
       transform="matrix(1,0,0,-1,453.06,251.63)"
       d="m 0,0 4.99,0 0,2.83 -4.99,0 z"
       inkscape:connector-curvature="0"
       style="fill:#bebebe" />
    <path
       id="shape128"
       transform="matrix(1,0,0,-1,453.06,251.63)"
       d="m 0,0 4.99,0 0,2.83 -4.99,0 z"
       inkscape:connector-curvature="0"
       style="fill:none;stroke:#000000;stroke-width:0.75;stroke-linecap:round;stroke-linejoin:round" />
    <path
       id="shape129"
       transform="matrix(1,0,0,-1,459.05,251.63)"
       d="m 0,0 4.99,0 0,21.71 -4.99,0 z"
       inkscape:connector-curvature="0"
       style="fill:#bebebe" />
    <path
       id="shape130"
       transform="matrix(1,0,0,-1,459.05,251.63)"
       d="m 0,0 4.99,0 0,21.71 -4.99,0 z"
       inkscape:connector-curvature="0"
       style="fill:none;stroke:#000000;stroke-width:0.75;stroke-linecap:round;stroke-linejoin:round" />
    <path
       id="shape131"
       transform="matrix(1,0,0,-1,465.04,251.63)"
       d="m 0,0 4.99,0 0,52.87 -4.99,0 z"
       inkscape:connector-curvature="0"
       style="fill:#bebebe" />
    <path
       id="shape132"
       transform="matrix(1,0,0,-1,465.04,251.63)"
       d="m 0,0 4.99,0 0,52.87 -4.99,0 z"
       inkscape:connector-curvature="0"
       style="fill:none;stroke:#000000;stroke-width:0.75;stroke-linecap:round;stroke-linejoin:round" />
    <path
       id="shape133"
       transform="matrix(1,0,0,-1,471.03,251.63)"
       d="m 0,0 4.99,0 0,52.87 -4.99,0 z"
       inkscape:connector-curvature="0"
       style="fill:#bebebe" />
    <path
       id="shape134"
       transform="matrix(1,0,0,-1,471.03,251.63)"
       d="m 0,0 4.99,0 0,52.87 -4.99,0 z"
       inkscape:connector-curvature="0"
       style="fill:none;stroke:#000000;stroke-width:0.75;stroke-linecap:round;stroke-linejoin:round" />
    <path
       id="shape135"
       transform="matrix(1,0,0,-1,477.02,251.63)"
       d="m 0,0 4.99,0 0,35.88 -4.99,0 z"
       inkscape:connector-curvature="0"
       style="fill:#bebebe" />
    <path
       id="shape136"
       transform="matrix(1,0,0,-1,477.02,251.63)"
       d="m 0,0 4.99,0 0,35.88 -4.99,0 z"
       inkscape:connector-curvature="0"
       style="fill:none;stroke:#000000;stroke-width:0.75;stroke-linecap:round;stroke-linejoin:round" />
    <path
       id="shape137"
       transform="matrix(1,0,0,-1,483.02,251.63)"
       d="m 0,0 4.99,0 0,33.04 -4.99,0 z"
       inkscape:connector-curvature="0"
       style="fill:#bebebe" />
    <path
       id="shape138"
       transform="matrix(1,0,0,-1,483.02,251.63)"
       d="m 0,0 4.99,0 0,33.04 -4.99,0 z"
       inkscape:connector-curvature="0"
       style="fill:none;stroke:#000000;stroke-width:0.75;stroke-linecap:round;stroke-linejoin:round" />
    <path
       id="shape139"
       transform="matrix(1,0,0,-1,59.04,251.63)"
       d="M 0,0 0,188.81"
       inkscape:connector-curvature="0"
       style="fill:none;stroke:#000000;stroke-width:0.75;stroke-linecap:round;stroke-linejoin:round" />
    <path
       id="shape140"
       transform="matrix(1,0,0,-1,51.84,251.63)"
       d="M 7.2,0 0,0"
       inkscape:connector-curvature="0"
       style="fill:none;stroke:#000000;stroke-width:0.75;stroke-linecap:round;stroke-linejoin:round" />
    <path
       id="shape141"
       transform="matrix(1,0,0,-1,51.84,204.43)"
       d="M 7.2,0 0,0"
       inkscape:connector-curvature="0"
       style="fill:none;stroke:#000000;stroke-width:0.75;stroke-linecap:round;stroke-linejoin:round" />
    <path
       id="shape142"
       transform="matrix(1,0,0,-1,51.84,157.23)"
       d="M 7.2,0 0,0"
       inkscape:connector-curvature="0"
       style="fill:none;stroke:#000000;stroke-width:0.75;stroke-linecap:round;stroke-linejoin:round" />
    <path
       id="shape143"
       transform="matrix(1,0,0,-1,51.84,110.02)"
       d="M 7.2,0 0,0"
       inkscape:connector-curvature="0"
       style="fill:none;stroke:#000000;stroke-width:0.75;stroke-linecap:round;stroke-linejoin:round" />
    <path
       id="shape144"
       transform="matrix(1,0,0,-1,51.84,62.82)"
       d="M 7.2,0 0,0"
       inkscape:connector-curvature="0"
       style="fill:none;stroke:#000000;stroke-width:0.75;stroke-linecap:round;stroke-linejoin:round" />
    <text
       id="shape145"
       font-size="12.80000019073pt"
       x="35.760002"
       y="256.07965"
       style="font-size:16px;font-style:normal;font-variant:normal;font-weight:500;font-stretch:normal;fill:#000000;font-family:FlamaLight;-inkscape-font-specification:FlamaLight Medium">
      <tspan
         x="35.760002"
         y="256.07971"
         id="tspan153"
         style="font-style:normal;font-variant:normal;font-weight:500;font-stretch:normal;font-family:FlamaLight;-inkscape-font-specification:FlamaLight Medium">0</tspan>
    </text>
    <text
       id="shape146"
       font-size="12.80000019073pt"
       x="26.853752"
       y="209.32965"
       style="font-size:16px;font-style:normal;font-variant:normal;font-weight:500;font-stretch:normal;fill:#000000;font-family:FlamaLight;-inkscape-font-specification:FlamaLight Medium">
      <tspan
         x="26.853752"
         y="209.3297"
         id="tspan156"
         style="font-style:normal;font-variant:normal;font-weight:500;font-stretch:normal;font-family:FlamaLight;-inkscape-font-specification:FlamaLight Medium">50</tspan>
    </text>
    <text
       id="shape147"
       font-size="12.80000019073pt"
       x="17.947502"
       y="162.56966"
       style="font-size:16px;font-style:normal;font-variant:normal;font-weight:500;font-stretch:normal;fill:#000000;font-family:FlamaLight;-inkscape-font-specification:FlamaLight Medium">
      <tspan
         x="17.947502"
         y="162.5697"
         id="tspan159"
         style="font-style:normal;font-variant:normal;font-weight:500;font-stretch:normal;font-family:FlamaLight;-inkscape-font-specification:FlamaLight Medium">100</tspan>
    </text>
    <text
       id="shape148"
       font-size="12.80000019073pt"
       x="17.947502"
       y="115.35966"
       style="font-size:16px;font-style:normal;font-variant:normal;font-weight:500;font-stretch:normal;fill:#000000;font-family:FlamaLight;-inkscape-font-specification:FlamaLight Medium">
      <tspan
         x="17.947502"
         y="115.3597"
         id="tspan162"
         style="font-style:normal;font-variant:normal;font-weight:500;font-stretch:normal;font-family:FlamaLight;-inkscape-font-specification:FlamaLight Medium">150</tspan>
    </text>
    <text
       id="shape149"
       font-size="12.80000019073pt"
       x="17.947502"
       y="68.159958"
       style="font-size:16px;font-style:normal;font-variant:normal;font-weight:500;font-stretch:normal;fill:#000000;font-family:FlamaLight;-inkscape-font-specification:FlamaLight Medium">
      <tspan
         x="17.947502"
         y="68.160004"
         id="tspan165"
         style="font-style:normal;font-variant:normal;font-weight:500;font-stretch:normal;font-family:FlamaLight;-inkscape-font-specification:FlamaLight Medium">200</tspan>
    </text>
    <text
       xml:space="preserve"
       style="font-size:13.73722363px;font-style:normal;font-weight:normal;line-height:125%;letter-spacing:0px;word-spacing:0px;fill:#000000;fill-opacity:1;stroke:none;font-family:Sans"
       x="225.81537"
       y="297.3902"
       id="text4193"
       sodipodi:linespacing="125%"><tspan
         sodipodi:role="line"
         id="tspan4195"
         x="225.81537"
         y="297.3902"
         style="font-style:normal;font-variant:normal;font-weight:500;font-stretch:normal;font-family:FlamaLight;-inkscape-font-specification:FlamaLight Medium">Actions per minute</tspan></text>
    <text
       id="text4201"
       font-size="12.80000019073pt"
       x="68.863327"
       y="293.96729"
       style="font-size:12.93051529px;font-style:normal;font-variant:normal;font-weight:500;font-stretch:normal;fill:#000000;font-family:FlamaLight;-inkscape-font-specification:FlamaLight Medium"
       transform="scale(1.0564224,0.94659106)">
      <tspan
         x="68.863327"
         y="293.96735"
         id="tspan4203"
         style="font-style:normal;font-variant:normal;font-weight:500;font-stretch:normal;font-family:FlamaLight;-inkscape-font-specification:FlamaLight Medium">0</tspan>
    </text>
    <text
       style="font-size:12.93051529px;font-style:normal;font-variant:normal;font-weight:500;font-stretch:normal;fill:#000000;font-family:FlamaLight;-inkscape-font-specification:FlamaLight Medium"
       y="293.96729"
       x="401.81082"
       font-size="12.80000019073pt"
       id="text4197"
       transform="scale(1.0564224,0.94659106)">
      <tspan
         style="font-style:normal;font-variant:normal;font-weight:500;font-stretch:normal;font-family:FlamaLight;-inkscape-font-specification:FlamaLight Medium"
         id="tspan4199"
         y="293.96735"
         x="401.81082">60</tspan>
    </text>
    <text
       id="text4205"
       font-size="12.80000019073pt"
       x="232.67937"
       y="293.96729"
       style="font-size:12.93051529px;font-style:normal;font-variant:normal;font-weight:500;font-stretch:normal;fill:#000000;font-family:FlamaLight;-inkscape-font-specification:FlamaLight Medium"
       transform="scale(1.0564224,0.94659105)">
      <tspan
         x="232.67937"
         y="293.96735"
         id="tspan4207"
         style="font-style:normal;font-variant:normal;font-weight:500;font-stretch:normal;font-family:FlamaLight;-inkscape-font-specification:FlamaLight Medium">30</tspan>
    </text>
    <g
       id="g4221"
       transform="matrix(1.8811989,0,0,1,-67.206063,0)">
      <path
         style="fill:#bebebe"
         inkscape:connector-curvature="0"
         d="m 0,0 4.99,0 0,0 z"
         transform="matrix(1,0,0,-1,147.45,251.63)"
         id="shape25" />
      <path
         style="fill:none;stroke:#000000;stroke-width:0.54681939;stroke-linecap:round;stroke-linejoin:round"
         inkscape:connector-curvature="0"
         d="m 0,0 4.99,0 0,0 z"
         transform="matrix(1,0,0,-1,147.45,251.63)"
         id="shape26" />
      <path
         style="fill:#bebebe"
         inkscape:connector-curvature="0"
         d="m 0,0 4.99,0 0,0 z"
         transform="matrix(1,0,0,-1,153.44,251.63)"
         id="shape27" />
      <path
         style="fill:none;stroke:#000000;stroke-width:0.54681939;stroke-linecap:round;stroke-linejoin:round"
         inkscape:connector-curvature="0"
         d="m 0,0 4.99,0 0,0 z"
         transform="matrix(1,0,0,-1,153.44,251.63)"
         id="shape28" />
      <path
         style="fill:#bebebe"
         inkscape:connector-curvature="0"
         d="m 0,0 4.99,0 0,0 z"
         transform="matrix(1,0,0,-1,159.43,251.63)"
         id="shape29" />
      <path
         style="fill:none;stroke:#000000;stroke-width:0.54681939;stroke-linecap:round;stroke-linejoin:round"
         inkscape:connector-curvature="0"
         d="m 0,0 4.99,0 0,0 z"
         transform="matrix(1,0,0,-1,159.43,251.63)"
         id="shape30" />
      <path
         style="fill:#bebebe"
         inkscape:connector-curvature="0"
         d="m 0,0 4.99,0 0,0 z"
         transform="matrix(1,0,0,-1,165.42,251.63)"
         id="shape31" />
      <path
         style="fill:none;stroke:#000000;stroke-width:0.54681939;stroke-linecap:round;stroke-linejoin:round"
         inkscape:connector-curvature="0"
         d="m 0,0 4.99,0 0,0 z"
         transform="matrix(1,0,0,-1,165.42,251.63)"
         id="shape32" />
      <path
         style="fill:#bebebe"
         inkscape:connector-curvature="0"
         d="m 0,0 4.99,0 0,1.89 -4.99,0 z"
         transform="matrix(1,0,0,-1,201.38,251.63)"
         id="shape43" />
      <path
         style="fill:none;stroke:#000000;stroke-width:0.54681939;stroke-linecap:round;stroke-linejoin:round"
         inkscape:connector-curvature="0"
         d="m 0,0 4.99,0 0,1.89 -4.99,0 z"
         transform="matrix(1,0,0,-1,201.38,251.63)"
         id="shape44" />
      <path
         id="path4209"
         d="m 299.96892,258.00328 -223.308222,0"
         inkscape:connector-curvature="0"
         style="fill:none;stroke:#000000;stroke-width:0.54681939;stroke-linecap:round;stroke-linejoin:round" />
      <path
         id="path4211"
         d="m 265.45696,257.96969 0,7.2"
         inkscape:connector-curvature="0"
         style="fill:none;stroke:#000000;stroke-width:0.54681939;stroke-linecap:round;stroke-linejoin:round" />
      <path
         id="path4215"
         d="m 171.05696,257.96969 0,7.2"
         inkscape:connector-curvature="0"
         style="fill:none;stroke:#000000;stroke-width:0.54681939;stroke-linecap:round;stroke-linejoin:round" />
      <path
         id="path4219"
         d="m 76.64696,257.96969 0,7.2"
         inkscape:connector-curvature="0"
         style="fill:none;stroke:#000000;stroke-width:0.54681939;stroke-linecap:round;stroke-linejoin:round" />
      <path
         style="fill:#000000;stroke:#000000;stroke-width:0.72909254px;stroke-linecap:butt;stroke-linejoin:miter;stroke-opacity:1"
         d="m 300.9282,258.02958 -1.59146,1.26981 0,-2.58342 z"
         id="path4241"
         inkscape:connector-curvature="0"
         sodipodi:nodetypes="cccc" />
    </g>
  </g>
</svg>
