<?xml version="1.0" encoding="UTF-8" standalone="no"?>
<svg
   xmlns:dc="http://purl.org/dc/elements/1.1/"
   xmlns:cc="http://creativecommons.org/ns#"
   xmlns:rdf="http://www.w3.org/1999/02/22-rdf-syntax-ns#"
   xmlns:svg="http://www.w3.org/2000/svg"
   xmlns="http://www.w3.org/2000/svg"
   xmlns:sodipodi="http://sodipodi.sourceforge.net/DTD/sodipodi-0.dtd"
   xmlns:inkscape="http://www.inkscape.org/namespaces/inkscape"
   version="1.1"
   id="svg2"
   xml:space="preserve"
   width="483.78003"
   height="363.21201"
   viewBox="0 0 483.78003 363.21201"
   sodipodi:docname="collaborations_map.svg"
   inkscape:version="1.0.1 (0767f8302a, 2020-10-17)"><metadata
     id="metadata8"><rdf:RDF><cc:Work
         rdf:about=""><dc:format>image/svg+xml</dc:format><dc:type
           rdf:resource="http://purl.org/dc/dcmitype/StillImage" /><dc:title /></cc:Work></rdf:RDF></metadata><defs
     id="defs6"><clipPath
       clipPathUnits="userSpaceOnUse"
       id="clipPath162"><path
         d="m 245,167 h 26 v 24 h -26 z"
         id="path160" /></clipPath><clipPath
       clipPathUnits="userSpaceOnUse"
       id="clipPath172"><path
         d="M 0,0 H 363 V 273 H 0 Z"
         id="path170" /></clipPath><clipPath
       clipPathUnits="userSpaceOnUse"
       id="clipPath182"><path
         d="m 245,167 h 26 v 24 h -26 z"
         id="path180" /></clipPath><clipPath
       clipPathUnits="userSpaceOnUse"
       id="clipPath188"><path
         d="m 257.594,167.199 c -1.856,0.071 -2.84,0.793 -5.606,1.617 -2.761,0.821 -6.187,3.887 -6.187,8.446 0,5.797 4.699,11.527 10.496,12.797 2.91,0.636 4.711,0.027 7.789,-1.039 3.082,-1.067 6.633,-4.231 6.633,-8.786 0,-5.8 -4.699,-11.531 -10.496,-12.796 -0.907,-0.2 -1.789,-0.27 -2.629,-0.239 z"
         id="path186" /></clipPath><clipPath
       clipPathUnits="userSpaceOnUse"
       id="clipPath198"><path
         d="M 0,0 H 363 V 273 H 0 Z"
         id="path196" /></clipPath><clipPath
       clipPathUnits="userSpaceOnUse"
       id="clipPath208"><path
         d="m 245,167 h 26 v 24 h -26 z"
         id="path206" /></clipPath><clipPath
       clipPathUnits="userSpaceOnUse"
       id="clipPath218"><path
         d="M 0,0 H 363 V 273 H 0 Z"
         id="path216" /></clipPath><clipPath
       clipPathUnits="userSpaceOnUse"
       id="clipPath228"><path
         d="m 245,167 h 26 v 24 h -26 z"
         id="path226" /></clipPath><clipPath
       clipPathUnits="userSpaceOnUse"
       id="clipPath234"><path
         d="m 257.594,167.199 c -1.856,0.071 -2.84,0.793 -5.606,1.617 -2.761,0.821 -6.187,3.887 -6.187,8.446 0,5.797 4.699,11.527 10.496,12.797 2.91,0.636 4.711,0.027 7.789,-1.039 3.082,-1.067 6.633,-4.231 6.633,-8.786 0,-5.8 -4.699,-11.531 -10.496,-12.796 -0.907,-0.2 -1.789,-0.27 -2.629,-0.239 z"
         id="path232" /></clipPath><clipPath
       clipPathUnits="userSpaceOnUse"
       id="clipPath244"><path
         d="M 0,0 H 363 V 273 H 0 Z"
         id="path242" /></clipPath><linearGradient
       x1="533.21429"
       y1="211.64789"
       x2="512.14282"
       y2="168.79076"
       gradientUnits="userSpaceOnUse"
       gradientTransform="matrix(0.477773,0,0,0.477773,8.630011,87.798648)"
       spreadMethod="pad"
       id="linearGradient262"><stop
         style="stop-opacity:1;stop-color:#83e028"
         offset="0"
         id="stop258" /><stop
         style="stop-opacity:1;stop-color:#407110"
         offset="1"
         id="stop260" /></linearGradient><filter
       style="color-interpolation-filters:sRGB;"
       inkscape:label="Greyscale"
       id="filter1173"><feColorMatrix
         values="0.231712 0.703018 0.072 0.0498077 0 0.231712 0.703018 0.072 0.0498077 0 0.231712 0.703018 0.072 0.0498077 0 0 0 0 1 0 "
         id="feColorMatrix1171" /></filter><filter
       style="color-interpolation-filters:sRGB;"
       inkscape:label="Greyscale"
       id="filter1217"><feColorMatrix
         values="0 0 0 0 0 0 0 0 0 0 0 0 0 0 0 -0.231712 -0.703018 -0.072 0.950192 0 "
         id="feColorMatrix1215"
         result="fbSourceGraphic" /><feColorMatrix
         result="fbSourceGraphicAlpha"
         in="fbSourceGraphic"
         values="0 0 0 -1 0 0 0 0 -1 0 0 0 0 -1 0 0 0 0 1 0"
         id="feColorMatrix1219" /><feColorMatrix
         id="feColorMatrix1221"
         values="0 0 0 0 0 0 0 0 0 0 0 0 0 0 0 -0.231712 -0.703018 -0.072 0.950192 0 "
         in="fbSourceGraphic" /></filter><clipPath
       clipPathUnits="userSpaceOnUse"
       id="clipPath2164"><path
         d="M 0,0 H 397.30344 V 316.97919 H 0 Z"
         id="path2162" /></clipPath><clipPath
       clipPathUnits="userSpaceOnUse"
       id="clipPath2168"><path
         d="m 211,158 h 32 v 10 h -32 z"
         id="path2166" /></clipPath><clipPath
       clipPathUnits="userSpaceOnUse"
       id="clipPath2172"><path
         d="m 217.84,158.656 c -0.34,0.289 -0.688,0.606 -1.008,0.981 -0.184,0.218 0.707,0.129 1.117,-0.117 0.41,-0.25 0.832,-0.582 1.215,-0.965 0.117,-0.121 -0.019,-0.172 -0.25,-0.172 -0.344,0 -0.887,0.109 -1.074,0.273 m -2.004,1.985 c -1.664,1.675 -3.336,3.543 -3.809,4.996 -0.261,0.801 -0.019,1.523 0.981,1.523 0.816,0 1.726,-0.406 2.496,-0.887 -0.188,0.258 -0.363,0.493 -0.5,0.684 -0.219,0.293 0.883,0.184 1.117,-0.113 0.871,-1.114 2.969,-2.489 3.551,-2.489 0.531,0 -1.297,1.372 -1.281,2.211 0.023,1.102 2.574,0.426 3.441,-0.707 0.137,-0.175 0.031,-0.664 -0.094,-0.547 -0.394,0.387 -1.261,1.036 -2.019,1.036 -0.563,0 0.554,-1.004 1.109,-1.813 0.527,-0.777 0.094,-1.008 -0.34,-1.008 -1.082,0 -2.136,0.758 -2.851,1.293 0.215,-0.289 0.551,-0.66 0.91,-1.136 0.199,-0.262 -0.992,-0.168 -1.297,0.234 -0.098,0.129 -0.203,0.27 -0.316,0.422 -1.036,1.242 -2.594,2.082 -3.364,2.082 -0.425,0 -0.582,-0.297 -0.316,-0.852 0.641,-1.34 2.851,-3.886 4.051,-5.004 0.23,-0.214 0.07,-0.3 -0.223,-0.3 -0.394,0 -1.031,0.16 -1.246,0.375 m 14.133,1.078 c -0.336,0.289 -0.899,0.808 -1.219,1.179 -0.188,0.219 0.574,0.196 0.98,-0.046 0.411,-0.25 1.184,-0.848 1.567,-1.235 0.117,-0.121 -0.024,-0.172 -0.254,-0.172 -0.34,0 -0.887,0.114 -1.074,0.274 m -7.727,3.011 c -0.172,0.2 -0.082,0.704 0.094,0.528 1.105,-1.094 1.082,-1.004 2.547,-1.004 -0.235,0.25 -0.656,0.5 -1.367,1.402 -0.633,0.809 -0.219,1.457 0.683,1.457 0.496,0 1.242,-0.23 1.922,-0.711 -0.082,0.418 0.086,0.719 0.727,0.719 0.746,0 1.593,-0.441 2.297,-0.933 -0.086,0.535 0.187,0.933 0.972,0.933 0.606,0 1.313,-0.238 2.039,-0.867 -0.004,0.48 0.336,0.863 0.973,0.863 1.543,0 6.875,-1.933 8.73,-0.816 0.231,0.14 0.219,-0.586 -0.246,-0.879 -1.675,-1.043 -6.258,0.777 -7.996,0.984 -0.324,0.039 -0.445,-0.043 -0.367,-0.265 0.148,-0.426 0.727,-1.211 0.844,-1.481 0.113,-0.258 0.097,-1.14 -1.215,-1.14 -1.07,0 -2.051,0.496 -2.742,1.121 -0.657,0.562 -1.93,1.671 -2.715,1.671 -0.813,0 1.566,-2.453 1.695,-2.578 0.356,-0.332 -0.762,-0.25 -1.226,0.106 -0.188,0.144 -0.938,0.941 -1.403,1.719 -1.355,0.933 -2.699,1.152 -2.058,0.375 0.34,-0.414 0.914,-0.969 1.312,-1.411 0.555,-0.613 0.453,-1.015 -0.769,-1.015 -1.637,0 -1.809,0.14 -2.731,1.222 m 10.625,-0.617 c 0.793,0 -1.359,2.317 -2.332,2.317 -1.015,0 1.012,-2.317 2.332,-2.317"
         id="path2170" /></clipPath><clipPath
       clipPathUnits="userSpaceOnUse"
       id="clipPath2176"><path
         d="M 0,0 H 398 V 317 H 0 Z"
         id="path2174" /></clipPath><clipPath
       clipPathUnits="userSpaceOnUse"
       id="clipPath2180"><path
         d="m 205.977,147.605 h 42.109 v 59.551 h -42.109 z"
         id="path2178" /></clipPath><clipPath
       clipPathUnits="userSpaceOnUse"
       id="clipPath2184"><path
         d="M 0,0 H 398 V 317 H 0 Z"
         id="path2182" /></clipPath><clipPath
       clipPathUnits="userSpaceOnUse"
       id="clipPath2164-3"><path
         d="M 0,0 H 397.30344 V 316.97919 H 0 Z"
         id="path2162-2" /></clipPath><clipPath
       clipPathUnits="userSpaceOnUse"
       id="clipPath2168-7"><path
         d="m 211,158 h 32 v 10 h -32 z"
         id="path2166-2" /></clipPath><clipPath
       clipPathUnits="userSpaceOnUse"
       id="clipPath2172-4"><path
         d="m 217.84,158.656 c -0.34,0.289 -0.688,0.606 -1.008,0.981 -0.184,0.218 0.707,0.129 1.117,-0.117 0.41,-0.25 0.832,-0.582 1.215,-0.965 0.117,-0.121 -0.019,-0.172 -0.25,-0.172 -0.344,0 -0.887,0.109 -1.074,0.273 m -2.004,1.985 c -1.664,1.675 -3.336,3.543 -3.809,4.996 -0.261,0.801 -0.019,1.523 0.981,1.523 0.816,0 1.726,-0.406 2.496,-0.887 -0.188,0.258 -0.363,0.493 -0.5,0.684 -0.219,0.293 0.883,0.184 1.117,-0.113 0.871,-1.114 2.969,-2.489 3.551,-2.489 0.531,0 -1.297,1.372 -1.281,2.211 0.023,1.102 2.574,0.426 3.441,-0.707 0.137,-0.175 0.031,-0.664 -0.094,-0.547 -0.394,0.387 -1.261,1.036 -2.019,1.036 -0.563,0 0.554,-1.004 1.109,-1.813 0.527,-0.777 0.094,-1.008 -0.34,-1.008 -1.082,0 -2.136,0.758 -2.851,1.293 0.215,-0.289 0.551,-0.66 0.91,-1.136 0.199,-0.262 -0.992,-0.168 -1.297,0.234 -0.098,0.129 -0.203,0.27 -0.316,0.422 -1.036,1.242 -2.594,2.082 -3.364,2.082 -0.425,0 -0.582,-0.297 -0.316,-0.852 0.641,-1.34 2.851,-3.886 4.051,-5.004 0.23,-0.214 0.07,-0.3 -0.223,-0.3 -0.394,0 -1.031,0.16 -1.246,0.375 m 14.133,1.078 c -0.336,0.289 -0.899,0.808 -1.219,1.179 -0.188,0.219 0.574,0.196 0.98,-0.046 0.411,-0.25 1.184,-0.848 1.567,-1.235 0.117,-0.121 -0.024,-0.172 -0.254,-0.172 -0.34,0 -0.887,0.114 -1.074,0.274 m -7.727,3.011 c -0.172,0.2 -0.082,0.704 0.094,0.528 1.105,-1.094 1.082,-1.004 2.547,-1.004 -0.235,0.25 -0.656,0.5 -1.367,1.402 -0.633,0.809 -0.219,1.457 0.683,1.457 0.496,0 1.242,-0.23 1.922,-0.711 -0.082,0.418 0.086,0.719 0.727,0.719 0.746,0 1.593,-0.441 2.297,-0.933 -0.086,0.535 0.187,0.933 0.972,0.933 0.606,0 1.313,-0.238 2.039,-0.867 -0.004,0.48 0.336,0.863 0.973,0.863 1.543,0 6.875,-1.933 8.73,-0.816 0.231,0.14 0.219,-0.586 -0.246,-0.879 -1.675,-1.043 -6.258,0.777 -7.996,0.984 -0.324,0.039 -0.445,-0.043 -0.367,-0.265 0.148,-0.426 0.727,-1.211 0.844,-1.481 0.113,-0.258 0.097,-1.14 -1.215,-1.14 -1.07,0 -2.051,0.496 -2.742,1.121 -0.657,0.562 -1.93,1.671 -2.715,1.671 -0.813,0 1.566,-2.453 1.695,-2.578 0.356,-0.332 -0.762,-0.25 -1.226,0.106 -0.188,0.144 -0.938,0.941 -1.403,1.719 -1.355,0.933 -2.699,1.152 -2.058,0.375 0.34,-0.414 0.914,-0.969 1.312,-1.411 0.555,-0.613 0.453,-1.015 -0.769,-1.015 -1.637,0 -1.809,0.14 -2.731,1.222 m 10.625,-0.617 c 0.793,0 -1.359,2.317 -2.332,2.317 -1.015,0 1.012,-2.317 2.332,-2.317"
         id="path2170-5" /></clipPath><clipPath
       clipPathUnits="userSpaceOnUse"
       id="clipPath2176-4"><path
         d="M 0,0 H 398 V 317 H 0 Z"
         id="path2174-1" /></clipPath><clipPath
       clipPathUnits="userSpaceOnUse"
       id="clipPath2180-6"><path
         d="m 205.977,147.605 h 42.109 v 59.551 h -42.109 z"
         id="path2178-8" /></clipPath><clipPath
       clipPathUnits="userSpaceOnUse"
       id="clipPath2184-0"><path
         d="M 0,0 H 398 V 317 H 0 Z"
         id="path2182-4" /></clipPath><clipPath
       id="clipPath7195"><rect
         style="fill:#008000;fill-opacity:1;stroke:#ffffff;stroke-width:2.35228395;stroke-linejoin:miter;stroke-miterlimit:4;stroke-opacity:1;stroke-dasharray:none"
         id="rect7197"
         y="163.35237"
         x="1594.606"
         height="6873.1284"
         width="7331.4937" /></clipPath><clipPath
       id="clipPath7195-6"><rect
         style="fill:#008000;fill-opacity:1;stroke:#ffffff;stroke-width:2.35228395;stroke-linejoin:miter;stroke-miterlimit:4;stroke-opacity:1;stroke-dasharray:none"
         id="rect7197-2"
         y="163.35237"
         x="1594.606"
         height="6873.1284"
         width="7331.4937" /></clipPath></defs><sodipodi:namedview
     pagecolor="#ffffff"
     bordercolor="#666666"
     borderopacity="1"
     objecttolerance="10"
     gridtolerance="10"
     guidetolerance="10"
     inkscape:pageopacity="0"
     inkscape:pageshadow="2"
     inkscape:window-width="1920"
     inkscape:window-height="1052"
     id="namedview4"
     showgrid="false"
     inkscape:zoom="1.3290519"
     inkscape:cx="242.49785"
     inkscape:cy="110.24359"
     inkscape:window-x="1920"
     inkscape:window-y="0"
     inkscape:window-maximized="1"
     inkscape:current-layer="g10"
     inkscape:document-rotation="0"
     borderlayer="true" /><g
     inkscape:groupmode="layer"
     id="layer2"
     inkscape:label="map"
     style="display:inline"><path
       d="m 156.91666,313.49827 c -0.68468,-0.44152 -2.29225,-2.84 -3.57614,-5.32979 -1.55611,-3.02508 -3.4525,-4.91481 -5.70907,-5.68665 -3.77035,-1.29303 -4.30149,-3.48485 -1.51047,-6.23108 1.52043,-1.49387 1.61754,-2.22005 0.52203,-3.94547 -1.07641,-1.69221 -1.01832,-2.57028 0.28799,-4.40525 1.43992,-2.02336 1.42996,-2.59351 -0.0739,-4.8534 -1.547,-2.32131 -1.5304,-2.73295 0.1585,-4.39612 1.02414,-1.00504 1.62084,-2.74208 1.3229,-3.85417 -0.29546,-1.11211 -0.0523,-2.31799 0.54444,-2.6815 0.59338,-0.35936 0.93698,-1.99016 0.76186,-3.62428 -0.1942,-1.81173 0.67391,-4.20773 2.23002,-6.15308 1.46233,-1.82832 2.04245,-3.35538 1.35858,-3.57864 -0.65812,-0.21412 -1.1926,-1.33285 -1.1926,-2.48645 0,-1.56607 -0.78842,-2.09805 -3.11222,-2.09805 -1.71546,0 -3.59855,0.47637 -4.18863,1.06064 -1.24489,1.22165 -6.04352,0.26226 -6.04352,-1.20671 0,-0.54443 -1.25071,-0.68055 -2.77777,-0.30127 -2.38271,0.58676 -2.78191,0.31455 -2.78191,-1.92542 0,-1.43328 -0.79424,-3.72471 -1.76359,-5.08662 -1.39095,-1.9553 -1.48142,-2.81428 -0.42741,-4.05917 0.73199,-0.87141 1.73122,-1.33867 2.21756,-1.04404 1.4424,0.87557 4.42184,-0.67391 4.42184,-2.29807 0,-2.0939 5.20945,-3.19356 7.24857,-1.53038 1.04074,0.85316 3.68322,1.16438 7.10666,0.83988 2.99521,-0.28218 6.36968,0.0191 7.49838,0.66809 1.12787,0.65149 6.80788,1.29967 12.61736,1.43909 12.97424,0.31123 17.88242,0.90131 18.77376,2.25658 1.5752,2.39516 7.83202,4.44093 13.51202,4.4152 9.33336,-0.0389 9.96576,0.0847 9.96576,1.96776 0,1.05981 0.61913,1.52374 1.55942,1.1702 0.85566,-0.32368 1.85406,-0.29795 2.21758,0.0615 1.18346,1.16107 7.34235,1.39759 7.34235,0.28218 0,-0.5959 0.49961,-1.08223 1.1121,-1.08223 0.60999,0 1.1121,1.38764 1.1121,3.08567 0,3.59524 -5.25842,7.5407 -13.12611,9.84956 -2.62922,0.77432 -5.09658,2.23997 -5.47586,3.25745 -0.3826,1.02164 -2.70389,4.67829 -5.15798,8.13411 l -4.46086,6.27673 1.82832,3.77616 c 1.81258,3.73799 1.79928,3.80936 -1.45568,7.23612 -1.80841,1.90303 -3.28733,4.3928 -3.28733,5.53395 0,1.31626 -0.78097,2.07149 -2.14288,2.07149 -1.17683,0 -3.65001,1.79596 -5.48829,3.99444 -3.02758,3.61433 -3.86082,3.99028 -8.70095,3.93219 -2.94043,-0.0324 -8.27353,0.46061 -11.84636,1.09882 -5.1057,0.91126 -6.74896,1.70882 -7.68262,3.72554 -1.27145,2.74208 -1.79679,2.98524 -3.73799,1.72458 z"
       style="fill:#aaa5a0;fill-opacity:1;fill-rule:nonzero;stroke:none;stroke-width:1.14469"
       id="path2186" /><path
       d="m 136.38513,303.72672 c -2.69395,-0.41164 -2.84582,-0.7685 -2.5346,-5.90326 0.18093,-3.00516 0.57016,-5.84516 0.86561,-6.31242 0.75192,-1.19924 -3.07985,-4.21104 -4.68824,-3.68238 -1.80592,0.59008 -1.69554,-3.11886 0.16847,-5.79039 2.65576,-3.80604 5.19036,-17.40189 4.00107,-21.47765 -1.41336,-4.8559 -1.39427,-4.94968 1.16356,-5.60782 1.27725,-0.32781 2.22752,-0.0324 2.23001,0.69383 0.003,0.69381 1.75447,1.35195 3.89069,1.45817 2.13955,0.10707 3.88738,-0.26225 3.88738,-0.81996 0,-0.55772 1.19592,-1.01417 2.65825,-1.01417 3.63092,0 4.94387,4.83016 2.14287,7.87433 -1.16107,1.26066 -1.84162,3.42676 -1.65072,5.23186 0.18176,1.69554 -0.1552,3.37862 -0.74859,3.73798 -0.59672,0.36351 -0.81001,1.66982 -0.48303,2.90807 0.4407,1.65985 -0.0324,2.41508 -1.79928,2.86905 l -2.4018,0.61663 2.15532,3.59192 c 1.94202,3.23837 1.98767,3.81849 0.48634,5.92568 -1.27394,1.79264 -1.3644,2.69393 -0.3826,3.86164 0.98928,1.16688 0.85316,2.16528 -0.58012,4.31811 -1.02414,1.5395 -1.57852,3.53382 -1.22828,4.4318 0.5245,1.34862 -2.62008,4.3015 -3.93303,3.68902 -0.1942,-0.088 -1.63993,-0.36018 -3.21928,-0.60004 z"
       style="fill:#aaa5a0;fill-opacity:1;fill-rule:nonzero;stroke:none;stroke-width:1.14469"
       id="path2188" /><path
       d="m 318.56715,305.5841 c -0.76188,-1.20256 -2.39269,-2.19432 -3.62097,-2.20428 -3.16783,-0.0257 -12.54681,-5.73811 -11.99824,-7.30418 0.24899,-0.71954 1.12123,-1.05318 1.93871,-0.74528 0.81665,0.30791 1.80177,0.0523 2.19101,-0.56766 0.483,-0.76436 1.498,-0.771 3.18359,-0.0191 1.59512,0.71623 4.7397,0.75855 8.85365,0.12613 3.51141,-0.5411 6.36387,-0.69049 6.34147,-0.3303 -0.0199,0.36018 -0.72619,1.87729 -1.56608,3.37116 -1.00503,1.78682 -1.18348,3.35206 -0.52203,4.5679 2.35368,4.32475 -2.16859,7.25272 -4.80111,3.10559 z"
       style="fill:#aaa5a0;fill-opacity:1;fill-rule:nonzero;stroke:none;stroke-width:1.14469"
       id="path2190" /><path
       d="m 328.53289,295.08055 c -0.82079,-0.80668 1.15361,-6.16303 2.59353,-7.03776 0.60252,-0.36684 0.078,-3.43341 -1.24821,-7.30419 -1.75364,-5.1057 -2.89811,-6.82116 -4.88246,-7.31081 -1.54284,-0.37928 -2.87237,-1.747 -3.28734,-3.38112 -0.45064,-1.76359 -1.4814,-2.7454 -2.879,-2.7454 -1.19594,0 -2.95952,-1.17683 -3.91891,-2.61675 -1.21253,-1.81837 -3.20933,-2.83669 -6.54895,-3.32634 -4.14632,-0.6125 -5.97133,-1.88975 -13.2946,-9.29103 -4.66584,-4.71647 -8.48764,-9.24869 -8.49428,-10.07281 0,-0.81996 -0.49546,-3.23836 -1.09882,-5.37128 -0.87558,-3.09646 -2.13623,-4.37703 -6.26676,-6.3481 l -5.16714,-2.47318 -4.22764,3.34212 c -4.63595,3.66661 -5.61195,4.03592 -5.19034,1.97438 0.15269,-0.7519 -0.66477,-1.36772 -1.81589,-1.37104 -1.15027,-0.003 -2.83586,-1.11209 -3.75043,-2.46404 -1.21584,-1.79928 -1.29053,-2.45409 -0.27885,-2.45409 1.00172,0 0.91457,-0.68719 -0.31455,-2.53543 -1.54947,-2.3271 -1.51379,-2.64497 0.45397,-3.85417 1.6889,-1.03741 1.8997,-1.76028 1.00504,-3.40768 -1.67645,-3.07653 -1.54282,-3.23837 3.30975,-4.00356 4.01352,-0.62909 4.97956,-1.46815 4.57787,-3.97452 -0.28218,-1.7636 2.04245,-0.68385 4.11726,1.91629 2.57692,3.22179 3.52387,3.43923 3.572,0.81998 0.0456,-2.5902 2.92797,-6.29582 3.52469,-4.53555 0.68387,2.01672 5.33228,2.38936 5.33228,0.42492 0,-0.89797 0.50294,-1.63412 1.1121,-1.63412 0.61249,0 1.1121,-0.79092 1.1121,-1.75695 0,-1.19344 0.60004,-1.53038 1.85738,-1.05733 1.02164,0.38592 2.21424,0.13611 2.64912,-0.55771 1.3287,-2.11632 8.10422,-2.35948 9.60888,-0.34358 0.73282,0.9793 2.93046,2.10469 4.88826,2.49641 3.08318,0.61913 3.61184,1.23244 3.96207,4.57455 0.36268,3.49813 0.0648,3.98116 -3.21928,5.17708 -6.08501,2.21424 -6.617,2.80764 -5.37544,6.01364 0.74944,1.9387 0.7428,3.10641 -0.0224,3.56952 -0.67389,0.40832 -0.80751,2.09473 -0.33031,4.13966 0.44402,1.89722 0.75192,4.3123 0.69051,5.36547 -0.0623,1.05401 0.35271,1.91299 0.92703,1.91299 0.57346,0 1.04404,-0.4963 1.04404,-1.10215 0,-0.60667 1.76028,0.007 3.91558,1.36772 3.01846,1.90635 4.30566,3.77368 5.62524,8.17311 2.32463,7.74156 8.50675,12.80825 14.32287,11.73598 3.94463,-0.7295 4.99532,0.22326 2.71303,2.46655 -0.8847,0.86893 0.71954,2.28229 5.83853,5.14221 10.23132,5.71487 15.18847,10.02054 13.48629,11.71275 -1.06977,1.05981 -1.50382,0.94944 -2.08145,-0.52203 -0.39837,-1.02412 -2.24661,-2.63916 -4.10731,-3.58278 -3.23837,-1.6499 -3.46825,-1.6142 -5.45593,0.8598 -4.31809,5.37128 -4.4708,6.20785 -1.47479,8.13992 3.35872,2.16278 3.65335,5.51153 0.5735,6.47425 -1.2225,0.38259 -2.2242,1.41668 -2.2242,2.29889 0,1.86734 -3.21598,6.99876 -4.38948,6.99876 -0.43738,0 -1.09883,-0.29794 -1.46815,-0.66145 z"
       style="fill:#aaa5a0;fill-opacity:1;fill-rule:nonzero;stroke:none;stroke-width:1.14469"
       id="path2192" /><path
       d="m 271.5203,284.35626 c -1.85737,-1.33536 -1.99679,-2.02586 -0.95939,-4.72975 0.89466,-2.33376 0.8623,-4.32807 -0.1228,-7.6154 -1.32621,-4.41521 -1.30629,-4.46417 2.20098,-6.11075 3.34542,-1.5694 3.62096,-1.5337 5.0252,0.68054 0.81664,1.28721 1.65653,3.77368 1.86401,5.52481 0.47305,4.00357 -1.61421,11.87127 -2.93711,11.06789 -0.54774,-0.33445 -1.42001,0.14856 -1.94534,1.06978 -0.83324,1.4615 -1.2283,1.47478 -3.12551,0.11293 z"
       style="fill:#aaa5a0;fill-opacity:1;fill-rule:nonzero;stroke:none;stroke-width:1.14469"
       id="path2194" /><path
       d="m 273.49138,258.27832 c -0.0648,-0.75192 -0.42409,-2.9371 -0.79673,-4.8559 -0.55771,-2.84996 -0.24068,-3.7189 1.74036,-4.76211 2.474,-1.30049 4.30233,-0.0847 4.34466,2.89147 0.068,4.6816 -4.91814,11.01892 -5.28829,6.72654 z"
       style="fill:#aaa5a0;fill-opacity:1;fill-rule:nonzero;stroke:none;stroke-width:1.14469"
       id="path2196" /><path
       d="m 217.89298,249.28275 c -1.31625,-2.15283 -7.07013,-3.51805 -13.50538,-3.20019 -6.20204,0.3079 -12.98419,-1.99681 -11.73267,-3.9878 0.36019,-0.57348 -0.0839,-1.04653 -0.98512,-1.04653 -1.42664,0 -1.44656,-0.54195 -0.13943,-4.10149 0.82994,-2.25575 1.94784,-7.79302 2.48647,-12.30615 0.87473,-7.32327 0.56684,-9.90351 1.01167,-12.09535 0.53448,-2.63252 0.16516,-3.3587 -2.25656,-4.44424 -3.23256,-1.44989 -6.6917,-5.95886 -5.73479,-7.47929 0.34359,-0.54444 -0.44152,-1.72127 -1.74119,-2.61593 -1.29966,-0.8955 -2.02916,-2.15947 -1.62084,-2.81096 0.44068,-0.70046 -0.20417,-1.18015 -1.5918,-1.18015 -1.28389,0 -4.33138,-1.00172 -6.77552,-2.23084 -2.44164,-1.22497 -4.94386,-1.92211 -5.55968,-1.54616 -0.69713,0.42492 -0.85648,-0.34359 -0.42492,-2.04244 0.50543,-1.97772 0.13943,-3.02425 -1.33618,-3.83841 -2.6707,-1.47146 -1.31543,-2.65825 3.20685,-2.80432 2.00343,-0.0648 4.26,-0.85565 5.01856,-1.75695 1.19591,-1.42996 1.64325,-1.30298 3.45912,0.97599 1.24157,1.56274 2.62588,2.29225 3.42344,1.80592 0.73532,-0.44734 2.96948,-0.81416 4.96296,-0.81416 h 3.62429 l -0.7685,-4.53887 c -0.4241,-2.49558 -1.16356,-5.45925 -1.64326,-6.58048 -0.77516,-1.81256 -0.60585,-1.8997 1.5171,-0.78178 1.31626,0.69049 2.39268,1.6698 2.39268,2.17522 0,1.18016 8.20216,2.48066 10.40644,1.65074 0.92704,-0.35024 1.41005,-1.33951 1.07641,-2.19516 -0.41164,-1.05982 1.00504,-2.26238 4.41189,-3.74463 4.96379,-2.15864 7.45688,-5.82857 7.45688,-10.97992 0,-1.13451 1.31959,-2.36943 3.22842,-3.02508 2.81096,-0.96272 3.30725,-0.82329 3.816,1.08305 0.43405,1.64408 1.16022,2.0134 2.88233,1.47562 1.54947,-0.48386 2.30471,-0.23736 2.30471,0.7519 0,1.94784 3.6442,4.95632 5.33309,4.40194 0.73532,-0.24318 1.40009,0.0947 1.47479,0.74609 0.078,0.65149 0.21412,1.79928 0.30458,2.5512 0.0912,0.75191 1.08636,1.29053 2.21092,1.19592 1.12538,-0.0937 3.48819,1.09301 5.2551,2.64249 1.76358,1.54615 4.46749,2.94706 6.0045,3.10558 1.5362,0.16266 5.5074,1.5561 8.8246,3.10309 3.31971,1.54283 6.56472,2.80681 7.21622,2.80681 1.53952,0 1.49801,1.74783 -0.11707,4.71397 -0.71291,1.30963 -1.87064,4.60028 -2.5736,7.31082 -0.75605,2.9172 -1.92957,4.94969 -2.87237,4.97956 -0.87888,0.0257 -1.49138,0.58344 -1.36191,1.23825 0.12613,0.65149 -0.74859,2.05823 -1.94865,3.12467 -1.19594,1.07061 -2.17856,2.55202 -2.17856,3.29729 0,0.74279 -0.78098,1.64989 -1.73704,2.01009 -0.95691,0.36019 -1.41336,1.17351 -1.01832,1.80592 0.39918,0.6324 0.0556,1.9802 -0.76188,2.9952 -1.2673,1.57603 -1.00835,1.54615 1.75696,-0.19088 3.13877,-1.9744 3.29065,-1.97772 4.73057,-0.0391 0.93948,1.26396 1.09883,2.3794 0.42741,3.04084 -0.67057,0.65813 -0.46641,2.1686 0.55772,4.11725 1.49802,2.85247 1.44904,3.167 -0.68386,4.28907 -1.83166,0.96604 -2.0358,1.53038 -0.99508,2.762 0.71954,0.85565 1.03076,2.26569 0.69049,3.13794 -0.89216,2.28562 3.38444,7.24608 5.54308,6.4286 1.48475,-0.56102 1.55943,-0.29794 0.4772,1.69223 -0.70709,1.29385 -1.74781,2.35367 -2.31465,2.35367 -0.57099,0 -2.61676,1.5171 -4.54551,3.3753 -2.06485,1.98684 -4.25337,3.14791 -5.31983,2.82674 -0.99508,-0.29795 -3.43672,-1.07974 -5.42356,-1.73455 -9.4761,-3.11223 -9.7782,-3.128 -14.27473,-0.65813 -2.85909,1.56938 -4.47661,3.29397 -4.72311,5.03184 -0.20416,1.45569 -0.76518,3.04997 -1.24821,3.54628 -1.44572,1.48141 -6.71409,1.63744 -7.57971,0.22076 z"
       style="fill:#aaa5a0;fill-opacity:1;fill-rule:nonzero;stroke:none;stroke-width:1.14469"
       id="path2198" /><path
       d="m 308.81883,204.57962 c -4.54218,-0.96271 -6.39956,-1.92875 -7.21953,-3.75707 -0.70708,-1.57852 -1.70548,-2.2242 -2.77859,-1.79928 -0.9237,0.36351 -2.79104,0.79424 -4.15626,0.95276 -1.36108,0.16265 -3.18691,0.87224 -4.05252,1.57933 -1.21834,0.99842 -1.93871,0.92704 -3.206,-0.32449 -1.05319,-1.03409 -2.01674,-1.23161 -2.71304,-0.54775 -1.76111,1.73123 -4.78203,-0.13942 -4.78203,-2.9562 0,-2.81096 0.73281,-3.1645 3.28069,-1.57934 0.88803,0.55106 2.13955,0.67472 2.78191,0.27221 0.63821,-0.40168 2.41508,-0.80669 3.94215,-0.90379 1.52956,-0.0947 4.97624,-0.79506 7.6569,-1.55362 3.67326,-1.04072 5.37543,-1.07559 6.89918,-0.14191 2.66489,1.63992 3.54294,0.0357 2.06485,-3.78364 -0.98595,-2.55451 -0.84984,-3.30395 0.82661,-4.48659 1.10546,-0.78178 2.90474,-2.15946 3.99359,-3.06076 1.43661,-1.18929 2.54871,-1.34198 4.04009,-0.5577 1.60094,0.8432 2.70307,0.49629 4.9696,-1.56857 2.75203,-2.513 3.1479,-2.57443 7.21288,-1.16438 2.36695,0.8208 5.21027,1.41336 6.31906,1.31959 1.44573,-0.12613 2.2881,0.91125 2.96616,3.65084 1.57186,6.33398 1.51045,6.93402 -0.8042,7.5822 -1.22248,0.34026 -2.27235,1.23908 -2.33376,1.99098 -0.0623,0.75192 -0.18839,2.58024 -0.27886,4.06167 -0.23072,3.71557 -3.61848,5.34305 -15.73289,7.56063 -1.53039,0.27885 -5.53396,-0.0747 -8.89599,-0.78512 z"
       style="fill:#aaa5a0;fill-opacity:1;fill-rule:nonzero;stroke:none;stroke-width:1.14469"
       id="path2202" /><path
       d="m 281.50929,193.95326 c -1.79927,-1.16772 -3.894,-1.8939 -4.6592,-1.61172 -0.76187,0.27885 -1.38764,0.0813 -1.38764,-0.4407 0,-1.06313 -4.46666,-0.84321 -9.29433,0.46062 -3.13796,0.84569 -3.17032,0.81 -2.36612,-2.84666 0.44733,-2.03581 1.7279,-5.48165 2.84249,-7.65441 l 2.03332,-3.95126 -6.89253,-2.66822 c -5.92983,-2.29225 -6.89254,-3.05413 -6.89254,-5.44348 0,-1.53038 -0.61581,-3.51058 -1.3644,-4.40193 -1.02496,-1.21584 -1.04736,-1.93621 -0.0947,-2.87237 0.95358,-0.93699 0.79506,-2.29558 -0.64154,-5.4302 -1.44905,-3.16119 -1.64989,-4.8725 -0.81664,-7.02865 0.60584,-1.56608 0.84238,-3.82265 0.52783,-5.01193 -0.43073,-1.6142 0.10373,-2.33457 2.10469,-2.82673 3.41016,-0.8432 6.08751,-5.94891 3.611,-6.8859 -2.10717,-0.79422 -2.16526,-2.58105 -0.0813,-2.58105 1.98435,0 3.28152,-5.51072 2.31217,-9.8421 -0.70709,-3.17032 -0.59672,-3.28402 3.24832,-3.28402 2.1877,0 3.85419,0.36932 3.70231,0.82329 -0.31787,0.93698 0.64817,1.36523 3.07985,1.36523 1.23161,0 1.50383,-0.71706 1.01085,-2.65826 -0.60253,-2.35699 -0.38592,-2.58438 1.92294,-1.99763 1.43245,0.36351 3.10226,1.26481 3.71474,2.00013 0.61332,0.73946 2.36364,1.65985 3.89402,2.0524 2.5346,0.64486 2.58688,0.5934 0.60916,-0.6158 -2.78772,-1.69887 -7.9233,-7.70919 -7.55979,-8.84702 0.15188,-0.47969 -0.34691,-0.88553 -1.11209,-0.90461 -0.77516,-0.0199 -0.53199,-0.52535 0.54774,-1.14447 1.81587,-1.04073 1.82168,-1.28722 0.0937,-3.87742 l -1.84076,-2.76863 4.35046,0.76188 c 5.33559,0.93698 7.19712,2.38271 4.90155,3.80936 -1.49471,0.92702 -0.78429,1.5337 1.39759,1.1926 0.45977,-0.0706 0.83241,0.27885 0.83241,0.77847 0,0.50211 1.75447,0.85233 3.89403,0.78096 3.93217,-0.12616 5.23266,1.15774 2.29225,2.26653 -0.87889,0.33031 -1.37188,1.17683 -1.09635,1.87977 0.55772,1.42665 6.03026,2.08478 6.03026,0.7237 0,-0.96022 8.31253,-5.46256 10.08857,-5.46256 0.61912,0 2.17856,0.96602 3.46909,2.14867 1.29054,1.18347 2.79436,1.8773 3.3388,1.54698 3.45,-2.09805 7.25271,8.02373 4.77871,12.72442 -1.41004,2.68399 -1.36772,3.18692 0.38923,4.75216 1.07974,0.96271 2.53542,4.10149 3.23505,6.97056 2.75287,11.33013 2.77196,12.05964 0.34691,14.44568 -1.26066,1.24157 -3.12135,2.25657 -4.13303,2.25657 -1.01168,0 -5.05757,1.7694 -8.98975,3.93551 -6.578,3.61764 -7.09338,4.1654 -6.42861,6.83693 0.39505,1.59512 3.31307,5.52067 6.48669,8.72086 l 5.76384,5.82277 -4.22681,3.52385 c -3.87077,3.22509 -4.13053,3.78612 -3.05745,6.55808 1.56276,4.04257 1.50716,4.20773 -0.90462,2.72631 -1.58848,-0.97599 -3.21264,-0.94944 -6.9473,0.10706 -2.68066,0.76187 -6.12735,1.46232 -7.6569,1.55611 -1.52706,0.0937 -3.31058,0.50543 -3.95874,0.91457 -0.6515,0.40832 -2.65162,-0.21412 -4.44758,-1.3843 z"
       style="fill:#aaa5a0;fill-opacity:1;fill-rule:nonzero;stroke:none;stroke-width:1.14469"
       id="path2204" /><path
       d="m 247.66326,149.8568 c -1.52624,-0.65813 -3.37781,-1.75696 -4.1073,-2.44414 -0.72951,-0.68468 -2.72963,-1.06064 -4.44759,-0.83656 l -3.11885,0.41164 3.19356,-1.48142 3.19604,-1.48141 -6.6975,-1.31627 2.65492,-5.1613 c 1.46234,-2.83668 2.65495,-5.81281 2.65495,-6.61369 0,-0.80087 0.53197,-1.45568 1.18015,-1.45568 0.68385,0 0.9569,1.37767 0.65149,3.29397 -0.69381,4.32474 2.8176,6.60704 5.91323,3.85168 1.65652,-1.4756 1.78682,-2.24411 0.74277,-4.45503 -0.69381,-1.47147 -1.63412,-2.67735 -2.09472,-2.68067 -1.79597,-0.0199 -0.77432,-5.34555 1.11209,-5.80948 9.62548,-2.36363 14.95195,2.43749 8.89598,8.02041 -2.32463,2.14618 -2.36695,2.40513 -0.59672,3.68902 1.68309,1.22248 1.71878,1.64076 0.30209,3.6276 -0.87889,1.23576 -2.87236,2.55784 -4.42848,2.94375 -2.37691,0.58676 -2.64912,1.03409 -1.69885,2.77858 0.62244,1.14447 0.75854,3.0309 0.30125,4.19778 -0.70377,1.8026 -1.24156,1.94202 -3.60851,0.92122 z"
       style="fill:#aaa5a0;fill-opacity:1;fill-rule:nonzero;stroke:none;stroke-width:1.14469"
       id="path2210" /><path
       d="m 163.79924,159.28393 c 5.84185,-7.66023 7.52742,-8.98313 11.46958,-9.00221 3.71474,-0.0199 5.53726,-1.3976 7.98471,-6.03689 0.99509,-1.88641 0.95608,-1.94865 -0.29461,-0.45064 -0.8009,0.95359 -2.62008,2.34703 -4.0459,3.09313 -2.1852,1.14447 -2.80432,1.0731 -3.94878,-0.46725 -0.74611,-1.00172 -2.08147,-1.70217 -2.96616,-1.55279 -0.88554,0.14939 -2.4931,-0.1104 -3.56951,-0.57016 -1.15443,-0.49629 -2.64248,-0.28549 -3.61516,0.50543 -0.91043,0.74277 -1.69223,1.16688 -1.73704,0.94363 -0.98263,-4.84346 -0.89217,-5.05094 2.61593,-6.0236 2.4541,-0.68055 4.19528,-2.19516 5.52399,-4.79782 1.14115,-2.23748 1.48473,-3.95542 0.8266,-4.17285 -0.61248,-0.20086 -0.82992,-0.81666 -0.48633,-1.36773 0.3469,-0.54775 -0.16847,-0.9984 -1.14447,-0.9984 -1.42581,0 -1.53951,-0.42492 -0.58012,-2.18851 1.28389,-2.36363 7.08675,-3.08317 8.37064,-1.04073 0.49629,0.7876 1.20588,0.75191 2.25988,-0.11038 1.30299,-1.06313 1.28391,-1.50383 -0.13611,-2.90142 -1.02496,-1.00836 -1.30049,-2.13623 -0.71041,-2.90142 1.62416,-2.10386 0.976,-7.81292 -0.89133,-7.81292 -3.51143,0 -4.21106,-5.15468 -1.10879,-8.20548 2.22088,-2.18436 2.22088,-2.18436 -0.55771,-2.18436 -1.53038,0 -2.77777,0.43737 -2.77777,0.97516 0,1.61172 -3.51473,2.42836 -5.05425,1.17102 -1.06728,-0.87225 -1.52706,-0.688 -1.80259,0.72287 -0.35355,1.79596 -0.47389,1.79596 -2.30553,-0.007 -1.83746,-1.80924 -1.825,-2.11382 0.26972,-6.153069 1.41668,-2.729633 1.79264,-4.499862 1.05317,-4.94719 -0.6324,-0.382597 -0.81996,-1.715456 -0.41828,-2.960344 0.5544,-1.717951 0.33115,-2.110505 -0.93035,-1.633297 -0.91374,0.343592 -2.22337,0.07385 -2.90806,-0.600036 -0.9237,-0.907939 -1.2673,-0.813328 -1.32539,0.360189 -0.0489,0.959396 -0.43156,0.722865 -0.96936,-0.603352 -0.58675,-1.439097 -0.16265,-3.682388 1.23827,-6.561396 l 2.12626,-4.377034 -2.71966,3.167826 c -1.75032,2.039135 -3.34875,2.927149 -4.49323,2.493104 -2.3794,-0.897981 -2.26652,-2.904741 0.16848,-3.011802 1.06977,-0.04901 1.34531,-0.327826 0.60916,-0.622444 -0.98844,-0.395882 -0.84569,-1.576031 0.55772,-4.561278 1.04072,-2.214241 2.39267,-4.389476 3.00267,-4.830993 0.62825,-0.453969 0.26557,-0.810013 -0.83324,-0.819969 -2.90143,-0.02572 -2.6815,-6.205363 0.25561,-7.122426 1.2092,-0.375956 2.10717,-1.024124 1.9968,-1.439088 -0.1128,-0.414963 0.39588,-2.477336 1.13201,-4.581191 l 1.33536,-3.828455 7.22948,-0.103733 c 8.44864,-0.117013 9.18728,1.112095 3.31971,5.514031 -2.15283,1.615026 -3.63425,3.38194 -3.29065,3.926372 0.34357,0.544432 -0.20748,2.236649 -1.21918,3.757074 -2.06817,3.102265 -1.23824,3.430091 2.86324,1.125387 2.99854,-1.686418 13.95606,-2.224208 14.89635,-0.729507 1.13783,1.815045 -4.72643,13.845656 -7.60212,15.596792 -4.10149,2.489778 -4.90817,3.572001 -2.0134,2.697259 4.22432,-1.277254 2.76864,1.044048 -1.63744,2.60929 -3.99029,1.420006 -4.04589,1.507974 -1.50715,2.43168 1.44574,0.528665 3.47491,0.693825 4.5065,0.372641 2.59933,-0.810012 9.13832,3.790271 10.09522,7.103333 0.43404,1.503828 1.35195,4.765436 2.03582,7.251896 0.94942,3.44005 2.05489,4.84677 4.62268,5.89081 4.82436,1.96776 5.77712,4.34051 3.06989,7.63118 l -2.23333,2.71302 3.36536,1.35195 c 4.16538,1.67313 5.52065,5.21028 3.03088,7.91666 -1.68558,1.83248 -1.67312,2.03 0.1552,2.7205 1.08637,0.40832 2.1495,0.22325 2.36362,-0.41165 0.56436,-1.65985 5.95224,-1.3619 8.403,0.46311 3.2027,2.38272 1.61422,8.79556 -2.72298,11.00316 -1.825,0.93034 -3.05744,2.11049 -2.73627,2.62256 0.32451,0.51206 -0.19172,1.2258 -1.14447,1.58516 -2.69726,1.01832 -0.72618,2.85661 3.05746,2.85661 2.95618,0 3.21596,0.22656 1.97108,1.70217 -2.54539,3.01762 -5.93315,4.23014 -12.18,4.35379 -12.30615,0.2465 -14.58512,0.50875 -13.89795,1.60426 0.77101,1.2258 -2.55451,0.96021 -4.73639,-0.37928 -2.1719,-1.33203 -5.36214,0.14274 -6.74314,3.12218 -1.09302,2.36695 -1.58267,2.55451 -3.90315,1.51379 -2.06568,-0.92372 -3.42012,-0.80089 -6.09164,0.55771 -5.00861,2.54786 -5.27169,2.20428 -1.79265,-2.357 z"
       style="fill:#aaa5a0;fill-opacity:1;fill-rule:nonzero;stroke:none;stroke-width:1.14469"
       id="path2212" /><path
       d="m 152.47158,113.03547 c -1.29054,-0.4797 -2.70389,-1.77687 -3.13794,-2.88233 -0.73615,-1.86069 -0.94695,-1.81837 -2.9338,0.5768 l -2.14287,2.58439 -2.08477,-2.5321 c -2.07482,-2.52216 -2.06486,-2.54788 2.04909,-6.55559 5.28413,-5.148031 8.80136,-6.337316 10.79236,-3.65998 0.81001,1.09301 1.47477,2.8757 1.47477,3.96207 0,1.08887 0.49962,1.98021 1.11211,1.98021 1.77935,0 1.28389,3.19355 -0.83325,5.38871 -1.39427,1.43908 -2.61592,1.76358 -4.2957,1.13782 z"
       style="fill:#aaa5a0;fill-opacity:1;fill-rule:nonzero;stroke:none;stroke-width:1.14469"
       id="path2214" /><path
       d="m 128.55975,146.10554 c -0.0713,-0.42078 -0.0713,-1.13452 0,-1.58848 0.0713,-0.45066 -0.39918,-0.81998 -1.04736,-0.81998 -0.64817,0 -0.85565,-0.51206 -0.46393,-1.13782 0.46725,-0.73947 -0.38591,-0.89799 -2.43417,-0.46062 l -3.15123,0.67806 2.59684,-2.07482 c 1.47146,-1.17684 2.43417,-2.96698 2.22337,-4.13054 -0.28467,-1.56607 0.68137,-2.36944 4.07577,-3.3944 3.87409,-1.17019 4.05169,-1.35526 1.39012,-1.42664 -3.64669,-0.10042 -4.1073,-2.70307 -0.83573,-4.71315 3.21845,-1.97771 2.73875,-3.02508 -1.38764,-3.04416 -1.98767,-0.01 -4.35047,-0.47307 -5.24596,-1.03077 -1.37436,-0.85649 -1.24157,-1.35195 0.83324,-3.12219 3.06741,-2.61592 3.16783,-4.58119 0.23404,-4.58119 -1.9553,0 -2.06236,-0.27221 -0.84652,-2.18769 1.55279,-2.44495 4.81772,-2.91801 5.67669,-0.82079 0.44401,1.07973 0.58013,1.07642 0.64817,-0.019 0.0614,-0.95026 1.02413,-1.15774 3.05081,-0.65812 2.435,0.60003 2.84,0.41496 2.27234,-1.03741 -1.34863,-3.45914 1.73455,-3.15787 4.92478,0.48301 l 3.245,3.69234 2.1686,-2.73295 c 1.19345,-1.50381 2.17856,-2.13954 2.19185,-1.41004 0.0157,0.72619 1.09217,2.30138 2.39266,3.49483 2.63503,2.41176 4.35048,12.62068 2.95952,17.60355 -1.61752,5.79621 -2.19432,6.66181 -3.65333,5.47253 -1.01832,-0.82994 -1.69554,-0.84984 -2.19516,-0.0556 -0.39504,0.62908 -1.58184,1.14446 -2.63252,1.14446 -1.04986,0 -2.80432,1.02746 -3.89318,2.27899 -1.09301,1.25484 -2.67154,2.02004 -3.51142,1.70217 -0.83906,-0.31454 -1.70135,-0.0613 -1.91547,0.56435 -0.46393,1.37768 -7.48261,4.42517 -7.67018,3.33216 z"
       style="fill:#aaa5a0;fill-opacity:1;fill-rule:nonzero;stroke:none;stroke-width:1.14469"
       id="path2218" /><path
       d="m 136.25566,104.02912 c 0.72286,-0.85234 1.06976,-1.78601 0.77847,-2.07482 -0.29545,-0.28882 1.49387,-1.64657 3.97451,-3.018443 2.4765,-1.371033 4.78453,-2.22005 5.1223,-1.886416 0.34027,0.333626 -0.34441,2.227514 -1.51793,4.211049 -1.63661,2.77194 -3.00516,3.68901 -5.89993,3.96538 -3.14792,0.29794 -3.5496,0.10374 -2.45742,-1.19675 z"
       style="fill:#aaa5a0;fill-opacity:1;fill-rule:nonzero;stroke:none;stroke-width:1.14469"
       id="path2220" /><path
       d="m 274.07233,102.473 c -1.28722,-0.33031 -1.94535,-1.57187 -1.94535,-3.663287 0,-1.906338 -0.78428,-3.576157 -1.97107,-4.201086 -1.65321,-0.868932 -1.95198,-2.480652 -1.86733,-10.040449 0.0871,-8.001315 0.38259,-9.229605 2.64829,-11.032199 1.40091,-1.118745 3.54046,-2.029168 4.7563,-2.029168 1.21917,0 3.6857,-1.55279 5.4883,-3.453329 4.35712,-4.587001 6.44854,-2.985237 4.33139,3.323029 -1.85739,5.53063 -0.81748,9.972394 2.33707,9.972394 1.96776,0 2.11714,0.26557 0.93034,1.669809 -0.771,0.913746 -1.66317,1.413364 -1.97688,1.102136 -1.06396,-1.047364 -3.43008,1.750316 -2.8176,3.326345 0.37595,0.966036 -0.0971,1.559432 -1.24489,1.559432 -1.01832,0 -1.54283,0.492144 -1.16355,1.095505 0.37927,0.600038 0.0324,1.09218 -0.76852,1.095496 -0.9793,0.0029 -1.46565,1.615036 -1.48473,4.921468 -0.0167,2.707216 0.48301,4.927264 1.11209,4.937224 0.62826,0.01 0.38842,0.49298 -0.52533,1.07641 -1.75115,1.11211 -2.63585,1.16356 -5.83853,0.34027 z"
       style="fill:#aaa5a0;fill-opacity:1;fill-rule:nonzero;stroke:none;stroke-width:1.14469"
       id="path2222" /><path
       d="m 295.79895,99.442115 c -1.96442,-1.374358 -3.29978,-2.768631 -2.96948,-3.09313 0.33115,-0.323678 0.0713,-1.568567 -0.57678,-2.761998 -1.04738,-1.922107 -0.5934,-2.444131 3.96124,-4.551311 4.13385,-1.909665 5.32977,-2.094738 6.0792,-0.930346 1.30962,2.035809 1.19592,5.546396 -0.15271,4.726426 -0.6158,-0.375956 -1.43908,0.136102 -1.83164,1.137828 -0.38924,1.001718 -0.0937,2.195149 0.65812,2.651612 1.00504,0.609993 0.86563,1.021641 -0.51869,1.543665 -1.53371,0.580114 -1.6308,1.017484 -0.51207,2.340389 1.97771,2.34703 0,1.83829 -4.13719,-1.063135 z"
       style="fill:#aaa5a0;fill-opacity:1;fill-rule:nonzero;stroke:none;stroke-width:1.14469"
       id="path2224" /><path
       d="m 258.66309,209.04716 c -0.95607,-2.27898 -1.90965,-3.01844 -3.38443,-2.63916 -2.50554,0.64568 -3.81268,-0.97516 -1.49138,-1.85407 0.91125,-0.34357 1.65985,-1.2872 1.65985,-2.09721 0,-0.80752 1.41668,-2.80432 3.14791,-4.43844 3.03504,-2.85579 5.52481,-3.59194 15.24657,-4.49987 4.35378,-0.405 4.50317,-0.31121 4.74966,3.04749 0.26891,3.66662 3.07654,6.61036 5.45594,5.71238 2.05241,-0.77514 1.75364,0.16184 -0.87474,2.74872 -1.84825,1.81588 -2.62008,2.00094 -3.91974,0.93698 -0.89135,-0.72617 -1.73455,-1.13118 -1.87066,-0.89465 -0.13942,0.23652 -0.7876,1.38432 -1.44241,2.55451 -1.71213,3.04417 -3.86164,3.39772 -4.5646,0.75274 -0.49297,-1.85157 -1.0017,-2.06901 -2.70721,-1.17102 -1.15775,0.60666 -2.10053,1.77022 -2.10053,2.58438 0,0.81334 -1.47894,1.69222 -3.28403,1.95116 -2.78192,0.40251 -3.48817,-0.009 -4.6202,-2.69394 z"
       style="fill:#aaa5a0;fill-opacity:1;fill-rule:nonzero;stroke:none;stroke-width:1.14469"
       id="path2200" /><path
       d="m 244.44729,168.43308 c -1.28971,-1.34864 -2.34371,-3.35871 -2.34371,-4.46418 0,-1.88393 -0.1328,-1.89638 -2.03249,-0.20416 -2.15947,1.92211 -3.61183,2.34703 -3.3944,0.98844 0.40833,-2.53542 -0.46973,-3.78362 -3.35539,-4.77208 -1.77354,-0.60916 -3.49149,-2.10386 -3.816,-3.32301 -0.44068,-1.66649 -1.16022,-2.03913 -2.88813,-1.49803 -1.75696,0.54859 -2.3014,0.24318 -2.3014,-1.27974 0,-2.84 3.94796,-5.05092 6.5614,-3.67656 1.51711,0.79754 3.21264,0.53778 6.37052,-0.98264 2.45409,-1.18016 4.46997,-1.60424 4.69405,-0.98844 0.21744,0.59008 1.59512,1.52373 3.05995,2.07149 1.83828,0.68717 2.66157,1.85073 2.66157,3.75708 0,1.69885 0.62908,2.76199 1.6308,2.76199 2.25324,0 4.0268,3.55374 2.75619,5.52813 -0.55772,0.87143 -1.03741,1.09219 -1.06729,0.48883 -0.0289,-0.60252 -0.56684,-0.22324 -1.19592,0.84321 -0.6324,1.06313 -0.85234,2.85328 -0.48967,3.9712 0.99841,3.09644 -2.15613,3.60187 -4.85008,0.77847 z"
       style="fill:#aaa5a0;fill-opacity:1;fill-rule:nonzero;stroke:none;stroke-width:1.14469"
       id="path2206" /><path
       d="m 250.21196,167.76167 c -0.1303,-1.80592 0.18425,-3.2807 0.69714,-3.2807 1.73371,0 3.46826,2.9952 2.77112,4.78534 -1.13783,2.9172 -3.21928,2.0159 -3.46826,-1.50464 z"
       style="fill:#aaa5a0;fill-opacity:1;fill-rule:nonzero;stroke:none;stroke-width:1.14469"
       id="path2208" /><path
       d="m 308.38396,109.16142 c -0.92371,-2.37027 -0.48883,-2.79768 1.5694,-1.54698 1.1901,0.72618 1.29716,1.31626 0.39254,2.20179 -0.9013,0.88803 -1.42664,0.71291 -1.96194,-0.65481 z"
       style="fill:#aaa5a0;fill-opacity:1;fill-rule:nonzero;stroke:none;stroke-width:1.14469"
       id="path2216" /><path
       id="fi"
       style="fill:#aaa5a0;fill-opacity:1;stroke:#ffffff;stroke-width:0.400821;stroke-miterlimit:4;stroke-dasharray:none"
       d="m 362.22418,-99.015164 c -12.13036,2.724352 -0.19723,23.859255 -12.79472,20.186437 -5.874,6.772196 -14.12102,-11.282354 -13.47438,0.0036 4.2478,6.805903 15.51026,4.588641 15.48563,15.4757 3.70009,8.305441 3.26307,20.114739 13.67225,23.710674 4.26944,7.454798 -5.39765,10.79985 -5.96374,19.214034 -5.6164,8.73907 -13.05894,17.7889082 -5.201,28.0812182 1.27738,7.8308098 0.1812,16.9495098 10.56157,17.7391798 -3.14259,6.64346 4.92533,-6.64164 2.17996,1.27875 4.41441,2.31819 -2.63788,4.30174 3.6142,0.4661 9.28387,-2.38605 12.76015,-9.76389 18.83401,-10.80954 10.81743,-5.3655 14.1132,-21.1951798 16.84876,-32.370767 -0.3738,-8.113638 -13.22641,-9.845666 -11.03953,-17.750646 -8.35925,-5.996944 -5.46551,-16.485806 -11.41563,-24.094661 -8.88368,-5.010302 1.12955,-19.206348 -11.29168,-20.923918 -6.78776,-8.124176 3.05418,-16.406778 -10.0157,-20.206121 z m 1.25232,63.880756 c -3.19839,1.666835 1.62249,1.515956 1.05929,0.08047 z M 350.014,-9.5821108 c -3.48994,-0.6900002 0.0656,3.18004 0,0 z m 13.77559,32.8484998 -0.0499,0.23508 z m -5.00931,0.31314 c -0.49692,2.5083 3.01016,0.92579 0,0 z m 2.41074,1.31519 c -2.22556,1.599 3.79065,-0.49877 0,0 z m -14.11998,1.47176 c -3.44622,7.75071 5.84386,0.95117 0,0 z m 20.09982,1.65965 c -3.70528,0.0612 1.5192,1.69613 0,0 z m -18.22134,2.06673 c -0.48586,3.23996 2.63446,-0.2083 0,0 z" /><path
       id="se"
       style="fill:#aaa5a0;fill-opacity:1;stroke:#ffffff;stroke-width:0.400821;stroke-miterlimit:4;stroke-dasharray:none"
       d="m 332.54407,-79.944881 c 3.22165,8.405429 -2.28433,9.466963 -8.20363,8.986078 1.50758,7.974524 -8.36621,4.552925 -7.25906,13.053045 2.13159,11.19954 -9.51213,16.451326 -7.17611,27.020213 -5.14316,6.919673 3.56671,16.144577 -7.41925,17.244541 -6.12039,2.364302 -4.36781,15.0798432 -3.32613,9.2213232 -2.28367,9.24201 3.2674,18.1293498 3.61649,25.6336798 -4.32955,5.19841 3.74487,12.53807 -4.40677,17.64089 -0.57386,5.52923 -0.0148,9.66531 -4.06644,10.33192 -0.0329,6.25046 6.27896,8.79295 4.44982,14.72756 3.99118,7.50064 8.30334,13.88102 6.96362,21.29289 1.14952,4.65682 1.98937,9.53016 9.16165,6.15269 4.4312,-2.16306 0.53233,-11.09667 9.04437,-10.36977 9.48319,-0.26664 5.05753,-17.61373 7.12307,-22.21145 -3.83016,-5.13048 3.46938,-7.78446 -3.84094,-8.19896 6.25739,2.25994 7.72675,-9.00505 10.18862,-5.16681 5.91356,-6.36372 1.75848,-5.14081 -4.24427,-3.21847 -3.65688,-2.09309 -11.30467,-1.62859 -2.07959,-3.31186 4.81674,0.88078 2.95122,0.37173 2.68587,-2.45339 3.88568,9.40234 14.06737,-4.70147 4.14392,-7.71032 -11.71639,-3.62763 -7.25685,-15.94355 -8.04699,-25.0441598 1.86319,-2.35506 4.00983,-3.50960996 1.23478,-6.23967 4.66166,1.77606004 5.57044,-10.1585642 11.06157,-10.1954902 9.9852,-7.460481 -0.52832,-18.582642 6.50544,-24.976607 -1.50219,-6.526628 14.85768,-3.27121 6.63131,-10.674634 -1.65314,-9.174341 -2.76524,-22.118162 -12.50024,-25.532034 -4.59083,-0.367694 -5.97331,-6.390347 -10.24111,-6.001205 z m 3.66305,72.3042502 c -0.77742,1.32983 1.3573,0.28298 0,0 z m 6.9191,-6.2001932 0.0939,0.344456 z m -5.35368,40.238613 c -1.04987,2.46691 3.22649,3.01353 0,0 z m -7.2635,13.05798 c -1.30365,2.21673 2.34562,0.63038 0,0 z m 4.32052,0.65759 c -2.6295,0.66816 2.81226,1.69003 0,0 z m -3.44389,0.0939 0.75893,0.71079 z m 15.18444,16.25202 c -3.58883,3.25451 2.93772,0.28814 0,0 z m -48.24581,0.50102 c -6.23849,2.26875 1.88119,3.7335 0,0 z m 46.36733,0.56366 c -7.19909,1.52081 -2.11571,19.8767 0.43356,6.24987 -0.5588,-1.44226 1.84263,-6.41145 -0.43356,-6.24987 z m -46.68041,2.06672 c -3.28368,0.23634 1.19959,2.87215 0,0 z m 36.44265,5.94968 c -4.25603,2.9971 -3.93819,20.03512 -2.05975,7.67941 0.50527,-2.60533 1.30819,-5.13828 2.05975,-7.67941 z" /><path
       id="no"
       style="fill:#aaa5a0;fill-opacity:1;stroke:#ffffff;stroke-width:0.400821;stroke-miterlimit:4;stroke-dasharray:none"
       d="m 335.26423,-79.556887 0.094,0.094 m 15.22396,15.978811 h -0.094 m 24.80943,-35.529378 c 0.93585,3.776202 -5.96716,4.588552 -4.3855,10.232768 -0.75921,-2.211907 -6.29648,-15.312914 -12.53005,-7.100147 -5.85801,6.161213 2.30053,20.042322 -10.93551,17.450053 -4.99982,2.826319 -13.05637,-10.576697 -14.89761,0.564997 6.27972,11.618957 -14.55948,1.300203 -8.02144,11.782212 -13.33302,2.221311 -2.98065,20.575854 -14.34349,25.796987 2.19037,8.793271 -5.74819,15.776955 -1.00271,24.508188 -8.2249,-3.174903 -12.92932,12.7770952 -10.74836,12.7294652 1.74272,1.48818 -0.85102,16.7197598 4.93844,21.4506698 0.20435,4.39952 -4.27841,4.73779 -0.73461,9.59123 -0.74177,7.39403 -5.63919,12.76795 -5.46281,19.99477 -5.01747,-0.0501 -6.94959,-9.83519 -6.87688,-9.61861 0.31597,3.78082 -3.1145,-1.47911 -0.52238,4.91841 -0.0852,7.1288 -7.04565,0.95092 -8.28778,7.9469 -1.2734,6.23894 -16.24826,12.21142 -15.69886,4.61304 -9.0196,-0.40647 -8.29382,-10.11641 -1.80848,-12.8425 -3.50572,-1.28329 -0.69318,-3.3321 -5.3638,-0.23925 -5.10717,-3.55089 8.93939,-5.10428 2.20814,-6.45305 2.75605,-2.5915 3.45002,-6.74635 -0.3596,-2.34834 0.4472,-2.24387 0.13349,-6.60076 -1.4903,-1.40662 -2.842,-2.79024 5.74799,-7.6418 -1.33244,-5.84386 -4.4724,-3.43476 6.21066,-2.07967 -0.66161,-3.3983 3.38803,-5.754 12.22019,0.21389 12.89671,-0.64707 1.39544,-3.1138 4.16682,-0.68067 1.73268,-4.831 2.08186,-4.04623 -2.63496,7.182 -5.041,1.76828 -1.96387,2.48862 -11.98066,-0.10104 -6.12014,-2.39685 -6.5415,0.0735 4.99882,-0.38712 -1.28222,-2.29855 -4.82807,-7.3820198 14.29412,-0.7219 5.0268,-3.23307 -8.45499,-0.85159 -3.5824,-5.8262298 1.69568,-2.5649998 -5.72038,-5.79486 5.35298,1.2099598 0.99254,-3.64933 6.5021,1.02134 1.98684,1.32497 -0.16977,-2.80938 5.07208,0.87468 10.61575,-0.96727 3.57103,-0.87326 -1.97854,-9.12947 13.05822,1.80472 7.38644,-5.00336 6.90362,-0.6662 -2.36078,-1.43024 3.24381,-3.80191 3.73321,2.84273 4.38293,-6.2101762 6.68441,1.77406 2.54887,-0.98628 10.52302,-10.3658942 5.17576,-9.1622782 -0.99202,3.727488 -5.89221,8.8487582 -6.28537,3.779098 -3.12681,1.6155902 4.48371,-11.808975 7.30539,-9.739958 4.57502,1.115535 -2.9635,-6.453598 4.52865,-6.50387 3.77809,-2.539142 3.52712,-2.7288 1.47504,-3.362648 3.86555,-4.369319 -4.39643,2.781206 -0.0753,-3.630867 2.56349,-4.759609 2.64884,-3.604542 1.81239,-7.456041 6.04165,-0.987764 2.68169,-0.02315 0.94678,-0.961671 5.40316,0.03948 -5.63834,-1.80158 1.11124,-4.937842 0.69711,-4.482181 6.6938,-4.891319 7.79121,-8.373461 -6.33218,3.717954 0.0324,-7.155045 2.55967,-1.00563 -0.21079,-3.483285 -2.98937,-3.370925 0.24192,-5.004952 -8.30144,2.036732 -0.17671,-1.183363 -0.24009,-3.339449 -6.04628,0.77103 3.88933,-4.473824 2.30169,1.560336 2.56575,1.016522 -1.57871,-7.312909 0.0753,-5.437457 4.3303,-2.195276 4.4343,3.903164 5.5452,-1.667365 -0.79073,-3.655418 -16.0426,5.838809 -8.99654,-2.926675 0.54653,-8.269224 1.00777,5.748484 3.57166,-2.539892 3.2819,11.152343 9.91463,-10.609081 2.08034,-2.644746 -1.30786,-4.59828 4.24746,-7.354046 4.44283,-4.29794 5.33456,4.305454 -1.20617,-4.599684 5.0326,0.31346 -0.85381,3.567633 -3.07928,-11.404112 1.51354,-2.664372 0.16077,0.459626 2.47604,-9.40024 2.0635,0.02636 0.81183,8.479596 -0.27078,-8.075375 3.3139,-4.385431 -0.34606,-5.657224 6.17729,3.906875 3.47706,-3.160521 -9.55377,-1.942845 2.43435,-5.291467 5.22898,-0.62984 0.64036,-3.040232 -4.71107,-8.779897 0.81922,-6.984297 3.33855,1.22818 0.19391,-9.78063 6.72914,-4.83355 -2.71436,2.81655 0.007,14.186348 0.43909,4.28729 1.25224,-5.6389 3.04836,-7.16072 4.38933,-1.33907 2.34176,-2.45864 -0.49486,-11.96204 5.67514,-6.75545 -4.25167,5.24492 3.60069,6.22377 1.6785,-0.2843 5.7205,3.57434 1.45199,-1.75938 6.83914,1.89869 11.29056,3.35955 -10.05938,7.36627 -0.424,8.127103 0.21012,1.878924 2.7161,3.123853 3.73714,-0.02681 l 1.82063,0.301462 z m -40.31531,19.362571 h 0.094 z m 17.10349,-28.761867 c -3.7458,5.21463 -3.49029,-5.72484 0,0 z m -14.28421,7.33145 c 8.79147,-6.17303 0.50953,6.43445 0,0 z m -0.65783,0.37597 h -0.3759 z m -5.6385,6.6735 c 3.44313,-3.234906 -0.1684,4.133454 0,0 z m -1.78554,2.349833 0.009,0.458556 z m -4.98068,1.785868 c 6.066,-6.333628 4.65023,5.412528 0,0 z m -13.06254,15.320886 c 2.66311,3.799532 -10.17007,1.897085 0,0 z m -7.518,8.553348 c 1.88068,-6.870732 1.14564,3.700571 0,0 z m -23.21185,53.670027 c 0.79188,4.1459472 -5.68467,-0.349265 0,0 z M 263.46727,5.2248292 c 5.28126,-4.04981 -0.48512,3.0257 0,0 z m -6.10838,36.0933298 c 1.48905,3.07568 -1.60511,4.36368 0,0 z m 1.5036,-6.95548 c 2.16718,4.50113 -1.58582,1.74815 0,0 z m 36.08645,-59.591598 -1.0818,0.129614 z m 55.16338,-75.758391 c -0.91808,0.13117 -0.80772,0.11541 0,0 z m -15.88178,21.148437 h 0.094 z m 0.28192,0.09399 h 0.18796 z m 0.28193,0 0.094,0.09399 z"
       sodipodi:nodetypes="ccccscccccccccccccccccccccccccccccccccccccccccccccccccccccccccccccccccccccccsccccccccccccccccccccccccccccccccccccccccccc" /></g><g
     id="g10"
     inkscape:groupmode="layer"
     inkscape:label="background"
     transform="matrix(1.3333333,0,0,1.3333333,0,1.30803e-5)"><g
       id="g7764"
       transform="translate(0.17812676)"><text
         xml:space="preserve"
         style="font-size:8.87168px;line-height:1.25;font-family:FredokaOne;-inkscape-font-specification:FredokaOne;letter-spacing:0px;word-spacing:0px;stroke-width:0.749999"
         x="296.97522"
         y="187.42838"
         id="text7752"><tspan
           sodipodi:role="line"
           id="tspan7750"
           x="296.97522"
           y="187.42838"
           style="font-style:normal;font-variant:normal;font-weight:normal;font-stretch:normal;font-family:Flama;-inkscape-font-specification:Flama;stroke-width:0.749999">IIT</tspan></text><text
         xml:space="preserve"
         style="font-size:6.36167px;line-height:1.25;font-family:FredokaOne;-inkscape-font-specification:FredokaOne;letter-spacing:0px;word-spacing:0px;stroke-width:0.749997"
         x="296.97943"
         y="193.34669"
         id="text7756"><tspan
           sodipodi:role="line"
           id="tspan7754"
           x="296.97943"
           y="193.34669"
           style="font-style:normal;font-variant:normal;font-weight:normal;font-stretch:normal;font-family:FlamaLight;-inkscape-font-specification:FlamaLight;stroke-width:0.749997">G. Metta</tspan><tspan
           sodipodi:role="line"
           x="296.97943"
           y="201.4187"
           style="font-style:normal;font-variant:normal;font-weight:normal;font-stretch:normal;font-family:FlamaLight;-inkscape-font-specification:FlamaLight;stroke-width:0.749997"
           id="tspan7776">A. Wykowska</tspan></text></g><path
       d="m 195.45883,152.54029 c 0,1.19883 -0.95795,2.1686 -2.14184,2.1686 -1.18202,0 -2.13996,-0.96977 -2.13996,-2.1686 0,-1.19882 0.95794,-2.17108 2.13996,-2.17108 1.18389,0 2.14184,0.97226 2.14184,2.17108 z"
       style="fill:#a40000;fill-opacity:1;fill-rule:nonzero;stroke:none;stroke-width:0.858518"
       id="path2226" /><path
       d="m 208.66867,92.408364 c 0,1.33514 -1.06749,2.41944 -2.38521,2.41944 -1.31833,0 -2.3852,-1.0843 -2.3852,-2.41944 0,-1.33452 1.06687,-2.41695 2.3852,-2.41695 1.31772,0 2.38521,1.08243 2.38521,2.41695 z"
       style="fill:#a40000;fill-opacity:1;fill-rule:nonzero;stroke:none;stroke-width:0.858518"
       id="path2228" /><path
       d="m 161.28063,195.85237 c 0,1.34012 -1.06998,2.42442 -2.39018,2.42442 -1.32021,0 -2.3877,-1.0843 -2.3877,-2.42442 0,-1.33701 1.06749,-2.42131 2.3877,-2.42131 1.3202,0 2.39018,1.0843 2.39018,2.42131 z"
       style="fill:#a40000;fill-opacity:1;fill-rule:nonzero;stroke:none;stroke-width:0.858518"
       id="path2230" /><path
       d="m 141.91864,107.98447 c 0,1.25236 -1.004,2.27068 -2.23894,2.27068 -1.23803,0 -2.23955,-1.01832 -2.23955,-2.27068 0,-1.25485 1.00152,-2.27317 2.23955,-2.27317 1.23494,0 2.23894,1.01832 2.23894,2.27317 z"
       style="fill:#a40000;fill-opacity:1;fill-rule:nonzero;stroke:none;stroke-width:0.858518"
       id="path2520" /><g
       id="g2548"
       transform="matrix(0.72502033,0,0,-0.72502033,6.9369,38.373163)"
       style="stroke-width:1.37927" /><path
       d="m 107.80967,202.31059 c 0,1.34012 -1.06998,2.42442 -2.39018,2.42442 -1.32021,0 -2.3877,-1.0843 -2.3877,-2.42442 0,-1.33701 1.06749,-2.42131 2.3877,-2.42131 1.3202,0 2.39018,1.0843 2.39018,2.42131 z"
       style="fill:#a40000;fill-opacity:1;fill-rule:nonzero;stroke:none;stroke-width:0.858518"
       id="path7719" /><path
       d="m 121.7348,227.11144 c 0,1.34012 -1.06998,2.42442 -2.39018,2.42442 -1.32021,0 -2.3877,-1.0843 -2.3877,-2.42442 0,-1.33701 1.06749,-2.42131 2.3877,-2.42131 1.3202,0 2.39018,1.0843 2.39018,2.42131 z"
       style="fill:#a40000;fill-opacity:1;fill-rule:nonzero;stroke:none;stroke-width:0.858518"
       id="path7721" /><path
       d="m 178.57993,114.5283 c 0,1.34012 -1.06998,2.42442 -2.39018,2.42442 -1.32021,0 -2.3877,-1.0843 -2.3877,-2.42442 0,-1.33701 1.06749,-2.42131 2.3877,-2.42131 1.3202,0 2.39018,1.0843 2.39018,2.42131 z"
       style="fill:#a40000;fill-opacity:1;fill-rule:nonzero;stroke:none;stroke-width:0.858518"
       id="path7723" /><path
       d="m 131.84103,62.196625 c 0,1.34012 -1.06998,2.42442 -2.39018,2.42442 -1.32021,0 -2.3877,-1.0843 -2.3877,-2.42442 0,-1.33701 1.06749,-2.42131 2.3877,-2.42131 1.3202,0 2.39018,1.0843 2.39018,2.42131 z"
       style="fill:#a40000;fill-opacity:1;fill-rule:nonzero;stroke:none;stroke-width:0.858518"
       id="path7725" /><path
       d="m 140.661,91.918473 c 0,1.34012 -1.06998,2.42442 -2.39018,2.42442 -1.32021,0 -2.3877,-1.0843 -2.3877,-2.42442 0,-1.33701 1.06749,-2.42131 2.3877,-2.42131 1.3202,0 2.39018,1.0843 2.39018,2.42131 z"
       style="fill:#a40000;fill-opacity:1;fill-rule:nonzero;stroke:none;stroke-width:0.858518"
       id="path7727" /><path
       d="m 220.87628,98.69393 c 0,1.34012 -1.06998,2.42442 -2.39018,2.42442 -1.32021,0 -2.3877,-1.0843 -2.3877,-2.42442 0,-1.33701 1.06749,-2.42131 2.3877,-2.42131 1.3202,0 2.39018,1.0843 2.39018,2.42131 z"
       style="fill:#a40000;fill-opacity:1;fill-rule:nonzero;stroke:none;stroke-width:0.858518"
       id="path7729" /><path
       d="m 208.98418,169.7782 c 0,1.34012 -1.06998,2.42442 -2.39018,2.42442 -1.32021,0 -2.3877,-1.0843 -2.3877,-2.42442 0,-1.33701 1.06749,-2.42131 2.3877,-2.42131 1.3202,0 2.39018,1.0843 2.39018,2.42131 z"
       style="fill:#a40000;fill-opacity:1;fill-rule:nonzero;stroke:none;stroke-width:0.858518"
       id="path7731" /><path
       style="fill:none;stroke:#a40000;stroke-width:0.75px;stroke-linecap:butt;stroke-linejoin:miter;stroke-opacity:1"
       d="m 206.54472,169.88446 87.68679,16.91596"
       id="path7748"
       sodipodi:nodetypes="cc" /><path
       style="fill:none;stroke:#a40000;stroke-width:0.75px;stroke-linecap:butt;stroke-linejoin:miter;stroke-opacity:1"
       d="m 193.3166,152.4774 99.79856,-5.74335"
       id="path7758"
       sodipodi:nodetypes="cc" /><g
       id="g7774"
       transform="translate(-0.11451006,-41.564168)"><text
         xml:space="preserve"
         style="font-size:8.87168px;line-height:1.25;font-family:FredokaOne;-inkscape-font-specification:FredokaOne;letter-spacing:0px;word-spacing:0px;stroke-width:0.749999"
         x="296.97522"
         y="187.42838"
         id="text7768"><tspan
           sodipodi:role="line"
           id="tspan7766"
           x="296.97522"
           y="187.42838"
           style="font-style:normal;font-variant:normal;font-weight:normal;font-stretch:normal;font-family:Flama;-inkscape-font-specification:Flama;stroke-width:0.749999">EPFL</tspan></text><text
         xml:space="preserve"
         style="font-size:6.36167px;line-height:1.25;font-family:FredokaOne;-inkscape-font-specification:FredokaOne;letter-spacing:0px;word-spacing:0px;stroke-width:0.749997"
         x="296.97943"
         y="193.34669"
         id="text7772"><tspan
           sodipodi:role="line"
           id="tspan7770"
           x="296.97943"
           y="193.34669"
           style="font-style:normal;font-variant:normal;font-weight:normal;font-stretch:normal;font-family:FlamaLight;-inkscape-font-specification:FlamaLight;stroke-width:0.749997">P. Dillenbourg</tspan><tspan
           sodipodi:role="line"
           x="296.97943"
           y="201.4187"
           style="font-style:normal;font-variant:normal;font-weight:normal;font-stretch:normal;font-family:FlamaLight;-inkscape-font-specification:FlamaLight;stroke-width:0.749997"
           id="tspan7778">F. Mondada</tspan></text></g><path
       style="fill:none;stroke:#a40000;stroke-width:0.75px;stroke-linecap:butt;stroke-linejoin:miter;stroke-opacity:1"
       d="m 217.55528,98.29671 76.82933,15.10138"
       id="path7780"
       sodipodi:nodetypes="cc" /><g
       id="g7792"
       transform="translate(0.08906338,-74.301689)"><text
         xml:space="preserve"
         style="font-size:8.87168px;line-height:1.25;font-family:FredokaOne;-inkscape-font-specification:FredokaOne;letter-spacing:0px;word-spacing:0px;stroke-width:0.749999"
         x="296.97522"
         y="187.42838"
         id="text7784"><tspan
           sodipodi:role="line"
           id="tspan7782"
           x="296.97522"
           y="187.42838"
           style="font-style:normal;font-variant:normal;font-weight:normal;font-stretch:normal;font-family:Flama;-inkscape-font-specification:Flama;stroke-width:0.749999">BIELEFELD U.</tspan></text><text
         xml:space="preserve"
         style="font-size:6.36167px;line-height:1.25;font-family:FredokaOne;-inkscape-font-specification:FredokaOne;letter-spacing:0px;word-spacing:0px;stroke-width:0.749997"
         x="296.97943"
         y="193.34669"
         id="text7790"><tspan
           sodipodi:role="line"
           x="296.97943"
           y="193.34669"
           style="font-style:normal;font-variant:normal;font-weight:normal;font-stretch:normal;font-family:FlamaLight;-inkscape-font-specification:FlamaLight;stroke-width:0.749997"
           id="tspan7788">S. Kopp</tspan></text></g><path
       style="fill:none;stroke:#a40000;stroke-width:0.75px;stroke-linecap:butt;stroke-linejoin:miter;stroke-opacity:1"
       d="m 206.23275,92.376403 86.90791,-2.000196"
       id="path7796"
       sodipodi:nodetypes="cc" /><g
       id="g7806"
       transform="translate(-0.11451006,-97.840229)"><text
         xml:space="preserve"
         style="font-size:8.87168px;line-height:1.25;font-family:FredokaOne;-inkscape-font-specification:FredokaOne;letter-spacing:0px;word-spacing:0px;stroke-width:0.749999"
         x="296.97522"
         y="187.42838"
         id="text7800"><tspan
           sodipodi:role="line"
           id="tspan7798"
           x="296.97522"
           y="187.42838"
           style="font-style:normal;font-variant:normal;font-weight:normal;font-stretch:normal;font-family:Flama;-inkscape-font-specification:Flama;stroke-width:0.749999">BREMEN U.</tspan></text><text
         xml:space="preserve"
         style="font-size:6.36167px;line-height:1.25;font-family:FredokaOne;-inkscape-font-specification:FredokaOne;letter-spacing:0px;word-spacing:0px;stroke-width:0.749997"
         x="296.97943"
         y="193.34669"
         id="text7804"><tspan
           sodipodi:role="line"
           x="296.97943"
           y="193.34669"
           style="font-style:normal;font-variant:normal;font-weight:normal;font-stretch:normal;font-family:FlamaLight;-inkscape-font-specification:FlamaLight;stroke-width:0.749997"
           id="tspan7802">M. Beetz</tspan></text></g><path
       d="m 251.12218,30.08501 c 0,1.33514 -1.06749,2.41944 -2.38521,2.41944 -1.31833,0 -2.3852,-1.0843 -2.3852,-2.41944 0,-1.33452 1.06687,-2.41695 2.3852,-2.41695 1.31772,0 2.38521,1.08243 2.38521,2.41695 z"
       style="fill:#a40000;fill-opacity:1;fill-rule:nonzero;stroke:none;stroke-width:0.858518"
       id="path7808" /><path
       style="fill:none;stroke:#a40000;stroke-width:0.75px;stroke-linecap:butt;stroke-linejoin:miter;stroke-opacity:1"
       d="M 248.53926,30.155435 294.72768,42.49117"
       id="path7810"
       sodipodi:nodetypes="cc" /><g
       id="g7820"
       transform="translate(-0.03817002,-145.02377)"><text
         xml:space="preserve"
         style="font-size:8.87168px;line-height:1.25;font-family:FredokaOne;-inkscape-font-specification:FredokaOne;letter-spacing:0px;word-spacing:0px;stroke-width:0.749999"
         x="296.97522"
         y="187.42838"
         id="text7814"><tspan
           sodipodi:role="line"
           id="tspan7812"
           x="296.97522"
           y="187.42838"
           style="font-style:normal;font-variant:normal;font-weight:normal;font-stretch:normal;font-family:Flama;-inkscape-font-specification:Flama;stroke-width:0.749999">KTH</tspan></text><text
         xml:space="preserve"
         style="font-size:6.36167px;line-height:1.25;font-family:FredokaOne;-inkscape-font-specification:FredokaOne;letter-spacing:0px;word-spacing:0px;stroke-width:0.749997"
         x="296.97943"
         y="193.34669"
         id="text7818"><tspan
           sodipodi:role="line"
           x="296.97943"
           y="193.34669"
           style="font-style:normal;font-variant:normal;font-weight:normal;font-stretch:normal;font-family:FlamaLight;-inkscape-font-specification:FlamaLight;stroke-width:0.749997"
           id="tspan7816">I. Leite</tspan></text></g><path
       d="m 238.66315,28.760771 c 0,1.33514 -1.06749,2.41944 -2.38521,2.41944 -1.31833,0 -2.3852,-1.0843 -2.3852,-2.41944 0,-1.33452 1.06687,-2.41695 2.3852,-2.41695 1.31772,0 2.38521,1.08243 2.38521,2.41695 z"
       style="fill:#a40000;fill-opacity:1;fill-rule:nonzero;stroke:none;stroke-width:0.858518"
       id="path7834" /><path
       style="fill:none;stroke:#a40000;stroke-width:0.75px;stroke-linecap:butt;stroke-linejoin:miter;stroke-opacity:1"
       d="m 236.22125,28.790878 59.39019,-8.937824"
       id="path7836"
       sodipodi:nodetypes="cc" /><g
       id="g7846"
       transform="translate(0.17812676,-168.56231)"><text
         xml:space="preserve"
         style="font-size:8.87168px;line-height:1.25;font-family:FredokaOne;-inkscape-font-specification:FredokaOne;letter-spacing:0px;word-spacing:0px;stroke-width:0.749999"
         x="296.97522"
         y="187.42838"
         id="text7840"><tspan
           sodipodi:role="line"
           id="tspan7838"
           x="296.97522"
           y="187.42838"
           style="font-style:normal;font-variant:normal;font-weight:normal;font-stretch:normal;font-family:Flama;-inkscape-font-specification:Flama;stroke-width:0.749999">OREBRO U.</tspan></text><text
         xml:space="preserve"
         style="font-size:6.36167px;line-height:1.25;font-family:FredokaOne;-inkscape-font-specification:FredokaOne;letter-spacing:0px;word-spacing:0px;stroke-width:0.749997"
         x="296.97943"
         y="193.34669"
         id="text7844"><tspan
           sodipodi:role="line"
           x="296.97943"
           y="193.34669"
           style="font-style:normal;font-variant:normal;font-weight:normal;font-stretch:normal;font-family:FlamaLight;-inkscape-font-specification:FlamaLight;stroke-width:0.749997"
           id="tspan7842">A. Saffiotti</tspan></text></g><g
       id="g7856"
       transform="translate(-266.31617,-168.56231)"><text
         xml:space="preserve"
         style="font-size:8.87168px;line-height:1.25;font-family:FredokaOne;-inkscape-font-specification:FredokaOne;letter-spacing:0px;word-spacing:0px;stroke-width:0.749999"
         x="282.21832"
         y="190.36554"
         id="text7850"><tspan
           sodipodi:role="line"
           id="tspan7848"
           x="282.21832"
           y="190.36554"
           style="font-style:normal;font-variant:normal;font-weight:normal;font-stretch:normal;font-family:Flama;-inkscape-font-specification:Flama;stroke-width:0.749999">HERIOT WATT</tspan></text><text
         xml:space="preserve"
         style="font-size:6.36167px;line-height:1.25;font-family:FredokaOne;-inkscape-font-specification:FredokaOne;letter-spacing:0px;word-spacing:0px;stroke-width:0.749997"
         x="315.85187"
         y="197.00456"
         id="text7854"><tspan
           sodipodi:role="line"
           x="315.85187"
           y="197.00456"
           style="font-style:normal;font-variant:normal;font-weight:normal;font-stretch:normal;font-family:FlamaLight;-inkscape-font-specification:FlamaLight;stroke-width:0.749997"
           id="tspan7852">O. Lemon</tspan></text></g><path
       style="fill:none;stroke:#a40000;stroke-width:0.75px;stroke-linecap:butt;stroke-linejoin:miter;stroke-opacity:1"
       d="M 77.471243,24.206852 129.24115,62.280064"
       id="path7858"
       sodipodi:nodetypes="cc" /><g
       id="g7868"
       transform="translate(-265.26433,-139.29972)"><text
         xml:space="preserve"
         style="font-size:8.87168px;line-height:1.25;font-family:FredokaOne;-inkscape-font-specification:FredokaOne;letter-spacing:0px;word-spacing:0px;stroke-width:0.749999"
         x="268.61417"
         y="190.08763"
         id="text7862"><tspan
           sodipodi:role="line"
           id="tspan7860"
           x="268.61417"
           y="190.08763"
           style="font-style:normal;font-variant:normal;font-weight:normal;font-stretch:normal;font-family:Flama;-inkscape-font-specification:Flama;stroke-width:0.749999">MANCHESTER U.</tspan></text><text
         xml:space="preserve"
         style="font-size:6.36167px;line-height:1.25;font-family:FredokaOne;-inkscape-font-specification:FredokaOne;letter-spacing:0px;word-spacing:0px;stroke-width:0.749997"
         x="305.56403"
         y="196.95016"
         id="text7866"><tspan
           sodipodi:role="line"
           x="305.56403"
           y="196.95016"
           style="font-style:normal;font-variant:normal;font-weight:normal;font-stretch:normal;font-family:FlamaLight;-inkscape-font-specification:FlamaLight;stroke-width:0.749997"
           id="tspan7864">A. Cangelosi</tspan></text></g><path
       style="fill:none;stroke:#a40000;stroke-width:0.75px;stroke-linecap:butt;stroke-linejoin:miter;stroke-opacity:1"
       d="M 79.524592,53.258536 138.05891,91.542659"
       id="path7870"
       sodipodi:nodetypes="cc" /><path
       d="m 170.67733,138.63589 c 0,1.25236 -1.004,2.27068 -2.23894,2.27068 -1.23803,0 -2.23955,-1.01832 -2.23955,-2.27068 0,-1.25485 1.00152,-2.27317 2.23955,-2.27317 1.23494,0 2.23894,1.01832 2.23894,2.27317 z"
       style="fill:#a40000;fill-opacity:1;fill-rule:nonzero;stroke:none;stroke-width:0.858518"
       id="path7872" /><g
       id="g7882"
       transform="translate(-263.76546,-108.74281)"><text
         xml:space="preserve"
         style="font-size:8.87168px;line-height:1.25;font-family:FredokaOne;-inkscape-font-specification:FredokaOne;letter-spacing:0px;word-spacing:0px;stroke-width:0.749999"
         x="321.49356"
         y="190.08763"
         id="text7876"><tspan
           sodipodi:role="line"
           id="tspan7874"
           x="321.49356"
           y="190.08763"
           style="font-style:normal;font-variant:normal;font-weight:normal;font-stretch:normal;font-family:Flama;-inkscape-font-specification:Flama;stroke-width:0.749999">BRL</tspan></text><text
         xml:space="preserve"
         style="font-size:6.36167px;line-height:1.25;font-family:FredokaOne;-inkscape-font-specification:FredokaOne;letter-spacing:0px;word-spacing:0px;stroke-width:0.749997"
         x="307.94324"
         y="196.95016"
         id="text7880"><tspan
           sodipodi:role="line"
           x="307.94324"
           y="196.95016"
           style="font-style:normal;font-variant:normal;font-weight:normal;font-stretch:normal;font-family:FlamaLight;-inkscape-font-specification:FlamaLight;stroke-width:0.749997"
           id="tspan7878">C. Melhuish</tspan></text></g><path
       style="fill:none;stroke:#a40000;stroke-width:0.75px;stroke-linecap:butt;stroke-linejoin:miter;stroke-opacity:1"
       d="m 77.567486,83.44255 61.782764,24.64432"
       id="path7884"
       sodipodi:nodetypes="cc" /><g
       id="g7894"
       transform="translate(-264.61018,-86.681023)"><text
         xml:space="preserve"
         style="font-size:8.87168px;line-height:1.25;font-family:FredokaOne;-inkscape-font-specification:FredokaOne;letter-spacing:0px;word-spacing:0px;stroke-width:0.749999"
         x="298.99356"
         y="190.08763"
         id="text7888"><tspan
           sodipodi:role="line"
           id="tspan7886"
           x="298.99356"
           y="190.08763"
           style="font-style:normal;font-variant:normal;font-weight:normal;font-stretch:normal;font-family:Flama;-inkscape-font-specification:Flama;stroke-width:0.749999">GHENT U.</tspan></text><text
         xml:space="preserve"
         style="font-size:6.36167px;line-height:1.25;font-family:FredokaOne;-inkscape-font-specification:FredokaOne;letter-spacing:0px;word-spacing:0px;stroke-width:0.749997"
         x="306.99243"
         y="196.95016"
         id="text7892"><tspan
           sodipodi:role="line"
           x="306.99243"
           y="196.95016"
           style="font-style:normal;font-variant:normal;font-weight:normal;font-stretch:normal;font-family:FlamaLight;-inkscape-font-specification:FlamaLight;stroke-width:0.749997"
           id="tspan7890">T. Belpaeme</tspan></text></g><path
       style="fill:none;stroke:#a40000;stroke-width:0.75px;stroke-linecap:butt;stroke-linejoin:miter;stroke-opacity:1"
       d="M 79.442514,104.73382 176.2422,114.92213"
       id="path7896"
       sodipodi:nodetypes="cc" /><g
       id="g7906"
       transform="translate(-263.65301,-63.461418)"
       style="fill:#1e8154;fill-opacity:1"><text
         xml:space="preserve"
         style="font-size:8.87168px;line-height:1.25;font-family:FredokaOne;-inkscape-font-specification:FredokaOne;letter-spacing:0px;word-spacing:0px;stroke-width:0.749999;fill:#1e8154;fill-opacity:1"
         x="321.49356"
         y="190.08763"
         id="text7900"><tspan
           sodipodi:role="line"
           id="tspan7898"
           x="321.49356"
           y="190.08763"
           style="font-style:normal;font-variant:normal;font-weight:normal;font-stretch:normal;font-family:Flama;-inkscape-font-specification:Flama;stroke-width:0.749999;fill:#1e8154;fill-opacity:1">ISIR</tspan></text><text
         xml:space="preserve"
         style="font-size:6.36167px;line-height:1.25;font-family:FredokaOne;-inkscape-font-specification:FredokaOne;letter-spacing:0px;word-spacing:0px;stroke-width:0.749997;fill:#1e8154;fill-opacity:1"
         x="303.99243"
         y="196.95016"
         id="text7904"><tspan
           sodipodi:role="line"
           x="303.99243"
           y="196.95016"
           style="font-style:normal;font-variant:normal;font-weight:normal;font-stretch:normal;font-family:FlamaLight;-inkscape-font-specification:FlamaLight;stroke-width:0.749997;fill:#1e8154;fill-opacity:1"
           id="tspan7902">M. Chetouani</tspan></text></g><path
       style="fill:none;stroke:#a40000;stroke-width:0.75px;stroke-linecap:butt;stroke-linejoin:miter;stroke-opacity:1"
       d="m 78.851061,127.00407 89.690889,11.47892"
       id="path7908"
       sodipodi:nodetypes="cc" /><g
       id="g7920"
       transform="translate(-180.71883,68.99924)"><text
         xml:space="preserve"
         style="font-size:8.87168px;line-height:1.25;font-family:FredokaOne;-inkscape-font-specification:FredokaOne;letter-spacing:0px;word-spacing:0px;stroke-width:0.749999"
         x="296.97522"
         y="187.42838"
         id="text7912"><tspan
           sodipodi:role="line"
           id="tspan7910"
           x="296.97522"
           y="187.42838"
           style="font-style:normal;font-variant:normal;font-weight:normal;font-stretch:normal;font-family:Flama;-inkscape-font-specification:Flama;stroke-width:0.749999">WASHINGTON U.</tspan></text><text
         xml:space="preserve"
         style="font-size:6.36167px;line-height:1.25;font-family:FredokaOne;-inkscape-font-specification:FredokaOne;letter-spacing:0px;word-spacing:0px;stroke-width:0.749997"
         x="296.97943"
         y="193.34669"
         id="text7918"><tspan
           sodipodi:role="line"
           x="296.97943"
           y="193.34669"
           style="font-style:normal;font-variant:normal;font-weight:normal;font-stretch:normal;font-family:FlamaLight;-inkscape-font-specification:FlamaLight;stroke-width:0.749997"
           id="tspan7916">M. Cakmak</tspan></text></g><g
       id="g7932"
       transform="translate(24.209003,68.99924)"><text
         xml:space="preserve"
         style="font-size:8.87168px;line-height:1.25;font-family:FredokaOne;-inkscape-font-specification:FredokaOne;letter-spacing:0px;word-spacing:0px;stroke-width:0.749999"
         x="296.97522"
         y="187.42838"
         id="text7926"><tspan
           sodipodi:role="line"
           id="tspan7924"
           x="296.97522"
           y="187.42838"
           style="font-style:normal;font-variant:normal;font-weight:normal;font-stretch:normal;font-family:Flama;-inkscape-font-specification:Flama;stroke-width:0.749999">SYDNEY</tspan></text><text
         xml:space="preserve"
         style="font-size:6.36167px;line-height:1.25;font-family:FredokaOne;-inkscape-font-specification:FredokaOne;letter-spacing:0px;word-spacing:0px;stroke-width:0.749997"
         x="296.97943"
         y="193.34669"
         id="text7930"><tspan
           sodipodi:role="line"
           x="296.97943"
           y="193.34669"
           style="font-style:normal;font-variant:normal;font-weight:normal;font-stretch:normal;font-family:FlamaLight;-inkscape-font-specification:FlamaLight;stroke-width:0.749997"
           id="tspan7928">M.-A. Williams</tspan><tspan
           sodipodi:role="line"
           x="296.97943"
           y="201.4187"
           style="font-style:normal;font-variant:normal;font-weight:normal;font-stretch:normal;font-family:FlamaLight;-inkscape-font-specification:FlamaLight;stroke-width:0.749997"
           id="tspan7934">W. Johal</tspan></text></g><g
       id="g7944"
       transform="translate(-267.17146,-19.344214)"><text
         xml:space="preserve"
         style="font-size:8.87168px;line-height:1.25;font-family:FredokaOne;-inkscape-font-specification:FredokaOne;letter-spacing:0px;word-spacing:0px;stroke-width:0.749999"
         x="269.36035"
         y="190.08763"
         id="text7938"><tspan
           sodipodi:role="line"
           id="tspan7936"
           x="269.36035"
           y="190.08763"
           style="font-style:normal;font-variant:normal;font-weight:normal;font-stretch:normal;font-family:Flama;-inkscape-font-specification:Flama;stroke-width:0.749999">RAMON LLULL U.</tspan></text><text
         xml:space="preserve"
         style="font-size:6.36167px;line-height:1.25;font-family:FredokaOne;-inkscape-font-specification:FredokaOne;letter-spacing:0px;word-spacing:0px;stroke-width:0.749997"
         x="323.49243"
         y="196.95016"
         id="text7942"><tspan
           sodipodi:role="line"
           x="323.49243"
           y="196.95016"
           style="font-style:normal;font-variant:normal;font-weight:normal;font-stretch:normal;font-family:FlamaLight;-inkscape-font-specification:FlamaLight;stroke-width:0.749997"
           id="tspan7940">R. Ros</tspan></text></g><path
       style="fill:none;stroke:#a40000;stroke-width:0.75px;stroke-linecap:butt;stroke-linejoin:miter;stroke-opacity:1"
       d="m 77.803495,173.45667 80.972245,22.07711"
       id="path7946"
       sodipodi:nodetypes="cc" /><g
       id="g7956"
       transform="translate(-265.25757,2.7175694)"><text
         xml:space="preserve"
         style="font-size:8.87168px;line-height:1.25;font-family:FredokaOne;-inkscape-font-specification:FredokaOne;letter-spacing:0px;word-spacing:0px;stroke-width:0.749999"
         x="292.27911"
         y="190.08763"
         id="text7950"><tspan
           sodipodi:role="line"
           id="tspan7948"
           x="292.27911"
           y="190.08763"
           style="font-style:normal;font-variant:normal;font-weight:normal;font-stretch:normal;font-family:Flama;-inkscape-font-specification:Flama;stroke-width:0.749999">IST LISBON</tspan></text><text
         xml:space="preserve"
         style="font-size:6.36167px;line-height:1.25;font-family:FredokaOne;-inkscape-font-specification:FredokaOne;letter-spacing:0px;word-spacing:0px;stroke-width:0.749997"
         x="318.99243"
         y="196.95016"
         id="text7954"><tspan
           sodipodi:role="line"
           x="318.99243"
           y="196.95016"
           style="font-style:normal;font-variant:normal;font-weight:normal;font-stretch:normal;font-family:FlamaLight;-inkscape-font-specification:FlamaLight;stroke-width:0.749997"
           id="tspan7952">A. Paiva</tspan></text></g><path
       style="fill:none;stroke:#a40000;stroke-width:0.75px;stroke-linecap:butt;stroke-linejoin:miter;stroke-opacity:1"
       d="m 78.491133,195.01358 26.794367,7.50534"
       id="path7958"
       sodipodi:nodetypes="cc" /><g
       id="g7968"
       transform="translate(-265.15294,35.544297)"><text
         xml:space="preserve"
         style="font-size:8.87168px;line-height:1.25;font-family:FredokaOne;-inkscape-font-specification:FredokaOne;letter-spacing:0px;word-spacing:0px;stroke-width:0.749999"
         x="308.98203"
         y="190.08763"
         id="text7962"><tspan
           sodipodi:role="line"
           id="tspan7960"
           x="308.98203"
           y="190.08763"
           style="font-style:normal;font-variant:normal;font-weight:normal;font-stretch:normal;font-family:Flama;-inkscape-font-specification:Flama;stroke-width:0.749999">EU JRC</tspan></text><text
         xml:space="preserve"
         style="font-size:6.36167px;line-height:1.25;font-family:FredokaOne;-inkscape-font-specification:FredokaOne;letter-spacing:0px;word-spacing:0px;stroke-width:0.749997"
         x="315.42041"
         y="196.95016"
         id="text7966"><tspan
           sodipodi:role="line"
           x="315.42041"
           y="196.95016"
           style="font-style:normal;font-variant:normal;font-weight:normal;font-stretch:normal;font-family:FlamaLight;-inkscape-font-specification:FlamaLight;stroke-width:0.749997"
           id="tspan7964">V. Charisi</tspan></text></g><path
       style="fill:none;stroke:#a40000;stroke-width:0.75px;stroke-linecap:butt;stroke-linejoin:miter;stroke-opacity:1"
       d="m 75.332859,226.36002 43.803841,0.80852"
       id="path7970"
       sodipodi:nodetypes="cc" /><rect
       style="fill:none;stroke-width:4.59306;stroke-miterlimit:4;stroke-dasharray:none"
       id="ocean"
       y="-55.331474"
       x="524.81006"
       height="390.30664"
       width="609.1358" /><path
       d="m 249.76317,37.034777 c 0,1.33514 -1.06749,2.41944 -2.38521,2.41944 -1.31833,0 -2.3852,-1.0843 -2.3852,-2.41944 0,-1.33452 1.06687,-2.41695 2.3852,-2.41695 1.31772,0 2.38521,1.08243 2.38521,2.41695 z"
       style="fill:#a40000;fill-opacity:1;fill-rule:nonzero;stroke:none;stroke-width:0.858518"
       id="path1024" /><path
       style="fill:none;stroke:#a40000;stroke-width:0.75px;stroke-linecap:butt;stroke-linejoin:miter;stroke-opacity:1"
       d="m 247.8958,37.468049 45.90333,28.405612"
       id="path1026"
       sodipodi:nodetypes="cc" /><g
       id="g1036"
       transform="translate(0,-121.37877)"><text
         xml:space="preserve"
         style="font-size:8.87168px;line-height:1.25;font-family:FredokaOne;-inkscape-font-specification:FredokaOne;letter-spacing:0px;word-spacing:0px;stroke-width:0.749999"
         x="296.97522"
         y="187.42838"
         id="text1030"><tspan
           sodipodi:role="line"
           id="tspan1028"
           x="296.97522"
           y="187.42838"
           style="font-style:normal;font-variant:normal;font-weight:normal;font-stretch:normal;font-family:Flama;-inkscape-font-specification:Flama;stroke-width:0.749999">UPPSALA U.</tspan></text><text
         xml:space="preserve"
         style="font-size:6.36167px;line-height:1.25;font-family:FredokaOne;-inkscape-font-specification:FredokaOne;letter-spacing:0px;word-spacing:0px;stroke-width:0.749997"
         x="296.97943"
         y="193.34669"
         id="text1034"><tspan
           sodipodi:role="line"
           x="296.97943"
           y="193.34669"
           style="font-style:normal;font-variant:normal;font-weight:normal;font-stretch:normal;font-family:FlamaLight;-inkscape-font-specification:FlamaLight;stroke-width:0.749997"
           id="tspan1032">G. Castellano</tspan></text></g><g
       id="g1046"
       transform="translate(-251.90516,68.90165)"><text
         xml:space="preserve"
         style="font-size:8.87168px;line-height:1.25;font-family:FredokaOne;-inkscape-font-specification:FredokaOne;letter-spacing:0px;word-spacing:0px;stroke-width:0.749999"
         x="325.50287"
         y="187.42838"
         id="text1040"><tspan
           sodipodi:role="line"
           id="tspan1038"
           x="325.50287"
           y="187.42838"
           style="font-style:normal;font-variant:normal;font-weight:normal;font-stretch:normal;font-family:Flama;-inkscape-font-specification:Flama;stroke-width:0.749999">YALE</tspan></text><text
         xml:space="preserve"
         style="font-size:6.36167px;line-height:1.25;font-family:FredokaOne;-inkscape-font-specification:FredokaOne;letter-spacing:0px;word-spacing:0px;stroke-width:0.749997"
         x="325.50708"
         y="193.34669"
         id="text1044"><tspan
           sodipodi:role="line"
           x="325.50708"
           y="193.34669"
           style="font-style:normal;font-variant:normal;font-weight:normal;font-stretch:normal;font-family:FlamaLight;-inkscape-font-specification:FlamaLight;stroke-width:0.749997"
           id="tspan1042">B. Scasselatti</tspan></text></g><g
       id="g1056"
       transform="translate(-70.039419,68.99924)"><text
         xml:space="preserve"
         style="font-size:8.87168px;line-height:1.25;font-family:FredokaOne;-inkscape-font-specification:FredokaOne;letter-spacing:0px;word-spacing:0px;stroke-width:0.749999"
         x="325.50287"
         y="187.42838"
         id="text1050"><tspan
           sodipodi:role="line"
           id="tspan1048"
           x="325.50287"
           y="187.42838"
           style="font-style:normal;font-variant:normal;font-weight:normal;font-stretch:normal;font-family:Flama;-inkscape-font-specification:Flama;stroke-width:0.749999">J. HOPKINS U.</tspan></text><text
         xml:space="preserve"
         style="font-size:6.36167px;line-height:1.25;font-family:FredokaOne;-inkscape-font-specification:FredokaOne;letter-spacing:0px;word-spacing:0px;stroke-width:0.749997"
         x="325.50708"
         y="193.34669"
         id="text1054"><tspan
           sodipodi:role="line"
           x="325.50708"
           y="193.34669"
           style="font-style:normal;font-variant:normal;font-weight:normal;font-stretch:normal;font-family:FlamaLight;-inkscape-font-specification:FlamaLight;stroke-width:0.749997"
           id="tspan1052">C.-M. Huang</tspan></text></g><g
       id="g1049"
       transform="translate(-133.4942,68.90165)"><text
         xml:space="preserve"
         style="font-size:8.87168px;line-height:1.25;font-family:FredokaOne;-inkscape-font-specification:FredokaOne;letter-spacing:0px;word-spacing:0px;stroke-width:0.749999"
         x="325.50287"
         y="187.42838"
         id="text1043"><tspan
           sodipodi:role="line"
           id="tspan1041"
           x="325.50287"
           y="187.42838"
           style="font-style:normal;font-variant:normal;font-weight:normal;font-stretch:normal;font-family:Flama;-inkscape-font-specification:Flama;stroke-width:0.749999">COLORADO U.</tspan></text><text
         xml:space="preserve"
         style="font-size:6.36167px;line-height:1.25;font-family:FredokaOne;-inkscape-font-specification:FredokaOne;letter-spacing:0px;word-spacing:0px;stroke-width:0.749997"
         x="325.50708"
         y="193.34669"
         id="text1047"><tspan
           sodipodi:role="line"
           x="325.50708"
           y="193.34669"
           style="font-style:normal;font-variant:normal;font-weight:normal;font-stretch:normal;font-family:FlamaLight;-inkscape-font-specification:FlamaLight;stroke-width:0.749997"
           id="tspan1045">T. Williams</tspan></text></g><g
       id="g1059"
       transform="translate(-293.29124,72.972763)"><text
         xml:space="preserve"
         style="font-size:17.9653px;line-height:1.25;font-family:FredokaOne;-inkscape-font-specification:FredokaOne;letter-spacing:0px;word-spacing:0px;stroke-width:0.749998"
         x="351.75864"
         y="189.68713"
         id="text1053"><tspan
           sodipodi:role="line"
           id="tspan1051"
           x="351.75864"
           y="189.68713"
           style="font-style:normal;font-variant:normal;font-weight:bold;font-stretch:normal;font-family:Flama;-inkscape-font-specification:Flama;stroke-width:0.749998">+</tspan></text></g><g
       id="g1057"
       transform="translate(-270.07766,-41.399634)"
       style="fill:#1e8154;fill-opacity:1"><text
         xml:space="preserve"
         style="font-size:8.87168px;line-height:1.25;font-family:FredokaOne;-inkscape-font-specification:FredokaOne;letter-spacing:0px;word-spacing:0px;stroke-width:0.749999;fill:#1e8154;fill-opacity:1"
         x="321.49356"
         y="190.08763"
         id="text1051"><tspan
           sodipodi:role="line"
           id="tspan1049"
           x="321.49356"
           y="190.08763"
           style="font-style:normal;font-variant:normal;font-weight:normal;font-stretch:normal;font-family:Flama;-inkscape-font-specification:Flama;stroke-width:0.749999;fill:#1e8154;fill-opacity:1">LAAS</tspan></text><text
         xml:space="preserve"
         style="font-size:6.36167px;line-height:1.25;font-family:FredokaOne;-inkscape-font-specification:FredokaOne;letter-spacing:0px;word-spacing:0px;stroke-width:0.749997;fill:#1e8154;fill-opacity:1"
         x="321.99243"
         y="196.95016"
         id="text1055"><tspan
           sodipodi:role="line"
           x="321.99243"
           y="196.95016"
           style="font-style:normal;font-variant:normal;font-weight:normal;font-stretch:normal;font-family:FlamaLight;-inkscape-font-specification:FlamaLight;stroke-width:0.749997;fill:#1e8154;fill-opacity:1"
           id="tspan1053">R. Alami</tspan></text></g><path
       d="m 162.8486,170.97803 c 0,1.25236 -1.004,2.27068 -2.23894,2.27068 -1.23803,0 -2.23955,-1.01832 -2.23955,-2.27068 0,-1.25485 1.00152,-2.27317 2.23955,-2.27317 1.23494,0 2.23894,1.01832 2.23894,2.27317 z"
       style="fill:#a40000;fill-opacity:1;fill-rule:nonzero;stroke:none;stroke-width:0.858518"
       id="path1061"
       sodipodi:nodetypes="sssss" /><path
       style="fill:none;stroke:#a40000;stroke-width:0.75px;stroke-linecap:butt;stroke-linejoin:miter;stroke-opacity:1"
       d="m 78.535426,149.68442 82.177794,21.14071"
       id="path1063"
       sodipodi:nodetypes="cc" /></g></svg>
