<?xml version="1.0" encoding="UTF-8" standalone="no"?>
<svg
   xmlns:dc="http://purl.org/dc/elements/1.1/"
   xmlns:cc="http://creativecommons.org/ns#"
   xmlns:rdf="http://www.w3.org/1999/02/22-rdf-syntax-ns#"
   xmlns:svg="http://www.w3.org/2000/svg"
   xmlns="http://www.w3.org/2000/svg"
   xmlns:sodipodi="http://sodipodi.sourceforge.net/DTD/sodipodi-0.dtd"
   xmlns:inkscape="http://www.inkscape.org/namespaces/inkscape"
   width="366.34152"
   height="422.63892"
   id="svg2"
   version="1.1"
   inkscape:version="0.91 r13725"
   sodipodi:docname="europe_epfl.svg">
  <metadata
     id="metadata16">
    <rdf:RDF>
      <cc:Work
         rdf:about="">
        <dc:format>image/svg+xml</dc:format>
        <dc:type
           rdf:resource="http://purl.org/dc/dcmitype/StillImage" />
        <dc:title>Europe Map Blue</dc:title>
      </cc:Work>
    </rdf:RDF>
  </metadata>
  <defs
     id="defs14">
    <clipPath
       id="clipPath4183"
       clipPathUnits="userSpaceOnUse">
      <path
         inkscape:connector-curvature="0"
         id="path4185"
         d="m 0,0 362.83502,0 0,272.409 L 0,272.409 0,0 Z" />
    </clipPath>
  </defs>
  <sodipodi:namedview
     pagecolor="#ffffff"
     bordercolor="#666666"
     borderopacity="1"
     objecttolerance="10"
     gridtolerance="10"
     guidetolerance="10"
     inkscape:pageopacity="0"
     inkscape:pageshadow="2"
     inkscape:window-width="1920"
     inkscape:window-height="1026"
     id="namedview12"
     showgrid="false"
     fit-margin-top="0"
     fit-margin-left="0"
     fit-margin-right="0"
     fit-margin-bottom="0"
     inkscape:zoom="2.1577143"
     inkscape:cx="129.10334"
     inkscape:cy="247.22824"
     inkscape:window-x="0"
     inkscape:window-y="867"
     inkscape:window-maximized="1"
     inkscape:current-layer="layer1"
     inkscape:snap-bbox="true"
     inkscape:bbox-paths="true"
     inkscape:bbox-nodes="true"
     inkscape:snap-bbox-edge-midpoints="true"
     inkscape:snap-global="false" />
  <title
     id="title4">Europe Map Blue</title>
  <g
     id="g6"
     transform="translate(-23.128229,-396.73924)">
    <title
       id="title8">Layer 1</title>
    <g
       id="layer1">
      <g
         id="g4153"
         style="fill:#46413c;stroke:#aaa5a0;fill-opacity:1;stroke-opacity:1">
        <path
           style="fill:#46413c;opacity:1;fill-opacity:1;stroke:#aaa5a0;stroke-opacity:1"
           inkscape:connector-curvature="0"
           id="path4238"
           d="m 267.37064,729.48694 c -0.1041,-1.20813 -0.68039,-4.71759 -1.28067,-7.79883 -0.89246,-4.58081 -0.38233,-5.97553 2.79822,-7.65002 3.97436,-2.09247 6.91299,-0.138 6.98062,4.64276 0.10635,7.52032 -7.90375,17.70581 -8.49817,10.80609 z" />
        <path
           style="opacity:1;fill:#46413c;fill-opacity:1;stroke:#aaa5a0;stroke-opacity:1"
           inkscape:connector-curvature="0"
           id="path4234"
           d="m 178.04784,715.03522 c -2.11478,-3.45929 -11.35849,-5.64832 -21.69472,-5.13745 -9.96391,0.49243 -20.85959,-3.21009 -18.85175,-6.40607 0.58136,-0.92536 -0.13154,-1.6825 -1.58423,-1.6825 -2.29158,0 -2.32075,-0.87237 -0.22036,-6.5899 1.33149,-3.62451 3.12953,-12.52094 3.99563,-19.76984 1.40625,-11.76959 0.90833,-15.91565 1.62328,-19.43225 0.85982,-4.22931 0.26729,-5.39673 -3.62462,-7.14117 -5.19434,-2.32825 -10.74836,-9.57276 -9.2128,-12.01697 0.54852,-0.87311 -0.71101,-2.76453 -2.79893,-4.20325 -2.08794,-1.43866 -3.25972,-3.46972 -2.60399,-4.51349 0.70902,-1.12854 -0.3274,-1.89776 -2.55701,-1.89776 -2.0621,0 -6.96027,-1.61151 -10.88477,-3.58112 -3.92452,-1.9696 -7.94399,-3.08954 -8.93216,-2.48871 -1.122079,0.68219 -1.378007,-0.54864 -0.68164,-3.27813 0.81055,-3.17707 0.22446,-4.86078 -2.146463,-6.16608 -4.293648,-2.36377 -2.11393,-4.27075 5.150343,-4.50586 3.21705,-0.10406 6.84394,-1.37543 8.05977,-2.82526 1.92505,-2.29547 2.64329,-2.09259 5.56053,1.57074 1.9967,2.50745 4.21835,3.67872 5.4998,2.8996 1.18246,-0.71893 4.77047,-1.30713 7.97338,-1.30713 l 5.82344,0 -1.23616,-7.29291 c -0.67989,-4.01104 -1.86791,-8.76873 -2.64008,-10.57257 -1.24588,-2.91058 -0.9713,-3.052 2.43965,-1.25616 2.11396,1.11297 3.84355,2.68548 3.84355,3.49444 0,1.89881 13.17391,3.98871 16.71553,2.6518 1.48978,-0.56244 2.26917,-2.14929 1.73195,-3.52649 -0.66278,-1.69916 1.6147,-3.63159 7.08605,-6.01251 7.97621,-3.47089 11.97973,-9.36695 11.97973,-17.64276 0,-1.82056 2.12285,-3.80854 5.19037,-4.86048 4.51328,-1.54779 5.31255,-1.32037 6.12686,1.74298 0.70107,2.63733 1.86611,3.23267 4.63454,2.36829 2.48873,-0.77704 3.69803,-0.38165 3.69803,1.20923 0,3.13122 5.85497,7.96136 8.57101,7.07074 1.1809,-0.38727 2.24756,0.15265 2.37037,1.19971 0.12281,1.04705 0.34317,2.89227 0.48967,4.1004 0.14651,1.20813 1.74406,2.07202 3.55009,1.91968 1.80603,-0.15235 5.60489,1.75756 8.44191,4.24432 2.83704,2.48669 7.17758,4.73309 9.64568,4.99194 2.46809,0.25885 7.57472,-0.0484 12.90578,2.43258 5.33105,2.48108 17.03481,7.05998 18.07812,7.05998 2.47516,0 0.32071,2.80957 -2.2713,7.57409 -1.14554,2.10566 -3.47018,8.20252 -4.59947,12.55738 -1.21442,4.68317 -5.76513,7.13952 -7.2809,7.18677 -1.40953,0.0439 -2.39373,0.93829 -2.18711,1.98742 0.20664,1.04914 -1.20012,3.31043 -3.1261,5.02515 -1.92598,1.71466 -3.50178,4.09656 -3.50178,5.29315 0,1.19659 -1.25674,2.65002 -2.79274,3.22986 -1.53601,0.57983 -2.27066,1.88525 -1.63255,2.901 0.63809,1.01568 0.0862,3.18225 -1.22655,4.81463 -2.03404,2.52948 -1.61685,2.48377 2.82349,-0.30938 5.04303,-3.17224 5.28689,-3.17432 7.59867,-0.0642 1.5129,2.0354 1.76471,3.8269 0.68694,4.88721 -1.07777,1.06024 -0.74896,3.4859 0.89696,6.617 2.40767,4.58026 2.32689,5.08618 -1.10006,6.89044 -2.94204,1.54895 -3.26867,2.45673 -1.59697,4.43823 1.15584,1.37006 1.65459,3.63685 1.10833,5.03724 -1.43277,3.67309 5.43582,11.64184 8.90559,10.33203 2.38753,-0.90131 2.50516,-0.48346 0.76462,2.71594 -1.13136,2.07959 -2.80487,3.78113 -3.71893,3.78113 -0.91404,0 -4.19872,2.43951 -7.29928,5.42108 -3.31924,3.19195 -6.83371,5.06055 -8.54672,4.54407 -1.60016,-0.48237 -5.52189,-1.73572 -8.71499,-2.78516 -15.2249,-5.00378 -15.70949,-5.02625 -22.93007,-1.06055 -4.59455,2.52344 -7.19617,5.29541 -7.58907,8.086 -0.32883,2.33551 -1.23254,4.89813 -2.00831,5.69483 -2.32102,2.3836 -10.78605,2.63031 -12.17708,0.35498 z"
           sodipodi:nodetypes="cssssssssccsscsccccsscscssccsscssscssscscssscccssccsscsssscssccsssscc" />
      </g>
      <path
         d="m 242.04581,651.43877 c -1.54132,-3.66059 -4.45972,-2.07121 -6.83112,-1.46117 -4.14322,2.19471 -7.16857,5.03586 -2.39765,-6.79925 1.4681,-0.5542 2.78514,-2.65 2.78514,-3.94932 0,-1.29925 3.89871,-7.28878 6.68125,-9.91127 4.87107,-4.59095 9.45157,-6.11969 25.07255,-7.57806 6.9968,-0.65314 7.8151,3.20775 8.20899,8.60173 0.4303,5.89319 4.94431,10.61926 8.76508,9.17694 3.29623,-1.24432 2.81625,0.26129 -1.40802,4.41693 -2.96619,2.91797 -4.20414,3.2143 -6.29541,1.5069 -1.43174,-1.16894 -2.7847,-1.81494 -3.00656,-1.43555 -0.22187,0.37934 -1.26471,2.22425 -2.31739,4.0998 -2.74585,4.89215 -6.20257,5.4627 -7.33297,1.21038 -0.78983,-2.97131 -1.60587,-3.32428 -4.34784,-1.88061 -1.85654,0.97741 -3.37552,2.84576 -3.37552,4.15179 0,1.30609 -2.374,2.71747 -5.27553,3.13642 -4.46976,0.64538 -7.10913,1.02697 -8.925,-3.28566 z"
         id="path4220"
         inkscape:connector-curvature="0"
         style="opacity:1;fill:#56504a;fill-opacity:1;stroke:#aaa5a0;stroke-opacity:1"
         sodipodi:nodetypes="sccsscsssscsccsss" />
      <path
         d="m 280.25058,626.14624 c -2.88617,-1.87701 -6.25241,-3.04303 -7.48053,-2.59106 -1.22812,0.45196 -2.23294,0.13458 -2.23294,-0.70533 0,-1.70782 -7.17575,-1.35321 -14.93257,0.73792 -5.0418,1.35913 -5.09084,1.30017 -3.80129,-4.57306 0.71854,-3.27252 2.77574,-8.80633 4.57163,-12.29736 l 3.26516,-6.34741 -11.07515,-4.28522 c -9.52537,-3.68561 -11.07518,-4.90985 -11.07518,-8.74841 0,-2.45472 -0.98568,-5.6363 -2.19043,-7.07019 -1.643,-1.95557 -1.68016,-3.10914 -0.14857,-4.61579 1.5316,-1.50671 1.27275,-3.68664 -1.03577,-8.72284 -2.3282,-5.0791 -2.64679,-7.82898 -1.3083,-11.29223 0.97314,-2.51795 1.35353,-6.1424 0.8453,-8.05432 -0.68945,-2.59363 0.16962,-3.74622 3.38355,-4.53974 5.47732,-1.35242 9.78212,-9.55804 5.80241,-11.06036 -3.38968,-1.2796 -3.4803,-4.14606 -0.13108,-4.14606 3.1878,0 5.26815,-8.8576 3.71463,-15.81586 -1.13677,-5.09149 -0.95818,-5.27194 5.21708,-5.27194 3.5168,0 6.19319,0.59311 5.94759,1.31799 -0.51065,1.50696 1.04239,2.19666 4.94647,2.19666 1.98166,0 2.41968,-1.15186 1.62402,-4.27054 -0.96704,-3.79046 -0.61944,-4.15127 3.09204,-3.20968 2.29993,0.58346 4.98551,2.02996 5.96799,3.21444 0.98248,1.18445 3.79599,2.66657 6.2522,3.29358 4.07562,1.04041 4.16131,0.95423 0.98065,-0.98624 -4.47592,-2.73065 -12.72751,-12.38763 -12.14532,-14.21386 0.24563,-0.77051 -0.55823,-1.42493 -1.78632,-1.45432 -1.24478,-0.0298 -0.85501,-0.84311 0.88074,-1.8378 2.91482,-1.67044 2.92453,-2.06833 0.15188,-6.2312 l -2.96182,-4.44684 6.99353,1.22583 c 8.57294,1.50269 11.55978,3.82398 7.87173,6.11777 -2.39904,1.49207 -1.26052,2.46411 2.24787,1.91913 0.73688,-0.11444 1.33975,0.4483 1.33975,1.25055 0,0.80224 2.81351,1.36682 6.25223,1.25458 6.32004,-0.2063 8.40835,1.85507 3.68545,3.63797 -1.41168,0.53292 -2.20602,1.89199 -1.76522,3.02017 0.89602,2.29315 9.69101,3.34961 9.69101,1.16406 0,-1.54538 13.35357,-8.77811 16.20681,-8.77811 0.99332,0 3.50187,1.55426 5.57456,3.45386 2.07269,1.89963 4.48587,3.01776 5.36261,2.48471 5.54336,-3.37033 11.64969,12.88797 7.67813,20.4433 -2.26691,4.3125 -2.20087,5.12091 0.62378,7.63562 1.73749,1.54688 4.07608,6.58533 5.19684,11.19659 4.42446,18.20386 4.45272,19.37696 0.5596,23.20679 -2.029,1.99603 -5.01859,3.62915 -6.64353,3.62915 -1.62494,0 -8.12353,2.84375 -14.44131,6.31946 -10.56571,5.81262 -11.39405,6.69348 -10.32877,10.98321 0.63699,2.56513 5.32691,8.87159 10.42206,14.01441 l 9.26392,9.35058 -6.79407,5.66504 c -6.21607,5.18311 -6.63397,6.07923 -4.91245,10.53363 2.51056,6.49598 2.42331,6.75971 -1.44925,4.3805 -2.55203,-1.56787 -5.16253,-1.52692 -11.16467,0.17517 -4.30859,1.2218 -9.84341,2.34576 -12.29965,2.49768 -2.45624,0.15192 -5.31986,0.81219 -6.36365,1.46722 -1.04376,0.65509 -4.25918,-0.34472 -7.14538,-2.2218 z"
         id="path4216"
         inkscape:connector-curvature="0"
         style="fill:#46413c;opacity:1;fill-opacity:1;stroke:#aaa5a0;stroke-opacity:1" />
      <g
         id="g4157"
         style="fill:#46413c;stroke:#aaa5a0;fill-opacity:1;stroke-opacity:1">
        <path
           style="fill:#46413c;opacity:1;fill-opacity:1;stroke:#aaa5a0;stroke-opacity:1"
           inkscape:connector-curvature="0"
           id="path4204"
           d="m 91.143577,570.44977 c 9.383473,-12.30799 12.093383,-14.43579 18.425483,-14.46753 5.96943,-0.03 8.89671,-2.24207 12.83007,-9.69562 1.59949,-3.03101 1.5339,-3.13098 -0.47676,-0.72638 -1.28231,1.53357 -4.20602,3.77075 -6.49715,4.97156 -3.51085,1.84003 -4.50826,1.72235 -6.34492,-0.7486 -1.19859,-1.61255 -3.34331,-2.73651 -4.76606,-2.49774 -1.42274,0.23877 -4.00377,-0.17444 -5.735658,-0.91827 -1.849899,-0.79456 -4.244804,-0.45764 -5.805626,0.81665 -1.461227,1.19299 -2.716484,1.87457 -2.789497,1.51458 -1.578438,-7.78259 -1.434006,-8.11535 4.200539,-9.67883 3.943375,-1.09411 6.740202,-3.52283 8.877672,-7.7091 1.8341,-3.59211 2.38183,-6.35468 1.32863,-6.70112 -0.98558,-0.32415 -1.33756,-1.31268 -0.78223,-2.19665 0.55537,-0.88391 -0.27176,-1.60718 -1.83806,-1.60718 -2.294233,0 -2.476141,-0.68317 -0.93573,-3.51465 2.06438,-3.79467 11.38943,-4.95379 13.45119,-1.67199 0.79416,1.2641 1.93339,1.20929 3.62832,-0.1745 2.09426,-1.70984 2.06064,-2.42054 -0.2207,-4.6648 -1.64257,-1.6159 -2.08672,-3.43112 -1.13972,-4.65814 2.61145,-3.38364 1.56809,-12.55435 -1.42833,-12.55435 -5.64557,0 -6.76773,-8.27945 -1.78634,-13.1799 3.57268,-3.51462 3.57268,-3.51462 -0.89318,-3.51462 -2.45622,0 -4.46586,0.70618 -4.46586,1.5693 0,2.59134 -5.64398,3.90036 -8.115729,1.88233 -1.717216,-1.40201 -2.455566,-1.10608 -2.899681,1.1622 -0.564392,2.88244 -0.75988,2.88177 -3.702881,-0.0135 -2.951828,-2.9039 -2.930191,-3.39764 0.433289,-9.88345 2.274162,-4.38529 2.880234,-7.22821 1.694611,-7.94907 -1.015137,-0.61719 -1.318314,-2.75683 -0.673729,-4.75476 0.890785,-2.76099 0.53183,-3.3909 -1.49601,-2.6254 -1.467392,0.55393 -3.569801,0.12003 -4.672005,-0.96429 -1.481133,-1.45706 -2.036781,-1.30661 -2.12957,0.57666 -0.07603,1.5426 -0.689697,1.16119 -1.555145,-0.96652 -0.941452,-2.31452 -0.26281,-5.91489 1.987389,-10.54392 l 3.417023,-7.02926 -4.367493,5.08627 c -2.81572,3.27911 -5.38134,4.70358 -7.220894,4.00912 -3.819756,-1.44195 -3.638077,-4.66726 0.272705,-4.84085 1.719475,-0.0763 2.160141,-0.52484 0.979355,-0.99682 -1.590607,-0.63581 -1.35923,-2.53467 0.893166,-7.32987 1.671974,-3.55945 3.843788,-7.05273 4.826279,-7.76285 1.008751,-0.72906 0.42556,-1.30276 -1.33976,-1.31799 -4.66433,-0.0401 -4.308327,-9.96484 0.410286,-11.43811 1.94503,-0.6073 3.38797,-1.64908 3.206528,-2.31509 -0.181442,-0.66599 0.636986,-3.97867 1.818726,-7.36151 l 2.148621,-6.15061 11.615139,-0.16302 c 13.56903,-0.19046 14.75625,1.78229 5.32947,8.85559 -3.45711,2.59402 -5.83526,5.43332 -5.2848,6.30954 0.5505,0.87622 -0.33075,3.59247 -1.95831,6.03607 -3.321135,4.9863 -1.988189,5.51025 4.59708,1.80695 4.81942,-2.71024 22.42363,-3.57193 23.93176,-1.17139 1.83205,2.91614 -7.58981,22.24661 -12.212,25.05493 -6.58869,4.00314 -7.88485,5.73963 -3.23462,4.33344 6.78659,-2.05222 4.44735,1.67776 -2.63147,4.19589 -6.4083,2.27963 -6.49653,2.42197 -2.42063,3.90524 2.32659,0.84665 5.58587,1.11609 7.24289,0.59873 4.17632,-1.30399 14.68279,6.08743 16.21782,11.40939 0.69695,2.41632 2.16914,7.65964 3.27155,11.65185 1.52589,5.52573 3.29818,7.78574 7.42395,9.46692 7.75105,3.15842 9.28494,6.97205 4.93156,12.26087 l -3.58644,4.35711 5.40523,2.16971 c 6.69629,2.68796 8.87126,8.37106 4.86879,12.72189 -2.70597,2.94147 -2.68772,3.25837 0.25149,4.36792 1.74303,0.65796 3.45244,0.3603 3.79866,-0.66156 0.90314,-2.66534 9.56336,-2.18817 13.49883,0.74378 5.14343,3.83185 2.59478,14.13293 -4.37378,17.67798 -2.93555,1.49334 -4.91374,3.3894 -4.39603,4.2135 0.51772,0.8241 -0.31079,1.97101 -1.84117,2.5487 -4.33003,1.63465 -1.16641,4.58991 4.91351,4.58991 4.74718,0 5.16693,0.362 3.16761,2.73187 -4.09232,4.85083 -9.53264,6.79584 -19.56888,6.99616 -19.76982,0.39465 -23.43224,0.81762 -22.32601,2.57849 1.23728,1.96936 -4.10785,1.54175 -7.61126,-0.60895 -3.49205,-2.14368 -8.61463,0.22748 -10.83144,5.01373 -1.76005,3.80011 -2.54388,4.10376 -6.27569,2.43109 -3.31347,-1.48516 -5.494863,-1.28546 -9.782339,0.89563 -8.048874,4.09461 -8.467941,3.5445 -2.88163,-3.78283 z" />
        <path
           style="fill:#46413c;opacity:1;fill-opacity:1;stroke:#aaa5a0;stroke-opacity:1"
           inkscape:connector-curvature="0"
           id="path4194"
           d="m 72.947807,496.1459 c -2.073944,-0.77331 -4.344269,-2.85607 -5.045174,-4.62838 -1.183365,-2.99231 -1.519966,-2.92615 -4.714344,0.92627 l -3.439968,4.14865 -3.34734,-4.06659 c -3.334572,-4.05112 -3.322002,-4.09131 3.291107,-10.53226 8.489269,-8.26828 14.137478,-10.18365 17.336994,-5.87915 1.302963,1.75296 2.369034,4.61765 2.369034,6.36597 0,1.74832 0.803864,3.17877 1.786354,3.17877 2.858536,0 2.064369,5.13104 -1.33976,8.65585 -2.236061,2.31534 -4.199715,2.83661 -6.896904,1.83088 z" />
      </g>
      <ellipse
         style="opacity:1;fill:#a40000;fill-opacity:1;stroke:none;stroke-width:5.5;stroke-linecap:butt;stroke-miterlimit:4;stroke-dasharray:none;stroke-dashoffset:0;stroke-opacity:1"
         id="ellipse4329"
         cx="239.28905"
         cy="642.58423"
         rx="8.6206207"
         ry="8.7420378" />
      <g
         transform="matrix(0.84836276,0,0,0.84836276,320.92812,91.106978)"
         id="layer1-7"
         inkscape:label="Layer 1">
        <g
           id="g4461"
           transform="translate(2.7807203,-1.1586335)">
          <rect
             y="675.82697"
             x="-110.21045"
             height="36.063976"
             width="79.464569"
             id="rect4459"
             style="opacity:1;fill:#ffffff;fill-opacity:1;stroke:none;stroke-width:5.5;stroke-linecap:butt;stroke-miterlimit:4;stroke-dasharray:none;stroke-dashoffset:0;stroke-opacity:1" />
          <g
             transform="matrix(0.65930322,0,0,-0.65930322,-109.9205,711.69692)"
             inkscape:label="logo"
             id="g5345">
            <g
               transform="scale(0.1,0.1)"
               id="g5347">
              <path
                 inkscape:connector-curvature="0"
                 id="path5349"
                 style="fill:#fd1412;fill-opacity:1;fill-rule:nonzero;stroke:none"
                 d="m 10,210 380,0 c -60,80 -60,240 0,320 l -380,0" />
              <path
                 inkscape:connector-curvature="0"
                 id="path5351"
                 style="fill:#fd1412;fill-opacity:1;fill-rule:nonzero;stroke:none"
                 d="m 810,530 0,-180 c 0,-60 44,-140 44,-140 l 336,0 0,320" />
              <path
                 inkscape:connector-curvature="0"
                 id="path5353"
                 style="fill:#000000;fill-opacity:1;fill-rule:nonzero;stroke:none"
                 d="m 430,210 c -60,80 -60,240 0,320 l 44,0 c -64,-80 -64,-240 0,-320" />
              <path
                 inkscape:connector-curvature="0"
                 id="path5355"
                 style="fill:#000000;fill-opacity:1;fill-rule:nonzero;stroke:none"
                 d="m 410,354 60,0 0,32 -60,0 0,-32 z" />
              <path
                 inkscape:connector-curvature="0"
                 id="path5357"
                 style="fill:#000000;fill-opacity:1;fill-rule:nonzero;stroke:none"
                 d="m 500,210 40,0 0,320 -40,0 0,-320 z" />
              <path
                 inkscape:connector-curvature="0"
                 id="path5359"
                 style="fill:#000000;fill-opacity:1;fill-rule:nonzero;stroke:none"
                 d="m 548,370 c 40,40 40,120 0,160 l 40,0 c 40,-40 40,-120 0,-160" />
              <path
                 inkscape:connector-curvature="0"
                 id="path5361"
                 style="fill:#000000;fill-opacity:1;fill-rule:nonzero;stroke:none"
                 d="m 630,210 0,160 c 0,80 40,160 40,160 l 44,0 c 0,0 -44,-80 -44,-160 l 0,-160" />
              <path
                 inkscape:connector-curvature="0"
                 id="path5363"
                 style="fill:#000000;fill-opacity:1;fill-rule:nonzero;stroke:none"
                 d="m 650,354 60,0 0,32 -60,0 0,-32 z" />
              <path
                 inkscape:connector-curvature="0"
                 id="path5365"
                 style="fill:#000000;fill-opacity:1;fill-rule:nonzero;stroke:none"
                 d="m 730,530 40,0 0,-180 c 0,-60 44,-140 44,-140 l -44,0 c 0,0 -40,80 -40,140" />
              <g
                 transform="scale(10,10)"
                 id="g5367">
                <text
                   id="text5369"
                   style="font-variant:normal;font-weight:normal;font-size:9.60000038px;font-family:'Times New Roman';-inkscape-font-specification:Times-Roman;writing-mode:lr-tb;fill:#000000;fill-opacity:1;fill-rule:nonzero;stroke:none"
                   transform="matrix(0.875,0,0,-1,1,11)">
                  <tspan
                     id="tspan5371"
                     sodipodi:role="line"
                     y="0"
                     x="0 7.0625701 14.66274 22.790911 29.853479 36.91605 40.51302 47.047588 55.175758 62.238331 70.366501 77.42907 84.491638 92.091812 100.21998 108.34815 112.74192 120.87009 128.99826">ÉCOLE POLYTECHNIQUE</tspan>
                  <tspan
                     id="tspan5373"
                     sodipodi:role="line"
                     y="10"
                     x="0 6.204823 12.937646 20.736069 27.468891 34.739315 42.537739 49.270561 56.003384 59.270607 67.069031 73.801849 77.069077 83.801903 91.600319 99.398743 105.60357 113.40199 121.20042 128.99884">FÉDÉRALE DE LAUSANNE</tspan>
                </text>
              </g>
            </g>
          </g>
        </g>
      </g>
    </g>
  </g>
</svg>
