<?xml version="1.0" encoding="UTF-8" standalone="no"?>
<svg
   xmlns:dc="http://purl.org/dc/elements/1.1/"
   xmlns:cc="http://creativecommons.org/ns#"
   xmlns:rdf="http://www.w3.org/1999/02/22-rdf-syntax-ns#"
   xmlns:svg="http://www.w3.org/2000/svg"
   xmlns="http://www.w3.org/2000/svg"
   xmlns:sodipodi="http://sodipodi.sourceforge.net/DTD/sodipodi-0.dtd"
   xmlns:inkscape="http://www.inkscape.org/namespaces/inkscape"
   width="366.34152"
   height="422.63892"
   id="svg2"
   version="1.1"
   inkscape:version="0.91 r13725"
   sodipodi:docname="europe_plym.svg">
  <metadata
     id="metadata16">
    <rdf:RDF>
      <cc:Work
         rdf:about="">
        <dc:format>image/svg+xml</dc:format>
        <dc:type
           rdf:resource="http://purl.org/dc/dcmitype/StillImage" />
        <dc:title>Europe Map Blue</dc:title>
      </cc:Work>
    </rdf:RDF>
  </metadata>
  <defs
     id="defs14">
    <clipPath
       id="clipPath4183"
       clipPathUnits="userSpaceOnUse">
      <path
         inkscape:connector-curvature="0"
         id="path4185"
         d="m 0,0 362.83502,0 0,272.409 L 0,272.409 0,0 Z" />
    </clipPath>
  </defs>
  <sodipodi:namedview
     pagecolor="#ffffff"
     bordercolor="#666666"
     borderopacity="1"
     objecttolerance="10"
     gridtolerance="10"
     guidetolerance="10"
     inkscape:pageopacity="0"
     inkscape:pageshadow="2"
     inkscape:window-width="1920"
     inkscape:window-height="1026"
     id="namedview12"
     showgrid="false"
     fit-margin-top="0"
     fit-margin-left="0"
     fit-margin-right="0"
     fit-margin-bottom="0"
     inkscape:zoom="2.1577143"
     inkscape:cx="129.10334"
     inkscape:cy="247.22824"
     inkscape:window-x="0"
     inkscape:window-y="867"
     inkscape:window-maximized="1"
     inkscape:current-layer="layer1"
     inkscape:snap-bbox="true"
     inkscape:bbox-paths="true"
     inkscape:bbox-nodes="true"
     inkscape:snap-bbox-edge-midpoints="true"
     inkscape:snap-global="false" />
  <title
     id="title4">Europe Map Blue</title>
  <g
     id="g6"
     transform="translate(-23.128229,-396.73924)">
    <title
       id="title8">Layer 1</title>
    <g
       id="layer1">
      <g
         id="g4153"
         style="fill:#46413c;stroke:#aaa5a0;fill-opacity:1;stroke-opacity:1">
        <path
           style="fill:#46413c;opacity:1;fill-opacity:1;stroke:#aaa5a0;stroke-opacity:1"
           inkscape:connector-curvature="0"
           id="path4238"
           d="m 267.37064,729.48694 c -0.1041,-1.20813 -0.68039,-4.71759 -1.28067,-7.79883 -0.89246,-4.58081 -0.38233,-5.97553 2.79822,-7.65002 3.97436,-2.09247 6.91299,-0.138 6.98062,4.64276 0.10635,7.52032 -7.90375,17.70581 -8.49817,10.80609 z" />
        <path
           style="opacity:1;fill:#46413c;fill-opacity:1;stroke:#aaa5a0;stroke-opacity:1"
           inkscape:connector-curvature="0"
           id="path4234"
           d="m 178.04784,715.03522 c -2.11478,-3.45929 -11.35849,-5.64832 -21.69472,-5.13745 -9.96391,0.49243 -20.85959,-3.21009 -18.85175,-6.40607 0.58136,-0.92536 -0.13154,-1.6825 -1.58423,-1.6825 -2.29158,0 -2.32075,-0.87237 -0.22036,-6.5899 1.33149,-3.62451 3.12953,-12.52094 3.99563,-19.76984 1.40625,-11.76959 0.90833,-15.91565 1.62328,-19.43225 0.85982,-4.22931 0.26729,-5.39673 -3.62462,-7.14117 -5.19434,-2.32825 -10.74836,-9.57276 -9.2128,-12.01697 0.54852,-0.87311 -0.71101,-2.76453 -2.79893,-4.20325 -2.08794,-1.43866 -3.25972,-3.46972 -2.60399,-4.51349 0.70902,-1.12854 -0.3274,-1.89776 -2.55701,-1.89776 -2.0621,0 -6.96027,-1.61151 -10.88477,-3.58112 -3.92452,-1.9696 -7.94399,-3.08954 -8.93216,-2.48871 -1.122079,0.68219 -1.378007,-0.54864 -0.68164,-3.27813 0.81055,-3.17707 0.22446,-4.86078 -2.146463,-6.16608 -4.293648,-2.36377 -2.11393,-4.27075 5.150343,-4.50586 3.21705,-0.10406 6.84394,-1.37543 8.05977,-2.82526 1.92505,-2.29547 2.64329,-2.09259 5.56053,1.57074 1.9967,2.50745 4.21835,3.67872 5.4998,2.8996 1.18246,-0.71893 4.77047,-1.30713 7.97338,-1.30713 l 5.82344,0 -1.23616,-7.29291 c -0.67989,-4.01104 -1.86791,-8.76873 -2.64008,-10.57257 -1.24588,-2.91058 -0.9713,-3.052 2.43965,-1.25616 2.11396,1.11297 3.84355,2.68548 3.84355,3.49444 0,1.89881 13.17391,3.98871 16.71553,2.6518 1.48978,-0.56244 2.26917,-2.14929 1.73195,-3.52649 -0.66278,-1.69916 1.6147,-3.63159 7.08605,-6.01251 7.97621,-3.47089 11.97973,-9.36695 11.97973,-17.64276 0,-1.82056 2.12285,-3.80854 5.19037,-4.86048 4.51328,-1.54779 5.31255,-1.32037 6.12686,1.74298 0.70107,2.63733 1.86611,3.23267 4.63454,2.36829 2.48873,-0.77704 3.69803,-0.38165 3.69803,1.20923 0,3.13122 5.85497,7.96136 8.57101,7.07074 1.1809,-0.38727 2.24756,0.15265 2.37037,1.19971 0.12281,1.04705 0.34317,2.89227 0.48967,4.1004 0.14651,1.20813 1.74406,2.07202 3.55009,1.91968 1.80603,-0.15235 5.60489,1.75756 8.44191,4.24432 2.83704,2.48669 7.17758,4.73309 9.64568,4.99194 2.46809,0.25885 7.57472,-0.0484 12.90578,2.43258 5.33105,2.48108 17.03481,7.05998 18.07812,7.05998 2.47516,0 0.32071,2.80957 -2.2713,7.57409 -1.14554,2.10566 -3.47018,8.20252 -4.59947,12.55738 -1.21442,4.68317 -5.76513,7.13952 -7.2809,7.18677 -1.40953,0.0439 -2.39373,0.93829 -2.18711,1.98742 0.20664,1.04914 -1.20012,3.31043 -3.1261,5.02515 -1.92598,1.71466 -3.50178,4.09656 -3.50178,5.29315 0,1.19659 -1.25674,2.65002 -2.79274,3.22986 -1.53601,0.57983 -2.27066,1.88525 -1.63255,2.901 0.63809,1.01568 0.0862,3.18225 -1.22655,4.81463 -2.03404,2.52948 -1.61685,2.48377 2.82349,-0.30938 5.04303,-3.17224 5.28689,-3.17432 7.59867,-0.0642 1.5129,2.0354 1.76471,3.8269 0.68694,4.88721 -1.07777,1.06024 -0.74896,3.4859 0.89696,6.617 2.40767,4.58026 2.32689,5.08618 -1.10006,6.89044 -2.94204,1.54895 -3.26867,2.45673 -1.59697,4.43823 1.15584,1.37006 1.65459,3.63685 1.10833,5.03724 -1.43277,3.67309 5.43582,11.64184 8.90559,10.33203 2.38753,-0.90131 2.50516,-0.48346 0.76462,2.71594 -1.13136,2.07959 -2.80487,3.78113 -3.71893,3.78113 -0.91404,0 -4.19872,2.43951 -7.29928,5.42108 -3.31924,3.19195 -6.83371,5.06055 -8.54672,4.54407 -1.60016,-0.48237 -5.52189,-1.73572 -8.71499,-2.78516 -15.2249,-5.00378 -15.70949,-5.02625 -22.93007,-1.06055 -4.59455,2.52344 -7.19617,5.29541 -7.58907,8.086 -0.32883,2.33551 -1.23254,4.89813 -2.00831,5.69483 -2.32102,2.3836 -10.78605,2.63031 -12.17708,0.35498 z"
           sodipodi:nodetypes="cssssssssccsscsccccsscscssccsscssscssscscssscccssccsscsssscssccsssscc" />
      </g>
      <path
         d="m 242.04581,651.43877 c -1.54132,-3.66059 -4.45972,-2.07121 -6.83112,-1.46117 -4.14322,2.19471 -7.16857,5.03586 -2.39765,-6.79925 1.4681,-0.5542 2.78514,-2.65 2.78514,-3.94932 0,-1.29925 3.89871,-7.28878 6.68125,-9.91127 4.87107,-4.59095 9.45157,-6.11969 25.07255,-7.57806 6.9968,-0.65314 7.8151,3.20775 8.20899,8.60173 0.4303,5.89319 4.94431,10.61926 8.76508,9.17694 3.29623,-1.24432 2.81625,0.26129 -1.40802,4.41693 -2.96619,2.91797 -4.20414,3.2143 -6.29541,1.5069 -1.43174,-1.16894 -2.7847,-1.81494 -3.00656,-1.43555 -0.22187,0.37934 -1.26471,2.22425 -2.31739,4.0998 -2.74585,4.89215 -6.20257,5.4627 -7.33297,1.21038 -0.78983,-2.97131 -1.60587,-3.32428 -4.34784,-1.88061 -1.85654,0.97741 -3.37552,2.84576 -3.37552,4.15179 0,1.30609 -2.374,2.71747 -5.27553,3.13642 -4.46976,0.64538 -7.10913,1.02697 -8.925,-3.28566 z"
         id="path4220"
         inkscape:connector-curvature="0"
         style="opacity:1;fill:#46413c;fill-opacity:1;stroke:#aaa5a0;stroke-opacity:1"
         sodipodi:nodetypes="sccsscsssscsccsss" />
      <path
         d="m 280.25058,626.14624 c -2.88617,-1.87701 -6.25241,-3.04303 -7.48053,-2.59106 -1.22812,0.45196 -2.23294,0.13458 -2.23294,-0.70533 0,-1.70782 -7.17575,-1.35321 -14.93257,0.73792 -5.0418,1.35913 -5.09084,1.30017 -3.80129,-4.57306 0.71854,-3.27252 2.77574,-8.80633 4.57163,-12.29736 l 3.26516,-6.34741 -11.07515,-4.28522 c -9.52537,-3.68561 -11.07518,-4.90985 -11.07518,-8.74841 0,-2.45472 -0.98568,-5.6363 -2.19043,-7.07019 -1.643,-1.95557 -1.68016,-3.10914 -0.14857,-4.61579 1.5316,-1.50671 1.27275,-3.68664 -1.03577,-8.72284 -2.3282,-5.0791 -2.64679,-7.82898 -1.3083,-11.29223 0.97314,-2.51795 1.35353,-6.1424 0.8453,-8.05432 -0.68945,-2.59363 0.16962,-3.74622 3.38355,-4.53974 5.47732,-1.35242 9.78212,-9.55804 5.80241,-11.06036 -3.38968,-1.2796 -3.4803,-4.14606 -0.13108,-4.14606 3.1878,0 5.26815,-8.8576 3.71463,-15.81586 -1.13677,-5.09149 -0.95818,-5.27194 5.21708,-5.27194 3.5168,0 6.19319,0.59311 5.94759,1.31799 -0.51065,1.50696 1.04239,2.19666 4.94647,2.19666 1.98166,0 2.41968,-1.15186 1.62402,-4.27054 -0.96704,-3.79046 -0.61944,-4.15127 3.09204,-3.20968 2.29993,0.58346 4.98551,2.02996 5.96799,3.21444 0.98248,1.18445 3.79599,2.66657 6.2522,3.29358 4.07562,1.04041 4.16131,0.95423 0.98065,-0.98624 -4.47592,-2.73065 -12.72751,-12.38763 -12.14532,-14.21386 0.24563,-0.77051 -0.55823,-1.42493 -1.78632,-1.45432 -1.24478,-0.0298 -0.85501,-0.84311 0.88074,-1.8378 2.91482,-1.67044 2.92453,-2.06833 0.15188,-6.2312 l -2.96182,-4.44684 6.99353,1.22583 c 8.57294,1.50269 11.55978,3.82398 7.87173,6.11777 -2.39904,1.49207 -1.26052,2.46411 2.24787,1.91913 0.73688,-0.11444 1.33975,0.4483 1.33975,1.25055 0,0.80224 2.81351,1.36682 6.25223,1.25458 6.32004,-0.2063 8.40835,1.85507 3.68545,3.63797 -1.41168,0.53292 -2.20602,1.89199 -1.76522,3.02017 0.89602,2.29315 9.69101,3.34961 9.69101,1.16406 0,-1.54538 13.35357,-8.77811 16.20681,-8.77811 0.99332,0 3.50187,1.55426 5.57456,3.45386 2.07269,1.89963 4.48587,3.01776 5.36261,2.48471 5.54336,-3.37033 11.64969,12.88797 7.67813,20.4433 -2.26691,4.3125 -2.20087,5.12091 0.62378,7.63562 1.73749,1.54688 4.07608,6.58533 5.19684,11.19659 4.42446,18.20386 4.45272,19.37696 0.5596,23.20679 -2.029,1.99603 -5.01859,3.62915 -6.64353,3.62915 -1.62494,0 -8.12353,2.84375 -14.44131,6.31946 -10.56571,5.81262 -11.39405,6.69348 -10.32877,10.98321 0.63699,2.56513 5.32691,8.87159 10.42206,14.01441 l 9.26392,9.35058 -6.79407,5.66504 c -6.21607,5.18311 -6.63397,6.07923 -4.91245,10.53363 2.51056,6.49598 2.42331,6.75971 -1.44925,4.3805 -2.55203,-1.56787 -5.16253,-1.52692 -11.16467,0.17517 -4.30859,1.2218 -9.84341,2.34576 -12.29965,2.49768 -2.45624,0.15192 -5.31986,0.81219 -6.36365,1.46722 -1.04376,0.65509 -4.25918,-0.34472 -7.14538,-2.2218 z"
         id="path4216"
         inkscape:connector-curvature="0"
         style="fill:#46413c;opacity:1;fill-opacity:1;stroke:#aaa5a0;stroke-opacity:1" />
      <g
         id="g4157"
         style="fill:#56504a;stroke:#aaa5a0;fill-opacity:1;stroke-opacity:1">
        <path
           style="fill:#56504a;opacity:1;fill-opacity:1;stroke:#aaa5a0;stroke-opacity:1"
           inkscape:connector-curvature="0"
           id="path4204"
           d="m 91.143577,570.44977 c 9.383473,-12.30799 12.093383,-14.43579 18.425483,-14.46753 5.96943,-0.03 8.89671,-2.24207 12.83007,-9.69562 1.59949,-3.03101 1.5339,-3.13098 -0.47676,-0.72638 -1.28231,1.53357 -4.20602,3.77075 -6.49715,4.97156 -3.51085,1.84003 -4.50826,1.72235 -6.34492,-0.7486 -1.19859,-1.61255 -3.34331,-2.73651 -4.76606,-2.49774 -1.42274,0.23877 -4.00377,-0.17444 -5.735658,-0.91827 -1.849899,-0.79456 -4.244804,-0.45764 -5.805626,0.81665 -1.461227,1.19299 -2.716484,1.87457 -2.789497,1.51458 -1.578438,-7.78259 -1.434006,-8.11535 4.200539,-9.67883 3.943375,-1.09411 6.740202,-3.52283 8.877672,-7.7091 1.8341,-3.59211 2.38183,-6.35468 1.32863,-6.70112 -0.98558,-0.32415 -1.33756,-1.31268 -0.78223,-2.19665 0.55537,-0.88391 -0.27176,-1.60718 -1.83806,-1.60718 -2.294233,0 -2.476141,-0.68317 -0.93573,-3.51465 2.06438,-3.79467 11.38943,-4.95379 13.45119,-1.67199 0.79416,1.2641 1.93339,1.20929 3.62832,-0.1745 2.09426,-1.70984 2.06064,-2.42054 -0.2207,-4.6648 -1.64257,-1.6159 -2.08672,-3.43112 -1.13972,-4.65814 2.61145,-3.38364 1.56809,-12.55435 -1.42833,-12.55435 -5.64557,0 -6.76773,-8.27945 -1.78634,-13.1799 3.57268,-3.51462 3.57268,-3.51462 -0.89318,-3.51462 -2.45622,0 -4.46586,0.70618 -4.46586,1.5693 0,2.59134 -5.64398,3.90036 -8.115729,1.88233 -1.717216,-1.40201 -2.455566,-1.10608 -2.899681,1.1622 -0.564392,2.88244 -0.75988,2.88177 -3.702881,-0.0135 -2.951828,-2.9039 -2.930191,-3.39764 0.433289,-9.88345 2.274162,-4.38529 2.880234,-7.22821 1.694611,-7.94907 -1.015137,-0.61719 -1.318314,-2.75683 -0.673729,-4.75476 0.890785,-2.76099 0.53183,-3.3909 -1.49601,-2.6254 -1.467392,0.55393 -3.569801,0.12003 -4.672005,-0.96429 -1.481133,-1.45706 -2.036781,-1.30661 -2.12957,0.57666 -0.07603,1.5426 -0.689697,1.16119 -1.555145,-0.96652 -0.941452,-2.31452 -0.26281,-5.91489 1.987389,-10.54392 l 3.417023,-7.02926 -4.367493,5.08627 c -2.81572,3.27911 -5.38134,4.70358 -7.220894,4.00912 -3.819756,-1.44195 -3.638077,-4.66726 0.272705,-4.84085 1.719475,-0.0763 2.160141,-0.52484 0.979355,-0.99682 -1.590607,-0.63581 -1.35923,-2.53467 0.893166,-7.32987 1.671974,-3.55945 3.843788,-7.05273 4.826279,-7.76285 1.008751,-0.72906 0.42556,-1.30276 -1.33976,-1.31799 -4.66433,-0.0401 -4.308327,-9.96484 0.410286,-11.43811 1.94503,-0.6073 3.38797,-1.64908 3.206528,-2.31509 -0.181442,-0.66599 0.636986,-3.97867 1.818726,-7.36151 l 2.148621,-6.15061 11.615139,-0.16302 c 13.56903,-0.19046 14.75625,1.78229 5.32947,8.85559 -3.45711,2.59402 -5.83526,5.43332 -5.2848,6.30954 0.5505,0.87622 -0.33075,3.59247 -1.95831,6.03607 -3.321135,4.9863 -1.988189,5.51025 4.59708,1.80695 4.81942,-2.71024 22.42363,-3.57193 23.93176,-1.17139 1.83205,2.91614 -7.58981,22.24661 -12.212,25.05493 -6.58869,4.00314 -7.88485,5.73963 -3.23462,4.33344 6.78659,-2.05222 4.44735,1.67776 -2.63147,4.19589 -6.4083,2.27963 -6.49653,2.42197 -2.42063,3.90524 2.32659,0.84665 5.58587,1.11609 7.24289,0.59873 4.17632,-1.30399 14.68279,6.08743 16.21782,11.40939 0.69695,2.41632 2.16914,7.65964 3.27155,11.65185 1.52589,5.52573 3.29818,7.78574 7.42395,9.46692 7.75105,3.15842 9.28494,6.97205 4.93156,12.26087 l -3.58644,4.35711 5.40523,2.16971 c 6.69629,2.68796 8.87126,8.37106 4.86879,12.72189 -2.70597,2.94147 -2.68772,3.25837 0.25149,4.36792 1.74303,0.65796 3.45244,0.3603 3.79866,-0.66156 0.90314,-2.66534 9.56336,-2.18817 13.49883,0.74378 5.14343,3.83185 2.59478,14.13293 -4.37378,17.67798 -2.93555,1.49334 -4.91374,3.3894 -4.39603,4.2135 0.51772,0.8241 -0.31079,1.97101 -1.84117,2.5487 -4.33003,1.63465 -1.16641,4.58991 4.91351,4.58991 4.74718,0 5.16693,0.362 3.16761,2.73187 -4.09232,4.85083 -9.53264,6.79584 -19.56888,6.99616 -19.76982,0.39465 -23.43224,0.81762 -22.32601,2.57849 1.23728,1.96936 -4.10785,1.54175 -7.61126,-0.60895 -3.49205,-2.14368 -8.61463,0.22748 -10.83144,5.01373 -1.76005,3.80011 -2.54388,4.10376 -6.27569,2.43109 -3.31347,-1.48516 -5.494863,-1.28546 -9.782339,0.89563 -8.048874,4.09461 -8.467941,3.5445 -2.88163,-3.78283 z" />
        <path
           style="fill:#56504a;opacity:1;fill-opacity:1;stroke:#aaa5a0;stroke-opacity:1"
           inkscape:connector-curvature="0"
           id="path4194"
           d="m 72.947807,496.1459 c -2.073944,-0.77331 -4.344269,-2.85607 -5.045174,-4.62838 -1.183365,-2.99231 -1.519966,-2.92615 -4.714344,0.92627 l -3.439968,4.14865 -3.34734,-4.06659 c -3.334572,-4.05112 -3.322002,-4.09131 3.291107,-10.53226 8.489269,-8.26828 14.137478,-10.18365 17.336994,-5.87915 1.302963,1.75296 2.369034,4.61765 2.369034,6.36597 0,1.74832 0.803864,3.17877 1.786354,3.17877 2.858536,0 2.064369,5.13104 -1.33976,8.65585 -2.236061,2.31534 -4.199715,2.83661 -6.896904,1.83088 z" />
      </g>
      <ellipse
         style="opacity:1;fill:#a40000;fill-opacity:1;stroke:none;stroke-width:5.5;stroke-linecap:butt;stroke-miterlimit:4;stroke-dasharray:none;stroke-dashoffset:0;stroke-opacity:1"
         id="ellipse4329"
         cx="115.08354"
         cy="562.87024"
         rx="8.6206207"
         ry="8.7420378" />
      <g
         transform="matrix(0.44022056,0,0,0.44022056,67.568265,302.35902)"
         id="layer1-3"
         inkscape:label="Layer 1"
         style="fill:#eeeeec;stroke:none">
        <path
           inkscape:connector-curvature="0"
           id="path5403"
           d="m 143.0766,566.68305 c -2.29755,-0.60775 -3.98446,-2.089 -4.77367,-4.19164 -0.72685,-1.93655 -1.00033,-15.09418 -0.32537,-15.65434 0.29634,-0.24594 1.1938,-0.34366 2.62641,-0.28597 l 2.17624,0.0876 0.1482,6.83115 c 0.12848,5.92248 0.21925,6.93944 0.68237,7.64527 1.04568,1.59368 3.33248,1.74777 4.67935,0.31531 0.70516,-0.74998 0.71542,-0.84527 0.8046,-7.4685 0.0581,-4.31465 0.20671,-6.84905 0.41644,-7.10176 0.23112,-0.2785 0.98175,-0.36797 2.57718,-0.30721 l 2.25107,0.0858 0,7.40974 c 0,7.21897 -0.0181,7.44411 -0.70141,8.74352 -0.9673,1.83936 -1.44241,2.31993 -3.1492,3.18543 -1.16343,0.58996 -2.01822,0.7706 -4.00126,0.84553 -1.38698,0.0524 -2.92191,-0.0106 -3.41095,-0.13991 z m 94.36983,3e-4 c -1.70917,-0.36377 -3.69188,-1.68351 -4.22866,-2.81468 -0.26574,-0.55989 -0.48316,-1.56475 -0.48316,-2.23293 l 0,-1.21486 2.37113,0 c 1.45188,0 2.37112,0.12013 2.37112,0.30986 0,0.17043 0.32738,0.63724 0.7275,1.03737 0.96441,0.96441 3.40517,1.04068 4.31113,0.13472 0.66472,-0.66472 0.72085,-0.98524 0.30772,-1.75717 -0.34825,-0.65072 -1.30467,-1.04463 -4.0126,-1.65266 -3.97463,-0.89247 -5.48245,-2.10025 -5.87748,-4.70796 -0.4939,-3.2604 1.43599,-6.21788 4.6684,-7.15409 2.39654,-0.69413 5.57572,-0.48664 7.49743,0.48933 1.59603,0.81057 2.75155,2.62623 2.75155,4.32351 l 0,0.97456 -2.44522,-0.002 c -2.40494,-0.002 -2.45353,-0.0165 -2.95012,-0.88917 -0.96216,-1.69099 -4.38554,-1.10358 -4.38554,0.7524 0,1.00016 0.58354,1.30382 3.71651,1.93406 5.02721,1.0113 6.36077,2.30037 6.36077,6.14859 0,2.88142 -0.8169,4.3641 -3.02937,5.49839 -1.34132,0.68766 -2.1133,0.865 -4.12665,0.9479 -1.36217,0.0562 -2.95717,-2.7e-4 -3.54446,-0.12527 z m -80.74457,-0.39873 c -0.0813,-0.21199 -0.11267,-4.71907 -0.0696,-10.01572 l 0.0783,-9.63016 2.66751,0 2.66751,0 3.26029,5.25669 c 1.79316,2.89118 3.35725,5.2586 3.47575,5.26092 0.1185,0.003 0.25188,-2.36318 0.29639,-5.25669 l 0.081,-5.26092 2.37112,0 2.37112,0 0.0782,9.76083 c 0.061,7.61164 -0.004,9.81319 -0.29638,9.99862 -0.20604,0.1308 -1.34553,0.23984 -2.53222,0.24234 l -2.15759,0.005 -1.87174,-2.8898 c -1.02947,-1.58939 -2.65937,-4.09019 -3.62201,-5.55731 l -1.75027,-2.66751 -0.14819,5.48321 -0.1482,5.48322 -2.30151,0.0867 c -1.6799,0.0633 -2.34146,-0.0174 -2.44942,-0.29879 z m 19.56156,-5.9e-4 c -0.0812,-0.21173 -0.11248,-4.71858 -0.0694,-10.01523 l 0.0783,-9.63006 2.51932,0 2.51931,0 0,9.92907 0,9.92907 -2.44989,0.0861 c -1.79963,0.0633 -2.4891,-0.016 -2.59762,-0.29879 z m 12.37068,0.10878 c -0.42079,-0.26695 -5.98644,-18.15533 -5.98828,-19.24673 -8.9e-4,-0.66375 0.0565,-0.67621 2.74047,-0.59277 l 2.74161,0.0852 1.51213,6.00738 c 0.83168,3.30407 1.5793,6.07455 1.66137,6.15661 0.0821,0.0821 0.70998,-1.88768 1.39536,-4.37724 0.68537,-2.48955 1.47158,-5.26003 1.74712,-6.15661 l 0.501,-1.63014 2.59341,-0.0856 c 2.52979,-0.0835 2.5934,-0.0691 2.5934,0.5927 0,0.78149 -5.85906,18.57072 -6.30026,19.12878 -0.33242,0.42049 -4.56905,0.51705 -5.19733,0.11845 z m 13.04442,-0.098 c -0.51385,-0.51365 -0.51915,-18.93501 -0.005,-19.44858 0.55683,-0.55683 12.19834,-0.49808 12.66475,0.0639 0.20538,0.24746 0.31145,1.12892 0.25858,2.14883 l -0.0896,1.72924 -3.85307,0.14821 -3.85307,0.14819 -0.0896,1.55604 -0.0896,1.55605 3.27013,0 c 3.73443,0 3.70324,-0.0251 3.52218,2.83535 l -0.0926,1.46231 -3.34889,0.084 -3.34888,0.0839 0.0886,1.69439 0.0886,1.6944 4.08818,0.0826 4.08818,0.0826 -0.0869,2.14038 -0.0869,2.14038 -6.38161,0.0798 c -4.71422,0.0589 -6.476,-0.0147 -6.74288,-0.28158 z m 15.19035,-0.0108 c -0.0812,-0.21172 -0.11249,-4.71858 -0.0694,-10.01523 l 0.0783,-9.63006 4.13445,-0.0829 c 2.32312,-0.0465 4.85519,0.0666 5.7796,0.25824 4.83138,1.00169 6.38619,7.38965 2.64878,10.88257 l -0.92353,0.86311 1.8124,3.40356 c 0.99681,1.87195 1.8124,3.69633 1.8124,4.05418 0,0.62683 -0.0948,0.64747 -2.59342,0.56496 l -2.59341,-0.0856 -1.86167,-3.63078 c -1.41218,-2.75415 -2.00035,-3.63078 -2.4361,-3.63078 -0.53251,0 -0.58049,0.26488 -0.65765,3.63078 l -0.0832,3.63078 -2.44989,0.0861 c -1.79962,0.0633 -2.4891,-0.016 -2.59761,-0.29879 z m 8.48966,-11.51279 c 0.8705,-0.46588 1.25071,-1.69537 0.8348,-2.69947 -0.35793,-0.86411 -1.66193,-1.42696 -3.31369,-1.43033 l -0.81507,-0.002 0,2.22293 0,2.22292 1.35324,0 c 0.74428,0 1.61761,-0.14148 1.94072,-0.31441 z m 24.93357,11.52915 c -0.57206,-0.57206 -0.52446,-19.01389 0.0503,-19.49092 0.25865,-0.21466 1.24411,-0.31291 2.59342,-0.25858 l 2.17624,0.0878 0,9.92906 0,9.92907 -2.22655,0.0853 c -1.4774,0.0565 -2.34999,-0.0382 -2.59342,-0.28157 z m 11.93018,-0.0135 c -0.0783,-0.21048 -0.17632,-3.71723 -0.21781,-7.7926 l -0.0754,-7.40975 -2.51931,-0.14819 -2.51932,-0.1482 -0.087,-1.80542 c -0.0618,-1.28243 0.0347,-1.90642 0.3331,-2.15409 0.30313,-0.25159 2.47304,-0.32657 7.79316,-0.26931 l 7.37305,0.0794 0,2.07473 0,2.07473 -2.51931,0.1482 -2.51932,0.14819 -0.1482,7.70614 -0.14818,7.70615 -2.30153,0.0867 c -1.67458,0.0631 -2.34029,-0.0177 -2.44388,-0.29639 z m 17.41246,0.0135 c -0.24631,-0.2461 -0.36687,-1.41948 -0.36687,-3.57049 l 0,-3.20383 -2.9639,-5.92217 c -1.63015,-3.25718 -2.9639,-6.19017 -2.9639,-6.51775 0,-0.55182 0.19343,-0.59561 2.63122,-0.59561 1.74645,0 2.73268,0.12458 2.93297,0.37049 0.16596,0.20377 0.93198,1.87707 1.70226,3.71845 0.77028,1.84138 1.44719,3.30128 1.50425,3.24422 0.057,-0.057 0.9043,-1.73037 1.88274,-3.71846 l 1.77898,-3.6147 2.5273,0 c 2.05597,0 2.52729,0.0834 2.52729,0.44741 0,0.24607 -1.3671,3.14699 -3.038,6.44648 l -3.03799,5.99909 -0.1482,3.55667 -0.1482,3.55669 -2.22654,0.0854 c -1.4774,0.0565 -2.34998,-0.0382 -2.59341,-0.28158 z m -69.35982,-22.77259 c -2.90891,-0.61812 -5.26362,-2.5048 -6.64854,-5.32706 -0.55708,-1.13523 -0.66051,-1.84693 -0.66896,-4.60315 -0.009,-2.91346 0.0723,-3.43371 0.76439,-4.89043 0.9705,-2.04293 2.56064,-3.62765 4.68876,-4.67279 1.47995,-0.72682 1.97127,-0.8104 4.76229,-0.8102 2.7323,2.1e-4 3.3127,0.0943 4.75577,0.77095 3.76296,1.76443 5.37214,4.29341 5.56702,8.74912 0.21161,4.83838 -1.3943,7.9964 -4.99892,9.83043 -1.60954,0.81893 -2.31765,0.99433 -4.4347,1.09853 -1.38562,0.0682 -3.08983,0.003 -3.78711,-0.1454 z m 5.51344,-5.24793 c 3.14728,-2.33099 3.12462,-7.346 -0.0439,-9.69366 -0.62512,-0.46318 -1.27566,-0.62003 -2.57168,-0.62003 -1.86615,0 -2.82224,0.48602 -3.96375,2.01496 -0.65095,0.87188 -0.98411,3.61303 -0.65339,5.37591 0.23641,1.26022 1.44955,2.76683 2.67591,3.32327 1.20594,0.54716 3.55613,0.34062 4.55673,-0.40045 z m 14.72332,5.28478 c -2.38603,-0.63118 -4.27278,-2.40843 -4.87216,-4.58944 -0.22131,-0.80533 -0.30807,-3.6771 -0.25199,-8.34152 l 0.0855,-7.11336 2.37113,0 2.37112,0 0.14819,6.87017 c 0.1369,6.34666 0.19474,6.93245 0.75901,7.68745 0.83152,1.11259 1.98513,1.45892 3.42383,1.02788 1.91479,-0.57369 2.04136,-1.10498 2.04136,-8.56932 0,-5.22549 0.0818,-6.56686 0.41716,-6.84523 0.25865,-0.21466 1.24412,-0.31292 2.59341,-0.25859 l 2.17625,0.0876 0.0921,6.52058 c 0.0571,4.0439 -0.0335,7.1033 -0.23865,8.05475 -0.76057,3.52805 -3.39541,5.44602 -7.70531,5.6089 -1.38698,0.0524 -2.9219,-0.0106 -3.41095,-0.13991 z m -92.4824,-0.39834 c -0.0813,-0.21199 -0.11267,-4.71906 -0.0696,-10.01571 l 0.0783,-9.63027 3.84974,-0.0835 c 2.11735,-0.0459 4.51812,0.0593 5.33502,0.23374 3.3495,0.71538 5.00066,2.81341 5.01348,6.37032 0.0148,4.08337 -2.0815,6.09445 -6.63845,6.3688 l -2.52116,0.15179 -0.14819,3.40848 -0.1482,3.40849 -2.30151,0.0867 c -1.6799,0.0633 -2.34146,-0.0174 -2.44942,-0.2988 z m 8.4558,-11.49525 c 0.83074,-0.83074 0.76335,-2.2275 -0.15159,-3.14245 -0.60325,-0.60324 -0.98256,-0.72713 -2.00064,-0.65341 l -1.25625,0.091 -0.0871,2.14883 -0.0871,2.14882 1.49494,0 c 1.09975,0 1.65163,-0.1567 2.08771,-0.59278 z m 7.54681,11.48887 c -0.08,-0.20848 -0.11022,-4.71268 -0.0672,-10.00933 l 0.0783,-9.63027 2.37112,0 2.37113,0 0.1482,7.55795 0.14819,7.55795 3.55668,0.14818 3.55668,0.14821 0,2.22291 0,2.22294 -6.00884,0.0802 c -4.66507,0.0622 -6.04136,-0.005 -6.1543,-0.2988 z m 15.48421,0.18051 c -0.11494,-0.11493 -0.20897,-1.65508 -0.20897,-3.42255 l 0,-3.21359 -3.1121,-6.21881 c -1.71165,-3.42034 -3.1121,-6.42007 -3.1121,-6.66608 0,-0.36556 0.4861,-0.44728 2.66069,-0.44728 3.11948,0 2.84319,-0.24972 4.75477,4.29766 0.68527,1.63014 1.29598,3.0177 1.35715,3.08344 0.0611,0.0657 0.85632,-1.46622 1.76702,-3.40441 0.9107,-1.93818 1.81275,-3.62379 2.00458,-3.74579 0.19182,-0.122 1.38242,-0.22387 2.64578,-0.22636 1.85265,-0.004 2.29703,0.082 2.29703,0.44287 0,0.24607 -1.3671,3.14699 -3.03799,6.44649 l -3.038,5.99907 -0.1482,3.55668 -0.14819,3.55669 -2.23626,0.0855 c -1.22994,0.047 -2.33029,-0.009 -2.44521,-0.1235 z m 10.39381,-0.18427 c -0.27113,-0.76866 2.08921,-19.27169 2.49088,-19.52637 0.48255,-0.30594 4.71094,-0.33115 5.1729,-0.0309 0.18424,0.11977 0.96714,2.41845 1.7398,5.10819 0.77265,2.68974 1.5222,5.01714 1.66566,5.17201 0.14347,0.15486 0.26084,0.19342 0.26084,0.0857 0,-0.5016 3.05451,-9.89553 3.32385,-10.22225 0.20011,-0.24273 1.16378,-0.37048 2.7948,-0.37048 2.30445,0 2.50931,0.0495 2.7578,0.66687 0.34542,0.85819 2.15024,18.85398 1.9271,19.21503 -0.24227,0.392 -4.79665,0.34399 -5.04209,-0.0531 -0.11074,-0.17917 -0.33657,-2.47989 -0.50186,-5.11272 -0.16529,-2.63282 -0.3849,-4.88257 -0.48802,-4.99942 -0.10312,-0.11685 -0.7739,1.95047 -1.49062,4.59405 -0.71672,2.64357 -1.41938,5.03991 -1.56149,5.32518 -0.2063,0.41416 -0.64599,0.51869 -2.18181,0.51869 -2.27615,0 -1.96452,0.50758 -3.54842,-5.7796 -0.61601,-2.44523 -1.21088,-4.55079 -1.32194,-4.67904 -0.11106,-0.12825 -0.36523,2.06961 -0.56482,4.88414 -0.23164,3.26648 -0.49034,5.19835 -0.71526,5.34137 -0.61321,0.3899 -4.57198,0.27462 -4.7173,-0.13736 z m 68.9748,0.0126 c -0.0783,-0.21066 -0.17632,-3.71742 -0.21779,-7.79278 l -0.0754,-7.40975 -2.51933,-0.1482 -2.51931,-0.14819 0,-2.07473 0,-2.07473 7.55795,0 7.55795,0 0.0868,2.13663 0.0868,2.13664 -2.45795,0.0863 -2.45797,0.0863 -0.14819,7.70614 -0.1482,7.70616 -2.3015,0.0867 c -1.67459,0.0631 -2.3403,-0.0177 -2.4439,-0.2964 z m 11.84991,-0.003 c -0.0812,-0.21173 -0.11249,-4.71858 -0.0694,-10.01522 l 0.0783,-9.63021 2.51931,0 2.51932,0 0.0829,3.77899 0.0829,3.77897 3.24258,0 3.24258,0 0.0829,-3.77897 0.0829,-3.77899 2.51932,0 2.51931,0 0,9.92908 0,9.92907 -2.51931,0 -2.51932,0 -0.0828,-3.92718 -0.0828,-3.92716 -3.24308,0 -3.24308,0 -0.0828,3.92716 -0.0827,3.92718 -2.44989,0.0861 c -1.79963,0.0633 -2.4891,-0.016 -2.59761,-0.29879 z m -119.24325,-23.1481 c -0.42443,-0.51131 -4.83766,-18.90848 -4.65198,-19.39234 0.0979,-0.25504 0.88613,-0.37163 2.5126,-0.37163 1.96826,0 2.41781,0.0893 2.65211,0.52712 0.15516,0.28992 0.72217,2.75523 1.26002,5.47846 0.53786,2.72322 1.06276,4.85345 1.16646,4.7338 0.10369,-0.11964 0.61502,-2.28485 1.13629,-4.81157 1.3161,-6.37961 1.02149,-5.92781 3.86534,-5.92781 1.95644,0 2.41271,0.09 2.63033,0.51869 0.14481,0.28527 0.70376,2.76573 1.24212,5.51213 0.53836,2.7464 1.07251,4.81372 1.18702,4.59405 0.1145,-0.21968 0.64666,-2.53342 1.18259,-5.14166 0.53593,-2.60822 1.10469,-4.90896 1.26392,-5.11273 0.34394,-0.44011 4.83096,-0.52133 5.09617,-0.0922 0.24909,0.40305 -4.55367,19.3775 -4.97215,19.64359 -0.60386,0.38398 -4.84214,0.27105 -5.17226,-0.1378 -0.16452,-0.20377 -0.72406,-2.30443 -1.24341,-4.66814 -1.09896,-5.00169 -1.20915,-5.42221 -1.37692,-5.25446 -0.0689,0.0689 -0.59032,2.23276 -1.15875,4.80862 -0.56844,2.57585 -1.18311,4.86362 -1.36594,5.08392 -0.45536,0.54868 -4.79966,0.557 -5.25356,0.01 z m 22.02747,0.0301 c -0.0813,-0.21199 -0.11268,-4.71907 -0.0696,-10.01571 l 0.0783,-9.6302 2.37112,0 2.37112,0 0,9.92908 0,9.92907 -2.30151,0.0867 c -1.67991,0.0633 -2.34147,-0.0174 -2.44943,-0.2988 z m 11.85631,-0.0101 c -0.0756,-0.20377 -0.1715,-3.70487 -0.21299,-7.78024 l -0.0754,-7.40968 -2.45796,-0.0863 -2.45796,-0.0863 0.0868,-2.13664 0.0868,-2.13663 7.55795,0 7.55795,0 0.0871,2.14882 0.0871,2.14883 -2.5323,0 -2.5323,0 0,7.49867 c 0,5.43711 -0.0978,7.59645 -0.35567,7.85434 -0.49299,0.493 -4.65531,0.48025 -4.83913,-0.0149 z m 12.08225,0.026 c -0.57207,-0.57207 -0.52447,-19.0139 0.0503,-19.49092 0.25865,-0.21466 1.24412,-0.31292 2.59341,-0.25858 l 2.17625,0.0877 0.083,3.78861 0.083,3.78858 3.32547,-0.0837 3.32546,-0.0837 0.14819,-3.70489 0.1482,-3.70487 2.37112,0 2.37112,0 0,9.92907 0,9.92907 -2.37112,0 -2.37112,0 -0.1482,-3.85307 -0.14819,-3.85307 -3.32572,-0.0837 -3.32573,-0.0837 -0.0827,3.93679 -0.0827,3.93681 -2.22655,0.0853 c -1.47739,0.0565 -2.34998,-0.0382 -2.59341,-0.28157 z"
           style="fill:#eeeeec;fill-opacity:1;stroke:none" />
      </g>
    </g>
  </g>
</svg>
