<?xml version="1.0" encoding="UTF-8" standalone="no"?>
<svg
   xmlns:dc="http://purl.org/dc/elements/1.1/"
   xmlns:cc="http://creativecommons.org/ns#"
   xmlns:rdf="http://www.w3.org/1999/02/22-rdf-syntax-ns#"
   xmlns:svg="http://www.w3.org/2000/svg"
   xmlns="http://www.w3.org/2000/svg"
   xmlns:sodipodi="http://sodipodi.sourceforge.net/DTD/sodipodi-0.dtd"
   xmlns:inkscape="http://www.inkscape.org/namespaces/inkscape"
   width="210mm"
   height="297mm"
   version="1.1"
   id="svg2"
   inkscape:version="0.48+devel r"
   sodipodi:docname="lettre_mimi-nao-28-01-2015.svg">
  <metadata
     id="metadata848">
    <rdf:RDF>
      <cc:Work
         rdf:about="">
        <dc:format>image/svg+xml</dc:format>
        <dc:type
           rdf:resource="http://purl.org/dc/dcmitype/StillImage" />
        <dc:title></dc:title>
      </cc:Work>
    </rdf:RDF>
  </metadata>
  <defs
     id="defs846" />
  <sodipodi:namedview
     pagecolor="#ffffff"
     bordercolor="#666666"
     borderopacity="1"
     objecttolerance="10"
     gridtolerance="10"
     guidetolerance="10"
     inkscape:pageopacity="0"
     inkscape:pageshadow="2"
     inkscape:window-width="1600"
     inkscape:window-height="838"
     id="namedview844"
     showgrid="false"
     inkscape:zoom="0.63429569"
     inkscape:cx="116.11207"
     inkscape:cy="584.68947"
     inkscape:window-x="0"
     inkscape:window-y="27"
     inkscape:window-maximized="1"
     inkscape:current-layer="svg2" />
  <g
     id="g534"
     transform="matrix(0.79534874,0,0,0.79534874,-31.724816,295.89873)">
    <path
       d="m 78.417675,-180.71285 0,0 0.838422,-0.49616 0.43231,-0.44714 0.369973,0.01 1.609708,-0.61087 1.487635,-0.82171 1.663968,-1.4363 1.760435,-2.34472 1.477464,-2.86434 1.182274,-3.04407 1.06922,-3.09062 0.853282,-2.91356 1.266937,-4.2323 0.758231,-2.63751 0.454918,-2.21902 0.05767,-1.99902 0.104098,-1.0092 0.36837,-0.25782 0.338775,-0.17235 0.160021,0.19691 0.519362,0.31926 0.205638,0.28325 0.365474,0.77262 0.524774,0.7673 0.650258,0.8936 0.741194,0.87361 0.79984,1.15362 1.460387,1.32566 1.231207,1.68702 0.73114,2.25041 1.17143,2.66557 0.76841,3.07703 -0.32282,3.56904 0.23723,2.74827 0.79151,2.4096 -1.28575,3.08051 -1.46087,1.88519 -2.527867,1.14471 -2.14051,0.40098 -1.991534,0.49584 -1.980773,-0.45285 -1.618368,-0.60358 -1.283726,-1.01182 -0.756212,-1.01403 -0.612816,-0.81069 -0.880426,-0.79859 -0.374269,-0.69074 -0.02851,-0.70447 0.08447,-0.21549 0.594823,0.13822 1.117924,0.30858 0.7876,0.26994 0.69702,0.41792 1.455973,0.25228 1.236808,0.42653 1.468619,0.2766 1.671555,0.12894 1.387785,-0.0122 1.288401,0.0118 1.659373,-0.31769 2.24154,-0.22916 2.17097,-0.53861 2.35503,-1.2686 1.96948,-0.61784 2.76525,-0.84618 2.81494,-1.57009 2.46609,-2.21413 1.73758,-2.13966 0.94483,-1.06856 1.06147,-0.87663"
       style="fill:none;stroke:#000000;stroke-width:2.5146203"
       id="path536"
       inkscape:connector-curvature="0" />
    <path
       d="m 121.58232,-195.07085 0,0 0.6875,-0.45129 0.92634,-0.57612 -0.0395,-1.382 -0.37152,-0.70781 -0.62362,-0.36195 -0.11151,-0.51199 0.20955,-0.39735 0.29437,0.23239 -0.13454,0.29565 0.28673,1.07642 0.34666,1.20259 0.39505,0.86492 -0.14526,1.04528 0.10011,0.91234 0.18708,0.56888 0.62574,0.45073 0.47357,0.3731 0.92205,0.22624 1.04634,-0.0689 1.2316,-0.0812 0.75836,-0.0906 0.78771,-0.33542 -0.10662,0.28106 0.0962,0.17329 0.72421,-1.03712 0.83611,-0.48934 1.76377,-0.6136 3.54472,-1.00556 5.25006,-1.53963 4.02549,0.34985 2.71787,0.99445 1.03876,-0.4706 -0.46417,-1.25 -1.38988,-1.15039 -2.6969,-1.5551 -2.35172,-0.95991 -1.87539,-0.68395 -3.18248,-0.0316 -1.9023,-0.35321 -1.6411,1.68374 -1.25893,4.09515 -1.24971,5.4839 1.36419,4.12329 3.80421,2.52043 5.16489,0.99214 5.69904,-1.20124 3.17222,-2.10591 1.67614,-4.58311 1.51365,-4.82694 -0.58394,-1.73256 0.0697,-1.72765 -1.57875,0.0608 -0.80237,0.11648 -1.11329,1.82322 0.1343,1.63624 1.34415,0.58586 3.11963,1.43051 2.56628,2.50391 1.49022,3.48851 0.32468,3.55756 0.15106,3.48541 0.25696,2.89163 0.83113,2.68433 1.18978,2.26508 2.72114,1.41133 2.92846,1.06788 2.91694,0.26998 3.37459,-1.41105 2.66447,-2.00675"
       style="fill:none;stroke:#000000;stroke-width:2.5146203"
       id="path538"
       inkscape:connector-curvature="0" />
    <path
       d="m 175.71257,-173.54603 0,0 2.10179,-0.97267 2.89246,-1.65472 2.62745,-2.28498 2.43473,-3.1071 2.99899,-4.34363 2.20207,-4.04457 2.01267,-3.85662 1.7291,-3.93799 1.46656,-3.69603 1.27975,-3.62498 1.6226,-3.04318 1.03497,-3.29859 1.15228,-3.15715 1.07092,-2.44041 0.77523,-2.19054 0.74521,-2.34141 0.38555,-2.17645 0.28922,-2.44844 0.0286,-2.02701 0.14578,-2.10385 -0.11287,-1.83304 -0.16785,-1.72691 -0.37484,-1.88931 -0.36823,-1.87363 -0.26488,-2.03631 -0.29366,-1.50545 -0.63605,-1.07706 -0.3878,-1.46845 -0.62585,-1.82221 -0.51394,-1.41716 -0.53801,-0.57318 -0.65098,-0.35656 -1.07603,0.20136 -0.82153,0.94368 -0.93517,0.63553 -0.49609,0.97111 -0.4218,1.33028 -0.39677,1.55652 -0.43974,1.61699 -0.29599,2.50314 -0.73905,2.73562 -0.65835,3.28394 -0.42936,3.48337 -0.18616,3.78226 0.37264,3.19486 0.27178,3.76705 0.25546,4.49099 0.50131,4.82381 0.32785,4.78192 0.68568,4.30601 0.87462,4.27571 0.91048,4.30205 1.06053,3.13189 1.02293,3.05931 1.43571,3.02771 1.83203,2.41316 1.70012,2.31611 1.53201,1.4295 1.76549,1.15521 1.76673,1.23885 2.5475,0.79151 2.18953,0.48559 1.86373,0.12496 2.50082,-0.44896 3.02466,-1.32602 3.49118,-1.54832 3.92702,-2.58077 2.46661,-2.30391 1.38971,-2.02446"
       style="fill:none;stroke:#000000;stroke-width:2.5146203"
       id="path540"
       inkscape:connector-curvature="0" />
    <path
       d="m 232.59368,-181.94806 0,0 1.94026,-1.13313 2.26718,-1.16883 3.42029,-2.18752 3.27348,-2.67301 2.429,-2.24168 2.11731,-2.17612 1.65183,-2.35999 0.9452,-1.39322 0.38193,-0.94329 0.23045,-0.75878 -0.007,-0.42853 0.008,-0.30405 -0.13726,0.0531 -0.17254,0.48711 -0.0747,0.56739 -0.29707,1.01617 -0.2301,1.14442 -0.2707,1.65209 -0.11892,1.7927 -0.0155,1.64089 0.0465,1.89047 0.24697,2.26165 0.16834,2.26476 0.16032,2.56015 0.29993,2.73446 0.56992,2.44174 1.07303,1.92035 1.75056,1.37233 2.16411,0.87246 1.93541,0.23331 2.5226,-0.43622 3.2763,-1.14118 2.9772,-1.51812 3.55859,-3.65336 2.04231,-3.08544 1.3169,-2.87006 1.60184,-3.81517 1.44039,-2.74273 1.70457,-2.93333 1.74282,-2.93236 1.10091,-2.09104 0.64097,-1.94144 0.14315,-1.72582 -0.13644,-1.11373 -0.0675,0.0119 -0.1257,0.38893 -0.0823,0.98234 -0.26032,1.42031 -0.36222,1.87689 -0.39983,2.11409 -0.51111,2.75378 -0.28498,2.53146 -0.0521,2.8876 -0.1622,2.72318 -0.0159,2.76792 0.75168,2.46343 1.03384,1.70598 1.03866,1.90623 1.47673,1.82359 1.96557,1.56166 2.17584,1.37751 2.9151,0.12801 3.12505,-0.72667 3.37099,-1.49558 2.64121,-2.0992 2.33771,-1.86978 2.20507,-1.83043 1.42936,-1.28548 0.55442,-0.6994"
       style="fill:none;stroke:#000000;stroke-width:2.5146203"
       id="path542"
       inkscape:connector-curvature="0" />
    <path
       d="m 306.97972,-183.39234 0,0 3.51005,-2.72574 3.57738,-3.08114 4.03317,-4.86058 3.29468,-5.03593 2.86352,-6.31711 1.99977,-6.45976 1.36768,-5.84477 0.94561,-4.26842 0.57829,-3.74023 0.0717,-1.51179 -0.3733,0.46335 -0.57094,2.95923 -0.55405,3.27987 -0.29815,4.00168 -0.34205,3.89062 -0.29561,4.62403 -0.40553,5.54238 -0.32306,6.03854 -0.24611,4.96453 -0.47941,5.63533 -0.31313,5.27882 -0.31124,3.28645 -0.41614,2.33577 -0.24609,1.42684 -0.17246,0.28195 0.11439,-1.3235 0.25098,-4.52529 0.13969,-3.72341 0.1123,-3.53974 -0.0713,-3.7186 -0.0817,-3.74095 -0.16135,-3.81804 0.51134,-3.46787 0.50613,-2.53805 -0.39447,-1.15845 -2.54616,-0.30626 -2.24292,-0.86036 -0.71381,-0.52574 1.5567,0.36553 2.80473,1.11029 2.65971,0.62668 3.15349,0.13368 3.08923,0.1344 1.59908,0.35496 -0.59538,0.61064 -1.90796,0.50265 -2.56788,0.5814 -1.89955,0.79018 -1.02817,1.95902 -0.62125,2.37472 -0.31746,2.61836 0.009,2.96968 -0.46606,2.51218 -0.22452,3.03342 -0.0489,3.06761 -0.0764,2.60175 -0.23504,3.21612 -0.0653,2.50764 0.16765,2.8109 0.63673,2.44489 1.73114,1.58473 2.03121,0.80544 2.55564,-0.27789 3.40363,-0.74476 3.15661,-1.63218 3.29282,-2.39787 3.35899,-2.26839 2.30869,-2.52979 1.52372,-2.14403"
       style="fill:none;stroke:#000000;stroke-width:2.5146203"
       id="path544"
       inkscape:connector-curvature="0" />
  </g>
  <g
     id="g546"
     transform="matrix(0.79534874,0,0,0.79534874,256.67413,302.16826)">
    <path
       d="m 50.755371,-179.3 0,0 2.51555,-0.93504 4.019784,-2.59188 4.800063,-4.07346 5.04772,-5.49725 4.945212,-6.0081 3.81475,-4.95509 3.407726,-3.41769 2.526583,-2.30288 2.041832,-1.54222 1.818849,-0.67639 1.565953,0.51115 1.877174,1.61101 1.797741,2.45363 1.771833,3.61156 1.41203,4.23489 1.024791,3.85549 0.622362,3.33996 0.454369,2.50503 0.199316,1.69601 0.231963,1.33136 0.220262,0.45594 0.181467,-0.8656 0.40735,-1.62046 0.728198,-2.39897 1.015295,-2.7544 1.101556,-3.15668 1.07768,-2.44299 1.18529,-1.64922 1.59817,-1.34484 1.31145,-0.97774 1.50937,-0.6905 1.51001,0.10089 1.5124,0.67952 1.37628,1.17303 1.37223,1.55393 1.22776,1.94468 1.13122,2.1666 0.89677,2.11948 0.75199,1.78993 0.62439,1.84006 0.29839,1.51705 0.35556,1.00049 0.33696,0.37772 0.33149,0.0845 0.42216,-0.38752 0.47813,-0.9968 0.37447,-1.19043 0.77181,-1.13698 0.812,-0.90558 0.85383,-0.73574 0.98053,-0.48064 1.2411,-0.30671 1.10736,0.0184 1.00127,0.36315 1.14708,0.80222 0.98129,1.23504 1.14784,1.26081 0.98284,1.39809 1.00913,1.18715 1.12718,0.6479 1.49061,0.33733 1.71623,0.0719 1.929,-0.3758 2.60277,-1.19151 3.14163,-2.00984 2.6365,-2.80081 1.63179,-2.65608 0.73299,-1.58956 0.21258,-0.78014"
       style="fill:none;stroke:#000000;stroke-width:2.5146203"
       id="path548"
       inkscape:connector-curvature="0" />
    <path
       d="m 149.24463,-197.46961 0,0 0.63704,-0.13455 0.85851,-0.29482 1.7041,-0.34187 2.88344,-0.60932 3.57282,-0.8845 3.17284,-1.18526 2.77519,-1.29929 2.63265,-1.45835 2.5822,-1.66666 2.32006,-1.855 2.14327,-2.01405 2.18556,-2.16989 1.8383,-2.00824 1.69454,-1.76461 1.17965,-1.91235 0.79275,-1.66471 0.657,-1.32332 0.37192,-0.94298 0.32623,-0.77705 0.19493,-0.39953 -0.0177,-0.12521 -0.0333,0.0749 -0.16624,0.19559 -0.16174,0.29804 -0.18981,0.37098 -0.19658,0.56706 -0.22093,0.57255 -0.27122,0.82106 -0.29944,0.8846 -0.21729,0.99198 -0.1963,1.09576 -0.23087,1.30314 -0.26865,1.39678 -0.19601,1.29584 -0.10024,1.38012 -0.226,1.42028 -0.21136,1.38388 -0.0746,1.39417 -0.0821,1.40116 -0.0134,1.42804 0.0388,1.45216 -0.0477,1.21566 0.15684,1.15645 0.24218,1.11641 0.34338,1.07648 0.46822,0.93934 0.57396,0.91689 0.71463,0.94658 0.7097,0.85542 0.86284,0.7765 0.91093,0.74329 0.97872,0.65525 1.08667,0.59107 1.15953,0.5918 1.48004,0.33821 2.0756,0.21596 2.92478,0.13664 3.39939,-0.0756 3.73362,-0.24227 3.59005,-0.26544 3.37348,-0.4159 2.62447,-0.63479 1.88741,-0.6932 1.7127,-0.71174 1.16008,-0.61084 0.57211,-0.38416 0.45102,-0.27772 0.16185,-0.24845 0.12507,-0.1361"
       style="fill:none;stroke:#000000;stroke-width:2.5146203"
       id="path550"
       inkscape:connector-curvature="0" />
    <path
       d="m 183.55444,-231.90117 0,0 1.6,-1.6 -1.6,0 0,1.6"
       style="fill:none;stroke:#000000;stroke-width:2.5146203"
       id="path552"
       inkscape:connector-curvature="0" />
    <path
       d="m 217.86426,-194.99743 0,0 2.51555,-0.93504 4.01978,-2.59188 4.80006,-4.07346 5.04772,-5.49725 4.94522,-6.0081 3.81475,-4.95509 3.40772,-3.41769 2.52659,-2.30288 2.04183,-1.54222 1.81885,-0.67639 1.56595,0.51115 1.87717,1.61101 1.79774,2.45363 1.77184,3.61156 1.41203,4.23489 1.02479,3.85548 0.62236,3.33997 0.45437,2.50503 0.19932,1.696 0.23196,1.33137 0.22026,0.45594 0.18147,-0.8656 0.40735,-1.62046 0.7282,-2.39897 1.01529,-2.75441 1.10156,-3.15667 1.07768,-2.44299 1.18529,-1.64923 1.59816,-1.34483 1.31146,-0.97774 1.50937,-0.6905 1.51,0.10089 1.5124,0.67952 1.37628,1.17303 1.37223,1.55393 1.22777,1.94468 1.13122,2.1666 0.89677,2.11948 0.75199,1.78993 0.62438,1.84006 0.2984,1.51705 0.35555,1.00049 0.33696,0.37772 0.3315,0.0845 0.42216,-0.38752 0.47813,-0.9968 0.37447,-1.19043 0.77181,-1.13698 0.81199,-0.90559 0.85383,-0.73573 0.98053,-0.48064 1.24111,-0.30671 1.10736,0.0184 1.00127,0.36315 1.14708,0.80222 0.98129,1.23504 1.14784,1.26081 0.98284,1.39809 1.00913,1.18715 1.12717,0.6479 1.49062,0.33733 1.71622,0.0719 1.92901,-0.3758 2.60276,-1.19151 3.14164,-2.00984 2.63649,-2.80081 1.6318,-2.65609 0.73298,-1.58955 0.21259,-0.78014"
       style="fill:none;stroke:#000000;stroke-width:2.5146203"
       id="path554"
       inkscape:connector-curvature="0" />
    <path
       d="m 316.35352,-213.16704 0,0 0.63704,-0.13455 0.85851,-0.29482 1.70409,-0.34187 2.88345,-0.60932 3.57282,-0.8845 3.17284,-1.18526 2.77518,-1.29929 2.63266,-1.45835 2.58219,-1.66666 2.32007,-1.855 2.14327,-2.01405 2.18556,-2.16989 1.83829,-2.00824 1.69454,-1.76461 1.17965,-1.91235 0.79276,-1.66472 0.657,-1.32331 0.37192,-0.94298 0.32623,-0.77705 0.19492,-0.39953 -0.0177,-0.12521 -0.0333,0.0749 -0.16624,0.19559 -0.16173,0.29804 -0.18982,0.37098 -0.19658,0.56706 -0.22092,0.57254 -0.27122,0.82107 -0.29944,0.8846 -0.2173,0.99198 -0.1963,1.09576 -0.23086,1.30314 -0.26865,1.39677 -0.19602,1.29585 -0.10024,1.38011 -0.22599,1.42029 -0.21137,1.38388 -0.0746,1.39417 -0.0821,1.40116 -0.0134,1.42803 0.0388,1.45217 -0.0476,1.21566 0.15685,1.15645 0.24217,1.11641 0.34338,1.07648 0.46822,0.93934 0.57397,0.91689 0.71462,0.94658 0.7097,0.85542 0.86285,0.7765 0.91093,0.74329 0.97871,0.65525 1.08668,0.59107 1.15952,0.5918 1.48005,0.33821 2.0756,0.21596 2.92478,0.13664 3.39938,-0.0756 3.73363,-0.24228 3.59004,-0.26544 3.37348,-0.41589 2.62448,-0.63479 1.88741,-0.6932 1.71269,-0.71174 1.16009,-0.61084 0.5721,-0.38416 0.45103,-0.27772 0.16185,-0.24845 0.12506,-0.1361"
       style="fill:none;stroke:#000000;stroke-width:2.5146203"
       id="path556"
       inkscape:connector-curvature="0" />
    <path
       d="m 350.66333,-247.5986 0,0 1.6,-1.6 -1.6,0 0,1.6"
       style="fill:none;stroke:#000000;stroke-width:2.5146203"
       id="path558"
       inkscape:connector-curvature="0" />
  </g>
  <g
     id="g590"
     transform="matrix(0.79534874,0,0,0.79534874,-9.1544663,421.28957)">
    <path
       d="m 56.599896,-182.38849 0,0 -0.03271,0.0879 0.466401,0.17368 0.362858,0.53809 0.267297,0.59685 1.079225,-0.32874 1.394383,-0.82766 0.951584,-0.5949 1.913885,-1.86638 1.848227,-2.84629 2.156167,-3.12374 2.061912,-3.59939 1.631085,-2.86264 1.96839,-2.89096 1.724155,-2.15076 1.785272,-2.29208 1.575371,-2.27718 2.374435,-1.69966 2.226845,-1.67514 1.695503,-0.87125 1.620792,-0.4013 1.60193,0.19483 1.337469,0.86022 1.315119,1.5251 1.34811,2.53687 1.117662,2.63544 1.21999,3.03893 1.066067,3.03064 0.965451,3.302 0.894966,2.24384 1.111191,1.93554 0.841988,1.87447 0.502643,0.89661 0.800779,-0.3926 0.645962,-0.98331 0.55889,-2.05229 0.4355,-2.34477 1.08926,-2.98123 1.36095,-2.89406 1.08079,-2.7198 1.30003,-1.89389 1.83839,-0.82629 1.67677,-0.0475 1.32336,-0.13859 1.35156,0.43674 1.3636,0.55959 1.5159,0.81155 1.62291,0.85022 1.42041,0.77195 1.22352,0.74642 1.18045,1.58474 1.25187,1.61793 0.81531,2.27776 0.54342,2.13945 0.52872,2.49743 0.43487,2.08064 0.54254,1.83911 0.61248,1.57465 1.00576,1.66133 1.6169,1.419 1.36086,1.23505 1.44488,0.49781 1.19117,0.39201 1.43887,0.20645 1.89294,-0.15374 2.37568,-0.49521 1.71023,-0.72349 1.33113,-1.02162 1.31087,-1.18269 1.24172,-0.98095"
       style="fill:none;stroke:#000000;stroke-width:2.5146203"
       id="path592"
       inkscape:connector-curvature="0" />
    <path
       d="m 143.43281,-183.8577 0,0 2.02218,-0.30852 3.5e-4,0.0523 1.36729,0.13695 0.17032,-0.37996 0.64381,-1.09819 0.67323,-0.99642 1.21648,-1.65243 1.44548,-0.59567 0.94231,-1.4298 1.397,-1.34597 0.81355,-1.77332 1.78995,-2.30132 0.83523,-1.41685 1.89878,-1.97533 1.81073,-2.16525 2.48132,-1.96696 2.18248,-1.79992 3.8012,-1.19357 3.04758,-0.6154 1.23457,-0.14369 0.46112,-0.11249 -0.19432,0.254 -1.86562,0.12767 -2.09356,0.51543 -2.07919,1.30781 -1.86628,1.50553 -1.88964,2.13035 -1.45326,4.01452 -2.0901,4.95924 -0.32841,4.1969 0.92435,5.5205 1.22214,3.94097 2.34771,1.24308 2.96105,-0.39694 3.88354,-1.19356 4.20489,-2.93876 3.54141,-4.07459 2.37287,-4.14256 1.14361,-2.92687 0.60029,-3.23982 0.11767,-3.15758 0.0485,-2.0168 -0.64679,-1.9187 -0.24157,-1.479 -0.2319,-1.37288 -1.36811,-1.2555 -1.00078,-0.81993 -1.68666,-0.22348 -2.96546,-0.84303 -3.0358,0.63791 -3.31524,1.69731 -2.01988,1.76999 -1.88623,2.98025 -1.71376,3.53903 -0.22296,3.41115 0.83544,3.85194 2.45632,1.9571 3.11605,1.86266 3.89722,0.80417 4.44355,0.0216 4.28206,-1.20852 4.42277,-1.55883 4.13097,-2.22083 2.13215,-2.68116 2.42647,-2.68357 2.52082,-2.21831 1.63318,-1.54925 1.27215,-1.59371 1.2602,-1.70698"
       style="fill:none;stroke:#000000;stroke-width:2.5146203"
       id="path594"
       inkscape:connector-curvature="0" />
    <path
       d="m 201.66967,-204.11156 0,0 2.05578,-2.21151 1.28337,-1.6195 1.98263,-1.9275 2.00686,-2.0541 0.73938,-1.4403 0.43243,-1.54447 0.0767,-1.81992 -0.0894,-1.23708 -0.98843,-0.7978 -1.11291,-0.37658 -0.61313,-0.1397 0.36267,0.55791 0.13772,1.07198 1.42035,0.6458 1.92818,-0.57141 2.02696,-1.02311 2.13283,-1.48111 1.56942,-1.11042 1.73199,-1.30773 1.17258,-1.42851 0.50979,-0.58761 0.63918,0.0869 0.34687,1.16043 0.20698,2.45575 0.16851,3.15998 0.14124,3.22957 0.10579,3.69855 0.65084,2.3816 1.01795,2.51009 0.67051,2.61312 1.32175,2.45091 2.05891,2.11939 2.00942,2.18213 2.52777,0.31942 1.86991,0.96476 1.74325,0.50509 2.66194,-0.63245 3.44075,-0.80489 4.41271,-1.53684 4.33113,-1.78366 3.7705,-2.23083 2.54599,-2.96913 1.97279,-2.88954 1.32102,-2.72081 1.12596,-2.19731 0.78402,-1.67169 0.67085,-1.15056 0.61155,-1.10775 0.3438,-0.19966 0.26278,-0.009 0.20319,0.90955 0.0353,1.40493 0.24922,2.29066 0.0383,1.51534 0.34208,1.58245 0.98413,1.45281 1.17368,1.23147 1.03486,1.95304 1.30603,2.4867 1.35295,3.48235 2.0638,2.36421 2.33516,1.37759 3.02742,1.13657 3.64239,0.63538 4.16739,0.24332 3.6596,-1.00579 3.86129,-1.01598 2.96159,-1.54224 2.86113,-1.20612"
       style="fill:none;stroke:#000000;stroke-width:2.5146203"
       id="path596"
       inkscape:connector-curvature="0" />
    <path
       d="m 299.46962,-197.28436 0,0 2.35616,-1.98422 2.3307,-1.90004 -1.1109,0.79708 1.06037,-1.20692 1.33246,-0.82944 1.38054,-0.8451 1.51257,-1.59661 1.62452,-1.60076 1.23869,-2.05713 1.62811,-1.94933 0.70774,-1.89048 1.03087,-2.33642 1.04159,-1.72155 1.173,-1.36288 0.58443,-1.40945 0.37644,-0.0572 0.97132,-0.17385 -0.0463,0.94384 0.11368,1.15517 0.87343,0.45698 0.9005,0.3611 0.93009,0.67944 1.43346,0.25591 1.59375,0.61788 1.16167,0.65297 0.97675,0.43304 1.32991,0.52906 1.27441,0.15985 1.5512,0.13736 2.08855,-0.11707 1.85701,0.59557 1.89689,0.41617 2.07035,0.91492 2.85377,1.71743 1.43786,2.5104 0.83434,3.03924 0.108,2.83498 -0.44009,1.72346 -2.01948,1.88935 -1.61802,1.11667 -2.25929,1.84351 -2.11294,0.0317 -0.82111,0.16573 -2.22976,-0.42672 -2.76085,0.60733 -1.41553,-2.06031 -1.52043,-1.40898 -1.20785,-0.75242 -0.68538,-1.25437 0.39874,-0.95161 0.87605,0.14709 0.43458,0.94322 1.45703,1.18053 1.22877,2.19142 1.65413,1.63813 1.6434,1.36371 1.57329,1.69003 1.14106,1.58178 1.76044,0.95751 2.49758,0.91054 2.74221,0.57842 3.47047,-0.37365 2.6637,-0.076 4.4593,-0.76865 5.28769,-1.31823 4.8685,-3.34187 3.83783,-3.74175 1.89041,-2.61619 2.43323,-2.7931"
       style="fill:none;stroke:#000000;stroke-width:2.5146203"
       id="path598"
       inkscape:connector-curvature="0" />
  </g>
  <g
     id="g600"
     transform="matrix(0.79534874,0,0,0.79534874,277.99057,425.0513)">
    <path
       d="m 67.102414,-176.9692 0,0 -0.432376,-0.59332 1.531258,-0.40787 1.234331,-3.96043 3.490626,-3.84689 3.735259,-2.12073 4.460308,-8.31154 2.571094,-8.92872 2.32243,-7.71267 1.627658,-7.53744 2.674059,-8.15031 1.134685,-4.04088 0.888942,0.83022 0.686043,3.26065 1.492184,2.66576 0.602702,2.31649 0.491226,3.17283 0.236523,4.08555 -0.35843,5.62242 -0.421621,4.87118 0.148,6.47613 1.060665,5.53469 -0.381904,7.57172 -1.330665,5.83912 -1.065672,3.34344 -1.276705,3.42639 -1.669834,1.07329 -1.206167,2.56795 -1.005718,2.56274 -1.346653,2.99035 -0.704694,1.63043 -0.488484,0.17788 -0.151063,0.96086 -0.605964,1.69886 0.01423,1.88105 -0.304158,-1.06705 0.250941,-4.98796 1.576515,-5.82763 0.616816,-6.12827 0.390663,-5.98437 0.926982,-6.63091 0.436837,-4.08733 0.742365,-4.79102 1.099083,-5.42042 1.004979,-4.88309 1.034632,-3.86204 1.208433,-4.40708 1.852524,-3.148 1.22381,-1.90972 0.919415,-2.82353 0.584666,-2.30364 0.881311,-1.93007 0.649489,-1.62015 1.83746,-1.04015 1.63791,-0.89346 2.68308,-0.0979 1.88804,1.45732 2.15908,3.46781 0.86792,4.42543 1.04049,5.32261 0.33429,5.24407 1.08343,4.18195 1.36568,3.65653 2.42823,3.93028 2.11617,2.51757 2.88674,0.49853 2.82389,-0.90854 2.99888,-2.99051 2.73275,-1.65387 2.29193,-3.12551"
       style="fill:none;stroke:#000000;stroke-width:2.5146203"
       id="path602"
       inkscape:connector-curvature="0" />
    <path
       d="m 133.32996,-205.8401 0,0 1.31827,-0.70629 1.24247,-0.69575 0.7669,-1.06523 0.62617,-0.8667 0.12027,-1.44215 -0.0191,-1.68093 0.43421,-1.63911 -0.0757,-1.80294 -0.59626,-1.77631 -0.85608,-2.02347 -0.17256,-1.5996 -0.006,-1.4796 0.0478,-1.5127 -2.2473,0.31178 0.32394,-1.87788 0.10585,-1.14114 0.0627,-1.22442 0.23225,-1.44317 0.32566,-1.4272 0.23688,-1.37753 0.23592,-1.09484 0.19943,-0.96789 0.14582,-0.89905 0.003,-0.75873 -0.21518,-0.7411 -0.21389,-0.63459 -0.62962,-0.37113 -0.71742,-0.0623 -0.66543,0.0172 -0.75792,0.16151 -0.79424,0.23949 -0.82548,0.52447 -1.11836,1.25832 -0.45536,1.39132 -0.2584,1.45362 -0.11325,1.85223 0.17027,2.09212 0.0312,1.55616 0.30001,1.36674 0.5869,1.67334 0.6142,1.55806 0.81495,1.43916 0.86209,1.71378 0.98114,1.62053 1.21651,1.69539 1.58856,1.2915 1.6298,1.11315 1.84367,1.39397 2.19849,1.56558 2.80631,1.33561 2.97967,1.1522 3.34008,1.17712 3.4533,0.59917 3.20041,0.49344 3.28936,0.1474 3.69367,-0.18744 2.59125,-0.0247 1.78746,-0.0215 1.66733,-0.0409 1.38044,-0.34171 0.99234,-0.31357 0.9902,-0.12199 1.06689,-0.25845 1.13939,-0.10657 1.17611,0.005 0.86517,-0.0798 0.61428,-0.0547 0.56459,0.0615 0.45395,-0.24598"
       style="fill:none;stroke:#000000;stroke-width:2.5146203"
       id="path604"
       inkscape:connector-curvature="0" />
    <path
       d="m 179.90979,-207.68812 0,0 -0.0327,0.0879 0.4664,0.17368 0.36286,0.53809 0.2673,0.59685 1.07922,-0.32874 1.39439,-0.82766 0.95158,-0.5949 1.91388,-1.86637 1.84823,-2.84629 2.15617,-3.12375 2.06191,-3.59939 1.63109,-2.86264 1.96839,-2.89096 1.72415,-2.15075 1.78527,-2.29209 1.57537,-2.27718 2.37444,-1.69966 2.22684,-1.67514 1.69551,-0.87125 1.62079,-0.4013 1.60193,0.19483 1.33747,0.86022 1.31512,1.5251 1.34811,2.53687 1.11766,2.63544 1.21999,3.03894 1.06607,3.03063 0.96545,3.30201 0.89496,2.24384 1.11119,1.93553 0.84199,1.87447 0.50264,0.89662 0.80078,-0.39261 0.64597,-0.98331 0.55889,-2.05228 0.4355,-2.34478 1.08926,-2.98123 1.36095,-2.89406 1.08078,-2.71979 1.30004,-1.8939 1.83839,-0.82629 1.67676,-0.0475 1.32337,-0.13859 1.35156,0.43675 1.36359,0.55958 1.51591,0.81155 1.6229,0.85023 1.42042,0.77195 1.22352,0.74641 1.18045,1.58474 1.25186,1.61794 0.81531,2.27776 0.54343,2.13944 0.52871,2.49744 0.43488,2.08064 0.54253,1.83911 0.61249,1.57464 1.00576,1.66133 1.6169,1.419 1.36086,1.23505 1.44488,0.49782 1.19117,0.39201 1.43886,0.20644 1.89294,-0.15373 2.37569,-0.49522 1.71023,-0.72349 1.33112,-1.02162 1.31088,-1.18269 1.24172,-0.98094"
       style="fill:none;stroke:#000000;stroke-width:2.5146203"
       id="path606"
       inkscape:connector-curvature="0" />
    <path
       d="m 266.74271,-209.15732 0,0 2.35616,-1.98422 2.3307,-1.90004 -1.11089,0.79708 1.06037,-1.20692 1.33246,-0.82945 1.38054,-0.84509 1.51256,-1.59661 1.62453,-1.60076 1.23869,-2.05713 1.62811,-1.94934 0.70774,-1.89047 1.03087,-2.33642 1.04159,-1.72155 1.173,-1.36289 0.58443,-1.40945 0.37644,-0.0572 0.97132,-0.17385 -0.0463,0.94383 0.11369,1.15517 0.87343,0.45698 0.90049,0.36111 0.93009,0.67944 1.43347,0.2559 1.59375,0.61789 1.16167,0.65296 0.97675,0.43305 1.32991,0.52906 1.2744,0.15984 1.55121,0.13737 2.08854,-0.11707 1.85702,0.59557 1.89689,0.41617 2.07035,0.91492 2.85377,1.71743 1.43785,2.51039 0.83434,3.03925 0.10801,2.83497 -0.4401,1.72347 -2.01947,1.88934 -1.61803,1.11667 -2.25928,1.84351 -2.11294,0.0317 -0.82111,0.16572 -2.22976,-0.42671 -2.76086,0.60733 -1.41552,-2.06032 -1.52044,-1.40897 -1.20785,-0.75242 -0.68537,-1.25437 0.39873,-0.95161 0.87605,0.14708 0.43458,0.94322 1.45703,1.18053 1.22877,2.19142 1.65414,1.63814 1.64339,1.36371 1.57329,1.69002 1.14106,1.58178 1.76044,0.95752 2.49759,0.91054 2.74221,0.57842 3.47046,-0.37365 2.6637,-0.0761 4.4593,-0.76864 5.28769,-1.31823 4.8685,-3.34187 3.83783,-3.74176 1.89041,-2.61618 2.43323,-2.79311"
       style="fill:none;stroke:#000000;stroke-width:2.5146203"
       id="path608"
       inkscape:connector-curvature="0" />
    <path
       d="m 338.44834,-214.31111 0,0 2.02218,-0.30852 3.5e-4,0.0522 1.36729,0.13695 0.17032,-0.37995 0.64381,-1.09819 0.67323,-0.99643 1.21648,-1.65243 1.44547,-0.59567 0.94231,-1.4298 1.397,-1.34597 0.81356,-1.77332 1.78995,-2.30132 0.83522,-1.41685 1.89879,-1.97533 1.81073,-2.16525 2.48132,-1.96695 2.18248,-1.79993 3.8012,-1.19357 3.04758,-0.6154 1.23456,-0.14368 0.46113,-0.1125 -0.19432,0.254 -1.86562,0.12767 -2.09357,0.51543 -2.07918,1.30781 -1.86629,1.50553 -1.88963,2.13035 -1.45326,4.01452 -2.0901,4.95924 -0.32842,4.1969 0.92436,5.5205 1.22213,3.94097 2.34771,1.24308 2.96105,-0.39694 3.88355,-1.19356 4.20489,-2.93875 3.54141,-4.07459 2.37287,-4.14257 1.1436,-2.92687 0.60029,-3.23982 0.11767,-3.15758 0.0485,-2.01679 -0.6468,-1.91871 -0.24157,-1.47899 -0.2319,-1.37289 -1.3681,-1.2555 -1.00078,-0.81993 -1.68666,-0.22348 -2.96547,-0.84303 -3.0358,0.63791 -3.31524,1.69731 -2.01987,1.77 -1.88623,2.98024 -1.71376,3.53903 -0.22296,3.41115 0.83544,3.85195 2.45632,1.95709 3.11604,1.86266 3.89722,0.80417 4.44356,0.0216 4.28206,-1.20852 4.42276,-1.55883 4.13098,-2.22083 2.13215,-2.68116 2.42646,-2.68357 2.52083,-2.21831 1.63317,-1.54925 1.27216,-1.59371 1.2602,-1.70698"
       style="fill:none;stroke:#000000;stroke-width:2.5146203"
       id="path610"
       inkscape:connector-curvature="0" />
    <path
       d="m 396.6852,-234.56497 0,0 -0.0327,0.0879 0.4664,0.17369 0.36285,0.53809 0.2673,0.59684 1.07923,-0.32873 1.39438,-0.82766 0.95158,-0.59491 1.91389,-1.86637 1.84822,-2.84629 2.15617,-3.12374 2.06191,-3.5994 1.63109,-2.86264 1.96839,-2.89096 1.72415,-2.15075 1.78528,-2.29209 1.57537,-2.27717 2.37443,-1.69966 2.22685,-1.67514 1.6955,-0.87126 1.62079,-0.40129 1.60193,0.19483 1.33747,0.86022 1.31512,1.5251 1.34811,2.53687 1.11766,2.63544 1.21999,3.03893 1.06607,3.03064 0.96545,3.302 0.89497,2.24384 1.11119,1.93554 0.84199,1.87447 0.50264,0.89661 0.80078,-0.3926 0.64596,-0.98331 0.55889,-2.05229 0.4355,-2.34478 1.08926,-2.98123 1.36095,-2.89406 1.08079,-2.71979 1.30003,-1.89389 1.83839,-0.82629 1.67677,-0.0475 1.32336,-0.13859 1.35156,0.43674 1.3636,0.55959 1.5159,0.81154 1.62291,0.85023 1.42041,0.77195 1.22352,0.74642 1.18045,1.58474 1.25187,1.61793 0.81531,2.27776 0.54342,2.13944 0.52872,2.49744 0.43487,2.08064 0.54254,1.83911 0.61248,1.57464 1.00576,1.66133 1.6169,1.419 1.36086,1.23505 1.44488,0.49782 1.19117,0.39201 1.43887,0.20645 1.89294,-0.15374 2.37568,-0.49522 1.71023,-0.72349 1.33112,-1.02161 1.31088,-1.18269 1.24172,-0.98095"
       style="fill:none;stroke:#000000;stroke-width:2.5146203"
       id="path612"
       inkscape:connector-curvature="0" />
    <path
       d="m 483.51811,-236.03418 0,0 2.35616,-1.98422 2.33071,-1.90004 -1.1109,0.79708 1.06037,-1.20692 1.33246,-0.82944 1.38054,-0.8451 1.51257,-1.59661 1.62452,-1.60076 1.23869,-2.05713 1.62811,-1.94933 0.70774,-1.89048 1.03087,-2.33641 1.04159,-1.72156 1.173,-1.36288 0.58443,-1.40945 0.37644,-0.0572 0.97132,-0.17385 -0.0463,0.94384 0.11368,1.15517 0.87343,0.45698 0.90049,0.36111 0.9301,0.67943 1.43346,0.25591 1.59375,0.61789 1.16167,0.65296 0.97675,0.43304 1.32991,0.52906 1.27441,0.15985 1.5512,0.13736 2.08855,-0.11706 1.85701,0.59556 1.89689,0.41617 2.07035,0.91492 2.85377,1.71743 1.43786,2.5104 0.83433,3.03925 0.10801,2.83497 -0.44009,1.72346 -2.01948,1.88935 -1.61802,1.11667 -2.25929,1.84351 -2.11294,0.0317 -0.82111,0.16572 -2.22976,-0.42672 -2.76085,0.60733 -1.41553,-2.06031 -1.52043,-1.40898 -1.20785,-0.75242 -0.68538,-1.25437 0.39873,-0.95161 0.87605,0.14709 0.43459,0.94322 1.45703,1.18053 1.22877,2.19142 1.65413,1.63813 1.6434,1.36371 1.57328,1.69003 1.14107,1.58178 1.76044,0.95751 2.49758,0.91054 2.74221,0.57842 3.47047,-0.37364 2.66369,-0.0761 4.45931,-0.76865 5.28768,-1.31823 4.86851,-3.34187 3.83783,-3.74175 1.89041,-2.61619 2.43322,-2.7931"
       style="fill:none;stroke:#000000;stroke-width:2.5146203"
       id="path614"
       inkscape:connector-curvature="0" />
  </g>
  <g
     id="g624"
     transform="matrix(0.79534874,0,0,0.79534874,-20.659629,517.5912)">
    <path
       d="m 83.881039,-200.19687 0,0 0.0033,-0.7813 3.862396,-2.24703 2.198403,-6.56428 4.380037,-6.96873 2.404553,-5.80007 2.250962,-3.91648 1.31892,-1.78292 1.41074,-0.59361 0.43575,0.0673 -0.26483,-0.67507 -2.839629,-0.34871 -4.32248,-2.22809 -5.761917,-0.54414 -5.996296,1.27722 -6.55948,2.02669 -3.012254,4.12046 -1.033042,5.76237 0.09082,7.86028 1.088044,6.58735 3.046972,4.78844 4.725048,2.30583 3.341287,0.7282 5.152245,-0.59094 6.811004,-1.0851 3.556308,-2.55499 2.98708,-3.40114 0.79034,-4.03086 0.0857,-3.56873 -0.75547,-4.06091 -0.40039,-3.61688 -0.87543,-0.11056 -0.77266,0.55304 -1.777871,0.78809 -2.061382,1.41765 -0.02014,3.04539 -0.447767,3.81154 -0.03224,5.2014 0.117723,7.16623 0.33396,8.67879 0.03563,7.96246 -0.07032,8.05323 0.686546,6.51241 0.498522,4.62368 0.435192,0.76805 0.575758,0.0257 0.964569,2.13458 0.37925,1.38104 0.24405,-1.25991 -0.0643,-2.66875 -0.49166,-1.93796 -0.45003,-2.02967 -0.292929,-2.71997 -0.176153,-2.97286 -0.295528,-3.0391 -0.328651,-3.63702 -0.825423,-2.28682 -0.219874,-2.67854 1.206834,-3.56332 1.782384,-2.20728 0.81303,-2.78717 1.52264,-1.98677 0.10411,-2.24453 1.13963,-1.63181 4.18751,0.0395 6.38959,-1.69853 6.65315,-1.73981 3.79735,-1.68968 1.51427,-1.41758 0.58923,-0.72404"
       style="fill:none;stroke:#000000;stroke-width:2.5146203"
       id="path626"
       inkscape:connector-curvature="0" />
    <path
       d="m 127.64379,-204.90164 0,0 2.05578,-2.2115 1.28337,-1.6195 1.98263,-1.9275 2.00686,-2.05411 0.73937,-1.44029 0.43244,-1.54447 0.0767,-1.81992 -0.0894,-1.23708 -0.98843,-0.7978 -1.11292,-0.37658 -0.61312,-0.13971 0.36267,0.55792 0.13772,1.07198 1.42035,0.6458 1.92818,-0.57141 2.02696,-1.02311 2.13282,-1.48111 1.56943,-1.11042 1.73199,-1.30773 1.17258,-1.42852 0.50979,-0.5876 0.63918,0.0869 0.34686,1.16042 0.20698,2.45576 0.16852,3.15997 0.14123,3.22957 0.1058,3.69856 0.65084,2.38159 1.01795,2.5101 0.67051,2.61312 1.32174,2.45091 2.05891,2.11939 2.00943,2.18213 2.52777,0.31942 1.86991,0.96475 1.74325,0.5051 2.66194,-0.63245 3.44074,-0.80489 4.41272,-1.53684 4.33113,-1.78366 3.77049,-2.23083 2.546,-2.96913 1.97279,-2.88954 1.32102,-2.72081 1.12596,-2.19731 0.78402,-1.67169 0.67085,-1.15057 0.61154,-1.10774 0.3438,-0.19966 0.26279,-0.009 0.20319,0.90955 0.0353,1.40493 0.24922,2.29066 0.0383,1.51533 0.34208,1.58246 0.98413,1.45281 1.17367,1.23147 1.03486,1.95304 1.30604,2.48669 1.35295,3.48236 2.06379,2.36421 2.33517,1.37758 3.02742,1.13658 3.64239,0.63538 4.16739,0.24332 3.6596,-1.00579 3.86128,-1.01598 2.9616,-1.54224 2.86112,-1.20613"
       style="fill:none;stroke:#000000;stroke-width:2.5146203"
       id="path628"
       inkscape:connector-curvature="0" />
    <path
       d="m 225.44373,-198.07444 0,0 1.0859,-0.34292 1.32058,-0.4525 1.06198,-0.90017 1.26837,-0.593 1.13077,-1.50961 0.52605,-1.63414 0.68182,-1.47591 0.28376,-1.53361 -0.20182,-1.47371 -0.52249,-1.75571 0.11825,-1.42422 0.0638,-1.38362 0.20568,-1.46668 -1.77433,0.0569 0.36869,-1.90554 0.1465,-1.2211 0.17907,-1.24002 0.27299,-1.50417 0.23595,-1.43081 0.19258,-1.44963 0.29225,-1.31337 0.26058,-1.14127 0.14486,-1.03503 0.0255,-0.91424 -0.12249,-0.99075 -0.19912,-0.7491 -0.4105,-0.58428 -0.55227,-0.30627 -0.56759,-0.18154 -0.71442,-0.10511 -0.69232,-0.0389 -0.89364,0.20541 -1.22133,0.75602 -0.66565,0.89957 -0.40863,1.18659 -0.40877,1.66109 -0.29846,1.84032 -0.30197,1.37333 -0.0165,1.41154 0.41448,1.47716 0.46347,1.36754 0.65469,1.21899 0.62159,1.45205 0.81974,1.44864 0.92151,1.45916 1.2181,1.1419 1.21642,1.01744 1.33395,1.31774 1.60409,1.41496 2.11224,1.2738 2.18837,1.30716 2.48203,1.2294 2.45534,0.7925 2.30899,0.66292 2.68671,0.38833 3.19154,0.2852 2.44803,0.28688 1.79133,0.24206 1.77747,0.0672 1.50702,-0.23674 1.37376,-0.0897 1.36924,-0.0411 1.3182,-0.28794 1.35593,-0.11481 1.38101,0.0213 1.51783,-0.0385 0.80822,-0.18325 0.65014,-0.071 0.44453,-0.27382"
       style="fill:none;stroke:#000000;stroke-width:2.5146203"
       id="path630"
       inkscape:connector-curvature="0" />
  </g>
  <g
     id="g632"
     transform="matrix(0.79534874,0,0,0.79534874,210.60215,702.06241)">
    <path
       d="m 83.881039,-200.19687 0,0 0.0033,-0.7813 3.862396,-2.24703 2.198403,-6.56428 4.380037,-6.96873 2.404553,-5.80007 2.250962,-3.91648 1.31892,-1.78292 1.41074,-0.59361 0.43575,0.0673 -0.26483,-0.67507 -2.839629,-0.34871 -4.32248,-2.22809 -5.761917,-0.54414 -5.996296,1.27722 -6.55948,2.02669 -3.012254,4.12046 -1.033042,5.76237 0.09082,7.86028 1.088044,6.58735 3.046972,4.78844 4.725048,2.30583 3.341287,0.7282 5.152245,-0.59094 6.811004,-1.0851 3.556308,-2.55499 2.98708,-3.40114 0.79034,-4.03086 0.0857,-3.56873 -0.75547,-4.06091 -0.40039,-3.61688 -0.87543,-0.11056 -0.77266,0.55304 -1.777871,0.78809 -2.061382,1.41765 -0.02014,3.04539 -0.447767,3.81154 -0.03224,5.2014 0.117723,7.16623 0.33396,8.67879 0.03563,7.96246 -0.07032,8.05323 0.686546,6.51241 0.498522,4.62368 0.435192,0.76805 0.575758,0.0257 0.964569,2.13458 0.37925,1.38104 0.24405,-1.25991 -0.0643,-2.66875 -0.49166,-1.93796 -0.45003,-2.02967 -0.292929,-2.71997 -0.176153,-2.97286 -0.295528,-3.0391 -0.328651,-3.63702 -0.825423,-2.28682 -0.219874,-2.67854 1.206834,-3.56332 1.782384,-2.20728 0.81303,-2.78717 1.52264,-1.98677 0.10411,-2.24453 1.13963,-1.63181 4.18751,0.0395 6.38959,-1.69853 6.65315,-1.73981 3.79735,-1.68968 1.51427,-1.41758 0.58923,-0.72404"
       style="fill:none;stroke:#000000;stroke-width:2.5146203"
       id="path634"
       inkscape:connector-curvature="0" />
    <path
       d="m 127.64379,-204.90164 0,0 2.05578,-2.2115 1.28337,-1.6195 1.98263,-1.9275 2.00686,-2.05411 0.73937,-1.44029 0.43244,-1.54447 0.0767,-1.81992 -0.0894,-1.23708 -0.98843,-0.7978 -1.11292,-0.37658 -0.61312,-0.13971 0.36267,0.55792 0.13772,1.07198 1.42035,0.6458 1.92818,-0.57141 2.02696,-1.02311 2.13282,-1.48111 1.56943,-1.11042 1.73199,-1.30773 1.17258,-1.42852 0.50979,-0.5876 0.63918,0.0869 0.34686,1.16042 0.20698,2.45576 0.16852,3.15997 0.14123,3.22957 0.1058,3.69856 0.65084,2.38159 1.01795,2.5101 0.67051,2.61312 1.32174,2.45091 2.05891,2.11939 2.00943,2.18213 2.52777,0.31942 1.86991,0.96475 1.74325,0.5051 2.66194,-0.63245 3.44074,-0.80489 4.41272,-1.53684 4.33113,-1.78366 3.77049,-2.23083 2.546,-2.96913 1.97279,-2.88954 1.32102,-2.72081 1.12596,-2.19731 0.78402,-1.67169 0.67085,-1.15057 0.61154,-1.10774 0.3438,-0.19966 0.26279,-0.009 0.20319,0.90955 0.0353,1.40493 0.24922,2.29066 0.0383,1.51533 0.34208,1.58246 0.98413,1.45281 1.17367,1.23147 1.03486,1.95304 1.30604,2.48669 1.35295,3.48236 2.06379,2.36421 2.33517,1.37758 3.02742,1.13658 3.64239,0.63538 4.16739,0.24332 3.6596,-1.00579 3.86128,-1.01598 2.9616,-1.54224 2.86112,-1.20613"
       style="fill:none;stroke:#000000;stroke-width:2.5146203"
       id="path636"
       inkscape:connector-curvature="0" />
    <path
       d="m 225.44373,-198.07444 0,0 0.89807,-0.15137 1.03891,-0.2083 0.99169,-0.63158 1.15318,-0.0909 1.12989,-1.10372 0.65485,-1.17299 0.60399,-0.95626 0.36668,-0.91214 0.1983,-0.97507 -0.0714,-1.2379 0.33714,-0.93641 0.33497,-0.99707 0.53216,-1.18295 -0.76772,-0.32348 0.93277,-1.8527 0.58846,-1.14665 0.67044,-1.22444 0.75495,-1.57101 0.68754,-1.58097 0.72075,-1.65746 0.75562,-1.5418 0.6485,-1.3701 0.578,-1.28707 0.47282,-1.25767 0.28407,-1.33397 0.20816,-1.10019 0.11356,-1.01404 -0.02,-0.86553 -0.20535,-0.74251 -0.48889,-0.68605 -0.52972,-0.57268 -0.77373,-0.31504 -1.08072,0.0898 -0.70156,0.204 -0.54519,0.419 -0.69662,0.90166 -0.7449,1.1246 -0.65651,0.88098 -0.43101,1.11113 -0.13383,1.25179 -0.11413,1.21167 0.0484,1.07421 -0.003,1.29377 0.21432,1.32094 0.34719,1.18337 0.58882,1.00381 0.56418,1.0563 0.50497,1.23084 0.63414,1.27062 1.13967,1.37331 1.16899,1.62283 1.40631,1.42861 1.20125,1.07022 1.04957,1.00088 1.47794,0.73499 1.82306,0.70417 1.42228,0.65689 1.03412,0.56519 1.4448,0.35385 1.47242,0.0732 1.60043,0.18581 1.40862,0.20203 1.34398,-0.0901 1.52333,-0.055 1.59585,-0.0504 1.73987,-0.12962 1.14852,-0.39245 0.95345,-0.4171 0.40755,-0.46715"
       style="fill:none;stroke:#000000;stroke-width:2.5146203"
       id="path638"
       inkscape:connector-curvature="0" />
  </g>
  <g
     id="g640"
     transform="matrix(0.79534874,0,0,0.79534874,217.58298,508.81385)">
    <path
       d="m 81.522456,-179.3 0,0 0.89807,-0.15137 1.038902,-0.2083 0.991693,-0.63159 1.153182,-0.0909 1.129885,-1.10373 0.654858,-1.17298 0.603982,-0.95627 0.366686,-0.91213 0.198302,-0.97507 -0.07145,-1.23791 0.337137,-0.93641 0.334979,-0.99707 0.53216,-1.18295 -0.767723,-0.32347 0.932771,-1.85271 0.588456,-1.14664 0.670438,-1.22444 0.754956,-1.57102 0.687541,-1.58096 0.720746,-1.65746 0.755617,-1.5418 0.648504,-1.37011 0.577999,-1.28707 0.47282,-1.25767 0.28407,-1.33397 0.208157,-1.10018 0.113561,-1.01404 -0.02004,-0.86553 -0.205352,-0.74251 -0.488886,-0.68606 -0.529717,-0.57268 -0.77373,-0.31503 -1.080723,0.0898 -0.701559,0.20399 -0.54519,0.419 -0.696621,0.90167 -0.7449,1.1246 -0.656507,0.88098 -0.431015,1.11112 -0.13383,1.25179 -0.114128,1.21168 0.04842,1.0742 -0.0031,1.29378 0.214322,1.32093 0.347189,1.18338 0.588823,1.00381 0.564179,1.05629 0.504973,1.23084 0.634133,1.27063 1.139671,1.3733 1.168991,1.62284 1.40631,1.42861 1.201255,1.07021 1.049564,1.00089 1.477944,0.73499 1.823059,0.70416 1.42228,0.6569 1.03413,0.56518 1.44479,0.35386 1.47242,0.0732 1.60043,0.18582 1.40862,0.20202 1.34398,-0.0901 1.52333,-0.055 1.59585,-0.0504 1.73988,-0.12963 1.14851,-0.39244 0.95346,-0.4171 0.40754,-0.46716"
       style="fill:none;stroke:#000000;stroke-width:2.5146203"
       id="path642"
       inkscape:connector-curvature="0" />
    <path
       d="m 118.47754,-186.30147 0,0 2.35616,-1.98422 2.33071,-1.90003 -1.1109,0.79708 1.06037,-1.20692 1.33246,-0.82945 1.38054,-0.84509 1.51257,-1.59662 1.62452,-1.60075 1.23869,-2.05714 1.62811,-1.94933 0.70774,-1.89047 1.03087,-2.33642 1.04159,-1.72155 1.173,-1.36289 0.58443,-1.40945 0.37644,-0.0572 0.97132,-0.17384 -0.0463,0.94383 0.11368,1.15517 0.87343,0.45698 0.90049,0.36111 0.9301,0.67943 1.43346,0.25591 1.59375,0.61789 1.16167,0.65296 0.97675,0.43304 1.32991,0.52906 1.27441,0.15985 1.5512,0.13737 2.08855,-0.11707 1.85701,0.59557 1.89689,0.41617 2.07035,0.91492 2.85377,1.71743 1.43786,2.51039 0.83433,3.03925 0.10801,2.83497 -0.44009,1.72347 -2.01948,1.88934 -1.61803,1.11667 -2.25928,1.84351 -2.11294,0.0317 -0.82111,0.16572 -2.22976,-0.42672 -2.76085,0.60733 -1.41553,-2.06031 -1.52043,-1.40897 -1.20785,-0.75242 -0.68538,-1.25438 0.39873,-0.9516 0.87605,0.14708 0.43459,0.94322 1.45703,1.18053 1.22877,2.19142 1.65413,1.63814 1.6434,1.36371 1.57328,1.69002 1.14107,1.58178 1.76044,0.95752 2.49758,0.91053 2.74221,0.57843 3.47047,-0.37365 2.66369,-0.0761 4.45931,-0.76864 5.28768,-1.31824 4.86851,-3.34187 3.83783,-3.74175 1.89041,-2.61618 2.43322,-2.79311"
       style="fill:none;stroke:#000000;stroke-width:2.5146203"
       id="path644"
       inkscape:connector-curvature="0" />
    <path
       d="m 190.18317,-191.45525 0,0 3.51005,-2.72574 3.57738,-3.08113 4.03318,-4.86058 3.29468,-5.03593 2.86352,-6.31711 1.99977,-6.45977 1.36767,-5.84476 0.94561,-4.26842 0.5783,-3.74023 0.0717,-1.5118 -0.3733,0.46336 -0.57093,2.95923 -0.55405,3.27986 -0.29815,4.00169 -0.34205,3.89061 -0.29561,4.62403 -0.40554,5.54238 -0.32305,6.03854 -0.24611,4.96454 -0.47941,5.63532 -0.31313,5.27883 -0.31125,3.28644 -0.41613,2.33577 -0.24609,1.42684 -0.17247,0.28196 0.11439,-1.3235 0.25099,-4.5253 0.13969,-3.7234 0.11229,-3.53974 -0.0713,-3.7186 -0.0817,-3.74096 -0.16135,-3.81803 0.51133,-3.46788 0.50613,-2.53805 -0.39446,-1.15844 -2.54616,-0.30627 -2.24292,-0.86036 -0.71381,-0.52574 1.5567,0.36554 2.80473,1.11029 2.65971,0.62668 3.15348,0.13367 3.08923,0.13441 1.59909,0.35495 -0.59538,0.61065 -1.90796,0.50264 -2.56789,0.58141 -1.89954,0.79017 -1.02818,1.95902 -0.62125,2.37472 -0.31746,2.61836 0.009,2.96969 -0.46607,2.51218 -0.22451,3.03341 -0.0489,3.06762 -0.0764,2.60175 -0.23504,3.21612 -0.0653,2.50764 0.16766,2.8109 0.63673,2.44488 1.73114,1.58473 2.03121,0.80544 2.55563,-0.27789 3.40363,-0.74476 3.15662,-1.63217 3.29282,-2.39788 3.35898,-2.26839 2.30869,-2.52978 1.52373,-2.14404"
       style="fill:none;stroke:#000000;stroke-width:2.5146203"
       id="path646"
       inkscape:connector-curvature="0" />
  </g>
  <g
     id="g654"
     transform="matrix(0.79534874,0,0,0.79534874,374.32154,507.55994)">
    <path
       d="m 63.713192,-185.89075 0,0 1.856282,-1.21795 1.148606,-0.60186 1.851282,-1.1865 1.923397,-1.41912 0.950521,-1.03348 0.847564,-1.32709 0.570256,-1.60717 0.630505,-1.42343 0.412085,-1.73435 0.245938,-1.96238 0.382671,-1.90961 0.631814,-1.65816 0.295189,-1.48276 0.8185,-1.38359 1.032404,-1.77261 0.944252,-1.52585 0.849195,-1.20176 0.613103,-0.41921 0.661516,-0.43412 0.271014,-0.10825 0.0458,0.70061 0.104455,1.39251 -0.08422,2.00377 -0.302452,2.85765 -0.111502,2.78883 -0.476819,3.65859 -0.0628,3.66201 0.438552,2.9408 0.704303,3.0941 0.829548,3.04841 1.554797,2.36949 1.907822,2.0044 1.896797,1.47883 2.486567,-0.29894 1.739418,-0.0357 1.492178,-0.5002 2.371437,-1.45039 2.580046,-1.55101 3.099987,-2.24044 2.93312,-2.78864 2.33867,-2.73119 1.57162,-3.02643 1.26733,-3.02194 0.91843,-2.98032 0.78594,-2.24013 0.45912,-1.66877 0.56238,-1.20952 0.55973,-1.03611 0.26559,-0.30669 0.19036,0.059 0.24843,0.61835 -0.1012,1.04578 -0.071,1.83377 0.0202,1.24167 0.0134,1.38892 0.55583,1.46163 0.64509,1.3441 0.46432,2.06655 0.89274,2.34172 1.08949,3.23711 1.58623,2.37885 2.06583,1.39794 2.31596,1.04335 2.64086,0.71859 2.63669,-0.0162 2.48858,-0.41015 2.64939,-1.15372 1.90087,-1.53739 1.52962,-1.62191"
       style="fill:none;stroke:#000000;stroke-width:2.5146203"
       id="path656"
       inkscape:connector-curvature="0" />
    <path
       d="m 136.28681,-188.94846 0,0 -0.0327,0.0879 0.4664,0.17368 0.36286,0.53809 0.26729,0.59685 1.07923,-0.32874 1.39438,-0.82766 0.95159,-0.5949 1.91388,-1.86637 1.84823,-2.8463 2.15616,-3.12374 2.06192,-3.59939 1.63108,-2.86264 1.96839,-2.89096 1.72416,-2.15075 1.78527,-2.29209 1.57537,-2.27718 2.37443,-1.69966 2.22685,-1.67514 1.6955,-0.87125 1.62079,-0.4013 1.60193,0.19483 1.33747,0.86022 1.31512,1.5251 1.34811,2.53687 1.11766,2.63544 1.21999,3.03894 1.06607,3.03063 0.96545,3.302 0.89497,2.24385 1.11119,1.93553 0.84199,1.87447 0.50264,0.89661 0.80078,-0.3926 0.64596,-0.98331 0.55889,-2.05229 0.4355,-2.34477 1.08927,-2.98123 1.36095,-2.89406 1.08078,-2.7198 1.30003,-1.89389 1.83839,-0.82629 1.67677,-0.0475 1.32337,-0.13859 1.35155,0.43675 1.3636,0.55958 1.51591,0.81155 1.6229,0.85022 1.42041,0.77195 1.22352,0.74642 1.18046,1.58474 1.25186,1.61794 0.81531,2.27775 0.54343,2.13945 0.52871,2.49744 0.43488,2.08063 0.54253,1.83911 0.61248,1.57465 1.00577,1.66133 1.61689,1.419 1.36087,1.23505 1.44487,0.49781 1.19117,0.39201 1.43887,0.20645 1.89294,-0.15374 2.37568,-0.49521 1.71023,-0.72349 1.33113,-1.02162 1.31087,-1.18269 1.24173,-0.98095"
       style="fill:none;stroke:#000000;stroke-width:2.5146203"
       id="path658"
       inkscape:connector-curvature="0" />
  </g>
  <g
     id="g660"
     transform="matrix(0.79534874,0,0,0.79534874,-26.071302,596.16948)">
    <path
       d="m 78.225421,-179.39943 0,0 1.226237,-0.50458 0.893064,-0.77724 1.47278,-1.05742 1.441446,-1.57902 1.787092,-1.7526 1.42646,-1.90587 1.599136,-1.58271 1.068665,-1.70347 1.297289,-1.73862 1.493609,-2.05421 1.545302,-1.83727 1.568353,-2.16812 1.326694,-1.454 1.908291,-1.73269 1.960371,-1.54216 1.87296,-1.28538 1.56944,-0.95865 1.49175,-0.77365 1.68774,-0.96652 1.72081,-0.67432 1.60041,-0.78161 1.30613,-0.55014 1.65217,-0.6582 1.39642,-0.58293 1.68906,-0.47195 0.76047,-0.31422 0.45531,-0.20129 0.28556,-0.15241 -0.11484,-0.0212 -0.77053,-0.0358 -1.01991,-0.0823 -2.78964,0.1465 -2.09164,0.0621 -1.60056,0.19383 -1.23867,0.20738 -1.28098,0.41732 -1.22998,0.72067 -1.32617,0.60599 -1.30822,0.72275 -1.39032,0.63577 -1.33762,0.90232 -0.9388,0.91286 -0.89296,1.04644 -0.839925,1.58103 -0.718716,1.72281 -0.717245,1.4268 -0.240148,1.34896 -0.05295,1.84758 -0.131237,1.39806 0.01629,1.50867 0.286485,1.33033 0.18697,1.43815 0.421905,1.20327 0.541527,1.4403 0.864025,1.47319 1.078437,1.54441 1.265542,1.94084 1.69316,1.50455 2.13309,1.23751 1.7768,1.01011 2.79851,0.4695 2.60156,-0.0753 2.88276,-0.28223 2.42928,-0.4221 2.55504,-0.59064 1.15837,-0.41214 0.62011,-0.44112 0.49614,-0.52106 0.2712,-0.56059"
       style="fill:none;stroke:#000000;stroke-width:2.5146203"
       id="path662"
       inkscape:connector-curvature="0" />
    <path
       d="m 121.77458,-182.60523 0,0 2.02218,-0.30853 3.5e-4,0.0522 1.36729,0.13695 0.17032,-0.37995 0.64381,-1.09819 0.67323,-0.99643 1.21648,-1.65243 1.44547,-0.59567 0.94231,-1.42979 1.397,-1.34598 0.81356,-1.77331 1.78995,-2.30132 0.83522,-1.41686 1.89878,-1.97533 1.81073,-2.16525 2.48132,-1.96695 2.18249,-1.79992 3.8012,-1.19357 3.04758,-0.61541 1.23456,-0.14368 0.46113,-0.11249 -0.19432,0.254 -1.86563,0.12767 -2.09356,0.51543 -2.07918,1.30781 -1.86629,1.50552 -1.88963,2.13035 -1.45326,4.01452 -2.0901,4.95925 -0.32842,4.19689 0.92435,5.5205 1.22214,3.94097 2.34771,1.24309 2.96105,-0.39694 3.88355,-1.19356 4.20489,-2.93876 3.54141,-4.07459 2.37286,-4.14257 1.14361,-2.92686 0.60029,-3.23983 0.11767,-3.15757 0.0486,-2.0168 -0.6468,-1.91871 -0.24157,-1.47899 -0.2319,-1.37289 -1.3681,-1.25549 -1.00078,-0.81993 -1.68666,-0.22349 -2.96547,-0.84302 -3.0358,0.63791 -3.31524,1.6973 -2.01987,1.77 -1.88623,2.98024 -1.71376,3.53903 -0.22296,3.41115 0.83544,3.85195 2.45631,1.95709 3.11605,1.86266 3.89722,0.80417 4.44356,0.0217 4.28205,-1.20852 4.42277,-1.55884 4.13098,-2.22082 2.13214,-2.68116 2.42647,-2.68357 2.52083,-2.21832 1.63317,-1.54925 1.27216,-1.59371 1.26019,-1.70698"
       style="fill:none;stroke:#000000;stroke-width:2.5146203"
       id="path664"
       inkscape:connector-curvature="0" />
    <path
       d="m 180.01143,-202.8591 0,0 0.0457,0.39582 -0.009,0.37118 -1.1556,1.22133 -2.05614,1.04377 -1.65933,1.01042 -0.39742,0.28505 0.45965,0.67544 1.17784,-0.39266 1.43216,-1.44319 1.7024,-3.15646 0.99893,-2.60396 0.55586,-2.05436 0.48033,-1.47465 0.13046,-1.89204 0.0871,-1.9576 0.0972,-1.93215 0.0994,-1.53122 -0.0611,-1.42904 -0.34083,-1.34563 -0.62982,-1.21041 -0.29492,-0.0763 0.009,0.60566 -0.14469,0.6312 0.47273,1.36434 0.50037,0.84197 0.44257,0.25331 0.49001,0.58453 0.81249,0.59113 1.37103,0.66421 1.0015,0.82851 0.43402,0.50795 0.33015,0.4315 0.38792,0.2762 0.85887,0.21066 1.17118,0.1775 1.35553,-0.0274 1.70604,-0.36789 1.51181,-0.50226 1.16799,-0.46811 0.82216,-0.69421 0.2655,-0.61182 0.49075,-0.42345 0.47862,-0.2937 0.2738,-0.35817 0.22386,-0.0537 0.40167,-0.14354 0.86383,0.51998 0.76969,0.46099 0.63672,0.49863 0.74075,1.44181 0.80503,1.69459 0.49977,2.12264 0.22556,1.67844 -0.002,1.59322 -0.23447,1.20653 -9.38787,-2.70605 -0.6329,2.37109 -0.76899,1.79011 -0.61732,1.82664 -0.88126,2.06303 -0.4549,2.40153 0.1386,2.64368 1.8264,2.82814 4.27541,2.08871 6.62133,1.25045 7.80013,0.20139 6.50029,-1.66832 3.57183,-3.56654 1.77199,-3.18894"
       style="fill:none;stroke:#000000;stroke-width:2.5146203"
       id="path666"
       inkscape:connector-curvature="0" />
    <path
       d="m 221.57594,-196.7796 0,0 -0.43238,-0.59333 1.53126,-0.40787 1.23433,-3.96042 3.49062,-3.84689 3.73526,-2.12073 4.46031,-8.31155 2.5711,-8.92871 2.32243,-7.71267 1.62765,-7.53744 2.67406,-8.15032 1.13469,-4.04088 0.88894,0.83022 0.68604,3.26065 1.49219,2.66577 0.6027,2.31648 0.49122,3.17284 0.23653,4.08554 -0.35843,5.62243 -0.42162,4.87118 0.148,6.47612 1.06066,5.53469 -0.3819,7.57173 -1.33067,5.83911 -1.06567,3.34344 -1.2767,3.4264 -1.66984,1.07329 -1.20616,2.56794 -1.00572,2.56275 -1.34666,2.99034 -0.70469,1.63043 -0.48848,0.17788 -0.15107,0.96087 -0.60596,1.69886 0.0142,1.88104 -0.30416,-1.06705 0.25094,-4.98795 1.57652,-5.82763 0.61681,-6.12827 0.39067,-5.98438 0.92698,-6.6309 0.43683,-4.08734 0.74237,-4.79102 1.09908,-5.42041 1.00498,-4.88309 1.03463,-3.86205 1.20844,-4.40708 1.85252,-3.14799 1.22381,-1.90972 0.91942,-2.82354 0.58466,-2.30363 0.88131,-1.93008 0.6495,-1.62014 1.83745,-1.04015 1.63792,-0.89347 2.68307,-0.0979 1.88804,1.45732 2.15908,3.4678 0.86792,4.42543 1.0405,5.32262 0.33428,5.24406 1.08344,4.18195 1.36567,3.65653 2.42823,3.93028 2.11617,2.51757 2.88675,0.49854 2.82388,-0.90855 2.99888,-2.9905 2.73275,-1.65388 2.29193,-3.12551"
       style="fill:none;stroke:#000000;stroke-width:2.5146203"
       id="path668"
       inkscape:connector-curvature="0" />
    <path
       d="m 287.80348,-225.65051 0,0 2.35616,-1.98422 2.33071,-1.90004 -1.1109,0.79708 1.06037,-1.20692 1.33246,-0.82944 1.38054,-0.8451 1.51257,-1.59661 1.62452,-1.60076 1.23869,-2.05713 1.62811,-1.94933 0.70774,-1.89048 1.03087,-2.33641 1.04159,-1.72156 1.173,-1.36288 0.58443,-1.40945 0.37644,-0.0572 0.97132,-0.17385 -0.0463,0.94384 0.11368,1.15517 0.87343,0.45698 0.90049,0.36111 0.9301,0.67943 1.43346,0.25591 1.59375,0.61789 1.16167,0.65296 0.97675,0.43304 1.32991,0.52906 1.27441,0.15985 1.5512,0.13736 2.08855,-0.11706 1.85701,0.59556 1.89689,0.41617 2.07035,0.91493 2.85377,1.71743 1.43786,2.51039 0.83433,3.03925 0.10801,2.83497 -0.44009,1.72347 -2.01948,1.88934 -1.61803,1.11667 -2.25928,1.84351 -2.11294,0.0317 -0.82111,0.16572 -2.22976,-0.42672 -2.76085,0.60733 -1.41553,-2.06031 -1.52043,-1.40897 -1.20785,-0.75243 -0.68538,-1.25437 0.39873,-0.9516 0.87605,0.14708 0.43459,0.94322 1.45703,1.18053 1.22877,2.19142 1.65413,1.63813 1.6434,1.36372 1.57328,1.69002 1.14107,1.58178 1.76044,0.95752 2.49758,0.91053 2.74221,0.57842 3.47047,-0.37364 2.66369,-0.0761 4.45931,-0.76865 5.28768,-1.31823 4.86851,-3.34187 3.83783,-3.74175 1.89041,-2.61618 2.43322,-2.79311"
       style="fill:none;stroke:#000000;stroke-width:2.5146203"
       id="path670"
       inkscape:connector-curvature="0" />
  </g>
  <g
     id="g672"
     transform="matrix(0.79534874,0,0,0.79534874,87.719122,692.03114)">
    <path
       d="m 78.225421,-179.39943 0,0 1.226237,-0.50458 0.893064,-0.77724 1.47278,-1.05742 1.441446,-1.57902 1.787092,-1.7526 1.42646,-1.90587 1.599136,-1.58271 1.068665,-1.70347 1.297289,-1.73862 1.493609,-2.05421 1.545302,-1.83727 1.568353,-2.16812 1.326694,-1.454 1.908291,-1.73269 1.960371,-1.54216 1.87296,-1.28538 1.56944,-0.95865 1.49175,-0.77365 1.68774,-0.96652 1.72081,-0.67432 1.60041,-0.78161 1.30613,-0.55014 1.65217,-0.6582 1.39642,-0.58293 1.68906,-0.47195 0.76047,-0.31422 0.45531,-0.20129 0.28556,-0.15241 -0.11484,-0.0212 -0.77053,-0.0358 -1.01991,-0.0823 -2.78964,0.1465 -2.09164,0.0621 -1.60056,0.19383 -1.23867,0.20738 -1.28098,0.41732 -1.22998,0.72067 -1.32617,0.60599 -1.30822,0.72275 -1.39032,0.63577 -1.33762,0.90232 -0.9388,0.91286 -0.89296,1.04644 -0.839925,1.58103 -0.718716,1.72281 -0.717245,1.4268 -0.240148,1.34896 -0.05295,1.84758 -0.131237,1.39806 0.01629,1.50867 0.286485,1.33033 0.18697,1.43815 0.421905,1.20327 0.541527,1.4403 0.864025,1.47319 1.078437,1.54441 1.265542,1.94084 1.69316,1.50455 2.13309,1.23751 1.7768,1.01011 2.79851,0.4695 2.60156,-0.0753 2.88276,-0.28223 2.42928,-0.4221 2.55504,-0.59064 1.15837,-0.41214 0.62011,-0.44112 0.49614,-0.52106 0.2712,-0.56059"
       style="fill:none;stroke:#000000;stroke-width:2.5146203"
       id="path674"
       inkscape:connector-curvature="0" />
    <path
       d="m 121.77458,-182.60523 0,0 0.89807,-0.15137 1.0389,-0.2083 0.99169,-0.63159 1.15319,-0.0909 1.12988,-1.10372 0.65486,-1.17299 0.60398,-0.95626 0.36669,-0.91214 0.1983,-0.97506 -0.0714,-1.23791 0.33714,-0.93641 0.33498,-0.99707 0.53216,-1.18295 -0.76772,-0.32348 0.93277,-1.8527 0.58845,-1.14664 0.67044,-1.22445 0.75496,-1.57101 0.68754,-1.58096 0.72074,-1.65747 0.75562,-1.5418 0.6485,-1.3701 0.578,-1.28707 0.47282,-1.25767 0.28407,-1.33397 0.20816,-1.10019 0.11356,-1.01403 -0.02,-0.86554 -0.20535,-0.7425 -0.48889,-0.68606 -0.52971,-0.57268 -0.77373,-0.31503 -1.08073,0.0897 -0.70156,0.204 -0.54518,0.419 -0.69663,0.90166 -0.7449,1.12461 -0.6565,0.88097 -0.43102,1.11113 -0.13383,1.25179 -0.11413,1.21168 0.0484,1.0742 -0.003,1.29377 0.21433,1.32094 0.34718,1.18338 0.58883,1.00381 0.56418,1.05629 0.50497,1.23084 0.63413,1.27063 1.13967,1.3733 1.16899,1.62284 1.40631,1.42861 1.20126,1.07021 1.04956,1.00089 1.47795,0.73498 1.82306,0.70417 1.42228,0.65689 1.03412,0.56519 1.44479,0.35385 1.47242,0.0732 1.60043,0.18582 1.40862,0.20202 1.34399,-0.0901 1.52332,-0.055 1.59585,-0.0504 1.73988,-0.12962 1.14851,-0.39245 0.95346,-0.41709 0.40755,-0.46716"
       style="fill:none;stroke:#000000;stroke-width:2.5146203"
       id="path676"
       inkscape:connector-curvature="0" />
  </g>
  <g
     id="g678"
     transform="matrix(0.79534874,0,0,0.79534874,373.61026,694.53896)">
    <path
       d="m 79.348776,-181.69453 0,0 3.510051,-2.72574 3.577381,-3.08114 4.033173,-4.86058 3.294681,-5.03593 2.863521,-6.31711 1.999771,-6.45976 1.367671,-5.84477 0.945605,-4.26842 0.5783,-3.74022 0.0717,-1.5118 -0.3733,0.46335 -0.57094,2.95923 -0.55405,3.27987 -0.29815,4.00168 -0.34205,3.89062 -0.295607,4.62403 -0.405536,5.54238 -0.323057,6.03854 -0.246109,4.96453 -0.47941,5.63533 -0.313131,5.27882 -0.311243,3.28645 -0.416138,2.33577 -0.246085,1.42684 -0.172469,0.28195 0.114391,-1.3235 0.250982,-4.52529 0.139691,-3.7234 0.112297,-3.53975 -0.07128,-3.7186 -0.08167,-3.74095 -0.161349,-3.81804 0.511335,-3.46787 0.506131,-2.53805 -0.394464,-1.15845 -2.546166,-0.30626 -2.242916,-0.86036 -0.713812,-0.52574 1.556703,0.36554 2.80473,1.11028 2.659706,0.62668 3.153486,0.13368 3.08922,0.1344 1.59909,0.35496 -0.59538,0.61064 -1.90796,0.50265 -2.56789,0.58141 -1.899534,0.79017 -1.028173,1.95902 -0.621251,2.37472 -0.317459,2.61836 0.0088,2.96968 -0.466067,2.51218 -0.224518,3.03342 -0.0489,3.06762 -0.07639,2.60174 -0.235037,3.21613 -0.06532,2.50763 0.167651,2.81091 0.636733,2.44488 1.731141,1.58473 2.031204,0.80544 2.55564,-0.27789 3.40363,-0.74476 3.15661,-1.63217 3.29282,-2.39788 3.35899,-2.26839 2.30868,-2.52979 1.52373,-2.14403"
       style="fill:none;stroke:#000000;stroke-width:2.5146203"
       id="path680"
       inkscape:connector-curvature="0" />
    <path
       d="m 120.65122,-177.05491 0,0 1.85629,-1.21795 1.1486,-0.60186 1.85128,-1.1865 1.9234,-1.41912 0.95052,-1.03348 0.84757,-1.32709 0.57025,-1.60717 0.63051,-1.42343 0.41208,-1.73435 0.24594,-1.96238 0.38267,-1.90961 0.63181,-1.65816 0.29519,-1.48276 0.8185,-1.38359 1.03241,-1.77261 0.94425,-1.52585 0.84919,-1.20176 0.61311,-0.41921 0.66151,-0.43412 0.27102,-0.10825 0.0458,0.70061 0.10445,1.39251 -0.0842,2.00377 -0.30246,2.85765 -0.1115,2.78883 -0.47682,3.65859 -0.0628,3.66201 0.43856,2.9408 0.7043,3.0941 0.82955,3.04842 1.55479,2.36948 1.90783,2.0044 1.89679,1.47883 2.48657,-0.29894 1.73942,-0.0357 1.49218,-0.5002 2.37143,-1.45039 2.58005,-1.55101 3.09999,-2.24044 2.93312,-2.78863 2.33867,-2.7312 1.57162,-3.02643 1.26733,-3.02194 0.91843,-2.98032 0.78595,-2.24013 0.45911,-1.66877 0.56239,-1.20951 0.55972,-1.03612 0.26559,-0.30669 0.19036,0.059 0.24843,0.61835 -0.10119,1.04578 -0.071,1.83377 0.0202,1.24167 0.0134,1.38892 0.55584,1.46163 0.64508,1.3441 0.46432,2.06656 0.89274,2.34171 1.0895,3.23711 1.58622,2.37885 2.06583,1.39794 2.31596,1.04335 2.64086,0.71859 2.63669,-0.0162 2.48858,-0.41015 2.64939,-1.15372 1.90087,-1.53739 1.52962,-1.62191"
       style="fill:none;stroke:#000000;stroke-width:2.5146203"
       id="path682"
       inkscape:connector-curvature="0" />
  </g>
  <g
     id="g694"
     transform="matrix(0.79534874,0,0,0.79534874,512.79409,710.83977)">
    <path
       d="m 67.102414,-176.9692 0,0 -0.432376,-0.59332 1.531258,-0.40787 1.234331,-3.96043 3.490626,-3.84689 3.735259,-2.12073 4.460308,-8.31154 2.571094,-8.92872 2.32243,-7.71267 1.627658,-7.53744 2.674059,-8.15031 1.134685,-4.04088 0.888942,0.83022 0.686043,3.26065 1.492184,2.66576 0.602702,2.31649 0.491226,3.17283 0.236523,4.08555 -0.35843,5.62242 -0.421621,4.87118 0.148,6.47613 1.060665,5.53469 -0.381904,7.57172 -1.330665,5.83912 -1.065672,3.34344 -1.276705,3.42639 -1.669834,1.07329 -1.206167,2.56795 -1.005718,2.56274 -1.346653,2.99035 -0.704694,1.63043 -0.488484,0.17788 -0.151063,0.96086 -0.605964,1.69886 0.01423,1.88105 -0.304158,-1.06705 0.250941,-4.98796 1.576515,-5.82763 0.616816,-6.12827 0.390663,-5.98437 0.926982,-6.63091 0.436837,-4.08733 0.742365,-4.79102 1.099083,-5.42042 1.004979,-4.88309 1.034632,-3.86204 1.208433,-4.40708 1.852524,-3.148 1.22381,-1.90972 0.919415,-2.82353 0.584666,-2.30364 0.881311,-1.93007 0.649489,-1.62015 1.83746,-1.04015 1.63791,-0.89346 2.68308,-0.0979 1.88804,1.45732 2.15908,3.46781 0.86792,4.42543 1.04049,5.32261 0.33429,5.24407 1.08343,4.18195 1.36568,3.65653 2.42823,3.93028 2.11617,2.51757 2.88674,0.49853 2.82389,-0.90854 2.99888,-2.99051 2.73275,-1.65387 2.29193,-3.12551"
       style="fill:none;stroke:#000000;stroke-width:2.5146203"
       id="path696"
       inkscape:connector-curvature="0" />
    <path
       d="m 133.32996,-205.8401 0,0 0.89807,-0.15138 1.0389,-0.20829 0.9917,-0.63159 1.15318,-0.0909 1.12988,-1.10372 0.65486,-1.17299 0.60398,-0.95626 0.36669,-0.91214 0.1983,-0.97506 -0.0714,-1.23791 0.33713,-0.93641 0.33498,-0.99707 0.53216,-1.18295 -0.76772,-0.32348 0.93277,-1.8527 0.58846,-1.14665 0.67043,-1.22444 0.75496,-1.57101 0.68754,-1.58097 0.72075,-1.65746 0.75561,-1.5418 0.64851,-1.3701 0.578,-1.28707 0.47282,-1.25767 0.28407,-1.33397 0.20815,-1.10019 0.11357,-1.01404 -0.02,-0.86553 -0.20535,-0.7425 -0.48888,-0.68606 -0.52972,-0.57268 -0.77373,-0.31503 -1.08072,0.0897 -0.70156,0.204 -0.54519,0.419 -0.69662,0.90166 -0.7449,1.12461 -0.65651,0.88097 -0.43102,1.11113 -0.13383,1.25179 -0.11412,1.21168 0.0484,1.0742 -0.003,1.29377 0.21432,1.32094 0.34719,1.18337 0.58882,1.00382 0.56418,1.05629 0.50497,1.23084 0.63413,1.27063 1.13968,1.3733 1.16899,1.62283 1.40631,1.42861 1.20125,1.07022 1.04957,1.00089 1.47794,0.73498 1.82306,0.70417 1.42228,0.65689 1.03412,0.56519 1.44479,0.35385 1.47243,0.0732 1.60043,0.18582 1.40862,0.20202 1.34398,-0.0901 1.52333,-0.055 1.59584,-0.0504 1.73988,-0.12962 1.14852,-0.39245 0.95345,-0.4171 0.40755,-0.46715"
       style="fill:none;stroke:#000000;stroke-width:2.5146203"
       id="path698"
       inkscape:connector-curvature="0" />
    <path
       d="m 170.28505,-212.84157 0,0 1.85628,-1.21794 1.14861,-0.60187 1.85128,-1.18649 1.9234,-1.41912 0.95052,-1.03349 0.84756,-1.32708 0.57026,-1.60718 0.6305,-1.42342 0.41209,-1.73436 0.24594,-1.96238 0.38267,-1.90961 0.63181,-1.65816 0.29519,-1.48275 0.8185,-1.3836 1.0324,-1.7726 0.94426,-1.52585 0.84919,-1.20177 0.6131,-0.41921 0.66152,-0.43411 0.27101,-0.10826 0.0458,0.70062 0.10446,1.3925 -0.0842,2.00378 -0.30245,2.85764 -0.1115,2.78884 -0.47682,3.65859 -0.0628,3.662 0.43855,2.9408 0.70431,3.0941 0.82954,3.04842 1.5548,2.36949 1.90782,2.00439 1.8968,1.47883 2.48657,-0.29893 1.73941,-0.0357 1.49218,-0.5002 2.37144,-1.45039 2.58005,-1.551 3.09999,-2.24045 2.93312,-2.78863 2.33867,-2.7312 1.57162,-3.02643 1.26733,-3.02193 0.91843,-2.98033 0.78594,-2.24013 0.45912,-1.66876 0.56238,-1.20952 0.55973,-1.03611 0.26559,-0.3067 0.19035,0.059 0.24844,0.61836 -0.1012,1.04577 -0.071,1.83378 0.0202,1.24166 0.0134,1.38893 0.55583,1.46162 0.64509,1.3441 0.46432,2.06656 0.89274,2.34171 1.08949,3.23711 1.58623,2.37885 2.06583,1.39794 2.31596,1.04335 2.64086,0.71859 2.63669,-0.0162 2.48858,-0.41016 2.64939,-1.15371 1.90087,-1.53739 1.52962,-1.62191"
       style="fill:none;stroke:#000000;stroke-width:2.5146203"
       id="path700"
       inkscape:connector-curvature="0" />
    <path
       d="m 242.85867,-215.89927 0,0 0.37482,-0.53985 0.60407,-0.76585 2.25714,-2.04277 0.85187,-3.61668 -1.08674,-3.26679 0.39076,-4.37131 0.20991,-2.93041 -0.73617,-1.57232 -0.87455,-1.83671 -0.36669,-1.34913 -0.57574,-0.93195 0.26937,-0.24823 0.0113,0.45606 0.7328,1.27508 0.68136,1.8416 1.89641,2.60185 1.81948,2.22079 1.20953,2.19646 1.31426,2.34717 1.2217,1.32235 1.2869,1.33534 0.96329,1.38569 0.12449,1.13175 0.53864,1.44421 0.14591,0.99668 0.32689,0.97789 0.0356,1.53405 -0.84664,1.68206 -1.11923,1.89243 -1.03783,1.35199 -1.51981,1.21412 -2.93232,1.01769 -2.20245,0.4535 -1.83783,0.70602 -0.94572,0.53351 -0.14782,0.0817 0.0812,-0.033 0.70029,-0.5084 0.89941,-0.79788 2.06917,-1.7214 3.08115,-2.22142 4.14754,-3.32556 2.71075,-2.83742 3.43955,-3.32379 3.36136,-3.19386 3.24278,-2.24651 2.92607,-1.59936 2.46134,-0.9791 2.05104,-0.84726 0.74566,-0.185 -0.78164,-0.33754 -1.38829,-0.10965 -3.52312,0.72489 -4.59604,1.46147 -3.44911,1.07223 -1.8406,1.50867 -1.65283,1.74404 -0.70687,1.86052 -0.51817,2.06705 -0.52015,2.09448 -0.49378,2.20374 0.15786,2.73552 3.56038,2.49342 5.48841,1.37685 5.30064,-0.44319 3.33987,-1.05077 1.05707,-1.11711 0.86647,-1.04249 0.39133,-0.56901"
       style="fill:none;stroke:#000000;stroke-width:2.5146203"
       id="path702"
       inkscape:connector-curvature="0" />
  </g>
  <g
     id="g720"
     transform="matrix(0.79534874,0,0,0.79534874,-32.010342,804.16916)">
    <path
       d="m 81.522456,-179.3 0,0 0.89807,-0.15137 1.038902,-0.2083 0.991693,-0.63159 1.153182,-0.0909 1.129885,-1.10373 0.654858,-1.17298 0.603982,-0.95627 0.366686,-0.91213 0.198302,-0.97507 -0.07145,-1.23791 0.337137,-0.93641 0.334979,-0.99707 0.53216,-1.18295 -0.767723,-0.32347 0.932771,-1.85271 0.588456,-1.14664 0.670438,-1.22444 0.754956,-1.57102 0.687541,-1.58096 0.720746,-1.65746 0.755617,-1.5418 0.648504,-1.37011 0.577999,-1.28707 0.47282,-1.25767 0.28407,-1.33397 0.208157,-1.10018 0.113561,-1.01404 -0.02004,-0.86553 -0.205352,-0.74251 -0.488886,-0.68606 -0.529717,-0.57268 -0.77373,-0.31503 -1.080723,0.0898 -0.701559,0.20399 -0.54519,0.419 -0.696621,0.90167 -0.7449,1.1246 -0.656507,0.88098 -0.431015,1.11112 -0.13383,1.25179 -0.114128,1.21168 0.04842,1.0742 -0.0031,1.29378 0.214322,1.32093 0.347189,1.18338 0.588823,1.00381 0.564179,1.05629 0.504973,1.23084 0.634133,1.27063 1.139671,1.3733 1.168991,1.62284 1.40631,1.42861 1.201255,1.07021 1.049564,1.00089 1.477944,0.73499 1.823059,0.70416 1.42228,0.6569 1.03413,0.56518 1.44479,0.35386 1.47242,0.0732 1.60043,0.18582 1.40862,0.20202 1.34398,-0.0901 1.52333,-0.055 1.59585,-0.0504 1.73988,-0.12963 1.14851,-0.39244 0.95346,-0.4171 0.40754,-0.46716"
       style="fill:none;stroke:#000000;stroke-width:2.5146203"
       id="path722"
       inkscape:connector-curvature="0" />
    <path
       d="m 118.47754,-186.30147 0,0 -0.0327,0.0879 0.4664,0.17368 0.36286,0.53809 0.2673,0.59685 1.07922,-0.32874 1.39439,-0.82765 0.95158,-0.59491 1.91389,-1.86637 1.84822,-2.84629 2.15617,-3.12375 2.06191,-3.59939 1.63109,-2.86264 1.96839,-2.89096 1.72415,-2.15075 1.78527,-2.29209 1.57538,-2.27718 2.37443,-1.69966 2.22685,-1.67514 1.6955,-0.87125 1.62079,-0.4013 1.60193,0.19483 1.33747,0.86022 1.31512,1.5251 1.34811,2.53687 1.11766,2.63544 1.21999,3.03894 1.06607,3.03063 0.96545,3.30201 0.89496,2.24384 1.1112,1.93554 0.84198,1.87446 0.50265,0.89662 0.80078,-0.39261 0.64596,-0.98331 0.55889,-2.05228 0.4355,-2.34478 1.08926,-2.98123 1.36095,-2.89406 1.08078,-2.71979 1.30004,-1.8939 1.83839,-0.82629 1.67677,-0.0475 1.32336,-0.13859 1.35156,0.43675 1.36359,0.55958 1.51591,0.81155 1.62291,0.85023 1.42041,0.77195 1.22352,0.74641 1.18045,1.58474 1.25187,1.61794 0.81531,2.27776 0.54342,2.13944 0.52871,2.49744 0.43488,2.08064 0.54254,1.83911 0.61248,1.57464 1.00576,1.66133 1.6169,1.419 1.36086,1.23505 1.44488,0.49782 1.19117,0.39201 1.43886,0.20644 1.89295,-0.15373 2.37568,-0.49522 1.71023,-0.72349 1.33112,-1.02162 1.31088,-1.18269 1.24172,-0.98094"
       style="fill:none;stroke:#000000;stroke-width:2.5146203"
       id="path724"
       inkscape:connector-curvature="0" />
    <path
       d="m 205.31046,-187.77067 0,0 0.55672,-0.18604 1.22857,-0.37099 1.96813,-1.1407 2.67902,-2.84207 3.3338,-4.53602 3.04102,-4.59969 1.61135,-4.15821 0.65066,-2.58623 0.40579,-1.21704 0.4757,-0.71846 0.42142,-0.30789 0.26081,0.25407 0.30442,0.0806 0.20626,0.6992 0.0297,1.04298 0.0546,1.3497 -0.005,1.5257 -0.002,1.86068 -0.0965,2.56678 -0.32198,2.91049 -0.0254,2.94295 -0.0554,2.90939 0.103,2.58162 0.23306,2.04544 0.49601,1.68375 0.81649,1.30158 1.13435,0.96007 1.20074,0.29458 1.57992,-0.30946 1.62936,-0.62906 2.02873,-0.8657 1.85727,-1.14056 1.85311,-2.11609 1.96504,-2.14998 2.04759,-2.34948 1.69061,-3.01797 1.50126,-2.96201 1.18389,-2.7908 0.92597,-2.98672 0.4029,-2.67262 0.0973,-2.496 -0.26191,-2.09631 -0.62995,-1.76095 -0.63662,-1.14026 -0.87234,-0.51603 -0.95666,0.0317 -0.91632,0.63282 -0.6451,1.1622 -0.51368,1.42708 -0.5748,1.68531 -0.35967,1.64792 -0.11673,1.58842 -0.0372,1.58472 0.117,1.68105 0.1692,1.28569 0.31209,1.29667 0.51356,1.42425 0.69282,1.46602 0.8386,1.35525 1.28726,0.86332 1.91504,0.41039 1.77487,0.0457 2.49672,-0.37136 2.08882,-0.47518 1.53404,-0.64766 0.94224,-0.68704 0.79066,-0.71355 0.42791,-0.23353 0.15793,-0.39586"
       style="fill:none;stroke:#000000;stroke-width:2.5146203"
       id="path726"
       inkscape:connector-curvature="0" />
    <path
       d="m 254.31677,-199.36011 0,0 2.02218,-0.30852 3.5e-4,0.0523 1.36729,0.13695 0.17032,-0.37995 0.64381,-1.09819 0.67322,-0.99643 1.21649,-1.65243 1.44547,-0.59567 0.94231,-1.4298 1.397,-1.34597 0.81356,-1.77332 1.78995,-2.30132 0.83522,-1.41685 1.89878,-1.97533 1.81073,-2.16525 2.48132,-1.96695 2.18249,-1.79993 3.8012,-1.19357 3.04758,-0.6154 1.23456,-0.14368 0.46113,-0.1125 -0.19432,0.254 -1.86563,0.12767 -2.09356,0.51543 -2.07918,1.30781 -1.86629,1.50553 -1.88963,2.13035 -1.45326,4.01452 -2.0901,4.95924 -0.32842,4.1969 0.92435,5.5205 1.22214,3.94097 2.34771,1.24308 2.96105,-0.39694 3.88355,-1.19355 4.20489,-2.93876 3.54141,-4.07459 2.37286,-4.14257 1.14361,-2.92687 0.60029,-3.23982 0.11767,-3.15758 0.0485,-2.01679 -0.6468,-1.91871 -0.24157,-1.47899 -0.2319,-1.37289 -1.3681,-1.2555 -1.00078,-0.81993 -1.68666,-0.22348 -2.96547,-0.84303 -3.0358,0.63791 -3.31524,1.69731 -2.01987,1.77 -1.88623,2.98024 -1.71377,3.53903 -0.22295,3.41115 0.83544,3.85195 2.45631,1.95709 3.11605,1.86266 3.89722,0.80417 4.44355,0.0216 4.28206,-1.20852 4.42277,-1.55883 4.13098,-2.22083 2.13214,-2.68116 2.42647,-2.68357 2.52082,-2.21831 1.63318,-1.54925 1.27216,-1.59371 1.26019,-1.70698"
       style="fill:none;stroke:#000000;stroke-width:2.5146203"
       id="path728"
       inkscape:connector-curvature="0" />
    <path
       d="m 312.55362,-219.61397 0,0 0.76658,-0.11001 1.83818,-0.80288 2.27289,-1.32382 2.69431,-2.12856 2.89526,-3.24446 2.86776,-3.8572 2.50249,-3.75576 1.50437,-2.92844 0.84599,-2.24804 0.79421,-1.11677 0.51918,0.13968 0.41094,1.22566 0.28142,1.89655 0.42018,2.6893 0.0967,2.66587 0.54332,3.0157 1.04858,3.14953 1.12488,3.04738 1.41408,2.35811 1.76329,1.57823 1.57515,0.8514 1.99357,0.24941 2.31495,-0.67003 1.86224,-1.27688 1.56602,-1.76255 0.64973,-1.18291 0.46291,-0.47119 1.14679,-0.6834 1.49461,-0.86722 1.34042,-1.05875 0.63099,-0.98532 0.65408,-0.3662 1.0439,-0.29429 1.17368,-0.63926 0.54997,-0.59605 0.31619,-0.0706 0.20035,0.56039 0.23355,1.14823 0.25065,1.03932 0.36606,1.4071 0.3937,1.98013 0.40019,2.33089 0.37407,3.18091 0.27711,3.1553 0.17602,3.9785 0.23132,5.05208 0.32761,5.40951 0.25956,6.32629 -0.0393,6.02076 -0.25466,5.47799 -0.58607,5.13617 -0.90831,3.87176 -1.54454,2.66447 -1.35312,1.83886 -1.41887,1.53084 -1.82754,0.50834 -1.77431,-0.2381 -1.49431,-1.38048 -0.69215,-2.55741 0.4181,-3.81061 1.39925,-4.68468 3.03396,-5.1341 4.57757,-6.01035 5.94557,-6.28071 5.8021,-5.90752 4.05265,-4.45313 2.59901,-3.07837 1.54881,-1.81145 0.78075,-0.71492"
       style="fill:none;stroke:#000000;stroke-width:2.5146203"
       id="path730"
       inkscape:connector-curvature="0" />
    <path
       d="m 379.68816,-212.63174 0,0 0.89807,-0.15138 1.0389,-0.20829 0.99169,-0.63159 1.15319,-0.0909 1.12988,-1.10372 0.65486,-1.17299 0.60398,-0.95626 0.36669,-0.91214 0.1983,-0.97507 -0.0715,-1.2379 0.33714,-0.93641 0.33498,-0.99707 0.53216,-1.18295 -0.76772,-0.32348 0.93277,-1.8527 0.58845,-1.14665 0.67044,-1.22444 0.75496,-1.57101 0.68754,-1.58097 0.72074,-1.65746 0.75562,-1.5418 0.64851,-1.3701 0.57799,-1.28707 0.47282,-1.25767 0.28407,-1.33397 0.20816,-1.10019 0.11356,-1.01404 -0.02,-0.86553 -0.20535,-0.74251 -0.48889,-0.68605 -0.52971,-0.57268 -0.77373,-0.31503 -1.08073,0.0897 -0.70156,0.204 -0.54518,0.419 -0.69663,0.90166 -0.7449,1.1246 -0.6565,0.88098 -0.43102,1.11113 -0.13383,1.25179 -0.11413,1.21168 0.0484,1.0742 -0.003,1.29377 0.21433,1.32094 0.34718,1.18337 0.58883,1.00381 0.56418,1.0563 0.50497,1.23084 0.63413,1.27063 1.13967,1.3733 1.16899,1.62283 1.40631,1.42861 1.20126,1.07022 1.04956,1.00089 1.47795,0.73498 1.82306,0.70417 1.42228,0.65689 1.03412,0.56519 1.44479,0.35385 1.47242,0.0732 1.60043,0.18582 1.40862,0.20202 1.34399,-0.0901 1.52332,-0.055 1.59585,-0.0504 1.73988,-0.12962 1.14851,-0.39245 0.95346,-0.4171 0.40755,-0.46715"
       style="fill:none;stroke:#000000;stroke-width:2.5146203"
       id="path732"
       inkscape:connector-curvature="0" />
    <path
       d="m 416.64325,-219.63321 0,0 0.0456,0.39582 -0.009,0.37118 -1.15561,1.22133 -2.05614,1.04376 -1.65933,1.01042 -0.39742,0.28506 0.45965,0.67543 1.17784,-0.39265 1.43216,-1.44319 1.7024,-3.15646 0.99893,-2.60397 0.55586,-2.05435 0.48034,-1.47466 0.13046,-1.89203 0.0871,-1.9576 0.0972,-1.93215 0.0994,-1.53122 -0.0611,-1.42904 -0.34084,-1.34563 -0.62982,-1.21041 -0.29491,-0.0763 0.009,0.60567 -0.14469,0.6312 0.47274,1.36433 0.50036,0.84198 0.44257,0.25331 0.49001,0.58453 0.8125,0.59113 1.37103,0.66421 1.0015,0.82851 0.43402,0.50795 0.33014,0.4315 0.38792,0.27619 0.85888,0.21067 1.17118,0.1775 1.35552,-0.0274 1.70604,-0.36789 1.51181,-0.50226 1.16799,-0.46812 0.82216,-0.6942 0.2655,-0.61182 0.49076,-0.42346 0.47862,-0.29369 0.2738,-0.35817 0.22386,-0.0537 0.40167,-0.14354 0.86383,0.51998 0.76968,0.46099 0.63672,0.49863 0.74075,1.4418 0.80503,1.6946 0.49977,2.12264 0.22557,1.67844 -0.002,1.59322 -0.23447,1.20653 -9.38787,-2.70605 -0.63291,2.37108 -0.76899,1.79012 -0.61732,1.82664 -0.88125,2.06303 -0.45491,2.40152 0.1386,2.64369 1.8264,2.82814 4.27541,2.08871 6.62134,1.25045 7.80013,0.20138 6.50028,-1.66832 3.57183,-3.56654 1.77199,-3.18893"
       style="fill:none;stroke:#000000;stroke-width:2.5146203"
       id="path734"
       inkscape:connector-curvature="0" />
  </g>
  <g
     id="g768"
     transform="matrix(0.79534874,0,0,0.79534874,290.17032,778.51416)">
    <path
       d="m 112.28133,-225.54 0,0 -2.66999,0.56953 -0.53947,0.78398 0.43802,0.63737 0.85197,0.89496 1.05867,0.86869 0.2016,1.64186 -0.26945,2.25677 -0.37865,2.07221 -1.08621,2.72519 -0.63895,2.83045 -0.97359,4.37646 -1.13697,5.28633 -0.27193,5.3464 -0.0614,4.90403 0.10093,5.00325 0.43065,4.68116 0.21939,3.5888 0.25648,3.00395 0.27507,2.57672 0.37475,1.07331 -0.0131,1.43112 0.1948,0.38416 0.60833,-0.19602 0.68488,-0.70894 0.71063,-1.69473 0.5531,-1.48497 0.24454,-1.78819 -0.0674,-1.67187 -0.30605,-2.02735 -1.04618,-8.73786 -0.75873,-1.74667 -0.69531,-2.24809 -1.31204,-2.24492 -1.29772,-1.69703 -1.17961,-2.13139 -1.53661,-1.88002 -1.36429,-1.61067 -1.16698,-0.97662 -1.052584,-0.58538 -1.55382,-0.0999 -1.609981,0.2001 -1.748637,0.12112 -1.727066,0.0187 -1.457748,0.54671 -1.054268,1.24089 -0.899865,1.73622 -0.524264,2.12256 -0.360788,2.97323 -0.388667,3.34963 -0.618036,3.80481 0.127665,3.30343 0.602376,3.16428 0.66476,3.02213 1.171423,2.46077 1.174179,1.69744 1.117579,1.54933 1.744615,1.36417 1.960453,0.94808 1.534325,0.94057 1.527203,0.56977 1.695776,0.35395 1.85439,0.30148 1.77168,0.54594 1.68956,0.73864 1.24149,-0.0236 1.47685,-0.16994 0.92605,-0.19672 0.70031,-0.88873 0.80322,-1.32201"
       style="fill:none;stroke:#000000;stroke-width:2.5146203"
       id="path770"
       inkscape:connector-curvature="0" />
    <path
       d="m 111.50257,-167.66104 0,0 0.89807,-0.15137 1.0389,-0.2083 0.9917,-0.63159 1.15318,-0.0909 1.12988,-1.10372 0.65486,-1.17299 0.60398,-0.95626 0.36669,-0.91214 0.1983,-0.97506 -0.0714,-1.23791 0.33713,-0.93641 0.33498,-0.99707 0.53216,-1.18295 -0.76772,-0.32348 0.93277,-1.8527 0.58846,-1.14664 0.67043,-1.22445 0.75496,-1.57101 0.68754,-1.58096 0.72075,-1.65746 0.75561,-1.54181 0.64851,-1.3701 0.578,-1.28707 0.47282,-1.25767 0.28407,-1.33397 0.20815,-1.10018 0.11357,-1.01404 -0.02,-0.86553 -0.20536,-0.74251 -0.48888,-0.68606 -0.52972,-0.57268 -0.77373,-0.31503 -1.08072,0.0897 -0.70156,0.204 -0.54519,0.419 -0.69662,0.90167 -0.7449,1.1246 -0.65651,0.88097 -0.43101,1.11113 -0.13383,1.25179 -0.11413,1.21168 0.0484,1.0742 -0.003,1.29377 0.21432,1.32094 0.34719,1.18338 0.58882,1.00381 0.56418,1.05629 0.50497,1.23084 0.63414,1.27063 1.13967,1.3733 1.16899,1.62284 1.40631,1.42861 1.20125,1.07021 1.04957,1.00089 1.47794,0.73499 1.82306,0.70416 1.42228,0.65689 1.03412,0.56519 1.4448,0.35385 1.47242,0.0732 1.60043,0.18582 1.40862,0.20202 1.34398,-0.0901 1.52333,-0.055 1.59584,-0.0504 1.73988,-0.12962 1.14852,-0.39245 0.95345,-0.41709 0.40755,-0.46716"
       style="fill:none;stroke:#000000;stroke-width:2.5146203"
       id="path772"
       inkscape:connector-curvature="0" />
    <path
       d="m 148.45766,-174.66251 0,0 2.35616,-1.98422 2.3307,-1.90003 -1.11089,0.79708 1.06037,-1.20692 1.33246,-0.82945 1.38054,-0.8451 1.51256,-1.59661 1.62453,-1.60076 1.23869,-2.05713 1.62811,-1.94933 0.70774,-1.89048 1.03087,-2.33641 1.04159,-1.72156 1.17299,-1.36288 0.58444,-1.40945 0.37644,-0.0572 0.97132,-0.17385 -0.0463,0.94384 0.11369,1.15517 0.87343,0.45698 0.90049,0.36111 0.93009,0.67943 1.43347,0.25591 1.59375,0.61789 1.16167,0.65296 0.97675,0.43304 1.32991,0.52906 1.2744,0.15985 1.55121,0.13737 2.08854,-0.11707 1.85702,0.59557 1.89689,0.41617 2.07035,0.91492 2.85377,1.71743 1.43785,2.51039 0.83434,3.03925 0.108,2.83497 -0.44009,1.72347 -2.01947,1.88934 -1.61803,1.11667 -2.25928,1.84351 -2.11294,0.0317 -0.82111,0.16572 -2.22976,-0.42672 -2.76086,0.60733 -1.41552,-2.06031 -1.52044,-1.40897 -1.20785,-0.75242 -0.68537,-1.25438 0.39873,-0.9516 0.87605,0.14708 0.43458,0.94322 1.45703,1.18053 1.22877,2.19142 1.65414,1.63814 1.64339,1.36371 1.57329,1.69002 1.14106,1.58178 1.76044,0.95752 2.49759,0.91053 2.74221,0.57842 3.47046,-0.37364 2.6637,-0.0761 4.4593,-0.76864 5.28769,-1.31824 4.8685,-3.34187 3.83783,-3.74175 1.89041,-2.61618 2.43323,-2.79311"
       style="fill:none;stroke:#000000;stroke-width:2.5146203"
       id="path774"
       inkscape:connector-curvature="0" />
  </g>
  <g
     id="g776"
     transform="matrix(0.79534874,0,0,0.79534874,-23.05455,912.94441)">
    <path
       d="m 67.102414,-176.9692 0,0 -0.432376,-0.59332 1.531258,-0.40787 1.234331,-3.96043 3.490626,-3.84689 3.735259,-2.12073 4.460308,-8.31154 2.571094,-8.92872 2.32243,-7.71267 1.627658,-7.53744 2.674059,-8.15031 1.134685,-4.04088 0.888942,0.83022 0.686043,3.26065 1.492184,2.66576 0.602702,2.31649 0.491226,3.17283 0.236523,4.08555 -0.35843,5.62242 -0.421621,4.87118 0.148,6.47613 1.060665,5.53469 -0.381904,7.57172 -1.330665,5.83912 -1.065672,3.34344 -1.276705,3.42639 -1.669834,1.07329 -1.206167,2.56795 -1.005718,2.56274 -1.346653,2.99035 -0.704694,1.63043 -0.488484,0.17788 -0.151063,0.96086 -0.605964,1.69886 0.01423,1.88105 -0.304158,-1.06705 0.250941,-4.98796 1.576515,-5.82763 0.616816,-6.12827 0.390663,-5.98437 0.926982,-6.63091 0.436837,-4.08733 0.742365,-4.79102 1.099083,-5.42042 1.004979,-4.88309 1.034632,-3.86204 1.208433,-4.40708 1.852524,-3.148 1.22381,-1.90972 0.919415,-2.82353 0.584666,-2.30364 0.881311,-1.93007 0.649489,-1.62015 1.83746,-1.04015 1.63791,-0.89346 2.68308,-0.0979 1.88804,1.45732 2.15908,3.46781 0.86792,4.42543 1.04049,5.32261 0.33429,5.24407 1.08343,4.18195 1.36568,3.65653 2.42823,3.93028 2.11617,2.51757 2.88674,0.49853 2.82389,-0.90854 2.99888,-2.99051 2.73275,-1.65387 2.29193,-3.12551"
       style="fill:none;stroke:#000000;stroke-width:2.5146203"
       id="path778"
       inkscape:connector-curvature="0" />
    <path
       d="m 133.32996,-205.8401 0,0 2.86192,-1.92286 6.63619,-3.03432 6.19734,-4.61888 4.79027,-3.78554 4.02951,-5.89961 4.5508,-6.79364 2.51272,-7.14751 2.98932,-5.76436 2.36851,-5.93914 3.22228,-6.61166 2.29064,-6.65881 2.10845,-5.376 -0.0623,-3.70369 -0.83201,-3.39358 -1.06785,-2.07949 -1.28183,-1.58112 -1.19555,-1.22515 -0.70874,0.0669 -0.24481,0.79404 -0.38258,1.73456 -0.23641,1.8472 -0.29046,2.30584 0.10688,2.42495 0.0238,2.9678 -0.0205,3.34324 -0.27777,3.0131 0.39136,2.7456 0.16815,1.846 -0.0651,2.03242 -0.094,1.45333 -0.13155,1.48973 -0.12842,1.2833 -0.48265,2.08732 -1.25603,1.66026 -0.96305,2.95588 -1.16731,3.7168 -0.9998,3.94003 -0.34468,3.01424 -0.75692,2.82275 -0.61326,2.96296 0.35255,2.12383 0.73153,1.4598 0.64584,1.33416 -0.0297,2.08368 -0.22745,1.55568 -0.42665,1.89769 0.13347,1.58939 0.0439,-0.10932 0.31398,-1.68593 0.22214,-0.60724 0.91773,-0.91198 0.14489,-1.74672 1.09554,-0.72622 1.07962,-0.36534 1.11227,-0.41064 0.71145,-1.52487 1.99523,-0.90043 1.36755,-0.0299 2.53886,0.30003 3.43773,1.14048 3.62975,2.82535 2.9079,3.83845 2.52334,4.57951 1.83773,4.18226 2.41381,1.88932 2.93052,1.48138 2.412,0.38934 2.18713,-0.80751 1.26067,-3.83516"
       style="fill:none;stroke:#000000;stroke-width:2.5146203"
       id="path780"
       inkscape:connector-curvature="0" />
    <path
       d="m 203.23779,-209.85813 0,0 2.02218,-0.30852 3.5e-4,0.0523 1.36729,0.13695 0.17032,-0.37996 0.64381,-1.09819 0.67323,-0.99642 1.21648,-1.65243 1.44548,-0.59567 0.9423,-1.4298 1.397,-1.34597 0.81356,-1.77332 1.78995,-2.30132 0.83522,-1.41685 1.89879,-1.97533 1.81073,-2.16525 2.48132,-1.96696 2.18248,-1.79992 3.8012,-1.19357 3.04758,-0.6154 1.23457,-0.14369 0.46112,-0.11249 -0.19432,0.254 -1.86562,0.12767 -2.09356,0.51543 -2.07919,1.30781 -1.86629,1.50552 -1.88963,2.13036 -1.45326,4.01452 -2.0901,4.95924 -0.32842,4.19689 0.92436,5.52051 1.22214,3.94097 2.3477,1.24308 2.96106,-0.39694 3.88354,-1.19356 4.20489,-2.93876 3.54141,-4.07459 2.37287,-4.14256 1.1436,-2.92687 0.60029,-3.23982 0.11767,-3.15758 0.0485,-2.0168 -0.6468,-1.91871 -0.24157,-1.47899 -0.2319,-1.37288 -1.3681,-1.2555 -1.00078,-0.81993 -1.68666,-0.22348 -2.96547,-0.84303 -3.0358,0.63791 -3.31524,1.6973 -2.01987,1.77 -1.88623,2.98025 -1.71376,3.53903 -0.22296,3.41114 0.83544,3.85195 2.45632,1.9571 3.11605,1.86265 3.89721,0.80418 4.44356,0.0216 4.28206,-1.20852 4.42276,-1.55883 4.13098,-2.22083 2.13215,-2.68116 2.42647,-2.68357 2.52082,-2.21831 1.63317,-1.54926 1.27216,-1.5937 1.2602,-1.70698"
       style="fill:none;stroke:#000000;stroke-width:2.5146203"
       id="path782"
       inkscape:connector-curvature="0" />
    <path
       d="m 261.47465,-230.11199 0,0 3.51005,-2.72574 3.57738,-3.08114 4.03317,-4.86058 3.29468,-5.03593 2.86352,-6.31711 1.99977,-6.45976 1.36768,-5.84477 0.9456,-4.26842 0.5783,-3.74023 0.0717,-1.51179 -0.3733,0.46335 -0.57094,2.95923 -0.55405,3.27987 -0.29815,4.00168 -0.34205,3.89061 -0.29561,4.62403 -0.40553,5.54239 -0.32306,6.03854 -0.24611,4.96453 -0.47941,5.63533 -0.31313,5.27882 -0.31124,3.28645 -0.41614,2.33577 -0.24609,1.42684 -0.17246,0.28195 0.11439,-1.3235 0.25098,-4.52529 0.13969,-3.72341 0.1123,-3.53974 -0.0713,-3.7186 -0.0817,-3.74095 -0.16135,-3.81804 0.51134,-3.46788 0.50613,-2.53804 -0.39447,-1.15845 -2.54616,-0.30627 -2.24292,-0.86035 -0.71381,-0.52574 1.5567,0.36553 2.80473,1.11029 2.65971,0.62668 3.15348,0.13368 3.08923,0.1344 1.59909,0.35495 -0.59538,0.61065 -1.90796,0.50264 -2.56789,0.58141 -1.89954,0.79018 -1.02817,1.95902 -0.62125,2.37471 -0.31746,2.61836 0.009,2.96969 -0.46606,2.51218 -0.22452,3.03342 -0.0489,3.06761 -0.0764,2.60175 -0.23504,3.21612 -0.0653,2.50764 0.16765,2.8109 0.63673,2.44489 1.73114,1.58473 2.03121,0.80544 2.55564,-0.27789 3.40363,-0.74476 3.15661,-1.63218 3.29282,-2.39788 3.35899,-2.26838 2.30868,-2.52979 1.52373,-2.14404"
       style="fill:none;stroke:#000000;stroke-width:2.5146203"
       id="path784"
       inkscape:connector-curvature="0" />
    <path
       d="m 302.77709,-225.47238 0,0 2.02218,-0.30852 3.5e-4,0.0523 1.36729,0.13695 0.17032,-0.37995 0.64381,-1.09819 0.67323,-0.99643 1.21648,-1.65243 1.44548,-0.59567 0.94231,-1.42979 1.397,-1.34598 0.81355,-1.77332 1.78995,-2.30132 0.83523,-1.41685 1.89878,-1.97533 1.81073,-2.16525 2.48132,-1.96695 2.18248,-1.79993 3.8012,-1.19357 3.04758,-0.6154 1.23457,-0.14368 0.46112,-0.1125 -0.19432,0.254 -1.86562,0.12768 -2.09356,0.51543 -2.07919,1.3078 -1.86629,1.50553 -1.88963,2.13035 -1.45326,4.01452 -2.0901,4.95924 -0.32841,4.1969 0.92435,5.5205 1.22214,3.94097 2.3477,1.24308 2.96106,-0.39694 3.88354,-1.19355 4.20489,-2.93876 3.54141,-4.07459 2.37287,-4.14257 1.14361,-2.92687 0.60028,-3.23982 0.11767,-3.15758 0.0486,-2.01679 -0.64679,-1.91871 -0.24157,-1.47899 -0.23191,-1.37289 -1.3681,-1.2555 -1.00078,-0.81993 -1.68666,-0.22348 -2.96547,-0.84303 -3.03579,0.63791 -3.31524,1.69731 -2.01988,1.77 -1.88623,2.98024 -1.71376,3.53903 -0.22296,3.41115 0.83544,3.85195 2.45632,1.95709 3.11605,1.86266 3.89721,0.80417 4.44356,0.0217 4.28206,-1.20853 4.42276,-1.55883 4.13098,-2.22083 2.13215,-2.68116 2.42647,-2.68357 2.52082,-2.21831 1.63318,-1.54925 1.27215,-1.59371 1.2602,-1.70698"
       style="fill:none;stroke:#000000;stroke-width:2.5146203"
       id="path786"
       inkscape:connector-curvature="0" />
    <path
       d="m 361.01395,-245.72624 0,0 2.35616,-1.98422 2.3307,-1.90004 -1.1109,0.79708 1.06037,-1.20692 1.33246,-0.82944 1.38054,-0.8451 1.51257,-1.59661 1.62452,-1.60076 1.2387,-2.05713 1.6281,-1.94933 0.70775,-1.89048 1.03086,-2.33642 1.04159,-1.72155 1.173,-1.36288 0.58444,-1.40945 0.37644,-0.0572 0.97131,-0.17385 -0.0463,0.94384 0.11369,1.15517 0.87343,0.45698 0.90049,0.3611 0.93009,0.67944 1.43347,0.25591 1.59375,0.61789 1.16167,0.65296 0.97675,0.43304 1.32991,0.52906 1.2744,0.15985 1.5512,0.13736 2.08855,-0.11706 1.85701,0.59556 1.8969,0.41617 2.07034,0.91492 2.85378,1.71743 1.43785,2.5104 0.83434,3.03925 0.108,2.83497 -0.44009,1.72346 -2.01948,1.88935 -1.61802,1.11667 -2.25928,1.84351 -2.11294,0.0317 -0.82111,0.16572 -2.22977,-0.42672 -2.76085,0.60733 -1.41553,-2.06031 -1.52043,-1.40898 -1.20785,-0.75242 -0.68537,-1.25437 0.39873,-0.95161 0.87605,0.14709 0.43458,0.94322 1.45703,1.18053 1.22877,2.19142 1.65414,1.63813 1.64339,1.36371 1.57329,1.69003 1.14106,1.58178 1.76044,0.95751 2.49758,0.91054 2.74222,0.57842 3.47046,-0.37365 2.6637,-0.076 4.4593,-0.76865 5.28769,-1.31823 4.8685,-3.34187 3.83783,-3.74175 1.89041,-2.61619 2.43323,-2.7931"
       style="fill:none;stroke:#000000;stroke-width:2.5146203"
       id="path788"
       inkscape:connector-curvature="0" />
  </g>
  <g
     id="g790"
     transform="matrix(0.79534874,0,0,0.79534874,298.4564,872.65993)">
    <path
       d="m 112.28133,-225.54 0,0 -2.66999,0.56953 -0.53947,0.78398 0.43802,0.63737 0.85197,0.89496 1.05867,0.86869 0.2016,1.64186 -0.26945,2.25677 -0.37865,2.07221 -1.08621,2.72519 -0.63895,2.83045 -0.97359,4.37646 -1.13697,5.28633 -0.27193,5.3464 -0.0614,4.90403 0.10093,5.00325 0.43065,4.68116 0.21939,3.5888 0.25648,3.00395 0.27507,2.57672 0.37475,1.07331 -0.0131,1.43112 0.1948,0.38416 0.60833,-0.19602 0.68488,-0.70894 0.71063,-1.69473 0.5531,-1.48497 0.24454,-1.78819 -0.0674,-1.67187 -0.30605,-2.02735 -1.04618,-8.73786 -0.75873,-1.74667 -0.69531,-2.24809 -1.31204,-2.24492 -1.29772,-1.69703 -1.17961,-2.13139 -1.53661,-1.88002 -1.36429,-1.61067 -1.16698,-0.97662 -1.052584,-0.58538 -1.55382,-0.0999 -1.609981,0.2001 -1.748637,0.12112 -1.727066,0.0187 -1.457748,0.54671 -1.054268,1.24089 -0.899865,1.73622 -0.524264,2.12256 -0.360788,2.97323 -0.388667,3.34963 -0.618036,3.80481 0.127665,3.30343 0.602376,3.16428 0.66476,3.02213 1.171423,2.46077 1.174179,1.69744 1.117579,1.54933 1.744615,1.36417 1.960453,0.94808 1.534325,0.94057 1.527203,0.56977 1.695776,0.35395 1.85439,0.30148 1.77168,0.54594 1.68956,0.73864 1.24149,-0.0236 1.47685,-0.16994 0.92605,-0.19672 0.70031,-0.88873 0.80322,-1.32201"
       style="fill:none;stroke:#000000;stroke-width:2.5146203"
       id="path792"
       inkscape:connector-curvature="0" />
    <path
       d="m 111.50257,-167.66104 0,0 0.89807,-0.15137 1.0389,-0.2083 0.9917,-0.63159 1.15318,-0.0909 1.12988,-1.10372 0.65486,-1.17299 0.60398,-0.95626 0.36669,-0.91214 0.1983,-0.97506 -0.0714,-1.23791 0.33713,-0.93641 0.33498,-0.99707 0.53216,-1.18295 -0.76772,-0.32348 0.93277,-1.8527 0.58846,-1.14664 0.67043,-1.22445 0.75496,-1.57101 0.68754,-1.58096 0.72075,-1.65746 0.75561,-1.54181 0.64851,-1.3701 0.578,-1.28707 0.47282,-1.25767 0.28407,-1.33397 0.20815,-1.10018 0.11357,-1.01404 -0.02,-0.86553 -0.20536,-0.74251 -0.48888,-0.68606 -0.52972,-0.57268 -0.77373,-0.31503 -1.08072,0.0897 -0.70156,0.204 -0.54519,0.419 -0.69662,0.90167 -0.7449,1.1246 -0.65651,0.88097 -0.43101,1.11113 -0.13383,1.25179 -0.11413,1.21168 0.0484,1.0742 -0.003,1.29377 0.21432,1.32094 0.34719,1.18338 0.58882,1.00381 0.56418,1.05629 0.50497,1.23084 0.63414,1.27063 1.13967,1.3733 1.16899,1.62284 1.40631,1.42861 1.20125,1.07021 1.04957,1.00089 1.47794,0.73499 1.82306,0.70416 1.42228,0.65689 1.03412,0.56519 1.4448,0.35385 1.47242,0.0732 1.60043,0.18582 1.40862,0.20202 1.34398,-0.0901 1.52333,-0.055 1.59584,-0.0504 1.73988,-0.12962 1.14852,-0.39245 0.95345,-0.41709 0.40755,-0.46716"
       style="fill:none;stroke:#000000;stroke-width:2.5146203"
       id="path794"
       inkscape:connector-curvature="0" />
  </g>
  <g
     id="g808"
     transform="matrix(0.79534874,0,0,0.79534874,-37.00448,996.63554)">
    <path
       d="m 70.1093,-157.6452 0,0 1.765285,-0.70666 2.643388,-1.37034 2.593493,-1.94501 2.800785,-2.59914 3.179872,-3.55383 2.766089,-3.49818 2.658597,-3.58519 2.136399,-3.63562 1.986601,-3.62338 1.871055,-3.93127 1.942186,-3.45815 1.482655,-3.74769 1.370115,-3.60358 1.17556,-3.01064 0.83294,-2.87054 0.77403,-2.94891 0.4015,-2.64174 0.32237,-2.79037 0.0116,-2.47992 0.0177,-2.5248 -0.19475,-2.19832 -0.31591,-1.92895 -0.59908,-2.00681 -0.62665,-2.01307 -0.65258,-2.01946 -0.582699,-1.45845 -0.83596,-1.06845 -0.743159,-1.38741 -0.83121,-1.55726 -0.721708,-1.16096 -0.759822,-0.37186 -0.862539,-0.0388 -1.244557,0.4476 -0.997033,1.14182 -1.024227,1.00266 -0.566743,1.40845 -0.428193,1.76576 -0.328692,2.13329 -0.359693,2.17575 -0.180232,2.90137 -0.457575,3.04529 -0.390778,3.42881 -0.162859,3.52154 0.04342,3.7388 0.521906,3.26817 0.442661,3.60316 0.502401,4.28037 0.741452,4.49651 0.630798,4.41989 0.899915,4.08487 1.050986,3.95779 1.026433,3.9186 1.146086,2.95597 1.09829,2.81401 1.480694,2.73445 1.745957,2.17039 1.71991,2.08951 1.6399,1.34195 1.8193,1.0565 1.78202,1.11588 2.48534,0.74554 2.16388,0.3729 2.02073,0.0224 2.57534,-0.46083 3.01041,-1.21319 3.35729,-1.5366 3.52304,-2.33775 2.21869,-2.15047 1.26899,-1.91104"
       style="fill:none;stroke:#000000;stroke-width:2.5146203"
       id="path810"
       inkscape:connector-curvature="0" />
    <path
       d="m 129.8907,-166.82988 0,0 0.0343,-0.9158 0.79988,-1.31709 0.44719,-1.16667 0.13299,-0.79469 0.39847,-0.708 0.49242,-0.44922 1.1743,0.003 0.90705,1.036 0.18724,1.23524 -0.82598,0.85191 -1.02273,0.8135 -1.54488,0.29383 -1.88147,1.79217 -1.72352,1.81954 -1.73166,2.93234 -0.91329,3.24042 -0.445,2.80595 0.72028,2.5343 1.6342,2.24193 2.52685,1.663 2.25066,0.6763 2.53095,-0.0516 2.72862,-0.90172 2.52189,-1.65924 2.46866,-2.87837 1.81843,-3.00698 2.08495,-3.3048 1.71139,-2.86361 0.91769,-2.58794 0.47857,-1.54128 0.41287,-1.34171 -0.0125,-1.25088 -0.84538,-1.27366 -0.97677,-0.8841 -1.78481,-0.75309 -2.033,-0.69221 -1.69017,-0.28315 -1.17313,-0.13901 -0.66786,-0.79088 -0.65452,0.098 -0.17501,0.95095 0.21559,1.80125 0.10168,2.43473 1.17072,1.65092 1.46469,1.49912 2.02165,1.07382 1.09435,0.64915 0.28523,0.42277 0.49184,0.48722 -0.14251,1.14272 0.28543,0.65775 -0.0318,0.94947 -0.16618,0.7772 0.10483,1.28738 0.51712,1.77781 0.48523,1.4134 0.81599,1.67546 0.66374,1.96176 0.81629,2.30098 0.68625,2.06153 0.92546,1.52636 0.90482,1.40463 1.28786,1.17593 1.4179,0.81969 2.40907,-0.10747 2.43478,-1.19311 2.8476,-2.34334 2.53201,-3.31614 1.41918,-3.31652"
       style="fill:none;stroke:#000000;stroke-width:2.5146203"
       id="path812"
       inkscape:connector-curvature="0" />
  </g>
  <g
     id="g834"
     transform="matrix(0.79534874,0,0,0.79534874,87.132472,1001.6511)">
    <path
       d="m 63.531625,-161.15154 0,0 2.482966,-0.55608 3.282095,-0.49559 2.713773,-3.27605 0.667311,-4.85607 1.189649,-5.32338 -0.03723,-3.00702 1.625777,-2.55947 3.865353,-3.82989 4.095654,-6.09796 3.791627,-5.89825 2.928054,-5.5234 2.650883,-5.44763 2.06571,-5.51677 1.491708,-4.34347 0.404186,-4.29622 0.0306,-3.69981 -0.152979,-3.88885 -0.925335,-1.9114 -0.806158,-1.70115 -0.70606,0.15392 -1.622047,1.66693 -0.561814,0.72192 -0.834604,1.90388 -0.839675,3.41328 -0.702564,3.85055 -1.200808,5.045 0.481568,3.83026 -0.828828,4.37412 -0.471415,4.30273 -0.358332,4.26814 -0.305706,3.56791 -0.730019,1.85199 -0.718936,2.82488 -1.230549,3.55476 -1.195212,3.09738 -1.146403,3.66215 -0.678558,3.00223 -0.311687,3.06358 0.184011,3.47173 0.769659,3.16725 0.982055,3.20523 1.045293,2.9679 1.328656,2.21766 1.745777,2.0034 1.902448,0.95537 1.810521,0.0159 2.440091,-0.23511 2.430093,-0.40379 2.665959,-1.28328 1.633386,-0.48809 2.075421,-1.17853 1.39436,-1.35501 1.06516,-0.47914 1.55351,-0.51331 1.31728,-1.12976 1.15773,-1.26901 0.7947,-1.75326 0.40382,-1.60617 0.97638,-1.33079 0.30609,-0.9059 0.87075,0.0805 0.68272,0.37364 1.87671,0.77052 2.80456,0.92605 2.67924,0.49597 4.89212,-0.81328 6.24143,-1.2344 3.7064,-2.15688 1.79844,-0.83277"
       style="fill:none;stroke:#000000;stroke-width:2.5146203"
       id="path836"
       inkscape:connector-curvature="0" />
    <path
       d="m 136.46838,-173.54184 0,0 0.95083,-0.43766 1.23936,-1.1519 0.99829,-1.26977 1.2562,-1.162 1.62954,-0.95884 1.67113,-0.48347 1.52432,0.0734 1.27207,0.73872 0.85887,0.9656 0.78794,1.22197 0.60848,1.27214 0.11572,0.93404 -0.62139,1.54934 -0.27241,1.45702 -0.47069,1.45199 0.005,1.30438 0.0848,1.02277 0.94328,0.72041 1.37574,0.44521 1.65862,0.0873 1.1674,-0.36769 1.29574,-0.87113 1.25566,-0.91007 0.84877,-0.47444 0.90459,-1.19079 0.0938,-1.34792 0.27864,-1.5846 0.41757,-1.00222 0.28246,-1.05677 -0.17012,-0.27818 -0.49458,0.26788 -0.57402,0.15838 -0.96432,0.25262 -0.95113,0.56737 -1.15388,0.55172 -1.03544,0.29345 -0.4486,0.22929 -0.0151,0.0413 0.65119,-1.35976 0.9761,-0.70466 1.04132,-0.36356 0.49962,0.15482 1.05739,0.63464 1.72391,0.0241 2.09982,0.21625 2.47169,-0.3662 1.53539,-0.43209 0.774,-0.82 0.83166,-0.64852 0.10312,0.47952 0.21142,0.54195 -0.36854,1.40715 -0.2616,1.551 -0.16113,2.21695 0.23237,2.1598 0.49652,2.04561 1.07238,2.30149 0.97191,2.7627 0.98857,3.20148 0.92452,3.28398 1.07638,2.45077 1.38301,2.19357 1.74726,1.61861 2.07583,0.92796 2.62513,-0.0681 2.77025,-1.13808 3.19956,-2.17071 3.09665,-3.43633 1.5159,-3.12991"
       style="fill:none;stroke:#000000;stroke-width:2.5146203"
       id="path838"
       inkscape:connector-curvature="0" />
    <path
       d="m 190.18315,-156.94859 0,0 2.70138,-2.70365 2.45045,-2.65622 -1.09456,0.25324 0.45323,-1.14675 0.57249,-0.88817 0.59597,-0.55248 0.79339,-0.97602 1.42552,-0.84184 1.02341,-1.34449 1.32124,-1.53268 0.8277,-1.50089 0.9614,-2.25295 1.08394,-1.52133 1.06488,-1.54754 0.43422,-1.52784 0.38992,-0.91497 0.59862,0.0638 -0.026,0.99508 0.19241,0.69427 0.73116,0.16665 0.79987,-0.62597 1.21194,-0.74547 1.90885,-1.01398 2.1409,-0.68798 1.82369,-0.77357 1.70804,-0.78424 2.34151,-0.93424 2.21111,-0.67008 2.57639,-0.26135 2.75508,-0.0506 1.84377,0.35038 1.68362,0.58905 1.84427,0.98 2.57582,1.9592 1.43811,2.85269 1.48106,4.23883 0.0562,7.2441 -1.60373,5.51266 -3.56631,3.36397 -4.2231,2.33199 -4.83134,1.3093 -4.30871,-1.37629 -2.64637,-1.35024 -2.92188,-1.56552 -2.81717,-0.9371 -1.08325,-2.64884 -0.2688,-0.68273 -0.44086,0.39934 0.3752,0.1524 2.08594,0.81432 2.35309,0.82087 1.49829,1.2887 2.79773,1.05238 2.48885,1.97096 2.74355,1.00086 3.00911,1.08432 3.25281,0.2129 1.89379,0.90141 2.63365,0.008 2.9273,0.12202 3.10993,-0.20357 3.56007,-1.44096 2.98521,-0.75664 3.87821,-1.71265 4.54446,-1.59657 4.04539,-3.04291 3.47879,-3.14752 2.05967,-2.44911 2.73596,-2.68344"
       style="fill:none;stroke:#000000;stroke-width:2.5146203"
       id="path840"
       inkscape:connector-curvature="0" />
    <path
       d="m 266.82968,-168.26419 0,0 1.14903,-0.0834 1.31576,-0.16768 1.27222,-0.57343 1.41554,-0.34621 1.44587,-1.04094 1.09445,-1.2304 1.14856,-1.04303 0.83238,-1.1254 0.619,-1.28973 0.31946,-1.42579 0.42806,-1.15814 0.2233,-1.11599 0.23225,-1.25159 -1.29901,-0.097 0.44155,-1.65825 0.0757,-1.06921 0.0704,-1.08818 0.14554,-1.24401 0.13583,-1.2783 0.15154,-1.23013 0.11458,-1.02844 0.0545,-0.9196 -0.0492,-0.94321 -0.20426,-0.87521 -0.29692,-0.91851 -0.33918,-0.72218 -0.55196,-0.59356 -0.65814,-0.38025 -0.63265,-0.25968 -0.68096,-0.13616 -0.69676,-0.007 -0.78322,0.28858 -1.04285,0.73695 -0.65237,0.89591 -0.4628,1.16952 -0.44413,1.59722 -0.32603,1.73059 -0.31422,1.39737 -0.18731,1.52714 0.0762,1.71251 0.14836,1.61863 0.30516,1.49845 0.33924,1.64813 0.49796,1.63996 0.62497,1.71882 0.87014,1.4638 0.87611,1.32303 0.94334,1.39166 1.17289,1.41579 1.63594,1.37302 1.71503,1.3278 1.94395,1.19632 1.84806,0.8843 1.94128,0.77431 2.30417,0.54144 2.50365,0.4024 2.03731,0.32551 1.59543,0.26199 1.40471,0.13885 1.29165,-0.12419 1.18309,-0.0623 1.14166,-0.0884 0.98409,-0.22889 0.97851,-0.18355 1.03169,-0.18528 1.24557,-0.23157 0.84891,-0.42096 0.81988,-0.38118 0.34139,-0.0395"
       style="fill:none;stroke:#000000;stroke-width:2.5146203"
       id="path842"
       inkscape:connector-curvature="0" />
  </g>
  <g
     transform="matrix(0.79534874,0,0,0.79534874,-52.718615,693.28505)"
     id="g4872">
    <path
       inkscape:connector-curvature="0"
       id="path4874"
       style="fill:none;stroke:#000000;stroke-width:2.5146203"
       d="m 81.522456,-179.3 0,0 0.89807,-0.15137 1.038902,-0.2083 0.991693,-0.63159 1.153182,-0.0909 1.129885,-1.10373 0.654858,-1.17298 0.603982,-0.95627 0.366686,-0.91213 0.198302,-0.97507 -0.07145,-1.23791 0.337137,-0.93641 0.334979,-0.99707 0.53216,-1.18295 -0.767723,-0.32347 0.932771,-1.85271 0.588456,-1.14664 0.670438,-1.22444 0.754956,-1.57102 0.687541,-1.58096 0.720746,-1.65746 0.755617,-1.5418 0.648504,-1.37011 0.577999,-1.28707 0.47282,-1.25767 0.28407,-1.33397 0.208157,-1.10018 0.113561,-1.01404 -0.02004,-0.86553 -0.205352,-0.74251 -0.488886,-0.68606 -0.529717,-0.57268 -0.77373,-0.31503 -1.080723,0.0898 -0.701559,0.20399 -0.54519,0.419 -0.696621,0.90167 -0.7449,1.1246 -0.656507,0.88098 -0.431015,1.11112 -0.13383,1.25179 -0.114128,1.21168 0.04842,1.0742 -0.0031,1.29378 0.214322,1.32093 0.347189,1.18338 0.588823,1.00381 0.564179,1.05629 0.504973,1.23084 0.634133,1.27063 1.139671,1.3733 1.168991,1.62284 1.40631,1.42861 1.201255,1.07021 1.049564,1.00089 1.477944,0.73499 1.823059,0.70416 1.42228,0.6569 1.03413,0.56518 1.44479,0.35386 1.47242,0.0732 1.60043,0.18582 1.40862,0.20202 1.34398,-0.0901 1.52333,-0.055 1.59585,-0.0504 1.73988,-0.12963 1.14851,-0.39244 0.95346,-0.4171 0.40754,-0.46716" />
    <path
       inkscape:connector-curvature="0"
       id="path4876"
       style="fill:none;stroke:#000000;stroke-width:2.5146203"
       d="m 118.47754,-186.30147 0,0 2.35616,-1.98422 2.33071,-1.90003 -1.1109,0.79708 1.06037,-1.20692 1.33246,-0.82945 1.38054,-0.84509 1.51257,-1.59662 1.62452,-1.60075 1.23869,-2.05714 1.62811,-1.94933 0.70774,-1.89047 1.03087,-2.33642 1.04159,-1.72155 1.173,-1.36289 0.58443,-1.40945 0.37644,-0.0572 0.97132,-0.17384 -0.0463,0.94383 0.11368,1.15517 0.87343,0.45698 0.90049,0.36111 0.9301,0.67943 1.43346,0.25591 1.59375,0.61789 1.16167,0.65296 0.97675,0.43304 1.32991,0.52906 1.27441,0.15985 1.5512,0.13737 2.08855,-0.11707 1.85701,0.59557 1.89689,0.41617 2.07035,0.91492 2.85377,1.71743 1.43786,2.51039 0.83433,3.03925 0.10801,2.83497 -0.44009,1.72347 -2.01948,1.88934 -1.61803,1.11667 -2.25928,1.84351 -2.11294,0.0317 -0.82111,0.16572 -2.22976,-0.42672 -2.76085,0.60733 -1.41553,-2.06031 -1.52043,-1.40897 -1.20785,-0.75242 -0.68538,-1.25438 0.39873,-0.9516 0.87605,0.14708 0.43459,0.94322 1.45703,1.18053 1.22877,2.19142 1.65413,1.63814 1.6434,1.36371 1.57328,1.69002 1.14107,1.58178 1.76044,0.95752 2.49758,0.91053 2.74221,0.57843 3.47047,-0.37365 2.66369,-0.0761 4.45931,-0.76864 5.28768,-1.31824 4.86851,-3.34187 3.83783,-3.74175 1.89041,-2.61618 2.43322,-2.79311" />
    <path
       inkscape:connector-curvature="0"
       id="path4878"
       style="fill:none;stroke:#000000;stroke-width:2.5146203"
       d="m 190.18317,-191.45525 0,0 3.51005,-2.72574 3.57738,-3.08113 4.03318,-4.86058 3.29468,-5.03593 2.86352,-6.31711 1.99977,-6.45977 1.36767,-5.84476 0.94561,-4.26842 0.5783,-3.74023 0.0717,-1.5118 -0.3733,0.46336 -0.57093,2.95923 -0.55405,3.27986 -0.29815,4.00169 -0.34205,3.89061 -0.29561,4.62403 -0.40554,5.54238 -0.32305,6.03854 -0.24611,4.96454 -0.47941,5.63532 -0.31313,5.27883 -0.31125,3.28644 -0.41613,2.33577 -0.24609,1.42684 -0.17247,0.28196 0.11439,-1.3235 0.25099,-4.5253 0.13969,-3.7234 0.11229,-3.53974 -0.0713,-3.7186 -0.0817,-3.74096 -0.16135,-3.81803 0.51133,-3.46788 0.50613,-2.53805 -0.39446,-1.15844 -2.54616,-0.30627 -2.24292,-0.86036 -0.71381,-0.52574 1.5567,0.36554 2.80473,1.11029 2.65971,0.62668 3.15348,0.13367 3.08923,0.13441 1.59909,0.35495 -0.59538,0.61065 -1.90796,0.50264 -2.56789,0.58141 -1.89954,0.79017 -1.02818,1.95902 -0.62125,2.37472 -0.31746,2.61836 0.009,2.96969 -0.46607,2.51218 -0.22451,3.03341 -0.0489,3.06762 -0.0764,2.60175 -0.23504,3.21612 -0.0653,2.50764 0.16766,2.8109 0.63673,2.44488 1.73114,1.58473 2.03121,0.80544 2.55563,-0.27789 3.40363,-0.74476 3.15662,-1.63217 3.29282,-2.39788 3.35898,-2.26839 2.30869,-2.52978 1.52373,-2.14404" />
  </g>
  <g
     transform="matrix(0.79534874,0,0,0.79534874,149.87192,511.32167)"
     id="g4880">
    <path
       inkscape:connector-curvature="0"
       id="path4882"
       style="fill:none;stroke:#000000;stroke-width:2.5146203"
       d="m 78.225421,-179.39943 0,0 1.226237,-0.50458 0.893064,-0.77724 1.47278,-1.05742 1.441446,-1.57902 1.787092,-1.7526 1.42646,-1.90587 1.599136,-1.58271 1.068665,-1.70347 1.297289,-1.73862 1.493609,-2.05421 1.545302,-1.83727 1.568353,-2.16812 1.326694,-1.454 1.908291,-1.73269 1.960371,-1.54216 1.87296,-1.28538 1.56944,-0.95865 1.49175,-0.77365 1.68774,-0.96652 1.72081,-0.67432 1.60041,-0.78161 1.30613,-0.55014 1.65217,-0.6582 1.39642,-0.58293 1.68906,-0.47195 0.76047,-0.31422 0.45531,-0.20129 0.28556,-0.15241 -0.11484,-0.0212 -0.77053,-0.0358 -1.01991,-0.0823 -2.78964,0.1465 -2.09164,0.0621 -1.60056,0.19383 -1.23867,0.20738 -1.28098,0.41732 -1.22998,0.72067 -1.32617,0.60599 -1.30822,0.72275 -1.39032,0.63577 -1.33762,0.90232 -0.9388,0.91286 -0.89296,1.04644 -0.839925,1.58103 -0.718716,1.72281 -0.717245,1.4268 -0.240148,1.34896 -0.05295,1.84758 -0.131237,1.39806 0.01629,1.50867 0.286485,1.33033 0.18697,1.43815 0.421905,1.20327 0.541527,1.4403 0.864025,1.47319 1.078437,1.54441 1.265542,1.94084 1.69316,1.50455 2.13309,1.23751 1.7768,1.01011 2.79851,0.4695 2.60156,-0.0753 2.88276,-0.28223 2.42928,-0.4221 2.55504,-0.59064 1.15837,-0.41214 0.62011,-0.44112 0.49614,-0.52106 0.2712,-0.56059" />
  </g>
</svg>
