<?xml version="1.0" encoding="UTF-8" standalone="no"?>
<!-- Created with Inkscape (http://www.inkscape.org/) -->

<svg
   xmlns:dc="http://purl.org/dc/elements/1.1/"
   xmlns:cc="http://creativecommons.org/ns#"
   xmlns:rdf="http://www.w3.org/1999/02/22-rdf-syntax-ns#"
   xmlns:svg="http://www.w3.org/2000/svg"
   xmlns="http://www.w3.org/2000/svg"
   xmlns:xlink="http://www.w3.org/1999/xlink"
   xmlns:sodipodi="http://sodipodi.sourceforge.net/DTD/sodipodi-0.dtd"
   xmlns:inkscape="http://www.inkscape.org/namespaces/inkscape"
   width="441.95999mm"
   height="260.49112mm"
   viewBox="0 0 1566 923.00003"
   id="svg4773"
   version="1.1"
   inkscape:version="0.91 r13725"
   sodipodi:docname="no-attention.svg">
  <defs
     id="defs4775">
    <clipPath
       clipPathUnits="userSpaceOnUse"
       id="clipPath5205">
      <path
         d="m 292.914,70.362 c 0,-1.109 -0.902,-2.012 -2.012,-2.012 -1.109,0 -2.011,0.903 -2.011,2.012 0,1.109 0.902,2.012 2.011,2.012 1.11,0 2.012,-0.903 2.012,-2.012 z"
         id="path5207"
         inkscape:connector-curvature="0"
         style="clip-rule:evenodd" />
    </clipPath>
    <radialGradient
       fx="146.49426"
       fy="145.65688"
       cx="146.49426"
       cy="145.65688"
       r="1.95717"
       gradientUnits="userSpaceOnUse"
       gradientTransform="matrix(-0.595619,-1.027256,-1.149635,0.666576,545.11656,125.50102)"
       spreadMethod="pad"
       id="radialGradient5211">
      <stop
         style="stop-opacity:1;stop-color:#4e9a06"
         offset="0"
         id="stop5213" />
      <stop
         style="stop-opacity:1;stop-color:#73d216"
         offset="1"
         id="stop5215" />
    </radialGradient>
    <clipPath
       clipPathUnits="userSpaceOnUse"
       id="clipPath5235">
      <path
         d="m 302.273,78.382 c 0,-1.11 -0.898,-2.008 -2.007,-2.008 -1.11,0 -2.012,0.898 -2.012,2.008 0,1.113 0.902,2.011 2.012,2.011 1.109,0 2.007,-0.898 2.007,-2.011 z"
         id="path5237"
         inkscape:connector-curvature="0"
         style="clip-rule:evenodd" />
    </clipPath>
    <radialGradient
       fx="146.49426"
       fy="145.65688"
       cx="146.49426"
       cy="145.65688"
       r="1.95717"
       gradientUnits="userSpaceOnUse"
       gradientTransform="matrix(-0.595619,-1.027256,-1.149635,0.666576,554.47948,133.52257)"
       spreadMethod="pad"
       id="radialGradient5241">
      <stop
         style="stop-opacity:1;stop-color:#a40000"
         offset="0"
         id="stop5243" />
      <stop
         style="stop-opacity:1;stop-color:#ef2929"
         offset="1"
         id="stop5245" />
    </radialGradient>
    <clipPath
       clipPathUnits="userSpaceOnUse"
       id="clipPath5273">
      <path
         d="m 257.594,105.21 c -1.856,-0.071 -2.84,-0.793 -5.606,-1.617 -2.761,-0.821 -6.187,-3.887 -6.187,-8.446 0,-5.797 4.699,-11.527 10.496,-12.797 2.91,-0.636 4.711,-0.027 7.789,1.039 3.082,1.067 6.633,4.231 6.633,8.786 0,5.8 -4.699,11.531 -10.496,12.796 -0.907,0.2 -1.789,0.27 -2.629,0.239 z"
         id="path5275"
         inkscape:connector-curvature="0" />
    </clipPath>
    <linearGradient
       x1="533.21429"
       y1="211.64789"
       x2="512.14282"
       y2="168.79076"
       gradientUnits="userSpaceOnUse"
       gradientTransform="matrix(0.477773,0,0,-0.477773,8.630011,184.61036)"
       spreadMethod="pad"
       id="linearGradient5279">
      <stop
         style="stop-opacity:1;stop-color:#ffd7e6"
         offset="0"
         id="stop5281" />
      <stop
         style="stop-opacity:1;stop-color:#9f4d6c"
         offset="1"
         id="stop5283" />
    </linearGradient>
    <clipPath
       clipPathUnits="userSpaceOnUse"
       id="clipPath5500">
      <path
         d="m 288,72.409 5,0 0,-5 -5,0 0,5 z"
         id="path5502"
         inkscape:connector-curvature="0" />
    </clipPath>
    <clipPath
       clipPathUnits="userSpaceOnUse"
       id="clipPath5506">
      <path
         d="m 292.914,70.362 c 0,-1.109 -0.902,-2.012 -2.012,-2.012 -1.109,0 -2.011,0.903 -2.011,2.012 0,1.109 0.902,2.012 2.011,2.012 1.11,0 2.012,-0.903 2.012,-2.012 z"
         id="path5508"
         inkscape:connector-curvature="0" />
    </clipPath>
    <clipPath
       clipPathUnits="userSpaceOnUse"
       id="clipPath5516">
      <path
         d="m 288,68 5,0 0,5 -5,0 0,-5 z"
         id="path5518"
         inkscape:connector-curvature="0" />
    </clipPath>
    <clipPath
       clipPathUnits="userSpaceOnUse"
       id="clipPath5526">
      <path
         d="m 292.914,70.953 c 0,-1.109 -0.902,-2.012 -2.012,-2.012 -1.109,0 -2.011,0.903 -2.011,2.012 0,1.109 0.902,2.012 2.011,2.012 1.11,0 2.012,-0.903 2.012,-2.012 z"
         id="path5528"
         inkscape:connector-curvature="0"
         style="clip-rule:evenodd" />
    </clipPath>
    <radialGradient
       fx="146.49426"
       fy="145.65688"
       cx="146.49426"
       cy="145.65688"
       r="1.95717"
       gradientUnits="userSpaceOnUse"
       gradientTransform="matrix(-0.595619,-1.027256,-1.149635,0.666576,545.11656,126.09202)"
       spreadMethod="pad"
       id="radialGradient5532">
      <stop
         style="stop-opacity:1;stop-color:#4e9a06"
         offset="0"
         id="stop5534" />
      <stop
         style="stop-opacity:1;stop-color:#73d216"
         offset="1"
         id="stop5536" />
    </radialGradient>
    <clipPath
       clipPathUnits="userSpaceOnUse"
       id="clipPath5558">
      <path
         d="m 298,80.409 5,0 0,-5 -5,0 0,5 z"
         id="path5560"
         inkscape:connector-curvature="0" />
    </clipPath>
    <clipPath
       clipPathUnits="userSpaceOnUse"
       id="clipPath5564">
      <path
         d="m 302.273,78.382 c 0,-1.11 -0.898,-2.008 -2.007,-2.008 -1.11,0 -2.012,0.898 -2.012,2.008 0,1.113 0.902,2.011 2.012,2.011 1.109,0 2.007,-0.898 2.007,-2.011 z"
         id="path5566"
         inkscape:connector-curvature="0" />
    </clipPath>
    <clipPath
       clipPathUnits="userSpaceOnUse"
       id="clipPath5574">
      <path
         d="m 298,76 5,0 0,5 -5,0 0,-5 z"
         id="path5576"
         inkscape:connector-curvature="0" />
    </clipPath>
    <clipPath
       clipPathUnits="userSpaceOnUse"
       id="clipPath5584">
      <path
         d="m 302.273,78.973 c 0,-1.11 -0.898,-2.008 -2.007,-2.008 -1.11,0 -2.012,0.898 -2.012,2.008 0,1.113 0.902,2.011 2.012,2.011 1.109,0 2.007,-0.898 2.007,-2.011 z"
         id="path5586"
         inkscape:connector-curvature="0"
         style="clip-rule:evenodd" />
    </clipPath>
    <radialGradient
       fx="146.49426"
       fy="145.65688"
       cx="146.49426"
       cy="145.65688"
       r="1.95717"
       gradientUnits="userSpaceOnUse"
       gradientTransform="matrix(-0.595619,-1.027256,-1.149635,0.666576,554.47948,134.11357)"
       spreadMethod="pad"
       id="radialGradient5590">
      <stop
         style="stop-opacity:1;stop-color:#a40000"
         offset="0"
         id="stop5592" />
      <stop
         style="stop-opacity:1;stop-color:#ef2929"
         offset="1"
         id="stop5594" />
    </radialGradient>
    <clipPath
       clipPathUnits="userSpaceOnUse"
       id="clipPath5638">
      <path
         d="m 245,105.409 26,0 0,-24 -26,0 0,24 z"
         id="path5640"
         inkscape:connector-curvature="0" />
    </clipPath>
    <clipPath
       clipPathUnits="userSpaceOnUse"
       id="clipPath5644">
      <path
         d="m 257.594,105.21 c -1.856,-0.071 -2.84,-0.793 -5.606,-1.617 -2.761,-0.821 -6.187,-3.887 -6.187,-8.446 0,-5.797 4.699,-11.527 10.496,-12.797 2.91,-0.636 4.711,-0.027 7.789,1.039 3.082,1.067 6.633,4.231 6.633,8.786 0,5.8 -4.699,11.531 -10.496,12.796 -0.907,0.2 -1.789,0.27 -2.629,0.239 z"
         id="path5646"
         inkscape:connector-curvature="0" />
    </clipPath>
    <clipPath
       clipPathUnits="userSpaceOnUse"
       id="clipPath5654">
      <path
         d="m 245,82 26,0 0,24 -26,0 0,-24 z"
         id="path5656"
         inkscape:connector-curvature="0" />
    </clipPath>
    <clipPath
       clipPathUnits="userSpaceOnUse"
       id="clipPath5664">
      <path
         d="m 257.594,105.801 c -1.856,-0.071 -2.84,-0.793 -5.606,-1.617 -2.761,-0.821 -6.187,-3.887 -6.187,-8.446 0,-5.797 4.699,-11.527 10.496,-12.797 2.91,-0.636 4.711,-0.027 7.789,1.039 3.082,1.067 6.633,4.231 6.633,8.786 0,5.8 -4.699,11.531 -10.496,12.796 -0.907,0.2 -1.789,0.27 -2.629,0.239 z"
         id="path5666"
         inkscape:connector-curvature="0" />
    </clipPath>
    <linearGradient
       x1="533.21429"
       y1="211.64789"
       x2="512.14282"
       y2="168.79076"
       gradientUnits="userSpaceOnUse"
       gradientTransform="matrix(0.477773,0,0,-0.477773,8.630011,185.20136)"
       spreadMethod="pad"
       id="linearGradient5670">
      <stop
         style="stop-opacity:1;stop-color:#83e028"
         offset="0"
         id="stop5672" />
      <stop
         style="stop-opacity:1;stop-color:#407110"
         offset="1"
         id="stop5674" />
    </linearGradient>
    <clipPath
       clipPathUnits="userSpaceOnUse"
       id="clipPath5558-4">
      <path
         d="m 298,80.409 5,0 0,-5 -5,0 0,5 z"
         id="path5560-7"
         inkscape:connector-curvature="0" />
    </clipPath>
    <clipPath
       clipPathUnits="userSpaceOnUse"
       id="clipPath5564-7">
      <path
         d="m 302.273,78.382 c 0,-1.11 -0.898,-2.008 -2.007,-2.008 -1.11,0 -2.012,0.898 -2.012,2.008 0,1.113 0.902,2.011 2.012,2.011 1.109,0 2.007,-0.898 2.007,-2.011 z"
         id="path5566-2"
         inkscape:connector-curvature="0" />
    </clipPath>
    <clipPath
       clipPathUnits="userSpaceOnUse"
       id="clipPath5574-3">
      <path
         d="m 298,76 5,0 0,5 -5,0 0,-5 z"
         id="path5576-7"
         inkscape:connector-curvature="0" />
    </clipPath>
    <clipPath
       clipPathUnits="userSpaceOnUse"
       id="clipPath5584-3">
      <path
         d="m 302.273,78.973 c 0,-1.11 -0.898,-2.008 -2.007,-2.008 -1.11,0 -2.012,0.898 -2.012,2.008 0,1.113 0.902,2.011 2.012,2.011 1.109,0 2.007,-0.898 2.007,-2.011 z"
         id="path5586-7"
         inkscape:connector-curvature="0"
         style="clip-rule:evenodd" />
    </clipPath>
    <radialGradient
       fx="146.49426"
       fy="145.65688"
       cx="146.49426"
       cy="145.65688"
       r="1.95717"
       gradientUnits="userSpaceOnUse"
       gradientTransform="matrix(-0.595619,-1.027256,-1.149635,0.666576,554.47948,134.11357)"
       spreadMethod="pad"
       id="radialGradient5590-2">
      <stop
         style="stop-opacity:1;stop-color:#a40000"
         offset="0"
         id="stop5592-4" />
      <stop
         style="stop-opacity:1;stop-color:#ef2929"
         offset="1"
         id="stop5594-2" />
    </radialGradient>
  </defs>
  <sodipodi:namedview
     id="base"
     pagecolor="#ffffff"
     bordercolor="#666666"
     borderopacity="1.0"
     inkscape:pageopacity="0.0"
     inkscape:pageshadow="2"
     inkscape:zoom="0.98994949"
     inkscape:cx="376.9767"
     inkscape:cy="387.92897"
     inkscape:document-units="px"
     inkscape:current-layer="layer1"
     showgrid="false"
     borderlayer="false"
     fit-margin-top="0"
     fit-margin-left="0"
     fit-margin-right="0"
     fit-margin-bottom="0"
     inkscape:window-width="2560"
     inkscape:window-height="1330"
     inkscape:window-x="0"
     inkscape:window-y="54"
     inkscape:window-maximized="1" />
  <metadata
     id="metadata4778">
    <rdf:RDF>
      <cc:Work
         rdf:about="">
        <dc:format>image/svg+xml</dc:format>
        <dc:type
           rdf:resource="http://purl.org/dc/dcmitype/StillImage" />
        <dc:title />
      </cc:Work>
    </rdf:RDF>
  </metadata>
  <g
     inkscape:label="Layer 1"
     inkscape:groupmode="layer"
     id="layer1"
     transform="translate(612.28577,-76.576492)">
    <image
       sodipodi:absref="/home/skadge/talks/presentation-cognitive-robotics/figs/realSetup.jpg"
       xlink:href="realSetup.jpg"
       y="76.576492"
       x="-612.28577"
       id="image5329"
       preserveAspectRatio="none"
       height="923"
       width="1566" />
    <path
       sodipodi:nodetypes="cc"
       inkscape:connector-curvature="0"
       id="path5741"
       style="fill:#ffffff;fill-opacity:1;fill-rule:evenodd;stroke:#ef2929;stroke-width:16.0742569;stroke-linecap:round;stroke-linejoin:miter;stroke-miterlimit:4;stroke-dasharray:16.07425827, 32.14851654;stroke-dashoffset:0;stroke-opacity:1"
       d="M -132.78661,787.17662 -26.286882,517.18309" />
    <path
       d="M -500.48214,744.75021 -35.378255,506.07141"
       style="fill:#ffffff;fill-opacity:1;fill-rule:evenodd;stroke:#fcaf3e;stroke-width:16.0742569;stroke-linecap:round;stroke-linejoin:miter;stroke-miterlimit:4;stroke-dasharray:16.07425827, 32.14851654;stroke-dashoffset:0;stroke-opacity:1"
       id="path5626"
       inkscape:connector-curvature="0"
       sodipodi:nodetypes="cc" />
    <path
       d="M -103.46244,797.91193 19.660191,524.00905"
       style="fill:#73d216;fill-opacity:1;fill-rule:evenodd;stroke:#ef2929;stroke-width:16.0742569;stroke-linecap:round;stroke-linejoin:miter;stroke-miterlimit:4;stroke-dasharray:16.07425827, 32.14851654;stroke-dashoffset:0;stroke-opacity:1"
       id="path5743"
       inkscape:connector-curvature="0"
       sodipodi:nodetypes="cc" />
    <path
       sodipodi:nodetypes="cc"
       inkscape:connector-curvature="0"
       id="path5735"
       style="fill:#ffffff;fill-opacity:1;fill-rule:evenodd;stroke:#fcaf3e;stroke-width:16.0742569;stroke-linecap:round;stroke-linejoin:miter;stroke-miterlimit:4;stroke-dasharray:16.07425827, 32.14851654;stroke-dashoffset:0;stroke-opacity:1"
       d="M -297.41173,791.85102 31.782022,507.84661" />
  </g>
</svg>
