<?xml version="1.0" encoding="UTF-8" standalone="no"?>
<!-- Created using Karbon, part of Calligra: http://www.calligra.org/karbon -->

<svg
   xmlns:dc="http://purl.org/dc/elements/1.1/"
   xmlns:cc="http://creativecommons.org/ns#"
   xmlns:rdf="http://www.w3.org/1999/02/22-rdf-syntax-ns#"
   xmlns:svg="http://www.w3.org/2000/svg"
   xmlns="http://www.w3.org/2000/svg"
   xmlns:sodipodi="http://sodipodi.sourceforge.net/DTD/sodipodi-0.dtd"
   xmlns:inkscape="http://www.inkscape.org/namespaces/inkscape"
   width="345.6pt"
   height="345.6pt"
   id="svg2"
   version="1.1"
   inkscape:version="0.48+devel r"
   sodipodi:docname="ranger-interactions-vs-qualitative-score.svg">
  <metadata
     id="metadata81">
    <rdf:RDF>
      <cc:Work
         rdf:about="">
        <dc:format>image/svg+xml</dc:format>
        <dc:type
           rdf:resource="http://purl.org/dc/dcmitype/StillImage" />
      </cc:Work>
    </rdf:RDF>
  </metadata>
  <sodipodi:namedview
     pagecolor="#ffffff"
     bordercolor="#666666"
     borderopacity="1"
     objecttolerance="10"
     gridtolerance="10"
     guidetolerance="10"
     inkscape:pageopacity="0"
     inkscape:pageshadow="2"
     inkscape:window-width="1600"
     inkscape:window-height="838"
     id="namedview79"
     showgrid="false"
     inkscape:zoom="0.77257963"
     inkscape:cx="280.0655"
     inkscape:cy="62.182746"
     inkscape:window-x="0"
     inkscape:window-y="27"
     inkscape:window-maximized="1"
     inkscape:current-layer="001" />
  <defs
     id="defs4" />
  <g
     id="001">
    <rect
       style="opacity:0.863;color:#000000;fill:#ffffff;fill-opacity:1;stroke:none;stroke-width:2;marker:none;visibility:visible;display:inline;overflow:visible;enable-background:accumulate"
       id="rect4105"
       width="427.67273"
       height="428.33899"
       x="1.8305085"
       y="0.53614354" />
    <g
       id="g4107"
       transform="translate(0,-1.294365)">
      <path
         d="m 0,0 342.72,0 0,299.52 L 0,299.52 0,0"
         transform="matrix(1,0,0,-1,59.04,357.892)"
         id="shape0"
         inkscape:connector-curvature="0"
         style="fill:#ffffff;stroke:#000000;stroke-width:0.89999998;stroke-linecap:round;stroke-linejoin:round" />
      <text
         transform="matrix(-0.0049623,-0.547844,0.547844,-0.0049623,19.894,281.566)"
         y="18.007812"
         x="0"
         font-size="20.00000000000pt"
         id="text8"
         style="font-size:25px;fill:#000000;font-family:FlamaLight">
        <tspan
           id="tspan10">Anthropomorphsim index</tspan>
      </text>
      <path
         d="M 0,2.7 C 0,4.19 1.22,5.4 2.7,5.4 4.19,5.4 5.4,4.19 5.4,2.7 5.4,1.22 4.19,0 2.7,0 1.22,0 0,1.22 0,2.7"
         transform="matrix(1,0,0,-1,69.03,100.57)"
         id="shape1"
         inkscape:connector-curvature="0"
         style="fill:none;stroke:#000000;stroke-width:0.75;stroke-linecap:round;stroke-linejoin:round" />
      <path
         d="M 0,2.7 C 0,4.19 1.22,5.4 2.7,5.4 4.19,5.4 5.4,4.19 5.4,2.7 5.4,1.22 4.19,0 2.7,0 1.22,0 0,1.22 0,2.7"
         transform="matrix(1,0,0,-1,69.03,350.17)"
         id="shape2"
         inkscape:connector-curvature="0"
         style="fill:none;stroke:#000000;stroke-width:0.75;stroke-linecap:round;stroke-linejoin:round" />
      <path
         d="M 0,2.7 C 0,4.18 1.21,5.4 2.7,5.4 4.18,5.4 5.4,4.18 5.4,2.7 5.4,1.21 4.18,0 2.7,0 1.21,0 0,1.21 0,2.7"
         transform="matrix(1,0,0,-1,386.37,322.43)"
         id="shape3"
         inkscape:connector-curvature="0"
         style="fill:none;stroke:#000000;stroke-width:0.75;stroke-linecap:round;stroke-linejoin:round" />
      <path
         d="M 0,2.7 C 0,4.18 1.21,5.4 2.7,5.4 4.18,5.4 5.4,4.18 5.4,2.7 5.4,1.21 4.18,0 2.7,0 1.21,0 0,1.21 0,2.7"
         transform="matrix(1,0,0,-1,120.37,114.43)"
         id="shape4"
         inkscape:connector-curvature="0"
         style="fill:none;stroke:#000000;stroke-width:0.75;stroke-linecap:round;stroke-linejoin:round" />
      <path
         d="M 0,2.7 C 0,4.19 1.21,5.4 2.7,5.4 4.18,5.4 5.4,4.19 5.4,2.7 5.4,1.22 4.18,0 2.7,0 1.21,0 0,1.22 0,2.7"
         transform="matrix(1,0,0,-1,199.7,350.17)"
         id="shape5"
         inkscape:connector-curvature="0"
         style="fill:none;stroke:#000000;stroke-width:0.75;stroke-linecap:round;stroke-linejoin:round" />
      <path
         d="M 0,2.7 C 0,4.19 1.21,5.4 2.7,5.4 4.18,5.4 5.4,4.19 5.4,2.7 5.4,1.22 4.18,0 2.7,0 1.21,0 0,1.22 0,2.7"
         transform="matrix(1,0,0,-1,255.7,253.1)"
         id="shape6"
         inkscape:connector-curvature="0"
         style="fill:none;stroke:#000000;stroke-width:0.75;stroke-linecap:round;stroke-linejoin:round" />
      <path
         d="M 0,2.7 C 0,4.18 1.22,5.4 2.7,5.4 4.19,5.4 5.4,4.18 5.4,2.7 5.4,1.21 4.19,0 2.7,0 1.22,0 0,1.21 0,2.7"
         transform="matrix(1,0,0,-1,153.03,128.3)"
         id="shape7"
         inkscape:connector-curvature="0"
         style="fill:none;stroke:#000000;stroke-width:0.75;stroke-linecap:round;stroke-linejoin:round" />
      <path
         d="M 0,2.7 C 0,4.18 1.21,5.4 2.7,5.4 4.18,5.4 5.4,4.18 5.4,2.7 5.4,1.21 4.18,0 2.7,0 1.21,0 0,1.21 0,2.7"
         transform="matrix(1,0,0,-1,92.37,72.83)"
         id="shape8"
         inkscape:connector-curvature="0"
         style="fill:none;stroke:#000000;stroke-width:0.75;stroke-linecap:round;stroke-linejoin:round" />
      <path
         d="M 0,2.7 C 0,4.19 1.22,5.4 2.7,5.4 4.19,5.4 5.4,4.19 5.4,2.7 5.4,1.21 4.19,0 2.7,0 1.22,0 0,1.21 0,2.7"
         transform="matrix(1,0,0,-1,139.03,169.9)"
         id="shape9"
         inkscape:connector-curvature="0"
         style="fill:none;stroke:#000000;stroke-width:0.75;stroke-linecap:round;stroke-linejoin:round" />
      <path
         d="M 0,2.7 C 0,4.19 1.21,5.4 2.7,5.4 4.18,5.4 5.4,4.19 5.4,2.7 5.4,1.22 4.18,0 2.7,0 1.21,0 0,1.22 0,2.7"
         transform="matrix(1,0,0,-1,218.37,336.3)"
         id="shape10"
         inkscape:connector-curvature="0"
         style="fill:none;stroke:#000000;stroke-width:0.75;stroke-linecap:round;stroke-linejoin:round" />
      <path
         d="M 0,2.7 C 0,4.19 1.21,5.4 2.7,5.4 4.18,5.4 5.4,4.19 5.4,2.7 5.4,1.22 4.18,0 2.7,0 1.21,0 0,1.22 0,2.7"
         transform="matrix(1,0,0,-1,120.37,100.57)"
         id="shape11"
         inkscape:connector-curvature="0"
         style="fill:none;stroke:#000000;stroke-width:0.75;stroke-linecap:round;stroke-linejoin:round" />
      <path
         d="M 0,2.7 C 0,4.18 1.21,5.4 2.7,5.4 4.18,5.4 5.4,4.18 5.4,2.7 5.4,1.21 4.18,0 2.7,0 1.21,0 0,1.21 0,2.7"
         transform="matrix(1,0,0,-1,297.7,239.23)"
         id="shape12"
         inkscape:connector-curvature="0"
         style="fill:none;stroke:#000000;stroke-width:0.75;stroke-linecap:round;stroke-linejoin:round" />
      <path
         d="M 0,2.7 C 0,4.18 1.22,5.4 2.7,5.4 4.19,5.4 5.4,4.18 5.4,2.7 5.4,1.21 4.19,0 2.7,0 1.22,0 0,1.21 0,2.7"
         transform="matrix(1,0,0,-1,97.03,114.43)"
         id="shape13"
         inkscape:connector-curvature="0"
         style="fill:none;stroke:#000000;stroke-width:0.75;stroke-linecap:round;stroke-linejoin:round" />
      <path
         d="M 0,0 280,0"
         transform="matrix(1,0,0,-1,95.07,358.56)"
         id="shape14"
         inkscape:connector-curvature="0"
         style="fill:none;stroke:#000000;stroke-width:0.75;stroke-linecap:round;stroke-linejoin:round" />
      <path
         d="M 0,7.2 0,0"
         transform="matrix(1,0,0,-1,95.07,365.76)"
         id="shape15"
         inkscape:connector-curvature="0"
         style="fill:none;stroke:#000000;stroke-width:0.75;stroke-linecap:round;stroke-linejoin:round" />
      <path
         d="M 0,7.2 0,0"
         transform="matrix(1,0,0,-1,141.73,365.76)"
         id="shape16"
         inkscape:connector-curvature="0"
         style="fill:none;stroke:#000000;stroke-width:0.75;stroke-linecap:round;stroke-linejoin:round" />
      <path
         d="M 0,7.2 0,0"
         transform="matrix(1,0,0,-1,188.4,365.76)"
         id="shape17"
         inkscape:connector-curvature="0"
         style="fill:none;stroke:#000000;stroke-width:0.75;stroke-linecap:round;stroke-linejoin:round" />
      <path
         d="M 0,7.2 0,0"
         transform="matrix(1,0,0,-1,235.07,365.76)"
         id="shape18"
         inkscape:connector-curvature="0"
         style="fill:none;stroke:#000000;stroke-width:0.75;stroke-linecap:round;stroke-linejoin:round" />
      <path
         d="M 0,7.2 0,0"
         transform="matrix(1,0,0,-1,281.73,365.76)"
         id="shape19"
         inkscape:connector-curvature="0"
         style="fill:none;stroke:#000000;stroke-width:0.75;stroke-linecap:round;stroke-linejoin:round" />
      <path
         d="M 0,7.2 0,0"
         transform="matrix(1,0,0,-1,328.4,365.76)"
         id="shape20"
         inkscape:connector-curvature="0"
         style="fill:none;stroke:#000000;stroke-width:0.75;stroke-linecap:round;stroke-linejoin:round" />
      <path
         d="M 0,7.2 0,0"
         transform="matrix(1,0,0,-1,375.07,365.76)"
         id="shape21"
         inkscape:connector-curvature="0"
         style="fill:none;stroke:#000000;stroke-width:0.75;stroke-linecap:round;stroke-linejoin:round" />
      <text
         transform="translate(88.39,375.964)"
         y="8.515625"
         x="0"
         font-size="9.60000038147pt"
         id="shape22"
         style="font-size:12.00000095px;fill:#000000;font-family:Helvetica">
        <tspan
           id="tspan34"
           y="8.5156202"
           x="0">20</tspan>
      </text>
      <text
         transform="translate(135.06,375.964)"
         y="8.515625"
         x="0"
         font-size="9.60000038147pt"
         id="shape23"
         style="font-size:12.00000095px;fill:#000000;font-family:Helvetica">
        <tspan
           id="tspan37"
           y="8.5156202"
           x="0">30</tspan>
      </text>
      <text
         transform="translate(181.73,375.964)"
         y="8.515625"
         x="0"
         font-size="9.60000038147pt"
         id="shape24"
         style="font-size:12.00000095px;fill:#000000;font-family:Helvetica">
        <tspan
           id="tspan40"
           y="8.5156202"
           x="0">40</tspan>
      </text>
      <text
         transform="translate(228.39,375.964)"
         y="8.515625"
         x="0"
         font-size="9.60000038147pt"
         id="shape25"
         style="font-size:12.00000095px;fill:#000000;font-family:Helvetica">
        <tspan
           id="tspan43"
           y="8.5156202"
           x="0">50</tspan>
      </text>
      <text
         transform="translate(275.06,375.964)"
         y="8.515625"
         x="0"
         font-size="9.60000038147pt"
         id="shape26"
         style="font-size:12.00000095px;fill:#000000;font-family:Helvetica">
        <tspan
           id="tspan46"
           y="8.5156202"
           x="0">60</tspan>
      </text>
      <text
         transform="translate(321.73,375.964)"
         y="8.515625"
         x="0"
         font-size="9.60000038147pt"
         id="shape27"
         style="font-size:12.00000095px;fill:#000000;font-family:Helvetica">
        <tspan
           id="tspan49"
           y="8.5156202"
           x="0">70</tspan>
      </text>
      <text
         transform="translate(368.39,375.964)"
         y="8.515625"
         x="0"
         font-size="9.60000038147pt"
         id="shape28"
         style="font-size:12.00000095px;fill:#000000;font-family:Helvetica">
        <tspan
           id="tspan52"
           y="8.5156202"
           x="0">80</tspan>
      </text>
      <path
         d="M 0,0 0,221.87"
         transform="matrix(1,0,0,-1,59.04,305.87)"
         id="shape29"
         inkscape:connector-curvature="0"
         style="fill:none;stroke:#000000;stroke-width:0.75;stroke-linecap:round;stroke-linejoin:round" />
      <path
         d="M 7.2,0 0,0"
         transform="matrix(1,0,0,-1,51.84,305.87)"
         id="shape30"
         inkscape:connector-curvature="0"
         style="fill:none;stroke:#000000;stroke-width:0.75;stroke-linecap:round;stroke-linejoin:round" />
      <path
         d="M 7.2,0 0,0"
         transform="matrix(1,0,0,-1,51.84,250.4)"
         id="shape31"
         inkscape:connector-curvature="0"
         style="fill:none;stroke:#000000;stroke-width:0.75;stroke-linecap:round;stroke-linejoin:round" />
      <path
         d="M 7.2,0 0,0"
         transform="matrix(1,0,0,-1,51.84,194.93)"
         id="shape32"
         inkscape:connector-curvature="0"
         style="fill:none;stroke:#000000;stroke-width:0.75;stroke-linecap:round;stroke-linejoin:round" />
      <path
         d="M 7.2,0 0,0"
         transform="matrix(1,0,0,-1,51.84,139.47)"
         id="shape33"
         inkscape:connector-curvature="0"
         style="fill:none;stroke:#000000;stroke-width:0.75;stroke-linecap:round;stroke-linejoin:round" />
      <path
         d="M 7.2,0 0,0"
         transform="matrix(1,0,0,-1,51.84,84)"
         id="shape34"
         inkscape:connector-curvature="0"
         style="fill:none;stroke:#000000;stroke-width:0.75;stroke-linecap:round;stroke-linejoin:round" />
      <text
         transform="translate(41.76,300.684)"
         y="8.515625"
         x="0"
         font-size="9.60000038147pt"
         id="shape35"
         style="font-size:12.00000095px;fill:#000000;font-family:Helvetica">
        <tspan
           id="tspan61"
           y="8.5156202"
           x="0">4</tspan>
      </text>
      <text
         transform="translate(41.76,245.42)"
         y="8.3203125"
         x="0"
         font-size="9.60000038147pt"
         id="shape36"
         style="font-size:12.00000095px;fill:#000000;font-family:Helvetica">
        <tspan
           id="tspan64"
           y="8.3203096"
           x="0">5</tspan>
      </text>
      <text
         transform="translate(41.76,189.754)"
         y="8.515625"
         x="0"
         font-size="9.60000038147pt"
         id="shape37"
         style="font-size:12.00000095px;fill:#000000;font-family:Helvetica">
        <tspan
           id="tspan67"
           y="8.5156202"
           x="0">6</tspan>
      </text>
      <text
         transform="translate(41.76,134.48)"
         y="8.3203125"
         x="0"
         font-size="9.60000038147pt"
         id="shape38"
         style="font-size:12.00000095px;fill:#000000;font-family:Helvetica">
        <tspan
           id="tspan70"
           y="8.3203096"
           x="0">7</tspan>
      </text>
      <text
         transform="translate(41.76,78.8244)"
         y="8.515625"
         x="0"
         font-size="9.60000038147pt"
         id="shape39"
         style="font-size:12.00000095px;fill:#000000;font-family:Helvetica">
        <tspan
           id="tspan73"
           y="8.5156202"
           x="0">8</tspan>
      </text>
      <text
         transform="matrix(1.27836,0,0,1.27836,186.111,399.411)"
         y="8.7304688"
         x="0"
         font-size="9.60000038147pt"
         id="shape40"
         style="font-size:12.00000095px;fill:#000000;font-family:FlamaLight">
        <tspan
           id="tspan76"
           y="8.7304697"
           x="0">Nb of interactions</tspan>
      </text>
      <path
         d="M 0,213.12 342.72,0"
         transform="matrix(1,0,0,-1,59.04,343.39)"
         id="shape41"
         inkscape:connector-curvature="0"
         style="fill:none;stroke:#000000;stroke-width:0.75;stroke-linecap:round;stroke-linejoin:round" />
    </g>
  </g>
</svg>
