<?xml version="1.0" encoding="UTF-8" standalone="no"?>
<svg
   xmlns:dc="http://purl.org/dc/elements/1.1/"
   xmlns:cc="http://creativecommons.org/ns#"
   xmlns:rdf="http://www.w3.org/1999/02/22-rdf-syntax-ns#"
   xmlns:svg="http://www.w3.org/2000/svg"
   xmlns="http://www.w3.org/2000/svg"
   xmlns:sodipodi="http://sodipodi.sourceforge.net/DTD/sodipodi-0.dtd"
   xmlns:inkscape="http://www.inkscape.org/namespaces/inkscape"
   width="210mm"
   height="297mm"
   version="1.1"
   id="svg2"
   inkscape:version="0.48+devel r"
   sodipodi:docname="lettre_mimi-base-nao-28-01-2015.svg">
  <metadata
     id="metadata180">
    <rdf:RDF>
      <cc:Work
         rdf:about="">
        <dc:format>image/svg+xml</dc:format>
        <dc:type
           rdf:resource="http://purl.org/dc/dcmitype/StillImage" />
        <dc:title></dc:title>
      </cc:Work>
    </rdf:RDF>
  </metadata>
  <defs
     id="defs178" />
  <sodipodi:namedview
     pagecolor="#ffffff"
     bordercolor="#666666"
     borderopacity="1"
     objecttolerance="10"
     gridtolerance="10"
     guidetolerance="10"
     inkscape:pageopacity="0"
     inkscape:pageshadow="2"
     inkscape:window-width="1600"
     inkscape:window-height="838"
     id="namedview176"
     showgrid="false"
     inkscape:zoom="0.63429569"
     inkscape:cx="629.37977"
     inkscape:cy="589.71732"
     inkscape:window-x="0"
     inkscape:window-y="27"
     inkscape:window-maximized="1"
     inkscape:current-layer="svg2" />
  <g
     id="g4"
     transform="translate(-57.969103,285.38635)">
    <path
       d="m 87.210186,-180.15236 0,0 0.83256,-0.33591 1.970102,-0.71567 3.963129,-2.09906 4.439469,-3.96807 2.818494,-4.81651 1.70675,-4.59252 0.77239,-4.11497 0.0471,-3.85479 -0.59958,-3.03407 -0.5942,-2.08069 -0.70419,-1.04182 -0.808,-0.49356 -0.73014,0.19922 -0.868937,0.17692 -0.588077,0.66793 -0.391012,1.11746 -0.139067,1.13548 0.177021,1.28479 0.367921,1.32244 0.47717,1.53584 0.629839,1.45299 0.890592,1.38742 0.86305,1.41856 0.84117,1.47561 0.88816,1.36362 0.90085,1.39102 0.83045,1.3742 0.76241,1.50767 0.53229,1.47823 0.44737,1.47677 0.12474,1.23899 0.0381,1.51122 -0.11642,1.47904 -0.44833,1.09587 -0.69758,1.18537 -1.01053,0.72228 -1.38375,0.62028 -1.62968,0.25798 -1.31051,0.55477 -1.41476,0.26544 -1.269052,-0.0255 -1.53562,-0.46956 -1.369297,-0.61417 -1.547854,-0.8444 -1.466314,-0.92993 -1.416711,-0.87278 -1.01512,-0.8065 -0.897217,-0.82585 -0.425401,-0.40991 -0.32592,-0.38825 -0.06206,-0.14784 0.01012,0.11241 0.252407,0.4164 0.236418,0.50797 0.438824,0.74521 0.643405,0.82873 1.114735,0.88918 1.132616,0.95582 1.48041,0.85163 1.947731,1.0369 1.911967,0.74526 2.066776,0.42362 2.828768,0.12415 3.36935,-0.0708 3.74445,-0.86544 2.48766,-1.69702 1.00631,-1.96215 0.30349,-0.85763 0.0484,-0.34451"
       style="fill:none;stroke:#000000;stroke-width:2"
       id="path6"
       inkscape:connector-curvature="0" />
    <path
       d="m 112.78981,-185.09752 0,0 -0.4016,-0.30464 -0.54262,-0.59929 -0.83312,-0.55532 -0.99552,-0.62821 -0.98822,-0.20427 -0.63717,0.24918 -0.42208,0.8697 -0.11255,1.418 -0.25071,1.56087 0.13063,2.06444 0.30539,2.51579 0.19023,2.1186 -0.16395,2.17518 0.063,2.10788 -0.058,1.67836 0.40705,1.51036 0.48495,1.21475 1.1965,0.77922 1.11922,0.65651 1.08296,0.29686 0.83426,0.2184 1.02329,-0.0145 0.82379,-0.19572 1.04711,0.14633 0.90852,-0.57212 0.91475,-0.5667 0.68166,-0.3958 0.98727,-0.4736 0.80501,-1.03895 0.57477,-1.25986 0.64756,-1.26775 0.67493,-1.35506 0.48933,-1.2243 0.46518,-1.06057 0.49123,-1.06298 0.32608,-1.33378 0.27004,-1.46196 0.45231,-1.65129 0.49995,-1.7401 0.51258,-1.47099 0.39386,-1.20964 0.19958,-0.94452 0.22225,-0.46814 0.16721,-0.26413 0.2936,0.39411 0.22174,0.46153 0.32583,0.68435 0.21969,0.55398 0.35744,0.98919 0.40005,1.43135 0.30032,1.75139 0.2452,2.20725 0.36508,2.42396 0.41379,2.41443 0.4864,2.64318 0.63796,2.35454 0.89799,2.89862 1.0995,2.62495 1.54427,2.38474 1.73921,1.93416 1.90758,1.62145 1.84158,1.05469 2.1951,0.6079 2.53364,0.0163 2.55155,-0.57408 2.50047,-1.21711 2.14977,-1.93959 1.73678,-2.53227 0.581,-1.80289"
       style="fill:none;stroke:#000000;stroke-width:2"
       id="path8"
       inkscape:connector-curvature="0" />
    <path
       d="m 154.32231,-163.45519 0,0 1.19085,-0.66879 2.00731,-1.10722 2.59281,-1.91757 2.88171,-2.61185 3.44107,-3.62312 3.46724,-3.9065 2.97602,-4.26931 2.55123,-4.39191 2.53303,-4.70462 2.24552,-5.08843 1.91672,-4.902 1.44392,-4.79311 1.11083,-4.89769 0.69713,-4.65444 0.24282,-4.5432 0.0664,-3.5733 -0.13229,-3.11917 -0.40106,-2.69191 -0.63199,-2.51904 -0.73639,-2.28254 -0.7367,-1.83279 -0.93559,-1.23978 -1.22444,-1.04928 -1.21277,-1.02077 -1.36671,-0.5842 -1.1774,-0.16746 -1.16338,0.28151 -1.0756,0.31438 -1.0045,0.45098 -0.8291,0.77524 -0.69998,1.17804 -0.70461,1.92944 -0.67,2.16458 -0.46587,2.59877 -0.40201,2.60571 -0.10605,2.79921 0.11552,3.01082 0.40508,3.46229 0.38056,3.34416 0.56654,3.68131 0.66315,3.58381 0.69976,3.52695 0.90652,3.58872 0.97471,3.28784 1.12531,3.08855 1.02965,3.00396 0.99933,2.97615 1.13841,2.62805 1.26257,2.63298 1.23296,2.61123 1.24407,2.35776 1.0645,2.22537 1.08535,1.86889 1.05338,1.68736 1.20058,1.55931 1.18259,1.14661 1.39947,1.04359 1.38256,0.79854 1.54678,0.52326 1.46408,0.37083 1.89324,0.13267 1.78957,-0.13889 1.92032,-0.45159 2.19401,-0.73301 2.20082,-1.08323 2.24488,-1.4362 2.02001,-1.68765 1.37715,-1.61032 0.56778,-1.01259"
       style="fill:none;stroke:#000000;stroke-width:2"
       id="path10"
       inkscape:connector-curvature="0" />
    <path
       d="m 210.34173,-174.5298 0,0 1.57934,-0.7772 2.65488,-1.54554 4.03755,-3.11978 3.6767,-3.98322 2.50932,-3.42368 1.88878,-3.41952 1.33849,-2.94141 0.59773,-1.848 0.18155,-1.02927 -0.0882,-0.26406 -0.22345,0.37505 -0.17878,0.91762 -0.26798,1.30091 -0.34484,1.54812 -0.23828,1.84305 -0.3212,2.23992 -0.18924,2.70535 -0.19438,2.94966 0.0878,3.01047 0.23053,2.65066 0.33026,2.2808 0.71116,2.44014 0.8116,2.26956 0.87783,1.95917 1.16684,1.58848 1.79659,1.22026 1.93815,0.6232 2.01189,-0.0323 2.29836,-0.56403 2.45737,-1.24897 2.25137,-1.8608 2.15553,-2.29464 2.09393,-2.52738 2.01841,-2.9908 1.43369,-2.70852 0.98583,-2.76185 0.8112,-2.67604 0.93924,-2.31751 1.05584,-2.02353 0.93008,-1.44465 0.55344,-0.90137 0.37136,-0.62356 0.0722,-0.13605 -0.0641,0.42967 -0.0607,0.95019 -0.021,1.11566 -0.11619,1.50703 -0.0512,1.90524 -0.0738,1.96862 -0.0677,2.46151 -0.11953,2.31902 0.0287,2.00111 0.15771,2.07451 0.21366,2.0828 0.39472,1.79106 0.64126,1.69151 0.74456,1.4367 0.96608,1.29167 1.15432,1.10588 1.67874,0.82002 1.87438,0.23736 2.1899,-0.43717 2.4666,-1.24443 2.78892,-1.85376 2.25382,-2.05117 1.65686,-1.86686 1.18078,-1.69895 0.54707,-1.08433 0.0451,-0.58716"
       style="fill:none;stroke:#000000;stroke-width:2"
       id="path12"
       inkscape:connector-curvature="0" />
    <path
       d="m 277.55907,-175.70531 0,0 3.51005,-2.72574 3.57738,-3.08113 4.03317,-4.86058 3.29468,-5.03594 2.86352,-6.3171 1.99977,-6.45977 1.36767,-5.84477 0.94561,-4.26842 0.5783,-3.74022 0.0717,-1.5118 -0.37329,0.46336 -0.57094,2.95922 -0.55405,3.27987 -0.29815,4.00169 -0.34205,3.89061 -0.29561,4.62403 -0.40553,5.54238 -0.32306,6.03854 -0.24611,4.96453 -0.47941,5.63533 -0.31313,5.27883 -0.31124,3.28644 -0.41614,2.33577 -0.24609,1.42684 -0.17247,0.28195 0.1144,-1.32349 0.25098,-4.5253 0.13969,-3.7234 0.1123,-3.53974 -0.0713,-3.7186 -0.0817,-3.74096 -0.16135,-3.81804 0.51134,-3.46787 0.50613,-2.53805 -0.39447,-1.15844 -2.54616,-0.30627 -2.24292,-0.86036 -0.71381,-0.52574 1.5567,0.36554 2.80473,1.11028 2.65971,0.62669 3.15348,0.13367 3.08923,0.13441 1.59909,0.35495 -0.59538,0.61064 -1.90796,0.50265 -2.56789,0.58141 -1.89954,0.79017 -1.02817,1.95902 -0.62125,2.37472 -0.31746,2.61836 0.009,2.96968 -0.46606,2.51219 -0.22452,3.03341 -0.0489,3.06762 -0.0764,2.60175 -0.23504,3.21612 -0.0653,2.50763 0.16765,2.81091 0.63673,2.44488 1.73114,1.58473 2.03121,0.80544 2.55564,-0.27789 3.40363,-0.74476 3.15661,-1.63217 3.29282,-2.39788 3.35899,-2.26839 2.30868,-2.52979 1.52373,-2.14403"
       style="fill:none;stroke:#000000;stroke-width:2"
       id="path14"
       inkscape:connector-curvature="0" />
  </g>
  <g
     id="g16"
     transform="translate(269.77929,287.61594)">
    <path
       d="m 50.755371,-179.3 0,0 2.51555,-0.93504 4.019784,-2.59188 4.800063,-4.07346 5.04772,-5.49725 4.945212,-6.0081 3.81475,-4.95509 3.407726,-3.41769 2.526583,-2.30288 2.041832,-1.54222 1.818849,-0.67639 1.565953,0.51115 1.877174,1.61101 1.797741,2.45363 1.771833,3.61156 1.41203,4.23489 1.024791,3.85549 0.622362,3.33996 0.454369,2.50503 0.199316,1.69601 0.231963,1.33136 0.220262,0.45594 0.181467,-0.8656 0.40735,-1.62046 0.728198,-2.39897 1.015295,-2.7544 1.101556,-3.15668 1.07768,-2.44299 1.18529,-1.64922 1.59817,-1.34484 1.31145,-0.97774 1.50937,-0.6905 1.51001,0.10089 1.5124,0.67952 1.37628,1.17303 1.37223,1.55393 1.22776,1.94468 1.13122,2.1666 0.89677,2.11948 0.75199,1.78993 0.62439,1.84006 0.29839,1.51705 0.35556,1.00049 0.33696,0.37772 0.33149,0.0845 0.42216,-0.38752 0.47813,-0.9968 0.37447,-1.19043 0.77181,-1.13698 0.812,-0.90558 0.85383,-0.73574 0.98053,-0.48064 1.2411,-0.30671 1.10736,0.0184 1.00127,0.36315 1.14708,0.80222 0.98129,1.23504 1.14784,1.26081 0.98284,1.39809 1.00913,1.18715 1.12718,0.6479 1.49061,0.33733 1.71623,0.0719 1.929,-0.3758 2.60277,-1.19151 3.14163,-2.00984 2.6365,-2.80081 1.63179,-2.65608 0.73299,-1.58956 0.21258,-0.78014"
       style="fill:none;stroke:#000000;stroke-width:2"
       id="path18"
       inkscape:connector-curvature="0" />
    <path
       d="m 149.24463,-197.46961 0,0 0.63704,-0.13455 0.85851,-0.29482 1.7041,-0.34187 2.88344,-0.60932 3.57282,-0.8845 3.17284,-1.18526 2.77519,-1.29929 2.63265,-1.45835 2.5822,-1.66666 2.32006,-1.855 2.14327,-2.01405 2.18556,-2.16989 1.8383,-2.00824 1.69454,-1.76461 1.17965,-1.91235 0.79275,-1.66471 0.657,-1.32332 0.37192,-0.94298 0.32623,-0.77705 0.19493,-0.39953 -0.0177,-0.12521 -0.0333,0.0749 -0.16624,0.19559 -0.16174,0.29804 -0.18981,0.37098 -0.19658,0.56706 -0.22093,0.57255 -0.27122,0.82106 -0.29944,0.8846 -0.21729,0.99198 -0.1963,1.09576 -0.23087,1.30314 -0.26865,1.39678 -0.19601,1.29584 -0.10024,1.38012 -0.226,1.42028 -0.21136,1.38388 -0.0746,1.39417 -0.0821,1.40116 -0.0134,1.42804 0.0388,1.45216 -0.0477,1.21566 0.15684,1.15645 0.24218,1.11641 0.34338,1.07648 0.46822,0.93934 0.57396,0.91689 0.71463,0.94658 0.7097,0.85542 0.86284,0.7765 0.91093,0.74329 0.97872,0.65525 1.08667,0.59107 1.15953,0.5918 1.48004,0.33821 2.0756,0.21596 2.92478,0.13664 3.39939,-0.0756 3.73362,-0.24227 3.59005,-0.26544 3.37348,-0.4159 2.62447,-0.63479 1.88741,-0.6932 1.7127,-0.71174 1.16008,-0.61084 0.57211,-0.38416 0.45102,-0.27772 0.16185,-0.24845 0.12507,-0.1361"
       style="fill:none;stroke:#000000;stroke-width:2"
       id="path20"
       inkscape:connector-curvature="0" />
    <path
       d="m 183.55444,-231.90117 0,0 1.6,-1.6 -1.6,0 0,1.6"
       style="fill:none;stroke:#000000;stroke-width:2"
       id="path22"
       inkscape:connector-curvature="0" />
    <path
       d="m 217.86426,-194.99743 0,0 2.51555,-0.93504 4.01978,-2.59188 4.80006,-4.07346 5.04772,-5.49725 4.94522,-6.0081 3.81475,-4.95509 3.40772,-3.41769 2.52659,-2.30288 2.04183,-1.54222 1.81885,-0.67639 1.56595,0.51115 1.87717,1.61101 1.79774,2.45363 1.77184,3.61156 1.41203,4.23489 1.02479,3.85548 0.62236,3.33997 0.45437,2.50503 0.19932,1.696 0.23196,1.33137 0.22026,0.45594 0.18147,-0.8656 0.40735,-1.62046 0.7282,-2.39897 1.01529,-2.75441 1.10156,-3.15667 1.07768,-2.44299 1.18529,-1.64923 1.59816,-1.34483 1.31146,-0.97774 1.50937,-0.6905 1.51,0.10089 1.5124,0.67952 1.37628,1.17303 1.37223,1.55393 1.22777,1.94468 1.13122,2.1666 0.89677,2.11948 0.75199,1.78993 0.62438,1.84006 0.2984,1.51705 0.35555,1.00049 0.33696,0.37772 0.3315,0.0845 0.42216,-0.38752 0.47813,-0.9968 0.37447,-1.19043 0.77181,-1.13698 0.81199,-0.90559 0.85383,-0.73573 0.98053,-0.48064 1.24111,-0.30671 1.10736,0.0184 1.00127,0.36315 1.14708,0.80222 0.98129,1.23504 1.14784,1.26081 0.98284,1.39809 1.00913,1.18715 1.12717,0.6479 1.49062,0.33733 1.71622,0.0719 1.92901,-0.3758 2.60276,-1.19151 3.14164,-2.00984 2.63649,-2.80081 1.6318,-2.65609 0.73298,-1.58955 0.21259,-0.78014"
       style="fill:none;stroke:#000000;stroke-width:2"
       id="path24"
       inkscape:connector-curvature="0" />
    <path
       d="m 316.35352,-213.16704 0,0 0.63704,-0.13455 0.85851,-0.29482 1.70409,-0.34187 2.88345,-0.60932 3.57282,-0.8845 3.17284,-1.18526 2.77518,-1.29929 2.63266,-1.45835 2.58219,-1.66666 2.32007,-1.855 2.14327,-2.01405 2.18556,-2.16989 1.83829,-2.00824 1.69454,-1.76461 1.17965,-1.91235 0.79276,-1.66472 0.657,-1.32331 0.37192,-0.94298 0.32623,-0.77705 0.19492,-0.39953 -0.0177,-0.12521 -0.0333,0.0749 -0.16624,0.19559 -0.16173,0.29804 -0.18982,0.37098 -0.19658,0.56706 -0.22092,0.57254 -0.27122,0.82107 -0.29944,0.8846 -0.2173,0.99198 -0.1963,1.09576 -0.23086,1.30314 -0.26865,1.39677 -0.19602,1.29585 -0.10024,1.38011 -0.22599,1.42029 -0.21137,1.38388 -0.0746,1.39417 -0.0821,1.40116 -0.0134,1.42803 0.0388,1.45217 -0.0476,1.21566 0.15685,1.15645 0.24217,1.11641 0.34338,1.07648 0.46822,0.93934 0.57397,0.91689 0.71462,0.94658 0.7097,0.85542 0.86285,0.7765 0.91093,0.74329 0.97871,0.65525 1.08668,0.59107 1.15952,0.5918 1.48005,0.33821 2.0756,0.21596 2.92478,0.13664 3.39938,-0.0756 3.73363,-0.24228 3.59004,-0.26544 3.37348,-0.41589 2.62448,-0.63479 1.88741,-0.6932 1.71269,-0.71174 1.16009,-0.61084 0.5721,-0.38416 0.45103,-0.27772 0.16185,-0.24845 0.12506,-0.1361"
       style="fill:none;stroke:#000000;stroke-width:2"
       id="path26"
       inkscape:connector-curvature="0" />
    <path
       d="m 350.66333,-247.5986 0,0 1.6,-1.6 -1.6,0 0,1.6"
       style="fill:none;stroke:#000000;stroke-width:2"
       id="path28"
       inkscape:connector-curvature="0" />
  </g>
  <g
     id="g30"
     transform="translate(-37.902875,394.63582)">
    <path
       d="m 66.375817,-179.70454 0,0 1.032594,-0.23984 1.546908,-0.68823 2.111682,-1.20584 2.514381,-1.89898 3.088985,-2.69795 3.220879,-3.41595 3.365517,-3.39478 2.671336,-3.37713 2.428107,-3.45204 2.142803,-2.78484 1.908115,-2.4668 1.522182,-1.94593 1.593353,-1.6975 1.339728,-1.0338 1.281234,-0.81081 1.031289,-0.38791 1.18809,-0.0971 0.9975,0.45702 1.07932,0.63751 0.89606,1.14064 0.95299,1.46961 0.90758,1.68245 0.64083,1.6898 0.58426,1.76431 0.432,1.68718 0.4155,1.52209 0.43372,1.42555 0.41661,1.19626 0.36807,0.86778 0.40582,0.51463 0.33529,0.27094 0.22695,0.15912 0.29677,-0.066 0.42781,-0.4079 0.45678,-0.74748 0.38212,-0.77681 0.51433,-0.91846 0.50681,-0.54626 0.54979,-0.20372 0.61542,0.1228 0.64599,0.39409 0.58194,0.35506 0.57217,0.57239 0.51558,0.67773 0.48114,0.86954 0.52977,0.978 0.57713,1.03239 0.42445,1.16934 0.39712,1.09525 0.36553,1.39063 0.31958,1.50512 0.30594,1.60842 0.28867,1.37056 0.39209,1.34158 0.43534,1.15294 0.52442,1.00591 0.65099,0.9861 0.77299,0.80541 1.09727,0.48576 1.1288,0.22072 1.26067,0.042 1.34501,-0.22595 1.45343,-0.49713 1.30319,-0.73423 1.44874,-1.03533 1.27459,-1.49518 0.75397,-1.53493 0.40961,-1.02226 0.16273,-0.44906"
       style="fill:none;stroke:#000000;stroke-width:2"
       id="path32"
       inkscape:connector-curvature="0" />
    <path
       d="m 133.62418,-186.29407 0,0 2.03238,-0.0739 2.67582,-0.7644 2.00929,-0.83659 2.5598,-1.53482 2.32955,-1.66112 2.1836,-1.67998 1.8336,-1.59518 2.65814,-1.3506 2.40849,-0.80468 2.12399,-1.02044 1.74986,-0.6117 2.17965,-0.46668 2.49251,-0.51659 1.70487,-0.72875 1.03329,-0.46499 1.98231,-0.40178 0.20835,-0.27202 -1.11267,-0.61967 -2.37126,-0.43579 -2.66092,-0.18128 -2.38805,-0.37752 -1.33698,-0.15994 -1.26684,-0.0443 -1.69961,0.56793 -1.99572,0.81873 -1.60719,1.24244 -1.18208,1.67373 -1.34596,2.06244 -0.78621,2.2655 -1.10652,2.41712 -0.78504,2.59427 -0.57888,3.62648 -0.24842,3.182 0.19762,2.78059 0.76102,2.79254 1.03249,2.33555 1.8743,1.91498 2.31294,1.13512 2.96146,0.59058 3.22652,-0.57096 2.59659,-0.47422 2.77472,-1.5292 2.69805,-1.66706 2.13075,-2.07904 2.05314,-2.59199 1.03017,-2.81974 0.5907,-3.49856 -0.0425,-3.57231 0.006,-3.2221 -0.80194,-2.73349 -0.95503,-2.35031 -1.02122,-1.75256 -1.52638,-1.29702 -1.97277,-0.79942 -1.26453,-0.24783 -0.81826,0.31393 -0.64247,1.29675 -0.24482,1.75387 0.22668,2.14532 0.49902,2.23631 0.74938,1.90451 1.34854,2.77286 1.4047,1.90621 1.56566,1.56342 1.69927,1.04986 1.69761,0.99225 1.63034,0.68336 1.43591,0.47902 1.07207,0.27827"
       style="fill:none;stroke:#000000;stroke-width:2"
       id="path34"
       inkscape:connector-curvature="0" />
    <path
       d="m 175.60275,-182.7267 0,0 1.57934,-0.7772 2.65488,-1.54554 4.03755,-3.11978 3.6767,-3.98322 2.50932,-3.42368 1.88878,-3.41952 1.33849,-2.94141 0.59773,-1.848 0.18155,-1.02927 -0.0882,-0.26406 -0.22345,0.37505 -0.17878,0.91762 -0.26798,1.30091 -0.34484,1.54812 -0.23828,1.84305 -0.3212,2.23992 -0.18924,2.70535 -0.19438,2.94966 0.0878,3.01047 0.23053,2.65066 0.33026,2.2808 0.71116,2.44014 0.8116,2.26956 0.87783,1.95917 1.16684,1.58848 1.79659,1.22026 1.93815,0.6232 2.01189,-0.0323 2.29836,-0.56403 2.45737,-1.24897 2.25137,-1.8608 2.15553,-2.29464 2.09393,-2.52738 2.01841,-2.9908 1.43369,-2.70851 0.98583,-2.76185 0.8112,-2.67605 0.93924,-2.31751 1.05584,-2.02353 0.93008,-1.44465 0.55344,-0.90137 0.37136,-0.62356 0.0722,-0.13605 -0.0642,0.42967 -0.0607,0.95019 -0.021,1.11566 -0.11619,1.50703 -0.0512,1.90524 -0.0738,1.96862 -0.0677,2.46151 -0.11953,2.31902 0.0287,2.00111 0.15771,2.07451 0.21366,2.0828 0.39472,1.79106 0.64126,1.69151 0.74456,1.4367 0.96608,1.29167 1.15432,1.10588 1.67874,0.82002 1.87438,0.23736 2.1899,-0.43717 2.4666,-1.24443 2.78892,-1.85376 2.25382,-2.05117 1.65686,-1.86686 1.18078,-1.69895 0.54707,-1.08433 0.0451,-0.58716"
       style="fill:none;stroke:#000000;stroke-width:2"
       id="path36"
       inkscape:connector-curvature="0" />
    <path
       d="m 242.82009,-183.90221 0,0 0.83256,-0.33591 1.9701,-0.71567 3.96313,-2.09906 4.43947,-3.96807 2.81849,-4.81651 1.70675,-4.59253 0.77239,-4.11496 0.0471,-3.85479 -0.59957,-3.03407 -0.5942,-2.08069 -0.70419,-1.04182 -0.80801,-0.49356 -0.73013,0.19922 -0.86894,0.17692 -0.58807,0.66793 -0.39102,1.11746 -0.13906,1.13548 0.17702,1.28479 0.36792,1.32244 0.47717,1.53584 0.62984,1.45299 0.89059,1.38742 0.86305,1.41856 0.84117,1.47561 0.88816,1.36362 0.90085,1.39102 0.83045,1.3742 0.76241,1.50767 0.53229,1.47823 0.44737,1.47677 0.12474,1.23898 0.0381,1.51123 -0.11642,1.47904 -0.44833,1.09587 -0.69758,1.18537 -1.01053,0.72227 -1.38375,0.62029 -1.62968,0.25798 -1.31051,0.55477 -1.41476,0.26544 -1.26905,-0.0255 -1.53562,-0.46956 -1.3693,-0.61417 -1.54785,-0.8444 -1.46632,-0.92993 -1.41671,-0.87278 -1.01512,-0.80651 -0.89722,-0.82584 -0.4254,-0.40991 -0.32592,-0.38825 -0.0621,-0.14784 0.0101,0.11241 0.25241,0.4164 0.23642,0.50797 0.43882,0.7452 0.64341,0.82874 1.11473,0.88917 1.13262,0.95583 1.48041,0.85163 1.94773,1.0369 1.91197,0.74526 2.06677,0.42362 2.82877,0.12415 3.36935,-0.0708 3.74445,-0.86544 2.48766,-1.69702 1.00631,-1.96215 0.30349,-0.85763 0.0484,-0.34451"
       style="fill:none;stroke:#000000;stroke-width:2"
       id="path38"
       inkscape:connector-curvature="0" />
  </g>
  <g
     id="g40"
     transform="translate(222.91168,401.59506)">
    <path
       d="m 81.11853,-202.50503 0,0 1.720168,-2.41187 3.121856,-4.38154 -0.05004,-7.41468 0.507533,-3.78222 0.152878,-1.90814 -0.04142,-1.43667 -0.09347,-0.63667 0.09788,0.3428 0.549284,-0.0244 0.943807,1.33737 1.231192,3.90053 1.109269,6.76295 1.293462,8.55167 1.435012,10.24729 0.87489,7.39923 0.941897,7.42745 0.488604,8.07214 0.461629,4.63994 0.157536,2.73119 0.121464,2.7538 0.176442,1.25204 0.08822,1.06285 -0.115099,-0.96274 -0.658687,-5.76881 -0.619893,-10.84984 -0.666512,-14.46311 -0.956356,-11.66184 -1.168945,-10.50373 -0.935052,-6.60698 -0.631195,-5.17931 -0.651886,-4.50389 -0.616148,-2.51882 -0.238312,-1.18332 -0.43891,-0.23409 -0.192121,-0.12352 -0.158142,0.70128 0.365436,0.68263 -0.153921,1.12067 0.604278,1.4189 0.936109,0.48452 2.377602,0.66356 2.304746,0.83665 2.133109,0.44867 1.334027,0.85356 1.304602,0.86088 1.389107,0.59779 1.88637,0.83555 1.50337,0.92522 1.44352,0.95947 0.20065,0.99028 0.60656,1.20725 0.3383,1.51282 0.99762,1.73329 0.24914,2.26943 -0.12622,1.59775 -0.0124,1.52719 0.49734,2.90094 0.22658,1.55011 0.21806,1.34495 0.16325,0.68173 1.18753,1.25672 0.92712,0.81105 1.14239,0.75467 1.38967,-0.0364 1.6468,0.25036 1.89582,-0.55487 0.91649,-0.37021 0.6291,0.12049 -0.0601,0.0515"
       style="fill:none;stroke:#000000;stroke-width:2"
       id="path42"
       inkscape:connector-curvature="0" />
    <path
       d="m 118.82133,-201.59162 0,0 0.74547,-0.14399 0.89351,-0.25024 0.0983,-0.40085 0.0403,-0.65551 -0.0156,-1.05012 -0.23918,-1.14762 -0.11608,-1.32111 -0.68385,-1.46058 -0.70936,-1.33644 -0.78745,-1.41822 -0.597,-1.29473 -0.38039,-1.13331 -0.33152,-1.02999 -0.39584,-0.92321 -0.52001,-0.84442 -0.68296,-0.61587 -0.79761,-0.57966 -0.83385,-0.5088 -0.72899,-0.39811 -0.75889,-0.27216 -0.71599,-0.22976 -0.69495,-0.19791 -0.87083,-0.10717 -0.88739,0.0156 -0.81822,0.12053 -0.81761,0.15329 -0.89887,0.29404 -0.73733,0.3337 -0.44236,0.31249 -0.42925,0.44943 -0.41976,0.53177 -0.49853,0.50169 -0.42762,0.71181 -0.37547,0.82752 -0.34988,0.97302 -0.22807,1.05321 -0.0746,1.13961 -0.11963,1.09424 0.0198,1.06415 0.0448,1.25462 -0.043,1.36431 0.098,1.20642 0.21401,1.30558 0.32678,1.46609 0.46814,1.61821 0.67333,1.48243 0.83345,1.25912 1.06368,1.55038 1.50921,1.76391 1.85846,1.52019 2.24046,1.32631 2.6914,1.44127 3.46818,1.04498 3.30968,0.8855 3.3931,0.68004 4.39578,0.43582 3.61167,0.39764 3.28842,0.19873 2.90443,0.16395 2.64157,0.0584 2.35451,-0.1141 2.1433,-0.24567 1.49246,-0.34693 1.04513,-0.31499 0.98181,-0.3619 0.60305,-0.44215 0.29111,-0.27278 0.0783,-0.23965 0.18299,-0.13124"
       style="fill:none;stroke:#000000;stroke-width:2"
       id="path44"
       inkscape:connector-curvature="0" />
    <path
       d="m 150.39799,-189.38081 0,0 1.03259,-0.23983 1.54691,-0.68823 2.11168,-1.20584 2.51438,-1.89898 3.08899,-2.69795 3.22088,-3.41595 3.36551,-3.39478 2.67134,-3.37713 2.42811,-3.45204 2.1428,-2.78484 1.90811,-2.4668 1.52219,-1.94593 1.59335,-1.6975 1.33973,-1.0338 1.28123,-0.81081 1.03129,-0.38791 1.18809,-0.0971 0.9975,0.45702 1.07932,0.63751 0.89606,1.14064 0.95299,1.46961 0.90758,1.68245 0.64083,1.6898 0.58426,1.76431 0.43199,1.68718 0.41551,1.52209 0.43372,1.42555 0.41661,1.19626 0.36807,0.86778 0.40582,0.51463 0.33529,0.27094 0.22695,0.15912 0.29676,-0.066 0.42782,-0.4079 0.45678,-0.74748 0.38212,-0.77681 0.51433,-0.91846 0.50681,-0.54626 0.54979,-0.20372 0.61542,0.1228 0.64599,0.39409 0.58194,0.35506 0.57217,0.57239 0.51558,0.67773 0.48114,0.86954 0.52976,0.97799 0.57714,1.0324 0.42445,1.16934 0.39712,1.09525 0.36553,1.39063 0.31958,1.50512 0.30594,1.60842 0.28867,1.37056 0.39209,1.34158 0.43534,1.15294 0.52442,1.00591 0.65099,0.9861 0.77299,0.80541 1.09727,0.48576 1.1288,0.22072 1.26067,0.042 1.34501,-0.22595 1.45343,-0.49714 1.30319,-0.73422 1.44874,-1.03533 1.27459,-1.49518 0.75397,-1.53493 0.40961,-1.02226 0.16273,-0.44906"
       style="fill:none;stroke:#000000;stroke-width:2"
       id="path46"
       inkscape:connector-curvature="0" />
    <path
       d="m 217.64635,-195.97033 0,0 0.83256,-0.33591 1.9701,-0.71567 3.96313,-2.09906 4.43947,-3.96807 2.8185,-4.81651 1.70675,-4.59252 0.77239,-4.11497 0.0471,-3.85479 -0.59957,-3.03407 -0.5942,-2.08069 -0.7042,-1.04182 -0.808,-0.49356 -0.73013,0.19922 -0.86894,0.17692 -0.58808,0.66793 -0.39101,1.11746 -0.13907,1.13548 0.17703,1.28479 0.36792,1.32244 0.47717,1.53584 0.62983,1.45299 0.89059,1.38742 0.86306,1.41856 0.84116,1.47561 0.88817,1.36362 0.90085,1.39102 0.83044,1.3742 0.76241,1.50767 0.5323,1.47823 0.44737,1.47677 0.12474,1.23899 0.0381,1.51122 -0.11642,1.47904 -0.44832,1.09587 -0.69759,1.18537 -1.01052,0.72228 -1.38376,0.62028 -1.62967,0.25798 -1.31052,0.55477 -1.41475,0.26544 -1.26906,-0.0255 -1.53561,-0.46956 -1.3693,-0.61417 -1.54786,-0.8444 -1.46631,-0.92993 -1.41671,-0.87278 -1.01512,-0.8065 -0.89722,-0.82585 -0.4254,-0.40991 -0.32592,-0.38825 -0.0621,-0.14784 0.0101,0.11241 0.25241,0.4164 0.23641,0.50797 0.43883,0.74521 0.6434,0.82873 1.11474,0.88917 1.13262,0.95583 1.4804,0.85163 1.94774,1.0369 1.91196,0.74526 2.06678,0.42362 2.82876,0.12415 3.36936,-0.0708 3.74445,-0.86544 2.48766,-1.69702 1.00631,-1.96215 0.30349,-0.85763 0.0484,-0.34451"
       style="fill:none;stroke:#000000;stroke-width:2"
       id="path48"
       inkscape:connector-curvature="0" />
    <path
       d="m 243.22598,-200.91549 0,0 2.03237,-0.0739 2.67583,-0.7644 2.00929,-0.83659 2.5598,-1.53482 2.32955,-1.66112 2.1836,-1.67998 1.8336,-1.59518 2.65814,-1.35061 2.40849,-0.80467 2.12398,-1.02044 1.74987,-0.6117 2.17965,-0.46668 2.49251,-0.51659 1.70487,-0.72875 1.03329,-0.46499 1.9823,-0.40178 0.20836,-0.27202 -1.11267,-0.61967 -2.37127,-0.43579 -2.66091,-0.18128 -2.38805,-0.37752 -1.33698,-0.15994 -1.26684,-0.0443 -1.69961,0.56794 -1.99572,0.81873 -1.60719,1.24244 -1.18209,1.67373 -1.34595,2.06244 -0.78621,2.2655 -1.10652,2.41712 -0.78504,2.59427 -0.57889,3.62648 -0.24841,3.182 0.19762,2.78059 0.76102,2.79254 1.03248,2.33555 1.87431,1.91498 2.31294,1.13511 2.96146,0.59058 3.22652,-0.57095 2.59658,-0.47422 2.77473,-1.5292 2.69804,-1.66706 2.13076,-2.07904 2.05314,-2.59199 1.03017,-2.81974 0.5907,-3.49856 -0.0425,-3.57231 0.006,-3.2221 -0.80194,-2.73349 -0.95504,-2.35031 -1.02121,-1.75256 -1.52638,-1.29702 -1.97277,-0.79942 -1.26453,-0.24783 -0.81826,0.31393 -0.64247,1.29675 -0.24482,1.75387 0.22667,2.14532 0.49903,2.23631 0.74938,1.90451 1.34853,2.77286 1.40471,1.90621 1.56566,1.56342 1.69927,1.04986 1.69761,0.99225 1.63034,0.68336 1.43591,0.47902 1.07207,0.27827"
       style="fill:none;stroke:#000000;stroke-width:2"
       id="path50"
       inkscape:connector-curvature="0" />
    <path
       d="m 285.20455,-197.34812 0,0 1.03259,-0.23983 1.54691,-0.68824 2.11168,-1.20584 2.51438,-1.89897 3.08899,-2.69796 3.22088,-3.41594 3.36551,-3.39478 2.67134,-3.37714 2.42811,-3.45204 2.1428,-2.78483 1.90811,-2.4668 1.52219,-1.94594 1.59335,-1.69749 1.33973,-1.0338 1.28123,-0.81081 1.03129,-0.38792 1.18809,-0.0971 0.9975,0.45702 1.07932,0.63752 0.89606,1.14063 0.95299,1.46962 0.90758,1.68245 0.64083,1.6898 0.58426,1.76431 0.432,1.68718 0.4155,1.52209 0.43372,1.42554 0.41661,1.19626 0.36807,0.86779 0.40582,0.51462 0.33529,0.27095 0.22695,0.15911 0.29677,-0.066 0.42781,-0.4079 0.45678,-0.74748 0.38212,-0.77682 0.51433,-0.91845 0.50681,-0.54626 0.54979,-0.20372 0.61542,0.12279 0.64599,0.3941 0.58194,0.35505 0.57217,0.57239 0.51558,0.67774 0.48114,0.86953 0.52977,0.978 0.57713,1.03239 0.42445,1.16935 0.39712,1.09524 0.36553,1.39063 0.31958,1.50513 0.30594,1.60842 0.28867,1.37056 0.39209,1.34158 0.43534,1.15293 0.52442,1.00591 0.65099,0.98611 0.77299,0.8054 1.09727,0.48577 1.1288,0.22071 1.26068,0.042 1.345,-0.22595 1.45343,-0.49713 1.30319,-0.73422 1.44874,-1.03533 1.27459,-1.49519 0.75397,-1.53493 0.40961,-1.02226 0.16273,-0.44905"
       style="fill:none;stroke:#000000;stroke-width:2"
       id="path52"
       inkscape:connector-curvature="0" />
    <path
       d="m 352.45291,-203.93764 0,0 0.83256,-0.33591 1.97011,-0.71567 3.96312,-2.09906 4.43947,-3.96807 2.8185,-4.81652 1.70675,-4.59252 0.77239,-4.11497 0.0471,-3.85478 -0.59957,-3.03407 -0.5942,-2.08069 -0.7042,-1.04182 -0.808,-0.49356 -0.73013,0.19922 -0.86894,0.17691 -0.58808,0.66793 -0.39101,1.11747 -0.13907,1.13548 0.17703,1.28479 0.36792,1.32243 0.47717,1.53585 0.62984,1.45299 0.89058,1.38742 0.86306,1.41856 0.84117,1.47561 0.88816,1.36362 0.90085,1.39101 0.83044,1.3742 0.76241,1.50768 0.5323,1.47822 0.44737,1.47678 0.12474,1.23898 0.0381,1.51123 -0.11642,1.47903 -0.44832,1.09587 -0.69758,1.18538 -1.01053,0.72227 -1.38376,0.62029 -1.62967,0.25798 -1.31052,0.55476 -1.41475,0.26544 -1.26905,-0.0255 -1.53562,-0.46957 -1.3693,-0.61416 -1.54786,-0.8444 -1.46631,-0.92994 -1.41671,-0.87277 -1.01512,-0.80651 -0.89722,-0.82584 -0.4254,-0.40992 -0.32592,-0.38825 -0.0621,-0.14783 0.0101,0.11241 0.25241,0.4164 0.23642,0.50797 0.43882,0.7452 0.6434,0.82873 1.11474,0.88918 1.13262,0.95582 1.48041,0.85163 1.94773,1.03691 1.91196,0.74526 2.06678,0.42362 2.82877,0.12415 3.36935,-0.0708 3.74445,-0.86543 2.48766,-1.69702 1.00631,-1.96216 0.30349,-0.85762 0.0484,-0.34451"
       style="fill:none;stroke:#000000;stroke-width:2"
       id="path54"
       inkscape:connector-curvature="0" />
  </g>
  <g
     id="g56"
     transform="translate(-60.198684,523.95151)">
    <path
       d="m 83.881039,-200.19687 0,0 0.0033,-0.7813 3.862396,-2.24703 2.198403,-6.56428 4.380037,-6.96873 2.404553,-5.80007 2.250962,-3.91648 1.318919,-1.78292 1.41074,-0.59361 0.43575,0.0673 -0.26483,-0.67507 -2.839628,-0.34871 -4.32248,-2.22809 -5.761917,-0.54414 -5.996296,1.27722 -6.55948,2.02669 -3.012254,4.12046 -1.033042,5.76237 0.09082,7.86028 1.088044,6.58735 3.046972,4.78844 4.725048,2.30583 3.341287,0.7282 5.152245,-0.59094 6.811004,-1.0851 3.556313,-2.55499 2.98708,-3.40114 0.79034,-4.03086 0.0857,-3.56873 -0.75547,-4.06091 -0.40039,-3.61688 -0.87543,-0.11056 -0.77266,0.55304 -1.777876,0.78809 -2.061382,1.41765 -0.02014,3.04539 -0.447767,3.81154 -0.03224,5.2014 0.117723,7.16623 0.33396,8.67879 0.03563,7.96246 -0.07032,8.05323 0.686546,6.51241 0.498522,4.62368 0.435192,0.76805 0.575758,0.0257 0.96457,2.13458 0.37925,1.38104 0.24405,-1.25991 -0.0643,-2.66875 -0.49166,-1.93796 -0.45003,-2.02967 -0.29293,-2.71997 -0.176153,-2.97286 -0.295528,-3.0391 -0.328651,-3.63702 -0.825423,-2.28682 -0.219874,-2.67854 1.206834,-3.56332 1.782385,-2.20728 0.81303,-2.78717 1.52264,-1.98677 0.10411,-2.24453 1.13963,-1.63181 4.18751,0.0395 6.38959,-1.69853 6.65315,-1.73981 3.79735,-1.68968 1.51427,-1.41758 0.58923,-0.72404"
       style="fill:none;stroke:#000000;stroke-width:2"
       id="path58"
       inkscape:connector-curvature="0" />
    <path
       d="m 127.64379,-204.90164 0,0 1.57933,-0.77719 2.65489,-1.54555 4.03754,-3.11978 3.67671,-3.98322 2.50932,-3.42367 1.88878,-3.41952 1.33849,-2.94141 0.59773,-1.84801 0.18155,-1.02927 -0.0882,-0.26406 -0.22345,0.37505 -0.17878,0.91762 -0.26798,1.30091 -0.34484,1.54813 -0.23828,1.84305 -0.32121,2.23992 -0.18923,2.70535 -0.19438,2.94966 0.0877,3.01046 0.23054,2.65066 0.33026,2.28081 0.71115,2.44014 0.81161,2.26955 0.87782,1.95918 1.16685,1.58848 1.79659,1.22025 1.93815,0.6232 2.01188,-0.0323 2.29837,-0.56403 2.45736,-1.24897 2.25138,-1.8608 2.15552,-2.29464 2.09394,-2.52737 2.0184,-2.99081 1.43369,-2.70851 0.98583,-2.76185 0.81121,-2.67605 0.93924,-2.3175 1.05583,-2.02354 0.93009,-1.44465 0.55344,-0.90136 0.37136,-0.62356 0.0722,-0.13606 -0.0641,0.42967 -0.0607,0.95019 -0.021,1.11567 -0.11619,1.50702 -0.0512,1.90524 -0.0738,1.96862 -0.0677,2.46152 -0.11953,2.31901 0.0287,2.00111 0.15772,2.07451 0.21365,2.08281 0.39472,1.79106 0.64127,1.69151 0.74456,1.43669 0.96608,1.29167 1.15432,1.10588 1.67874,0.82002 1.87438,0.23736 2.1899,-0.43716 2.4666,-1.24443 2.78892,-1.85376 2.25382,-2.05118 1.65685,-1.86685 1.18079,-1.69895 0.54707,-1.08434 0.0451,-0.58716"
       style="fill:none;stroke:#000000;stroke-width:2"
       id="path60"
       inkscape:connector-curvature="0" />
    <path
       d="m 194.86112,-206.07715 0,0 0.74547,-0.14398 0.89351,-0.25025 0.0983,-0.40085 0.0403,-0.6555 -0.0156,-1.05012 -0.23918,-1.14762 -0.11608,-1.32111 -0.68385,-1.46059 -0.70936,-1.33644 -0.78745,-1.41822 -0.597,-1.29472 -0.38039,-1.13331 -0.33152,-1.03 -0.39584,-0.92321 -0.52001,-0.84442 -0.68296,-0.61587 -0.79761,-0.57965 -0.83385,-0.50881 -0.72899,-0.3981 -0.75889,-0.27216 -0.71599,-0.22977 -0.69495,-0.1979 -0.87083,-0.10717 -0.88738,0.0156 -0.81823,0.12053 -0.81761,0.15329 -0.89887,0.29403 -0.73733,0.3337 -0.44236,0.31249 -0.42925,0.44943 -0.41976,0.53178 -0.49853,0.50168 -0.42761,0.71181 -0.37548,0.82752 -0.34988,0.97302 -0.22807,1.05321 -0.0746,1.13961 -0.11963,1.09424 0.0198,1.06416 0.0448,1.25462 -0.043,1.36431 0.098,1.20642 0.21401,1.30558 0.32678,1.46609 0.46814,1.6182 0.67333,1.48243 0.83345,1.25913 1.06368,1.55037 1.50921,1.76392 1.85846,1.52018 2.24046,1.32632 2.6914,1.44127 3.46818,1.04497 3.30968,0.88551 3.3931,0.68003 4.39578,0.43583 3.61167,0.39764 3.28842,0.19872 2.90443,0.16395 2.64157,0.0584 2.35451,-0.1141 2.1433,-0.24568 1.49246,-0.34693 1.04513,-0.31498 0.98181,-0.36191 0.60305,-0.44214 0.29111,-0.27278 0.0783,-0.23965 0.18299,-0.13124"
       style="fill:none;stroke:#000000;stroke-width:2"
       id="path62"
       inkscape:connector-curvature="0" />
  </g>
  <g
     id="g64"
     transform="translate(127.70069,515.53243)">
    <path
       d="m 78.225421,-179.39943 0,0 1.226237,-0.50458 0.893064,-0.77724 1.47278,-1.05742 1.441446,-1.57902 1.787092,-1.7526 1.42646,-1.90587 1.599136,-1.58271 1.068665,-1.70347 1.297289,-1.73862 1.493609,-2.05421 1.545302,-1.83727 1.568353,-2.16812 1.326694,-1.454 1.908291,-1.73269 1.960371,-1.54216 1.87296,-1.28538 1.56944,-0.95865 1.49175,-0.77365 1.68774,-0.96652 1.72081,-0.67432 1.60041,-0.78161 1.30613,-0.55014 1.65217,-0.6582 1.39642,-0.58293 1.68906,-0.47195 0.76047,-0.31422 0.45531,-0.20129 0.28556,-0.15241 -0.11484,-0.0212 -0.77053,-0.0358 -1.01991,-0.0823 -2.78964,0.1465 -2.09164,0.0621 -1.60056,0.19383 -1.23867,0.20738 -1.28098,0.41732 -1.22998,0.72067 -1.32617,0.60599 -1.30822,0.72275 -1.39032,0.63577 -1.33762,0.90232 -0.9388,0.91286 -0.89296,1.04644 -0.839925,1.58103 -0.718716,1.72281 -0.717245,1.4268 -0.240148,1.34896 -0.05295,1.84758 -0.131237,1.39806 0.01629,1.50867 0.286485,1.33033 0.18697,1.43815 0.421905,1.20327 0.541527,1.4403 0.864025,1.47319 1.078437,1.54441 1.265538,1.94084 1.69316,1.50455 2.13309,1.23751 1.7768,1.01011 2.79851,0.4695 2.60156,-0.0753 2.88276,-0.28223 2.42928,-0.4221 2.55504,-0.59064 1.15837,-0.41214 0.62011,-0.44112 0.49614,-0.52106 0.2712,-0.56059"
       style="fill:none;stroke:#000000;stroke-width:2"
       id="path66"
       inkscape:connector-curvature="0" />
  </g>
  <g
     id="g68"
     transform="translate(213.81569,520.7984)">
    <path
       d="m 92.515374,-193.98022 0,0 0.74547,-0.14399 0.893505,-0.25025 0.09826,-0.40085 0.0403,-0.6555 -0.01557,-1.05012 -0.239184,-1.14762 -0.116071,-1.32111 -0.683857,-1.46059 -0.709357,-1.33644 -0.787447,-1.41822 -0.597007,-1.29472 -0.380387,-1.13331 -0.331521,-1.02999 -0.395839,-0.92322 -0.520009,-0.84442 -0.682962,-0.61587 -0.797605,-0.57965 -0.83385,-0.50881 -0.728989,-0.3981 -0.758894,-0.27216 -0.715988,-0.22977 -0.69495,-0.1979 -0.87083,-0.10717 -0.887387,0.0157 -0.818221,0.12053 -0.817617,0.15329 -0.898867,0.29403 -0.737334,0.3337 -0.442358,0.3125 -0.429249,0.44943 -0.419757,0.53177 -0.498531,0.50168 -0.427616,0.71181 -0.375476,0.82752 -0.349882,0.97302 -0.228064,1.05321 -0.07462,1.13961 -0.119629,1.09424 0.01983,1.06416 0.04483,1.25462 -0.04303,1.36431 0.098,1.20642 0.21401,1.30558 0.32678,1.46609 0.468147,1.61821 0.673323,1.48242 0.833458,1.25913 1.063673,1.55037 1.509214,1.76392 1.858462,1.52018 2.240452,1.32632 2.691406,1.44127 3.468177,1.04497 3.309678,0.88551 3.393101,0.68003 4.395785,0.43583 3.61167,0.39764 3.28842,0.19873 2.90444,0.16394 2.64156,0.0584 2.35451,-0.1141 2.1433,-0.24568 1.49246,-0.34693 1.04513,-0.31498 0.98181,-0.36191 0.60306,-0.44214 0.2911,-0.27278 0.0783,-0.23965 0.18298,-0.13124"
       style="fill:none;stroke:#000000;stroke-width:2"
       id="path70"
       inkscape:connector-curvature="0" />
    <path
       d="m 124.09203,-181.76941 0,0 0.83256,-0.33591 1.9701,-0.71567 3.96313,-2.09906 4.43947,-3.96807 2.8185,-4.81652 1.70675,-4.59252 0.77239,-4.11496 0.0471,-3.85479 -0.59958,-3.03407 -0.5942,-2.08069 -0.70419,-1.04182 -0.808,-0.49356 -0.73014,0.19922 -0.86893,0.17692 -0.58808,0.66793 -0.39101,1.11746 -0.13907,1.13548 0.17702,1.28479 0.36792,1.32243 0.47717,1.53585 0.62984,1.45299 0.89059,1.38742 0.86305,1.41856 0.84117,1.47561 0.88816,1.36362 0.90085,1.39101 0.83045,1.37421 0.76241,1.50767 0.5323,1.47822 0.44736,1.47678 0.12474,1.23898 0.0381,1.51123 -0.11642,1.47904 -0.44833,1.09587 -0.69758,1.18537 -1.01053,0.72227 -1.38375,0.62029 -1.62968,0.25798 -1.31051,0.55477 -1.41476,0.26543 -1.26905,-0.0255 -1.53562,-0.46956 -1.3693,-0.61417 -1.54785,-0.8444 -1.46631,-0.92993 -1.41672,-0.87278 -1.01511,-0.80651 -0.89722,-0.82584 -0.4254,-0.40991 -0.32592,-0.38826 -0.0621,-0.14783 0.0101,0.11241 0.2524,0.4164 0.23642,0.50797 0.43882,0.7452 0.64341,0.82874 1.11473,0.88917 1.13262,0.95582 1.48041,0.85164 1.94773,1.0369 1.91197,0.74526 2.06677,0.42362 2.82877,0.12415 3.36935,-0.0708 3.74445,-0.86543 2.48767,-1.69702 1.0063,-1.96216 0.30349,-0.85762 0.0484,-0.34451"
       style="fill:none;stroke:#000000;stroke-width:2"
       id="path72"
       inkscape:connector-curvature="0" />
    <path
       d="m 149.67166,-186.71457 0,0 3.51005,-2.72574 3.57738,-3.08113 4.03317,-4.86058 3.29468,-5.03594 2.86352,-6.3171 1.99977,-6.45977 1.36768,-5.84477 0.9456,-4.26842 0.5783,-3.74022 0.0717,-1.5118 -0.3733,0.46336 -0.57094,2.95922 -0.55405,3.27987 -0.29815,4.00169 -0.34205,3.89061 -0.29561,4.62403 -0.40553,5.54238 -0.32306,6.03854 -0.24611,4.96453 -0.47941,5.63533 -0.31313,5.27883 -0.31124,3.28644 -0.41614,2.33577 -0.24609,1.42684 -0.17246,0.28195 0.11439,-1.3235 0.25098,-4.52529 0.13969,-3.7234 0.1123,-3.53974 -0.0713,-3.71861 -0.0817,-3.74095 -0.16135,-3.81804 0.51134,-3.46787 0.50613,-2.53805 -0.39447,-1.15844 -2.54616,-0.30627 -2.24292,-0.86036 -0.71381,-0.52574 1.5567,0.36554 2.80473,1.11028 2.65971,0.62669 3.15349,0.13367 3.08923,0.13441 1.59908,0.35495 -0.59538,0.61064 -1.90796,0.50265 -2.56788,0.58141 -1.89955,0.79017 -1.02817,1.95902 -0.62125,2.37472 -0.31746,2.61836 0.009,2.96968 -0.46606,2.51218 -0.22452,3.03342 -0.0489,3.06762 -0.0764,2.60175 -0.23504,3.21612 -0.0653,2.50763 0.16765,2.81091 0.63673,2.44488 1.73114,1.58473 2.03121,0.80544 2.55564,-0.27789 3.40363,-0.74476 3.15661,-1.63217 3.29282,-2.39788 3.35899,-2.26839 2.30868,-2.52979 1.52373,-2.14403"
       style="fill:none;stroke:#000000;stroke-width:2"
       id="path74"
       inkscape:connector-curvature="0" />
  </g>
  <g
     id="g76"
     transform="translate(364.77416,522.10446)">
    <path
       d="m 66.391332,-188.94832 0,0 1.579337,-0.77719 2.654884,-1.54555 4.037547,-3.11978 3.676705,-3.98322 2.509321,-3.42367 1.888777,-3.41953 1.338492,-2.94141 0.59773,-1.848 0.181549,-1.02927 -0.0882,-0.26406 -0.223447,0.37505 -0.178779,0.91762 -0.267982,1.30091 -0.344836,1.54812 -0.238286,1.84305 -0.321203,2.23992 -0.189232,2.70535 -0.194382,2.94966 0.08775,3.01047 0.230533,2.65066 0.330262,2.2808 0.711156,2.44014 0.811606,2.26956 0.877825,1.95918 1.166845,1.58847 1.796587,1.22026 1.93815,0.6232 2.011887,-0.0323 2.298362,-0.56403 2.457369,-1.24897 2.251373,-1.8608 2.155528,-2.29464 2.09393,-2.52738 2.01841,-2.9908 1.43369,-2.70851 0.98583,-2.76185 0.8112,-2.67605 0.93924,-2.31751 1.05584,-2.02353 0.93009,-1.44465 0.55343,-0.90137 0.37137,-0.62356 0.0722,-0.13605 -0.0641,0.42967 -0.0607,0.95019 -0.021,1.11567 -0.11619,1.50702 -0.0512,1.90524 -0.0738,1.96862 -0.0678,2.46151 -0.11953,2.31902 0.0287,2.00111 0.15772,2.07451 0.21365,2.0828 0.39472,1.79107 0.64126,1.6915 0.74456,1.4367 0.96609,1.29167 1.15431,1.10588 1.67875,0.82002 1.87437,0.23736 2.1899,-0.43717 2.4666,-1.24442 2.78892,-1.85377 2.25382,-2.05117 1.65686,-1.86686 1.18078,-1.69895 0.54707,-1.08433 0.0451,-0.58716"
       style="fill:none;stroke:#000000;stroke-width:2"
       id="path78"
       inkscape:connector-curvature="0" />
    <path
       d="m 133.60867,-190.12383 0,0 1.03259,-0.23983 1.54691,-0.68824 2.11168,-1.20584 2.51438,-1.89897 3.08899,-2.69795 3.22088,-3.41595 3.36551,-3.39478 2.67134,-3.37714 2.42811,-3.45203 2.1428,-2.78484 1.90811,-2.4668 1.52219,-1.94594 1.59335,-1.69749 1.33973,-1.0338 1.28123,-0.81081 1.03129,-0.38792 1.18809,-0.0971 0.9975,0.45702 1.07932,0.63751 0.89606,1.14063 0.953,1.46962 0.90757,1.68245 0.64083,1.6898 0.58426,1.76431 0.432,1.68718 0.4155,1.52209 0.43372,1.42554 0.41661,1.19626 0.36807,0.86779 0.40582,0.51463 0.33529,0.27094 0.22695,0.15911 0.29677,-0.066 0.42781,-0.4079 0.45678,-0.74748 0.38212,-0.77682 0.51433,-0.91845 0.50681,-0.54626 0.54979,-0.20372 0.61542,0.12279 0.64599,0.3941 0.58194,0.35506 0.57217,0.57238 0.51558,0.67774 0.48114,0.86953 0.52977,0.978 0.57713,1.03239 0.42445,1.16935 0.39712,1.09524 0.36553,1.39063 0.31958,1.50513 0.30594,1.60842 0.28867,1.37056 0.39209,1.34158 0.43534,1.15293 0.52442,1.00591 0.65099,0.98611 0.77299,0.80541 1.09727,0.48576 1.1288,0.22072 1.26068,0.042 1.345,-0.22596 1.45343,-0.49713 1.30319,-0.73422 1.44874,-1.03533 1.27459,-1.49519 0.75397,-1.53493 0.40961,-1.02226 0.16273,-0.44905"
       style="fill:none;stroke:#000000;stroke-width:2"
       id="path80"
       inkscape:connector-curvature="0" />
  </g>
  <g
     id="g82"
     transform="translate(-48.173667,599.75726)">
    <path
       d="m 78.225421,-179.39943 0,0 1.226237,-0.50458 0.893064,-0.77724 1.47278,-1.05742 1.441446,-1.57902 1.787092,-1.7526 1.42646,-1.90587 1.599136,-1.58271 1.068665,-1.70347 1.297289,-1.73862 1.493609,-2.05421 1.545302,-1.83727 1.568353,-2.16812 1.326694,-1.454 1.908291,-1.73269 1.960371,-1.54216 1.87296,-1.28538 1.56944,-0.95865 1.49175,-0.77365 1.68774,-0.96652 1.72081,-0.67432 1.60041,-0.78161 1.30613,-0.55014 1.65217,-0.6582 1.39642,-0.58293 1.68906,-0.47195 0.76047,-0.31422 0.45531,-0.20129 0.28556,-0.15241 -0.11484,-0.0212 -0.77053,-0.0358 -1.01991,-0.0823 -2.78964,0.1465 -2.09164,0.0621 -1.60056,0.19383 -1.23867,0.20738 -1.28098,0.41732 -1.22998,0.72067 -1.32617,0.60599 -1.30822,0.72275 -1.39032,0.63577 -1.33762,0.90232 -0.9388,0.91286 -0.89296,1.04644 -0.839925,1.58103 -0.718716,1.72281 -0.717245,1.4268 -0.240148,1.34896 -0.05295,1.84758 -0.131237,1.39806 0.01629,1.50867 0.286485,1.33033 0.18697,1.43815 0.421905,1.20327 0.541527,1.4403 0.864025,1.47319 1.078437,1.54441 1.265542,1.94084 1.69316,1.50455 2.13309,1.23751 1.7768,1.01011 2.79851,0.4695 2.60156,-0.0753 2.88276,-0.28223 2.42928,-0.4221 2.55504,-0.59064 1.15837,-0.41214 0.62011,-0.44112 0.49614,-0.52106 0.2712,-0.56059"
       style="fill:none;stroke:#000000;stroke-width:2"
       id="path84"
       inkscape:connector-curvature="0" />
    <path
       d="m 121.77458,-182.60523 0,0 2.03237,-0.074 2.67583,-0.76439 2.00929,-0.83659 2.5598,-1.53483 2.32955,-1.66111 2.1836,-1.67999 1.8336,-1.59517 2.65814,-1.35061 2.40849,-0.80468 2.12398,-1.02043 1.74987,-0.6117 2.17965,-0.46669 2.49251,-0.51658 1.70486,-0.72876 1.0333,-0.46499 1.9823,-0.40177 0.20835,-0.27203 -1.11267,-0.61966 -2.37126,-0.4358 -2.66091,-0.18127 -2.38805,-0.37753 -1.33699,-0.15994 -1.26683,-0.0443 -1.69962,0.56793 -1.99572,0.81873 -1.60718,1.24244 -1.18209,1.67374 -1.34596,2.06244 -0.7862,2.2655 -1.10652,2.41711 -0.78504,2.59427 -0.57889,3.62648 -0.24841,3.182 0.19762,2.78059 0.76102,2.79255 1.03248,2.33555 1.87431,1.91498 2.31294,1.13511 2.96145,0.59058 3.22653,-0.57096 2.59658,-0.47421 2.77473,-1.5292 2.69804,-1.66707 2.13076,-2.07904 2.05313,-2.59198 1.03018,-2.81974 0.59069,-3.49857 -0.0425,-3.57231 0.006,-3.22209 -0.80194,-2.73349 -0.95504,-2.35032 -1.02121,-1.75256 -1.52638,-1.29702 -1.97277,-0.79942 -1.26453,-0.24782 -0.81826,0.31393 -0.64247,1.29674 -0.24482,1.75387 0.22667,2.14533 0.49903,2.2363 0.74938,1.90452 1.34853,2.77285 1.40471,1.90621 1.56566,1.56343 1.69927,1.04986 1.69761,0.99225 1.63034,0.68335 1.43591,0.47902 1.07207,0.27828"
       style="fill:none;stroke:#000000;stroke-width:2"
       id="path86"
       inkscape:connector-curvature="0" />
    <path
       d="m 163.75315,-179.03786 0,0 -0.47251,0.67694 -0.60621,0.81549 -1.38921,1.25373 -2.59615,1.32484 -1.5515,1.51072 -0.0403,0.83262 0.88417,1.09505 1.61112,0.11297 1.65952,-1.35654 1.54834,-3.56503 1.13597,-3.1699 0.51862,-2.30903 0.41597,-1.40407 0.17865,-2.09603 0.1238,-2.18496 0.25265,-2.48634 0.15307,-1.83662 0.0269,-1.59447 -0.16888,-1.66573 -0.3263,-1.54278 -0.26049,-1.05289 -0.19618,-0.68135 -0.58571,-0.64686 -0.56777,-0.0478 -0.41664,0.28566 -0.48425,0.45714 -0.51975,0.9364 -0.0644,1.13353 0.62536,1.30443 0.41729,1.44874 0.0935,1.03888 -0.16868,0.85496 -0.0726,0.64892 0.61349,0.62358 0.77698,0.38332 1.18445,0.0787 1.75127,-0.45967 1.3526,-0.55886 0.94187,-0.69734 0.85725,-0.97013 0.50338,-0.96391 0.84218,-1.06886 0.88368,-0.92111 0.77891,-1.1881 0.54348,-1.05972 0.91592,-1.07193 1.51122,-0.52139 1.37741,-0.45813 0.92026,-0.47892 0.87232,0.63328 0.95516,1.32975 0.69202,1.83776 0.14858,1.66852 -0.007,2.0796 -0.14926,2.13865 -0.39273,2.46438 -0.57313,2.49876 -0.6038,2.28085 -0.48228,2.60258 -0.75739,2.58068 -0.15756,3.03591 0.82771,2.41596 3.17781,2.19832 6.04147,1.56252 9.16422,0.67248 10.51955,-1.26125 8.23593,-3.74835 3.85267,-5.2064 1.25501,-2.67134"
       style="fill:none;stroke:#000000;stroke-width:2"
       id="path88"
       inkscape:connector-curvature="0" />
    <path
       d="m 221.28475,-181.1671 0,0 1.72017,-2.41188 3.12185,-4.38153 -0.05,-7.41468 0.50753,-3.78223 0.15288,-1.90814 -0.0414,-1.43667 -0.0935,-0.63667 0.0979,0.3428 0.54928,-0.0244 0.94381,1.33736 1.23119,3.90053 1.10927,6.76296 1.29346,8.55166 1.43501,10.24729 0.87489,7.39923 0.9419,7.42745 0.4886,8.07215 0.46163,4.63994 0.15754,2.73119 0.12146,2.7538 0.17645,1.25204 0.0882,1.06285 -0.1151,-0.96274 -0.65869,-5.76882 -0.61989,-10.84983 -0.66651,-14.46311 -0.95636,-11.66184 -1.16894,-10.50373 -0.93505,-6.60699 -0.6312,-5.17931 -0.65188,-4.50388 -0.61615,-2.51883 -0.23831,-1.18331 -0.43891,-0.2341 -0.19213,-0.12351 -0.15814,0.70127 0.36544,0.68264 -0.15392,1.12067 0.60428,1.41889 0.9361,0.48452 2.37761,0.66357 2.30474,0.83664 2.13311,0.44867 1.33403,0.85357 1.3046,0.86088 1.38911,0.59779 1.88637,0.83554 1.50336,0.92523 1.44353,0.95947 0.20065,0.99028 0.60655,1.20725 0.33831,1.51281 0.99762,1.7333 0.24914,2.26943 -0.12622,1.59775 -0.0124,1.52718 0.49734,2.90094 0.22657,1.55012 0.21807,1.34494 0.16325,0.68174 1.18752,1.25672 0.92712,0.81104 1.1424,0.75467 1.38967,-0.0364 1.6468,0.25035 1.89582,-0.55486 0.91649,-0.37022 0.6291,0.12049 -0.0601,0.0515"
       style="fill:none;stroke:#000000;stroke-width:2"
       id="path90"
       inkscape:connector-curvature="0" />
    <path
       d="m 258.98755,-180.25369 0,0 0.83256,-0.33592 1.9701,-0.71567 3.96313,-2.09906 4.43947,-3.96806 2.8185,-4.81652 1.70675,-4.59252 0.77239,-4.11497 0.0471,-3.85479 -0.59958,-3.03407 -0.5942,-2.08069 -0.70419,-1.04182 -0.808,-0.49356 -0.73014,0.19923 -0.86893,0.17691 -0.58808,0.66793 -0.39101,1.11747 -0.13907,1.13547 0.17702,1.28479 0.36792,1.32244 0.47717,1.53584 0.62984,1.453 0.89059,1.38742 0.86305,1.41855 0.84117,1.47562 0.88816,1.36362 0.90085,1.39101 0.83045,1.3742 0.76241,1.50767 0.5323,1.47823 0.44736,1.47678 0.12474,1.23898 0.0381,1.51122 -0.11642,1.47904 -0.44832,1.09587 -0.69759,1.18538 -1.01053,0.72227 -1.38375,0.62029 -1.62968,0.25798 -1.31051,0.55476 -1.41476,0.26544 -1.26905,-0.0255 -1.53562,-0.46957 -1.3693,-0.61417 -1.54785,-0.84439 -1.46631,-0.92994 -1.41671,-0.87278 -1.01512,-0.8065 -0.89722,-0.82585 -0.4254,-0.40991 -0.32592,-0.38825 -0.0621,-0.14783 0.0101,0.1124 0.2524,0.41641 0.23642,0.50797 0.43883,0.7452 0.6434,0.82873 1.11473,0.88918 1.13262,0.95582 1.48041,0.85163 1.94773,1.0369 1.91197,0.74526 2.06678,0.42363 2.82876,0.12414 3.36935,-0.0708 3.74445,-0.86543 2.48767,-1.69702 1.0063,-1.96216 0.30349,-0.85763 0.0484,-0.34451"
       style="fill:none;stroke:#000000;stroke-width:2"
       id="path92"
       inkscape:connector-curvature="0" />
  </g>
  <g
     id="g94"
     transform="translate(74.532508,717.08075)">
    <path
       d="m 78.225421,-179.39943 0,0 1.226237,-0.50458 0.893064,-0.77724 1.47278,-1.05742 1.441446,-1.57902 1.787092,-1.7526 1.42646,-1.90587 1.599136,-1.58271 1.068665,-1.70347 1.297289,-1.73862 1.493609,-2.05421 1.545302,-1.83727 1.568353,-2.16812 1.326694,-1.454 1.908291,-1.73269 1.960371,-1.54216 1.87296,-1.28538 1.56944,-0.95865 1.49175,-0.77365 1.68774,-0.96652 1.72081,-0.67432 1.60041,-0.78161 1.30613,-0.55014 1.65217,-0.6582 1.39642,-0.58293 1.68906,-0.47195 0.76047,-0.31422 0.45531,-0.20129 0.28556,-0.15241 -0.11484,-0.0212 -0.77053,-0.0358 -1.01991,-0.0823 -2.78964,0.1465 -2.09164,0.0621 -1.60056,0.19383 -1.23867,0.20738 -1.28098,0.41732 -1.22998,0.72067 -1.32617,0.60599 -1.30822,0.72275 -1.39032,0.63577 -1.33762,0.90232 -0.9388,0.91286 -0.89296,1.04644 -0.839925,1.58103 -0.718716,1.72281 -0.717245,1.4268 -0.240148,1.34896 -0.05295,1.84758 -0.131237,1.39806 0.01629,1.50867 0.286485,1.33033 0.18697,1.43815 0.421905,1.20327 0.541527,1.4403 0.864025,1.47319 1.078437,1.54441 1.265542,1.94084 1.69316,1.50455 2.13309,1.23751 1.7768,1.01011 2.79851,0.4695 2.60156,-0.0753 2.88276,-0.28223 2.42928,-0.4221 2.55504,-0.59064 1.15837,-0.41214 0.62011,-0.44112 0.49614,-0.52106 0.2712,-0.56059"
       style="fill:none;stroke:#000000;stroke-width:2"
       id="path96"
       inkscape:connector-curvature="0" />
    <path
       d="m 121.77458,-182.60523 0,0 0.74547,-0.14399 0.8935,-0.25025 0.0983,-0.40085 0.0403,-0.6555 -0.0156,-1.05012 -0.23919,-1.14762 -0.11607,-1.32111 -0.68386,-1.46059 -0.70935,-1.33644 -0.78745,-1.41822 -0.59701,-1.29472 -0.38038,-1.13331 -0.33153,-1.02999 -0.39583,-0.92321 -0.52001,-0.84443 -0.68296,-0.61587 -0.79761,-0.57965 -0.83385,-0.50881 -0.72899,-0.3981 -0.75889,-0.27216 -0.71599,-0.22977 -0.69495,-0.1979 -0.87083,-0.10717 -0.88739,0.0156 -0.81822,0.12053 -0.81762,0.15329 -0.89886,0.29404 -0.73734,0.33369 -0.44236,0.3125 -0.42924,0.44943 -0.41976,0.53177 -0.49853,0.50169 -0.42762,0.7118 -0.37547,0.82752 -0.34989,0.97302 -0.22806,1.05322 -0.0746,1.1396 -0.11962,1.09424 0.0198,1.06416 0.0448,1.25462 -0.043,1.36431 0.098,1.20642 0.21401,1.30558 0.32678,1.46609 0.46815,1.61821 0.67332,1.48242 0.83346,1.25913 1.06367,1.55037 1.50922,1.76392 1.85846,1.52019 2.24045,1.32631 2.69141,1.44127 3.46818,1.04497 3.30967,0.88551 3.3931,0.68003 4.39579,0.43583 3.61167,0.39764 3.28841,0.19873 2.90444,0.16394 2.64157,0.0584 2.35451,-0.1141 2.1433,-0.24567 1.49245,-0.34694 1.04514,-0.31498 0.9818,-0.3619 0.60306,-0.44215 0.29111,-0.27278 0.0783,-0.23965 0.18298,-0.13124"
       style="fill:none;stroke:#000000;stroke-width:2"
       id="path98"
       inkscape:connector-curvature="0" />
  </g>
  <g
     id="g100"
     transform="translate(354.42414,711.88933)">
    <path
       d="m 79.348776,-181.69453 0,0 3.510051,-2.72574 3.577381,-3.08114 4.033173,-4.86058 3.294681,-5.03593 2.863521,-6.31711 1.999771,-6.45976 1.367671,-5.84477 0.945605,-4.26842 0.5783,-3.74022 0.0717,-1.5118 -0.3733,0.46335 -0.57094,2.95923 -0.55405,3.27987 -0.29815,4.00168 -0.34205,3.89062 -0.295607,4.62403 -0.405536,5.54238 -0.323057,6.03854 -0.246109,4.96453 -0.47941,5.63533 -0.313131,5.27882 -0.311243,3.28645 -0.416138,2.33577 -0.246085,1.42684 -0.172469,0.28195 0.114391,-1.3235 0.250982,-4.52529 0.139691,-3.7234 0.112297,-3.53975 -0.07128,-3.7186 -0.08167,-3.74095 -0.161349,-3.81804 0.511335,-3.46787 0.506131,-2.53805 -0.394464,-1.15845 -2.546166,-0.30626 -2.242916,-0.86036 -0.713812,-0.52574 1.556703,0.36554 2.80473,1.11028 2.659706,0.62668 3.153486,0.13368 3.08922,0.1344 1.59909,0.35496 -0.59538,0.61064 -1.90796,0.50265 -2.56789,0.58141 -1.899534,0.79017 -1.028173,1.95902 -0.621251,2.37472 -0.317459,2.61836 0.0088,2.96968 -0.466067,2.51218 -0.224518,3.03342 -0.0489,3.06762 -0.07639,2.60174 -0.235037,3.21613 -0.06532,2.50763 0.167651,2.81091 0.636733,2.44488 1.731141,1.58473 2.031204,0.80544 2.55564,-0.27789 3.40363,-0.74476 3.15661,-1.63217 3.29282,-2.39788 3.35899,-2.26839 2.30868,-2.52979 1.52373,-2.14403"
       style="fill:none;stroke:#000000;stroke-width:2"
       id="path102"
       inkscape:connector-curvature="0" />
    <path
       d="m 120.65122,-177.05491 0,0 1.57934,-0.7772 2.65488,-1.54554 4.03755,-3.11978 3.67671,-3.98322 2.50932,-3.42368 1.88877,-3.41952 1.3385,-2.94141 0.59773,-1.848 0.18155,-1.02927 -0.0882,-0.26406 -0.22344,0.37505 -0.17878,0.91762 -0.26799,1.3009 -0.34483,1.54813 -0.23829,1.84305 -0.3212,2.23992 -0.18923,2.70535 -0.19438,2.94966 0.0877,3.01047 0.23053,2.65065 0.33026,2.28081 0.71116,2.44014 0.81161,2.26956 0.87782,1.95917 1.16685,1.58848 1.79658,1.22026 1.93815,0.62319 2.01189,-0.0323 2.29836,-0.56403 2.45737,-1.24897 2.25137,-1.86081 2.15553,-2.29463 2.09394,-2.52738 2.0184,-2.99081 1.43369,-2.70851 0.98583,-2.76185 0.8112,-2.67604 0.93924,-2.31751 1.05584,-2.02353 0.93009,-1.44465 0.55343,-0.90137 0.37137,-0.62356 0.0722,-0.13605 -0.0641,0.42966 -0.0607,0.9502 -0.021,1.11566 -0.11618,1.50702 -0.0512,1.90525 -0.0738,1.96862 -0.0677,2.46151 -0.11953,2.31902 0.0287,2.0011 0.15772,2.07451 0.21365,2.08281 0.39472,1.79106 0.64127,1.69151 0.74456,1.4367 0.96608,1.29166 1.15432,1.10589 1.67874,0.82002 1.87437,0.23736 2.18991,-0.43717 2.46659,-1.24443 2.78893,-1.85376 2.25382,-2.05118 1.65685,-1.86685 1.18078,-1.69895 0.54708,-1.08433 0.0451,-0.58716"
       style="fill:none;stroke:#000000;stroke-width:2"
       id="path104"
       inkscape:connector-curvature="0" />
  </g>
  <g
     id="g106"
     transform="translate(480.31623,735.84092)">
    <path
       d="m 81.11853,-202.50503 0,0 1.720168,-2.41187 3.121856,-4.38154 -0.05004,-7.41468 0.507533,-3.78222 0.152878,-1.90814 -0.04142,-1.43667 -0.09347,-0.63667 0.09788,0.3428 0.549284,-0.0244 0.943807,1.33737 1.231192,3.90053 1.109269,6.76295 1.293462,8.55167 1.435012,10.24729 0.87489,7.39923 0.941897,7.42745 0.488604,8.07214 0.461629,4.63994 0.157536,2.73119 0.121464,2.7538 0.176442,1.25204 0.08822,1.06285 -0.115099,-0.96274 -0.658687,-5.76881 -0.619893,-10.84984 -0.666512,-14.46311 -0.956356,-11.66184 -1.168945,-10.50373 -0.935052,-6.60698 -0.631195,-5.17931 -0.651886,-4.50389 -0.616148,-2.51882 -0.238312,-1.18332 -0.43891,-0.23409 -0.192121,-0.12352 -0.158142,0.70128 0.365436,0.68263 -0.153921,1.12067 0.604278,1.4189 0.936109,0.48452 2.377602,0.66356 2.304746,0.83665 2.133109,0.44867 1.334027,0.85356 1.304602,0.86088 1.389107,0.59779 1.88637,0.83555 1.50337,0.92522 1.44352,0.95947 0.20065,0.99028 0.60656,1.20725 0.3383,1.51282 0.99762,1.73329 0.24914,2.26943 -0.12622,1.59775 -0.0124,1.52719 0.49734,2.90094 0.22658,1.55011 0.21806,1.34495 0.16325,0.68173 1.18753,1.25672 0.92712,0.81105 1.14239,0.75467 1.38967,-0.0364 1.6468,0.25036 1.89582,-0.55487 0.91649,-0.37021 0.6291,0.12049 -0.0601,0.0515"
       style="fill:none;stroke:#000000;stroke-width:2"
       id="path108"
       inkscape:connector-curvature="0" />
    <path
       d="m 118.82133,-201.59162 0,0 0.74547,-0.14399 0.89351,-0.25024 0.0983,-0.40085 0.0403,-0.65551 -0.0156,-1.05012 -0.23918,-1.14762 -0.11608,-1.32111 -0.68385,-1.46058 -0.70936,-1.33644 -0.78745,-1.41822 -0.597,-1.29473 -0.38039,-1.13331 -0.33152,-1.02999 -0.39584,-0.92321 -0.52001,-0.84442 -0.68296,-0.61587 -0.79761,-0.57966 -0.83385,-0.5088 -0.72899,-0.39811 -0.75889,-0.27216 -0.71599,-0.22976 -0.69495,-0.19791 -0.87083,-0.10717 -0.88739,0.0156 -0.81822,0.12053 -0.81761,0.15329 -0.89887,0.29404 -0.73733,0.3337 -0.44236,0.31249 -0.42925,0.44943 -0.41976,0.53177 -0.49853,0.50169 -0.42762,0.71181 -0.37547,0.82752 -0.34988,0.97302 -0.22807,1.05321 -0.0746,1.13961 -0.11963,1.09424 0.0198,1.06415 0.0448,1.25462 -0.043,1.36431 0.098,1.20642 0.21401,1.30558 0.32678,1.46609 0.46814,1.61821 0.67333,1.48243 0.83345,1.25912 1.06368,1.55038 1.50921,1.76391 1.85846,1.52019 2.24046,1.32631 2.6914,1.44127 3.46818,1.04498 3.30968,0.8855 3.3931,0.68004 4.39578,0.43582 3.61167,0.39764 3.28842,0.19873 2.90443,0.16395 2.64157,0.0584 2.35451,-0.1141 2.1433,-0.24567 1.49246,-0.34693 1.04513,-0.31499 0.98181,-0.3619 0.60305,-0.44215 0.29111,-0.27278 0.0783,-0.23965 0.18299,-0.13124"
       style="fill:none;stroke:#000000;stroke-width:2"
       id="path110"
       inkscape:connector-curvature="0" />
    <path
       d="m 150.39799,-189.38081 0,0 1.57933,-0.77719 2.65489,-1.54555 4.03754,-3.11978 3.67671,-3.98322 2.50932,-3.42367 1.88878,-3.41952 1.33849,-2.94141 0.59773,-1.84801 0.18155,-1.02927 -0.0882,-0.26406 -0.22345,0.37505 -0.17878,0.91762 -0.26798,1.30091 -0.34484,1.54813 -0.23828,1.84305 -0.32121,2.23992 -0.18923,2.70535 -0.19438,2.94966 0.0877,3.01047 0.23054,2.65065 0.33026,2.28081 0.71115,2.44014 0.81161,2.26956 0.87782,1.95917 1.16685,1.58848 1.79659,1.22026 1.93815,0.62319 2.01188,-0.0323 2.29837,-0.56403 2.45736,-1.24897 2.25138,-1.8608 2.15552,-2.29464 2.09394,-2.52737 2.0184,-2.99081 1.43369,-2.70851 0.98583,-2.76185 0.81121,-2.67605 0.93924,-2.3175 1.05583,-2.02354 0.93009,-1.44465 0.55344,-0.90136 0.37136,-0.62356 0.0722,-0.13606 -0.0642,0.42967 -0.0607,0.95019 -0.021,1.11567 -0.11619,1.50702 -0.0512,1.90524 -0.0738,1.96862 -0.0677,2.46152 -0.11953,2.31901 0.0287,2.00111 0.15772,2.07451 0.21365,2.08281 0.39472,1.79106 0.64127,1.69151 0.74456,1.4367 0.96608,1.29166 1.15432,1.10588 1.67874,0.82003 1.87437,0.23735 2.18991,-0.43716 2.4666,-1.24443 2.78892,-1.85376 2.25382,-2.05118 1.65685,-1.86685 1.18079,-1.69895 0.54707,-1.08434 0.0451,-0.58715"
       style="fill:none;stroke:#000000;stroke-width:2"
       id="path112"
       inkscape:connector-curvature="0" />
    <path
       d="m 217.61532,-190.55631 0,0 0.66204,0.17896 0.79903,0.24572 2.02777,-0.71452 0.0405,-2.40752 -2.15614,-1.64716 -0.3318,-2.57596 -0.53951,-2.39668 -1.06424,-2.19653 -1.40508,-2.55167 -1.38966,-2.35912 -1.6099,-2.02558 -0.50905,-1.73249 -0.1713,-1.32202 0.93761,-0.2425 1.11783,-0.0587 2.72208,0.74422 2.79742,0.83352 2.6494,1.43308 2.61902,1.95701 2.30445,1.29996 1.82629,1.26738 1.40521,1.56268 0.76063,1.24397 0.75482,1.5716 0.40524,1.22843 0.017,1.17625 -0.45476,1.5707 -0.71643,1.9264 -1.50098,1.87628 -1.82772,1.70287 -2.36195,1.88643 -3.40385,1.72522 -2.91732,1.57747 -2.67347,1.78307 -1.69354,1.67144 -1.03876,1.04015 -0.70644,0.80833 0.0647,0.11354 0.44567,-0.42835 2.00525,-1.25172 3.63033,-1.96589 4.81592,-3.20494 3.28434,-2.76831 4.09715,-3.02765 4.04199,-2.76648 3.51719,-1.83174 2.91848,-1.47786 1.63795,-0.8566 0.29716,-0.60783 -0.59762,-0.29868 -1.38257,-0.30642 -1.47064,-0.0497 -2.67414,0.23404 -3.32184,0.89398 -2.71574,0.62969 -1.28331,0.82661 -1.00765,0.89855 -0.45948,0.98657 -0.46927,1.10707 -0.32315,1.42946 -0.15103,1.5801 1.35825,1.97571 5.65087,1.1822 6.03608,0.004 3.61691,-0.70514 1.28663,-0.72322 -0.47221,-0.3394 -0.58561,-0.29098 -0.38374,0.0315"
       style="fill:none;stroke:#000000;stroke-width:2"
       id="path114"
       inkscape:connector-curvature="0" />
  </g>
  <g
     id="g116"
     transform="translate(-42.520489,822.98585)">
    <path
       d="m 92.515374,-193.98022 0,0 0.74547,-0.14399 0.893505,-0.25025 0.09826,-0.40085 0.0403,-0.6555 -0.01557,-1.05012 -0.239184,-1.14762 -0.116071,-1.32111 -0.683857,-1.46059 -0.709357,-1.33644 -0.787447,-1.41822 -0.597007,-1.29472 -0.380387,-1.13331 -0.331521,-1.02999 -0.395839,-0.92322 -0.520009,-0.84442 -0.682962,-0.61587 -0.797605,-0.57965 -0.83385,-0.50881 -0.728989,-0.3981 -0.758894,-0.27216 -0.715988,-0.22977 -0.69495,-0.1979 -0.87083,-0.10717 -0.887387,0.0157 -0.818221,0.12053 -0.817617,0.15329 -0.898867,0.29403 -0.737334,0.3337 -0.442358,0.3125 -0.429249,0.44943 -0.419757,0.53177 -0.498531,0.50168 -0.427616,0.71181 -0.375476,0.82752 -0.349882,0.97302 -0.228064,1.05321 -0.07462,1.13961 -0.119629,1.09424 0.01983,1.06416 0.04483,1.25462 -0.04303,1.36431 0.098,1.20642 0.21401,1.30558 0.32678,1.46609 0.468147,1.61821 0.673323,1.48242 0.833458,1.25913 1.063673,1.55037 1.509214,1.76392 1.858462,1.52018 2.240452,1.32632 2.691406,1.44127 3.468177,1.04497 3.309678,0.88551 3.393101,0.68003 4.395785,0.43583 3.61167,0.39764 3.28842,0.19873 2.90444,0.16394 2.64156,0.0584 2.35451,-0.1141 2.1433,-0.24568 1.49246,-0.34693 1.04513,-0.31498 0.98181,-0.36191 0.60306,-0.44214 0.2911,-0.27278 0.0783,-0.23965 0.18298,-0.13124"
       style="fill:none;stroke:#000000;stroke-width:2"
       id="path118"
       inkscape:connector-curvature="0" />
    <path
       d="m 124.09203,-181.76941 0,0 1.03259,-0.23983 1.54691,-0.68824 2.11168,-1.20584 2.51438,-1.89897 3.08899,-2.69795 3.22088,-3.41595 3.36552,-3.39478 2.67133,-3.37714 2.42811,-3.45203 2.1428,-2.78484 1.90812,-2.4668 1.52218,-1.94594 1.59335,-1.69749 1.33973,-1.0338 1.28123,-0.81081 1.03129,-0.38792 1.18809,-0.0971 0.9975,0.45701 1.07932,0.63752 0.89606,1.14063 0.953,1.46962 0.90757,1.68245 0.64083,1.6898 0.58427,1.76431 0.43199,1.68718 0.4155,1.52209 0.43372,1.42554 0.41661,1.19626 0.36807,0.86779 0.40582,0.51462 0.3353,0.27095 0.22694,0.15911 0.29677,-0.066 0.42781,-0.4079 0.45678,-0.74748 0.38212,-0.77682 0.51433,-0.91845 0.50681,-0.54626 0.54979,-0.20372 0.61542,0.12279 0.64599,0.3941 0.58194,0.35505 0.57217,0.57239 0.51558,0.67774 0.48115,0.86953 0.52976,0.978 0.57713,1.03239 0.42445,1.16935 0.39713,1.09524 0.36552,1.39063 0.31959,1.50513 0.30593,1.60842 0.28868,1.37056 0.39208,1.34158 0.43534,1.15293 0.52442,1.00591 0.65099,0.98611 0.77299,0.80541 1.09728,0.48576 1.12879,0.22071 1.26068,0.042 1.345,-0.22596 1.45343,-0.49713 1.30319,-0.73422 1.44874,-1.03533 1.2746,-1.49519 0.75396,-1.53493 0.40961,-1.02226 0.16274,-0.44905"
       style="fill:none;stroke:#000000;stroke-width:2"
       id="path120"
       inkscape:connector-curvature="0" />
    <path
       d="m 191.3404,-188.35893 0,0 0.38338,-0.0742 0.47976,-0.0128 1.6686,-0.60504 2.96031,-2.38755 3.53999,-4.73025 3.42846,-4.36295 1.47761,-3.44147 0.10784,-1.48932 -0.1006,0.65265 0.0317,0.7758 0.0236,0.83025 -0.14667,1.36444 -0.11954,1.20879 -0.11214,1.54107 -0.18687,1.87538 -0.0656,2.08296 -0.17961,1.77508 -0.12425,2.23567 -0.14819,2.25409 -0.17518,2.19287 0.0151,1.684 0.11277,1.24331 0.29086,1.07606 0.33387,0.38771 0.89056,-0.0108 1.51796,-0.36944 1.62047,-0.80877 1.42702,-1.1703 2.12263,-1.75087 1.84146,-2.17296 1.75105,-2.49636 1.30211,-2.60497 1.39487,-3.51512 1.23451,-2.90752 0.79577,-2.55019 0.28151,-2.6855 0.0421,-2.36205 -0.0557,-2.09271 -0.24389,-1.78872 -0.55575,-1.20897 -1.06576,-0.96954 -1.50815,-0.52501 -1.58188,-0.0102 -1.32207,0.53464 -1.32592,1.15061 -1.28102,1.41169 -1.18963,1.99791 -0.78769,2.28408 -0.55338,2.42822 -0.46237,2.38469 -0.21093,2.22039 0.17284,1.88707 0.14329,1.7267 0.3744,1.88615 0.45305,1.15176 0.58299,0.93776 0.76822,0.73433 0.82322,0.62586 0.96954,0.35148 1.10697,0.0965 1.70264,-0.22356 1.24923,-0.54345 1.31084,-0.91938 0.36676,-0.78263 -0.93031,-0.53926 -1.34221,-0.19288 -0.61843,0.0363 -0.14005,0.47243 -0.0694,-0.0811"
       style="fill:none;stroke:#000000;stroke-width:2"
       id="path122"
       inkscape:connector-curvature="0" />
    <path
       d="m 215.83702,-193.24612 0,0 2.03237,-0.0739 2.67583,-0.7644 2.00929,-0.83659 2.5598,-1.53482 2.32955,-1.66111 2.1836,-1.67999 1.83359,-1.59518 2.65814,-1.3506 2.40849,-0.80468 2.12399,-1.02044 1.74987,-0.6117 2.17965,-0.46668 2.49251,-0.51658 1.70486,-0.72876 1.03329,-0.46499 1.98231,-0.40178 0.20835,-0.27202 -1.11267,-0.61967 -2.37126,-0.43579 -2.66091,-0.18128 -2.38805,-0.37752 -1.33699,-0.15994 -1.26683,-0.0443 -1.69962,0.56793 -1.99572,0.81873 -1.60719,1.24244 -1.18208,1.67373 -1.34596,2.06245 -0.78621,2.2655 -1.10651,2.41711 -0.78505,2.59427 -0.57888,3.62648 -0.24841,3.182 0.19761,2.78059 0.76103,2.79255 1.03248,2.33554 1.87431,1.91499 2.31294,1.13511 2.96145,0.59058 3.22653,-0.57096 2.59658,-0.47422 2.77473,-1.5292 2.69804,-1.66706 2.13076,-2.07904 2.05313,-2.59198 1.03018,-2.81974 0.59069,-3.49857 -0.0425,-3.57231 0.006,-3.2221 -0.80194,-2.73349 -0.95504,-2.35031 -1.02121,-1.75256 -1.52638,-1.29702 -1.97277,-0.79942 -1.26453,-0.24782 -0.81827,0.31392 -0.64246,1.29675 -0.24482,1.75387 0.22667,2.14532 0.49903,2.23631 0.74937,1.90452 1.34854,2.77285 1.4047,1.90621 1.56567,1.56342 1.69927,1.04986 1.69761,0.99225 1.63034,0.68336 1.43591,0.47902 1.07206,0.27827"
       style="fill:none;stroke:#000000;stroke-width:2"
       id="path124"
       inkscape:connector-curvature="0" />
    <path
       d="m 257.81558,-189.67875 0,0 -0.27088,0.10517 -0.67016,0.30153 -0.24572,0.82437 0.25348,0.99793 1.14221,1.15657 2.81199,0.073 2.66712,-0.66599 1.82391,-1.37464 1.30781,-2.27405 1.14597,-3.04517 1.13383,-3.18283 1.06721,-3.10924 0.41962,-2.47528 0.21539,-2.2879 -0.35732,-1.99879 -0.76922,-1.33326 -0.77215,-0.17901 -0.80392,0.96381 -0.62993,2.14699 -0.90477,3.25286 -0.7723,3.94921 -1.08533,3.91412 -0.99946,4.33112 -0.54008,4.52091 -0.067,4.39772 0.5819,3.17961 1.18112,2.03944 1.90636,0.55567 2.61082,-0.68933 2.94395,-2.28947 2.70998,-3.94484 2.74369,-5.09169 2.92011,-6.01397 2.94538,-6.39759 1.58725,-6.471 0.76643,-6.15355 0.15671,-4.72174 0.0426,-3.7318 0.19001,-3.28698 0.18404,-2.57866 0.13389,-1.81995 0.093,-0.68925 0.35166,1.11656 0.63983,2.41623 0.65902,4.27416 1.06743,6.15988 1.23818,7.30449 1.15864,8.00289 1.11249,7.88948 0.74808,7.29393 0.50568,7.13294 0.11777,5.752 -0.0561,4.41378 -0.57081,4.29747 -1.40091,3.54761 -1.41529,2.74803 -2.32423,1.8643 -3.13118,0.34625 -3.17356,-1.05189 -1.82911,-1.8891 -1.56593,-3.29845 0.0523,-4.50279 3.53316,-6.47459 5.33962,-6.32331 4.23482,-4.92645 2.73115,-3.57694 1.46525,-1.99213 0.61146,-0.89589 0.30263,-0.13871"
       style="fill:none;stroke:#000000;stroke-width:2"
       id="path126"
       inkscape:connector-curvature="0" />
    <path
       d="m 297.01518,-189.28495 0,0 0.74547,-0.14398 0.8935,-0.25025 0.0983,-0.40085 0.0403,-0.65551 -0.0156,-1.05012 -0.23918,-1.14761 -0.11607,-1.32111 -0.68386,-1.46059 -0.70936,-1.33644 -0.78744,-1.41822 -0.59701,-1.29473 -0.38039,-1.1333 -0.33152,-1.03 -0.39584,-0.92321 -0.52001,-0.84442 -0.68296,-0.61587 -0.7976,-0.57966 -0.83385,-0.5088 -0.72899,-0.39811 -0.7589,-0.27215 -0.71598,-0.22977 -0.69495,-0.1979 -0.87083,-0.10717 -0.88739,0.0156 -0.81822,0.12053 -0.81762,0.15329 -0.89887,0.29404 -0.73733,0.3337 -0.44236,0.31249 -0.42925,0.44943 -0.41975,0.53178 -0.49853,0.50168 -0.42762,0.71181 -0.37548,0.82752 -0.34988,0.97302 -0.22806,1.05321 -0.0746,1.13961 -0.11963,1.09424 0.0198,1.06416 0.0448,1.25462 -0.043,1.36431 0.098,1.20642 0.21401,1.30557 0.32678,1.46609 0.46815,1.61821 0.67332,1.48243 0.83346,1.25912 1.06367,1.55038 1.50922,1.76392 1.85846,1.52018 2.24045,1.32632 2.69141,1.44127 3.46817,1.04497 3.30968,0.88551 3.3931,0.68003 4.39578,0.43583 3.61168,0.39764 3.28841,0.19872 2.90444,0.16395 2.64157,0.0584 2.3545,-0.11411 2.14331,-0.24567 1.49245,-0.34693 1.04514,-0.31499 0.9818,-0.3619 0.60306,-0.44215 0.2911,-0.27277 0.0783,-0.23965 0.18298,-0.13124"
       style="fill:none;stroke:#000000;stroke-width:2"
       id="path128"
       inkscape:connector-curvature="0" />
    <path
       d="m 328.59183,-177.07413 0,0 -0.47251,0.67694 -0.6062,0.8155 -1.38921,1.25372 -2.59615,1.32484 -1.5515,1.51072 -0.0403,0.83262 0.88418,1.09506 1.61112,0.11296 1.65952,-1.35654 1.54833,-3.56503 1.13598,-3.16989 0.51862,-2.30903 0.41597,-1.40408 0.17864,-2.09603 0.1238,-2.18496 0.25266,-2.48634 0.15307,-1.83662 0.0269,-1.59447 -0.16888,-1.66573 -0.32629,-1.54278 -0.26049,-1.05288 -0.19618,-0.68136 -0.58572,-0.64686 -0.56777,-0.0478 -0.41663,0.28566 -0.48425,0.45714 -0.51976,0.9364 -0.0644,1.13353 0.62537,1.30444 0.41729,1.44874 0.0935,1.03888 -0.16868,0.85495 -0.0725,0.64892 0.6135,0.62358 0.77698,0.38332 1.18445,0.0787 1.75126,-0.45968 1.35261,-0.55886 0.94187,-0.69734 0.85725,-0.97013 0.50337,-0.96391 0.84219,-1.06886 0.88367,-0.92111 0.77892,-1.18809 0.54347,-1.05973 0.91593,-1.07193 1.51122,-0.52138 1.37741,-0.45814 0.92026,-0.47891 0.87231,0.63327 0.95517,1.32975 0.69201,1.83776 0.14859,1.66852 -0.007,2.07961 -0.14927,2.13865 -0.39272,2.46437 -0.57313,2.49877 -0.60381,2.28085 -0.48228,2.60257 -0.75739,2.58068 -0.15755,3.03592 0.82771,2.41596 3.1778,2.19831 6.04148,1.56253 9.16421,0.67248 10.51956,-1.26126 8.23593,-3.74835 3.85267,-5.2064 1.255,-2.67134"
       style="fill:none;stroke:#000000;stroke-width:2"
       id="path130"
       inkscape:connector-curvature="0" />
  </g>
  <g
     id="g132"
     transform="translate(306.48815,817.33267)">
    <path
       d="m 63.223215,-176.99563 0,0 0.876914,-0.63632 1.617737,-1.17935 2.490926,-1.80869 2.57262,-2.79497 3.023129,-3.48227 2.519185,-3.60813 1.452532,-3.03746 1.560895,-2.98443 0.733713,-1.84219 0.96256,-1.64467 0.653766,-0.96157 0.455826,-0.20862 -0.32021,0.42811 -0.253985,0.93384 -0.621161,1.16213 -0.82116,1.50853 -1.120908,1.79533 -0.908127,1.70824 -0.706704,1.85482 -0.518853,1.80154 -0.126699,2.19168 0.317178,1.99744 0.350439,2.15322 0.728141,2.23548 1.258597,2.28348 1.376996,1.93842 1.477429,1.23609 1.39094,0.68607 1.544294,-0.73684 1.466155,-1.85847 1.328927,-1.85852 1.008106,-2.55267 1.538389,-3.49169 1.111053,-3.76655 1.125462,-3.87628 0.531129,-3.96793 0.431637,-4.0033 0.415094,-4.17 0.207992,-4.17444 -0.430407,-4.09234 -0.745965,-3.59625 -0.844962,-2.987 -0.680473,-2.52809 -0.588992,-1.69814 -0.313423,-0.91161 -0.175875,0.2779 -0.136126,0.70063 0.113968,1.58658 0.125424,2.84316 0.388082,3.80606 0.483937,4.74268 0.661664,5.63156 0.940932,6.9525 1.054444,6.64077 1.419511,6.3676 1.321196,5.75644 1.62664,5.30824 1.854476,4.07701 2.46136,3.08848 3.09482,1.85477 3.72778,0.80559 4.63173,0.04 4.91191,-0.74929 5.265,-1.85326 4.60369,-2.72545 3.41517,-2.96673 2.46081,-2.89032 1.27009,-2.60826 0.5072,-1.66464"
       style="fill:none;stroke:#000000;stroke-width:2"
       id="path134"
       inkscape:connector-curvature="0" />
    <path
       d="m 136.77678,-180.51795 0,0 0.74548,-0.14399 0.8935,-0.25024 0.0983,-0.40085 0.0403,-0.65551 -0.0156,-1.05012 -0.23918,-1.14762 -0.11607,-1.3211 -0.68386,-1.46059 -0.70936,-1.33644 -0.78744,-1.41822 -0.59701,-1.29473 -0.38039,-1.13331 -0.33152,-1.02999 -0.39584,-0.92321 -0.52001,-0.84442 -0.68296,-0.61587 -0.7976,-0.57966 -0.83385,-0.5088 -0.72899,-0.39811 -0.7589,-0.27215 -0.71599,-0.22977 -0.69495,-0.19791 -0.87083,-0.10717 -0.88738,0.0156 -0.81822,0.12053 -0.81762,0.15329 -0.89887,0.29404 -0.73733,0.3337 -0.44236,0.31249 -0.42925,0.44943 -0.41976,0.53177 -0.49853,0.50169 -0.42761,0.71181 -0.37548,0.82752 -0.34988,0.97302 -0.22806,1.05321 -0.0746,1.13961 -0.11963,1.09424 0.0198,1.06415 0.0448,1.25462 -0.043,1.36431 0.098,1.20642 0.21401,1.30558 0.32678,1.46609 0.46815,1.61821 0.67332,1.48243 0.83346,1.25912 1.06367,1.55038 1.50921,1.76392 1.85847,1.52018 2.24045,1.32631 2.6914,1.44127 3.46818,1.04498 3.30968,0.8855 3.3931,0.68004 4.39578,0.43583 3.61167,0.39763 3.28842,0.19873 2.90444,0.16395 2.64157,0.0584 2.3545,-0.1141 2.14331,-0.24567 1.49245,-0.34693 1.04513,-0.31499 0.98181,-0.3619 0.60306,-0.44215 0.2911,-0.27278 0.0783,-0.23965 0.18298,-0.13123"
       style="fill:none;stroke:#000000;stroke-width:2"
       id="path136"
       inkscape:connector-curvature="0" />
    <path
       d="m 168.35344,-168.30713 0,0 0.83256,-0.33592 1.9701,-0.71567 3.96313,-2.09906 4.43947,-3.96806 2.8185,-4.81652 1.70675,-4.59252 0.77239,-4.11497 0.0471,-3.85479 -0.59958,-3.03407 -0.5942,-2.08069 -0.70419,-1.04182 -0.808,-0.49356 -0.73014,0.19923 -0.86893,0.17691 -0.58808,0.66793 -0.39101,1.11747 -0.13907,1.13547 0.17702,1.28479 0.36792,1.32244 0.47717,1.53584 0.62984,1.453 0.89059,1.38742 0.86305,1.41855 0.84117,1.47562 0.88816,1.36362 0.90085,1.39101 0.83045,1.3742 0.76241,1.50767 0.5323,1.47823 0.44736,1.47678 0.12474,1.23898 0.0381,1.51122 -0.11642,1.47904 -0.44832,1.09587 -0.69759,1.18538 -1.01053,0.72227 -1.38375,0.62029 -1.62968,0.25798 -1.31051,0.55476 -1.41476,0.26544 -1.26905,-0.0255 -1.53562,-0.46957 -1.3693,-0.61417 -1.54785,-0.84439 -1.46631,-0.92994 -1.41671,-0.87278 -1.01512,-0.8065 -0.89722,-0.82585 -0.4254,-0.40991 -0.32592,-0.38825 -0.0621,-0.14783 0.0101,0.1124 0.2524,0.41641 0.23642,0.50797 0.43883,0.7452 0.6434,0.82873 1.11474,0.88918 1.13261,0.95582 1.48041,0.85163 1.94773,1.0369 1.91197,0.74527 2.06678,0.42362 2.82876,0.12414 3.36936,-0.0708 3.74444,-0.86543 2.48767,-1.69702 1.00631,-1.96216 0.30348,-0.85763 0.0484,-0.3445"
       style="fill:none;stroke:#000000;stroke-width:2"
       id="path138"
       inkscape:connector-curvature="0" />
  </g>
  <g
     id="g140"
     transform="translate(-45.132606,953.87809)">
    <path
       d="m 81.11853,-202.50503 0,0 1.720168,-2.41187 3.121856,-4.38154 -0.05004,-7.41468 0.507533,-3.78222 0.152878,-1.90814 -0.04142,-1.43667 -0.09347,-0.63667 0.09788,0.3428 0.549284,-0.0244 0.943807,1.33737 1.231192,3.90053 1.109269,6.76295 1.293462,8.55167 1.435012,10.24729 0.87489,7.39923 0.941897,7.42745 0.488604,8.07214 0.461629,4.63994 0.157536,2.73119 0.121464,2.7538 0.176442,1.25204 0.08822,1.06285 -0.115099,-0.96274 -0.658687,-5.76881 -0.619893,-10.84984 -0.666512,-14.46311 -0.956356,-11.66184 -1.168945,-10.50373 -0.935052,-6.60698 -0.631195,-5.17931 -0.651886,-4.50389 -0.616148,-2.51882 -0.238312,-1.18332 -0.43891,-0.23409 -0.192121,-0.12352 -0.158142,0.70128 0.365436,0.68263 -0.153921,1.12067 0.604278,1.4189 0.936109,0.48452 2.377602,0.66356 2.304746,0.83665 2.133109,0.44867 1.334027,0.85356 1.304602,0.86088 1.389107,0.59779 1.88637,0.83555 1.50337,0.92522 1.44352,0.95947 0.20065,0.99028 0.60656,1.20725 0.3383,1.51282 0.99762,1.73329 0.24914,2.26943 -0.12622,1.59775 -0.0124,1.52719 0.49734,2.90094 0.22658,1.55011 0.21806,1.34495 0.16325,0.68173 1.18753,1.25672 0.92712,0.81105 1.14239,0.75467 1.38967,-0.0364 1.6468,0.25036 1.89582,-0.55487 0.91649,-0.37021 0.6291,0.12049 -0.0601,0.0515"
       style="fill:none;stroke:#000000;stroke-width:2"
       id="path142"
       inkscape:connector-curvature="0" />
    <path
       d="m 118.82133,-201.59162 0,0 3.3532,-1.38254 7.75168,-3.40374 8.34815,-7.04403 6.25334,-6.70554 5.17296,-8.72803 3.62373,-8.01147 1.69668,-7.55535 0.68698,-7.18404 0.24784,-6.83581 -0.41323,-5.90796 -0.61482,-4.52267 -1.14495,-3.08014 -1.05774,-2.13244 -1.22002,-1.70231 -1.51291,-1.39792 -1.39609,-0.56601 -1.20363,0.44514 -0.62816,1.64338 -0.14648,2.02002 -0.21365,3.37554 -0.23776,3.91474 -0.0713,4.67937 0.23291,4.91637 0.50035,5.17322 0.69163,5.09122 0.5113,4.67969 0.75215,5.14126 0.70329,4.40608 0.79189,3.93332 1.07223,3.6817 0.87593,3.04735 0.54746,2.49291 0.7541,2.42611 0.16018,1.8569 0.499,1.9042 0.49809,1.47323 0.26999,1.00906 0.21503,0.50738 0.19218,-0.7607 -0.148,-1.63576 0.0915,-2.3308 -0.025,-3.63909 0.24822,-3.354 0.0184,-3.08322 -0.19398,-2.60346 -0.14226,-2.16939 0.64827,-1.71127 0.7118,-1.53747 0.79395,-1.66637 1.46344,-1.47686 1.19989,-1.52692 0.75589,-0.84261 0.89917,-0.36282 1.5055,1.10526 1.86724,2.57417 1.05555,2.55524 1.52724,3.76479 0.59117,2.99029 0.72096,2.48167 0.92496,2.28341 1.65359,2.12064 1.72845,1.8257 1.68893,1.04334 2.26618,-0.31411 2.35605,-0.7933 2.22488,-1.13047 1.06554,-1.31972 0.63598,-1.29404 0.15635,-1.28469"
       style="fill:none;stroke:#000000;stroke-width:2"
       id="path144"
       inkscape:connector-curvature="0" />
    <path
       d="m 183.65269,-222.02599 0,0 2.03237,-0.074 2.67583,-0.76439 2.00928,-0.83659 2.5598,-1.53483 2.32955,-1.66111 2.18361,-1.67998 1.83359,-1.59518 2.65814,-1.35061 2.40849,-0.80467 2.12399,-1.02044 1.74987,-0.6117 2.17964,-0.46668 2.49251,-0.51659 1.70487,-0.72875 1.03329,-0.46499 1.98231,-0.40178 0.20835,-0.27203 -1.11267,-0.61966 -2.37126,-0.4358 -2.66092,-0.18127 -2.38805,-0.37753 -1.33698,-0.15994 -1.26684,-0.0443 -1.69961,0.56793 -1.99572,0.81874 -1.60719,1.24244 -1.18208,1.67373 -1.34596,2.06244 -0.78621,2.2655 -1.10652,2.41711 -0.78504,2.59428 -0.57888,3.62648 -0.24842,3.18199 0.19762,2.78059 0.76102,2.79255 1.03249,2.33555 1.8743,1.91498 2.31294,1.13511 2.96146,0.59058 3.22652,-0.57095 2.59659,-0.47422 2.77473,-1.5292 2.69804,-1.66706 2.13075,-2.07904 2.05314,-2.59199 1.03018,-2.81974 0.59069,-3.49857 -0.0425,-3.57231 0.006,-3.22209 -0.80193,-2.73349 -0.95504,-2.35031 -1.02122,-1.75257 -1.52637,-1.29702 -1.97277,-0.79941 -1.26453,-0.24783 -0.81827,0.31393 -0.64247,1.29674 -0.24482,1.75387 0.22668,2.14533 0.49903,2.23631 0.74937,1.90451 1.34854,2.77285 1.4047,1.90622 1.56566,1.56342 1.69928,1.04986 1.6976,0.99225 1.63034,0.68335 1.43591,0.47902 1.07207,0.27828"
       style="fill:none;stroke:#000000;stroke-width:2"
       id="path146"
       inkscape:connector-curvature="0" />
    <path
       d="m 225.63125,-218.45862 0,0 3.51005,-2.72574 3.57738,-3.08114 4.03318,-4.86058 3.29468,-5.03593 2.86352,-6.31711 1.99977,-6.45976 1.36767,-5.84477 0.94561,-4.26842 0.5783,-3.74023 0.0717,-1.51179 -0.3733,0.46335 -0.57093,2.95923 -0.55405,3.27987 -0.29815,4.00168 -0.34205,3.89062 -0.29561,4.62403 -0.40554,5.54238 -0.32305,6.03854 -0.24611,4.96453 -0.47941,5.63533 -0.31313,5.27882 -0.31125,3.28645 -0.41614,2.33577 -0.24608,1.42684 -0.17247,0.28195 0.11439,-1.3235 0.25098,-4.52529 0.13969,-3.72341 0.1123,-3.53974 -0.0713,-3.7186 -0.0817,-3.74095 -0.16135,-3.81804 0.51133,-3.46788 0.50613,-2.53804 -0.39446,-1.15845 -2.54617,-0.30627 -2.24291,-0.86035 -0.71381,-0.52574 1.5567,0.36553 2.80473,1.11029 2.6597,0.62668 3.15349,0.13368 3.08923,0.1344 1.59909,0.35495 -0.59539,0.61065 -1.90795,0.50264 -2.56789,0.58141 -1.89954,0.79018 -1.02818,1.95902 -0.62125,2.37472 -0.31746,2.61836 0.009,2.96968 -0.46607,2.51218 -0.22452,3.03342 -0.0489,3.06761 -0.0764,2.60175 -0.23503,3.21612 -0.0653,2.50764 0.16765,2.8109 0.63674,2.44489 1.73114,1.58473 2.03121,0.80544 2.55563,-0.27789 3.40363,-0.74476 3.15661,-1.63218 3.29283,-2.39787 3.35898,-2.26839 2.30869,-2.52979 1.52373,-2.14403"
       style="fill:none;stroke:#000000;stroke-width:2"
       id="path148"
       inkscape:connector-curvature="0" />
    <path
       d="m 266.9337,-213.819 0,0 2.03237,-0.074 2.67583,-0.76439 2.00929,-0.83659 2.5598,-1.53483 2.32955,-1.66111 2.1836,-1.67999 1.8336,-1.59518 2.65814,-1.3506 2.40849,-0.80468 2.12398,-1.02043 1.74987,-0.61171 2.17965,-0.46668 2.49251,-0.51658 1.70486,-0.72876 1.0333,-0.46499 1.9823,-0.40177 0.20835,-0.27203 -1.11266,-0.61966 -2.37127,-0.4358 -2.66091,-0.18128 -2.38805,-0.37752 -1.33699,-0.15994 -1.26683,-0.0443 -1.69962,0.56793 -1.99571,0.81873 -1.60719,1.24244 -1.18209,1.67374 -1.34596,2.06244 -0.7862,2.2655 -1.10652,2.41711 -0.78504,2.59427 -0.57889,3.62648 -0.24841,3.182 0.19762,2.78059 0.76102,2.79255 1.03248,2.33555 1.87431,1.91498 2.31294,1.13511 2.96145,0.59058 3.22653,-0.57096 2.59658,-0.47421 2.77473,-1.5292 2.69804,-1.66707 2.13076,-2.07904 2.05313,-2.59198 1.03018,-2.81974 0.59069,-3.49857 -0.0425,-3.57231 0.006,-3.2221 -0.80194,-2.73349 -0.95504,-2.35031 -1.02121,-1.75256 -1.52638,-1.29702 -1.97277,-0.79942 -1.26453,-0.24782 -0.81826,0.31392 -0.64247,1.29675 -0.24482,1.75387 0.22667,2.14533 0.49903,2.2363 0.74938,1.90452 1.34853,2.77285 1.40471,1.90621 1.56566,1.56343 1.69927,1.04985 1.69761,0.99226 1.63034,0.68335 1.43591,0.47902 1.07207,0.27827"
       style="fill:none;stroke:#000000;stroke-width:2"
       id="path150"
       inkscape:connector-curvature="0" />
    <path
       d="m 308.91227,-210.25164 0,0 0.83256,-0.33591 1.9701,-0.71567 3.96313,-2.09906 4.43947,-3.96806 2.81849,-4.81652 1.70675,-4.59252 0.77239,-4.11497 0.0471,-3.85479 -0.59957,-3.03407 -0.5942,-2.08069 -0.70419,-1.04182 -0.80801,-0.49356 -0.73013,0.19922 -0.86894,0.17692 -0.58807,0.66793 -0.39102,1.11746 -0.13906,1.13548 0.17702,1.28479 0.36792,1.32244 0.47717,1.53584 0.62984,1.45299 0.89059,1.38742 0.86305,1.41856 0.84117,1.47562 0.88816,1.36362 0.90085,1.39101 0.83045,1.3742 0.76241,1.50767 0.53229,1.47823 0.44737,1.47677 0.12474,1.23899 0.0381,1.51122 -0.11642,1.47904 -0.44833,1.09587 -0.69758,1.18537 -1.01053,0.72228 -1.38375,0.62029 -1.62968,0.25798 -1.31051,0.55476 -1.41476,0.26544 -1.26905,-0.0255 -1.53562,-0.46956 -1.3693,-0.61417 -1.54785,-0.8444 -1.46632,-0.92993 -1.41671,-0.87278 -1.01512,-0.8065 -0.89722,-0.82585 -0.4254,-0.40991 -0.32592,-0.38825 -0.062,-0.14784 0.0101,0.11241 0.25241,0.4164 0.23642,0.50797 0.43882,0.74521 0.64341,0.82873 1.11473,0.88918 1.13262,0.95582 1.48041,0.85163 1.94773,1.0369 1.91197,0.74526 2.06677,0.42363 2.82877,0.12414 3.36935,-0.0708 3.74445,-0.86544 2.48766,-1.69701 1.00631,-1.96216 0.30349,-0.85763 0.0484,-0.34451"
       style="fill:none;stroke:#000000;stroke-width:2"
       id="path152"
       inkscape:connector-curvature="0" />
  </g>
  <g
     id="g154"
     transform="translate(269.07985,914.24021)">
    <path
       d="m 63.223215,-176.99563 0,0 0.876914,-0.63632 1.617737,-1.17935 2.490926,-1.80869 2.57262,-2.79497 3.023129,-3.48227 2.519185,-3.60813 1.452532,-3.03746 1.560895,-2.98443 0.733713,-1.84219 0.96256,-1.64467 0.653766,-0.96157 0.455826,-0.20862 -0.32021,0.42811 -0.253985,0.93384 -0.621161,1.16213 -0.82116,1.50853 -1.120908,1.79533 -0.908127,1.70824 -0.706704,1.85482 -0.518853,1.80154 -0.126699,2.19168 0.317178,1.99744 0.350439,2.15322 0.728141,2.23548 1.258597,2.28348 1.376996,1.93842 1.477429,1.23609 1.39094,0.68607 1.544294,-0.73684 1.466155,-1.85847 1.328927,-1.85852 1.008106,-2.55267 1.538389,-3.49169 1.111053,-3.76655 1.125462,-3.87628 0.531129,-3.96793 0.431637,-4.0033 0.415094,-4.17 0.207992,-4.17444 -0.430407,-4.09234 -0.745965,-3.59625 -0.844962,-2.987 -0.680473,-2.52809 -0.588992,-1.69814 -0.313423,-0.91161 -0.175875,0.2779 -0.136126,0.70063 0.113968,1.58658 0.125424,2.84316 0.388082,3.80606 0.483937,4.74268 0.661664,5.63156 0.940932,6.9525 1.054444,6.64077 1.419511,6.3676 1.321196,5.75644 1.62664,5.30824 1.854476,4.07701 2.46136,3.08848 3.09482,1.85477 3.72778,0.80559 4.63173,0.04 4.91191,-0.74929 5.265,-1.85326 4.60369,-2.72545 3.41517,-2.96673 2.46081,-2.89032 1.27009,-2.60826 0.5072,-1.66464"
       style="fill:none;stroke:#000000;stroke-width:2"
       id="path156"
       inkscape:connector-curvature="0" />
    <path
       d="m 136.77678,-180.51795 0,0 0.74548,-0.14399 0.8935,-0.25024 0.0983,-0.40085 0.0403,-0.65551 -0.0156,-1.05012 -0.23918,-1.14762 -0.11607,-1.3211 -0.68386,-1.46059 -0.70936,-1.33644 -0.78744,-1.41822 -0.59701,-1.29473 -0.38039,-1.13331 -0.33152,-1.02999 -0.39584,-0.92321 -0.52001,-0.84442 -0.68296,-0.61587 -0.7976,-0.57966 -0.83385,-0.5088 -0.72899,-0.39811 -0.7589,-0.27215 -0.71599,-0.22977 -0.69495,-0.19791 -0.87083,-0.10717 -0.88738,0.0156 -0.81822,0.12053 -0.81762,0.15329 -0.89887,0.29404 -0.73733,0.3337 -0.44236,0.31249 -0.42925,0.44943 -0.41976,0.53177 -0.49853,0.50169 -0.42761,0.71181 -0.37548,0.82752 -0.34988,0.97302 -0.22806,1.05321 -0.0746,1.13961 -0.11963,1.09424 0.0198,1.06415 0.0448,1.25462 -0.043,1.36431 0.098,1.20642 0.21401,1.30558 0.32678,1.46609 0.46815,1.61821 0.67332,1.48243 0.83346,1.25912 1.06367,1.55038 1.50921,1.76392 1.85847,1.52018 2.24045,1.32631 2.6914,1.44127 3.46818,1.04498 3.30968,0.8855 3.3931,0.68004 4.39578,0.43583 3.61167,0.39763 3.28842,0.19873 2.90444,0.16395 2.64157,0.0584 2.3545,-0.1141 2.14331,-0.24567 1.49245,-0.34693 1.04513,-0.31499 0.98181,-0.3619 0.60306,-0.44215 0.2911,-0.27278 0.0783,-0.23965 0.18298,-0.13123"
       style="fill:none;stroke:#000000;stroke-width:2"
       id="path158"
       inkscape:connector-curvature="0" />
  </g>
  <g
     id="g160"
     transform="translate(-37.790833,1028.2193)">
    <path
       d="m 71.990291,-157.22 0,0 1.190845,-0.66879 2.007309,-1.10722 2.592811,-1.91757 2.881709,-2.61185 3.441071,-3.62312 3.467239,-3.9065 2.976027,-4.26931 2.551232,-4.39191 2.533021,-4.70462 2.245528,-5.08843 1.916712,-4.902 1.443925,-4.79311 1.11083,-4.89769 0.69713,-4.65444 0.24282,-4.54319 0.0664,-3.57331 -0.13229,-3.11917 -0.40106,-2.69191 -0.63199,-2.51904 -0.73639,-2.28254 -0.7367,-1.83279 -0.935588,-1.23978 -1.224448,-1.04928 -1.212762,-1.02077 -1.36671,-0.5842 -1.177404,-0.16746 -1.163378,0.28151 -1.075605,0.31438 -1.004494,0.45098 -0.829098,0.77524 -0.69998,1.17804 -0.704614,1.92944 -0.669996,2.16458 -0.465876,2.59877 -0.40201,2.60571 -0.106052,2.79921 0.115527,3.01082 0.405073,3.4623 0.38056,3.34415 0.566547,3.68131 0.663147,3.58381 0.699762,3.52695 0.906521,3.58872 0.974703,3.28784 1.125309,3.08856 1.029657,3.00395 0.999326,2.97615 1.138409,2.62805 1.262577,2.63298 1.232959,2.61123 1.244068,2.35776 1.0645,2.22537 1.08535,1.86889 1.05338,1.68736 1.20058,1.55931 1.18259,1.14661 1.39947,1.04359 1.38256,0.79854 1.54678,0.52326 1.46408,0.37083 1.89324,0.13267 1.78957,-0.13889 1.92032,-0.45159 2.19401,-0.73301 2.20082,-1.08323 2.24488,-1.4362 2.02001,-1.68765 1.37715,-1.61032 0.56778,-1.01259"
       style="fill:none;stroke:#000000;stroke-width:2"
       id="path162"
       inkscape:connector-curvature="0" />
    <path
       d="m 128.00971,-168.29461 0,0 -0.40161,-0.30464 -0.54262,-0.59929 -0.83312,-0.55532 -0.99552,-0.62821 -0.98821,-0.20427 -0.63717,0.24918 -0.42208,0.8697 -0.11255,1.418 -0.25072,1.56087 0.13063,2.06444 0.30539,2.51579 0.19024,2.1186 -0.16396,2.17518 0.063,2.10788 -0.058,1.67836 0.40706,1.51036 0.48494,1.21475 1.1965,0.77922 1.11922,0.65651 1.08296,0.29686 0.83427,0.2184 1.02329,-0.0145 0.82379,-0.19572 1.0471,0.14633 0.90852,-0.57212 0.91476,-0.5667 0.68166,-0.3958 0.98726,-0.4736 0.80501,-1.03896 0.57477,-1.25985 0.64757,-1.26775 0.67493,-1.35506 0.48932,-1.2243 0.46519,-1.06057 0.49122,-1.06298 0.32608,-1.33378 0.27004,-1.46196 0.45232,-1.65129 0.49995,-1.7401 0.51257,-1.47099 0.39387,-1.20964 0.19957,-0.94453 0.22226,-0.46813 0.16721,-0.26413 0.2936,0.39411 0.22174,0.46152 0.32583,0.68436 0.21968,0.55398 0.35745,0.98919 0.40004,1.43135 0.30033,1.75139 0.24519,2.20725 0.36508,2.42396 0.4138,2.41443 0.48639,2.64318 0.63796,2.35454 0.89799,2.89862 1.0995,2.62495 1.54428,2.38474 1.7392,1.93415 1.90759,1.62146 1.84157,1.05469 2.19511,0.6079 2.53364,0.0163 2.55154,-0.57408 2.50047,-1.21711 2.14977,-1.93959 1.73679,-2.53227 0.581,-1.80289"
       style="fill:none;stroke:#000000;stroke-width:2"
       id="path164"
       inkscape:connector-curvature="0" />
  </g>
  <g
     id="g166"
     transform="translate(97.831065,1031.4844)">
    <path
       d="m 86.06435,-157.7897 0,0 9.163838,-3.67419 11.266812,-7.78777 7.61036,-13.19442 3.42648,-17.97507 1.09646,-18.57161 -5.02008,-8.32946 -6.171,-3.21544 -6.67177,-2.3398 -3.726325,-0.50254 -1.802871,2.31236 -1.861291,3.01117 -1.70447,2.34024 -1.293022,2.11288 -0.606804,1.27916 -1.332453,0.88535 -1.312959,1.47216 -0.195061,2.00219 -0.28395,1.3868 -0.246487,-0.596 -0.09808,0.27298 -0.39531,0.76756 -0.183967,1.06143 0.287483,2.37734 0.08926,2.2751 0.471688,-0.14343 0.516842,1.23783 0.173444,2.02264 -0.230349,2.44169 0.103691,4.15455 -0.338715,4.87368 0.08465,3.46989 -1.475074,2.59604 -0.772647,2.94829 -2.112179,3.16076 -2.340531,2.38651 -2.20378,3.29113 -1.603001,2.62632 -0.551009,2.6667 0.340846,2.60427 1.400843,3.10129 1.550458,2.9502 1.796336,2.77563 2.565855,2.10534 2.49373,1.65172 2.621637,0.27823 2.105888,-0.058 2.293801,-0.60473 1.629219,-0.92089 4.152162,-1.83435 2.065432,-1.64006 1.83829,-1.55497 2.33586,-0.93478 1.25383,-1.54703 0.81639,-1.0257 0.3948,-1.47127 -0.18722,-1.31931 -0.55159,-1.79541 -0.69504,-1.22191 -0.49632,-0.98892 -1.49899,-0.25321 -0.59935,0.47459 -0.79264,0.27768 -0.76624,1.15242 -0.0588,2.16429 0.77084,2.25191 9.04184,-0.46969 10.24753,-1.60194 1.74426,-2.49694 0.54199,-1.04393"
       style="fill:none;stroke:#000000;stroke-width:2"
       id="path168"
       inkscape:connector-curvature="0" />
    <path
       d="m 124.17783,-173.68218 0,0 -0.40161,-0.30465 -0.54262,-0.59928 -0.83312,-0.55532 -0.99552,-0.62821 -0.98821,-0.20427 -0.63717,0.24917 -0.42208,0.86971 -0.11255,1.418 -0.25072,1.56087 0.13063,2.06444 0.30539,2.51579 0.19024,2.1186 -0.16396,2.17518 0.063,2.10788 -0.058,1.67835 0.40705,1.51036 0.48495,1.21475 1.1965,0.77923 1.11922,0.65651 1.08296,0.29686 0.83426,0.2184 1.0233,-0.0145 0.82379,-0.19572 1.0471,0.14633 0.90852,-0.57212 0.91475,-0.5667 0.68167,-0.39581 0.98726,-0.4736 0.80501,-1.03895 0.57477,-1.25985 0.64756,-1.26776 0.67494,-1.35506 0.48932,-1.22429 0.46518,-1.06057 0.49123,-1.06299 0.32608,-1.33377 0.27004,-1.46196 0.45232,-1.65129 0.49994,-1.74011 0.51258,-1.47099 0.39386,-1.20963 0.19958,-0.94453 0.22226,-0.46813 0.1672,-0.26414 0.2936,0.39411 0.22175,0.46153 0.32582,0.68436 0.21969,0.55398 0.35744,0.98919 0.40005,1.43134 0.30032,1.7514 0.2452,2.20725 0.36508,2.42396 0.4138,2.41443 0.48639,2.64318 0.63796,2.35454 0.89799,2.89862 1.0995,2.62495 1.54428,2.38474 1.7392,1.93415 1.90759,1.62146 1.84157,1.05469 2.19511,0.6079 2.53363,0.0163 2.55155,-0.57409 2.50047,-1.2171 2.14977,-1.9396 1.73679,-2.53226 0.58099,-1.80289"
       style="fill:none;stroke:#000000;stroke-width:2"
       id="path170"
       inkscape:connector-curvature="0" />
    <path
       d="m 165.71032,-152.03985 0,0 0.83256,-0.33592 1.97011,-0.71567 3.96313,-2.09906 4.43946,-3.96806 2.8185,-4.81652 1.70675,-4.59252 0.77239,-4.11497 0.0471,-3.85479 -0.59957,-3.03407 -0.5942,-2.08069 -0.70419,-1.04182 -0.80801,-0.49356 -0.73013,0.19923 -0.86894,0.17691 -0.58808,0.66793 -0.39101,1.11747 -0.13906,1.13547 0.17702,1.28479 0.36792,1.32244 0.47717,1.53584 0.62984,1.453 0.89058,1.38742 0.86306,1.41855 0.84117,1.47562 0.88816,1.36362 0.90085,1.39101 0.83044,1.3742 0.76241,1.50767 0.5323,1.47823 0.44737,1.47678 0.12474,1.23898 0.0381,1.51122 -0.11643,1.47904 -0.44832,1.09587 -0.69758,1.18538 -1.01053,0.72227 -1.38376,0.62029 -1.62967,0.25798 -1.31052,0.55476 -1.41475,0.26544 -1.26905,-0.0255 -1.53562,-0.46957 -1.3693,-0.61417 -1.54785,-0.84439 -1.46632,-0.92994 -1.41671,-0.87278 -1.01512,-0.8065 -0.89722,-0.82585 -0.4254,-0.40991 -0.32592,-0.38825 -0.0621,-0.14783 0.0101,0.1124 0.25241,0.41641 0.23642,0.50797 0.43882,0.7452 0.64341,0.82873 1.11473,0.88918 1.13262,0.95582 1.48041,0.85163 1.94773,1.0369 1.91196,0.74526 2.06678,0.42363 2.82877,0.12414 3.36935,-0.0708 3.74445,-0.86543 2.48766,-1.69702 1.00631,-1.96216 0.30349,-0.85763 0.0484,-0.34451"
       style="fill:none;stroke:#000000;stroke-width:2"
       id="path172"
       inkscape:connector-curvature="0" />
    <path
       d="m 191.28995,-156.98502 0,0 0.74547,-0.14398 0.89351,-0.25025 0.0983,-0.40085 0.0403,-0.6555 -0.0156,-1.05012 -0.23918,-1.14762 -0.11608,-1.32111 -0.68385,-1.46059 -0.70936,-1.33644 -0.78745,-1.41822 -0.597,-1.29472 -0.38039,-1.13331 -0.33152,-1.03 -0.39584,-0.92321 -0.52001,-0.84442 -0.68296,-0.61587 -0.79761,-0.57965 -0.83385,-0.50881 -0.72899,-0.3981 -0.75889,-0.27216 -0.71599,-0.22977 -0.69495,-0.1979 -0.87083,-0.10717 -0.88738,0.0156 -0.81823,0.12053 -0.81761,0.15329 -0.89887,0.29403 -0.73733,0.3337 -0.44236,0.31249 -0.42925,0.44943 -0.41976,0.53178 -0.49853,0.50168 -0.42762,0.71181 -0.37547,0.82752 -0.34988,0.97302 -0.22807,1.05321 -0.0746,1.13961 -0.11963,1.09424 0.0198,1.06416 0.0448,1.25462 -0.043,1.36431 0.098,1.20642 0.21401,1.30558 0.32678,1.46609 0.46814,1.61821 0.67333,1.48242 0.83345,1.25913 1.06368,1.55037 1.50921,1.76392 1.85846,1.52018 2.24046,1.32632 2.6914,1.44127 3.46818,1.04497 3.30968,0.88551 3.3931,0.68003 4.39578,0.43583 3.61167,0.39764 3.28842,0.19872 2.90443,0.16395 2.64157,0.0584 2.35451,-0.1141 2.1433,-0.24568 1.49246,-0.34693 1.04513,-0.31498 0.98181,-0.36191 0.60305,-0.44214 0.29111,-0.27278 0.0783,-0.23965 0.18299,-0.13124"
       style="fill:none;stroke:#000000;stroke-width:2"
       id="path174"
       inkscape:connector-curvature="0" />
  </g>
  <g
     transform="translate(181.09063,732.60859)"
     id="g4204">
    <path
       inkscape:connector-curvature="0"
       id="path4206"
       style="fill:none;stroke:#000000;stroke-width:2"
       d="m 83.881039,-200.19687 0,0 0.0033,-0.7813 3.862396,-2.24703 2.198403,-6.56428 4.380037,-6.96873 2.404553,-5.80007 2.250962,-3.91648 1.31892,-1.78292 1.41074,-0.59361 0.43575,0.0673 -0.26483,-0.67507 -2.839629,-0.34871 -4.32248,-2.22809 -5.761917,-0.54414 -5.996296,1.27722 -6.55948,2.02669 -3.012254,4.12046 -1.033042,5.76237 0.09082,7.86028 1.088044,6.58735 3.046972,4.78844 4.725048,2.30583 3.341287,0.7282 5.152245,-0.59094 6.811004,-1.0851 3.556308,-2.55499 2.98708,-3.40114 0.79034,-4.03086 0.0857,-3.56873 -0.75547,-4.06091 -0.40039,-3.61688 -0.87543,-0.11056 -0.77266,0.55304 -1.777871,0.78809 -2.061382,1.41765 -0.02014,3.04539 -0.447767,3.81154 -0.03224,5.2014 0.117723,7.16623 0.33396,8.67879 0.03563,7.96246 -0.07032,8.05323 0.686546,6.51241 0.498522,4.62368 0.435192,0.76805 0.575758,0.0257 0.964569,2.13458 0.37925,1.38104 0.24405,-1.25991 -0.0643,-2.66875 -0.49166,-1.93796 -0.45003,-2.02967 -0.292929,-2.71997 -0.176153,-2.97286 -0.295528,-3.0391 -0.328651,-3.63702 -0.825423,-2.28682 -0.219874,-2.67854 1.206834,-3.56332 1.782384,-2.20728 0.81303,-2.78717 1.52264,-1.98677 0.10411,-2.24453 1.13963,-1.63181 4.18751,0.0395 6.38959,-1.69853 6.65315,-1.73981 3.79735,-1.68968 1.51427,-1.41758 0.58923,-0.72404" />
    <path
       inkscape:connector-curvature="0"
       id="path4208"
       style="fill:none;stroke:#000000;stroke-width:2"
       d="m 127.64379,-204.90164 0,0 1.57933,-0.77719 2.65489,-1.54555 4.03754,-3.11978 3.67671,-3.98322 2.50932,-3.42367 1.88878,-3.41952 1.33849,-2.94141 0.59773,-1.84801 0.18155,-1.02927 -0.0882,-0.26406 -0.22345,0.37505 -0.17878,0.91762 -0.26798,1.30091 -0.34484,1.54813 -0.23828,1.84305 -0.32121,2.23992 -0.18923,2.70535 -0.19438,2.94966 0.0877,3.01046 0.23054,2.65066 0.33026,2.28081 0.71115,2.44014 0.81161,2.26955 0.87782,1.95918 1.16685,1.58848 1.79659,1.22025 1.93815,0.6232 2.01188,-0.0323 2.29837,-0.56403 2.45736,-1.24897 2.25138,-1.8608 2.15552,-2.29464 2.09394,-2.52737 2.0184,-2.99081 1.43369,-2.70851 0.98583,-2.76185 0.81121,-2.67605 0.93924,-2.3175 1.05583,-2.02354 0.93009,-1.44465 0.55344,-0.90136 0.37136,-0.62356 0.0722,-0.13606 -0.0641,0.42967 -0.0607,0.95019 -0.021,1.11567 -0.11619,1.50702 -0.0512,1.90524 -0.0738,1.96862 -0.0677,2.46152 -0.11953,2.31901 0.0287,2.00111 0.15772,2.07451 0.21365,2.08281 0.39472,1.79106 0.64127,1.69151 0.74456,1.43669 0.96608,1.29167 1.15432,1.10588 1.67874,0.82002 1.87438,0.23736 2.1899,-0.43716 2.4666,-1.24443 2.78892,-1.85376 2.25382,-2.05118 1.65685,-1.86685 1.18079,-1.69895 0.54707,-1.08434 0.0451,-0.58716" />
    <path
       inkscape:connector-curvature="0"
       id="path4210"
       style="fill:none;stroke:#000000;stroke-width:2"
       d="m 194.86112,-206.07715 0,0 0.74547,-0.14398 0.89351,-0.25025 0.0983,-0.40085 0.0403,-0.6555 -0.0156,-1.05012 -0.23918,-1.14762 -0.11608,-1.32111 -0.68385,-1.46059 -0.70936,-1.33644 -0.78745,-1.41822 -0.597,-1.29472 -0.38039,-1.13331 -0.33152,-1.03 -0.39584,-0.92321 -0.52001,-0.84442 -0.68296,-0.61587 -0.79761,-0.57965 -0.83385,-0.50881 -0.72899,-0.3981 -0.75889,-0.27216 -0.71599,-0.22977 -0.69495,-0.1979 -0.87083,-0.10717 -0.88738,0.0156 -0.81823,0.12053 -0.81761,0.15329 -0.89887,0.29403 -0.73733,0.3337 -0.44236,0.31249 -0.42925,0.44943 -0.41976,0.53178 -0.49853,0.50168 -0.42761,0.71181 -0.37548,0.82752 -0.34988,0.97302 -0.22807,1.05321 -0.0746,1.13961 -0.11963,1.09424 0.0198,1.06416 0.0448,1.25462 -0.043,1.36431 0.098,1.20642 0.21401,1.30558 0.32678,1.46609 0.46814,1.6182 0.67333,1.48243 0.83345,1.25913 1.06368,1.55037 1.50921,1.76392 1.85846,1.52018 2.24046,1.32632 2.6914,1.44127 3.46818,1.04497 3.30968,0.88551 3.3931,0.68003 4.39578,0.43583 3.61167,0.39764 3.28842,0.19872 2.90443,0.16395 2.64157,0.0584 2.35451,-0.1141 2.1433,-0.24568 1.49246,-0.34693 1.04513,-0.31498 0.98181,-0.36191 0.60305,-0.44214 0.29111,-0.27278 0.0783,-0.23965 0.18299,-0.13124" />
  </g>
  <g
     transform="translate(-62.31622,722.65471)"
     id="g4212">
    <path
       inkscape:connector-curvature="0"
       id="path4214"
       style="fill:none;stroke:#000000;stroke-width:2"
       d="m 92.515374,-193.98022 0,0 0.74547,-0.14399 0.893505,-0.25025 0.09826,-0.40085 0.0403,-0.6555 -0.01557,-1.05012 -0.239184,-1.14762 -0.116071,-1.32111 -0.683857,-1.46059 -0.709357,-1.33644 -0.787447,-1.41822 -0.597007,-1.29472 -0.380387,-1.13331 -0.331521,-1.02999 -0.395839,-0.92322 -0.520009,-0.84442 -0.682962,-0.61587 -0.797605,-0.57965 -0.83385,-0.50881 -0.728989,-0.3981 -0.758894,-0.27216 -0.715988,-0.22977 -0.69495,-0.1979 -0.87083,-0.10717 -0.887387,0.0157 -0.818221,0.12053 -0.817617,0.15329 -0.898867,0.29403 -0.737334,0.3337 -0.442358,0.3125 -0.429249,0.44943 -0.419757,0.53177 -0.498531,0.50168 -0.427616,0.71181 -0.375476,0.82752 -0.349882,0.97302 -0.228064,1.05321 -0.07462,1.13961 -0.119629,1.09424 0.01983,1.06416 0.04483,1.25462 -0.04303,1.36431 0.098,1.20642 0.21401,1.30558 0.32678,1.46609 0.468147,1.61821 0.673323,1.48242 0.833458,1.25913 1.063673,1.55037 1.509214,1.76392 1.858462,1.52018 2.240452,1.32632 2.691406,1.44127 3.468177,1.04497 3.309678,0.88551 3.393101,0.68003 4.395785,0.43583 3.61167,0.39764 3.28842,0.19873 2.90444,0.16394 2.64156,0.0584 2.35451,-0.1141 2.1433,-0.24568 1.49246,-0.34693 1.04513,-0.31498 0.98181,-0.36191 0.60306,-0.44214 0.2911,-0.27278 0.0783,-0.23965 0.18298,-0.13124" />
    <path
       inkscape:connector-curvature="0"
       id="path4216"
       style="fill:none;stroke:#000000;stroke-width:2"
       d="m 124.09203,-181.76941 0,0 0.83256,-0.33591 1.9701,-0.71567 3.96313,-2.09906 4.43947,-3.96807 2.8185,-4.81652 1.70675,-4.59252 0.77239,-4.11496 0.0471,-3.85479 -0.59958,-3.03407 -0.5942,-2.08069 -0.70419,-1.04182 -0.808,-0.49356 -0.73014,0.19922 -0.86893,0.17692 -0.58808,0.66793 -0.39101,1.11746 -0.13907,1.13548 0.17702,1.28479 0.36792,1.32243 0.47717,1.53585 0.62984,1.45299 0.89059,1.38742 0.86305,1.41856 0.84117,1.47561 0.88816,1.36362 0.90085,1.39101 0.83045,1.37421 0.76241,1.50767 0.5323,1.47822 0.44736,1.47678 0.12474,1.23898 0.0381,1.51123 -0.11642,1.47904 -0.44833,1.09587 -0.69758,1.18537 -1.01053,0.72227 -1.38375,0.62029 -1.62968,0.25798 -1.31051,0.55477 -1.41476,0.26543 -1.26905,-0.0255 -1.53562,-0.46956 -1.3693,-0.61417 -1.54785,-0.8444 -1.46631,-0.92993 -1.41672,-0.87278 -1.01511,-0.80651 -0.89722,-0.82584 -0.4254,-0.40991 -0.32592,-0.38826 -0.0621,-0.14783 0.0101,0.11241 0.2524,0.4164 0.23642,0.50797 0.43882,0.7452 0.64341,0.82874 1.11473,0.88917 1.13262,0.95582 1.48041,0.85164 1.94773,1.0369 1.91197,0.74526 2.06677,0.42362 2.82877,0.12415 3.36935,-0.0708 3.74445,-0.86543 2.48767,-1.69702 1.0063,-1.96216 0.30349,-0.85762 0.0484,-0.34451" />
    <path
       inkscape:connector-curvature="0"
       id="path4218"
       style="fill:none;stroke:#000000;stroke-width:2"
       d="m 149.67166,-186.71457 0,0 3.51005,-2.72574 3.57738,-3.08113 4.03317,-4.86058 3.29468,-5.03594 2.86352,-6.3171 1.99977,-6.45977 1.36768,-5.84477 0.9456,-4.26842 0.5783,-3.74022 0.0717,-1.5118 -0.3733,0.46336 -0.57094,2.95922 -0.55405,3.27987 -0.29815,4.00169 -0.34205,3.89061 -0.29561,4.62403 -0.40553,5.54238 -0.32306,6.03854 -0.24611,4.96453 -0.47941,5.63533 -0.31313,5.27883 -0.31124,3.28644 -0.41614,2.33577 -0.24609,1.42684 -0.17246,0.28195 0.11439,-1.3235 0.25098,-4.52529 0.13969,-3.7234 0.1123,-3.53974 -0.0713,-3.71861 -0.0817,-3.74095 -0.16135,-3.81804 0.51134,-3.46787 0.50613,-2.53805 -0.39447,-1.15844 -2.54616,-0.30627 -2.24292,-0.86036 -0.71381,-0.52574 1.5567,0.36554 2.80473,1.11028 2.65971,0.62669 3.15349,0.13367 3.08923,0.13441 1.59908,0.35495 -0.59538,0.61064 -1.90796,0.50265 -2.56788,0.58141 -1.89955,0.79017 -1.02817,1.95902 -0.62125,2.37472 -0.31746,2.61836 0.009,2.96968 -0.46606,2.51218 -0.22452,3.03342 -0.0489,3.06762 -0.0764,2.60175 -0.23504,3.21612 -0.0653,2.50763 0.16765,2.81091 0.63673,2.44488 1.73114,1.58473 2.03121,0.80544 2.55564,-0.27789 3.40363,-0.74476 3.15661,-1.63217 3.29282,-2.39788 3.35899,-2.26839 2.30868,-2.52979 1.52373,-2.14403" />
  </g>
</svg>
