<?xml version="1.0" encoding="UTF-8" standalone="no"?>
<!-- Created with Inkscape (http://www.inkscape.org/) -->

<svg
   xmlns:dc="http://purl.org/dc/elements/1.1/"
   xmlns:cc="http://creativecommons.org/ns#"
   xmlns:rdf="http://www.w3.org/1999/02/22-rdf-syntax-ns#"
   xmlns:svg="http://www.w3.org/2000/svg"
   xmlns="http://www.w3.org/2000/svg"
   xmlns:sodipodi="http://sodipodi.sourceforge.net/DTD/sodipodi-0.dtd"
   xmlns:inkscape="http://www.inkscape.org/namespaces/inkscape"
   version="1.1"
   id="svg2"
   xml:space="preserve"
   width="926.0238"
   height="601.0614"
   viewBox="0 0 926.0238 601.0614"
   sodipodi:docname="setup.svg"
   inkscape:version="0.92.3 (2405546, 2018-03-11)"><metadata
     id="metadata8"><rdf:RDF><cc:Work
         rdf:about=""><dc:format>image/svg+xml</dc:format><dc:type
           rdf:resource="http://purl.org/dc/dcmitype/StillImage" /></cc:Work></rdf:RDF></metadata><defs
     id="defs6" /><sodipodi:namedview
     pagecolor="#ffffff"
     bordercolor="#666666"
     borderopacity="1"
     objecttolerance="10"
     gridtolerance="10"
     guidetolerance="10"
     inkscape:pageopacity="0"
     inkscape:pageshadow="2"
     inkscape:window-width="2560"
     inkscape:window-height="1012"
     id="namedview4"
     showgrid="false"
     inkscape:zoom="0.90437242"
     inkscape:cx="942.80139"
     inkscape:cy="442.46635"
     inkscape:window-x="3840"
     inkscape:window-y="32"
     inkscape:window-maximized="1"
     inkscape:current-layer="g4076"
     inkscape:pagecheckerboard="0"
     fit-margin-top="0"
     fit-margin-left="0"
     fit-margin-right="0"
     fit-margin-bottom="0"
     inkscape:snap-global="false" /><g
     id="g10"
     inkscape:groupmode="layer"
     inkscape:label="setup"
     transform="matrix(1.3333333,0,0,1.3333333,-217.34187,638.12661)">



<g
   id="g4076"><path
     id="path8888"
     style="fill:#eeeeec;stroke:none;stroke-width:0.75px;stroke-linecap:butt;stroke-linejoin:miter;stroke-opacity:1"
     d="M 852.86538,-53.60475 H 605.43282 V -85.969495 H 411.00214 V -53.60475 H 163.00641 v -120 H 381.00214 V -429.4695 h 254.43068 v 255.86475 h 217.43256 z"
     sodipodi:nodetypes="ccccccccccccc" /><g
     id="g1267"
     transform="matrix(-0.22907817,0.33309766,-0.33309766,-0.22907817,651.94977,-390.67387)"><g
       id="g26"
       transform="matrix(-1,0.351434,-0.351434,-1,0,0)"><path
         d="m -227.611,-282.189 c 4.662,1.286 12.642,10.79 16,13.15 3.36,2.356 26.632,14.82 30.724,15.723 4.098,0.901 17.871,6.371 17.76,18.468 -0.111,12.098 -15.331,15.437 -18.33,18.613 0,0 -23.539,8.927 -28.58,13.866 -5.039,4.936 -10.192,11.184 -17.003,13.435 -6.809,2.248 -12.116,-0.281 -14.654,-2.818 -2.541,-2.541 -4.105,-6.048 -4.105,-9.939 0,0 2.626,-18.62 2.628,-33.154 0,-14.539 -2.628,-33.158 -2.628,-33.158 -0.309,-3.878 1.565,-7.399 4.102,-9.938 2.541,-2.54 9.425,-5.535 14.086,-4.248 z"
         style="fill:none;stroke:#2e3436;stroke-width:5.34861;stroke-linecap:square;stroke-linejoin:bevel;stroke-miterlimit:4;stroke-dasharray:none;stroke-opacity:1"
         id="path28"
         inkscape:connector-curvature="0" /></g><path
       d="m 326.781,202.199 c -5.113,0.352 -16.433,-6.347 -20.621,-7.527 -4.187,-1.176 -31.84,-5.461 -36.25,-4.926 -4.414,0.539 -20.109,-0.09 -24.25,-12.226 -4.14,-12.137 9.906,-20.825 11.789,-25.055 0,0 20.403,-17.199 23.707,-23.91 3.305,-6.707 6.262,-14.766 12.282,-19.41 6.019,-4.641 12.214,-3.977 15.644,-2.333 3.434,1.649 6.23,4.606 7.598,8.497 0,0 3.918,19.543 9.023,34.078 5.109,14.539 14.281,32.234 14.281,32.234 1.672,3.77 1.036,7.949 -0.609,11.379 -1.648,3.434 -7.48,8.848 -12.594,9.199 z"
       style="fill:#ffffff;fill-opacity:1;fill-rule:nonzero;stroke:none"
       id="path30"
       inkscape:connector-curvature="0" /><g
       id="g32"
       transform="matrix(-1,0.351434,-0.351434,-1,0,0)"><path
         d="m -205.282,-264.561 11.193,-0.051 c 1.561,-0.006 4.483,3.529 4.482,5.087 0.002,1.563 -0.35,1.451 -1.904,1.351 l -16.499,-1.06 c -1.557,-0.103 -4.889,0.664 -4.889,-0.894 0.002,-1.562 6.056,-4.427 7.617,-4.433 z"
         style="fill:none;stroke:#2e3436;stroke-width:5.34861;stroke-linecap:square;stroke-linejoin:bevel;stroke-miterlimit:4;stroke-dasharray:none;stroke-opacity:1"
         id="path34"
         inkscape:connector-curvature="0" /></g><path
       d="m 298.258,192.418 -11.176,3.984 c -1.559,0.555 -5.723,-1.953 -6.27,-3.511 -0.55,-1.563 -0.16,-1.575 1.43,-2.02 l 16.871,-4.738 c 1.594,-0.445 4.657,-2.383 5.203,-0.824 0.547,1.562 -4.5,6.554 -6.058,7.109 z"
       style="fill:#ffffff;fill-opacity:1;fill-rule:nonzero;stroke:none"
       id="path36"
       inkscape:connector-curvature="0" /><g
       id="g38"
       transform="matrix(-1,0.351434,-0.351434,-1,0,0)"><path
         d="m -205.283,-205.882 11.193,0.051 c 1.561,0.006 4.483,-3.53 4.484,-5.088 0,-1.559 -0.35,-1.451 -1.905,-1.349 l -16.498,1.061 c -1.559,0.101 -4.888,-0.663 -4.889,0.895 -0.001,1.559 6.054,4.425 7.615,4.43 z"
         style="fill:none;stroke:#2e3436;stroke-width:5.34861;stroke-linecap:square;stroke-linejoin:bevel;stroke-miterlimit:4;stroke-dasharray:none;stroke-opacity:1"
         id="path40"
         inkscape:connector-curvature="0" /></g><path
       d="m 277.637,133.738 -11.211,3.883 c -1.563,0.543 -3.242,5.106 -2.696,6.664 0.547,1.559 0.86,1.328 2.379,0.68 l 16.125,-6.86 c 1.524,-0.648 5.121,-1.054 4.575,-2.613 -0.547,-1.558 -7.61,-2.297 -9.172,-1.754 z"
       style="fill:#ffffff;fill-opacity:1;fill-rule:nonzero;stroke:none"
       id="path42"
       inkscape:connector-curvature="0" /><g
       id="g44"
       transform="matrix(-1,0.351434,-0.351434,-1,0,0)"><path
         d="m -212.191,-259.942 19.815,0.284 c 3.403,0.051 5.644,2.601 6.145,6.144 v 36.68 c -0.001,3.503 -2.74,6.142 -6.143,6.142 h -19.129 c -3.406,0.002 -9.184,-8.279 -9.175,-11.682 l 0.057,-25.851 c 0.009,-3.403 5.025,-11.765 8.43,-11.717 z"
         style="fill:none;stroke:#2e3436;stroke-width:5.34861;stroke-linecap:square;stroke-linejoin:bevel;stroke-miterlimit:4;stroke-dasharray:none;stroke-opacity:1"
         id="path46"
         inkscape:connector-curvature="0" /></g><path
       d="m 303.543,185.371 -19.914,6.68 c -3.422,1.144 -6.559,-0.617 -8.305,-3.985 l -12.89,-36.679 c -1.231,-3.504 0.582,-7.106 3.984,-8.301 l 19.129,-6.723 c 3.406,-1.199 12.094,5.051 13.281,8.457 l 9.027,25.871 c 1.188,3.407 -0.89,13.532 -4.312,14.68 z"
       style="fill:#ffffff;fill-opacity:1;fill-rule:nonzero;stroke:none"
       id="path48"
       inkscape:connector-curvature="0" /><g
       id="g50"
       transform="matrix(-1,0.351434,-0.351434,-1,0,0)"><path
         d="m -235.647,-255.396 13.136,-0.001 -0.001,41.164 h -13.137 z"
         style="fill:none;stroke:#2e3436;stroke-width:5.34861;stroke-linecap:square;stroke-linejoin:bevel;stroke-miterlimit:4;stroke-dasharray:none;stroke-opacity:1"
         id="path52"
         inkscape:connector-curvature="0" /></g><path
       d="m 325.402,172.582 -13.136,4.617 -14.465,-41.164 13.137,-4.617 z"
       style="fill:#555753;fill-opacity:1;fill-rule:nonzero;stroke:none"
       id="path54"
       inkscape:connector-curvature="0" /><g
       id="g56"
       transform="matrix(-1,0.351434,-0.351434,-1,0,0)"><path
         d="m -235.996,-259.085 h 13.727 c 0.953,-0.001 1.718,0.768 1.72,1.717 l 0.001,44.704 c -0.002,0.952 -0.768,1.718 -1.72,1.716 h -13.727 c -0.95,0.002 -1.716,-0.763 -1.717,-1.717 v -44.703 c 10e-4,-0.949 0.766,-1.715 1.716,-1.717 z"
         style="fill:none;stroke:#2e3436;stroke-width:5.34861;stroke-linecap:square;stroke-linejoin:bevel;stroke-miterlimit:4;stroke-dasharray:none;stroke-opacity:1"
         id="path58"
         inkscape:connector-curvature="0" /></g><g
       id="g60"
       transform="matrix(-1,0.351434,-0.351434,-1,0,0)"><path
         d="m -210.885,-256.499 c 3.241,-0.63 7.204,-0.437 11.074,-0.233 0.843,0.046 2.072,1.451 2.072,1.451 l -15.468,0.431 c 0,0 1.357,-1.46 2.322,-1.649 z"
         style="fill:none;stroke:#2e3436;stroke-width:5.34861;stroke-linecap:square;stroke-linejoin:bevel;stroke-miterlimit:4;stroke-dasharray:none;stroke-opacity:1"
         id="path62"
         inkscape:connector-curvature="0" /></g><path
       d="m 301.027,182.387 c -3.019,1.769 -7.05,2.968 -10.992,4.125 -0.859,0.25 -2.582,-0.723 -2.582,-0.723 l 15.317,-5.867 c 0,0 -0.844,1.937 -1.743,2.465 z"
       style="fill:#2e3436;fill-opacity:1;fill-rule:nonzero;stroke:none"
       id="path64"
       inkscape:connector-curvature="0" /><g
       id="g66"
       transform="matrix(-1,0.351434,-0.351434,-1,0,0)"><path
         d="m -210.883,-213.9 c 3.238,0.634 7.202,0.437 11.074,0.235 0.841,-0.048 2.072,-1.451 2.072,-1.451 l -15.47,-0.429 c 0,0 1.359,1.458 2.324,1.645 z"
         style="fill:none;stroke:#2e3436;stroke-width:5.34861;stroke-linecap:square;stroke-linejoin:bevel;stroke-miterlimit:4;stroke-dasharray:none;stroke-opacity:1"
         id="path68"
         inkscape:connector-curvature="0" /></g><path
       d="m 286.055,139.789 c -3.461,0.504 -7.356,2.094 -11.157,3.656 -0.824,0.344 -1.562,2.18 -1.562,2.18 l 15.621,-5.008 c 0,0 -1.871,-0.98 -2.902,-0.828 z"
       style="fill:#2e3436;fill-opacity:1;fill-rule:nonzero;stroke:none"
       id="path70"
       inkscape:connector-curvature="0" /><g
       id="g72"
       transform="matrix(-1,0.351434,-0.351434,-1,0,0)"><path
         d="m -208.836,-255.615 h 2.566 l 2.57,0.001 c 5.039,0.001 5.962,-1.616 11.017,5.387 2.721,3.773 7.173,7.767 7.175,12.807 l -10e-4,2.238 0.002,2.239 c -0.001,5.038 -2.525,8.253 -5.531,11.802 -6.699,7.904 -7.623,6.387 -12.663,6.39 h -2.567 l -2.57,-0.001 c -5.038,-10e-4 -7.298,-2.385 -10.588,-5.674 -3.289,-3.289 -3.449,-6.591 -6.103,-10.876 -0.926,-1.501 -1.642,-2.452 -1.499,-3.882 -0.071,-1.287 0.448,-2.03 1.5,-4.023 3.174,-6.021 2.958,-7.73 6.247,-11.02 3.288,-3.286 5.405,-5.385 10.445,-5.388 z"
         style="fill:none;stroke:#2e3436;stroke-width:5.34861;stroke-linecap:square;stroke-linejoin:bevel;stroke-miterlimit:4;stroke-dasharray:none;stroke-opacity:1"
         id="path74"
         inkscape:connector-curvature="0" /></g><path
       d="m 298.668,182.223 -2.566,0.902 -2.571,0.902 c -5.039,1.77 -5.394,3.711 -12.91,-1.515 -4.047,-2.817 -9.902,-5.246 -11.676,-10.285 l -0.785,-2.239 -0.789,-2.238 c -1.769,-5.039 -0.375,-9.141 1.383,-13.746 3.922,-10.258 5.379,-9.066 10.418,-10.84 l 2.566,-0.902 2.571,-0.903 c 5.039,-1.769 8.136,-0.179 12.582,1.953 4.445,2.133 5.765,5.379 9.925,8.731 1.454,1.176 2.504,1.875 2.864,3.355 0.523,1.262 0.265,2.188 -0.086,4.551 -1.059,7.137 -0.242,8.77 -2.375,13.215 -2.133,4.441 -3.512,7.285 -8.551,9.059 z"
       style="fill:#ffffff;fill-opacity:1;fill-rule:nonzero;stroke:none"
       id="path76"
       inkscape:connector-curvature="0" /><g
       id="g78"
       transform="matrix(-1,0.351434,-0.351434,-1,0,0)"><path
         d="m -188.911,-244.788 c 1.169,-0.003 3.403,5.133 3.423,6.3 l 0.098,6.812 c 0.02,1.167 -2.049,6.452 -3.218,6.455 -1.168,0 0.951,-4.529 0.975,-5.696 l 0.152,-8.38 c 0.019,-1.166 -2.598,-5.491 -1.429,-5.494 z"
         style="fill:none;stroke:#2e3436;stroke-width:5.34861;stroke-linecap:square;stroke-linejoin:bevel;stroke-miterlimit:4;stroke-dasharray:none;stroke-opacity:1"
         id="path80"
         inkscape:connector-curvature="0" /></g><path
       d="m 274.938,178.398 c -1.168,0.414 -5.208,-3.937 -5.637,-5.097 l -2.492,-6.778 c -0.43,-1.16 -0.219,-7.171 0.949,-7.585 1.168,-0.411 0.64,4.863 1.027,6.039 l 2.793,8.433 c 0.391,1.172 4.527,4.578 3.36,4.992 z"
       style="fill:#2e3436;fill-opacity:1;fill-rule:nonzero;stroke:none"
       id="path82"
       inkscape:connector-curvature="0" /><g
       id="g84"
       transform="matrix(-1,0.351434,-0.351434,-1,0,0)"><path
         d="m -210.09,-249.125 h 9.649 c 9.64,0.001 11.328,6.192 11.327,13.973 0.002,7.777 -2.26,14.112 -11.327,14.113 h -9.648 c -7.778,10e-4 -14.041,-6.263 -14.041,-14.044 -0.001,-7.778 6.263,-14.041 14.04,-14.042 z"
         style="fill:none;stroke:#2e3436;stroke-width:5.34861;stroke-linecap:square;stroke-linejoin:bevel;stroke-miterlimit:4;stroke-dasharray:none;stroke-opacity:1"
         id="path86"
         inkscape:connector-curvature="0" /></g></g><g
     id="g1351"
     transform="matrix(0.93458487,0,0,0.93458487,356.13469,-502.76592)"><g
       id="g156"><path
         inkscape:connector-curvature="0"
         id="path158"
         style="fill:none;stroke:#000000;stroke-width:0.75;stroke-linecap:butt;stroke-linejoin:miter;stroke-miterlimit:4;stroke-dasharray:none;stroke-opacity:1"
         d="m 295.734,40.715 h -264" /></g><path
       inkscape:connector-curvature="0"
       id="path160"
       style="fill:#000000;fill-opacity:1;fill-rule:nonzero;stroke:none"
       d="m 25.953,40.723 3.836,-2.215 3.84,-2.219 v 8.863 l -3.84,-2.214 z" /><path
       inkscape:connector-curvature="0"
       id="path162"
       style="fill:#000000;fill-opacity:1;fill-rule:nonzero;stroke:none"
       d="m 300.953,40.723 -3.836,2.215 -3.84,2.214 v -8.863 l 3.84,2.219 z" /><text
       id="text166"
       style="font-variant:normal;font-weight:normal;font-size:15.5216px;font-family:'Liberation Serif';-inkscape-font-specification:LiberationSerif;writing-mode:lr-tb;fill:#000000;fill-opacity:1;fill-rule:nonzero;stroke:none"
       x="146.38376"
       y="36.079132"><tspan
         id="tspan164"
         y="36.079132"
         x="146.38376">≈</tspan></text>
<text
       id="text170"
       style="font-variant:normal;font-weight:normal;font-size:15.5216px;font-family:'Liberation Serif';-inkscape-font-specification:LiberationSerif;writing-mode:lr-tb;fill:#000000;fill-opacity:1;fill-rule:nonzero;stroke:none"
       x="154.88959"
       y="36.079132"><tspan
         id="tspan168"
         sodipodi:role="line"
         y="36.079132"
         x="154.88959 162.65036">4m</tspan></text>
</g><path
     style="fill:none;stroke:#000000;stroke-width:0.75px;stroke-linecap:butt;stroke-linejoin:miter;stroke-opacity:1"
     d="M 163.00641,-173.60475 H 381.00214 V -429.4695 h 254.43068 v 255.86475 h 202.43256"
     id="path943"
     sodipodi:nodetypes="cccccc" /><path
     style="fill:none;stroke:#000000;stroke-width:0.75px;stroke-linecap:butt;stroke-linejoin:miter;stroke-opacity:1"
     d="M 163.00641,-53.60475 H 411.00214 V -85.969495 H 605.43282 V -53.60475 H 852.86538"
     id="path1044"
     sodipodi:nodetypes="cccccc" /><rect
     style="fill:#000000;fill-opacity:1;stroke:none;stroke-width:0.845829;stroke-linecap:round;stroke-miterlimit:4;stroke-dasharray:none;stop-color:#000000"
     id="rect1267"
     width="6.3369794"
     height="68.359055"
     x="377.71838"
     y="-290.18304" /><rect
     style="fill:#000000;fill-opacity:1;stroke:none;stroke-width:0.845829;stroke-linecap:round;stroke-miterlimit:4;stroke-dasharray:none;stop-color:#000000"
     id="rect1163"
     width="6.3369794"
     height="68.359055"
     x="377.63702"
     y="-395.92944" /><rect
     style="fill:#000000;fill-opacity:1;stroke:none;stroke-width:1.04533;stroke-linecap:round;stroke-miterlimit:4;stroke-dasharray:none;stop-color:#000000"
     id="rect1273"
     width="5.6275039"
     height="117.57234"
     x="-432.50766"
     y="-568.25488"
     transform="rotate(90)" /><rect
     style="fill:#000000;fill-opacity:1;stroke:none;stroke-width:1.13536;stroke-linecap:round;stroke-miterlimit:4;stroke-dasharray:none;stop-color:#000000"
     id="rect1275"
     width="11.417873"
     height="68.359055"
     x="-58.511509"
     y="-251.28839"
     transform="rotate(90)" /><rect
     style="fill:#000000;fill-opacity:1;stroke:none;stroke-width:1.13536;stroke-linecap:round;stroke-miterlimit:4;stroke-dasharray:none;stop-color:#000000"
     id="rect1277"
     width="11.417873"
     height="68.359055"
     x="-58.511509"
     y="-857.52429"
     transform="rotate(90)" /><rect
     style="fill:#000000;fill-opacity:1;stroke:none;stroke-width:1.13536;stroke-linecap:round;stroke-miterlimit:4;stroke-dasharray:none;stop-color:#000000"
     id="rect1281"
     width="11.417873"
     height="68.359055"
     x="-178.47874"
     y="-836.94116"
     transform="rotate(90)" /><path
     d="m 628.78373,-73.045706 c 3.92542,0 7.10682,-3.181416 7.10682,-7.106824 0,-3.925409 -3.1814,-7.106825 -7.10682,-7.106825 -3.92541,0 -7.10683,3.181416 -7.10683,7.106825 0,3.925408 3.18142,7.106824 7.10683,7.106824 z m 4.97478,1.776703 h -0.92722 c -1.23259,0.566323 -2.60399,0.888355 -4.04756,0.888355 -1.44357,0 -2.80941,-0.322032 -4.04755,-0.888355 h -0.92723 c -4.11973,0 -7.46216,3.342428 -7.46216,7.462163 v 2.309719 c 0,1.471335 1.19372,2.665065 2.66506,2.665065 h 15.26301 c -0.13325,-0.377556 -0.18877,-0.777315 -0.14435,-1.182625 l 0.37755,-3.381296 0.0666,-0.616294 0.43862,-0.438625 4.29185,-4.291853 c -1.36029,-1.537964 -3.33132,-2.526254 -5.54665,-2.526254 z m 2.51515,8.067353 -0.37755,3.386848 c -0.0611,0.56633 0.41641,1.043815 0.97719,0.977193 l 3.38129,-0.377556 7.6565,-7.65649 -3.98094,-3.980933 z m 15.21859,-9.127825 -2.10428,-2.104287 c -0.51636,-0.516351 -1.36029,-0.516351 -1.87664,0 l -2.09874,2.098734 -0.22764,0.227641 3.98649,3.980933 2.32081,-2.320823 c 0.51636,-0.521904 0.51636,-1.360287 0,-1.882198 z"
     id="path1283"
     style="fill:#ce5c00;stroke-width:0.055522" /><path
     d="m 483.93193,-299.75058 c 4.60837,0 8.3433,-3.73493 8.3433,-8.34331 0,-4.60837 -3.73493,-8.3433 -8.3433,-8.3433 -4.60838,0 -8.34331,3.73493 -8.34331,8.3433 0,4.60838 3.73493,8.34331 8.34331,8.34331 z m 5.84031,2.08583 h -1.08854 c -1.44704,0.66485 -3.05704,1.04291 -4.75177,1.04291 -1.69474,0 -3.29822,-0.37806 -4.75178,-1.04291 h -1.08854 c -4.83651,0 -8.76047,3.92396 -8.76047,8.76047 v 2.71157 c 0,1.72733 1.40141,3.12874 3.12874,3.12874 h 22.94409 c 1.72733,0 3.12874,-1.40141 3.12874,-3.12874 v -2.71157 c 0,-4.83651 -3.92396,-8.76047 -8.76047,-8.76047 z"
     id="path1301"
     style="stroke-width:0.0651821" /><path
     d="m 531.66171,-253.9937 c 4.60837,0 8.3433,-3.73494 8.3433,-8.34331 0,-4.60837 -3.73493,-8.34331 -8.3433,-8.34331 -4.60838,0 -8.34331,3.73494 -8.34331,8.34331 0,4.60837 3.73493,8.34331 8.34331,8.34331 z m 5.84031,2.08582 h -1.08854 c -1.44704,0.66486 -3.05704,1.04292 -4.75177,1.04292 -1.69474,0 -3.29822,-0.37806 -4.75178,-1.04292 h -1.08854 c -4.83651,0 -8.76047,3.92396 -8.76047,8.76047 v 2.71158 c 0,1.72732 1.40141,3.12874 3.12874,3.12874 h 22.94409 c 1.72733,0 3.12874,-1.40142 3.12874,-3.12874 v -2.71158 c 0,-4.83651 -3.92396,-8.76047 -8.76047,-8.76047 z"
     id="path1303"
     style="stroke-width:0.0651821" /><path
     d="m 783.02074,-124.04506 c 4.60837,0 8.3433,-3.73493 8.3433,-8.3433 0,-4.60838 -3.73493,-8.34331 -8.3433,-8.34331 -4.60838,0 -8.34331,3.73493 -8.34331,8.34331 0,4.60837 3.73493,8.3433 8.34331,8.3433 z m 5.84031,2.08583 h -1.08854 c -1.44704,0.66486 -3.05704,1.04291 -4.75177,1.04291 -1.69474,0 -3.29822,-0.37805 -4.75178,-1.04291 h -1.08854 c -4.83651,0 -8.76047,3.92396 -8.76047,8.76047 v 2.71158 c 0,1.72732 1.40141,3.12874 3.12874,3.12874 h 22.94409 c 1.72733,0 3.12874,-1.40142 3.12874,-3.12874 v -2.71158 c 0,-4.83651 -3.92396,-8.76047 -8.76047,-8.76047 z"
     id="path1305"
     style="stroke-width:0.0651821" /><path
     d="m 337.07713,-90.625356 c 4.60837,0 8.3433,-3.73493 8.3433,-8.34331 0,-4.608374 -3.73493,-8.343304 -8.3433,-8.343304 -4.60838,0 -8.34331,3.73493 -8.34331,8.343304 0,4.60838 3.73493,8.34331 8.34331,8.34331 z m 5.84031,2.08583 h -1.08854 c -1.44704,0.66485 -3.05704,1.04291 -4.75177,1.04291 -1.69474,0 -3.29822,-0.37806 -4.75178,-1.04291 h -1.08854 c -4.83651,0 -8.76047,3.92396 -8.76047,8.760468 v 2.711575 c 0,1.727325 1.40141,3.12874 3.12874,3.12874 h 22.94409 c 1.72733,0 3.12874,-1.401415 3.12874,-3.12874 v -2.711575 c 0,-4.836508 -3.92396,-8.760468 -8.76047,-8.760468 z"
     id="path1761"
     style="stroke-width:0.0651821" /><path
     d="m 300.96956,-130.31364 c 4.60837,0 8.3433,-3.73493 8.3433,-8.34331 0,-4.60837 -3.73493,-8.3433 -8.3433,-8.3433 -4.60838,0 -8.34331,3.73493 -8.34331,8.3433 0,4.60838 3.73493,8.34331 8.34331,8.34331 z m 5.84031,2.08583 h -1.08854 c -1.44704,0.66485 -3.05704,1.04291 -4.75177,1.04291 -1.69474,0 -3.29822,-0.37806 -4.75178,-1.04291 h -1.08854 c -4.83651,0 -8.76047,3.92396 -8.76047,8.76047 v 2.71157 c 0,1.72733 1.40141,3.12874 3.12874,3.12874 h 22.94409 c 1.72733,0 3.12874,-1.40141 3.12874,-3.12874 v -2.71157 c 0,-4.83651 -3.92396,-8.76047 -8.76047,-8.76047 z"
     id="path1763"
     style="stroke-width:0.0651821" /><path
     d="m 363.4444,-136.87508 c 4.60837,0 8.3433,-3.73493 8.3433,-8.34331 0,-4.60837 -3.73493,-8.3433 -8.3433,-8.3433 -4.60838,0 -8.34331,3.73493 -8.34331,8.3433 0,4.60838 3.73493,8.34331 8.34331,8.34331 z m 5.84031,2.08583 h -1.08854 c -1.44704,0.66485 -3.05704,1.04291 -4.75177,1.04291 -1.69474,0 -3.29822,-0.37806 -4.75178,-1.04291 h -1.08854 c -4.83651,0 -8.76047,3.92396 -8.76047,8.76047 v 2.71158 c 0,1.72732 1.40141,3.12874 3.12874,3.12874 h 22.94409 c 1.72733,0 3.12874,-1.40142 3.12874,-3.12874 v -2.71158 c 0,-4.83651 -3.92396,-8.76047 -8.76047,-8.76047 z"
     id="path1292"
     style="stroke-width:0.0651821" /><g
     id="g1369"
     transform="matrix(0,0.93458487,-0.93458487,0,728.97976,-455.09966)"><g
       id="g1355"><path
         inkscape:connector-curvature="0"
         id="path1353"
         style="fill:none;stroke:#000000;stroke-width:0.75;stroke-linecap:butt;stroke-linejoin:miter;stroke-miterlimit:4;stroke-dasharray:none;stroke-opacity:1"
         d="m 295.734,40.715 h -264" /></g><path
       inkscape:connector-curvature="0"
       id="path1357"
       style="fill:#000000;fill-opacity:1;fill-rule:nonzero;stroke:none"
       d="m 25.953,40.723 3.836,-2.215 3.84,-2.219 v 8.863 l -3.84,-2.214 z" /><path
       inkscape:connector-curvature="0"
       id="path1359"
       style="fill:#000000;fill-opacity:1;fill-rule:nonzero;stroke:none"
       d="m 300.953,40.723 -3.836,2.215 -3.84,2.214 v -8.863 l 3.84,2.219 z" /><text
       id="text1363"
       style="font-variant:normal;font-weight:normal;font-size:15.5216px;font-family:'Liberation Serif';-inkscape-font-specification:LiberationSerif;writing-mode:lr-tb;fill:#000000;fill-opacity:1;fill-rule:nonzero;stroke:none"
       x="146.38376"
       y="36.079132"><tspan
         id="tspan1361"
         y="36.079132"
         x="146.38376">≈</tspan></text>
<text
       id="text1367"
       style="font-variant:normal;font-weight:normal;font-size:15.5216px;font-family:'Liberation Serif';-inkscape-font-specification:LiberationSerif;writing-mode:lr-tb;fill:#000000;fill-opacity:1;fill-rule:nonzero;stroke:none"
       x="154.88959"
       y="36.079132"><tspan
         id="tspan1365"
         sodipodi:role="line"
         y="36.079132"
         x="154.88959 162.65036">4m</tspan></text>
</g><rect
     style="fill:#000000;fill-opacity:1;stroke:none;stroke-width:0.845829;stroke-linecap:round;stroke-miterlimit:4;stroke-dasharray:none;stop-color:#000000"
     id="rect1668"
     width="6.3369794"
     height="68.359055"
     x="632.13983"
     y="-290.18304" /><rect
     style="fill:#000000;fill-opacity:1;stroke:none;stroke-width:0.845829;stroke-linecap:round;stroke-miterlimit:4;stroke-dasharray:none;stop-color:#000000"
     id="rect1670"
     width="6.3369794"
     height="68.359055"
     x="632.05847"
     y="-395.92944" /><g
     id="g1781"
     transform="matrix(0,0.93458487,-0.93458487,0,728.54422,-338.01025)"><g
       id="g1767"><path
         inkscape:connector-curvature="0"
         id="path1765"
         style="fill:none;stroke:#000000;stroke-width:0.75;stroke-linecap:butt;stroke-linejoin:miter;stroke-miterlimit:4;stroke-dasharray:none;stroke-opacity:1"
         d="M 295.734,40.715 H 181.15167"
         sodipodi:nodetypes="cc" /></g><path
       inkscape:connector-curvature="0"
       id="path1769"
       style="fill:#000000;fill-opacity:1;fill-rule:nonzero;stroke:none"
       d="m 177.95571,40.723 3.836,-2.215 3.84,-2.219 v 8.863 l -3.84,-2.214 z" /><path
       inkscape:connector-curvature="0"
       id="path1771"
       style="fill:#000000;fill-opacity:1;fill-rule:nonzero;stroke:none"
       d="m 300.953,40.723 -3.836,2.215 -3.84,2.214 v -8.863 l 3.84,2.219 z" /><text
       id="text1775"
       style="font-variant:normal;font-weight:normal;font-size:15.5216px;font-family:'Liberation Serif';-inkscape-font-specification:LiberationSerif;writing-mode:lr-tb;fill:#000000;fill-opacity:1;fill-rule:nonzero;stroke:none"
       x="223.37366"
       y="36.079132"><tspan
         id="tspan1773"
         y="36.079132"
         x="223.37366">≈</tspan></text>
<text
       id="text1779"
       style="font-variant:normal;font-weight:normal;font-size:15.5216px;font-family:'Liberation Serif';-inkscape-font-specification:LiberationSerif;writing-mode:lr-tb;fill:#000000;fill-opacity:1;fill-rule:nonzero;stroke:none"
       x="231.87949"
       y="36.079132"><tspan
         id="tspan1777"
         sodipodi:role="line"
         x="231.87949"
         y="36.079132">2m</tspan></text>
</g><g
     id="g3206"
     transform="matrix(0.00518212,0,0,0.00518212,337.93855,-376.90275)"><rect
       height="5770"
       rx="553"
       width="5770"
       x="175"
       y="175"
       id="rect3202" /><path
       d="M 3252,1066 V 4996 H 2882 V 1066 h 370 m -1528,612 c 179,0.03 324,-145 325,-324 -0.5,-179 -146,-324 -325,-324 -179,-0.25 -324,145 -324,324 0.22,179 145,324 324,324 m -46,2060 1,1130 c -0.44,204 -306,204 -306,0 V 3738 H 968 l 433,-1500 h -68 l -255,859 c -61,187 -318,110 -259,-91 l 283,-933 c 30.5,-106 165,-295 398,-295 h 446 c 231,0.37 366,191 401,295 l 283,933 c 57,200 -198,283 -259,88 l -255,-856 h -74 l 438,1500 h -407 v 1140 c 0.44,202 -304,201 -304,0 V 3738 h -91 M 4038,1785 c -228,0.15 -411,189 -411,424 v 1000 c -0.02,195 281,195 281,0 v -917 h 67 v 2540 c -0.04,261 375,253 375,0 V 3342 h 64 v 1490 c 0.16,253 377,261 377,0 V 2292 h 65 v 917 c -0.05,197 280,197 279,0 v -997 c 0.34,-217 -166,-429 -416,-429 l -681,-1 m 343,-104 c 179,0.03 324,-145 325,-324 -0.5,-179 -146,-324 -325,-324 -179,-0.25 -324,145 -324,324 0.22,179 145,324 324,324"
       fill="#ffffff"
       id="path3204" /></g><text
     id="text206"
     style="font-variant:normal;font-weight:bold;font-size:16px;font-family:'Liberation Serif';-inkscape-font-specification:LiberationSerif-Bold;writing-mode:lr-tb;fill:#000000;fill-opacity:1;fill-rule:nonzero;stroke:none"
     x="511.38809"
     y="-358.43414"><tspan
       id="tspan204"
       sodipodi:role="line"
       y="-358.43414"
       x="511.38809 518.18811 526.18811 535.08411 543.08411">robot</tspan></text>
<text
     id="text4080"
     style="font-variant:normal;font-weight:bold;font-size:16px;font-family:'Liberation Serif';-inkscape-font-specification:LiberationSerif-Bold;writing-mode:lr-tb;fill:#000000;fill-opacity:1;fill-rule:nonzero;stroke:none"
     x="182.27916"
     y="-27.955149"><tspan
       id="tspan4078"
       sodipodi:role="line"
       x="182.27916"
       y="-27.955149">classroom</tspan></text>
<text
     id="text4850"
     style="font-variant:normal;font-weight:bold;font-size:16px;font-family:'Liberation Serif';-inkscape-font-specification:LiberationSerif-Bold;writing-mode:lr-tb;fill:#000000;fill-opacity:1;fill-rule:nonzero;stroke:none"
     x="789.336"
     y="-27.955149"><tspan
       id="tspan4848"
       sodipodi:role="line"
       x="789.336"
       y="-27.955149">classroom</tspan></text>
<text
     id="text4854"
     style="font-variant:normal;font-weight:bold;font-size:16px;font-family:'Liberation Serif';-inkscape-font-specification:LiberationSerif-Bold;writing-mode:lr-tb;fill:#000000;fill-opacity:1;fill-rule:nonzero;stroke:none"
     x="444.44318"
     y="-439.98087"><tspan
       id="tspan4852"
       sodipodi:role="line"
       x="444.44318"
       y="-439.98087">garden (not in use)</tspan></text>
<text
     id="text6936"
     style="font-variant:normal;font-weight:bold;font-size:16px;font-family:'Liberation Serif';-inkscape-font-specification:LiberationSerif-Bold;writing-mode:lr-tb;fill:#000000;fill-opacity:1;fill-rule:nonzero;stroke:none"
     x="462.90836"
     y="-68.804588"><tspan
       id="tspan6934"
       sodipodi:role="line"
       x="462.90836"
       y="-68.804588">pupils' lockers</tspan></text>
<text
     id="text7408"
     style="font-variant:normal;font-weight:bold;font-size:16px;font-family:'Liberation Serif';-inkscape-font-specification:LiberationSerif-Bold;writing-mode:lr-tb;fill:#000000;fill-opacity:1;fill-rule:nonzero;stroke:none"
     x="592.04846"
     y="-37.590824"><tspan
       id="tspan7406"
       sodipodi:role="line"
       x="592.04846"
       y="-37.590824">researcher</tspan></text>
<g
     id="g8606"
     transform="matrix(0.00518212,0,0,0.00518212,337.93855,-271.11504)"><rect
       height="5770"
       rx="553"
       width="5770"
       x="175"
       y="175"
       id="rect8602" /><path
       d="M 3252,1066 V 4996 H 2882 V 1066 h 370 m -1528,612 c 179,0.03 324,-145 325,-324 -0.5,-179 -146,-324 -325,-324 -179,-0.25 -324,145 -324,324 0.22,179 145,324 324,324 m -46,2060 1,1130 c -0.44,204 -306,204 -306,0 V 3738 H 968 l 433,-1500 h -68 l -255,859 c -61,187 -318,110 -259,-91 l 283,-933 c 30.5,-106 165,-295 398,-295 h 446 c 231,0.37 366,191 401,295 l 283,933 c 57,200 -198,283 -259,88 l -255,-856 h -74 l 438,1500 h -407 v 1140 c 0.44,202 -304,201 -304,0 V 3738 h -91 M 4038,1785 c -228,0.15 -411,189 -411,424 v 1000 c -0.02,195 281,195 281,0 v -917 h 67 v 2540 c -0.04,261 375,253 375,0 V 3342 h 64 v 1490 c 0.16,253 377,261 377,0 V 2292 h 65 v 917 c -0.05,197 280,197 279,0 v -997 c 0.34,-217 -166,-429 -416,-429 l -681,-1 m 343,-104 c 179,0.03 324,-145 325,-324 -0.5,-179 -146,-324 -325,-324 -179,-0.25 -324,145 -324,324 0.22,179 145,324 324,324"
       fill="#ffffff"
       id="path8604" /></g><g
     id="g8612"
     transform="matrix(0.00518212,0,0,0.00518212,647.24669,-376.90275)"><rect
       height="5770"
       rx="553"
       width="5770"
       x="175"
       y="175"
       id="rect8608" /><path
       d="M 3252,1066 V 4996 H 2882 V 1066 h 370 m -1528,612 c 179,0.03 324,-145 325,-324 -0.5,-179 -146,-324 -325,-324 -179,-0.25 -324,145 -324,324 0.22,179 145,324 324,324 m -46,2060 1,1130 c -0.44,204 -306,204 -306,0 V 3738 H 968 l 433,-1500 h -68 l -255,859 c -61,187 -318,110 -259,-91 l 283,-933 c 30.5,-106 165,-295 398,-295 h 446 c 231,0.37 366,191 401,295 l 283,933 c 57,200 -198,283 -259,88 l -255,-856 h -74 l 438,1500 h -407 v 1140 c 0.44,202 -304,201 -304,0 V 3738 h -91 M 4038,1785 c -228,0.15 -411,189 -411,424 v 1000 c -0.02,195 281,195 281,0 v -917 h 67 v 2540 c -0.04,261 375,253 375,0 V 3342 h 64 v 1490 c 0.16,253 377,261 377,0 V 2292 h 65 v 917 c -0.05,197 280,197 279,0 v -997 c 0.34,-217 -166,-429 -416,-429 l -681,-1 m 343,-104 c 179,0.03 324,-145 325,-324 -0.5,-179 -146,-324 -325,-324 -179,-0.25 -324,145 -324,324 0.22,179 145,324 324,324"
       fill="#ffffff"
       id="path8610" /></g><g
     id="g8618"
     transform="matrix(0.00518212,0,0,0.00518212,647.24669,-271.11504)"><rect
       height="5770"
       rx="553"
       width="5770"
       x="175"
       y="175"
       id="rect8614" /><path
       d="M 3252,1066 V 4996 H 2882 V 1066 h 370 m -1528,612 c 179,0.03 324,-145 325,-324 -0.5,-179 -146,-324 -325,-324 -179,-0.25 -324,145 -324,324 0.22,179 145,324 324,324 m -46,2060 1,1130 c -0.44,204 -306,204 -306,0 V 3738 H 968 l 433,-1500 h -68 l -255,859 c -61,187 -318,110 -259,-91 l 283,-933 c 30.5,-106 165,-295 398,-295 h 446 c 231,0.37 366,191 401,295 l 283,933 c 57,200 -198,283 -259,88 l -255,-856 h -74 l 438,1500 h -407 v 1140 c 0.44,202 -304,201 -304,0 V 3738 h -91 M 4038,1785 c -228,0.15 -411,189 -411,424 v 1000 c -0.02,195 281,195 281,0 v -917 h 67 v 2540 c -0.04,261 375,253 375,0 V 3342 h 64 v 1490 c 0.16,253 377,261 377,0 V 2292 h 65 v 917 c -0.05,197 280,197 279,0 v -997 c 0.34,-217 -166,-429 -416,-429 l -681,-1 m 343,-104 c 179,0.03 324,-145 325,-324 -0.5,-179 -146,-324 -325,-324 -179,-0.25 -324,145 -324,324 0.22,179 145,324 324,324"
       fill="#ffffff"
       id="path8616" /></g><path
     style="fill:none;stroke:#000000;stroke-width:0.75px;stroke-linecap:butt;stroke-linejoin:miter;stroke-opacity:1"
     d="m 341.51115,-303.59661 39.49099,0 m 254.43068,0 40.58509,0"
     id="path8726"
     sodipodi:nodetypes="cccc"
     inkscape:connector-curvature="0" /><path
     style="fill:none;stroke:#000000;stroke-width:0.75px;stroke-linecap:butt;stroke-linejoin:miter;stroke-opacity:1"
     d="m 277.00641,-429.59661 h 103.99573 m 254.43068,0 h 98.93256"
     id="path8785"
     sodipodi:nodetypes="cccc" /><rect
     style="fill:#000000;fill-opacity:1;stroke:none;stroke-width:0.845829;stroke-linecap:round;stroke-miterlimit:4;stroke-dasharray:none;stop-color:#000000"
     id="rect9380"
     width="6.3369794"
     height="68.359055"
     x="171.32835"
     y="263.07758"
     transform="rotate(-90)" /><rect
     style="fill:#000000;fill-opacity:1;stroke:none;stroke-width:0.845829;stroke-linecap:round;stroke-miterlimit:4;stroke-dasharray:none;stop-color:#000000"
     id="rect9464"
     width="6.3369794"
     height="68.359055"
     x="171.32835"
     y="163.48932"
     transform="rotate(-90)" /></g></g></svg>